<?xml version="1.0" encoding="UTF-8" standalone="no"?>
<!-- Created with Inkscape (http://www.inkscape.org/) -->
<svg
   xmlns:dc="http://purl.org/dc/elements/1.1/"
   xmlns:cc="http://creativecommons.org/ns#"
   xmlns:rdf="http://www.w3.org/1999/02/22-rdf-syntax-ns#"
   xmlns:svg="http://www.w3.org/2000/svg"
   xmlns="http://www.w3.org/2000/svg"
   xmlns:sodipodi="http://sodipodi.sourceforge.net/DTD/sodipodi-0.dtd"
   xmlns:inkscape="http://www.inkscape.org/namespaces/inkscape"
   id="svg2"
   sodipodi:version="0.32"
   inkscape:version="0.46"
   width="497"
   height="586"
   version="1.0"
   sodipodi:docname="Coat_of_arms_of_Alytus_(Lithuania).svg"
   inkscape:output_extension="org.inkscape.output.svg.inkscape">
  <metadata
     id="metadata7">
    <rdf:RDF>
      <cc:Work
         rdf:about="">
        <dc:format>image/svg+xml</dc:format>
        <dc:type
           rdf:resource="http://purl.org/dc/dcmitype/StillImage" />
      </cc:Work>
    </rdf:RDF>
  </metadata>
  <defs
     id="defs5">
    <inkscape:perspective
       sodipodi:type="inkscape:persp3d"
       inkscape:vp_x="0 : 526.18109 : 1"
       inkscape:vp_y="0 : 1000 : 0"
       inkscape:vp_z="744.09448 : 526.18109 : 1"
       inkscape:persp3d-origin="372.04724 : 350.78739 : 1"
       id="perspective9" />
  </defs>
  <sodipodi:namedview
     inkscape:window-height="722"
     inkscape:window-width="972"
     inkscape:pageshadow="2"
     inkscape:pageopacity="0.0"
     guidetolerance="10.0"
     gridtolerance="10.0"
     objecttolerance="10.0"
     borderopacity="1.0"
     bordercolor="#666666"
     pagecolor="#ffffff"
     id="base"
     showgrid="false"
     inkscape:zoom="0.59609343"
     inkscape:cx="397.93664"
     inkscape:cy="251.78836"
     inkscape:window-x="5"
     inkscape:window-y="49"
     inkscape:current-layer="svg2" />
  <g
     id="g2446">
    <path
       id="path2430"
       d="M 226.5,581.38676 C 199.75511,577.52917 186.25735,574.49173 168.80388,568.40326 C 146.27605,560.54466 117.16379,544.28141 97.5,528.57013 C 87.867303,520.87365 69.094282,502.17738 61.294513,492.51266 C 34.909763,459.81922 18.026156,422.53018 9.8405152,378.87162 L 7.520933,366.5 L 7.2368083,186.75 L 6.9526836,7 L 249.5,7 L 492.04732,7 L 491.76319,186.75 L 491.47907,366.5 L 489.15948,378.87162 C 481.07945,421.96694 464.27117,459.37996 438.55975,491.5 C 430.84546,501.13708 412.14584,519.9134 402.5,527.70765 C 375.81295,549.2719 342.0846,566.31673 309.72169,574.59374 C 289.02394,579.88731 279.08793,581.10303 253.5,581.47272 C 240.3,581.66343 228.15,581.62475 226.5,581.38676 z"
       style="fill:#000000" />
    <path
       id="path2428"
       d="M 281.5,573.51457 C 317.55031,568.47806 352.26849,555.13611 382.33258,534.76534 C 400.66184,522.34585 424.29,499.79189 437.7051,481.91023 C 459.35012,453.0585 473.99488,420.7048 480.89213,386.5 C 485.46065,363.84386 485.34445,368.65353 485.71776,186.75 L 486.07434,13 L 249.53717,13 L 13,13 L 13.002428,177.75 C 13.003938,280.23534 13.390392,347.60211 14.02497,356 C 18.330701,412.98124 40.58976,462.70713 79.994647,503.37375 C 121.95275,546.67535 173.9668,570.76781 235.5,575.4025 C 244.27201,576.06321 271.1547,574.9599 281.5,573.51457 z"
       style="fill:#ed1c24;fill-opacity:1" />
  </g>
  <g
     id="g2435">
    <path
       id="path2426"
       d="M 249.91141,497.75 C 242.47274,487.55556 237.69288,475.10607 236.50382,462.82896 L 235.85772,456.15793 L 230.76641,458.51677 C 220.26256,463.38327 205.88445,462.6553 187.57315,456.32985 C 157.26307,445.85955 119.23427,417.46597 100.7436,391.5 C 90.13509,376.60275 84.050697,359.40471 85.895418,349.5304 C 86.749602,344.95818 86.71374,344.85503 84.466114,345.41915 C 77.795602,347.09334 65.623056,348.13192 59,347.59196 C 47.114819,346.62299 38,344.82137 38,343.44115 C 38,341.58181 51.645195,327.34019 56.872601,323.74364 C 59.38662,322.01395 64.699271,319.18343 68.678493,317.4536 L 75.913442,314.30844 L 72.398139,310.90422 C 68.206645,306.84518 63.694331,297.95313 61.282732,289 C 58.413933,278.3495 58.905084,254.93996 62.33885,238.66265 C 69.870785,202.95852 85.145833,171.44827 103.86896,152.99195 C 113.52927,143.46929 122.2073,138.23652 129.83819,137.33276 L 134.732,136.75316 L 129.85927,127.12658 C 124.58042,116.69766 120.5345,103.84652 119.41513,93.952644 L 118.70887,87.710115 L 121.60444,88.409416 C 123.197,88.794031 128.60844,91.092988 133.62986,93.51821 C 143.51745,98.29367 151.00627,104.43483 158.00587,113.50761 L 162.31149,119.08849 L 165.17724,113.11758 C 174.45525,93.786539 201.32275,84.732604 249.5,84.70211 C 284.9631,84.679664 312.27025,90.333483 331.07001,101.5908 C 337.6361,105.52258 346.63236,114.687 347.56202,118.39109 C 347.92216,119.82599 348.43941,121 348.71148,121 C 348.98354,121 351.52226,118.9039 354.35307,116.342 C 362.31041,109.14057 378.949,98.982372 386.75,96.563024 C 388.8157,95.922381 388.99714,96.177907 388.96511,99.682612 C 388.8604,111.13975 384.36105,126.03692 378.06176,135.78315 L 374.18927,141.77465 L 378.34463,142.43005 C 384.89307,143.4629 390.77021,146.81859 398.03741,153.6741 C 417.02353,171.58464 432.64453,206.9464 440.14747,249 C 440.93509,253.41461 441.48854,263.90493 441.49278,274.5 C 441.49867,289.1721 441.15947,293.60374 439.65814,298.4699 C 437.20972,306.40579 434.71869,311.12746 431.0391,314.80706 L 428.00095,317.84521 L 431.59998,319.033 C 439.32645,321.58296 465,341.44411 465,344.87137 C 465,346.47297 448.78846,350.24262 440,350.68459 C 433.82428,350.99516 429.41287,350.59509 423.86726,349.22149 L 416.23452,347.33092 L 417.11726,350.40886 C 418.58511,355.52696 418.11718,363.40401 415.91517,370.64466 C 411.79632,384.18823 403.29302,396.5667 387.8222,411.54028 C 350.04991,448.09857 300.64078,468.21708 273.73988,457.99258 C 270.85794,456.89722 268.45257,456.00078 268.3946,456.0005 C 268.33664,456.00023 268.01543,458.93181 267.68082,462.51513 C 266.98665,469.94883 261.57576,486.93546 257.03963,495.92149 C 255.352,499.26467 253.75551,502 253.49188,502 C 253.22824,502 251.61703,500.0875 249.91141,497.75 z"
       style="fill:#000000" />
    <path
       id="path2422"
       d="M 226.94034,456.52105 C 233.31723,454.27115 237.03528,451.15309 239.37606,446.09215 C 241.19985,442.14896 241.48114,439.80416 241.36658,429.5 C 241.2932,422.9 240.50751,413.225 239.6206,408 C 236.73038,390.97298 237.67867,386.28569 244.59857,383.39437 C 252.45538,380.11158 261.63225,382.60511 264.5932,388.82727 C 266.18804,392.17869 266.22662,393.41861 265.0341,403 C 263.09471,418.58215 262.59544,437.78388 263.99457,442.97984 C 266.76279,453.26022 276.17266,457.5856 293.92322,456.73697 C 315.4908,455.70585 340.27672,445.00604 366.68674,425.32577 C 393.77949,405.13674 410.75714,383.22583 413.94296,364.33815 C 417.38836,343.91155 407.11382,334.99835 371.5,327.5187 C 357.24755,324.52538 353.28765,322.88679 351.97728,319.44025 C 349.51504,312.96407 352.55715,303.45979 358.19186,300.0244 C 364.28883,296.30717 368.49055,297.17718 384.46351,305.46419 C 401.70783,314.41081 408.97031,317 416.82057,317 C 423.98835,317 428.15123,314.55717 432.18977,307.98114 C 436.98862,300.16708 438.45219,292.35649 438.36989,275 C 438.28642,257.3956 436.69255,246.17264 431.41477,226.02654 C 425.40822,203.0986 417.76244,185.251 407.15016,169.38546 C 396.47361,153.42385 386.21153,146.02917 374.71016,146.00977 C 367.24911,145.99718 362.76225,148.2914 356.19515,155.47685 C 351.37845,160.74709 348.81237,164.44527 336.94248,183.22336 C 331.45836,191.89922 329.38878,193.02911 322.65941,191.02122 C 317.70403,189.54265 311.46572,183.39688 310.51183,179.05385 C 309.10705,172.65795 310.65876,170.09916 324.10025,156.64639 C 348.10096,132.62552 350.89863,123.94211 338.59964,111.64312 C 328.98493,102.02841 310.10662,94.317848 286.47007,90.351581 C 272.55111,88.015947 229.57762,87.725756 215.5,89.872335 C 196.36094,92.790689 183.2183,97.909508 174.90918,105.68172 C 168.42743,111.74464 165.76369,117.46341 165.68829,125.47803 C 165.59293,135.61442 169.54876,142.41187 184.55942,157.90501 C 191.35894,164.92309 197.38675,171.88702 197.95453,173.38041 C 200.53077,180.15642 191.36478,189 181.7655,189 C 177.52935,189 176.4338,188.53014 173.02175,185.25 C 170.83068,183.14364 166.50712,176.57473 163.15746,170.26291 C 151.85712,148.96947 143.50074,140 134.96315,140 C 113.20047,140 87.804033,169.68857 73.107811,212.30921 C 58.318308,255.20039 59.328134,293.88583 75.636647,309.18638 C 83.832032,316.87524 95.180226,315.76233 119.82491,304.85286 C 131.80359,299.55026 134.0905,298.85569 138.26013,299.25383 C 145.96251,299.98931 150,305.31705 150,314.74538 C 150,323.21671 147.54165,324.88811 132,326.98335 C 114.9921,329.27626 102.50805,333.2225 95.604587,338.48803 C 87.39835,344.74723 86.900765,358.18205 94.278339,374.29679 C 108.86627,406.16104 159.02517,445.88367 197.5,456.04175 C 206.24509,458.35061 221.0707,458.59198 226.94034,456.52105 z"
       style="fill:#ffffff;fill-opacity:1" />
    <path
       id="path2416"
       d="M 177,382.14269 C 177,381.43545 184.56452,369.97652 193.81006,356.6784 C 203.05559,343.38028 210.93749,331.9693 211.3254,331.32067 C 211.84699,330.44849 210.63982,330.28489 206.69036,330.69251 C 198.28211,331.56032 191.05477,329.00519 186.14702,323.42968 C 176.84619,312.86338 168.3769,281.4781 171.92517,270.72673 C 173.43343,266.15666 180.18987,259.33684 184.04894,258.48925 C 185.67202,258.13276 186.99579,257.53934 186.99063,257.17054 C 186.98548,256.80175 174.35358,252.225 158.91973,247 C 143.48589,241.775 130.34064,237.18697 129.70806,236.80437 C 125.84789,234.46967 132.5998,236.14109 157,243.56046 C 172.125,248.15952 185.7443,252.20209 187.26511,252.54396 L 190.03023,253.16555 L 187.98899,249.7059 C 185.37188,245.27024 184.30532,234.63492 185.97135,229.5868 C 189.80482,217.97127 220.79391,196.10915 233.5,196.05638 C 237.88273,196.03818 244.06974,199.17646 247.61775,203.21742 L 250.71834,206.74881 L 251.35917,197.72078 C 251.71163,192.75536 252,178.63688 252,166.34638 C 252,153.97924 252.39691,144 252.8888,144 C 253.37765,144 254.10404,158.2875 254.503,175.75 L 255.2284,207.5 L 259.02584,203.87411 C 262.97063,200.10752 270.28377,197 275.20312,197 C 284.01897,197 300.78053,206.96572 312.78186,219.34275 C 323.50271,230.3992 325.22955,236.2664 320.50419,245.58052 C 319.13149,248.28623 318.00649,250.54846 318.00419,250.6077 C 318.00188,250.66693 331.3875,246.57279 347.75,241.50961 C 374.59045,233.20415 380.96086,231.55205 377.21198,233.86899 C 376.53542,234.28712 363.16096,239.09219 347.49094,244.54692 C 331.82092,250.00165 319,254.76129 319,255.1239 C 319,255.48651 320.1516,256.07222 321.55911,256.42548 C 324.77339,257.23221 332.6381,264.40529 334.74099,268.44813 C 338.78997,276.23234 335.00602,296.42591 326.36245,313.16146 C 319.27334,326.88727 312.25584,331.42412 301.5,329.23513 C 298.75,328.67546 296.43453,328.2811 296.35452,328.35878 C 296.27451,328.43645 304.4774,340.2 314.58316,354.5 C 324.68893,368.8 332.96689,380.8375 332.97864,381.25 C 333.0435,383.52717 329.83005,379.67942 313.0994,357.44673 C 302.97907,343.99823 294.09157,332.49096 293.3494,331.87501 C 292.26152,330.97216 292,331.41911 292,334.18121 C 292,338.75449 287.67929,347.19639 283.4283,350.92881 C 277.91509,355.76948 270.58695,357.43639 255,357.39534 C 240.94609,357.35833 232.14547,355.80915 225.00147,352.11469 C 220.55295,349.81417 216,341.49926 216,335.67558 C 216,331.63038 215.77517,331.88315 197.88694,356.03977 C 178.18992,382.639 177,384.12607 177,382.14269 z"
       style="fill:#000000" />
    <path
       id="path2414"
       d="M 269.5,352.90219 C 276.28515,351.58446 283.95267,347.22034 286.7182,343.10212 C 291.06415,336.63046 288.92734,325.32663 281.52295,315.61898 C 279.46214,312.91712 279.22297,312.05984 280.28424,311.17907 C 281.29727,310.33832 282.98434,311.5259 287.62707,316.3479 C 290.94226,319.79109 295.41988,323.45126 297.57734,324.4816 C 302.30217,326.73804 309.51719,326.81815 313.68963,324.6605 C 321.95527,320.38617 333,293.71949 333,278.03704 C 333,272.20553 332.62757,270.88758 329.95136,267.2485 C 323.62552,258.64669 315.69725,256.37845 304.18215,259.87605 C 295.61071,262.47955 295.35953,262.48285 294.71043,260.00067 C 294.26903,258.31277 294.99077,257.7662 299.34379,256.49179 C 315.074,251.88658 323.07702,241.30829 318.36696,231.34722 C 314.68263,223.55542 299.18797,210.16508 286.33264,203.66347 C 278.66604,199.78607 274.23352,199.36077 268.39697,201.94255 C 258.62207,206.26645 255.77033,211.11442 255.89957,223.18813 C 255.98179,230.86947 255.94155,231 253.49159,231 C 251.09809,231 251,230.75037 251,224.65893 C 251,212.57437 246.84981,204.14815 239.23976,200.78186 C 233.70643,198.3342 230.05084,198.90022 220.5,203.68344 C 206.19992,210.84516 193.15296,221.89919 189.53782,229.91612 C 187.83489,233.69257 187.74712,234.90565 188.74806,240.83235 C 189.7702,246.88455 190.30005,247.88849 194.48837,251.70885 C 197.71336,254.65052 201.19604,256.59195 206.05576,258.15712 C 212.18715,260.13187 212.93462,260.63903 212.38023,262.44827 C 212.03445,263.57672 211.65842,264.61153 211.54459,264.74785 C 211.43077,264.88416 208.03285,263.87166 203.99367,262.49785 C 199.95448,261.12403 194.81601,260.00988 192.57485,260.02196 C 183.75892,260.06948 175.74319,266.50017 174.4545,274.55918 C 172.95252,283.95206 179.47861,307.87782 186.35683,318.19512 C 190.49653,324.40464 191.71976,325.26567 198.80742,326.95901 C 208.3723,329.2442 214.95982,326.15197 222.04524,316.05102 C 225.67486,310.87663 226.52475,310.17422 227.89586,311.21564 C 228.77814,311.88578 229.66675,312.54065 229.87055,312.67092 C 230.07436,312.80119 228.82738,314.69275 227.09949,316.87438 C 216.8959,329.75746 217.24215,344.51175 227.87537,349.93642 C 236.64565,354.41068 254.99914,355.71838 269.5,352.90219 z"
       style="fill:#ffffff;fill-opacity:1" />
    <path
       id="path2406"
       d="M 242.302,306.95605 C 235.22828,304.15673 227.7225,297.17139 224.30036,290.20261 C 221.86121,285.23556 221.50065,283.33913 221.50505,275.5 C 221.51111,264.72062 223.4621,259.62754 230.44496,252.1623 C 242.64557,239.11886 263.83564,238.18106 277.36035,250.08599 C 294.67484,265.32681 291.28977,294.09014 270.90013,304.97934 C 265.30105,307.96955 263.43612,308.43589 256,308.70522 C 249.25319,308.94958 246.42787,308.5888 242.302,306.95605 z"
       style="fill:#000000" />
    <path
       id="path2404"
       d="M 265.35736,304.3939 C 271.8394,302.18525 280.14896,294.37798 283.05067,287.77011 C 287.94882,276.61587 285.24427,262.31094 276.60363,253.67029 C 260.79807,237.86473 233.86548,243.70717 226.03335,264.64042 C 219.94286,280.91871 228.25477,298.69057 244.70268,304.55768 C 249.8965,306.41036 259.66675,306.33289 265.35736,304.3939 z"
       style="fill:#d2ab67;fill-opacity:1" />
    <path
       d="M 229.16661,345.80855 C 225.25889,343.33436 225.496,342.60603 229.69341,344.19038 C 232.30722,345.17698 233.97383,344.94313 241.08978,342.59128 C 250.37889,339.5212 253.94636,339.61569 264.35434,343.20749 C 268.16234,344.52163 271.48299,345.0292 273.85434,344.65958 C 277.21572,344.13565 277.34864,344.20474 275.55887,345.54567 C 273.13776,347.35961 269.20837,347.34126 261.5,345.48 C 253.96207,343.65989 247.36498,343.61346 242.37573,345.34539 C 234.99498,347.90748 232.61353,347.99099 229.16661,345.80855 zM 195.41241,319.67831 C 192.96462,317.57282 192.59238,316.29961 191.41487,306.0052 C 190.16346,295.06466 189.95147,294.4123 185.55823,287.98257 C 181.00473,281.31829 179.94974,277.17256 182,274 C 182.7235,272.88046 182.97326,273.42715 182.98469,276.15539 C 182.99614,278.88853 183.92127,280.90691 186.65153,284.15539 C 192.34671,290.93155 194.10277,295.89134 194.68223,306.83715 C 195.07093,314.17963 195.65795,317.16036 197.12682,319.25 C 199.48877,322.61015 198.97119,322.73945 195.41241,319.67831 zM 309.00948,316.48991 C 311.11892,314.24451 311.37684,313.00545 311.45535,304.73991 C 311.55052,294.72039 312.98304,290.67178 319.25134,282.70678 C 320.89319,280.6205 322.82821,277.0205 323.55137,274.70678 L 324.86621,270.5 L 324.9331,274.71453 C 324.98539,278.0083 324.02823,280.52969 320.552,286.25552 C 315.6214,294.37689 314.06093,299.64573 314.02445,308.29545 C 314.0042,313.09634 313.57877,314.51214 311.54545,316.54545 C 308.30844,319.78247 305.96451,319.73113 309.00948,316.48991 zM 194,237.69039 C 194,237.27534 194.63048,235.42681 195.40107,233.58253 C 196.60751,230.69511 197.95947,229.7619 205.13342,226.86465 C 213.48047,223.49363 217.71759,220.16803 225.66492,210.75 C 228.46628,207.43024 229.32672,207.01186 233.16467,207.10335 L 237.5,207.2067 L 233.72575,208.20843 C 230.88483,208.96243 229.17922,210.35879 226.82853,213.85508 C 220.48377,223.29191 214.75622,227.50895 204.87256,230.02068 C 199.92298,231.27851 198.14287,232.43409 195.70411,235.97251 C 194.76685,237.33238 194,238.10543 194,237.69039 zM 311.5,233.70324 C 309.91845,231.27754 307.98188,230.17468 302.24411,228.43207 C 293.41718,225.75126 289.25475,222.70318 283.43064,214.6553 C 280.70818,210.89333 277.52271,207.79405 275.23808,206.68439 L 271.5,204.86879 L 275.5,205.40346 C 278.93516,205.86263 280.55908,207.0763 287,213.9982 C 293.74057,221.24212 295.35686,222.40971 302.96227,225.52913 C 307.61652,227.43811 311.51913,229 311.63472,229 C 312.06279,229 314.18656,236.14563 313.84966,236.45237 C 313.65735,236.62747 312.6,235.39036 311.5,233.70324 z"
       style="fill:#000000"
       id="path2412" />
    <path
       d="M 280,447.23986 C 280,446.66508 283.12009,445.24711 286.93353,444.08881 C 296.51197,441.17945 300.78118,437.5674 313.6788,421.46044 C 334.17757,395.86093 344.36416,388.23138 375.83603,374.90592 C 389.5938,369.08076 393.07917,366.53054 398.10174,358.61426 C 401.02874,354.00089 401.98333,353.05932 401.9905,354.77852 C 402.0059,358.47107 396.4398,368.40666 392.33838,372.00776 C 390.24962,373.84172 383.80649,377.55617 378.02032,380.26209 C 352.98523,391.96983 349.17075,393.9656 343.20148,398.47954 C 339.7373,401.09915 332.0873,408.92392 326.20148,415.86792 C 309.53277,435.53341 302.46722,442.55272 296.95319,444.92479 C 291.37393,447.32493 280,448.87811 280,447.23986 zM 208.73447,445.91195 C 199.81504,443.81056 194.43607,439.45084 181.69979,424 C 171.4758,411.59691 165.24772,405.33006 158.63972,400.79638 C 153.20163,397.06536 148.28991,394.58647 119.97968,381.28512 C 107.16424,375.26388 102.97508,371.72609 98.929237,363.50782 C 94.368722,354.2441 95.463381,351.90394 100.73846,359.64007 C 106.21545,367.67232 111.49359,372.07489 119.75941,375.50573 C 123.46673,377.04451 130.775,380.08048 136,382.25233 C 159.39558,391.97708 171.72048,401.7736 191.66754,426.5 C 196.10445,432 200.5983,437.27031 201.65386,438.21181 C 204.19171,440.4754 211.57156,443.67104 216.25,444.53227 C 218.3125,444.91194 220,445.6225 220,446.11129 C 220,447.21116 213.78201,447.10113 208.73447,445.91195 zM 424.99442,295.75 C 424.99136,291.2125 424.52915,285.84488 423.96729,283.82197 C 423.40543,281.79905 418.41226,273.24905 412.87135,264.82197 C 394.23536,236.4788 390.6519,226.33107 387.45498,192.84717 C 385.73373,174.81917 384.68985,171.50717 378.12653,163.25 C 372.7731,156.51498 374.5459,156.51155 381.66359,163.24316 C 390.61501,171.70904 391.80399,175.26361 394.46239,201.50638 C 395.29847,209.7599 396.66594,219.2099 397.50121,222.50638 C 399.55345,230.60582 405.23556,241.90441 415.09572,257.49221 C 426.90581,276.16264 428.99825,280.96225 428.99921,289.38398 C 429.00002,296.40427 427.35911,304 425.84171,304 C 425.37877,304 424.99749,300.2875 424.99442,295.75 zM 75.900246,292.25 C 75.322608,290.7375 74.612319,286.575 74.321827,283 C 73.610207,274.2423 75.794146,268.74025 86.67952,251.86693 C 101.85987,228.33601 103.73221,223.04699 107.51877,193 C 108.87035,182.275 110.26199,172.15 110.61131,170.5 C 111.77328,165.01138 115.74303,158.51405 120.85736,153.7302 C 128.12878,146.92863 130.29529,147.5516 124.40395,154.75 C 116.36198,164.57617 116.14168,165.3889 112.95147,197 C 110.53907,220.90389 105.21321,234.79463 88.988299,259.5 C 83.93143,267.2 79.361664,274.61723 78.833262,275.98273 C 78.30486,277.34824 77.862163,282.18574 77.849491,286.73273 C 77.836819,291.27973 77.629361,295 77.388474,295 C 77.147588,295 76.477885,293.7625 75.900246,292.25 zM 239.81396,119.88504 C 236.13664,119.41096 225.23996,116.99289 215.59912,114.51154 C 205.95828,112.03019 196.81699,110.01162 195.28516,110.02582 C 193.75332,110.04002 189.35,111.12567 185.5,112.43837 C 181.65,113.75108 178.32375,114.65072 178.10834,114.43756 C 177.256,113.59417 182.7948,109.93109 188,107.89572 C 196.13992,104.71279 202.83821,105.15476 222,110.1391 C 237.78404,114.24482 239.12917,114.43053 253,114.41898 C 266.18892,114.40799 269.35335,114.01991 287.99716,110.12697 C 303.31503,106.92851 309.63212,106.011 312.99716,106.49589 C 320.18085,107.53104 332,113.46721 332,116.04006 C 332,116.44161 328.2875,115.47788 323.75,113.89845 C 319.2125,112.31902 313.67637,111.02074 311.44749,111.01338 C 309.21861,111.00602 300.89361,112.59969 292.94749,114.55487 C 268.06874,120.67639 255.63069,121.92413 239.81396,119.88504 z"
       style="fill:#000000"
       id="path2420" />
    <path
       d="M 257.85542,484.73398 C 262.4114,473.06163 265.42799,459.63548 264.71547,454.20145 C 264.44854,452.16565 263.05335,447.44203 261.61507,443.70451 C 258.50084,435.6119 258.23058,427.90724 260.59066,414.5 C 261.46201,409.55 262.24807,401.9 262.33747,397.5 L 262.5,389.5 L 259,387.74941 L 255.5,385.99882 L 254.87761,397.74941 C 254.53529,404.21223 253.91443,425.3625 253.49792,444.75 C 253.08141,464.1375 252.42104,480 252.03044,480 C 251.16891,480 250.00514,438.83202 250.00217,408.25 C 250.00072,393.38294 249.6517,386 248.95034,386 C 246.28057,386 241.97228,389.26225 241.34585,391.75816 C 240.97013,393.25513 241.20608,398.08445 241.87017,402.48997 C 245.59905,427.22686 245.36389,440.4854 241.03778,449.42196 C 239.23059,453.15511 239.13389,454.38759 240.02963,462.2707 C 240.57455,467.06643 241.73403,473.12991 242.60624,475.7451 C 244.7312,482.11651 252.14381,496.02916 253.09898,495.43883 C 253.51802,495.17985 255.65842,490.36267 257.85542,484.73398 zM 451.77429,344.79689 L 458.04859,343.64534 L 454.77429,340.24004 C 449.29123,334.53759 439.92221,327.92974 431.5529,323.86227 C 425.08513,320.71895 422.51188,320 417.72921,320 C 410.16755,320 401.1888,316.96941 382.28531,308.03665 C 374.09529,304.16649 366.20572,301 364.75294,301 C 362.23261,301 355.95336,305.30248 357,306.31223 C 357.40674,306.70464 422.15077,330.27323 437.75076,335.70771 C 440.08868,336.52216 441.78763,337.5346 441.52622,337.95758 C 441.2648,338.38056 422.08422,332.71315 398.90272,325.36332 C 375.72121,318.01349 356.39008,312 355.94465,312 C 354.52871,312 353.85017,315.85152 354.91543,317.84197 C 356.33233,320.48949 362.40927,322.72573 373.28592,324.60212 C 382.83907,326.25018 396.28773,330.12246 401.5,332.72582 C 403.15,333.54994 406.73836,336.08627 409.47413,338.36211 C 413.3615,341.59595 416.31099,342.9937 422.97413,344.75971 C 432.05745,347.16717 438.81205,347.17589 451.77429,344.79689 zM 82.383531,341.57773 C 85.638379,340.77036 89.436066,339.02293 90.883531,337.66662 C 97.179252,331.76737 110.77691,327.11728 129.25331,324.54501 C 140.38038,322.99591 145.30891,321.24333 146.37882,318.4552 C 147.24575,316.19602 147.15453,313 146.22313,313 C 145.79585,313 125.76375,318.4 101.70736,325 C 60.863681,336.20568 52.06824,338.33719 56,336.07684 C 56.825,335.60255 77.075,329.02588 101,321.46202 C 124.925,313.89815 144.68927,307.54812 144.92061,307.35083 C 145.15195,307.15353 144.286,305.86889 142.9963,304.49606 C 139.44096,300.71158 134.99826,301.19967 123.92742,306.59104 C 104.23266,316.18216 96.237728,318.46985 87,317.15756 C 82.28231,316.48737 80.397149,316.77281 73.746449,319.16428 C 69.481996,320.6977 64.549192,322.69888 62.784662,323.61136 C 59.07286,325.5308 43.561958,340.89529 44.444783,341.77812 C 46.896991,344.23032 72.229109,344.09652 82.383531,341.57773 zM 331.69938,183.60418 C 333.82753,181.18648 336.8533,176.79898 338.42332,173.85418 C 341.83444,167.45612 350.65023,155.41644 355.40694,150.65973 C 357.28653,148.78014 361.00139,146.24464 363.66219,145.02529 C 367.79825,143.12987 369.34457,141.50888 374.32239,133.85027 C 377.52471,128.92337 380.93768,122.554 381.90676,119.69613 C 384.14711,113.08926 386.45001,102.11667 385.74438,101.41105 C 384.85127,100.51794 371.94156,107.45712 365.05923,112.52965 C 356.08122,119.14678 349,125.95825 349,127.97712 C 349,128.91401 347.56276,132.56493 345.80614,136.09028 C 343.33343,141.05272 339.38844,145.74529 328.33457,156.87274 C 320.48183,164.77775 313.7865,172.09732 313.45606,173.13844 C 312.7729,175.29088 314.78731,182.26101 315.95982,181.80179 C 316.38361,181.6358 328.77051,167.325 343.48626,150 C 372.8126,115.47381 374.69527,113.36193 375.4633,114.12997 C 375.75145,114.41812 363.42821,130.59425 348.07832,150.07694 C 323.63161,181.10565 320.3687,185.65507 321.77584,186.75 C 324.77029,189.08007 327.69559,188.15273 331.69938,183.60418 zM 186.5,184.90193 C 186.5,184.573 174.63264,167.34036 160.12809,146.60718 C 145.62354,125.874 134.07283,108.59383 134.45985,108.20681 C 134.84687,107.8198 135.81792,108.40244 136.61773,109.50157 C 137.41755,110.60071 150.09326,127.32591 164.78597,146.6687 C 189.57689,179.30564 191.62414,181.72577 193.22447,180.28681 C 196.44488,177.39114 196.32204,175.20585 192.65933,170.23309 C 190.74193,167.62989 186.65404,163.33212 183.57513,160.68249 C 177.43991,155.40268 168.21563,144.39313 165.573,139.19624 C 164.64902,137.37917 163.62169,133.60141 163.29005,130.80123 C 162.76369,126.3569 161.70676,124.47947 154.97194,116.02573 C 146.90061,105.89436 140.23526,100.73231 128.55466,95.566592 L 123.079,93.144995 L 123.63236,96.322498 C 126.27599,111.50281 136.89789,136.25028 141.52488,138.00946 C 148.19445,140.54523 158.73339,153.97922 168.10758,171.89445 C 174.31721,183.76181 176.78807,186.20039 182.20689,185.8096 C 184.5681,185.63932 186.5,185.23087 186.5,184.90193 z"
       style="fill:#00a650;fill-opacity:1"
       id="path2424" />
  </g>
</svg>
