<?xml version="1.0" encoding="UTF-8" standalone="no"?>
<!-- Created with Inkscape (http://www.inkscape.org/) -->

<svg
   xmlns:dc="http://purl.org/dc/elements/1.1/"
   xmlns:cc="http://creativecommons.org/ns#"
   xmlns:rdf="http://www.w3.org/1999/02/22-rdf-syntax-ns#"
   xmlns:svg="http://www.w3.org/2000/svg"
   xmlns="http://www.w3.org/2000/svg"
   xmlns:sodipodi="http://sodipodi.sourceforge.net/DTD/sodipodi-0.dtd"
   xmlns:inkscape="http://www.inkscape.org/namespaces/inkscape"
   width="76.118919mm"
   height="91.890091mm"
   viewBox="0 0 76.118919 91.890091"
   version="1.1"
   id="svg8"
   inkscape:version="0.92.3 (2405546, 2018-03-11)"
   sodipodi:docname="logo.svg">
  <defs
     id="defs2" />
  <sodipodi:namedview
     id="base"
     pagecolor="#ffffff"
     bordercolor="#666666"
     borderopacity="1.0"
     inkscape:pageopacity="0.0"
     inkscape:pageshadow="2"
     inkscape:zoom="1.0150849"
     inkscape:cx="129.41244"
     inkscape:cy="193.82063"
     inkscape:document-units="mm"
     inkscape:current-layer="layer1"
     showgrid="false"
     objecttolerance="1"
     gridtolerance="1"
     guidetolerance="1"
     fit-margin-top="0"
     fit-margin-left="0"
     fit-margin-right="0"
     fit-margin-bottom="0"
     inkscape:window-width="1366"
     inkscape:window-height="715"
     inkscape:window-x="-8"
     inkscape:window-y="-8"
     inkscape:window-maximized="1" />
  <metadata
     id="metadata5">
    <rdf:RDF>
      <cc:Work
         rdf:about="">
        <dc:format>image/svg+xml</dc:format>
        <dc:type
           rdf:resource="http://purl.org/dc/dcmitype/StillImage" />
        <dc:title></dc:title>
      </cc:Work>
    </rdf:RDF>
  </metadata>
  <g
     inkscape:label="Layer 1"
     inkscape:groupmode="layer"
     id="layer1"
     transform="translate(-34.653655,-93.647563)">
    <g
       id="g166">
      <path
         sodipodi:nodetypes="cscscc"
         inkscape:connector-curvature="0"
         id="path23"
         d="m 35.288101,94.152746 c -0.103948,18.460584 0.03413,37.493724 -0.127961,55.753184 -0.172209,19.3991 16.770323,35.12656 37.457707,35.12654 20.687385,2e-5 37.145273,-15.72915 37.457703,-35.12654 0.30816,-19.13145 0.15728,-39.02977 0.13793,-55.753184 z"
         style="opacity:1;fill:#e4a340;fill-opacity:1;stroke:#000000;stroke-width:1.01036632;stroke-linecap:round;stroke-linejoin:round;stroke-miterlimit:4;stroke-dasharray:none;stroke-dashoffset:0;stroke-opacity:1" />
      <path
         sodipodi:nodetypes="cccccccccsscsccccccccccccccccscccccsccccc"
         inkscape:connector-curvature="0"
         d="m 71.147676,121.57307 c -0.337032,0.0391 -0.721618,0.0804 -1.013696,-0.0922 -1.276151,-0.75438 -1.786926,-2.38007 -2.488165,-3.68617 -1.446351,-2.69393 -1.983314,-5.63014 -3.501859,-8.47818 -0.633441,-1.18803 -1.700449,-2.35114 -3.594012,-1.84309 -1.037983,0.27849 -1.825184,1.41361 -1.843084,2.48817 -0.02107,1.26487 1.767893,2.62349 2.165624,3.82439 0.146146,0.44129 0.27646,1.38232 0.27646,1.38232 0,0 -0.624621,-1.02849 -1.013695,-1.29016 -1.530615,-1.02946 -2.61724,-1.68871 -3.317552,-3.04109 -0.625517,-1.20794 -1.060529,-3.3124 -0.645077,-4.6077 0.644341,-2.00893 2.277984,-4.07605 4.377324,-4.28518 2.359785,-0.23508 4.405406,1.14039 5.713558,4.23909 1.368652,3.24201 1.949605,8.28465 2.948934,10.13697 0.242746,0.44994 0.835145,1.06248 1.290159,0.82938 0.520161,-0.26648 0.14316,-1.63372 0.04607,-2.44209 -0.308752,-2.57069 -1.067616,-4.84671 -1.981314,-7.51056 -0.348293,-1.01543 -0.791963,-1.37376 -1.612699,-2.34993 -1.027946,-1.22263 0.06404,-3.66702 1.198005,-4.79202 1.067827,-1.059391 2.635053,-1.997603 3.84386,-3.577726 1.208808,1.612704 2.776034,2.550916 3.843861,3.610306 1.133962,1.125 2.225951,3.56939 1.198005,4.79202 -0.820736,0.97616 -1.264406,1.33449 -1.612699,2.34992 -0.913698,2.66385 -1.672562,4.93987 -1.981314,7.51056 -0.09709,0.80837 -0.474091,2.17561 0.04607,2.44209 0.455014,0.2331 1.047413,-0.37944 1.290159,-0.82938 0.999329,-1.85232 1.580282,-6.89496 2.948934,-10.13697 1.308152,-3.09869 3.353773,-4.47416 5.713558,-4.23908 2.09934,0.20913 3.732983,2.27625 4.377324,4.28517 0.415452,1.2953 -0.01956,3.39976 -0.645077,4.6077 -0.700312,1.35238 -1.786937,2.01163 -3.317552,3.04109 -0.389074,0.26168 -1.013695,1.29016 -1.013695,1.29016 0,0 0.130314,-0.94103 0.27646,-1.38231 0.397731,-1.2009 2.186699,-2.55953 2.165624,-3.8244 -0.0179,-1.07455 -0.805101,-2.20967 -1.843084,-2.48817 -1.893563,-0.50805 -2.960571,0.65507 -3.594012,1.84309 -1.518546,2.84804 -2.055508,5.78425 -3.501859,8.47818 -0.701239,1.3061 -1.212014,2.93179 -2.488165,3.68617 -0.292078,0.17266 -0.676664,0.13131 -1.013696,0.0922 -0.192983,-0.0224 -0.848842,-0.20059 -0.848842,-0.20059 0,0 -0.655858,0.14562 -0.848841,0.16802 z"
         style="fill:#d52c27;fill-opacity:1;fill-rule:evenodd;stroke:#000000;stroke-width:0.1;stroke-linecap:butt;stroke-linejoin:miter;stroke-opacity:1"
         id="path44-5" />
      <path
         sodipodi:nodetypes="cccccccccsscsccccccccccccccccscccccsccccc"
         inkscape:connector-curvature="0"
         d="m 56.213496,139.75469 c -0.294652,0.15459 -0.632057,0.32796 -0.960744,0.27383 -1.436193,-0.23676 -2.481176,-1.53739 -3.587013,-2.47965 -2.280865,-1.94351 -3.815273,-4.42872 -6.216964,-6.48712 -1.001836,-0.85865 -2.391734,-1.54155 -3.944772,-0.41036 -0.851322,0.62007 -1.168816,1.93197 -0.803557,2.91715 0.429949,1.15967 2.550206,1.76584 3.340831,2.71942 0.290521,0.3504 0.74404,1.16163 0.74404,1.16163 0,0 -0.937099,-0.71642 -1.386217,-0.81745 -1.766843,-0.39753 -2.995747,-0.61451 -4.117173,-1.59927 -1.001653,-0.87958 -2.14732,-2.64308 -2.227036,-3.96968 -0.123634,-2.05747 0.63773,-4.51715 2.485314,-5.44867 2.076795,-1.0471 4.437996,-0.51617 6.736107,1.84484 2.404395,2.4702 4.727204,6.85873 6.299927,8.19337 0.382028,0.32419 1.141898,0.67307 1.475655,0.30012 0.381542,-0.42635 -0.449183,-1.53876 -0.825169,-2.24088 -1.19567,-2.23278 -2.698743,-4.03826 -4.481303,-6.14237 -0.679493,-0.80207 -1.212922,-0.97188 -2.310973,-1.57142 -1.375279,-0.75092 -1.243773,-3.36309 -0.605235,-4.78818 0.601294,-1.34195 1.702806,-2.74981 2.248211,-4.61591 1.679394,1.04241 3.447345,1.34389 4.801155,1.93202 1.437657,0.62455 3.305491,2.46583 2.798683,3.94241 -0.404652,1.17894 -0.683547,1.66197 -0.641749,2.70991 0.109654,2.74915 0.223308,5.09035 0.853678,7.54109 0.198222,0.77067 0.33869,2.14922 0.909521,2.20836 0.499331,0.0518 0.824099,-0.71536 0.88652,-1.21092 0.256965,-2.04009 -1.002166,-6.83875 -0.900671,-10.27516 0.09702,-3.2845 1.481176,-5.25953 3.724954,-5.87834 1.996137,-0.55051 4.22584,0.7559 5.529206,2.35849 0.840374,1.03331 1.18958,3.1039 1.045952,4.42507 -0.16079,1.47914 -0.921405,2.46324 -1.956992,3.9413 -0.263242,0.37571 -0.469776,1.53308 -0.469776,1.53308 0,0 -0.214926,-0.90324 -0.237861,-1.3568 -0.06241,-1.23435 1.092776,-3.10346 0.624246,-4.24825 -0.398039,-0.97253 -1.521836,-1.72871 -2.570981,-1.61603 -1.91392,0.20557 -2.477623,1.64175 -2.635569,2.94756 -0.378641,3.13044 0.172631,5.99471 -0.194653,8.95927 -0.178075,1.4373 -0.06828,3.09851 -0.968614,4.23617 -0.206064,0.26039 -0.572822,0.35847 -0.895251,0.4418 -0.184622,0.0477 -0.848323,0.11689 -0.848323,0.11689 0,0 -0.548693,0.36416 -0.717404,0.45268 z"
         style="fill:#d52c27;fill-opacity:1;fill-rule:evenodd;stroke:#000000;stroke-width:0.1;stroke-linecap:butt;stroke-linejoin:miter;stroke-opacity:1"
         id="path44-5-7" />
      <path
         sodipodi:nodetypes="cccccccccsscsccccccccccccccccscccccsccccc"
         inkscape:connector-curvature="0"
         d="m 88.296751,139.83112 c 0.294652,0.15459 0.632057,0.32796 0.960744,0.27383 1.436193,-0.23676 2.481176,-1.53739 3.587013,-2.47965 2.280865,-1.94351 3.815273,-4.42872 6.216964,-6.48712 1.001838,-0.85865 2.391738,-1.54155 3.944768,-0.41036 0.85133,0.62007 1.16882,1.93197 0.80356,2.91715 -0.42995,1.15967 -2.55021,1.76584 -3.34083,2.71942 -0.29052,0.3504 -0.744041,1.16163 -0.744041,1.16163 0,0 0.937101,-0.71642 1.386221,-0.81745 1.76684,-0.39753 2.99574,-0.61451 4.11717,-1.59927 1.00165,-0.87958 2.14732,-2.64308 2.22704,-3.96968 0.12363,-2.05747 -0.63773,-4.51715 -2.48532,-5.44867 -2.07679,-1.0471 -4.43799,-0.51617 -6.736105,1.84484 -2.404395,2.4702 -4.727204,6.85873 -6.299927,8.19337 -0.382028,0.32419 -1.141898,0.67307 -1.475655,0.30012 -0.381542,-0.42635 0.449183,-1.53876 0.825169,-2.24088 1.19567,-2.23278 2.698743,-4.03826 4.481303,-6.14237 0.679493,-0.80207 1.212922,-0.97188 2.310973,-1.57142 1.375278,-0.75092 1.243773,-3.36309 0.605235,-4.78818 -0.601294,-1.34195 -1.702806,-2.74981 -2.248211,-4.61591 -1.679394,1.04241 -3.447345,1.34389 -4.801155,1.93202 -1.437657,0.62455 -3.305491,2.46583 -2.798683,3.94241 0.404652,1.17894 0.683547,1.66197 0.641749,2.70991 -0.109654,2.74915 -0.223308,5.09035 -0.853678,7.54109 -0.198222,0.77067 -0.33869,2.14922 -0.909521,2.20836 -0.499331,0.0518 -0.824099,-0.71536 -0.88652,-1.21092 -0.256965,-2.04009 1.002166,-6.83875 0.900671,-10.27516 -0.09702,-3.2845 -1.481176,-5.25953 -3.724954,-5.87834 -1.996137,-0.55051 -4.22584,0.7559 -5.529206,2.35849 -0.840375,1.03331 -1.18958,3.1039 -1.045951,4.42507 0.16079,1.47914 0.921404,2.46324 1.956991,3.9413 0.263242,0.37571 0.469775,1.53308 0.469775,1.53308 0,0 0.214927,-0.90324 0.237861,-1.3568 0.06241,-1.23435 -1.092774,-3.10346 -0.624245,-4.24825 0.398039,-0.97253 1.521836,-1.72871 2.570981,-1.61603 1.91392,0.20557 2.477623,1.64175 2.635569,2.94756 0.378641,3.13044 -0.172631,5.99471 0.194653,8.95927 0.178075,1.4373 0.06828,3.09851 0.968614,4.23617 0.206064,0.26039 0.572822,0.35847 0.895251,0.4418 0.184622,0.0477 0.848323,0.11689 0.848323,0.11689 0,0 0.548693,0.36416 0.717404,0.45268 z"
         style="fill:#d52c27;fill-opacity:1;fill-rule:evenodd;stroke:#000000;stroke-width:0.1;stroke-linecap:butt;stroke-linejoin:miter;stroke-opacity:1"
         id="path44-5-7-6" />
      <path
         id="path93"
         transform="scale(0.26458333)"
         d="m 271.84766,458.66211 c -2.02102,0.0555 -4.66565,1.8086 -4.70118,3.83008 -0.0217,1.23398 2.78516,2.4375 2.78516,2.4375 l 0.0664,70.70508 h -0.76172 c 0,0 -5.22121,-5.61048 -6.61914,-10.44922 -2.36643,-8.19107 2.76414,-18.22921 -4.17969,-28.56055 -3.14753,-4.68306 -10.79688,-6.61719 -10.79688,-6.61719 0,0 6.21468,6.06333 5.57227,9.75196 -2.92707,16.80699 -1.8087,21.86428 2.26563,29.95507 2.99877,5.95495 13.4082,8.70704 13.4082,8.70704 l 1.11328,-0.0391 0.041,44.27344 h -0.28321 c 0,0 -5.21925,-5.61048 -6.61719,-10.44922 -2.36642,-8.19107 2.76414,-18.22921 -4.17968,-28.56055 -3.14753,-4.68306 -10.79688,-6.61718 -10.79688,-6.61718 0,0 6.21467,6.06332 5.57227,9.75195 -2.92707,16.80699 -1.81066,21.86233 2.26367,29.95313 2.99878,5.95494 13.41016,8.70703 13.41016,8.70703 l 0.63476,-0.0234 0.041,45.05273 h -0.0918 c 0,0 -5.10837,-5.41097 -6.47656,-10.07812 -2.31608,-7.90061 2.70624,-17.58193 -4.08985,-27.54688 -3.08056,-4.51702 -10.56835,-6.38281 -10.56835,-6.38281 0,0 6.08381,5.84843 5.45507,9.40625 -2.86479,16.211 -1.77279,21.08673 2.21485,28.89063 2.93497,5.74378 13.125,8.39843 13.125,8.39843 l 0.43554,-0.0156 0.0156,17.25781 c -12.79492,0.44818 -25.56059,1.29911 -38.3125,2.4375 0,0 0.2095,-3.62442 0.40039,-7.82422 l 1.03125,-0.0801 c 0,0 8.79615,-3.53948 10.83789,-9.2539 2.77403,-7.76413 3.26412,-12.47525 -0.88477,-27.46875 -0.91056,-3.29065 3.91993,-9.42383 3.91993,-9.42383 0,0 -6.47127,2.52116 -8.76368,7.09375 -5.05732,10.0876 0.36237,18.70552 -0.91601,26.39062 -0.75518,4.5399 -4.76172,10.16211 -4.76172,10.16211 l -0.35742,0.041 c 0.10478,-2.63218 0.1926,-5.25082 0.1914,-7.22656 -0.005,-8.54045 -0.2953,-17.09216 -1.04492,-25.59961 -0.40336,-4.57782 -0.8854,-9.62723 -1.42187,-14.68164 l 2.55273,-0.49219 c 0,0 9.10717,-6.8642 10.51563,-12.18555 2.66804,-10.08007 -4.14819,-19.2577 -3.6875,-27.98633 0.19852,-3.76138 3.41797,-9.03515 3.41797,-9.03515 0,0 -7.90684,4.69423 -9.76563,10.36719 -2.63132,8.03055 2.09367,20.4459 0.68164,28.62695 -0.561,3.25032 -3.88281,8.25781 -3.88281,8.25781 l -0.10156,0.0156 c -0.50117,-4.55772 -1.03883,-9.07639 -1.61719,-13.1875 -1.29121,-9.17817 -2.54511,-16.37212 -4.5293,-25.42578 -1.58074,-7.21278 -5.39844,-22.29102 -5.39844,-22.29102 0,0 2.47115,-2.13831 1.74219,-3.83203 -0.65275,-1.51673 -3.14032,-1.50305 -4.77929,-1.30274 -1.35676,0.16581 -2.57631,1.07224 -3.58008,2 -0.92223,0.8524 -2.38832,1.91493 -2.08985,3.13477 0.31493,1.28697 4.35352,1.39258 4.35352,1.39258 0,0 4.22646,18.97834 5.92187,28.38672 1.90833,10.58993 3.42271,21.26186 4.55078,31.97265 l -1.20898,0.18946 c 0,0 -5.88407,-4.55541 -7.95703,-8.95508 -3.50911,-7.44783 -0.0426,-17.79087 -8.29688,-26.58594 -3.74155,-3.98672 -11.42773,-4.67187 -11.42773,-4.67187 0,-10e-6 6.91319,4.83697 6.8418,8.44921 -0.32535,16.45898 1.50864,21.10918 6.65429,28.20313 3.78729,5.22126 14.26368,6.26953 14.26368,6.26953 l 1.39648,-0.26953 c 0.61161,6.16249 1.10364,12.33595 1.45313,18.51367 0.43447,7.67995 0.28882,19.44862 0.10156,28.16992 -0.9813,-0.95482 -3.81117,-3.82089 -4.84571,-6.17383 -3.14138,-7.1447 -1.98224,-19.67807 -6.14062,-26.38476 -2.93755,-4.73768 -10.86328,-7.08985 -10.86328,-7.08984 0,0 4.01693,4.03565 5.07226,7.43164 2.44896,7.88042 -1.27723,17.96444 3.39453,26.53906 2.46623,4.52659 11.93946,8.57031 11.93946,8.57031 l 1.38086,-0.10547 c -0.11021,4.50866 -0.21289,8.05274 -0.21289,8.05274 -21.52789,3.493 -34.75209,5.63152 -45.36524,10.21484 0,0 40.46022,34.52755 91.98242,34.10742 60.86353,-0.49629 95.56641,-33.60351 95.56641,-33.60351 -9.37786,-3.72038 -30.18879,-8.63657 -49.18945,-10.54493 0,0 -0.003,-2.20414 0.0293,-5.8496 l 1.77149,0.13671 c 0,0 9.47323,-4.05815 11.93945,-8.60156 4.67176,-8.60655 0.94558,-18.72696 3.39453,-26.63672 1.05534,-3.4086 5.07227,-7.46093 5.07227,-7.46093 0,0 -7.92573,2.36186 -10.86328,7.11718 -4.15838,6.73164 -2.99729,19.31111 -6.13867,26.48242 -1.17695,2.68675 -4.73072,6.09424 -5.14454,6.48633 0.1277,-11.39811 0.5672,-32.2673 2.09961,-47.85742 l 0.66993,0.13867 c 0,0 10.49243,-0.88629 14.35937,-6.04883 5.25388,-7.01419 7.15874,-11.63562 7.08594,-28.09765 -0.0159,-3.61289 6.9707,-8.3457 6.9707,-8.3457 0,0 -7.69381,0.56919 -11.49609,4.49804 -8.38827,8.6674 -5.08212,19.06198 -8.70508,26.45508 -2.14021,4.36736 -8.09375,8.83398 -8.09375,8.83398 l -0.53711,-0.0918 c 0.85958,-8.67675 1.73973,-20.35541 2.81055,-26.31836 2.47103,-13.76013 7.83789,-34.30664 7.83789,-34.30664 0,0 1.74463,-0.40233 2.4375,-1.04492 0.66069,-0.61282 0.97495,-1.75402 0.69726,-2.61133 -0.623,-1.9234 -2.70097,-3.55121 -4.70312,-3.83203 -1.75122,-0.24575 -4.13779,0.48244 -4.875,2.08984 -0.48219,1.05135 2.08984,2.96094 2.08984,2.96094 -5.26939,14.13944 -9.6141,39.98797 -11.32031,55.03125 -0.25526,2.25059 -0.4773,4.60959 -0.67188,7.04883 l -0.48437,-0.084 c 0,0 -3.24675,-5.05785 -3.75781,-8.3164 -1.28636,-8.20177 3.6289,-20.54132 1.12109,-28.61133 -1.77154,-5.70082 -9.60351,-10.51758 -9.60351,-10.51758 0,0 3.13654,5.32194 3.27734,9.08594 0.3267,8.73464 -6.62832,17.80789 -4.11524,27.92773 1.32666,5.34233 10.32813,12.3457 10.32813,12.3457 l 3.06836,0.64063 c -1.0627,14.94545 -1.2271,32.59932 -1.70117,48.5918 l -1,-0.11524 c 0,0 -4.00654,-5.64442 -4.76172,-10.20117 -1.27838,-7.71368 4.14326,-16.36315 -0.91406,-26.48828 -2.29241,-4.58963 -8.76563,-7.1211 -8.76563,-7.1211 0,0 4.83048,6.15809 3.91992,9.46094 -4.14889,15.04932 -3.65879,19.77535 -0.88476,27.56836 2.04174,5.7357 10.83789,9.28906 10.83789,9.28906 l 1.48437,0.11524 c -0.0528,1.62839 -0.1014,3.2796 -0.16406,4.86133 -11.23778,-0.7649 -21.93977,-1.59703 -36.74414,-1.91602 l -0.18164,-17.48437 2.65625,-0.0937 c 0,0 10.05766,-5.37429 12.27148,-10.41407 4.19365,-9.54674 -1.12231,-19.66617 0.68164,-28.21875 0.77738,-3.68553 4.77344,-8.39843 4.77344,-8.39843 0,0 -8.5369,3.41676 -11.25,8.73437 -3.84065,7.5275 -1.09073,20.52213 -3.75,28.38672 -1.05652,3.12461 -5.11328,7.55859 -5.11328,7.55859 h -0.29492 l -0.46875,-45.26562 3.11328,-0.11133 c 0,0 10.27711,-5.57183 12.53906,-10.79687 4.28481,-9.89776 -1.14786,-20.39082 0.69531,-29.25782 0.79428,-3.82106 4.87696,-8.70703 4.87696,-8.70703 0,0 -8.72207,3.54161 -11.49414,9.05469 -3.92414,7.80427 -1.11301,21.27791 -3.83008,29.43164 -1.07949,3.23947 -5.22461,7.83789 -5.22461,7.83789 h -0.70117 l -0.45899,-44.47266 3.07422,-0.10937 c 0,0 10.27711,-5.57378 12.53906,-10.79883 4.28482,-9.89775 -1.1459,-20.38886 0.69727,-29.25586 0.79428,-3.82106 4.87695,-8.70898 4.87695,-8.70898 0,0 -8.72206,3.54355 -11.49414,9.05664 -3.92413,7.80427 -1.11496,21.27791 -3.83203,29.43164 -1.07949,3.23947 -5.22461,7.83594 -5.22461,7.83594 h -0.66406 l -0.72852,-70.5293 c 0,0 2.75946,-1.01007 2.78516,-2.26563 0.0483,-2.36821 -3.3783,-4.24274 -5.74609,-4.17773 z"
         style="fill:#074d3e;fill-opacity:1;fill-rule:evenodd;stroke:none;stroke-width:0.99999994px;stroke-linecap:butt;stroke-linejoin:miter;stroke-opacity:1"
         inkscape:connector-curvature="0" />
    </g>
  </g>
</svg>
