<?xml version="1.0" encoding="UTF-8" standalone="no"?>
<!-- Created with Inkscape (http://www.inkscape.org/) -->

<svg
   xmlns:dc="http://purl.org/dc/elements/1.1/"
   xmlns:cc="http://creativecommons.org/ns#"
   xmlns:rdf="http://www.w3.org/1999/02/22-rdf-syntax-ns#"
   xmlns:svg="http://www.w3.org/2000/svg"
   xmlns="http://www.w3.org/2000/svg"
   xmlns:xlink="http://www.w3.org/1999/xlink"
   xmlns:sodipodi="http://sodipodi.sourceforge.net/DTD/sodipodi-0.dtd"
   xmlns:inkscape="http://www.inkscape.org/namespaces/inkscape"
   width="284.19577"
   height="338.37692"
   id="svg2"
   version="1.1"
   inkscape:version="0.48.5 r10040"
   sodipodi:docname="Anyksciai.svg">
  <defs
     id="defs4">
    <clipPath
       clipPathUnits="userSpaceOnUse"
       id="clipPath4130">
      <use
         x="0"
         y="0"
         xlink:href="#path3900"
         id="use4132"
         width="1"
         height="1" />
    </clipPath>
  </defs>
  <sodipodi:namedview
     id="base"
     pagecolor="#f6f3f1"
     bordercolor="#666666"
     borderopacity="1.0"
     inkscape:pageopacity="0"
     inkscape:pageshadow="2"
     inkscape:zoom="1"
     inkscape:cx="90.369646"
     inkscape:cy="182.2465"
     inkscape:document-units="px"
     inkscape:current-layer="layer1"
     showgrid="false"
     showborder="true"
     inkscape:window-width="1920"
     inkscape:window-height="1017"
     inkscape:window-x="-8"
     inkscape:window-y="-8"
     inkscape:window-maximized="1"
     showguides="true"
     inkscape:guide-bbox="true"
     inkscape:object-nodes="true"
     inkscape:snap-smooth-nodes="true"
     inkscape:showpageshadow="false"
     fit-margin-top="0"
     fit-margin-left="0"
     fit-margin-right="0"
     fit-margin-bottom="0" />
  <metadata
     id="metadata7">
    <rdf:RDF>
      <cc:Work
         rdf:about="">
        <dc:format>image/svg+xml</dc:format>
        <dc:type
           rdf:resource="http://purl.org/dc/dcmitype/StillImage" />
        <dc:title></dc:title>
      </cc:Work>
    </rdf:RDF>
  </metadata>
  <g
     inkscape:label="Layer 1"
     inkscape:groupmode="layer"
     id="layer1"
     transform="translate(-176.79193,-238.69954)">
    <g
       id="g4402">
      <path
         sodipodi:nodetypes="cszscc"
         inkscape:connector-curvature="0"
         id="path4353"
         d="m 459.48771,240.19954 c 0,0 0,124.47065 0,188.61351 0,92.1746 -66.96932,146.76342 -140.59789,146.76342 -73.62857,0 -140.59789,-54.58882 -140.59789,-146.76342 0,-64.14286 0,-188.61351 0,-188.61351 z"
         style="color:#000000;fill:#1f59b0;fill-opacity:1;stroke:none;stroke-width:3;marker:none;visibility:visible;display:inline;overflow:visible;enable-background:accumulate" />
      <path
         id="path3895"
         d="M 459.28125,267.90625 C 433.56696,278.08482 440,301.65625 440,301.65625 c -16.60714,6.96428 -11.25,25.71875 -11.25,25.71875 0,0 -10.77452,-0.98297 -19.28125,17.65625 -7.97803,17.48076 2.6875,33.21875 2.6875,33.21875 -8.03572,1.07143 -9.125,10.1875 -9.125,10.1875 -18.21429,0 -20.875,16.59375 -20.875,16.59375 -25.17857,-2.67857 -35.375,23.03125 -35.375,23.03125 L 286.25,422.1875 c -6.96429,-15 -27.3125,-11.25 -27.3125,-11.25 -4.82143,-18.21429 -24.125,-17.6875 -24.125,-17.6875 1.07143,-14.46429 -9.09375,-16.0625 -9.09375,-16.0625 4.82142,-20.89286 -13.40625,-30 -13.40625,-30 0,0 6.44643,-8.5625 1.625,-23.5625 -4.82143,-15 -19.09375,-18.15625 -19.09375,-18.15625 -0.37046,-19.63472 -15.87626,-21.84821 -16.5625,-21.9375 l 0,145.28125 c 0,25.43268 5.13248,47.99112 14.0625,67.34375 l 253.09375,0 C 454.36752,476.80362 459.5,454.24518 459.5,428.8125 l 0,-160.8125 -0.21875,-0.0937 z"
         style="color:#000000;fill:#ffffff;fill-opacity:1;stroke:#000000;stroke-width:1;stroke-linecap:butt;stroke-linejoin:miter;stroke-miterlimit:4;stroke-opacity:1;stroke-dasharray:none;stroke-dashoffset:0;marker:none;visibility:visible;display:inline;overflow:visible;enable-background:accumulate"
         inkscape:connector-curvature="0" />
      <g
         id="g4355">
        <g
           id="g4288">
          <g
             id="g4271">
            <path
               style="color:#000000;fill:#814727;fill-opacity:1;stroke:#000000;stroke-width:1;marker:none;visibility:visible;display:inline;overflow:visible;enable-background:accumulate"
               d="m 224.13422,430.24563 0,-12.99896 24.94585,0 0,12.99896 z"
               id="rect3938-1"
               inkscape:connector-curvature="0"
               sodipodi:nodetypes="ccccc" />
            <path
               sodipodi:nodetypes="cccccc"
               inkscape:connector-curvature="0"
               id="path4269"
               d="m 223.64092,417.24667 -11.25728,4.01786 0,12.99896 11.75058,-4.01786 0,-12.99896 z"
               style="color:#000000;fill:#000000;stroke:#000000;stroke-width:1;marker:none;visibility:visible;display:inline;overflow:visible;enable-background:accumulate" />
          </g>
          <use
             x="0"
             y="0"
             xlink:href="#g4271"
             id="use4293"
             transform="translate(169.48372,0)"
             width="744.09448"
             height="1052.3622" />
          <g
             id="g4313">
            <path
               style="color:#000000;fill:#000000;fill-opacity:1;stroke:#000000;stroke-width:1;stroke-linecap:butt;stroke-linejoin:miter;stroke-miterlimit:4;stroke-opacity:1;stroke-dashoffset:0;marker:none;visibility:visible;display:inline;overflow:visible;enable-background:accumulate"
               d="m 306.90196,462.94385 c 15.73944,0 28.41054,13.82518 28.41054,30.99818 l 0,31.7001 17.51277,0 0,-28.60251 c 0,-22.66601 -27.15594,-39.39975 -45.94195,-39.39975 z"
               id="path4073-7"
               inkscape:connector-curvature="0"
               sodipodi:nodetypes="csccscc" />
          </g>
          <use
             x="0"
             y="0"
             xlink:href="#g4313"
             id="use4347"
             transform="translate(-90.5625,2.6171874e-6)"
             width="744.09448"
             height="1052.3622" />
          <g
             id="g4349"
             transform="translate(90.50858,2.6171874e-6)">
            <path
               sodipodi:nodetypes="cscccsc"
               inkscape:connector-curvature="0"
               id="path4351"
               d="m 306.90196,462.94385 c 15.73944,0 28.41054,13.82518 28.41054,30.99818 l 0,31.7001 2.39321,0 15.11956,-25.24424 0,-5.0629 c 0,-22.66601 -27.15594,-37.69512 -45.94195,-37.69512"
               style="color:#000000;fill:#000000;fill-opacity:1;stroke:#000000;stroke-width:1;stroke-linecap:butt;stroke-linejoin:miter;stroke-miterlimit:4;stroke-opacity:1;stroke-dashoffset:0;marker:none;visibility:visible;display:inline;overflow:visible;enable-background:accumulate" />
          </g>
        </g>
        <g
           id="g3902">
          <path
             style="color:#000000;fill:#814727;fill-opacity:1;stroke:#000000;stroke-width:1;stroke-linecap:butt;stroke-linejoin:miter;stroke-miterlimit:4;stroke-opacity:1;stroke-dasharray:none;stroke-dashoffset:0;marker:none;visibility:visible;display:inline;overflow:visible;enable-background:accumulate"
             d="m 178.8125,429.59375 -0.5,1.25 c 0.33064,30.60975 8.09843,57.00629 21.03125,78.5625 l 0.59375,0.0625 0,-15.53125 c 0,-17.173 12.66682,-31 28.40625,-31 15.73944,0 28.40625,13.827 28.40625,31 l 0,31.70463 33.71875,0 0,-31.70463 c 0,-17.173 12.66682,-31 28.40625,-31 15.73944,0 28.4375,13.827 28.4375,31 l 0,31.70463 33.6875,0 0,-31.70463 c 0,-17.173 12.69807,-31 28.4375,-31 15.73944,0 28.40625,13.827 28.40625,31 l 0,16.46875 c 13.47273,-22.02918 21.52514,-49.19434 21.65625,-80.8125 z"
             id="path3900"
             inkscape:connector-curvature="0"
             sodipodi:nodetypes="ccccsssccsssccsssccc" />
          <g
             inkscape:groupmode="maskhelper"
             id="g4101"
             clip-path="url(#clipPath4130)">
            <g
               id="g3926">
              <g
                 transform="translate(0,9.4552612e-5)"
                 id="g3907">
                <path
                   inkscape:connector-curvature="0"
                   id="path3905"
                   d="m 178.797,437.9369 281.07495,0"
                   style="color:#000000;fill:none;stroke:#000000;stroke-width:1;stroke-linecap:butt;stroke-linejoin:miter;stroke-miterlimit:4;stroke-opacity:1;stroke-dasharray:none;stroke-dashoffset:0;marker:none;visibility:visible;display:inline;overflow:visible;enable-background:accumulate" />
              </g>
              <use
                 x="0"
                 y="0"
                 xlink:href="#g3907"
                 id="use3910"
                 transform="translate(0,9.9776583)"
                 width="744.09448"
                 height="1052.3622" />
              <use
                 height="1052.3622"
                 width="744.09448"
                 transform="translate(0,19.955328)"
                 id="use3912"
                 xlink:href="#g3907"
                 y="0"
                 x="0" />
              <use
                 x="0"
                 y="0"
                 xlink:href="#g3907"
                 id="use3914"
                 transform="translate(0,29.933001)"
                 width="744.09448"
                 height="1052.3622" />
              <use
                 height="1052.3622"
                 width="744.09448"
                 transform="translate(0,39.910644)"
                 id="use3916"
                 xlink:href="#g3907"
                 y="0"
                 x="0" />
              <use
                 x="0"
                 y="0"
                 xlink:href="#g3907"
                 id="use3918"
                 transform="translate(0,49.888305)"
                 width="744.09448"
                 height="1052.3622" />
              <use
                 height="1052.3622"
                 width="744.09448"
                 transform="translate(0,59.865966)"
                 id="use3920"
                 xlink:href="#g3907"
                 y="0"
                 x="0" />
              <use
                 x="0"
                 y="0"
                 xlink:href="#g3907"
                 id="use3922"
                 transform="translate(0,69.843627)"
                 width="744.09448"
                 height="1052.3622" />
              <use
                 height="1052.3622"
                 width="744.09448"
                 transform="translate(0,79.821306)"
                 id="use3924"
                 xlink:href="#g3907"
                 y="0"
                 x="0" />
              <g
                 transform="matrix(0.89786639,0,0,1.2689076,7.7875953,-107.48831)"
                 id="g3970">
                <path
                   style="color:#000000;fill:none;stroke:#000000;stroke-width:0.93686962;marker:none;visibility:visible;display:inline;overflow:visible;enable-background:accumulate"
                   d="m 243.75,430.02008 0,7.5 m -33.75,0 0,-7.5"
                   id="rect3938"
                   inkscape:connector-curvature="0"
                   sodipodi:nodetypes="cccc" />
                <path
                   sodipodi:nodetypes="cccc"
                   inkscape:connector-curvature="0"
                   id="path3992"
                   d="m 311.25,430.02008 0,7.5 m -33.75,0 0,-7.5"
                   style="color:#000000;fill:none;stroke:#000000;stroke-width:0.93686962;marker:none;visibility:visible;display:inline;overflow:visible;enable-background:accumulate" />
                <path
                   style="color:#000000;fill:none;stroke:#000000;stroke-width:0.93686962;marker:none;visibility:visible;display:inline;overflow:visible;enable-background:accumulate"
                   d="m 378.75,430.02008 0,7.5 m -33.75,0 0,-7.5"
                   id="path4024"
                   inkscape:connector-curvature="0"
                   sodipodi:nodetypes="cccc" />
                <path
                   sodipodi:nodetypes="cccc"
                   inkscape:connector-curvature="0"
                   id="path4026"
                   d="m 412.5,430.02008 0,7.5 m 33.75,0 0,-7.5"
                   style="color:#000000;fill:none;stroke:#000000;stroke-width:0.93686962;marker:none;visibility:visible;display:inline;overflow:visible;enable-background:accumulate" />
                <path
                   sodipodi:nodetypes="cc"
                   inkscape:connector-curvature="0"
                   id="path3990"
                   d="m 480,430.02008 0,7.5"
                   style="color:#000000;fill:none;stroke:#000000;stroke-width:0.93686962;marker:none;visibility:visible;display:inline;overflow:visible;enable-background:accumulate" />
              </g>
              <use
                 height="1052.3622"
                 width="744.09448"
                 transform="translate(16.068988,9.9776606)"
                 id="use3986"
                 xlink:href="#g3970"
                 y="0"
                 x="0" />
              <g
                 id="g3988"
                 transform="matrix(0.95223631,0,0,1.2689076,-4.6993259,-107.48831)" />
              <use
                 height="1052.3622"
                 width="744.09448"
                 transform="translate(0,19.955332)"
                 id="use4041"
                 xlink:href="#g3970"
                 y="0"
                 x="0" />
              <use
                 x="0"
                 y="0"
                 xlink:href="#g3970"
                 id="use4054"
                 transform="translate(16.068988,29.943492)"
                 width="744.09448"
                 height="1052.3622" />
              <use
                 x="0"
                 y="0"
                 xlink:href="#g3970"
                 id="use4056"
                 transform="translate(0,39.921164)"
                 width="744.09448"
                 height="1052.3622" />
              <use
                 height="1052.3622"
                 width="744.09448"
                 transform="translate(16.068988,49.764921)"
                 id="use4058"
                 xlink:href="#g3970"
                 y="0"
                 x="0" />
              <use
                 height="1052.3622"
                 width="744.09448"
                 transform="translate(0,59.742593)"
                 id="use4060"
                 xlink:href="#g3970"
                 y="0"
                 x="0" />
              <use
                 x="0"
                 y="0"
                 xlink:href="#g3970"
                 id="use4062"
                 transform="translate(16.068988,69.58635)"
                 width="744.09448"
                 height="1052.3622" />
              <use
                 x="0"
                 y="0"
                 xlink:href="#g3970"
                 id="use4064"
                 transform="translate(0,79.564022)"
                 width="744.09448"
                 height="1052.3622" />
              <use
                 x="0"
                 y="0"
                 xlink:href="#g3970"
                 id="use4066"
                 transform="matrix(1,0,0,0.83915461,16.068988,62.240588)"
                 width="744.09448"
                 height="1052.3622" />
            </g>
            <g
               transform="translate(0,2.6171874e-6)"
               id="g4160">
              <path
                 sodipodi:nodetypes="csssccssscc"
                 inkscape:connector-curvature="0"
                 id="path4073"
                 d="m 290.49142,525.64213 0,-31.7001 c 0,-17.173 12.67111,-30.99818 28.41054,-30.99818 15.73944,0 28.41054,13.82518 28.41054,30.99818 l 0,31.7001 5.51277,0 0,-30.30714 c 0,-22.66601 -15.15594,-37.69512 -33.94195,-37.69512 -18.78601,0 -33.90467,15.02911 -33.90467,37.69512 l 0,30.30714 z"
                 style="color:#000000;fill:#814727;fill-opacity:1;stroke:#000000;stroke-width:1;stroke-linecap:butt;stroke-linejoin:miter;stroke-miterlimit:4;stroke-opacity:1;stroke-dashoffset:0;marker:none;visibility:visible;display:inline;overflow:visible;enable-background:accumulate" />
              <use
                 height="1052.3622"
                 width="744.09448"
                 transform="translate(-90.5625,0)"
                 id="use4156"
                 xlink:href="#path4073"
                 y="0"
                 x="0" />
              <use
                 x="0"
                 y="0"
                 xlink:href="#path4073"
                 id="use4158"
                 transform="translate(90.50858,0)"
                 width="744.09448"
                 height="1052.3622" />
            </g>
            <rect
               style="color:#000000;fill:#814727;fill-opacity:1;fill-rule:evenodd;stroke:#000000;stroke-width:1;stroke-linecap:butt;stroke-linejoin:miter;stroke-miterlimit:4;stroke-opacity:1;stroke-dasharray:none;stroke-dashoffset:0;marker:none;visibility:visible;display:inline;overflow:visible;enable-background:accumulate"
               id="rect4227"
               width="52.920361"
               height="4.3947873"
               x="292.44177"
               y="447.99805"
               rx="0"
               ry="4.3947873" />
          </g>
        </g>
      </g>
      <g
         transform="translate(2.2519478,1.0714286)"
         id="g3841">
        <g
           id="g3881">
          <path
             style="color:#000000;fill:#d0b665;fill-opacity:1;stroke:#000000;stroke-width:1;stroke-linecap:butt;stroke-linejoin:miter;stroke-miterlimit:4;stroke-opacity:1;stroke-dasharray:none;stroke-dashoffset:0;marker:none;visibility:visible;display:inline;overflow:visible;enable-background:accumulate"
             d="m 290.54513,369.12025 c 0,0 -1.13643,-5.6821 -7.19734,-7.95495 0,0 -7.95495,-10.6066 -6.43972,-25.38008 1.51523,-14.77348 6.7127,-19.4863 13.25825,-19.69798 0,0 1.89404,-7.19733 14.01587,-9.47018 12.12183,-2.27284 18.56155,-0.3788 22.34962,3.40927 0,0 3.78807,-0.75761 7.57614,1.89404 3.78808,2.65165 4.54569,10.9854 4.54569,10.9854 l 5.68211,11.36422 c 0,0 7.95495,4.54569 9.09137,12.12183 1.13642,7.57615 -8.33376,9.09137 -11.74302,16.28871 -3.40927,7.19734 -13.25825,10.2278 -13.25825,10.2278 z"
             id="path3877"
             inkscape:connector-curvature="0"
             sodipodi:nodetypes="ccscscsccsscc" />
          <path
             style="color:#000000;fill:none;stroke:#000000;stroke-width:1;stroke-linecap:butt;stroke-linejoin:miter;stroke-miterlimit:4;stroke-opacity:1;stroke-dasharray:none;stroke-dashoffset:0;marker:none;visibility:visible;display:inline;overflow:visible;enable-background:accumulate"
             d="m 289.90612,316.08342 c 1.02847,0 4.67962,0.067 7.14186,4.04443 2.46225,3.97748 6.06092,2.84106 6.06092,2.84106"
             id="path3879"
             inkscape:connector-curvature="0"
             sodipodi:nodetypes="csc" />
        </g>
        <g
           id="g3800">
          <g
             id="g3789">
            <path
               sodipodi:type="star"
               style="color:#000000;fill:#ffffff;fill-opacity:1;stroke:#000000;stroke-width:1.12363768;stroke-linecap:round;stroke-linejoin:miter;stroke-miterlimit:4;stroke-opacity:1;stroke-dasharray:none;stroke-dashoffset:0;marker:none;visibility:visible;display:inline;overflow:visible;enable-background:accumulate"
               id="path3765"
               sodipodi:sides="6"
               sodipodi:cx="311.25"
               sodipodi:cy="266.11218"
               sodipodi:r1="8.5881529"
               sodipodi:r2="4.3558574"
               sodipodi:arg1="-1.5707963"
               sodipodi:arg2="-1.0471975"
               inkscape:flatsided="false"
               inkscape:rounded="0"
               inkscape:randomized="0"
               d="m 311.25,257.52403 2.17793,4.81587 5.25963,-0.52179 -3.0817,4.29407 3.0817,4.29408 -5.25963,-0.52179 -2.17793,4.81587 -2.17793,-4.81587 -5.25963,0.52179 3.0817,-4.29408 -3.0817,-4.29407 5.25963,0.52179 z"
               transform="matrix(0.88996664,0,0,0.88996664,34.247883,27.674075)" />
          </g>
          <use
             height="1052.3622"
             width="744.09448"
             transform="matrix(0.8660254,-0.5,0.5,0.8660254,-103.43237,203.9414)"
             id="use3792"
             xlink:href="#g3789"
             y="0"
             x="0" />
          <use
             x="0"
             y="0"
             xlink:href="#g3789"
             id="use3794"
             transform="matrix(0.96592582,-0.25881905,0.25881905,0.96592582,-39.67061,87.297379)"
             width="744.09448"
             height="1052.3622" />
          <use
             height="1052.3622"
             width="744.09448"
             transform="matrix(0.8660254,-0.5,0.5,0.8660254,-57.5967,200.53214)"
             id="use3796"
             xlink:href="#g3789"
             y="0"
             x="0" />
          <use
             x="0"
             y="0"
             xlink:href="#g3789"
             id="use3798"
             transform="matrix(0.96592582,0.25881904,-0.25881904,0.96592582,113.91479,-44.270519)"
             width="744.09448"
             height="1052.3622" />
        </g>
        <g
           id="g3862">
          <path
             sodipodi:nodetypes="cssccscsccssc"
             inkscape:connector-curvature="0"
             id="path3808"
             d="m 313.39286,308.82325 c 0,0 -2.90047,-2.72453 -6.99678,-5.92536 -3.68607,-2.88027 -4.27836,-9.76811 1.57464,-12.32142 5.71048,-2.49114 5.54655,-4.74298 5.54655,-4.74298 -1.13504,-3.26668 -1.89414,-4.32124 -2.26726,-8.38202 2.54464,-1.07143 3.94642,2.84478 6.42856,3.03571 2.48214,0.19093 3.21429,-1.07143 8.03572,-1.60714 0,0 1.7594,1.32868 3.48214,3.48214 2.14264,2.67834 2.86525,-0.0812 6.42857,1.33929 -1.04092,3.77662 -3.60153,3.74632 -6.69643,6.42857 0,0 0.80357,4.01785 1.875,6.69643 1.07143,2.67857 1.875,4.28571 0.26786,6.96428 -1.60714,2.67857 -4.93238,1.7181 -9.39404,4.85393"
             style="color:#000000;fill:#000000;stroke:none;stroke-width:1;marker:none;visibility:visible;display:inline;overflow:visible;enable-background:accumulate" />
          <path
             sodipodi:nodetypes="cscccccccscscc"
             inkscape:connector-curvature="0"
             id="path3810"
             d="m 318.69321,286.75885 c 0,0 -4.01786,4.82143 -5.35714,10.17857 -1.33929,5.35714 3.18179,8.99619 3.18179,8.99619 l -0.26786,2.41071 -2.75703,0 c 0,0 2.72454,3.54435 4.36417,6.42857 0,0 2.14286,-3.21428 3.48215,-6.42857 l -1.60715,-0.26785 0,-1.875 c 0,0 5.625,-4.82143 6.16072,-5.35715 0.53571,-0.53571 0.53571,-3.21428 0.53571,-3.21428 0,0 2.67857,-2.94643 2.67857,-5.89286 0,-2.94643 -2.14285,-1.875 -3.48214,-4.28571 0,0 -2.37822,1.45024 -6.93179,-0.69262 z"
             style="color:#000000;fill:#ffffff;fill-opacity:1;stroke:#000000;stroke-width:1;stroke-linecap:butt;stroke-linejoin:miter;stroke-miterlimit:4;stroke-opacity:1;stroke-dasharray:none;stroke-dashoffset:0;marker:none;visibility:visible;display:inline;overflow:visible;enable-background:accumulate" />
          <path
             sodipodi:nodetypes="scccsscczccssccscssccccccczcscccsscsccscsccscs"
             inkscape:connector-curvature="0"
             id="path3812"
             d="m 320.4687,289.0625 c -1.03032,-0.33117 -1.95313,0.21875 -1.95313,0.21875 0,0 0.79595,0.4785 1.64063,0.75 0.84468,0.27151 1.68504,0.78348 2.51562,1.79687 0.027,-1.66518 -1.1728,-2.43445 -2.20312,-2.76562 z M 321,292.25 c -0.69803,-0.60108 -1.86618,-1.12219 -3.53125,-0.42188 0.7746,0.14927 1.40289,0.41379 1.40289,0.41379 0,0 -1.2428,2.04824 0.0852,2.53506 1.32798,0.48682 1.86044,-1.58757 1.86044,-1.58757 l 0.65149,0.51372 c 0,0 0.22928,-0.85204 -0.46875,-1.45312 z m 5.53125,0.8125 c 0.47958,-0.0631 0.9997,0.0214 1.59375,1.03125 l 0.875,-0.5 c -0.74524,-1.2669 -1.80101,-1.60431 -2.59375,-1.5 -0.79274,0.10431 -1.04688,0.9375 -1.04688,0.9375 0,0 0.6923,0.0944 1.17188,0.0312 z m -0.28125,1.2499 c -0.35468,-0.24745 -0.73416,-0.37919 -1.09375,-0.4375 -0.71918,-0.11662 -1.54971,0.16499 -1.54971,0.16499 -0.77417,0.7332 -1.88427,2.98263 -2.20024,4.61626 -0.53602,-0.32937 -2.02038,-0.87976 -2.02038,-0.87976 0.47399,1.80495 0.92905,1.73735 2.77038,2.31726 0.27904,-1.95352 0.77092,-3.68779 1.99995,-5.21875 0.13626,-0.0179 -0.87755,1.48709 0.27554,1.89404 1.1531,0.40695 1.53982,-1.35993 1.53982,-1.35993 0,0 0.0186,-0.0109 0.59089,0.16902 0.37142,-0.62372 0.0422,-1.01818 -0.3125,-1.26563 z m -8.80956,5.77024 c 0,0 1.13642,0 1.70463,0.0947 0.56821,0.0947 0.94702,-0.0947 1.60993,0.56821 0.66291,0.66291 0.47351,1.32583 0.47351,1.32583 0,0 -0.75761,-0.75762 -1.89404,-0.94702 -1.13642,-0.1894 -1.89403,-1.04172 -1.89403,-1.04172 z m 0.75761,1.79933 c 0,0 0.85232,0 1.32583,0.66292 0.47351,0.66291 -1.23113,0.94701 -1.32583,-0.66292 z m -0.51948,4.18557 c 0.40179,0.13393 2.54465,-0.85905 2.54465,-0.85905 l -0.49649,1.33929 c 0,0 -2.01566,0.89154 -3.08036,0.11094 -0.45824,-0.33596 -0.55196,-1.62815 -0.55196,-1.62815 0,0 1.18238,0.90304 1.58416,1.03697 z"
             style="font-size:medium;font-style:normal;font-variant:normal;font-weight:normal;font-stretch:normal;text-indent:0;text-align:start;text-decoration:none;line-height:normal;letter-spacing:normal;word-spacing:normal;text-transform:none;direction:ltr;block-progression:tb;writing-mode:lr-tb;text-anchor:start;baseline-shift:baseline;color:#000000;fill:#000000;fill-opacity:1;stroke:none;stroke-width:1;marker:none;visibility:visible;display:inline;overflow:visible;enable-background:accumulate;font-family:Sans;-inkscape-font-specification:Sans" />
        </g>
        <g
           id="g3820">
          <path
             sodipodi:nodetypes="ccccccccccccc"
             inkscape:connector-curvature="0"
             id="path3818"
             d="m 282.46391,288.11865 5.3033,7.19733 -5.49271,4.35629 4.13438,5.42771 5.90401,-4.29129 25.72283,29.32135 4.82142,-4.82143 -25.17857,-28.92857 4.82143,-4.82143 -4.55357,-4.28572 -5.08929,4.01786 -5.35714,-5.89286 z"
             style="color:#000000;fill:#000000;stroke:none;stroke-width:1;marker:none;visibility:visible;display:inline;overflow:visible;enable-background:accumulate" />
          <path
             sodipodi:nodetypes="csccsssccsccsssscssccc"
             inkscape:connector-curvature="0"
             id="path3816"
             d="m 291.55528,295.12658 c 0,0 -1.89404,-0.37881 -1.32583,-2.08344 0.56821,-1.70463 3.59867,-2.27284 3.03047,1.13642 l 1.17672,0.24462 c 0,0 1.8527,-1.9482 2.04315,-2.13865 0.37881,-0.37881 0.18941,-3.21987 0.94702,-3.40927 0.75762,-0.1894 1.13642,0.37881 1.13642,1.13642 0,0.75762 -0.94702,3.40927 -0.94702,3.40927 l -1.51522,2.08344 c 0,0 1.6826,3.18592 2.65164,4.16688 2.21826,2.24555 1.91682,3.98886 1.89405,3.97747 1.68052,-0.0473 3.96681,1.14171 4.54568,3.78807 0.1894,1.13642 0.56821,1.70464 0.56821,2.65165 0,0.94702 -0.75762,0.94702 -1.32583,0.18941 -0.56821,-0.75762 -1.13642,-2.08344 -2.65165,-3.03046 -1.51523,-0.94702 -2.46224,-0.56821 -4.35628,-3.03046 -0.98667,-1.28267 -4.9245,-5.87151 -4.9245,-5.87151 0,0 -2.46224,2.08344 -5.11389,1.89404 -2.65165,-0.18941 -2.84105,-1.51523 -2.27284,-1.89404 0.56821,-0.37881 3.78807,0.18941 3.78807,0.18941 l 3.03046,-2.27285 z"
             style="color:#000000;fill:#ffffff;fill-opacity:1;stroke:none;stroke-width:1;marker:none;visibility:visible;display:inline;overflow:visible;enable-background:accumulate" />
        </g>
        <path
           sodipodi:nodetypes="ccscsscc"
           inkscape:connector-curvature="0"
           id="path3885"
           d="m 289.82143,392.18361 c 0,0 -7.5,26.31499 -3.75,43.45785 0,0 12.76786,4.98917 29.10714,5.52488 16.33929,0.53572 31.875,-6.50702 35.08929,-11.59631 0,0 -8.03572,-10.24356 -10.17857,-17.74356 -2.14286,-7.5 -0.26786,-24.64286 -3.21429,-32.41072 -2.94643,-7.76785 -37.5,-6.96428 -45.08928,-0.58035 0,0 -1.96429,5.3125 -1.96429,13.34821 z"
           style="color:#000000;fill:#000000;stroke:none;stroke-width:1;marker:none;visibility:visible;display:inline;overflow:visible;enable-background:accumulate" />
        <path
           sodipodi:nodetypes="ccszssscscccc"
           inkscape:connector-curvature="0"
           id="path3875"
           d="m 295.09081,339.57329 c 0,0 -3.78807,27.65293 -7.57614,40.91118 0,0 2.95049,2.08555 6.81853,1.51523 3.83887,-0.56602 5.20113,-2.94009 7.57614,-3.40926 2.37502,-0.46918 3.78807,0.3788 6.06092,2.65164 2.27284,2.27285 7.57614,3.40927 10.22779,0.75762 2.65165,-2.65165 4.9245,-4.16688 9.47018,-1.89404 4.54569,2.27285 8.33376,2.65165 11.74303,1.89404 0,0 -2.27285,-10.2278 -2.27285,-18.56155 0,-8.33376 -0.3788,-12.87945 -0.3788,-12.87945 l -29.54697,-1.13642 c 0,0 -7.19733,-0.37881 -9.84898,-11.36422 -0.75762,-0.3788 -2.27285,1.51523 -2.27285,1.51523 z"
           style="color:#000000;fill:#ffffff;fill-opacity:1;stroke:#000000;stroke-width:1;stroke-linecap:butt;stroke-linejoin:miter;stroke-miterlimit:4;stroke-opacity:1;stroke-dasharray:none;stroke-dashoffset:0;marker:none;visibility:visible;display:inline;overflow:visible;enable-background:accumulate" />
        <g
           id="g3831">
          <path
             sodipodi:nodetypes="ccssssccscsscccsscc"
             inkscape:connector-curvature="0"
             id="path3824"
             d="m 309.40966,325.8731 0,2.46224 c 0,0 -5.48001,2.46225 -7.37405,6.62913 -1.89403,4.16688 -8.90197,10.03839 -12.50064,10.6066 -3.59866,0.56821 -7.95495,-6.25032 -7.19733,-11.36421 0.75761,-5.1139 7.38674,-10.0384 14.77348,-10.98541 7.38674,-0.94702 8.32106,-4.16688 12.29854,-5.1139 l 0,2.21529 c 0,0 4.17957,-2.21529 5.5054,-3.73052 1.32582,-1.51523 3.21986,-2.46225 3.21986,-2.46225 0,0 1.32582,-0.94701 5.3033,0.18941 3.97747,1.13642 6.43972,4.73509 6.81853,5.3033 0.37881,0.56821 -1.13642,1.13642 -1.13642,1.13642 0.27348,0.96608 -0.46543,1.63922 -1.13642,2.08344 0,0.37881 0,1.13642 -0.75762,1.32582 -0.75761,0.18941 -1.89404,-0.56821 -2.08344,-0.1894 -0.1894,0.37881 -0.56821,0.94702 -2.65165,0.56821 -2.26703,-0.41218 -5.4927,-0.37881 -5.4927,-0.37881 0,0 -3.61136,0.75762 -7.58884,1.70464 z"
             style="color:#000000;fill:#ffffff;fill-opacity:1;stroke:#000000;stroke-width:1;stroke-linecap:butt;stroke-linejoin:miter;stroke-miterlimit:4;stroke-opacity:1;stroke-dasharray:none;stroke-dashoffset:0;marker:none;visibility:visible;display:inline;overflow:visible;enable-background:accumulate" />
          <path
             sodipodi:nodetypes="cccccccccccccccccccccc"
             inkscape:connector-curvature="0"
             id="path3826"
             d="m 325.06438,318.48681 c 1.20955,0.85905 2.39026,1.75798 3.56062,2.66944 0.20833,-0.26042 0.41667,-0.52083 0.625,-0.78125 -1.61991,-1.22772 -3.20558,-2.51848 -4.9467,-3.57245 -1.19386,-0.62578 -2.52891,-0.95774 -3.89705,-0.5838 1.6471,0.68498 3.32399,1.20214 4.65813,2.26806 z m -0.90813,1.76319 c 1.23958,0.98958 2.47917,1.97917 3.71875,2.96875 0.20833,-0.26042 0.41667,-0.52083 0.625,-0.78125 -1.28942,-1.03377 -2.59673,-2.04749 -3.875,-3.09375 -1.86185,-0.4589 -3.59556,-0.89845 -5.34375,-0.65625 1.65043,0.71845 3.25918,1.17219 4.875,1.5625 z m -15.21875,-0.8125 c 0,2.58333 0,5.16667 0,7.75 0.33333,0 0.66667,0 1,0 0,-2.58333 0,-5.16667 0,-7.75 -0.33333,0 -0.66667,0 -1,0 z m 15.07133,4.32046 c 0.46914,0.24646 1.00083,0.70544 1.16174,-0.0328 0.56204,-0.60655 -0.6478,-0.66327 -0.98007,-0.98792 -1.62518,-0.96744 -3.29224,-1.26417 -5.11238,-1.22162 1.72645,0.80803 3.29954,1.42028 4.93071,2.24234 z"
             style="font-size:medium;font-style:normal;font-variant:normal;font-weight:normal;font-stretch:normal;text-indent:0;text-align:start;text-decoration:none;line-height:normal;letter-spacing:normal;word-spacing:normal;text-transform:none;direction:ltr;block-progression:tb;writing-mode:lr-tb;text-anchor:start;baseline-shift:baseline;color:#000000;fill:#000000;fill-opacity:1;stroke:none;stroke-width:1;marker:none;visibility:visible;display:inline;overflow:visible;enable-background:accumulate;font-family:Sans;-inkscape-font-specification:Sans" />
        </g>
        <g
           id="g3871">
          <path
             style="color:#000000;fill:#0a7c24;fill-opacity:1;stroke:#000000;stroke-width:1;stroke-linecap:butt;stroke-linejoin:miter;stroke-miterlimit:4;stroke-opacity:1;stroke-dasharray:none;stroke-dashoffset:0;marker:none;visibility:visible;display:inline;overflow:visible;enable-background:accumulate"
             d="m 302.41442,369.12025 c 0,0 3.03046,-24.05425 14.77348,-32.19861 0,0 1.95903,-5.43328 10.22779,-11.36421 0,0 4.9245,-12.87945 23.86486,-19.31917 0.0609,2.22493 -0.8893,3.72358 -2.27285,4.92449 2.46225,-0.57756 3.59867,-0.51071 4.9245,0 -2.22473,3.63475 -5.02128,4.94661 -7.95495,7.57615 1.89404,-0.13783 3.78807,-0.3138 5.68211,0.3788 -0.61564,1.89404 -1.91464,3.78807 -4.54569,5.68211 0,0 4.73509,-0.37881 9.47018,-1.13642 0,0 -1.51523,4.16688 -6.06092,5.68211 0,0 2.65165,0.3788 3.78808,1.13642 0,0 -10.2278,9.84899 -30.68339,6.43972 0,0 -2.27284,1.13642 -4.54568,1.51523 0,0 -9.09138,8.71257 -11.36422,25.38008 -0.37881,0.75762 -1.51523,3.40926 -5.3033,5.3033 z"
             id="path3867"
             inkscape:connector-curvature="0"
             sodipodi:nodetypes="cccccccccccccccc" />
          <path
             style="color:#000000;fill:none;stroke:#000000;stroke-width:1;stroke-linecap:butt;stroke-linejoin:miter;stroke-miterlimit:4;stroke-opacity:1;stroke-dasharray:none;stroke-dashoffset:0;marker:none;visibility:visible;display:inline;overflow:visible;enable-background:accumulate"
             d="m 326.48536,326.30158 c 0,0 14.98654,-11.6288 23.29011,-15.64666 m -3.70404,7.95726 -22.53352,15.69366 c 0,0 13.96209,0.37777 27.08709,-4.97937 m -2.67857,-4.82143 c 0,0 -12.02108,1.82346 -20.31119,6.96428"
             id="path3869"
             inkscape:connector-curvature="0"
             sodipodi:nodetypes="ccccccc" />
        </g>
        <g
           id="g3835"
           transform="matrix(-0.7861515,0.61803383,0.61803383,0.7861515,360.45809,-93.613385)">
          <path
             style="color:#000000;fill:#ffffff;fill-opacity:1;stroke:#000000;stroke-width:1;stroke-linecap:butt;stroke-linejoin:miter;stroke-miterlimit:4;stroke-opacity:1;stroke-dasharray:none;stroke-dashoffset:0;marker:none;visibility:visible;display:inline;overflow:visible;enable-background:accumulate"
             d="m 309.96591,324.41365 0.63173,1.9656 c -5.50751,4.03595 -12.43964,9.94162 -16.94249,11.86411 -4.50286,1.92248 -7.23979,-1.44997 -7.23979,-1.44997 0,0 2.69316,-9.0743 8.22846,-13.67658 5.72641,-4.7612 8.8773,-5.62634 12.85478,-6.57336 l 1.72965,0.51481 c 3.4455,-1.48613 4.69196,-1.99677 9.32782,-3.25928 4.95432,0.20228 8.14211,0.817 11.70068,5.8238 0.37881,0.56821 -1.13642,1.13642 -1.13642,1.13642 0.27348,0.96608 -0.46543,1.63922 -1.13642,2.08344 0,0.37881 0,1.13642 -0.75762,1.32582 -0.75761,0.18941 -1.89404,-0.56821 -2.08344,-0.1894 -0.1894,0.37881 -0.56821,0.94702 -2.65165,0.56821 -2.26703,-0.41218 -5.19206,-1.2966 -5.19206,-1.2966 0,0 -3.37033,1.93102 -7.33323,1.16298 z"
             id="path3837"
             inkscape:connector-curvature="0"
             sodipodi:nodetypes="cczcscccccccsscc" />
          <path
             style="font-size:medium;font-style:normal;font-variant:normal;font-weight:normal;font-stretch:normal;text-indent:0;text-align:start;text-decoration:none;line-height:normal;letter-spacing:normal;word-spacing:normal;text-transform:none;direction:ltr;block-progression:tb;writing-mode:lr-tb;text-anchor:start;baseline-shift:baseline;color:#000000;fill:#000000;fill-opacity:1;stroke:none;stroke-width:1;marker:none;visibility:visible;display:inline;overflow:visible;enable-background:accumulate;font-family:Sans;-inkscape-font-specification:Sans"
             d="m 325.06438,318.48681 c 1.20955,0.85905 2.39026,1.75798 3.56062,2.66944 0.20833,-0.26042 0.41667,-0.52083 0.625,-0.78125 -1.61991,-1.22772 -3.20558,-2.51848 -4.9467,-3.57245 -1.19386,-0.62578 -2.52891,-0.95774 -3.89705,-0.5838 1.6471,0.68498 3.32399,1.20214 4.65813,2.26806 z m -0.90813,1.76319 c 1.23958,0.98958 2.47917,1.97917 3.71875,2.96875 0.20833,-0.26042 0.41667,-0.52083 0.625,-0.78125 -1.28942,-1.03377 -2.59673,-2.04749 -3.875,-3.09375 -1.86185,-0.4589 -3.59556,-0.89845 -5.34375,-0.65625 1.65043,0.71845 3.25918,1.17219 4.875,1.5625 z m -15.54013,-3.04468 c -1.13046,1.7367 -1.58636,3.96009 1.48684,8.21415 l 0.33782,-0.8423 c -1.15325,-2.18455 -2.59574,-4.08534 -0.7145,-7.35866 z m 15.39271,6.55264 c 0.46914,0.24646 1.00083,0.70544 1.16174,-0.0328 0.56204,-0.60655 -0.6478,-0.66327 -0.98007,-0.98792 -1.62518,-0.96744 -3.07966,-1.91314 -4.8998,-1.87059 1.72645,0.80803 3.08696,2.06925 4.71813,2.89131 z"
             id="path3839"
             inkscape:connector-curvature="0"
             sodipodi:nodetypes="cccccccccccccccccccccc" />
        </g>
        <g
           id="g3891">
          <path
             style="color:#000000;fill:#000000;stroke:none;stroke-width:1;marker:none;visibility:visible;display:inline;overflow:visible;enable-background:accumulate"
             d="m 320.32559,439.26273 c 0,0 -0.37881,4.92449 -0.1894,7.76554 l 4.54568,0 c 0,0 0,-1.70463 1.51523,-1.89403 1.51523,-0.18941 2.84106,1.70463 2.84106,1.70463 0,0 6.43972,0 9.09137,0 2.65165,0 2.46225,-2.27285 2.46225,-2.27285 0,0 -3.97748,0.56821 -6.25033,-1.70463 -1.90348,-1.90348 -4.92449,-3.78807 -9.28077,-3.78807 -4.35628,0 -4.73509,0.18941 -4.73509,0.18941 z"
             id="path3887"
             inkscape:connector-curvature="0"
             sodipodi:nodetypes="cccscscssc" />
          <path
             sodipodi:nodetypes="cccscscssc"
             inkscape:connector-curvature="0"
             id="path3889"
             d="m 311.64141,439.26273 c 0,0 0.37881,4.92449 0.1894,7.76554 l -4.54568,0 c 0,0 0,-1.70463 -1.51523,-1.89403 -1.51523,-0.18941 -2.84106,1.70463 -2.84106,1.70463 0,0 -6.43972,0 -9.09137,0 -2.65165,0 -2.46225,-2.27285 -2.46225,-2.27285 0,0 3.97748,0.56821 6.25033,-1.70463 1.90348,-1.90348 4.92449,-3.78807 9.28077,-3.78807 4.35628,0 4.73509,0.18941 4.73509,0.18941 z"
             style="color:#000000;fill:#000000;stroke:none;stroke-width:1;marker:none;visibility:visible;display:inline;overflow:visible;enable-background:accumulate" />
        </g>
      </g>
      <path
         style="color:#000000;fill:none;stroke:#000000;stroke-width:3;stroke-linecap:butt;stroke-linejoin:miter;stroke-miterlimit:4;stroke-opacity:1;stroke-dasharray:none;stroke-dashoffset:0;marker:none;visibility:visible;display:inline;overflow:visible;enable-background:accumulate"
         d="m 459.48771,240.19954 c 0,0 0,124.47065 0,188.61351 0,92.1746 -66.96932,146.76342 -140.59789,146.76342 -73.62857,0 -140.59789,-54.58882 -140.59789,-146.76342 0,-64.14286 0,-188.61351 0,-188.61351 z"
         id="path3763"
         inkscape:connector-curvature="0"
         sodipodi:nodetypes="cszscc" />
    </g>
  </g>
</svg>
