<?xml version="1.0" encoding="UTF-8" standalone="no"?>
<svg xmlns:rdf="http://www.w3.org/1999/02/22-rdf-syntax-ns#" xmlns="http://www.w3.org/2000/svg" height="582" width="488" version="1.0" xmlns:cc="http://creativecommons.org/ns#" xmlns:dc="http://purl.org/dc/elements/1.1/">
 <path d="m4 4v358.75c0 74.726 78.455 215.25 240 215.25s240-140.52 240-215.25v-358.75h-480z" fill-rule="evenodd" stroke="#000" stroke-width="8" fill="#fff"/>
 <g transform="translate(-19.747 -21.641)">
  <g>
   <path d="m334.13 538.52c7.5903-3.0684 9.7983-4.5687 20.012-13.598 16.242-14.358 18.096-15.302 42.438-21.608 15.501-4.0153 29.807-10.121 30.334-12.947 0.41004-2.1986-4.8586-8.5169-10.511-12.605-6.8614-4.9624-18.3-11.174-29.44-15.986-12.057-5.2086-20.604-10.61-21.81-13.784-1.0678-2.8085-4.0226-32.372-4.0226-40.247 0-6.1076 1.3928-6.8579 4.5-2.4242 1.1 1.5696 5.5432 7.0153 9.8739 12.101l7.8739 9.2476 2.9702-6.7418c1.6336-3.708 4.5504-13.04 6.4816-20.737 2.9852-11.898 3.3244-14.345 2.2636-16.327-1.3628-2.5465-19.487-20.481-24.716-24.458l-3.2527-2.4736 1.3964-5.5c0.768-3.025 2.3872-9.775 3.5983-15s3.0898-11.525 4.175-14l1.973-4.5 2.6814 5.4618c3.3214 6.7657 12.012 15.633 17.853 18.217 5.7546 2.5455 16.348 3.2556 23.328 1.5637 5.2001-1.2604 5.483-1.4888 5.1886-4.188-0.90156-8.2658-14.514-29.042-27.356-41.753l-9.7984-9.6983 4.8912-10.802c9.1625-17.726 12.601-23.255 14.087-29.853 11.716-52.018 1.953 5.4892 2.2492 10.302 0.60733 9.865 2.1851 14.332 6.6733 18.892 4.7376 4.8142 9.5811 6.665 18.735 7.159l8.1695 0.44087 1.0749-3.8712c3.5552-12.804-0.53421-34.712-11.764-63.022l-2.0432-5.1511 3.8546-2.6712c4.6922-3.2517 32.696-34.088 41.227-45.396 4.7353-6.2771 11.525-20.469 12.377-25.869 1.7612-11.168-4.6048-13.819-9.3059-3.6783-4.1096 8.8648-10.911 17.883-19.665 24.167-8.1689 5.864-9.0854 6.8769-8.2291 0.5 0.90426-6.734 5.6539-15.819 11.908-22.778 6.5006-7.2331 7.3368-9.1395 5.0952-11.616-2.1464-2.3717-9.8668-2.4852-17.438-0.25633-6.3704 1.8754-36.922 14.41-45.053 18.483-16.38 8.2067-42.709 34.032-57.009 55.918-11.556 17.686-21.184 36.967-26.281 52.63-1.529 4.6983-2.0653 5.2783-6.379 6.8982-14.132 5.3072-32.255 15.94-41.177 24.158l-5.4669 5.036 2.6936 10.889c5.8372 23.597 8.8827 45.659 8.8504 64.113l-0.0214 12.224 5.8049-6.7446c3.1927-3.7095 8.9713-8.9051 12.206-12.224 4.7843-4.9096 8.6572-7.9235 8.8405-8.336 1.1558-2.6004-0.1276 2.7075 0.46459 12.106 0.37252 5.9125 1.17 14.412 1.7722 18.887l1.0949 8.1373-4.0673 5.6799c-8.1849 11.43-7.5286 24.546 1.2283 24.546 1.7174 0 3.7604-1.3691 4.6986-2.5318 4.5838-5.6805-0.77967-21.814 0.82958-14.948 1.4642 6.2469 0.58389 7.7024 3.0418 16.986 1.0946 4.1345 2.2953 6.9144 2.2953 7.4002 0 2.0824 4.2941 14.626 9.2934 27.239 3.3671 8.495 5.4088 15.155 5.4088 17.643 0 3.9781-2.7801 15.452-9.4832 39.138-3.7555 13.27-4.4273 21.571-2.3981 29.63 0.97425 3.8691 1.4585 4.4368 3.75 4.396 1.4472-0.0257 4.6563-0.86538 7.1313-1.8659z" stroke="#000" stroke-width="3.5" fill="#f00"/>
   <path d="m353.5 432.73c1.9797-2.851 0.81797-4.7783 0-5.5963-0.97764-0.97764-3.7892 1.1962-3.7109 2.7982 0.10384 2.123 2.214 4.8488 3.7109 2.7982zm-23.79-23.66c0.90863-2.3678 0.0467-5.1416-1.5978-5.1416-0.97534 0-2.0344 1.1854-2.0344 3.0994 0 4.9878 2.6821 4.5178 3.6321 2.0422zm-1.659-20.051c1.4466-1.743 0.4652-5.8847-1.2599-5.3171-1.4848 0.48855-2.8593 4.6633-1.6382 5.8844 0.56939 0.56939 1.4969 1.6293 2.898-0.56735zm19.896-25.182c0.72241-1.8826 0.49972-4.4087-1.8219-4.4087-1.195 0-3.0438 4.1148-2.3227 5.25 2.0462 3.2215 3.5452 0.72063 4.1446-0.84134zm-26.509 1.0416c1.2736-1.2736 0.70061-6.2313-0.85035-6.8265-1.6987-0.65185-3.6572 1.5889-3.0275 4.2589 1.0059 4.265 2.7928 3.6526 3.8778 2.5676zm22.522-25.511c-0.18378-1.2557-0.93452-2.4809-1.6683-2.7228-0.9065-0.29877-2.0491 0.65746-1.8221 2.2087 0.18378 1.2557 0.38645 3.2117 2.125 3.6362 0.92722 0.22641 1.5924-1.5709 1.3654-3.1222zm-20.834-9.523c0-3.7316-1.6284-4.6992-3.5533-1.6477-0.71663 1.1361-0.71981 2.7099 0.20966 4.4693 1.5234 2.8837 3.3436 1.0448 3.3436-2.8216zm38.57-1.7391c0.35406-0.92265 0.62809-2.8892 0.27403-3.8118-0.60248-1.5701-2.2162-1.7404-3.3261 0.18269-0.74796 1.296-1.2047 2.2418-0.18269 4.4512 0.93216 2.0153 2.6322 0.74796 3.2347-0.8221zm-34.355-12.894c1.065-2.7754 0.13662-5.5727-1.4411-4.9673-0.825 0.31659-1.774 2.4746-1.774 3.7907 0 2.7051 2.2966 3.5704 3.2151 1.1766zm30.333-13.189c0-3.1327-2.8965-1.9677-3.3676 1.2338-0.21221 1.4422 0.20766 2.9024 1.25 2.9024 1.021 0 2.1176-2.4557 2.1176-4.1362zm-27.942-15.011c0.82768-2.1569-0.23259-5.7574-1.7656-5.2464-1.6241 0.54137-2.4462 6.2371-0.8221 6.7785 0.68721 0.22907 2.2536 0.25214 2.5878-1.532zm35.033-18.107c0-1.5969-1.1072-2.4875-1.8894-2.2271-1.8684 0.62209-2.6203 4.6003-0.84716 5.2807 1.1494 0.44106 2.7366-1.1602 2.7366-3.0536zm-23.889-8.1389c1.2083-0.48754 1.8161-5.1598 0.68426-5.3377-3.4866-0.54807-4.4343 2.3586-4.4343 4.0352 0 1.9124 1.203 2.3303 3.75 1.3025zm44.01-1.9049c0.83346-2.172-2.3786-4.2145-3.8931-2.7-1.28 1.28-2.8169 6.0776 0.34368 6.0776 0.58452 0 1.7901-0.7966 3.5494-3.3776zm-4.2074-25.788c0.83906-3.3431-0.24302-5.1472-2.142-3.5712-1.8138 1.5053-2.8962 3.8022-1.0527 5.3321 1.2008 0.99655 2.6717 0.32272 3.1947-1.7609zm-27.522-7.183c1.0731-1.293 1.2464-3.1537-0.0513-4.4513-1.677-1.677-3.9802 0.25585-3.9802 2.4258 0 0.7252 0.61529 1.8292 1.3673 2.4533 1.042 0.86474 1.6759 0.76296 2.6641-0.42775zm18.969-24.21c0-2.0125-1.1473-2.6198-2.8804-1.6922-2.5947 1.3886-2.8148 5.2412-0.22011 5.0457 1.3826-0.10415 3.1006-1.748 3.1006-3.3535z"/>
   <path d="m-416.38 151.78a8.3495 8.3114 0 0 1 -8.3238 8.3001 8.3495 8.3114 0 0 1 -8.3749 -8.2489 8.3495 8.3114 0 0 1 8.2495 -8.3732 8.3495 8.3114 0 0 1 8.4481 8.1747" transform="scale(-1,1)" stroke="#000" stroke-linecap="round" stroke-width="2.2" fill="#fb0401"/>
   <path d="m-421.68 151.75a3.0191 3.0608 0 0 1 -3.0098 3.0566 3.0191 3.0608 0 0 1 -3.0284 -3.0378 3.0191 3.0608 0 0 1 2.983 -3.0836 3.0191 3.0608 0 0 1 3.0548 3.0104" transform="scale(-1,1)" stroke="#000" stroke-linecap="round" stroke-width="2.2"/>
  </g>
  <path d="m344.75 474.95c-8.1323 24.106-5.5183 46.47-5.5183 46.47m11.618-47.342c-3.7757 13.941 2.3235 38.628 2.3235 38.628m3.1948-41.823c10.165 21.202 13.651 29.334 13.651 29.334m-7.5514-33.981c15.684 14.812 26.14 27.301 26.14 27.301m-21.638-31.367c30.206 16.555 39.79 27.882 39.79 27.882m-45.599-36.014c-10.165 9.294-18.007 8.4227-18.007 8.4227m-32.392-131.48c-14.287 10.981-20.928 18.167-20.928 18.167m21.975-27.246c-9.0492 4.2774-23.302 16.701-23.302 16.701m24.594-26.966c-19.454 10.702-24.28 15.653-24.28 15.653m25.188-25.989c-19.105 10.004-27.981 18.447-27.981 18.447m29.587-29.306c-19.105 10.004-27.981 18.447-27.981 18.447m30.565-30.039c-18.616 8.5372-32.59 20.053-32.59 20.053m34.616-31.148c-31.954 15.94-36.361 21.589-36.361 21.589m145.06-65.521c12.462 32.745 8.4267 41.878 8.4267 41.878m-12.6-37.9c5.724 26.899 2.2829 39.797 2.2829 39.797m-6.5833-33.952c3.3458 25.313-0.49177 31.473-0.49177 31.473m-33.291 28.593c26.027 36.977 30.723 38.609 30.723 38.609m-33.668-33.036c13.956 20.209 24.378 34.709 24.378 34.709m-26.785-28.678 16.337 24.649m-7.4522-45c-8.5986 16.337-13.185 33.821-13.185 33.821m-12.354 49.367c16.534 17.559 21.603 23.178 21.603 23.178m-23.118-15.409c15.79 18.985 20.549 25.038 20.549 25.038m-16.871-46.072c-4.8126 23.198-4.4341 26.605-4.7045 30.985 4.5963 7.3001 11.464 14.276 17.358 21.251m-56.37-153.99c-7.8914 39.851-10.938 57.584-13.142 94.908m69.43-145.94c-11.204 37.943-37.43 61.725-41.464 101.69-5.1822 51.348-14.555 72.316 12.789 148.09m101.37-294.34c-1.4483 18.104-4.3262 25.223-9.4987 24.706m33.706-31.533c-34.028 58.674-54.828 24.931-27.621-13.345 4.3448-6 8.6897-11.379 15.517-15.517m-29.793 71.069c-8.638 10.397-24.854 9.0408-32.198 3.0647-21.229-17.275 14.457-25.099 26.612-36.582m3.4138 50.897c-21.207 4.5-46.371-1.2414-47.987-32.082-0.30952-5.965 3.212-9.6226 9.8541-11.088 13.916-3.0701 16.073-7.106 17.65-8.9681" stroke="#000" stroke-linecap="round" stroke-width="2" fill="none"/>
 </g>
 <g transform="translate(-18.448 -22.242)" stroke="#000">
  <g>
   <path d="m235.63 161.75c-11.624-1.1104-28.103-4.5122-33.5-6.9156-7.0523-3.1403-10.118-4.5764-8.7548-12.697 0.59518-3.5463-1.1559-14.37-3.5379-18.356-1.1501-1.925-3.0646-7.0604-4.2543-11.412-2.7598-10.094-2.4354-26.628 0.65085-33.171 5.7326-12.153 13.936-18.49 26.785-20.691 11.977-2.0516 28.626 2.3655 38.554 10.229 3.4617 2.7417 4.0446 2.8873 7.6139 1.9018 2.1743-0.60035 6.3958-0.78094 9.6498-0.41279 5.5331 0.626 5.9867 0.50006 10.437-2.898 6.7674-5.1673 18.75-8.8014 29.356-8.903 10.801-0.10354 17.326 2.0467 23.758 7.8293 6.5988 5.9329 10.043 12.647 11.454 22.327 1.4774 10.136-0.67187 22.254-5.8662 33.074-3.1235 6.5065-5.2623 15.827-4.053 20.928 1.1585 4.8869-0.3996 5.4586-0.77613 6.3882-1.7396 4.2944-9.4411 7.022-29.228 10.351-16.786 2.8245-51.29 4.0508-68.289 2.427z" stroke-width="3.5" fill="#f00"/>
   <path d="m192.65 132.98c-0.29188 0.60804 1.0268 3.835 1.0969 8.0193s-1.9519 8.6934 4.5709 12.287c13.046 7.1882 45.087 9.0294 63.13 9.1018 18.042 0.0724 54.982-2.4676 68.755-9.7354 6.8866-3.6339 4.186-7.3954 3.5102-11.549-0.67577-4.1535 0.67337-8.699 0.47652-9.6835-1.5748-7.8756-40.111-13.439-59.559-14.292-4.2504-0.18335-3.9169-32.234 0.24137-46.758-0.27012 0.65874-12.559-1.5764-19.723 1.7309-4.4221 6.6814-2.5273 45-5.9419 45.332-51.713 5.0226-54.221 10.681-56.557 15.546z" fill-rule="evenodd" stroke-width="3.0664" fill="#ff0"/>
   <path stroke-linejoin="round" d="m256.52 93.403 5.6937-6.1154 6.1154 5.9046-5.6937 5.9045-6.1154-5.6937zm-0.48114 32.661 5.6937-6.1154 6.1154 5.9046-5.6937 5.9046-6.1154-5.6937zm43.078 4.2421 5.6937-6.1154 6.1154 5.9046-5.6937 5.9046-6.1154-5.6937zm-86.249 0.84349 5.6937-6.1154 6.1154 5.9046-5.6937 5.9046-6.1154-5.6937z" fill-rule="evenodd" stroke-linecap="round" stroke-width="2" fill="#f00"/>
  </g>
  <path d="m196.19 150.23c8.8966-19.552 133.89-16.337 136.89-0.50928" stroke-width="3" fill="none"/>
  <path d="m282.25 75.208c0.40534-2.4321 3.8508-6.4855 3.8508-6.4855m1.0134 5.4721c3.8508-4.4588 8.9176-8.5122 8.9176-8.5122m1.6214 5.8775c6.6882-7.0935 13.376-7.7015 13.376-7.7015m-6.8908 8.3095c11.35-6.6882 18.443-4.6614 18.443-4.6614m-13.579 7.9042c10.944-6.2828 19.659-3.0401 19.659-3.0401m1.5684 20.719c8.3096 8.9176 6.6882 14.795 6.6882 14.795m-13.58-22.086c14.39 2.0267 16.214 11.958 16.214 11.958m-23.915-20.673c13.782-3.8508 19.862 3.4454 19.862 3.4454m-14.187 1.4187c11.552-2.8374 18.646 7.2962 18.646 7.2962m-9.2699 11.856c6.2828 10.134-0.20267 16.011-0.20267 16.011m-84.45-41.976c-0.40534-2.4321-3.8508-6.4855-3.8508-6.4855m-1.0134 5.4721c-3.8508-4.4588-8.9176-8.5122-8.9176-8.5122m-1.6214 5.8775c-6.6882-7.0935-13.376-7.7015-13.376-7.7015m6.8908 8.3095c-11.34-6.689-18.44-4.662-18.44-4.662m13.579 7.9042c-10.944-6.2828-19.659-3.0401-19.659-3.0401m-1.5684 20.719c-8.3096 8.9176-6.6882 14.795-6.6882 14.795m13.579-22.091c-14.39 2.0267-16.214 11.958-16.214 11.958m23.915-20.673c-13.782-3.8508-19.862 3.4454-19.862 3.4454m14.187 1.4187c-11.552-2.8374-18.646 7.2962-18.646 7.2962m9.2699 11.856c-6.2828 10.134 0.20267 16.011 0.20267 16.011m39.293 26.652c25.609 5.3275 48.849-0.60107 48.849-0.60107m-61.829 3.2548c46.873 9.9201 75.868-1.5616 75.868-1.5616m-85.662 4.4626c56.956 12.103 97.975-1.4195 97.975-1.4195m-108.74 3.325c62.932 16.263 121.98-1.0606 121.98-1.0606" stroke-linecap="round" stroke-width="2" fill="none"/>
 </g>
 <g transform="matrix(-1 0 0 1 507.75 -21.641)">
  <g>
   <path d="m334.13 538.52c7.5903-3.0684 9.7983-4.5687 20.012-13.598 16.242-14.358 18.096-15.302 42.438-21.608 15.501-4.0153 29.807-10.121 30.334-12.947 0.41004-2.1986-4.8586-8.5169-10.511-12.605-6.8614-4.9624-18.3-11.174-29.44-15.986-12.057-5.2086-20.604-10.61-21.81-13.784-1.0678-2.8085-4.0226-32.372-4.0226-40.247 0-6.1076 1.3928-6.8579 4.5-2.4242 1.1 1.5696 5.5432 7.0153 9.8739 12.101l7.8739 9.2476 2.9702-6.7418c1.6336-3.708 4.5504-13.04 6.4816-20.737 2.9852-11.898 3.3244-14.345 2.2636-16.327-1.3628-2.5465-19.487-20.481-24.716-24.458l-3.2527-2.4736 1.3964-5.5c0.768-3.025 2.3872-9.775 3.5983-15s3.0898-11.525 4.175-14l1.973-4.5 2.6814 5.4618c3.3214 6.7657 12.012 15.633 17.853 18.217 5.7546 2.5455 16.348 3.2556 23.328 1.5637 5.2001-1.2604 5.483-1.4888 5.1886-4.188-0.90156-8.2658-14.514-29.042-27.356-41.753l-9.7984-9.6983 4.8912-10.802c9.1625-17.726 12.601-23.255 14.087-29.853 11.716-52.018 1.953 5.4892 2.2492 10.302 0.60733 9.865 2.1851 14.332 6.6733 18.892 4.7376 4.8142 9.5811 6.665 18.735 7.159l8.1695 0.44087 1.0749-3.8712c3.5552-12.804-0.53421-34.712-11.764-63.022l-2.0432-5.1511 3.8546-2.6712c4.6922-3.2517 32.696-34.088 41.227-45.396 4.7353-6.2771 11.525-20.469 12.377-25.869 1.7612-11.168-4.6048-13.819-9.3059-3.6783-4.1096 8.8648-10.911 17.883-19.665 24.167-8.1689 5.864-9.0854 6.8769-8.2291 0.5 0.90426-6.734 5.6539-15.819 11.908-22.778 6.5006-7.2331 7.3368-9.1395 5.0952-11.616-2.1464-2.3717-9.8668-2.4852-17.438-0.25633-6.3704 1.8754-36.922 14.41-45.053 18.483-16.38 8.2067-42.709 34.032-57.009 55.918-11.556 17.686-21.184 36.967-26.281 52.63-1.529 4.6983-2.0653 5.2783-6.379 6.8982-14.132 5.3072-32.255 15.94-41.177 24.158l-5.4669 5.036 2.6936 10.889c5.8372 23.597 8.8827 45.659 8.8504 64.113l-0.0214 12.224 5.8049-6.7446c3.1927-3.7095 8.9713-8.9051 12.206-12.224 4.7843-4.9096 8.6572-7.9235 8.8405-8.336 1.1558-2.6004-0.1276 2.7075 0.46459 12.106 0.37252 5.9125 1.17 14.412 1.7722 18.887l1.0949 8.1373-4.0673 5.6799c-8.1849 11.43-7.5286 24.546 1.2283 24.546 1.7174 0 3.7604-1.3691 4.6986-2.5318 4.5838-5.6805-0.77967-21.814 0.82958-14.948 1.4642 6.2469 0.58389 7.7024 3.0418 16.986 1.0946 4.1345 2.2953 6.9144 2.2953 7.4002 0 2.0824 4.2941 14.626 9.2934 27.239 3.3671 8.495 5.4088 15.155 5.4088 17.643 0 3.9781-2.7801 15.452-9.4832 39.138-3.7555 13.27-4.4273 21.571-2.3981 29.63 0.97425 3.8691 1.4585 4.4368 3.75 4.396 1.4472-0.0257 4.6563-0.86538 7.1313-1.8659z" stroke="#000" stroke-width="3.5" fill="#f00"/>
   <path d="m353.5 432.73c1.9797-2.851 0.81797-4.7783 0-5.5963-0.97764-0.97764-3.7892 1.1962-3.7109 2.7982 0.10384 2.123 2.214 4.8488 3.7109 2.7982zm-23.79-23.66c0.90863-2.3678 0.0467-5.1416-1.5978-5.1416-0.97534 0-2.0344 1.1854-2.0344 3.0994 0 4.9878 2.6821 4.5178 3.6321 2.0422zm-1.659-20.051c1.4466-1.743 0.4652-5.8847-1.2599-5.3171-1.4848 0.48855-2.8593 4.6633-1.6382 5.8844 0.56939 0.56939 1.4969 1.6293 2.898-0.56735zm19.896-25.182c0.72241-1.8826 0.49972-4.4087-1.8219-4.4087-1.195 0-3.0438 4.1148-2.3227 5.25 2.0462 3.2215 3.5452 0.72063 4.1446-0.84134zm-26.509 1.0416c1.2736-1.2736 0.70061-6.2313-0.85035-6.8265-1.6987-0.65185-3.6572 1.5889-3.0275 4.2589 1.0059 4.265 2.7928 3.6526 3.8778 2.5676zm22.522-25.511c-0.18378-1.2557-0.93452-2.4809-1.6683-2.7228-0.9065-0.29877-2.0491 0.65746-1.8221 2.2087 0.18378 1.2557 0.38645 3.2117 2.125 3.6362 0.92722 0.22641 1.5924-1.5709 1.3654-3.1222zm-20.834-9.523c0-3.7316-1.6284-4.6992-3.5533-1.6477-0.71663 1.1361-0.71981 2.7099 0.20966 4.4693 1.5234 2.8837 3.3436 1.0448 3.3436-2.8216zm38.57-1.7391c0.35406-0.92265 0.62809-2.8892 0.27403-3.8118-0.60248-1.5701-2.2162-1.7404-3.3261 0.18269-0.74796 1.296-1.2047 2.2418-0.18269 4.4512 0.93216 2.0153 2.6322 0.74796 3.2347-0.8221zm-34.355-12.894c1.065-2.7754 0.13662-5.5727-1.4411-4.9673-0.825 0.31659-1.774 2.4746-1.774 3.7907 0 2.7051 2.2966 3.5704 3.2151 1.1766zm30.333-13.189c0-3.1327-2.8965-1.9677-3.3676 1.2338-0.21221 1.4422 0.20766 2.9024 1.25 2.9024 1.021 0 2.1176-2.4557 2.1176-4.1362zm-27.942-15.011c0.82768-2.1569-0.23259-5.7574-1.7656-5.2464-1.6241 0.54137-2.4462 6.2371-0.8221 6.7785 0.68721 0.22907 2.2536 0.25214 2.5878-1.532zm35.033-18.107c0-1.5969-1.1072-2.4875-1.8894-2.2271-1.8684 0.62209-2.6203 4.6003-0.84716 5.2807 1.1494 0.44106 2.7366-1.1602 2.7366-3.0536zm-23.889-8.1389c1.2083-0.48754 1.8161-5.1598 0.68426-5.3377-3.4866-0.54807-4.4343 2.3586-4.4343 4.0352 0 1.9124 1.203 2.3303 3.75 1.3025zm44.01-1.9049c0.83346-2.172-2.3786-4.2145-3.8931-2.7-1.28 1.28-2.8169 6.0776 0.34368 6.0776 0.58452 0 1.7901-0.7966 3.5494-3.3776zm-4.2074-25.788c0.83906-3.3431-0.24302-5.1472-2.142-3.5712-1.8138 1.5053-2.8962 3.8022-1.0527 5.3321 1.2008 0.99655 2.6717 0.32272 3.1947-1.7609zm-27.522-7.183c1.0731-1.293 1.2464-3.1537-0.0513-4.4513-1.677-1.677-3.9802 0.25585-3.9802 2.4258 0 0.7252 0.61529 1.8292 1.3673 2.4533 1.042 0.86474 1.6759 0.76296 2.6641-0.42775zm18.969-24.21c0-2.0125-1.1473-2.6198-2.8804-1.6922-2.5947 1.3886-2.8148 5.2412-0.22011 5.0457 1.3826-0.10415 3.1006-1.748 3.1006-3.3535z"/>
   <path d="m-416.38 151.78a8.3495 8.3114 0 0 1 -8.3238 8.3001 8.3495 8.3114 0 0 1 -8.3749 -8.2489 8.3495 8.3114 0 0 1 8.2495 -8.3732 8.3495 8.3114 0 0 1 8.4481 8.1747" transform="scale(-1,1)" stroke="#000" stroke-linecap="round" stroke-width="2.2" fill="#fb0401"/>
   <path d="m-421.68 151.75a3.0191 3.0608 0 0 1 -3.0098 3.0566 3.0191 3.0608 0 0 1 -3.0284 -3.0378 3.0191 3.0608 0 0 1 2.983 -3.0836 3.0191 3.0608 0 0 1 3.0548 3.0104" transform="scale(-1,1)" stroke="#000" stroke-linecap="round" stroke-width="2.2"/>
  </g>
  <path d="m344.75 474.95c-8.1323 24.106-5.5183 46.47-5.5183 46.47m11.618-47.342c-3.7757 13.941 2.3235 38.628 2.3235 38.628m3.1948-41.823c10.165 21.202 13.651 29.334 13.651 29.334m-7.5514-33.981c15.684 14.812 26.14 27.301 26.14 27.301m-21.638-31.367c30.206 16.555 39.79 27.882 39.79 27.882m-45.599-36.014c-10.165 9.294-18.007 8.4227-18.007 8.4227m-32.392-131.48c-14.287 10.981-20.928 18.167-20.928 18.167m21.975-27.246c-9.0492 4.2774-23.302 16.701-23.302 16.701m24.594-26.966c-19.454 10.702-24.28 15.653-24.28 15.653m25.188-25.989c-19.105 10.004-27.981 18.447-27.981 18.447m29.587-29.306c-19.105 10.004-27.981 18.447-27.981 18.447m30.565-30.039c-18.616 8.5372-32.59 20.053-32.59 20.053m34.616-31.148c-31.954 15.94-36.361 21.589-36.361 21.589m145.06-65.521c12.462 32.745 8.4267 41.878 8.4267 41.878m-12.6-37.9c5.724 26.899 2.2829 39.797 2.2829 39.797m-6.5833-33.952c3.3458 25.313-0.49177 31.473-0.49177 31.473m-33.291 28.593c26.027 36.977 30.723 38.609 30.723 38.609m-33.668-33.036c13.956 20.209 24.378 34.709 24.378 34.709m-26.785-28.678 16.337 24.649m-7.4522-45c-8.5986 16.337-13.185 33.821-13.185 33.821m-12.354 49.367c16.534 17.559 21.603 23.178 21.603 23.178m-23.118-15.409c15.79 18.985 20.549 25.038 20.549 25.038m-16.871-46.072c-4.8126 23.198-4.4341 26.605-4.7045 30.985 4.5963 7.3001 11.464 14.276 17.358 21.251m-56.37-153.99c-7.8914 39.851-10.938 57.584-13.142 94.908m69.43-145.94c-11.204 37.943-37.43 61.725-41.464 101.69-5.1822 51.348-14.555 72.316 12.789 148.09m101.37-294.34c-1.4483 18.104-4.3262 25.223-9.4987 24.706m33.706-31.533c-34.028 58.674-54.828 24.931-27.621-13.345 4.3448-6 8.6897-11.379 15.517-15.517m-29.793 71.069c-8.638 10.397-24.854 9.0408-32.198 3.0647-21.229-17.275 14.457-25.099 26.612-36.582m3.4138 50.897c-21.207 4.5-46.371-1.2414-47.987-32.082-0.30952-5.965 3.212-9.6226 9.8541-11.088 13.916-3.0701 16.073-7.106 17.65-8.9681" stroke="#000" stroke-linecap="round" stroke-width="2" fill="none"/>
 </g>
</svg>
