<?xml version="1.0" encoding="UTF-8" standalone="no"?>
<!-- Created with Inkscape (http://www.inkscape.org/) -->
<svg
   xmlns:dc="http://purl.org/dc/elements/1.1/"
   xmlns:cc="http://web.resource.org/cc/"
   xmlns:rdf="http://www.w3.org/1999/02/22-rdf-syntax-ns#"
   xmlns:svg="http://www.w3.org/2000/svg"
   xmlns="http://www.w3.org/2000/svg"
   xmlns:sodipodi="http://inkscape.sourceforge.net/DTD/sodipodi-0.dtd"
   xmlns:inkscape="http://www.inkscape.org/namespaces/inkscape"
   width="200pt"
   height="250pt"
   id="svg2"
   sodipodi:version="0.32"
   inkscape:version="0.43"
   version="1.0"
   sodipodi:docbase="D:\Is seno\My Documents\wiki"
   sodipodi:docname="balbieriskis.svg">
  <defs
     id="defs4" />
  <sodipodi:namedview
     id="base"
     pagecolor="#ffffff"
     bordercolor="#666666"
     borderopacity="1.0"
     inkscape:pageopacity="0.0"
     inkscape:pageshadow="2"
     inkscape:zoom="5.4203859"
     inkscape:cx="151.17143"
     inkscape:cy="263.0832"
     inkscape:document-units="px"
     inkscape:current-layer="layer1"
     showguides="true"
     inkscape:guide-bbox="true"
     inkscape:window-width="1055"
     inkscape:window-height="941"
     inkscape:window-x="213"
     inkscape:window-y="93">
    <sodipodi:guide
       orientation="vertical"
       position="241.8441"
       id="guide2226" />
    <sodipodi:guide
       orientation="vertical"
       position="7.7656363"
       id="guide2228" />
    <sodipodi:guide
       orientation="horizontal"
       position="293.24522"
       id="guide3105" />
    <sodipodi:guide
       orientation="horizontal"
       position="9.6145974"
       id="guide3980" />
    <sodipodi:guide
       orientation="horizontal"
       position="138.67208"
       id="guide3982" />
  </sodipodi:namedview>
  <metadata
     id="metadata7">
    <rdf:RDF>
      <cc:Work
         rdf:about="">
        <dc:format>image/svg+xml</dc:format>
        <dc:type
           rdf:resource="http://purl.org/dc/dcmitype/StillImage" />
      </cc:Work>
    </rdf:RDF>
  </metadata>
  <g
     inkscape:label="Layer 1"
     inkscape:groupmode="layer"
     id="layer1">
    <path
       style="fill:#efeeee;fill-opacity:1;fill-rule:evenodd;stroke:#000000;stroke-width:2;stroke-linecap:butt;stroke-linejoin:miter;stroke-opacity:1;stroke-miterlimit:4;stroke-dasharray:none"
       d="M 7.6766943,19.250277 C 136.0553,19.194107 241.81587,19.194107 241.81587,19.194107 C 241.81587,19.194107 243.33123,81.703045 242.55545,173.82331 C 241.67066,278.51919 166.00932,303.25807 119.75643,303.28797 C 73.873331,303.31787 8.1026566,264.61427 7.7328644,174.08076 C 7.4112126,95.011461 8.0184015,225.62241 7.6766943,19.250277 z "
       id="path1351"
       sodipodi:nodetypes="ccszsc" />
    <path
       style="fill:none;fill-opacity:0.75;fill-rule:evenodd;stroke:#1f1a17;stroke-width:4;stroke-linecap:butt;stroke-linejoin:miter;stroke-opacity:1;stroke-miterlimit:4;stroke-dasharray:none"
       d="M 32.019684,149.42301 L 66.769727,131.55156"
       id="path4918"
       sodipodi:nodetypes="cc" />
    <path
       style="fill:#000000;fill-opacity:1;fill-rule:evenodd;stroke:#1f1a17;stroke-width:1px;stroke-linecap:butt;stroke-linejoin:miter;stroke-opacity:1"
       d="M 54.359454,271.82286 C 79.135532,289.57288 102.61544,298.02716 122.77101,297.33852 C 142.92658,296.64988 166.03671,292.90102 193.40133,273.30202 C 186.00548,250.7447 177.87005,227.078 177.87005,227.078 L 151.9846,271.08327 L 125.72935,243.34886 L 97.994935,272.19265 L 86.901168,226.70821 L 54.359454,271.82286 z "
       id="path4859"
       sodipodi:nodetypes="czccccccc" />
    <path
       style="fill:#da251d;fill-opacity:1;fill-rule:evenodd;stroke:#000000;stroke-width:1px;stroke-linecap:butt;stroke-linejoin:miter;stroke-opacity:1"
       d="M 28.474,146.83309 C 28.474,158.66644 39.567766,191.57795 57.687584,211.91652 C 65.45322,212.65611 57.872481,212.19387 72.849065,213.39569 C 53.434974,192.77977 41.786519,173.45813 37.718805,147.20288 C 29.105325,146.96243 28.474,146.83309 28.474,146.83309 z "
       id="path4861"
       sodipodi:nodetypes="ccccc" />
    <path
       style="fill:#da251d;fill-opacity:1;fill-rule:evenodd;stroke:#000000;stroke-width:1px;stroke-linecap:butt;stroke-linejoin:miter;stroke-opacity:1"
       d="M 191.37346,214.45523 C 191.37346,214.45523 191.43071,219.15705 194.35203,222.3981 C 197.07765,225.42203 203.54026,226.22378 207.50741,226.12132 C 211.73294,226.01219 218.18063,224.63203 221.40742,220.16417 C 223.0644,217.86988 222.89671,193.85342 221.90385,191.8677 C 220.91099,189.88199 218.92528,186.6552 215.69849,184.66948 C 212.4717,182.68376 208.17276,180.00935 206.26634,177.22304 C 203.03954,172.50697 205.97186,169.95544 203.53597,166.3016 C 199.56454,160.34445 195.5931,161.83374 192.61453,159.59981 C 189.63595,157.36588 187.89845,155.87658 187.89845,153.89087 C 187.89845,151.90515 186.40916,149.42301 183.6788,150.16765 C 180.94844,150.9123 179.70737,157.8623 179.70737,160.34445 C 179.70737,162.8266 182.18952,164.5641 184.17523,165.30874 C 186.16095,166.05339 190.62881,166.3016 191.62167,168.53553 C 192.61453,170.76947 191.13792,174.93538 191.13792,174.93538 L 183.18237,176.23018 L 184.91988,209.98737 L 191.37346,214.45523 z "
       id="path4932"
       sodipodi:nodetypes="cssssssssssssscccc" />
    <path
       style="fill:#da251d;fill-opacity:1;fill-rule:evenodd;stroke:#000000;stroke-width:1px;stroke-linecap:butt;stroke-linejoin:miter;stroke-opacity:1"
       d="M 60.03125,198.40625 C 63.846671,203.40259 68.106111,208.37533 72.84375,213.40625 C 62.155225,212.54853 114.46082,217.46354 191.5625,214.875 C 191.37761,208.21874 191.3776,211.91147 191.5625,203.40625 C 153.63425,207.25151 90.166957,202.77459 60.03125,198.40625 z "
       id="path4863"
       sodipodi:nodetypes="ccccc" />
    <path
       style="fill:#da251d;fill-opacity:1;fill-rule:evenodd;stroke:#000000;stroke-width:1px;stroke-linecap:butt;stroke-linejoin:miter;stroke-opacity:1"
       d="M 51.34375,185.625 C 53.908672,189.96984 56.814219,194.19351 60.03125,198.40625 C 90.166957,202.77459 153.63425,207.25151 191.5625,203.40625 C 191.39339,211.1852 191.74741,204.78256 191.5625,193.78125 C 150.48379,196.25279 77.147171,191.25334 51.34375,185.625 z "
       id="path4887"
       sodipodi:nodetypes="ccccc" />
    <path
       style="fill:#da251d;fill-opacity:1;fill-rule:evenodd;stroke:#000000;stroke-width:1px;stroke-linecap:butt;stroke-linejoin:miter;stroke-opacity:1"
       d="M 42.875,167.65625 C 45.132414,173.93416 47.950093,179.87633 51.34375,185.625 C 77.147171,191.25334 150.48379,196.25279 191.5625,193.78125 C 191.56966,194.20741 191.83031,186.63329 191.90625,183.65625 C 164.03407,185.74844 61.070989,182.52923 42.875,167.65625 z "
       id="path4900"
       sodipodi:nodetypes="ccccc" />
    <path
       style="fill:none;fill-opacity:0.75;fill-rule:evenodd;stroke:#1f1a17;stroke-width:4;stroke-linecap:butt;stroke-linejoin:miter;stroke-miterlimit:4;stroke-dasharray:none;stroke-opacity:1"
       d="M 191.62168,105.2408 L 152.65198,67.015764"
       id="path4922"
       sodipodi:nodetypes="cc" />
    <path
       sodipodi:nodetypes="cc"
       id="path4924"
       d="M 151.1627,67.263965 L 85.385824,68.753266"
       style="fill:none;fill-opacity:0.75;fill-rule:evenodd;stroke:#1f1a17;stroke-width:4;stroke-linecap:butt;stroke-linejoin:miter;stroke-miterlimit:4;stroke-dasharray:none;stroke-opacity:1" />
    <path
       style="fill:#da251d;fill-opacity:1;fill-rule:evenodd;stroke:#000000;stroke-width:1px;stroke-linecap:butt;stroke-linejoin:miter;stroke-opacity:1"
       d="M 93.825119,41.201443 L 149.17698,62.051469 L 150.66627,38.967511 L 93.825119,41.201443 z "
       id="path4928"
       sodipodi:nodetypes="cccc" />
    <path
       style="fill:#da251d;fill-opacity:1;fill-rule:evenodd;stroke:#000000;stroke-width:1px;stroke-linecap:butt;stroke-linejoin:miter;stroke-opacity:1"
       d="M 145.70197,175.73376 C 145.70197,175.73376 147.13571,46.43711 147.9359,38.967511 C 148.40939,34.54755 149.80754,34.31516 152.04148,34.31516 C 153.30713,34.315161 156.68714,33.768382 156.62341,38.336941 C 156.5955,40.337916 156.12698,176.4784 156.12698,176.4784 L 145.70197,175.73376 z "
       id="path4926"
       sodipodi:nodetypes="cssscc" />
    <path
       style="fill:#da251d;fill-opacity:1;fill-rule:evenodd;stroke:#000000;stroke-width:1px;stroke-linecap:butt;stroke-linejoin:miter;stroke-opacity:1"
       d="M 86.626895,82.405066 L 75.06849,71.268261 C 75.06849,71.268261 69.996517,69.788099 69.748303,68.050597 C 69.500088,66.313095 69.888835,64.898638 70.633479,63.905779 C 71.378123,62.912921 72.478663,61.306825 74.216165,61.55504 C 75.953667,61.803255 199.49401,102.20691 201.30204,102.75866 C 203.74221,103.50331 204.52883,107.22653 204.0324,109.21224 C 203.53597,111.19796 202.09172,113.22968 200.16865,112.62155 C 190.70471,109.62879 190.62882,109.46046 190.62882,109.46046 L 181.32076,109.08814 L 86.626895,82.405066 z "
       id="path4930"
       sodipodi:nodetypes="ccssssssccc" />
    <path
       sodipodi:nodetypes="cc"
       id="path4920"
       d="M 177.96987,176.72661 L 153.89305,112.68725"
       style="fill:none;fill-opacity:0.75;fill-rule:evenodd;stroke:#1f1a17;stroke-width:4;stroke-linecap:butt;stroke-linejoin:miter;stroke-miterlimit:4;stroke-dasharray:none;stroke-opacity:1" />
    <path
       style="fill:#da251d;fill-opacity:1;fill-rule:evenodd;stroke:#000000;stroke-width:1px;stroke-linecap:butt;stroke-linejoin:miter;stroke-opacity:1"
       d="M 93.080475,174.98911 C 93.080475,174.98911 63.791152,145.69979 60.564363,121.12654 C 57.18471,95.389181 73.471521,70.73898 73.471521,70.73898 L 190.13238,109.46046 C 190.13238,109.46046 167.29664,113.43189 154.14127,121.62297 C 141.02984,129.78669 130.31266,142.22478 139.99303,162.33017 C 145.29015,173.33189 149.42519,180.69805 149.42519,180.69805 C 149.42519,180.69805 139.00018,171.51411 128.32695,164.81231 C 117.65372,158.11052 100.03048,148.18193 94.817977,157.36588 C 90.378421,165.18796 93.080475,174.98911 93.080475,174.98911 z "
       id="path4916"
       sodipodi:nodetypes="csccsscssc" />
    <path
       style="fill:#da251d;fill-opacity:1;fill-rule:evenodd;stroke:#000000;stroke-width:1px;stroke-linecap:butt;stroke-linejoin:miter;stroke-opacity:1"
       d="M 39.0625,154.4375 C 40.073903,159.03724 41.351347,163.42461 42.875,167.65625 C 61.06458,182.52399 163.95978,185.74396 191.875,183.65625 L 191.875,173.25 C 164.60769,173.73261 81.74065,174.46663 39.0625,154.4375 z "
       id="path4908"
       sodipodi:nodetypes="ccccc" />
  </g>
</svg>
