<?xml version="1.0" encoding="UTF-8" standalone="no"?>
<!-- Created with Inkscape (http://www.inkscape.org/) -->

<svg
   xmlns:dc="http://purl.org/dc/elements/1.1/"
   xmlns:cc="http://creativecommons.org/ns#"
   xmlns:rdf="http://www.w3.org/1999/02/22-rdf-syntax-ns#"
   xmlns:svg="http://www.w3.org/2000/svg"
   xmlns="http://www.w3.org/2000/svg"
   xmlns:sodipodi="http://sodipodi.sourceforge.net/DTD/sodipodi-0.dtd"
   xmlns:inkscape="http://www.inkscape.org/namespaces/inkscape"
   id="svg2"
   version="1.1"
   inkscape:version="0.48.3.1 r9886"
   width="411"
   height="486"
   sodipodi:docname="LIT_Biała_Waka_COA3.svg">
  <metadata
     id="metadata8">
    <rdf:RDF>
      <cc:Work
         rdf:about="">
        <dc:format>image/svg+xml</dc:format>
        <dc:type
           rdf:resource="http://purl.org/dc/dcmitype/StillImage" />
        <dc:title></dc:title>
      </cc:Work>
    </rdf:RDF>
  </metadata>
  <defs
     id="defs6" />
  <sodipodi:namedview
     pagecolor="#ffffff"
     bordercolor="#666666"
     borderopacity="1"
     objecttolerance="10"
     gridtolerance="10"
     guidetolerance="10"
     inkscape:pageopacity="0"
     inkscape:pageshadow="2"
     inkscape:window-width="1280"
     inkscape:window-height="962"
     id="namedview4"
     showgrid="false"
     inkscape:zoom="0.78267201"
     inkscape:cx="235.30475"
     inkscape:cy="256.32676"
     inkscape:window-x="-8"
     inkscape:window-y="-8"
     inkscape:window-maximized="1"
     inkscape:current-layer="svg2"
     showguides="true"
     inkscape:guide-bbox="true">
    <inkscape:grid
       type="xygrid"
       id="grid3801" />
  </sodipodi:namedview>
  <path
     style="fill:#000000;fill-opacity:1;stroke:#000000;stroke-width:1.58154105999999990px;stroke-linecap:butt;stroke-linejoin:miter;stroke-opacity:1"
     d="m 2.4224153,1.2757203 0,298.6575797 C 11.919721,410.54721 106.89278,481.65616 205.88847,483.23636 c 98.86484,-1.5802 193.8379,-72.68915 201.75232,-183.30306 l 0,-298.6575797 z"
     id="path4444"
     inkscape:connector-curvature="0"
     sodipodi:nodetypes="cccccc" />
  <path
     style="fill:#008000;fill-opacity:1;stroke:#008000;stroke-width:1.58154105999999990px;stroke-linecap:butt;stroke-linejoin:miter;stroke-opacity:1"
     d="m 8.7539523,8.2545325 0,292.3367775 C 18.348114,403.55759 105.61203,474.21015 205.83198,477.57357 306.3362,472.83297 391.81195,403.30423 401.30925,300.59131 L 400.96862,8.367464 z"
     id="path4448"
     inkscape:connector-curvature="0"
     sodipodi:nodetypes="cccccc" />
  <path
     style="fill:#ffff00;fill-opacity:1;stroke:#000000;stroke-width:1px;stroke-linecap:butt;stroke-linejoin:miter;stroke-opacity:1"
     d="m 194.50214,159.96766 c 0.50575,19.97953 5.29224,50.06275 -0.22587,56.15438 l 13.23307,8.4135 25.73302,-70.53485 z"
     id="path3849"
     inkscape:connector-curvature="0"
     sodipodi:nodetypes="ccccc" />
  <path
     style="fill:#ffff00;fill-opacity:1;stroke:#ffff00;stroke-width:1px;stroke-linecap:butt;stroke-linejoin:miter;stroke-opacity:1"
     d="m 200.27546,189.02056 2.39564,12.69689 13.735,-14.85296 -2.23593,-4.87114 z"
     id="path3845"
     inkscape:connector-curvature="0" />
  <path
     style="fill:#ffff00;fill-opacity:1;stroke:#000000;stroke-width:1px;stroke-linecap:butt;stroke-linejoin:miter;stroke-opacity:1"
     d="m 195.37049,213.46739 c 1.50873,-2.44642 1.47593,-4.6752 1.39248,-8.07692 -0.88995,-5.72444 -4.17818,-11.82176 -4.48696,-17.13275 -1.0139,-7.03706 1.76325,-17.72498 0.0126,-18.26509 -3.98319,-3.46112 -4.86564,-5.07156 -7.02376,-8.53269 -2.87831,-4.98564 -3.47013,-12.00181 -3.50989,-17.77339 1.02964,-17.33741 7.06208,-34.44186 10.79367,-51.103773 1.20503,-8.07788 2.05713,-13.27419 2.72103,-22.48716 1.4006,-16.42197 3.9178,-2.44458 4.48134,-1.96701 l 4.16898,-22.97047 1.94257,-14.18725 c 1.66793,-14.75403 5.53554,-6.84468 9.42243,4.07781 0.78018,6.7226 1.32337,13.88588 1.16425,20.92158 l -14.1929,43.69797 13.04588,-40.65247 3.13717,-10.61807 c 1.31553,-4.2442 2.2316,-8.86575 3.54507,-13.72945 4.13336,-21.87748 7.53616,-7.92785 9.90965,-1.49506 1.82399,7.02798 0.58572,12.84771 -0.31175,19.26651 0.16891,8.34577 -2.38632,14.72297 -4.2625,21.31252 -6.97092,13.13945 -15.98021,26.278903 -17.24976,39.418343 1.29076,-12.21405 9.40262,-23.420393 15.3841,-35.983243 4.59645,-9.65389 7.46304,-18.98148 10.51704,-28.5985 0.72691,-2.41044 1.78922,-4.89347 2.5823,-8.06993 0.89589,-2.50381 1.41132,-6.33252 2.78638,-7.65673 1.55857,-1.50093 5.46017,2.47935 5.60815,20.21817 -0.0116,5.44771 -1.34344,10.01527 -2.23719,14.87489 -10.30953,18.63849 -21.88469,37.276993 -28.27378,55.915483 8.43066,-23.935053 22.9816,-43.568703 33.32496,-67.626613 5.24069,-9.55828 6.22324,1.34861 5.69032,7.96012 -1.35801,7.40033 -1.47986,15.65378 -4.10404,21.84793 -1.85542,2.75216 -3.14394,5.33527 -4.90933,8.02697 -10.27906,15.672553 -18.50218,30.368503 -24.8869,44.795603 6.96481,-15.66265 13.52513,-28.77489 24.73802,-44.778303 1.68997,-2.41198 3.63788,-5.65488 5.52501,-8.22313 2.35571,-3.64602 3.29224,-6.1963 5.2622,-9.50473 4.40733,-7.92749 3.80336,4.34495 3.27283,9.78245 -2.185,12.64619 -8.69684,24.361993 -16.6623,35.852773 l -12.27601,17.90251"
     id="path3787"
     inkscape:connector-curvature="0"
     sodipodi:nodetypes="cccccccccccccccccccccsccsccccccscsccccc" />
  <path
     style="fill:#ffff00;fill-opacity:1;stroke:#000000;stroke-width:1px;stroke-linecap:butt;stroke-linejoin:miter;stroke-opacity:1"
     d="m 167.17741,234.295 47.09245,-0.67759 -2.78454,-12.2467 -46.45361,0.95355 z"
     id="path3847"
     inkscape:connector-curvature="0"
     sodipodi:nodetypes="ccccc" />
  <path
     style="fill:#ffff00;fill-opacity:1;stroke:#000000;stroke-width:1px;stroke-linecap:butt;stroke-linejoin:miter;stroke-opacity:1"
     d="m 187.27724,240.06447 c 7.88209,-7.92706 13.67358,-8.05994 1.28298,-13.9848 -7.66326,-3.77627 -16.8162,-2.25765 -27.17611,-1.98895 -8.29318,1.02285 -17.87398,6.29982 -22.78765,5.24622 -5.45647,-0.18371 -10.54391,-0.52422 -13.10623,-5.32543 -0.62326,-1.16785 -2.29131,5.44546 -3.53496,7.82277 -1.8704,4.68484 -2.365,7.11391 -2.46106,10.82296 -0.72758,7.2089 -0.45572,12.34058 0.18763,17.81389 2.18895,11.15008 6.69767,20.49268 13.53397,26.73236 6.42687,6.32301 14.69822,11.80518 23.98144,15.24029 8.31594,3.57106 20.02816,4.95592 22.01642,6.18146 12.43625,6.37945 27.47118,12.87749 39.29786,18.91921 -2.30352,-4.03312 -3.53895,-7.9033 -8.29426,-11.62994 6.06961,4.72076 9.20129,13.9581 14.9943,22.64252 2.39921,5.26387 5.83371,0.55067 8.52174,0.0382 2.91499,0.48906 4.65163,3.94527 8.43933,0.36169 1.96886,-1.54733 0.70679,-1.15659 5.18416,-1.80844 3.04045,0.20209 6.14065,0.22492 8.55988,2.29068 4.83662,4.85346 8.29987,11.85561 16.31188,13.82234 9.45419,2.25557 22.31483,3.74715 22.52366,-2.07791 1.04017,-7.18986 -0.99532,-17.23389 -4.34897,-26.25795 -0.21774,-2.51277 -9.23935,-22.56081 -17.01639,-34.07056 -1.58959,-2.35253 -6.99044,-2.50484 -9.11255,-3.05168 -9.66799,-5.81776 -16.35848,-12.22851 -28.13478,-16.78128 10.02908,3.29161 18.92054,11.7725 28.11587,16.74106 1.13441,0.61296 2.71268,0.49093 4.02842,0.72349 0.97832,0.17292 1.91112,0.43031 2.62718,0.80227 1.40613,0.73042 4.12337,0.42351 5.74232,0.11708 4.00417,-0.3141 9.0715,-1.67638 3.33034,-4.65965 -8.17439,-4.75847 -18.56612,-13.00332 -30.56164,-18.08767 16.13325,6.5435 20.67537,12.88199 36.51455,14.79024 4.01595,0.0977 18.47076,-0.73288 3.80198,-7.6307 l -29.0251,-14.98143 c 4.38278,2.39641 9.18848,4.75547 13.70588,6.97972 5.04136,2.48223 11.5706,3.125 19.35376,4.2996 8.86922,1.63655 19.40946,-4.54111 13.30406,-6.2661 l -25.42918,-8.91357 -9.00245,-5.0066 c 9.08449,6.12764 16.60099,8.56526 28.36128,6.68335 8.95828,-0.81855 22.21875,-5.19836 14.22006,-8.19197 -16.20278,-3.47385 -31.82946,-6.34646 -45.79514,-11.41823 6.18655,2.28041 11.67064,4.21915 19.76002,3.93716 9.48365,-0.48017 24.13915,-2.15351 28.74971,-9.60357 0.52921,-1.45793 -0.007,-2.71557 -3.37294,-2.84893 -3.60528,-0.14284 -8.83917,-0.0161 -16.07755,-0.16692 -12.06457,-0.25136 -24.59305,-1.68636 -33.89382,-2.81249 12.80262,-0.36332 25.91851,3.93324 40.17999,-3.14084 10.27495,-5.0336 15.87212,-14.2235 6.15489,-12.12825 -20.32238,5.04401 -33.98254,3.35789 -50.8945,3.71584 13.30161,0.22384 28.72898,0.54093 40.96054,-5.29927 14.43196,-7.93869 19.05558,-16.17786 9.08379,-13.76395 -16.36128,3.54999 -36.24818,5.80821 -51.66158,6.83049 15.21648,-0.71461 31.6794,-3.19141 44.60637,-9.61409 8.78892,-3.98769 24.91436,-20.29181 8.62563,-15.02039 l -51.67179,12.90606 c -2.66665,0.72901 -3.67791,0.58382 -6.13299,0.6781 2.50556,0.0744 3.58967,-0.0231 6.20549,-0.56727 16.37831,-3.40721 36.78759,-8.16989 52.12069,-17.84872 12.73065,-6.94643 28.00087,-22.49808 8.82448,-15.02278 -9.49182,2.33355 -22.30091,7.2151 -34.40416,11.66575 -13.71942,5.04494 -26.76925,9.99976 -32.51419,12.10045 -2.09124,0.76469 -4.05023,0.70045 -4.66297,0.39925 -1.20261,-0.0125 -1.30548,-0.44787 -2.36144,-0.79965 4.38466,2.89594 10.71575,-1.12996 14.62919,-2.58356 20.68522,-7.68327 41.43156,-14.29209 60.05885,-25.08538 15.45924,-13.43362 21.53082,-21.34121 4.37518,-14.39052 -23.65603,8.40181 -45.92578,19.30229 -68.37281,28.92856 l 62.29679,-27.31466 c 13.97156,-5.58258 38.98728,-35.15763 21.7679,-28.65355 l -14.32263,8.45521 c -23.53244,11.69376 -41.40758,21.94598 -62.36711,32.49272 25.61084,-14.25827 51.95319,-24.85944 76.06594,-45.91338 9.25712,-7.536153 21.31938,-31.412603 7.25151,-21.717833 l -18.19438,12.01803 -19.30835,14.364193 -43.54473,27.29306 43.51493,-27.16526 19.37696,-15.060633 c 9.51967,-7.73358 17.63954,-16.77729 22.91887,-25.3886 2.036,-4.46986 5.83522,-18.28765 -5.59692,-8.05617 -4.28617,3.58385 -7.86564,6.89624 -12.11007,10.09213 -23.06592,17.3677 -45.74627,37.116283 -69.03901,55.180963 20.57588,-17.3609 48.87979,-37.370363 61.72765,-51.630983 5.50782,-6.01105 11.04641,-12.23055 14.62078,-20.22386 1.75953,-4.34547 6.92949,-20.54838 -5.35266,-8.75376 -15.03224,14.57399 -30.855,28.98822 -45.88723,42.99542 -1.91081,1.78051 -3.3699,3.76389 -4.94191,6.28424 0.55467,-1.88921 3.4827,-7.88231 2.25021,-7.65746 -1.1554,0.21079 -6.06521,6.06153 -12.53873,11.530503 l -28.20493,20.62926 c -9.62752,7.96673 -17.07126,17.99665 -21.4599,26.51448 -5.77506,9.68489 -1.18387,26.10858 -2.27776,27.21639 -7.1058,8.31591 -5.6389,16.07105 -8.97687,24.38696 -6.73172,21.38323 -13.46951,27.22039 -28.13691,40.67902 z"
     id="path2989"
     inkscape:connector-curvature="0"
     sodipodi:nodetypes="ccccsccccccccccccccccsccsssccccccscccccccccsscccccccccccsccssccsccccccccccccccccsccccscsccccccc" />
  <path
     style="fill:#ffffff;fill-opacity:0;stroke:#000000;stroke-width:1px;stroke-linecap:butt;stroke-linejoin:miter;stroke-opacity:1"
     d="m 230.21835,262.8369 c -4.02856,-10.61538 -7.33014,-21.84103 -8.184,-34.27053 -0.54896,-13.44804 2.45503,-25.56372 5.456,-37.68053 3.4396,-7.10126 4.7512,-14.78289 12.78751,-20.63051 3.89593,-1.86016 6.48691,-2.86915 11.76451,-6.64951 3.51767,-2.55216 7.01413,-8.14452 7.76801,-10.26437 0.37734,-1.06104 -2.08695,0.43454 -7.25651,2.25086 -9.10915,4.41723 13.69548,-14.39401 9.03651,-14.83352 -2.29322,1.18396 -4.34575,1.86523 -5.87083,2.58184 -8.87939,4.17224 -4.89854,1.58624 -0.23325,-3.87943 2.22967,-2.61217 7.66995,-9.75255 4.99583,-9.27342 l -9.46276,3.75101 c -18.09074,9.09883 27.91617,-20.33 35.97553,-37.851043"
     id="path3759"
     inkscape:connector-curvature="0"
     sodipodi:nodetypes="cccccsccssccc" />
  <path
     style="fill:#ffff00;fill-opacity:1;stroke:#000000;stroke-width:1px;stroke-linecap:butt;stroke-linejoin:miter;stroke-opacity:1"
     d="m 252.17927,163.53944 c 2.3683,3.3361 -0.80562,8.14232 -1.92899,11.45338 -3.84624,6.80964 -4.02344,7.97948 -11.33281,13.50292"
     id="path3761"
     inkscape:connector-curvature="0"
     sodipodi:nodetypes="ccc" />
  <path
     style="fill:#ffff00;fill-opacity:1;stroke:#000000;stroke-width:1px;stroke-linecap:butt;stroke-linejoin:miter;stroke-opacity:1"
     d="m 259.77466,181.14147 c -3.46942,6.53721 -8.72472,12.99354 -14.4553,17.26959"
     id="path3763"
     inkscape:connector-curvature="0"
     sodipodi:nodetypes="cc" />
  <path
     style="fill:#ffffff;fill-opacity:0;stroke:#000000;stroke-width:1px;stroke-linecap:butt;stroke-linejoin:miter;stroke-opacity:1"
     d="m 247.97172,206.09776 c 9.17047,-2.32309 15.94118,-7.72794 20.58933,-14.57335"
     id="path3765"
     inkscape:connector-curvature="0"
     sodipodi:nodetypes="cc" />
  <path
     style="fill:#ffffff;fill-opacity:0;stroke:#000000;stroke-width:1px;stroke-linecap:butt;stroke-linejoin:miter;stroke-opacity:1"
     d="m 273.94496,204.40133 c -5.89538,5.00972 -12.8418,10.15503 -21.3127,12.43249"
     id="path3767"
     inkscape:connector-curvature="0"
     sodipodi:nodetypes="cc" />
  <path
     style="fill:#ffffff;fill-opacity:0;stroke:#000000;stroke-width:1px;stroke-linecap:butt;stroke-linejoin:miter;stroke-opacity:1"
     d="m 279.85855,218.19531 c -7.07408,3.48893 -13.30293,7.80607 -22.0507,8.15683"
     id="path3769"
     inkscape:connector-curvature="0"
     sodipodi:nodetypes="cc" />
  <path
     style="fill:#ffffff;fill-opacity:0;stroke:#000000;stroke-width:1px;stroke-linecap:butt;stroke-linejoin:miter;stroke-opacity:1"
     d="m 285.93052,230.31606 c -8.21196,5.48375 -16.64548,6.97947 -25.07937,8.46858"
     id="path3771"
     inkscape:connector-curvature="0"
     sodipodi:nodetypes="cc" />
  <path
     style="fill:#ffffff;fill-opacity:0;stroke:#000000;stroke-width:1px;stroke-linecap:butt;stroke-linejoin:miter;stroke-opacity:1"
     d="m 264.61782,250.17344 c 6.3094,0.28023 13.3008,-0.75559 19.6102,-2.04955"
     id="path3773"
     inkscape:connector-curvature="0"
     sodipodi:nodetypes="cc" />
  <path
     style="fill:#ffffff;fill-opacity:0;stroke:#000000;stroke-width:1px;stroke-linecap:butt;stroke-linejoin:miter;stroke-opacity:1"
     d="m 252.7942,257.38396 c 6.12967,1.06093 12.28716,2.05233 19.30702,0.88781"
     id="path3775"
     inkscape:connector-curvature="0"
     sodipodi:nodetypes="cc" />
  <path
     style="fill:#ffffff;fill-opacity:0;stroke:#000000;stroke-width:1px;stroke-linecap:butt;stroke-linejoin:miter;stroke-opacity:1"
     d="m 240.46158,265.12311 c 6.10009,1.14226 12.21715,2.14784 17.74829,1.40286"
     id="path3777"
     inkscape:connector-curvature="0"
     sodipodi:nodetypes="cc" />
  <path
     style="fill:#ffffff;fill-opacity:0;stroke:#000000;stroke-width:1px;stroke-linecap:butt;stroke-linejoin:miter;stroke-opacity:1"
     d="m 253.0792,286.36267 c 13.75268,9.91241 26.66546,22.40084 33.31894,38.02335"
     id="path3779"
     inkscape:connector-curvature="0"
     sodipodi:nodetypes="cc" />
  <path
     style="fill:#ffffff;fill-opacity:0;stroke:#000000;stroke-width:1px;stroke-linecap:butt;stroke-linejoin:miter;stroke-opacity:1"
     d="m 269.77879,311.18127 c 6.94925,6.63215 14.34253,12.99104 18.45703,21.36764"
     id="path3781"
     inkscape:connector-curvature="0"
     sodipodi:nodetypes="cc" />
  <path
     style="fill:#ffffff;fill-opacity:0;stroke:#000000;stroke-width:1px;stroke-linecap:butt;stroke-linejoin:miter;stroke-opacity:1"
     d="m 235.42473,328.56535 c 3.55847,2.98118 5.72524,6.83218 10.89946,8.80352"
     id="path3783"
     inkscape:connector-curvature="0"
     sodipodi:nodetypes="cc" />
  <path
     style="fill:#ffffff;fill-opacity:0;stroke:#000000;stroke-width:1px;stroke-linecap:butt;stroke-linejoin:miter;stroke-opacity:1"
     d="m 229.76083,333.92001 c 3.10791,1.96607 5.44825,4.188 7.90359,6.3716"
     id="path3785"
     inkscape:connector-curvature="0"
     sodipodi:nodetypes="cc" />
  <path
     style="fill:#ffff00;fill-opacity:1;stroke:#000000;stroke-width:1px;stroke-linecap:butt;stroke-linejoin:miter;stroke-opacity:1"
     d="m 124.98656,223.94091 c -2.72735,-1.8337 -3.96234,-3.11859 -5.42528,-5.30472 -0.83619,-0.9273 -3.81312,-7.34781 -5.30471,-10.97113 l -6.02811,-9.64493 c -1.06558,-1.52712 -3.07476,-3.41593 -5.06359,-4.94305 -4.257055,-2.56361 -8.097495,-3.87738 -12.056165,-5.54584 l -15.19079,-5.78697 c -10.96873,-3.66183 -21.64385,-7.91088 -32.91338,-10.97112 -4.16946,-1.14957 -8.35685,-2.6056 -6.6309,-3.1346 3.07356,-0.83651 7.38684,-0.68125 12.05619,-0.24113 l 21.21887,3.73742 35.445165,8.31876 c 1.94167,-3.53265 4.39873,-6.3337 10.05202,-9.08128 3.3002,-1.80601 8.20403,-3.04977 13.42151,-3.89713 5.1343,-0.45427 10.01165,-0.70993 13.53895,-0.5214 6.63123,0.46127 13.20645,2.35162 19.16933,4.6988 4.61241,2.24505 9.18401,4.76829 14.10573,8.80101 4.1191,3.50975 7.45448,7.54198 10.60943,11.69449 2.78585,4.24861 3.25677,8.1114 4.21967,12.05619 0.64533,6.44394 1.2867,5.17256 2.01274,7.01596 1.28625,1.79655 15.41165,11.93659 16.48125,12.62795"
     id="path3791"
     inkscape:connector-curvature="0"
     sodipodi:nodetypes="ccccccccccccccccccccc" />
  <path
     style="fill:#000000;fill-opacity:1;stroke:#000000;stroke-width:1px;stroke-linecap:butt;stroke-linejoin:miter;stroke-opacity:1"
     d="m 104.9733,179.4536 c 0.12056,0.60281 3.4963,9.28326 3.4963,9.28326 l 22.60105,7.89251 c 5.16178,-2.00896 7.81849,-3.62234 12.21561,-7.78407 4.75941,-2.81229 12.92555,-1.27677 19.57134,-2.64024 5.29651,-1.34745 9.71001,-3.1809 1.36859,-2.41124 -4.034,0.37559 -7.27473,0.63753 -11.01354,0.50294 -4.31816,-0.48353 -7.99071,-1.28986 -11.40343,-2.22611 -3.24268,-1.33333 -6.77692,-2.85078 -9.29789,-2.98479 -6.06615,-0.48694 -12.90048,-0.45677 -16.80552,0.15585 -3.16791,0.40787 -7.36674,1.32314 -9.94708,2.50254 z"
     id="path3795"
     inkscape:connector-curvature="0"
     sodipodi:nodetypes="cccccccccccc" />
  <path
     style="fill:#ffffff;fill-opacity:1;stroke:#000000;stroke-width:1px;stroke-linecap:butt;stroke-linejoin:miter;stroke-opacity:1"
     d="m 113.29621,182.59876 c -1.66621,0.8773 -1.98557,1.29824 -2.85359,2.03389 -1.46122,1.14832 -1.89909,2.78934 -1.26377,3.86094 1.07796,0.91015 2.86667,1.16308 4.4478,-0.63066 1.43381,-1.22322 2.24197,-2.38904 2.83708,-3.91765 1.00409,-2.1744 -0.20759,-1.91081 -0.20759,-1.91081 -1.01178,-0.17373 -2.25008,0.14148 -2.95993,0.56429 z"
     id="path3799"
     inkscape:connector-curvature="0"
     sodipodi:nodetypes="ccccccc" />
  <path
     style="fill:#ffffff;fill-opacity:1;stroke:#000000;stroke-width:1px;stroke-linecap:butt;stroke-linejoin:miter;stroke-opacity:1"
     d="m 127.21744,192.74284 c -4.51527,0 -7.43003,-1.93776 -7.8989,-6.85251 -0.19464,-6.6212 7.41781,-6.94188 3.89174,-3.4655 -2.30255,3.1275 0.42913,7.74763 4.17764,7.23275"
     id="path3841-4"
     inkscape:connector-curvature="0"
     sodipodi:nodetypes="cccc" />
  <path
     style="fill:#ffffff;fill-opacity:1;stroke:#000000;stroke-width:1px;stroke-linecap:butt;stroke-linejoin:miter;stroke-opacity:1"
     d="m 127.24709,182.80115 c -1,0 -2,1 -2,2 0,1 1,2 2,2 1,0 2,-1 2,-2 0,-1 -1,-2 -2,-2 z"
     id="path3908-9"
     inkscape:connector-curvature="0"
     sodipodi:nodetypes="ccccc" />
  <path
     style="fill:#ffff00;fill-opacity:1;stroke:#000000;stroke-width:1px;stroke-linecap:butt;stroke-linejoin:miter;stroke-opacity:1"
     d="m 179.12441,309.20862 c 2.8348,2.22544 7.47116,5.78306 9.1518,8.61458 2.03583,4.55908 3.52554,9.52651 6.74282,13.79971 1.21011,1.85845 3.02771,2.91539 4.76505,3.33554 l 8.92629,0.0688 c 1.46617,-0.0554 2.7115,0.007 3.74494,-0.86713 2.40199,-1.75484 3.88885,-3.98515 5.40963,-6.5152"
     id="path4007"
     inkscape:connector-curvature="0"
     sodipodi:nodetypes="ccccccc" />
  <path
     style="fill:#ffff00;fill-opacity:1;stroke:#000000;stroke-width:1px;stroke-linecap:butt;stroke-linejoin:miter;stroke-opacity:1"
     d="m 203.38349,330.84576 c 1.13808,1.58017 2.06469,3.02493 3.91722,4.24788"
     id="path4009"
     inkscape:connector-curvature="0"
     sodipodi:nodetypes="cc" />
  <path
     style="fill:#ffff00;fill-opacity:1;stroke:#000000;stroke-width:1px;stroke-linecap:butt;stroke-linejoin:miter;stroke-opacity:1"
     d="m 208.70003,325.81601 c 1.36562,2.92164 3.23799,5.03247 5.40606,6.67019"
     id="path4011"
     inkscape:connector-curvature="0"
     sodipodi:nodetypes="cc" />
  <path
     style="fill:#ffff00;fill-opacity:1;stroke:#000000;stroke-width:1px;stroke-linecap:butt;stroke-linejoin:miter;stroke-opacity:1"
     d="m 279.66339,399.57801 c 1.40071,2.54651 1.63127,4.92585 1.44926,7.24625 1.50932,3.89291 -5.36556,8.19224 -3.71451,9.43508 2.59515,0.74453 6.9972,0.28697 9.59235,-0.64986 6.95847,-1.86539 10.03528,-9.70893 11.03376,-10.31746 4.98955,-0.62171 8.92507,-2.23057 12.32917,-5.11721 3.32475,-3.21109 5.4468,-11.27222 2.81325,-11.16776 -7.18942,0.89993 -12.92959,1e-4 -20.11901,-1.10825"
     id="path4045"
     inkscape:connector-curvature="0"
     sodipodi:nodetypes="cccccccc" />
  <path
     style="fill:#ffff00;fill-opacity:1;stroke:#000000;stroke-width:1px;stroke-linecap:butt;stroke-linejoin:miter;stroke-opacity:1"
     d="m 136.28737,401.87366 c 7.34276,2.6434 17.54151,9.76935 20.84399,11.19934 8.50543,-1.1364 14.45991,-10.13853 24.71783,-12.35976"
     id="path4031"
     inkscape:connector-curvature="0"
     sodipodi:nodetypes="ccc" />
  <path
     style="fill:#ffffff;fill-opacity:1;stroke:#000000;stroke-width:1px;stroke-linecap:butt;stroke-linejoin:miter;stroke-opacity:1"
     d="m 243.76015,362.16616 c 16.60648,7.4761 33.17211,18.90101 49.41014,25.61823 0.59632,0.59633 -0.57743,7.37965 -2.53181,8.07764 -4.13455,3.59379 -11.48686,3.93672 -11.45337,3.61686 -6.31467,-3.41275 -13.77981,-6.32813 -23.26842,-7.83652 -10.87632,-0.76861 -28.99073,-1.3833 -33.52475,1.08506 -14.44079,4.07018 -26.93682,7.18448 -41.70583,8.1982 -17.06087,1.14948 -33.61928,0.79156 -50.39483,1.08506 -8.32228,-0.55559 -18.0673,0.83085 -25.46448,-1.57494 -1.66351,-1.04608 -2.71704,-2.9402 -2.47076,-4.53194 0.088,-2.83076 5.52675,-0.32996 5.33524,-4.26144 -0.14325,-2.55209 -1.58234,-3.71147 -4.87893,-4.35548 -2.02649,-0.39959 -2.78714,-1.95146 -2.78056,-3.36048 0.28585,-2.80317 7.14558,-6.55468 10.12567,-8.44543 9.45462,-5.68734 21.90391,-10.86449 35.29105,-14.70854 9.78897,-3.95364 50.5848,-4.54341 59.29614,-4.74558"
     id="path4019"
     inkscape:connector-curvature="0"
     sodipodi:nodetypes="cccccccccccccccc" />
  <path
     style="fill:#ffff00;fill-opacity:1;stroke:#000000;stroke-width:1px;stroke-linecap:butt;stroke-linejoin:miter;stroke-opacity:1"
     d="m 228.54916,341.06669 c -0.88717,2.04912 -1.71942,3.70995 -3.67714,5.60613 -0.9768,0.3176 -2.90781,0.87119 -4.4005,2.04955 l -3.93628,3.01716 c -1.00834,0.61349 -1.92632,1.36252 -3.3397,1.36844 l -3.69515,0.85885 c -4.97265,2.45461 -4.93485,3.51551 -6.75146,5.18416 -3.03846,3.31906 -5.54278,5.84338 -6.08838,10.06691 -0.25741,2.75614 0.75872,5.41841 2.59208,7.95708 5.49734,7.09918 6.86959,8.81934 7.35428,7.41456 l -2.65236,-7.41456 c -0.19346,-1.5673 -0.32868,-3.13461 -0.36167,-4.70191 0.11564,-2.15507 1.12008,-5.77184 3.7977,-8.4996 1.40238,-1.80843 2.84015,-4.03882 4.88275,-5.84725 -2.81663,2.88934 -4.56665,5.51203 -6.81174,8.25848 -1.69271,3.06831 -2.54386,6.92376 -1.5673,10.79028 l 3.31545,8.68046 1.74814,4.88275 c 2.2436,4.46055 1.75682,0.0429 1.67557,-5.06151 -0.0258,-1.62362 0.40704,-3.45782 0.3284,-4.98759 -0.082,-1.59556 -0.0701,-2.9308 0.0456,-3.81551 0.4712,-3.70879 1.03306,-6.71936 3.43601,-10.60944 l 7.35426,-8.86129 -2.10983,2.65236 -5.84724,7.05287 c -1.20384,2.70495 -2.18813,5.45382 -2.59208,8.31875 -0.7619,2.58162 -0.44307,4.89306 0.72337,6.9926 l 2.8332,5.78696 c 3.41425,9.40801 1.29047,-9.98265 5.30472,-16.095 1.98498,-5.03146 7.85078,-9.21772 12.41786,-14.10573 l -1.92898,2.17011 9.76551,2.35096 c 4.75578,1.44445 4.58133,-3.36881 2.54981,-4.79978 -3.63253,-2.83059 -6.12768,-3.3346 -8.88244,-6.31148 -0.92859,-0.53462 -0.47713,-2.94283 0.0603,-4.22123 1.37835,-2.63501 2.93247,-4.49268 5.4284,-6.4892 -3.21351,-0.38002 -4.41025,-2.45953 -5.78847,-2.13731 -1.72376,0.403 -3.23037,2.2556 -5.18266,2.49899 z"
     id="path4017"
     inkscape:connector-curvature="0"
     sodipodi:nodetypes="ccccccccccccccccccssccccccccccccccccscc" />
  <path
     style="fill:#ffff00;fill-opacity:1;stroke:#000000;stroke-width:1px;stroke-linecap:butt;stroke-linejoin:miter;stroke-opacity:1"
     d="m 199.22826,335.31162 c -0.005,0.0137 0.008,0.17065 -0.003,0.19135 -0.3521,0.68148 -3.92112,5.05499 -5.78794,5.81135 -2.23039,0.6229 -3.41188,1.19971 -5.46143,2.84739 -2.14426,1.77089 -4.64843,2.54508 -7.22943,3.10963 -2.3841,0.54556 -4.00444,1.33578 -6.14866,2.03921 -2.05907,1.11917 -5.38178,2.62705 -7.35427,4.47541 -2.57869,2.73239 -2.76697,3.65418 -3.07432,5.00332 -0.41959,1.97982 -0.30703,4.04746 0.36168,6.75146 1.03187,5.07432 4.6389,10.76704 7.96137,13.02496 4.88535,4.19231 5.78584,3.64799 2.86271,-1.07675 l -2.68615,-5.679 c -1.17654,-2.62671 -2.68986,-5.08503 -2.65237,-8.31876 -0.13385,-1.78833 0.44044,-3.57667 1.26591,-5.365 l 3.61686,-3.07433 5.2018,-3.74473 1.73049,-1.1983 c 1.76121,-1.20549 -0.60629,0.78588 -1.74814,1.20562 -1.7959,1.4004 -3.60822,2.48189 -5.15537,3.80221 -1.37431,1.17282 -2.70752,1.66804 -3.64564,3.06981 -1.75365,3.14141 -1.41108,6.67777 -0.41768,9.86361 1.90563,5.41139 5.33928,11.9448 8.94456,16.96411 2.73801,5.82973 0.18038,-6.48948 -0.76348,-11.12137 -0.45807,-0.97268 -0.56842,-2.14236 -1.06792,-2.91646 -1.24506,-4.62787 -1.18571,-8.55856 1.14105,-11.76512 11.13694,-9.80428 7.5015,-6.78012 11.30482,-10.30375 l -3.0665,2.94948 -8.58788,7.62214 c -1.45596,2.39239 -2.28583,6.64713 -1.11306,9.93121 0.24587,4.18051 5.53075,13.51222 6.16453,12.11217 0.95948,-1.32075 -0.73188,-6.67176 -0.028,-9.44164 0.61984,-3.21452 1.48201,-6.02473 3.36841,-8.86307 0.55771,-1.07592 3.69388,-5.02915 7.12778,-6.46771 l 6.01951,-4.29635 c 3.01165,-1.81368 -7.37385,4.46852 -5.06861,4.07288 2.79291,0.27109 6.95523,0.16374 10.4051,-0.6601 l 2.71013,-1.3572 c 1.60163,-0.60489 2.25091,-1.17892 2.06506,-1.83007 -0.46263,-1.62087 -5.16039,-3.4064 -6.345,-5.04196 -0.74693,-0.78204 -2.37302,-1.79285 -0.90422,-3.49629 0.60071,-1.42194 1.67552,-3.15995 3.17963,-5.18416 1.09191,-1.35623 3.42157,-2.9379 3.27573,-3.51742"
     id="path4015"
     inkscape:connector-curvature="0"
     sodipodi:nodetypes="csccccccccccccccccsccccccccccccccccccscccc" />
  <path
     style="fill:#ffffff;fill-opacity:1;stroke:#000000;stroke-width:1px;stroke-linecap:butt;stroke-linejoin:miter;stroke-opacity:1"
     d="m 120.36116,375.68058 c -3,0 -5,2 -5,5 0,3 2,5 5,5 3,0 5,-2 5,-5 0,-3 -2,-5 -5,-5 z"
     id="path3908-9-82-5"
     inkscape:connector-curvature="0"
     sodipodi:nodetypes="ccccc" />
  <path
     style="fill:#ffffff;fill-opacity:0;stroke:#000000;stroke-width:1px;stroke-linecap:butt;stroke-linejoin:miter;stroke-opacity:1"
     d="m 108.83128,383.20304 c 2.93015,2.67684 6.27875,5.17433 6.14865,9.1627 -0.37635,4.47572 -4.48189,6.85799 -7.20475,8.68477"
     id="path4021"
     inkscape:connector-curvature="0"
     sodipodi:nodetypes="ccc" />
  <path
     style="fill:#ffffff;fill-opacity:0;stroke:#000000;stroke-width:1px;stroke-linecap:butt;stroke-linejoin:miter;stroke-opacity:1"
     d="m 133.0642,378.13945 c -0.90004,4.68625 -2.68728,7.00662 -4.21966,10.00663 -3.10127,4.67488 -7.65512,7.02563 -11.81506,10.00663"
     id="path4023"
     inkscape:connector-curvature="0"
     sodipodi:nodetypes="ccc" />
  <path
     style="fill:#ffffff;fill-opacity:1;stroke:#000000;stroke-width:1px;stroke-linecap:butt;stroke-linejoin:miter;stroke-opacity:1"
     d="m 120.40522,378.7918 c -1,0 -2,1 -2,2 0,1 1,2 2,2 1,0 2,-1 2,-2 0,-1 -1,-2 -2,-2 z"
     id="path3908-9-8"
     inkscape:connector-curvature="0"
     sodipodi:nodetypes="ccccc" />
  <path
     style="fill:#ffffff;fill-opacity:0;stroke:#000000;stroke-width:1px;stroke-linecap:butt;stroke-linejoin:miter;stroke-opacity:1"
     d="m 139.32736,381.60043 c 0,0 -9.26633,10.27661 -10.17107,11.60924 2.66416,2.43768 5.90468,4.68499 10.97969,5.80766 3.76221,-0.18842 7.84366,-1.38153 12.21811,-5.08429 1.61804,-1.47223 4.17686,-6.43462 -2.56606,-5.86364 l -16.99671,0.8853 z"
     id="path4025"
     inkscape:connector-curvature="0"
     sodipodi:nodetypes="ccccccc" />
  <path
     style="fill:#ffffff;fill-opacity:1;stroke:#000000;stroke-width:1px;stroke-linecap:butt;stroke-linejoin:miter;stroke-opacity:1"
     d="m 141.50959,391.40125 c 4.11988,0.40459 8.48005,1.54821 12.379,-0.16444"
     id="path4027"
     inkscape:connector-curvature="0"
     sodipodi:nodetypes="cc" />
  <path
     style="fill:#ffffff;fill-opacity:1;stroke:#000000;stroke-width:1px;stroke-linecap:butt;stroke-linejoin:miter;stroke-opacity:1"
     d="m 140.3746,394.2801 c 2.46245,1.07896 4.4352,2.84349 7.94141,2.46118"
     id="path4029"
     inkscape:connector-curvature="0"
     sodipodi:nodetypes="cc" />
  <path
     style="fill:#ffff00;fill-opacity:1;stroke:#000000;stroke-width:1px;stroke-linecap:butt;stroke-linejoin:miter;stroke-opacity:1"
     d="m 155.62454,405.03401 c 0.022,2.41889 4.96611,2.98941 6.56426,6.22326"
     id="path4033"
     inkscape:connector-curvature="0"
     sodipodi:nodetypes="cc" />
  <path
     style="fill:#ffff00;fill-opacity:1;stroke:#000000;stroke-width:1px;stroke-linecap:butt;stroke-linejoin:miter;stroke-opacity:1"
     d="m 161.3363,403.67001 c -0.002,1.78824 4.07913,1.57702 5.71175,4.34775"
     id="path4035"
     inkscape:connector-curvature="0"
     sodipodi:nodetypes="cc" />
  <path
     style="fill:#ffff00;fill-opacity:1;stroke:#000000;stroke-width:1px;stroke-linecap:butt;stroke-linejoin:miter;stroke-opacity:1"
     d="m 168.1563,402.98801 c -0.28417,0.99458 2.67117,1.05142 2.728,2.728"
     id="path4037"
     inkscape:connector-curvature="0"
     sodipodi:nodetypes="cc" />
  <path
     style="fill:#ffff00;fill-opacity:1;stroke:#000000;stroke-width:1px;stroke-linecap:butt;stroke-linejoin:miter;stroke-opacity:1"
     d="m 218.68369,394.20941 c 1.18094,2.84988 4.79397,5.57606 7.6056,8.89838 0.45633,1.21528 10.43623,0.0517 15.43782,-1.73953 4.07615,-1.46487 12.91152,-3.34032 10.40051,-5.02975 -2.23988,-1.46544 -7.38924,-3.70374 -7.03905,-4.79559"
     id="path4039"
     inkscape:connector-curvature="0"
     sodipodi:nodetypes="ccccc" />
  <path
     style="fill:#ffff00;fill-opacity:1;stroke:#000000;stroke-width:1px;stroke-linecap:butt;stroke-linejoin:miter;stroke-opacity:1"
     d="m 240.61886,394.6335 c 1.34948,1.90813 6.06703,4.51363 7.24626,4.77401"
     id="path4041"
     inkscape:connector-curvature="0"
     sodipodi:nodetypes="cc" />
  <path
     style="fill:#ffff00;fill-opacity:1;stroke:#000000;stroke-width:1px;stroke-linecap:butt;stroke-linejoin:miter;stroke-opacity:1"
     d="m 233.79886,395.23025 c 2.71374,2.4759 4.60941,5.08336 8.184,6.05276"
     id="path4043"
     inkscape:connector-curvature="0"
     sodipodi:nodetypes="cc" />
  <path
     style="fill:#ffff00;fill-opacity:1;stroke:#000000;stroke-width:1px;stroke-linecap:butt;stroke-linejoin:miter;stroke-opacity:1"
     d="m 225.95585,394.6335 c 2.78622,3.06762 5.37613,6.16105 9.12176,8.09876"
     id="path4047"
     inkscape:connector-curvature="0"
     sodipodi:nodetypes="cc" />
  <path
     style="fill:#ffffff;fill-opacity:1;stroke:#000000;stroke-width:1px;stroke-linecap:butt;stroke-linejoin:miter;stroke-opacity:1"
     d="m 104.3705,193.80046 c -1.48514,-1.65721 8.46674,2.11332 14.34685,4.94303 5.23069,2.73669 6.90655,4.68734 11.09169,7.35427 2.38319,1.85033 5.37271,3.95152 7.47483,6.14865 3.30466,2.52482 6.32452,5.26324 10.85056,6.87202 3.4508,1.29411 6.23689,2.18671 9.52438,2.77293 2.42733,0.63852 5.6043,1.02416 8.31877,1.92898 l -6.99259,0.48225 c -6.03006,1.57714 -12.35712,4.63933 -18.08427,4.70191 -3.60542,0.3942 -6.67455,-0.0467 -9.64494,-0.60281 -4.46131,-2.29067 -6.06814,-4.58135 -8.80102,-6.87202 -4.76831,-4.07245 -6.99258,-13.06086 -11.57393,-19.77213 -2.12846,-2.93587 -3.76898,-5.94055 -6.51033,-7.95708 z"
     id="path4049"
     inkscape:connector-curvature="0"
     sodipodi:nodetypes="ccccccccccccc" />
  <path
     style="fill:#ffffff;fill-opacity:1;stroke:#000000;stroke-width:1px;stroke-linecap:butt;stroke-linejoin:miter;stroke-opacity:1"
     d="m 148.25499,201.51641 c -0.17734,2.84656 0.7499,5.63586 5.90753,7.71596 3.29367,0.49643 6.14814,0.90241 8.80101,-0.84394 2.37105,-0.19308 5.34491,4.77905 7.47483,5.54585 1.23536,0.99487 2.86109,0.23645 5.54585,0.36168 1.3894,-0.13501 3.65398,4.7467 6.99258,4.21967 l 6.87203,-0.48225 c 7.88865,0.46688 -4.72291,-3.00939 -7.47484,-6.14865 -1.71362,-2.92509 -4.61353,-5.45475 -7.23371,-8.07765 -2.20341,-1.89546 -5.11124,-3.9318 -8.92157,-6.14865 -3.85947,-2.40648 -7.06696,-3.74377 -11.57393,-3.37573 -6.58582,0.20442 -5.71946,4.34478 -6.38978,7.23371 z"
     id="path3789"
     inkscape:connector-curvature="0"
     sodipodi:nodetypes="cccccccccccc" />
  <path
     style="fill:#ffffff;fill-opacity:1;stroke:#000000;stroke-width:1.00240779px;stroke-linecap:butt;stroke-linejoin:miter;stroke-opacity:1"
     d="m 127.20286,192.73215 c 4.53794,0 7.46733,-1.93737 7.93857,-6.85114 0.19561,-6.61989 -6.90094,-6.98313 -3.91129,-3.46482 2.42189,3.24608 0.0446,7.68325 -4.02811,7.27395"
     id="path3841-4-4"
     inkscape:connector-curvature="0"
     sodipodi:nodetypes="cccc" />
  <path
     style="fill:#f5f5f6;fill-opacity:1;stroke:#000000;stroke-width:1px;stroke-linecap:butt;stroke-linejoin:miter;stroke-opacity:1"
     d="m 135.99218,201.48592 -32.50056,-8.23306 C 99.050375,190.4115 92.925185,188.18825 87.041575,185.7796 l -23.13931,-8.30489 c -6.75972,-2.33933 -13.49496,-4.70926 -20.54603,-6.68439 -1.87713,-0.62597 -6.6258,-1.67813 -6.98728,-2.83768 0.5628,-1.01952 5.89956,-1.16885 12.2164,-0.41675 7.14869,0.85115 15.60865,2.73348 20.85913,3.54076 11.60508,2.55466 23.84972,5.71168 35.451445,8.4509 l 3.62654,9.17359 c 10.35387,4.2915 46.1707,16.92412 27.46971,12.78478 z"
     id="path3798"
     inkscape:connector-curvature="0"
     sodipodi:nodetypes="ccccccscccc" />
  <path
     style="fill:#f5f5f6;fill-opacity:1;stroke:#000000;stroke-width:1px;stroke-linecap:butt;stroke-linejoin:miter;stroke-opacity:1"
     d="m 36.337885,167.9817 c 9.47138,1.20468 48.69246,12.70985 71.945015,20.63959"
     id="path3800"
     inkscape:connector-curvature="0"
     sodipodi:nodetypes="cc" />
  <path
     style="fill:#ffff00;fill-opacity:1;stroke:#000000;stroke-width:1px;stroke-linecap:butt;stroke-linejoin:miter;stroke-opacity:1"
     d="m 199.58877,67.720977 c -0.0924,6.58196 0.33787,13.90282 -0.56466,20.21475 -0.20201,6.71695 -1.36374,18.056003 -2.44309,26.416753 -1.00812,7.80893 -4.03481,13.3297 -1.17073,10.96359 l 5.53365,-9.48625 c 3.09754,-5.30668 2.62533,6.21769 1.80691,11.97074 -0.76225,8.04151 3.31174,-1.44515 5.64657,-4.96898 2.33653,-3.59251 2.37479,4.54339 1.87118,10.96824 -0.38798,4.94963 -1.373,8.70015 -0.1772,6.4232 l 4.74312,-6.55002 c 2.63852,-2.51993 2.81936,12.40342 0.79052,15.3587 -3.75862,9.93099 -19.73492,26.59255 -14.00351,23.48976 4.20122,-4.88584 9.08734,-8.40188 14.79403,-10.27677"
     id="path3813"
     inkscape:connector-curvature="0"
     sodipodi:nodetypes="ccsccccsccccc" />
  <path
     style="fill:#ffff00;fill-opacity:1;stroke:#000000;stroke-width:1px;stroke-linecap:butt;stroke-linejoin:miter;stroke-opacity:1"
     d="m 214.83451,186.52497 c -4.70545,1.61871 -9.44088,10.97476 -11.74487,11.29315"
     id="path3817"
     inkscape:connector-curvature="0"
     sodipodi:nodetypes="cc" />
  <path
     style="fill:#000aff;fill-opacity:1;stroke:#000000;stroke-width:1px;stroke-linecap:butt;stroke-linejoin:miter;stroke-opacity:1"
     d="m 207.16201,218.50796 c -1.55926,2.6742 -3.56074,5.15551 -5.50173,7.56241"
     id="path3819"
     inkscape:connector-curvature="0"
     sodipodi:nodetypes="cc"
     inkscape:transform-center-x="-2.956255"
     inkscape:transform-center-y="2.4844937" />
  <path
     style="fill:#ffff00;fill-opacity:1;stroke:#ffff00;stroke-width:1px;stroke-linecap:butt;stroke-linejoin:miter;stroke-opacity:1"
     d="m 213.61119,169.9353 0.95825,7.50634 6.14881,-1.91651 -0.79854,-5.66968 z"
     id="path3843"
     inkscape:connector-curvature="0" />
  <path
     style="fill:#ffff00;fill-opacity:1;stroke:#000000;stroke-width:1px;stroke-linecap:butt;stroke-linejoin:miter;stroke-opacity:1"
     d="m 217.54487,173.31198 c -7.05521,2.3005 -10.71532,6.72295 -15.58455,10.3897"
     id="path3815"
     inkscape:connector-curvature="0"
     sodipodi:nodetypes="cc" />
  <path
     style="fill:#ffff00;fill-opacity:1;stroke:#ffff00;stroke-width:1px;stroke-linecap:butt;stroke-linejoin:miter;stroke-opacity:1"
     d="m 204.66525,225.53052 c -1.2801,-0.26228 4.0919,-7.84221 4.74312,-7.05822 l 5.36425,3.58558 -6.77589,5.16662 z"
     id="path3851"
     inkscape:connector-curvature="0"
     sodipodi:nodetypes="ccccc" />
  <path
     style="fill:#ffff00;fill-opacity:1;stroke:#000000;stroke-width:1px;stroke-linecap:butt;stroke-linejoin:miter;stroke-opacity:1"
     d="m 284.4568,401.37719 c 3.11941,4.94322 0.5492,10.76156 -0.62112,15.13282"
     id="path3853"
     inkscape:connector-curvature="0"
     sodipodi:nodetypes="cc" />
  <path
     style="fill:#ffff00;fill-opacity:1;stroke:#000000;stroke-width:1px;stroke-linecap:butt;stroke-linejoin:miter;stroke-opacity:1"
     d="m 288.29648,401.26426 c 3.29333,3.29211 3.30539,7.43872 3.78321,11.57548"
     id="path3855"
     inkscape:connector-curvature="0"
     sodipodi:nodetypes="cc" />
  <path
     style="fill:#ffff00;fill-opacity:1;stroke:#000000;stroke-width:1px;stroke-linecap:butt;stroke-linejoin:miter;stroke-opacity:1"
     d="m 292.30555,397.59399 c 0.77393,4.14763 3.73246,5.74655 6.21123,7.9052"
     id="path3857"
     inkscape:connector-curvature="0"
     sodipodi:nodetypes="cc" />
  <path
     style="fill:#ffff00;fill-opacity:1;stroke:#000000;stroke-width:1px;stroke-linecap:butt;stroke-linejoin:miter;stroke-opacity:1"
     d="m 295.12884,394.88363 c 2.7206,3.60107 6.53816,6.32298 12.5354,6.94529"
     id="path3859"
     inkscape:connector-curvature="0"
     sodipodi:nodetypes="cc" />
  <path
     style="fill:#ffff00;fill-opacity:1;stroke:#000000;stroke-width:1px;stroke-linecap:butt;stroke-linejoin:miter;stroke-opacity:1"
     d="m 297.61334,392.68147 c 1.19055,1.13805 4.67586,1.91061 8.1348,1.99819 3.63996,0.0922 7.25073,-0.54999 8.12733,-1.3206"
     id="path3861"
     inkscape:connector-curvature="0"
     sodipodi:nodetypes="csc" />
  <path
     style="fill:#ffff00;fill-opacity:1;stroke:#ffff00;stroke-width:1px;stroke-linecap:butt;stroke-linejoin:miter;stroke-opacity:1"
     d="m 219.83985,394.4666 c 0.19793,-0.0719 4.7208,-1.54701 6.3684,-1.79672 2.85597,-0.42673 6.38805,-0.6671 9.24318,-0.67877 3.03448,-0.0552 6.06896,-0.10532 9.10344,0.0998 z"
     id="path3867"
     inkscape:connector-curvature="0"
     sodipodi:nodetypes="ccccc" />
  <path
     style="fill:#ffff00;fill-opacity:1;stroke:#ffff00;stroke-width:1px;stroke-linecap:butt;stroke-linejoin:miter;stroke-opacity:1"
     d="m 219.74002,394.02741 c 0.0172,0.32883 1.10331,0.98622 0.37932,0.77858"
     id="path3869"
     inkscape:connector-curvature="0"
     sodipodi:nodetypes="cc" />
</svg>
