<?xml version="1.0" encoding="UTF-8" standalone="no"?>
<svg
   xmlns:dc="http://purl.org/dc/elements/1.1/"
   xmlns:cc="http://creativecommons.org/ns#"
   xmlns:rdf="http://www.w3.org/1999/02/22-rdf-syntax-ns#"
   xmlns:svg="http://www.w3.org/2000/svg"
   xmlns="http://www.w3.org/2000/svg"
   width="499.99997"
   height="604"
   viewBox="0 0 132.29166 159.80834"
   version="1.1"
   id="svg847">
  <defs
     id="defs841" />
  <metadata
     id="metadata844">
    <rdf:RDF>
      <cc:Work
         rdf:about="">
        <dc:format>image/svg+xml</dc:format>
        <dc:type
           rdf:resource="http://purl.org/dc/dcmitype/StillImage" />
        <dc:title></dc:title>
      </cc:Work>
    </rdf:RDF>
  </metadata>
  <g
     id="layer1"
     transform="translate(-267.81209,-20.867261)">
    <path
       id="path1095"
       style="font-variation-settings:'wdth' 100, 'wght' 700;opacity:1;fill:#d9dadc;fill-opacity:1;stroke:none;stroke-width:1.85208;stroke-linecap:butt;stroke-linejoin:miter;stroke-miterlimit:4;stroke-dasharray:none"
       d="m 268.73813,21.793301 v 92.706379 c 0,36.03644 29.20003,65.24987 65.21996,65.24987 36.01991,0 65.21962,-29.21343 65.21962,-65.24987 V 21.793301 Z" />
    <path
       id="path1101"
       style="font-variation-settings:normal;opacity:1;vector-effect:none;fill:none;fill-opacity:1;stroke:#000000;stroke-width:0.727604;stroke-linecap:butt;stroke-linejoin:miter;stroke-miterlimit:4;stroke-dasharray:none;stroke-dashoffset:0;stroke-opacity:1;stop-color:#000000;stop-opacity:1"
       d="m 337.21259,68.73347 c 0.71992,-0.433436 1.28256,-0.919295 1.80364,-1.419011 -0.0628,0.720313 -0.005,1.41557 0.19858,2.135884 l 0.25738,0.154639 c 0.94255,-0.373611 1.6257,-0.920162 2.38215,-1.417843 0,0 -2.80632,-2.355314 -5.06141,-1.553505 0,0 -0.11045,0.970622 0.0581,1.978886 z m 1.44361,2.519594 c 0.23859,1.208557 0.14746,2.259867 0.1404,3.090128 l -1.70089,-1.275669 c 0.15791,-0.718174 0.6257,-1.392183 1.13565,-2.018406 z" />
    <path
       style="font-variation-settings:normal;opacity:1;vector-effect:none;fill:none;fill-opacity:1;stroke:#000000;stroke-width:0.79375;stroke-linecap:butt;stroke-linejoin:miter;stroke-miterlimit:4;stroke-dasharray:none;stroke-dashoffset:0;stroke-opacity:1;stop-color:#000000;stop-opacity:1"
       d="m 289.55312,112.13627 c -2.01221,-0.51412 -3.93995,-0.75996 -6.86549,-0.80181 1.60809,-1.55357 4.1307,-2.34229 6.9156,-1.95441 l 0.0501,-0.30067 c -2.06055,-1.27927 -4.31766,-2.3038 -6.36434,-3.10701 1.82152,-1.06287 4.84116,-0.87489 7.05126,-0.20654 l 0.0648,-0.39482 c -1.85682,-1.74605 -3.67236,-3.01456 -5.61266,-4.20949 2.60092,-0.56249 4.81396,0.20298 6.86549,1.50339 l 0.25056,-0.40091 c -1.07467,-2.19938 -2.64473,-4.254166 -4.25961,-6.214014 2.66472,0.480868 4.81254,2.18845 6.11378,4.109274 z"
       id="path1099" />
    <path
       style="font-variation-settings:normal;opacity:1;vector-effect:none;fill:none;fill-opacity:1;stroke:#000000;stroke-width:0.79375;stroke-linecap:butt;stroke-linejoin:miter;stroke-miterlimit:4;stroke-dasharray:none;stroke-dashoffset:0;stroke-opacity:1;stop-color:#000000;stop-opacity:1"
       d="m 296.82368,66.215227 c -0.24873,-2.126954 -0.75503,-3.896128 -1.45891,-5.668166 1.91607,0.350403 3.37384,2.118524 4.19351,3.859925 l 0.63429,-0.375109 c -0.55518,-1.954593 -0.91783,-3.814345 -1.48828,-5.640288 1.90889,0.754134 3.13995,2.658219 3.91004,4.231474 l 0.73805,-0.45458 c -0.0377,-2.321461 -0.5295,-4.106343 -1.14253,-6.077669 1.58662,0.609203 3.24836,2.554313 4.01887,4.444086 z"
       id="path1067" />
    <path
       style="font-variation-settings:normal;opacity:1;vector-effect:none;fill:#e30016;fill-opacity:1;stroke:#000000;stroke-width:0.727604;stroke-linecap:butt;stroke-linejoin:miter;stroke-miterlimit:4;stroke-dasharray:none;stroke-dashoffset:0;stroke-opacity:1;stop-color:#000000;stop-opacity:1"
       d="m 341.58716,75.603866 c 0,0 -0.16496,-2.94722 -2.80633,-4.359835 -2.64137,-1.412615 -4.10649,-0.457827 -6.31425,-1.553503 -2.20776,-1.095676 -1.80517,-3.353174 -1.20271,-4.009042 1.04514,1.494095 1.81126,2.420485 4.86097,2.856442 3.04971,0.435957 4.98441,1.94093 6.01357,2.956671 1.02916,1.015741 2.08948,2.168664 2.90654,4.109269 -1.1526,1.170887 -2.30519,0.692119 -3.45779,-2e-6 z"
       id="path1070" />
    <path
       id="path1045"
       style="font-variation-settings:normal;opacity:1;vector-effect:none;fill:#000000;fill-opacity:1;stroke:none;stroke-width:0.500001;stroke-linecap:butt;stroke-linejoin:miter;stroke-miterlimit:4;stroke-dasharray:none;stroke-dashoffset:0;stroke-opacity:1;stop-color:#000000;stop-opacity:1"
       d="m 1316.3828,229.95117 c -6.5416,0.0251 -11.1413,2.28119 -13.793,6.78906 9.567,1.9008 18.4675,5.91238 26.3829,10.71485 1.0713,0.90553 0.4837,2.24047 -0.9375,1.54687 -7.3868,-4.92449 -15.5305,-8.14332 -27.2735,-10.98437 -11.743,-2.84106 -22.8513,-6.64201 -26.1387,-7.57617 -3.2873,-0.93417 -8.1993,0.96902 -8.5781,9.49218 -0.3788,8.52317 3.11,12.00848 10.8789,14.60743 7.7689,2.59894 16.4503,6.01505 20.4278,11.31836 3.9774,5.3033 5.1149,11.36441 3.9785,15.7207 -1.1365,4.35628 -4.1354,5.27048 -9.6836,3.16406 -5.546,-2.1056 -11.9097,-7.01163 -17.5918,-10.17187 -5.6821,-3.16024 -11.9291,-3.74016 -14.3613,-1.55469 -2.4323,2.18546 -1.5483,4.90084 0.7246,6.60547 2.2728,1.70463 3.1771,4.05011 4.1894,6.97461 1.0124,2.92449 3.2513,6.26297 8.3887,7.58593 5.1374,1.32297 9.961,1.29431 10.1504,6.40821 0.1893,5.11389 -6.1682,9.10238 -21.8516,20.56836 -15.6833,11.46598 -22.6113,25.60937 -22.6113,25.60937 2.9894,-0.86534 6.0034,-1.67673 9.0449,-2.43359 l -0.064,3.91406 c -25.5372,5.90232 -63.5322,22.22584 -100.7383,40.93359 -11.5406,-5.80308 -23.4538,-11.32832 -38.4727,-12.14453 -10.8188,15.2324 -16.1938,28.23782 -15.5311,47.63587 10.1641,8.39221 35.5306,21.22508 42.2362,22.0653 6.7057,0.84023 35.2915,-0.99922 60.4551,-6.58007 25.1636,-5.58085 39.7657,-10.35481 49.1504,-9.80274 0.1436,0.83169 0.071,1.66246 -0.1485,2.49414 -8.8292,-0.51942 -15.3676,2.51855 -24.5781,4.53516 -0.4882,22.32854 3.2837,47.36749 10.2031,70.7207 l 23.3594,69.69922 h 105.0547 c 0,0 7.9549,-22.05583 4.4043,-65.72461 -3.5507,-43.66881 4.2456,-68.68731 17.5039,-90.2793 4.1345,5.62062 9.0945,9.59137 17.2363,7.19727 -6.9461,-6.73024 -11.0752,-15.53319 -10.7968,-23.86523 4.2571,9.04989 9.4453,12.28555 16.8574,12.8789 -5.096,-7.309 -8.376,-15.64461 -6.25,-23.29687 2.9097,5.03051 7.7023,9.58801 15.1523,7.57617 -5.2329,-4.94529 -12.4175,-14.43405 -10.25,-36.42969 2.1676,-21.99565 2.9332,-39.26107 -0.8047,-55.4082 -3.7378,-16.14713 -5.7741,-23.25762 -13.6308,-36.32422 6.6291,-5.11389 9.548,-8.66951 9.7695,-15.54102 0.2219,-6.87151 -4.8187,-12.32744 -13.5156,-11.89257 -8.6969,0.43486 -18.6155,6.42773 -20.2227,7.36523 -1.6073,0.9375 -2.4265,-0.48669 -1.0254,-1.44141 1.3303,-0.90646 6.9815,-3.93995 12.9356,-6.45898 0.5682,-2.46225 1.5081,-11.4609 -5.9824,-13.55859 -7.4905,-2.0977 -14.3577,2.68239 -17.6153,6.06054 3.8738,1.55941 6.4668,3.14436 9.8653,4.94141 1.0101,0.82076 0.3796,1.9566 -0.6622,1.60937 -0.6163,-0.20545 -8.6302,-4.49678 -15.8769,-7.46093 -7.2467,-2.96416 -11.7273,-5.13748 -22.1738,-7.08399 -2.6117,-0.48663 -5.009,-0.72713 -7.1895,-0.71875 z m -141.9551,7.05664 c -21.1001,8.41166 -35.3103,19.57629 -49.623,31.43946 5.1263,16.19782 12.0568,32.03545 19.6973,47.73046 17.867,15.09691 35.7344,30.55053 53.6015,46.15039 12.134,-5.79476 24.426,-10.65553 37.1387,-14.53515 4.6581,-10.27767 12.2033,-18.6298 21.1348,-26.05859 -23.2585,-18.85136 -39.9763,-40.85709 -68.3106,-51.01368 -2.5442,-11.23795 -7.0539,-22.47494 -13.6387,-33.71289 z m 138.0039,8.66407 c 0.599,0.004 1.0676,0.13658 1.4961,0.31054 -0.4504,4.32216 3.4644,6.37515 6.4297,3.21485 0.9898,0.37568 1.6368,0.9224 2.2774,1.47265 -2.0586,2.76255 -5.4919,3.46786 -8.0371,2.27735 -2.5453,-1.19052 -3.2652,-4.5887 -2.8125,-7.23243 0.2314,-0.0305 0.4468,-0.0442 0.6464,-0.043 z m 71.2227,6.78124 c 2.1756,-0.0295 3.1667,0.28635 3.0957,0.74805 -0.094,0.61555 -5.0298,0.75391 -8.4277,1.98828 -3.398,1.23437 -5.9317,3.5329 -7.1973,4.54688 -1.2656,1.01398 -2.1959,1.01117 -2.5527,0.1289 -0.3568,-0.88224 0.4628,-2.09952 2.2754,-3.48046 1.8125,-1.38095 6.2605,-3.40383 10.2324,-3.7793 0.9929,-0.0939 1.849,-0.14252 2.5742,-0.15235 z"
       transform="scale(0.26458333)" />
    <path
       id="path945"
       style="font-variation-settings:normal;opacity:1;vector-effect:none;fill:#e30016;fill-opacity:1;stroke:#000000;stroke-width:3;stroke-linecap:butt;stroke-linejoin:miter;stroke-miterlimit:4;stroke-dasharray:none;stroke-dashoffset:0;stroke-opacity:1;stop-color:#000000;stop-opacity:1"
       d="m 1470.4316,485.35742 c -7.8857,4.37499 -20.9184,15.05832 -18.0136,39.27735 2.9047,24.21898 0.2783,30.53948 -4.3828,39.27929 -0.2676,-9.75261 -3.2207,-19.08551 -12.5254,-37.625 -9.3047,-18.53945 -5.2019,-31.77067 -2.6504,-40.49023 -7.8858,4.37499 -20.9185,15.05836 -18.0137,39.27734 2.9047,24.21903 0.281,30.53948 -4.3809,39.2793 -0.2675,-9.75262 -3.2226,-19.08356 -12.5273,-37.62305 -9.3047,-18.53949 -5.1999,-31.77259 -2.6484,-40.49219 -7.8858,4.375 -20.9204,15.06028 -18.0157,39.2793 2.9049,24.21899 0.2811,30.53753 -4.3808,39.27735 -0.2676,-9.75258 -3.2227,-19.08356 -12.5274,-37.62305 -9.3047,-18.53945 -5.1999,-31.77259 -2.6484,-40.49219 -7.8858,4.37499 -20.9204,15.06031 -18.0156,39.2793 2.9047,24.21902 0.2806,30.53948 -4.3809,39.27929 -0.2676,-9.75261 -3.2226,-19.08551 -12.5273,-37.625 -9.3048,-18.53949 -5.2,-31.77259 -2.6485,-40.49218 -7.8858,4.37499 -20.9184,15.06031 -18.0136,39.27929 2.9048,24.21899 0.2787,30.53945 -4.3829,39.2793 -0.2675,-9.75262 -3.2226,-19.08555 -12.5273,-37.625 -9.3047,-18.53949 -5.1999,-31.77064 -2.6484,-40.49023 -7.8858,4.37499 -20.9185,15.05835 -18.0137,39.27734 2.9047,24.21902 0.2787,30.53948 -4.3828,39.2793 -0.2676,-9.75262 -3.2226,-19.08551 -12.5274,-37.625 -9.3047,-18.53949 -5.1999,-31.77068 -2.6484,-40.49024 -7.8857,4.37499 -20.9184,15.05836 -18.0137,39.27735 2.9048,24.21898 0.2784,30.53944 -4.3828,39.27929 -0.2676,-9.75261 -3.2226,-19.08359 -12.5273,-37.62304 -9.3047,-18.53949 -5.1999,-31.77259 -2.6485,-40.49219 -7.8857,4.37499 -20.9184,15.05832 -18.0136,39.27734 2.9047,24.21899 0.2783,30.53948 -4.3829,39.2793 -0.2675,-9.75262 -3.2206,-19.08356 -12.5253,-37.62305 -9.3047,-18.53945 -5.2019,-31.77263 -2.6504,-40.49219 -7.8858,4.375 -20.9185,15.06032 -18.0137,39.2793 2.9048,24.21899 0.2783,30.53749 -4.3828,39.27735 -0.2676,-9.75262 -3.2207,-19.0836 -12.5254,-37.62305 -9.3047,-18.53949 -5.2019,-31.77259 -2.6504,-40.49219 -7.8858,4.37499 -20.9184,15.06027 -18.0137,39.2793 2.9048,24.21898 0.2811,30.53948 -4.3808,39.27929 -0.2676,-9.75261 -3.2226,-19.08551 -12.5274,-37.625 -9.3046,-18.53945 -5.1999,-31.77262 -2.6484,-40.49218 -7.8857,4.37499 -20.9204,15.06031 -18.0156,39.27929 2.9048,24.21903 0.281,30.53948 -4.3809,39.2793 -0.2676,-9.75262 -3.2226,-19.08555 -12.5273,-37.625 -9.3047,-18.53949 -5.1999,-31.77064 -2.6485,-40.49023 -7.8857,4.37499 -20.9184,15.05832 -18.0136,39.27734 0.4679,3.9013 0.7771,7.29618 0.9726,10.35352 39.8455,82.56136 124.3241,139.52148 222.1035,139.52148 95.7057,0 178.6723,-54.56912 219.5117,-134.30273 -1.9394,-5.25789 -4.7175,-11.4177 -8.6328,-19.21875 -9.3047,-18.53949 -5.2018,-31.77064 -2.6504,-40.49024 z"
       transform="scale(0.26458333)" />
    <path
       id="path844"
       style="font-variation-settings:'wdth' 100, 'wght' 700;opacity:1;fill:none;stroke:#000000;stroke-width:1.85208;stroke-linecap:butt;stroke-linejoin:miter;stroke-miterlimit:4;stroke-dasharray:none"
       d="m 268.73813,21.793301 v 92.706379 c 0,36.03644 29.20003,65.24987 65.21996,65.24987 36.01991,0 65.21962,-29.21343 65.21962,-65.24987 V 21.793301 Z" />
    <path
       style="font-variation-settings:normal;opacity:1;vector-effect:none;fill:#e30016;fill-opacity:1;stroke:#000000;stroke-width:0.79375;stroke-linecap:butt;stroke-linejoin:miter;stroke-miterlimit:4;stroke-dasharray:none;stroke-dashoffset:0;stroke-opacity:1;stop-color:#000000;stop-opacity:1"
       d="m 333.00487,39.437804 c 2.08733,-1.61077 4.39122,-3.207525 7.19455,-4.873779 l -0.68953,-4.396382 3.40903,2.88168 c 2.48442,-1.283017 5.14592,-2.396676 7.65384,-3.189695 l 0.5645,-4.808298 2.54323,3.978582 c 3.20572,-0.679705 5.84626,-0.621167 7.0448,0.576775 1.65311,1.652281 1.0239,4.052343 -0.6683,6.481274 l 2.00313,3.74202 -3.78513,-1.562313 c -0.70484,0.755601 -1.47978,1.49234 -2.28588,2.187249 -0.86127,0.742469 -1.7324,1.417556 -2.67224,2.061862 l 1.15054,4.762717 -3.55193,-3.265981 c -1.89984,1.081737 -4.1529,2.158324 -7.07393,3.425573 l 0.11912,4.774372 -2.74792,-3.656087 c -1.3995,0.585645 -2.9333,1.214912 -4.62495,1.902449 -10.97364,4.460029 -20.38981,8.911524 -26.10186,12.071318 -5.71204,3.159793 -8.54046,4.940496 -12.88137,8.645872 -4.80407,4.100741 -6.69355,4.028638 -7.84694,1.98802 -1.15339,-2.040617 -0.0208,-3.357574 2.88579,-4.760738 2.90655,-1.403165 10.97476,-6.364356 14.58291,-8.769781 3.60812,-2.405427 10.34132,-6.807061 15.93593,-11.726452 2.63402,-2.316119 4.88967,-4.40282 7.29188,-6.415079 l -0.84422,-4.91696 z"
       id="path1058" />
    <path
       id="path1064"
       style="font-variation-settings:normal;opacity:1;vector-effect:none;fill:#d9dadc;fill-opacity:1;stroke:#000000;stroke-width:3;stroke-linecap:butt;stroke-linejoin:miter;stroke-miterlimit:4;stroke-dasharray:none;stroke-dashoffset:0;stroke-opacity:1;stop-color:#000000;stop-opacity:1"
       d="m 1161.7637,209.63281 c 0.043,11.24139 -0.011,22.48128 -0.7442,33.72266 3.4433,-1.97903 7.1326,-4.05504 11.1875,-6.30274 -0.7795,-11.0133 -4.1946,-20.59173 -10.4433,-27.41992 z"
       transform="scale(0.26458333)" />
  </g>
</svg>
