<?xml version="1.0" encoding="UTF-8" standalone="no"?>
<svg xmlns:rdf="http://www.w3.org/1999/02/22-rdf-syntax-ns#" xmlns="http://www.w3.org/2000/svg" height="380" width="314" version="1.0" xmlns:cc="http://creativecommons.org/ns#" xmlns:dc="http://purl.org/dc/elements/1.1/" viewBox="0 0 304.98254 361.51703">
 <path d="m14.084 12.727v210.04c9.2435 70.815 60.135 126.36 138.41 126.02 78.272 0.33736 129.16-55.208 138.41-126.02v-210.04h-276.82z" stroke="#2b2a2c" stroke-width="4.8564" fill="#334ca1"/>
 <g transform="translate(-.0000012842 .83346)">
  <path d="m173.98 113.82c-0.49143 4.5-0.984 8.317-1.8686 12.717l-9.1963-1.8516c-7.5925-1.8382-10.256-4.0052-20.911 0.0849-8.4655 3.3815-19.735 5.1703-27.39 6.2684-14.793 3.1377-32.536 6.0794-46.489 13.399-16.04 9.4529-22.162 14.406-27.913 30.7-1.5726 4.5-5.8985 7.5004-6.5865 12.3-0.29486 2.6-0.68768 6.3014 2.1626 7.6014 3.3417 0.20001 6.5855-1.2008 9.9272-1.2008 2.2606 0.6 0.29512 4.0998 0.58998 5.8998-2.9486 1.7-6.6837 2.9003-8.3545 6.0003-0.98286 3.8 0.001 9.6001 4.4239 10.5 2.7887-0.0355 5.3998 0.0948 7.9792-0.79288 1.8198-0.62624 1.6151-1.5604 5.7672-1.8212 5.1109 0.5 10.772 2.3218 15.784 3.5218 3.5383 0.6 1.6106 3.5112 5.7992 7.4003 2.6537-1 2.5731-3.6654 7.1295-4.2086-1.0058 1.5868 0.55643 4.5446 1.3754 7.1006 4.816-2 7.5995-4.1067 14.939-5.1998 7.7771-1.1582 15.825 2.2003 23.491-0.29972 4.0828-1.0225 10.012-1.1794 13.547-1.4873-0.29486 2.1-1.949 4.7868-2.1456 6.9868 5.1109 0.6 10.517 0.8989 15.628-0.9011 4.5212-1.3 8.3545-4.1 12.482-6.3 2.752-1.6 5.994-1.2995 8.9426-1.2995-0.19657 6.3-0.68689 12.501-1.768 18.701-0.39315 3-1.0814 5.9995-0.58997 8.9995 1.376 2.4 4.62 1.9995 6.8805 1.2995 2.752-1.4 4.2262-4.4003 6.1919-6.7003 2.3589-3.2 6.3888-4.599 8.3545-8.199 1.4743-2.6 2.8494-5.3006 4.422-7.8006 12.493 10.969 10.245 30.026 1.6924 43.622-5.0681 7.8279-13.781 12.478-22.332 15.578-10.222 3.5-21.426 6.1995-32.14 3.3995-6.7817-1.9-13.465-4.3998-19.558-7.9998-3.44-1.8-3.5383-6.1003-3.6366-9.5004-0.0983-8.6 0.39266-17.5-3.2439-25.5-2.5554-5.9-8.8455-8.599-14.448-10.299-1.0812-0.6-1.672 0.8992-1.8686 1.5992-0.22789 0.74197 0.0563 1.8893-0.14318 2.6428-0.66091 2.4962-1.7862 4.6063-3.2961 6.7571-2.6537 3.9-5.8975 7.6006-7.8632 12.001-3.5961 5.2071-1.2652 9.2928-1.7567 14.393-3.6366 1-8.6606 2.4074-11.413 5.2074-4.5212 4.2-7.765 9.3998-11.5 14.3-1.3524 1.6854-2.8055 4.0622-4.2171 4.851-2.0269 1.1326-2.269 1.2862-3.2535 2.2478 0.19657 0.39999 0.39377 0.80082 0.68862 1.2008 0.88458 0.90001 1.6711 1.6998 2.654 2.3998 4.9143 5.5 12.482 7.8011 19.657 7.2011 5.7006-0.60001 10.81-3.3003 15.725-6.0003 3.1452-1.6 6.6848-3.5003 10.223-2.5003 4.5212 1.2 8.2555 4.2006 12.285 6.4006 8.256 4.4 16.708 8.4993 25.75 10.699 3.7349 1.1 7.765 1.6008 11.008 4.0008 0.98286 3.3 0.0983 6.7998 0 10.1 3.9406-0.99567 11.713-2.0093 17.79-2.3011 5.4057-0.39999 11.008-1.1987 15.529-4.2987 4.9143-3 6.684-9.6001 12.581-11.2 0.0146 2.3896-0.82537 3.7246 1.6694 9.2993 8.256-2.7 15.826-7.0996 22.706-12.5 3.44-2.9 7.2731-6.2009 7.7646-11.001 0.88458-3.5-0.00063-9.5993 5.012-9.9993 2.6537 2.5 5.1108 5.3998 8.2559 7.2998 4.6195-10 12.581-18.2 15.628-29 1.4743-4.8-0.78737-9.6009-0.29594-14.501 0.88457-4.8 2.7532-9.2993 3.4412-14.199 1.376-10 2.1614-20.3 0.78537-30.4-1.0811-8.9-4.0302-17.5-7.3719-25.8-1.6709-4.3-4.9141-7.8998-6.6833-12.2-0.49143-2.2 1.8679-3.0003 3.2439-3.9003 4.6195-2.2 9.633-3.2009 14.252-5.4008 3.0469-1.8 6.3874-3.0003 9.5326-4.6003 2.8503-1.2 4.325-3.9992 5.7992-6.4992-7.9612-2.2-16.021-4.1995-23.982-6.1995-5.7989-1.4-11.598-2.9014-17.593-2.7014-4.6194 0.1-8.6496 2.6011-13.072 3.7011-1.6709 0.49999-3.1446-0.69947-4.5206-1.2995-6.88-4-14.35-6.6004-21.82-8.8004-3.9449-1.1806-9.2578-2.0846-12.764-3.3008-4.1534-11.058-9.001-15.533-17.507-18.418zm-0.14023 2.8349c-0.79458 3.4539-0.48028 8.5884-2.3906 10.914-5.5863-2.1568-11.686-2.6499-17.113 0.23828-4.317 2.0121-8.3808-0.90087-11.678-3.3926-12.122 5.6386-25.868 5.0401-38.534 8.863-20.14 4.4284-41.525 10.264-55.811 26.182-5.3139 5.5699-8.3781 13.767-8.8379 20.867-4.0592-1.2451-5.658 4.8121-6.2949 8.1074-1.4317 5.0057 4.3896 10.004 8.8066 6.6406 38.778-20.169 36.787-5.8224-2.4043 8.582-5.9484 4.1884-0.34888 14.535 6.459 12.025 2.0701-1.6973 3.6457-0.2102 6-0.8125 5.2931-3.1146 11.72 0.93492 17.445 0.93359 2.6803 0.57911 5.9934-0.13463 5.0117 3.3301 0.42652 2.616 2.2092 4.7391 3.2266 7.125 1.6887-3.5092 6.3166-6.7186 9.1758-7.0293-0.88087 3.1412-0.97631 6.425-1.4141 9.6406 7.4438-5.4187 16.695-8.7962 25.971-6.3984 5.0516 1.4318 10.17 0.01 14.898-1.4153 3.8753 0.17052 7.7447-0.0985 11.613-0.27805-1.0339 3.46-3.5388 9.7982-2.8477 10.29 4.1952-4.9112 11.016-2.129 16.492-4.6217 5.4972-1.3359 10.281-5.4505 14.559-8.1875 3.0238 1.1065 9.4245-1.6299 7.6602 3.4707-1.0813 9.283-3.33 18.49-2.9336 27.896 4.0764-0.81877 9.6622-0.0217 11.355-4.9941 1.203-3.5678 3.6709-6.094 7.0977-7.4199 4.6016-2.6083 2.6897-9.1982 7.5918-11.291 10.539 9.424 9.0474 25.642 4.3652 37.703-8.463 17.057-28.638 25.125-46.748 25.465-9.0173 1.6215-17.695-3.9436-25.925-7.0454-3.4793-2.118-10.275-2.1534-8.1978-7.7378 0.43828-11.416 2.6508-25.536-6.2461-34.486-4.8089-4.6885-11.701-5.8798-17.904-7.6328 4.0477 2.7606 6.6293 6.4314 3.0801 10.68-4.9907 7.6627-12.974 15.2-11.119 25.293-0.23862 2.1597 2.6257 5.3776-1.168 4.3281-8.772 0.63546-14.111 9.0418-19.502 14.988-3.0284 3.5582-4.7241 8.6106-9.3027 10.121-1.9748 3.7449 3.9581 5.6216 6.1152 7.9082 10.096 7.9178 24.318 4.1316 33.773-2.9094 3.1816-1.2568 6.767-5.575 9.4929-1.952 15.028 10.189 33.147 17.732 50.523 20.072-2.8079 2.9522-1.6322 8.1644-4.8594 10.402 0.76955 3.4335 6.8198-1.5983 11.758-0.29882 10.591-0.95727 24.81-1.0731 30.363-12.014-0.0182-3.63 4.9978-4.948 6.6719-5.2715-2.2683 3.7228 1.5856 8.1662-0.51171 11.256 2.7076 0.72077 5.4011-2.6598 9.3932-3.8042 8.5449-5.0168 19.231-9.5802 22.929-19.522 1.968-3.827-1.8534-8.7337 2.6328-11.072 1.7926-2.9232 2.7294 2.0888 4.8125 2.8086 2.8759 1.2477 5.59 8.5435 6.3668 2.7937 5.8863-10.464 16.014-20.51 15.698-33.466-0.38627-2.3542 0.18015-5.8632-2.6445-6.877 11.153-26.612 7.0691-58.53-8.4531-82.557-0.90617-1.8219-4.8903-4.0125-0.64453-3.6504 6.1163-3.7412 13.559-4.0478 19.369-8.3809 4.3956-2.1224 10.013-2.5116 12.617-7.3555 3.879-3.3857-3.6641-3.4988-6.1784-4.7785-12.544-2.5412-25.327-8.7067-38.337-5.9754-4.0369 0.69105-7.8354 4.3095-11.346 4.4863-10.54-9.0361-24.249-13.037-37.691-15.26-0.32577-9.1851-8.3015-15.58-16.285-18.557zm-25.139 173.84c-3.2896 1.9832-2.653-2.4099 0 0z" fill="#2b2a2c"/>
  <path d="m127.81 15.36c-5.5773-0.08594-4.0662 7.4524-0.29594 9.1437 2.6982 2.4243 7.8969 2.887 9.4643 5.7613 1.396 7.0169 5.3505 13.271 6.651 20.348-5.2881-8.3295-9.8288-18.107-18.217-23.749-3.6948 0.3481-5.4487-3.4242-8.7643-4.8299-3.8304-2.6097-11.931-1.2974-12.101 4.1128 2.3635 5.3089 9.8263 4.4871 14.617 5.4445 2.2147 0.16104 2.4725 3.8477 4.8545 4.754 2.8267 3.0303 7.6222 9.006 8.4399 10.677-7.9765-7.7939-18.052-14.69-29.446-15.157-5.4792-2.7892-14.024-3.7716-18.119 1.6751-0.88592 5.0999 6.2177 7.7424 10.208 5.6911 3.6309-0.31103 7.8266-3.1142 10.331 0.34336 10.448 3.2915 20.488 9.1013 27.255 17.895-8.7523-7.8553-19.516-14.802-31.476-15.838-3.8187 1.69-7.8806-0.39283-12.006 0.6431-4.6491-0.05885-11.431 2.7729-9.4283 8.567 2.6747 5.8125 9.7606 1.5748 13.389-0.8309 2.8102-1.9366 6.0732-2.8247 9.0887-0.75692 5.5862 1.5833 12.401 4.3798 16.508 7.2334-11.06-4.7382-25.215-6.224-35.619 0.79676-2.286 2.8562-7.2613 1.3098-10.365 3.5892-4.658 1.6759-10.362 6.6778-7.1632 12.059 7.4459 1.507 12.038-5.1913 16.884-9.4036 6.0066-0.19722 12.773-3.5964 19.371-3.2895 9.0578-0.45116 18.148 3.3204 24.658 9.3467-11.537-8.0806-27.697-9.2817-40.012-2.5477-1.8418 2.7589-6.4332 2.8383-9.0375 5.2339-3.8125 1.8407-9.0577 8.1562-4.1336 11.422 6.8474 2.7551 11.063-5.1014 14.626-9.4814 1.6359-1.6115 5.2531-0.59128 7.5407-2.0317 9.8214-4.1688 22.06-1.6796 29.575 4.9285-11.622-5.0201-26.241-6.3967-36.818 1.8136-3.8684 3.0264-8.7285 6.0435-10.014 11.092-4.9884 4.0237-11.188 9.502-10.794 16.483 0.2402 4.9135 6.4686 8.1216 9.8115 3.9553 4.1483-4.6815 3.2846-11.749 5.1087-17.144 4.9636-2.012 6.8786-8.4188 12.407-9.9632 9.759-5.2255 22.09-4.7498 30.895 2.1759 12.029 8.6212 18.051 23.689 18.415 38.157 0.54043 7.1439 10.35 7.1331 14.943 3.7827 3.289-4.5901-0.26722-11.612 1.916-17.071 2.3578-19.681 25.287-35.782 44.169-26.623 6.1084 1.9211 9.4687 7.6577 14.476 10.972 3.1203 1.2287 2.6392 6.4557 4.3385 9.2955 1.2168 3.9174 5.365 9.9976 9.9139 6.4917 4.3366-4.1422-0.12805-10.577-3.4678-13.845-2.0998-2.4612-5.8804-3.3711-6.0515-6.7971-7.6785-9.8707-20.074-16.966-32.841-16.178 7.0641-2.0949 14.342-0.40105 21.34 0.62982 4.3208 3.2791 7.6011 11.457 14.704 10.817 4.6715 0.14239 4.5694-5.8345 1.5973-8.1022-3.1737-4.0292-9.0175-5.0013-12.729-7.5919-2.3245-3.7842-8.24-3.1483-12.323-3.9553-7.0453-0.50241-14.186 0.45556-20.865 2.7431 11.482-5.4442 25.018-6.0717 37.214-3.5342 5.1089 3.1494 9.1703 11.077 16.072 9.5971 5.0939-2.2222 0.90554-9.4388-2.7204-10.807-3.5998-2.4132-8.9062-2.1469-12.118-4.2949-4.3993-3.437-11.289-3.1805-16.919-3.6989-11.535-0.53018-24.285 3.7999-32.698 10.306 8.2111-9.5842 20.356-14.781 32.591-16.533 2.8802-0.47031 6.2511 3.0423 9.5743 3.4962 3.5331 2.3282 10.564-0.06163 8.7093-4.9513-4.3922-6.128-13.103-4.3155-19.319-4.6477-4.5151-1.8657-9.5529 1.2564-14.011 2.2308-6.2992 2.3141-12.131 5.8383-17.224 10.199 6.4263-7.3679 14.534-13.368 24.204-15.541 2.3917-1.0901 3.5216-3.1433 6.6038-1.939 4.9072-0.10807 11.632 1.4586 15-2.6859 1.7615-5.2652-5.4728-6.4638-9.2556-5.8163-4.0711 0.06561-7.9104 2.7568-11.492 3.371-5.1517-1.5314-10.372 1.9972-14.92 4.0824-6.0323 3.4931-11.142 8.3433-15.814 13.465 3.9231-5.9415 8.3473-12.217 13.059-17.157 5.7307-0.70575 14.478-0.39321 16.781-7.0247 0.14748-5.5258-7.276-5.0601-10.842-3.5399-4.6894 1.0111-7.8573 5.4218-11.83 7.0892-4.8351 1.5886-6.8804 7.3588-9.94 11.081-1.5108 2.3576-2.9215 4.7798-4.2328 7.254 1.8184-6.4359 4.4174-13.503 6.3665-19.433 4.0677-2.7024 12.163-3.2983 12.008-9.6521-2.031-5.0396-9.3584-2.8341-12.469 0.12141-3.2757 2.6533-4.3759 6.853-7.4592 9.3808-3.1428 7.3647-5.6482 15.909-7.1822 23.227-1.7049-8.3672-2.8592-17.594-7.8992-24.669-3.9934-2.2131-5.4224-7.6628-9.6996-10.001-1.621-1.117-3.54-1.946-5.5431-1.8629z" fill="#2b2a2c"/>
  <path d="m131.72 21.713c-0.50609 0.01483-1.0068 0.10636-1.498 0.28711-1.2752 1.3455-0.0321 4.1721 2.6309 5.7656 3.4945 2.1141 7.251 3.699 10.945 5.4902-0.25607 0.11798-0.47968 0.27108-0.63281 0.44922-1.1542 2.1572 4.1383 11.93 5.2988 16.975 2.0238 6.2804 2.9341 12.87 4.1484 19.459-6.0296-14.941-22.537-39.994-25.73-36.566-0.21623 0.11352-0.40334 0.40189-0.55273 0.75781-2.5273-2.7948-5.5048-5.5075-9.1113-6.8594-3.612-1.2503-12.997 2.8099-3.541 5.5605 3.4986 0.97251 8.1976 1.2404 12.488 1.7754-0.2266 0.82799-0.24667 1.8091 0.10937 2.1621 7.6008 7.5351 15.712 18.654 20.266 28.229 3.8453 7.9277 6.1736 16.679 7.1855 25.637-2.01-8.791-3.79-16.44-8.4-23.476-5.97-10.707-15.18-19.355-25.91-25.121-2.93-1.544-7.92-3.181-11.26-3.078-0.13096 0.22965-0.18604 0.5036-0.20704 0.78906-4.6838-2.6596-10.194-4.7513-15.535-2.8105-1.3155 0.7207-4.0467 1.2352-2.9336 3.1914 1.3155 2.1621 4.048 3.1908 6.4766 2.3672 3.9765-0.96329 7.9563-1.7319 12.016-2.166 0.18155 1.1991 1.1115 2.4932 2.4668 2.7109 10.22 2.9858 22.235 10.63 28.307 19.381 4.6548 7.5159 8.8039 15.443 10.727 24.092-3.0358-7.2962-5.0594-11.617-9.0059-16.473-7.4882-9.575-20.134-17.841-31.771-20.93-2.1942-0.37208-5.7018-1.4054-6.957 0.82617-4.5966-2.2751-15.49-0.09904-16.678 1.2617-2.3212 2.6601-1.1425 5.1419 0.70312 5.8828 4.8353 0.52109 9.2189-5.1407 15.828-6.2422 3.1678 1.5145 8.6768 2.9587 11.957 4.2734 14.369 5.7656 26.614 17.193 32.787 31.607 2.4286 5.6626 4.6533 11.532 5.9688 17.709-2.4312-7.0963-4.6044-14.038-8.5-20.18-8.7025-16.267-27.523-26.563-45.637-24.092-3.7441 0.41183-7.876 1.4748-10.998 3.8086-0.80741 0.60355-1.0081 1.4032-0.93164 2.0625-5.232 0.01635-10.458 1.4554-14.684 4.6289-2.1108 1.3384-3.6641 4.0156-2.6309 6.1777 8.5819 0.54981 10.004-7.4896 17.316-10.766 0.09086 0.67771 0.47664 1.1957 0.80469 1.1719 11.43-3.668 28.655-8.0321 45.123 7.123 4.756 4.736 9.2085 9.8842 11.738 16.268-2.7855-4.7214-5.1669-6.8719-8.5-9.2656-4.0477-3.2946-8.6014-5.8697-13.357-8.1348-9.5121-4.5301-21.896-3.6043-31.232 0.57812-0.40567 0.18172-0.38504 0.84814-0.15234 1.5527-6.8289 1.847-17.711 8.0372-14.736 12.504 1.6637 0.83091 4.7579 0.92493 6.377-1.0312 3.2508-3.213 5.9863-6.9484 8.6836-10.725 0.26605 0.49357 0.60669 0.92793 0.95117 1.1191 1.232 0.68386 9.5682-2.659 14.324-3.1738 7.4882-0.92661 15.28 1.4414 21.453 5.7656 4.9584 3.5005 9.9165 7.2071 13.256 12.252 4.9584 7.7218 9.1071 16.165 10.625 25.328-2.5424-8.5614-6.4419-17.938-12.953-24.916-7.4882-8.1336-18.721-11.223-29.346-11.635-9.1073-0.30887-17.404 4.9417-23.779 11.119-1.2764 1.1361-3.4755 4.1756-2.8789 5.3867-4.7492 3.2491-8.879 7.6052-11.004 12.875-1.0807 2.6802 0.79723 6.7365 3.3398 7.3086 6.8052-0.67572 5.9676-12.612 8.1094-19.77 0.40068 0.1564 1.0374 0.14311 1.9844-0.10938 2.2209-1.5387 4.7772-5.7333 7.0254-7.2344 6.6787-4.6331 14.875-6.8993 22.971-6.6934 11.839 1.8532 22.466 9.9878 28.031 20.695 3.3393 6.1774 6.2726 12.766 6.5762 19.973 0.40478 2.7798 0.40653 5.6635 1.0137 8.4434 2.7941 3.6925 9.7792 2.3848 12.402 0.0527 0.40476-5.8685-0.86749-10.246 0.65039-15.908 2.3167-20.943 30.658-44.849 57.326-23.217 2.9852 3.655 4.1998 4.5812 5.4141 5.5078 0.77181 0.18352 1.4193 0.10592 1.918-0.10352 2.9972 5.3961 3.1203 12.249 7.5566 16.662 2.4286 2.1621 5.4635-0.72157 4.5527-3.3984-1.4728-6.2935-7.0335-9.8683-11.893-13.367 0.7713-0.43092 1.0576-1.2255 0.5957-1.8516-4.2462-5.7561-10.422-9.9883-16.898-12.871-6.8811-3.3976-14.673-3.1911-21.959-2.0586-10.524 2.1621-19.63 9.8845-24.285 19.562-1.3155 2.8828-2.2653 4.5151-3.8457 8.5449 3.9465-15.444 16.6-28.34 28.389-31.223 6.5418-1.6425 14.206-4.427 26.66-1.002 1.5178 0.31279 2.5317-0.04757 3.0996-0.64258 2.9018 3.8925 5.6354 8.0327 9.5137 10.92 3.6859 1.5984 8.9565 1.6119 4.7559-3.8105-2.853-3.6202-8.846-5.6261-13.936-7.5703 0.34349-0.65951 0.27932-1.4416-0.15039-1.957-18.113-5.6626-40.826 0.27995-52.463 15.518 10.952-21.24 37.634-26.397 56.244-22.721 1.2211 0.25363 1.8718 0.005 2.1719-0.43945 4.5462 3.3227 8.3194 7.5826 12.975 10.676 5.2032 1.2956 5.913-1.4278 2.0234-6.2793-4.4467-2.8878-9.7682-3.7967-14.826-4.8281 0.12918-0.63293-0.14506-1.4214-0.50781-1.8867-31.409-8.7186-59.829 7.9126-66.049 37.537 2.2129-11.016 6.6765-21.628 13.635-30.385 10.007-12.162 22.22-17.661 35.084-19.408 1.302 0.0946 1.3484-1.0883 0.68164-2.0977 4.6452 2.2445 9.2104 5.1118 14.453 6.0176 2.125 0.7207 5.5665-1.9559 2.9356-3.9121-4.8073-3.8722-11.788-2.8047-17.523-2.2832-0.69194-0.90609-1.954-1.5927-3.3789-0.91602-16.58 2.5242-32.177 13.295-42.406 31.469 2.7322-6.1774 7.1194-15.357 11.471-20.607 4.9584-5.3538 11.484-11.826 18.264-14.605 2.7322-1.2355 7.3319-2.2514 9.9629-3.5898 0.40261-0.64006 0.47441-1.204 0.32422-1.6738 6.1643 0.08778 12.584 1.2567 18.631-0.5293 0.72232-0.8941 1.3021-1.8226-0.4043-3.2949-6.3702-2.094-12.734 0.45208-18.369 3.5137-0.68935-1.1857-2.8953-1.6124-4.2285-0.89844-11.937 2.6613-20.842 11.606-27.723 19.328-0.50596 0.7207-1.0116 1.442-1.5176 2.2656-2.5298 3.7064-4.6535 7.7221-6.5762 11.943-2.3274 5.9715-3.9466 12.149-5.3633 18.43 0.70836-7.5159 2.9336-14.621 5.0586-21.828 3.615-12.361 10.839-21.291 19.289-31.799 0.41548-0.51669-0.0654-0.92045-0.8418-1.1602 5.6512-1.4169 12.198-0.34377 16.988-3.7305 3.7601-2.6585 1.6004-6.244-5.8692-4.1172-4.5755 1.3028-8.4713 4.1901-11.73 7.6973-1.061-0.17544-2.3612-0.0833-2.9648 0.41016-6.9001 7.4244-16.827 23.991-18.77 36.049 0.48026-19.583 10.221-37.912 9.0957-39.066-0.15709-0.16114-0.5048-0.47008-0.96093-0.69141 3.4124-2.334 7.3292-3.8532 11.086-5.5312 2.5912-1.0339 5.7756-6.2017-1.7988-5.127-4.7717 0.9842-8.4119 5.7131-10.035 10.426-0.51724-0.06545-1.1036 0.05232-1.7051 0.5625-1.4282 2.0105-5.9314 16.311-6.9434 21.15-1.8215 7.7218-0.9118 15.855-2.4297 23.68-0.60716-12.973-2.7793-32.117-8.6484-43.957-0.65837-1.4067-1.7401-1.7082-2.6113-1.5293-2.6651-4.9084-7.8436-11.521-12.566-11.383zm28.189 82.256c-0.15124 0.7968-0.29694 1.5973-0.41602 2.4121 0.12643-0.80567 0.26587-1.6097 0.41602-2.4121z" transform="matrix(.97128 0 0 .97128 0 -3.7901)" fill="#cdcbdd"/>
  <path d="m186.26 318.82c-6.0937 0.50001-11.291 2.055-17.385 2.155-2.6537 0.1-5.3078-0.0995-7.8632 0.10054-2.1623 2.1-2.6546 5.1998-3.3426 7.9998 9.0423-5.7 21.023-1.6553 28.591-10.255zm8.4642-2.544c-3.1495 0.3613-4.3262 1.4912-6.7847 2.1306-1.2323 0.32047-2.9004 4.1302-5.2065 5.0687-6.9783 3.6-15.431 1.8006-22.311 5.7006 6.6834-0.50001 13.368-0.90001 19.953-2.1 5.8972-1.4 12.58-4.2998 14.349-10.8zm31.55-16.4c-6.192 3.4-12.089 7.0001-18.183 10.5-5.0384 3.1644-4.7408 7.4089-3.201 11.043 2.6537-3.3 5.5594-6.9448 9.2943-8.8448 5.0126-3 11.697-5.8987 12.09-12.699zm6.4879-4.9c-1.5726 0.8-3.5686 2.0298-4.7481 3.5298-0.98286 2.9-0.65764 5.6701-3.0165 7.9701-4.6195 5.6-13.648 8.2019-17.469 14.015 5.9401-2.2292 11.768-6.3146 16.78-9.7146 5.0126-3.4 10.026-9.2004 8.4532-15.8zm-131.8-3.4014c-6.5852 1.2-11.499 6.0017-17.003 9.4017-5.2092 3.2-12.287 3.7998-17.496 0.29974-1.7323-0.73439-3.0304-2.5704-4.5579-2.8067-0.55243-0.0855-2.0851 0.39968-1.623 0.74816 4.0696 3.585 9.0031 7.5326 13.651 8.2581 6.192 1.3 12.679-0.20083 18.084-3.3008 4.2263-2.5 8.4527-5.0992 12.974-7.1992-1.2777-1.9-2.4567-3.8009-4.0293-5.4009zm-12.453-17.13c-1.0498-0.007-2.1187 0.11893-3.077 0.23143-5.2092 1.7-8.8459 6.1998-12.482 10.1-3.7349 3.9-6.4868 8.6998-9.8285 12.9 3.5383 2.7 7.6658 5.4006 12.285 5.0006 5.1109-0.6 9.4358-3.5998 13.564-6.5998 3.5383-2.7 7.2726-5.0001 10.713-7.7001-1.8674-4.2-3.9312-8.3012-6.6833-12.101-1.0443-1.4375-2.7405-1.8189-4.4903-1.8306zm167.06-8.2692c-4.5315 8.5153-10.371 16.178-15.358 22.021 1.4743 3 4.2512 3.9789 6.3152 6.5789 1.5726-4.8 2.6545-9.7001 5.4066-14 2.5555-4.3 5.2092-9.3996 3.6366-14.6zm4.5377-8.7169c-1.1794 2-2.5024 4.3036-3.0922 6.6036 0 2.6 1.0109 4.6144 0.42114 7.2144-1.1794 6.4-7.3603 14.276-8.8288 20.655 2.7954-4.3678 7.1589-11.356 9.6161-15.656 2.752-4.7 4.3243-10.2 3.538-15.7-0.29486-1.3 0.11493-3.1168-1.6542-3.1168zm-156.5-18.38c-2.4572 9.1-11.893 14.499-12.974 24.199 0.0983 3.3-0.39436 7.6012 2.2594 10.001 4.9143 2.5 10.616 2.8998 15.924 2.3998 2.064 0.1 2.2608-2.2998 2.654-3.7998 0.78629-5.5 3.5378-10.901 2.4567-16.601-0.88456-6.5-4.2261-13.299-10.32-16.199zm0.0986-2.9006c2.3589 2.4 5.0112 4.3992 6.8786 7.1992 3.2434 4.9 5.0124 10.8 4.6193 16.8-0.39314 4.7-2.3581 9.3007-1.8667 14.101 0.98286 2.2 3.5391 2.6992 5.4065 3.6992 0.39315-10.1 2.0631-20.6-1.2786-30.4-2.064-6.1-7.862-9.8993-13.759-11.399zm72.928-17.9c-0.58972 9.7-3.3422 19.199-3.2439 28.899 2.064-0.50001 5.0132 0.40026 6.3892-1.6998 2.4572-3 3.0458-7.599 6.9773-8.899 3.7349-1.3 5.4066-5.1009 5.4066-8.9009 1.376-1.1 2.7523-2.3 4.2266-3.5-3.0469-2-6.4872-3.0995-9.9272-4.0995-1.8674 2.6-4.1289 5.0995-4.9152 8.2995-1.1794 4.7-1.8675 9.5001-3.6366 14 0.19657-4.9 1.3759-9.699 2.5553-14.499 0.688-3.1 2.9491-5.5003 4.8166-8.1004-2.752-1-5.7-1.4006-8.6486-1.5006zm-98.777-2.2141c-2.1825 2.2678 0.12077 5.1927 0.65266 6.3857 0.9727-1.396 2.9345-3.1627 7.1144-4.9603-1.9104-0.94541-5.8014-1.4507-7.7671-1.4254zm60.233-8.5832c-0.0761 0.013-0.44559-0.0339-0.56253 0.006-1.2804 0.4343-3.2771 6.227-8.655 11.581 3.6366 0.1 6.4613-0.2244 10.098-0.32439 1.7553-2.4449 2.264-10.252-0.88038-11.262zm-72.327-23.21c0.19657 1.4 0.49016 2.8 0.68673 4.2 8.7475 0.49999 17.693 0.10137 26.342 2.0014 1.4743 0.5 3.8328 0.79866 3.538 2.8987 0.49143 5.1-4.7189 8.1998-9.1418 8.6998-9.4355 0.8-18.87 0.60081-28.306 0.50082-5.7989 0.3-11.696 0.39975-17.2 2.3998-4.2263 2.4-1.5724 9.5009 3.1453 8.9009 3.2434 0.10001 4.3245-3.5014 6.1919-5.5014 4.6194-2 9.6322-1.5997 14.546-1.6997 8.3543-0.1 16.807 0.2 24.965-2.1 4.0297-1.5 7.666-3.9995 10.811-6.8995 2.064-1.8 3.2432-4.6002 3.0466-7.4003-0.0983-2.2-2.5546-3.099-4.422-3.2989-11.401 0.1-22.802-1.8014-34.204-2.7014zm-27.264-2.2783c-2.3575 3.2938-2.2514 4.4028-2.616 5.2794-0.49143 2.3-0.58893 5.2992 1.7699 6.4992 2.752 1.3 4.9136-1.4995 7.0759-2.6995 3.0469-2.5 6.8809-3.1 10.616-3.5 0.19657-1.4 0.39304-2.8 0.49133-4.2-4.8909-0.27143-9.6861 1.2035-13.807 4.0387-0.43377 0.29844-1.6611 1.1711-2.073 0.90685-0.58961-1.9001 1.2652-6.2013-1.4569-6.3247zm79.291-17.54c-2.5168-0.0489-5.1166 1.2128-6.2223 3.519-1.2777 1.8-1.0813 4.0009-1.0813 6.1009 0.688 0 2.1632-0.10055 2.8512-0.10054-0.0971-2.9581 0.55795-6.3812 3.6568-6.4418 3.7552 0.44204 3.581 4.1013 4.0155 6.4847 0.78629 0.1 2.1553 0.0576 2.9416 0.0576-0.0983-2.4 0.39453-5.0001-1.178-7.0001-1.118-1.75-3.026-2.5817-4.9835-2.6198zm5.7689-1.5802c2.5554 4 5.7401 10.727 9.0432 10.319 5.5354-1.3465-3.834-9.8193-9.0432-10.319zm90.263-12.247c-0.26529 0.0129-0.53884 0.0586-0.82142 0.14607-4.128 0.6-5.898 5.7003-5.4065 9.5004 0.88457 4.8 3.6367 9.0006 6.7819 12.701 2.5554 2.7 6.2901 5.6998 10.32 4.4998 2.4572-0.89999 2.949-3.8003 3.7353-6.0003-7.1749 0.1-14.645-5.4996-14.744-13.2-0.29486-2.9 3.2444-3.4998 4.9152-5.1998-1.462-0.96251-2.9234-2.5374-4.7805-2.4472zm31.975-6.4651c-0.44767-0.004-0.89657-0.00097-1.345 0.0114-5.7989 0.2-10.812 3.5009-15.726 6.1009-4.4942 2.0958-9.0309 3.7611-13.27 6.289-1.7257 2.8611 1.9496 7.7973 3.785 9.0253 2.1623-1.1 3.3922-1.9158 5.0631-3.7158 2.064-2.2 3.4406-5.2998 6.3892-6.5998 3.9314-1.9 7.9595-3.8 11.989-5.6 4.0297-1.9 8.5521-1.0984 12.778-0.39837 5.7006 1.1 11.498 2.0992 16.806 4.3992-7.6663-0.99999-15.134-3.4008-22.899-4.0008-4.4229-0.3-8.4543 2.0017-12.386 3.8017-3.3055 1.3452-7.1141 3.0827-9.4816 6.1885-1.7265 2.2649-3.5098 3.7597-5.0271 5.4182-0.90643 1.2503-1.1464 2.1564-0.48822 3.5501 0.67646 0.46492 1.2272 0.90226 2.3276 1.0855 1.246 0.16995 2.4084-0.61163 3.628-1.0432 4.128-1.6 6.5849-5.8992 10.811-7.1992 3.2434-1.1 8.1989-0.57197 11.442 0.12803-7.9497-0.65073-10.78-0.29544-16.42 4.5217 5.8115 0.9306 12.259 1.9474 17.657 1.4492 3.5383-1.4 6.7808-3.7006 10.614-4.3006 5.1109-0.8 8.6502-5.1984 13.761-5.9984 2.9486-0.4 5.111-2.5014 6.7819-4.8014-5.504-2-11.304-3.199-16.906-4.699-6.5422-1.6875-13.17-3.5504-19.885-3.612zm-102.58 145.63c-4.9904-1.6291-7.9999-2.8464-17.136-6.9356-5.2591-2.0552-8.0464-3.7266-12.13-4.9417-0.63535-0.11526-1.5876-0.31241-3.1493-0.52429-1.5617-0.21187-3.6608-0.38503-5.8995-0.53046-3.2769-0.1527-6.5065-0.564-9.7223-1.1439-0.39497-0.098-0.55043-0.10871-0.54445 0.1139-0.0363 0.0369 0.17952 0.51608 0.49512 1.161 0.34558 0.90878 1.0686 2.3284 2.2025 4.348 1.3434 2.3929 3.2831 5.9372 4.3101 7.8765 0.96316 1.8188 1.8595 3.3298 2.1114 3.5759 1.5958 2.2308 4.2606 5.4252 5.4502 6.1357s9.6079 6.0315 12.449 7.3902c4.3942 2.4578 8.4166 4.164 12.321 5.7954 5.1501 2.0357 11.1 3.8043 15.981 4.9152 1.7011 0.41101 7.0797 1.3352 8.4703 1.455 3.7986 0.14247 8.0269 0.16489 11.168 0.1063 11.486-0.22803 19.692-1.8562 29.015-5.7594 0.003-0.00097 0.005-0.003 0.008-0.004 3.1509-1.4536 7.6166-3.4046 9.5686-4.2437 8.8458-4.3 17.298-9.5004 24.276-16.5 4.2263-4.2 8.6502-8.199 12.188-13.099 7.3714-9.9 14.447-20.502 17.788-32.502 2.3589-8.3 3.6379-16.999 2.9499-25.699 0-13-3.5391-25.899-9.0432-37.599-2.8503-5.2-5.4058-11.301-10.91-14.201-3.8332-0.50001-7.6651-1.8992-11.597-1.5992-5.0126 1-4.1288 7.6001-7.4705 10.5-0.32399 0.21976-0.66054 0.40335-1.7996 0.78922-1.1391 0.38588-3.0973 0.34147-4.9349-0.28646-0.68065-0.26244-1.3294-0.599-1.9141-1.0035-2.2307-1.4566-4.2506-3.2979-6.6897-6.6607-2.4392-3.3628-3.6216-6.1692-4.1708-9.1074-0.0746-0.81619-0.32072-1.9068-0.32086-3.2115-0.00017-1.7583 0.23283-2.6493 0.34174-3.4016 0.61274-2.1237 1.9953-4.0225 4.0578-4.8185 0.4212-0.15234 0.86494-0.31115 1.3071-0.41545 2.5128-0.38433 5.0259 1.4745 7.5388 1.8155 2.4572-0.6001 4.8161-1.7008 7.2732-2.6008-11.181-9.2608-22.813-12.321-36.717-14.833-0.12705 0.67958-0.83106 5.234-0.438 7.434 0.12775 0.0914 0.27056 0.16681 0.41541 0.25611 2.116 0.79072 3.9837 1.5906 4.2456 2.6369 0.003 0.002 0.007 0.004 0.01 0.006 2.0506 1.2737 5.0347 3.3152 5.3667 4.4277 0.54393 0.50525 0.919 0.54935 1.419 1.1155 0.0898 0.15721-1.9319 0.60564-2.0612 0.70358-3.8817 1.452-9.0357 4.5561-10.859 7.413 4.6446 3.4886 5.6361 3.9208 7.5668 9.8218 0.42522 1.3306 0.5407 2.3546 0.5407 3.7163-2.9025-0.0923-7.2638-0.13245-10.263 0.84988 7.8094 4.669 10.515 12.334 10.261 18.775l0.002 2.7166c0.009 0.0457-0.0258 0.0326-0.0474 0.036-3.6124-1.0834-7.5112-1.6724-11.314-1.474 0.29485 0.79999 0.7861 2.2998 0.98266 3.0998 2.0383 0.56191 3.938 1.1833 5.6911 1.7832 11.856 3.9534 19.971 9.3743 24.568 16.411 1.8079 2.7669 4.353 8.0511 5.9168 12.122 1.0551 2.8875 1.8945 5.8545 2.4642 8.8724 0.5994 5.5567 0.85995 9.7468 0.27317 15.061-0.38154 2.0277-0.93878 4.009-2.1873 7.3486s-3.4469 7.2224-5.9415 10.861c-1.7637 2.4446-3.7858 4.8203-6.1236 7.1955-3.7485 3.8086-7.8688 7.0521-12.327 9.728-2.5082 1.4643-5.1104 2.7578-7.7532 3.9307-5.6204 2.3676-11.679 3.956-18.139 4.7312-5.2367 0.62837-13.044 0.33097-16.88-0.64309m23.297-1.9425c7.6471-1.6161 17.884-6.082 23.821-10.392 8.662-6.2881 17.685-18.97 19.761-27.773 1.0438-4.4254 0.93708-14.107-0.21626-19.572-0.95558-4.5267-2.8939-10.126-4.9494-14.292-4.3894-8.8977-12.772-15.258-24.525-18.61-2.3134-0.65965-4.4114-1.1989-4.661-1.1989-0.29692 0-0.5304 1.185-0.67534 3.4279-0.34374 5.3226-1.1417 10.284-1.6542 10.284-0.24878-0.00014-2.0798-0.76794-4.0692-1.7073-4.4618-2.107-9.1491-3.7778-10.599-3.777-1.1362 0.0006-1.1455 0.0194-4.2664 8.5215-0.13765 0.375 0.93601 0.49152 4.5794 0.49703 12.158 0.0183 22.924 3.4506 28.577 9.1115 2.6857 2.6893 4.9185 6.3774 6.2299 11.449 1.7629 6.8172 1.4421 22.25-5.5507 32.403-3.4634 5.0285-10.421 11.088-17.701 14.787-8.2209 4.1769-15.238 5.9914-27.933 6.7705 7.6688 2.1506 15.898 1.6886 23.832 0.0702zm-2.69-174.38c-0.78629 5.3-1.1791 10.701-3.538 15.501-1.6463 3.8902-4.0986 7.0778-9.0998 11.215 7.7268-2.7445 13.421-7.7441 15.686-15.315-0.9783 4.3821-1.8241 6.3032-4.4106 9.6199-1.5813 1.6088-3.2027 2.9288-4.9968 4.0312-0.0659 0.0403-0.13302 0.0779-0.19918 0.11761-2.2723 1.3662-4.8436 2.386-7.4154 3.0321-2.5717 0.64609-4.4836 0.98275-6.4008 1.2362-3.815 0.32643-10.62 0.40987-21.317 0.31301-5.6755-0.30179-11.351-0.68915-16.984-0.65069-6.0937 0.4-13.172 0.80047-17.496 5.7006-2.3878 4.4713 1.0821 8.3001 4.9152 8.4001 3.7929 0.4336 7.7122 0.50702 11.58 0.80814 4.2724 0.45876 7.5553 1.036 10.1 1.8212 2.5563 0.93296 4.5681 1.9828 6.5182 3.7068 1.1126 1.1665 2.2581 2.0924 2.9705 3.5763 0.70874 1.5042 0.51618 3.2903 0.77122 4.911-0.17427 0.18513-4.0181 0.40949-5.8153 0.47995-2.3792 0.0476-5.7716 0.0718-9.3638 0.0892-3.9982-0.0562-9.9123-0.11078-15.389-0.0857-3.4627 0.0159-6.8111 0.7313-9.3292 0.83057-0.47086 0.0162 1.7282-1.2767 4.419-1.551 1.4397-0.14677 3.9702-0.45932 4.0171-0.80971 2.2432-8.875 2.8548-8.557 7.0889-12.578-2.8684-0.0463-5.7366 0.0997-8.605 0.20108-4.2963 0.0268-8.6259 0.14243-12.416-0.63339-5.3169-1.5061-11.458-5.5564-13.887-9.6708 3.5894 3.5554 8.4567 6.7786 12.335 8.0032 2.3312 0.33332 5.8534 1.3119 7.3787-0.34195-0.23642-2.9564-0.86122-6.7405 2.0249-8.9572 4.128-3.2 9.2383-4.6006 14.349-5.0006 9.5338-0.5 18.969 0.70109 28.503 0.20108 6.6835-0.39999 13.858-0.00028 20.05-3.2003 4.7177-2.5 7.8627-7.2001 10.32-11.9-3.5383-1.1-7.076-2.1992-10.713-2.2992-3.9314 0.9-7.6658 3.2-11.794 2.8-2.752-0.5-5.0126-2.1011-7.2732-3.7011-4.2524 1.9021-9.2315 3.2443-12.686 3.8788-3.6023 0.65853-8.0828 0.87605-12.378 1.9223-17.495 3.7-35.48 7.1988-51.599 15.499-8.0595 5.5-16.806 11.301-21.131 20.501-2.3589 4.5-3.2144 9.6508-2.9195 14.651 1.3975 0.18717 1.6538 0.48276 5.7624-0.58341 2.4796-0.64345 5.0951-0.5392 7.6724-0.76728 0.90307-4.3491 2.2545-8.9942 4.7881-12.703 0.6267-0.86215 1.3267-1.7101 2.0166-2.4661 1.2403-1.2605 2.689-2.3336 4.4011-3.132 0.49143 6.5-1.868 12.8-1.18 19.3 11.605 0.63095 22.971 3.455 34.529 2.9809 4.0021 0.80871 4.5326 0.94296 5.0963 3.3287 0.51628 2.0475 0.20155 4.2508-0.5141 6.0515-0.98406 2.187-3.3588 5.0178-5.6987 6.9128-3.1008 2.3628-6.853 3.9256-10.61 4.5263-6.1664 1.09-12.71 1.2023-17.648 1.3355-3.399-0.0109-6.7957-0.045-10.166 0.0645-4.7452 0.45607-9.4998-0.11142-10.159 4.9336 0.78664 0.61839 2.2229-0.30288 3.5072-1.0898 0.36649-0.22455 1.6275-0.30384 1.7439-0.28787 10.28 1.4105 18.849 3.1758 29.086 4.4438 1.0108 0.17141 1.9559 0.0943 3.4474-0.30268 1.4915-0.39697 3.1105-1.4186 4.7668-2.3508 1.5141-0.7123 2.9366-1.333 3.7884-1.6352 0.41333-0.1302 1.0179-0.28715 1.5442-0.40977 1.7515-0.26916 4.2984-0.26256 6.8863-0.004 2.1489 0.3369 4.2931 0.8344 6.3987 1.1022 1.936-1.7236 2.7499-4.2525 3.739-6.6529l0.71357-2.1859c-0.0352 0.54539-0.10699 1.9036-0.20812 2.9176s-0.6822 2.8108-1.4009 4.3238c-0.52966 1.0278-1.1367 2.0257-1.7624 2.9973 3.9314 1.2 7.9614 1.9003 11.991 2.5003 0.35406 0.0327 0.73049 0.0878 1.1022 0.13848-6.5956 0.63979-11.908-1.0655-14.736-1.9919-1.0476-0.34368-2.1264-0.66506-3.1624-0.96179-0.99285-0.30423-1.7971-0.52378-2.4908-0.66776-0.72434-0.17664-1.3589-0.31918-1.7282-0.36612-2.1092-0.26813-4.54 0.0272-6.7857 0.72086-0.94514 0.27388-1.8484 0.64123-2.7298 1.106-1.1244 0.48511-2.106 1.2604-2.8437 1.935-0.29391 0.27677-0.51822 0.60044-0.74743 0.8935-0.74404 1.0022-1.2498 2.2204-1.5442 3.7049-0.19306 0.80882-0.35059 1.6915-0.46098 2.6672l-0.18591 1.6296 1.7889-1.0566c0.90089-0.53258 1.7625-1.0088 2.6008-1.436 0.81574-0.40416 1.6847-0.80294 2.5363-1.1648 0.005-0.002 0.009-0.004 0.0133-0.006 4.8962-1.9664 9.4476-2.1081 16.884-0.94852 1.7211 0.26611 3.3891 0.48784 5.122 0.55952 1.7588 0.0344 3.0681-0.22209 4.9095-0.81763 3.0134-0.62259 4.6171-2.3616 5.8979-3.4393 4.7977-4.8469 8.464-10.675 8.5917-16.603 0.0399-0.097 0.0833-0.21989 0.11192-0.2504 0.28184 2.1816-0.19391 3.7936 0.96388 5.1542 0.29041 0.34129 1.6168 0.91649 2.0154 1.319 1.286 1.2987 1.4182 2.6536 1.8263 4.722 0.24489 1.6939 0.15286 3.2221-0.007 4.8404-0.61594 3.5191-1.7207 6.8701-2.8866 10.219 5.6075-3.9647 6.5765-12.123 6.555-18.247 0.0324-0.0829 0.0221-0.15238 0.0463-0.20364 0.28872 0.58461 1.0166 6.5398-0.93956 12.523-0.89433 2.7353-1.6098 3.7051-2.7139 5.7272 0.18024 0.0275 0.35684-0.005 0.53875-0.008 8.3621-0.0498 16.498-3.5184 22.56-9.3922 2.2985-4.19 2.8204-9.1384 3.0277-13.922 0.0576-0.12849 0.12045-0.22195 0.19159-0.22195 0.0312 0 0.14446 0.0425 0.22765 0.0702 4.3075 2.4875 11.13 6.2392 15.802 7.6944-2.8562-3.0808-7.6088-7.506-10.953-10.224 1.557 0.48948 5.0846 3.3593 6.2468 4.2828 2.2572 1.8722 4.2946 4.0293 6.2925 6.1217 0.29486-3.6 0.68954-7.3004-0.0967-10.9-0.68248-3.2736-2.4294-6.1531-3.8965-9.0299 0.0575-0.0228 0.1251-0.0441 0.24662-0.0569 4.427 0.11828 8.8542 0.7073 13.281 1.6865 0.12523-8.999-3.9905-15.453-11.944-18.993-0.34016-0.23373-0.58029-0.41705-0.58048-0.47046-0.00009-0.0213 0.0236-0.0463 0.038-0.0702 3.8591-1.8952 8.1278-2.2031 12.443-2.5934-0.63056-4.5954-4.0375-9.0162-8.2376-11.012-0.22996-0.21186-0.38603-0.39588-0.39079-0.50082 0.58735-0.83096 1.2403-1.5882 1.9255-2.3068 1.2864-1.2234 3.0411-2.705 4.7824-4.0122 1.8269-1.2752 3.7356-1.6554 5.6001-2.8512-0.71623-0.5807-3.2465-3.4918-5.2947-2.9783-11.086 2.7789-14.03 6.5836-16.094 9.6556 1.3913-4.9926 9.4003-8.9487 14.078-10.807 1.0059-0.39972 1.4924-0.49549 0.20668-0.97791-0.59338-0.22264-1.548-0.44054-2.9643-0.60102-5.3946 0.921-9.8137 2.8624-14.395 7.0139 2.2787-3.4344 5.6294-5.3338 9.0071-6.8882 1.395-0.5798 2.8174-1.0842 4.2532-1.5062 0.25216-0.12048 0.0656-0.43849 0.10052-0.67152 0.10084-0.68483 0.21923-1.4842 0.29214-1.9293 2.4264-11.129-1.9482-18.331-11.697-22.8z" fill="#ceae5e"/>
  <path d="m64.686 165.94c-1.9657 2-3.9296 4.2995-5.2074 6.8995-3.5383 8.6-4.1293 18.4-1.3772 27.3 2.752 0.1 5.5035 0.30028 8.1572 0.40028-1.8674-5.9-2.6535-12.201-3.0466-18.401-0.19657-5.5 1.1791-10.799 1.474-16.199zm-10.32 23.999c-2.064 0.19999-4.2247 0.39947-6.2887 0.59946-0.19657 3.6 0.09691 7.2006 1.1781 10.601 2.064-3.6 3.6363-7.4001 5.1106-11.2zm11.598 0.20108c0.19657 2.9 0.39331 5.7992 1.0813 8.5993 1.7692-2.4 2.8495-5.1998 3.9307-7.9998zm5.9946 0.70001c0.78629 3 1.7701 5.9995 2.8512 8.9995 1.6709-2.7 2.8503-5.7003 3.6366-8.8004-2.1623-0.19999-4.3256-0.19918-6.4879-0.19918zm13.171 0.49892c-1.6709 0-3.4397 0.10054-5.1106 0.10054 0.49143 2.5 0.78554 5.1003 1.8667 7.4003 1.5726 2 4.3252 0.79866 6.3892 0.79866-0.688-2.1-1.5721-4.2001-2.4567-6.3001-0.78629 1.6-2.1361 6.378-2.8246 6.2803 0.39314-2.3 1.5463-5.9797 2.136-8.2797zm1.6713 0c0.19657 2.9 1.1797 5.6003 2.654 8.1003 0.88458-2.5 1.4739-5.0995 1.9653-7.5995-1.5726-0.19999-3.145-0.40081-4.6193-0.50081zm-15.726 0.70001c-1.2777 2.7-2.26 5.4995-2.948 8.2995 1.9657 0.10001 4.0293 0.10001 6.0933 0-0.88458-2.8-1.8676-5.5995-3.1453-8.2995zm7.7646 0.10054c-1.0811 2.6-1.9644 5.1998-2.7507 7.9998l5.306 0.29974c-0.58972-2.9-1.2776-5.6995-2.5553-8.2995zm-23.982 0.19918c-1.7692 2.5-2.8503 5.5006-3.6366 8.5006 1.6709-0.1 3.244-0.19973 4.8166-0.29973-0.39314-2.7-0.68853-5.5009-1.18-8.2009z" fill="#cdcbdd"/>
 </g>
</svg>
