<?xml version="1.0" encoding="utf-8"?>
<!-- Generator: Adobe Illustrator 15.0.1, SVG Export Plug-In . SVG Version: 6.00 Build 0)  -->
<!DOCTYPE svg PUBLIC "-//W3C//DTD SVG 1.1//EN" "http://www.w3.org/Graphics/SVG/1.1/DTD/svg11.dtd">
<svg version="1.1" xmlns="http://www.w3.org/2000/svg" width="494px" height="581px" viewBox="0 0 494 581" enable-background="new 0 0 494 581">
<path fill="#ED1C29" stroke="#000000" stroke-width="6.3" d="M247.5,573.485c-63.605,0-123.406-24.768-168.385-69.74
	C34.137,458.773,9.36,398.978,9.35,335.374V7.85h476.3v327.484c0,63.612-24.772,123.417-69.753,168.397
	S311.112,573.485,247.5,573.485z"/>
<path d="M445.18,281.71c-9.229-1.23-18.55-0.7-27.81-1.3c-2.431-8.2-4.92-16.391-6.96-24.69c-4.86-18.47-10.061-36.86-14.801-55.36
	c-1.09-4.029-2.629-8.04-2.699-12.26c0.42-1.75,1.5-3.24,2.49-4.71c4.05-5.62,7.81-11.46,12.109-16.9c1.85-2.52,4.33-5.1,4.01-8.479
	c-0.229-11.7,0.44-23.43-0.41-35.1c-7.949-0.12-16.029-1.24-23.889,0.5c-0.58,3.75-0.861,7.529-1.281,11.3
	c-3.06,0.34-6.129,0.54-9.199,0.62c-0.77-4.08-1.311-8.19-1.78-12.32c-7.739,0.06-15.489-0.24-23.22,0.27
	c-0.93,3.891-0.061,8.23-2.01,11.82c-2.65,0.59-5.371,0.39-8.051,0.44c-0.91-3.84-1.17-7.78-1.31-11.71
	c-8.29-1.41-16.761-0.92-25.05,0.229c-0.35,11.98-1.131,23.97-0.771,35.96c0.11,2.97,2.479,5.141,3.94,7.55
	c5.31,7.28,10.869,14.5,15.07,22.471c-0.391,4.569-2.08,8.91-3.051,13.37c-4.13,17.449-8.789,34.75-12.99,52.18
	c-2.41,8.76-3.979,17.74-6.76,26.399c-4.529,0.91-9.15,0.591-13.67-0.149c0.2-5.88-1.4-12.311,1.939-17.58
	c0.941-3.38,3.16-6.15,4.461-9.34c0.02-6.58-6.51-11.25-6.52-17.87c-0.171-13.55-1.23-27.12-0.4-40.67
	c0.039-3.72,2.369-6.771,3.72-10.09c1.45-3.4,5.069-6.721,3.12-10.67c-2.54-3.99-5.721-7.91-6.58-12.67
	c-0.359-14.261-0.551-28.57-0.16-42.82c1.79-3.97,7.109-16.86,8.78-18.851c7.069-0.84,14.229-0.51,21.329-1.17
	C326.29,82.45,326.65,64.79,326.42,47.13c-7.83-0.26-15.66-0.07-23.49-0.17c-2.09,0.17-5.27-0.58-5.85,2.2
	c-1.35,5.75-0.62,11.76-1.311,17.6c-3.66,0.21-7.39,0.36-10.99-0.44c-1.939-6.08-0.529-12.59-1.359-18.84
	c-9.48-0.49-19.08-0.67-28.51,0.42c-1.08,6.271-0.67,12.73-1.87,19.021c-3.81-0.08-7.61-0.17-11.41-0.28
	c-0.78-6.17,0.12-12.39-0.3-18.58c-9.84,0.04-19.68-0.53-29.52-0.25c-0.91,6.36-0.24,12.83-1.35,19.17
	c-3.71,0.3-7.43,0.28-11.13-0.05c-0.18-6.37,0.23-12.75-0.31-19.12c-10.05-0.22-20.09,0.141-30.13,0.391
	c-0.86,3.55-0.52,7.189-0.44,10.8c-0.28,14.14-0.58,28.33,0.74,42.45c6.69,0.8,13.43,0.489,20.15,0.59
	c0.15,2.229,0.31,4.449,0.48,6.68c4.41,2.44,5.69,7.36,8.01,11.46c1.12,3.82,0.88,7.89,0.86,11.84
	c-0.53,10.851,0.15,21.74-0.35,32.58c-1.82,5.07-5.13,9.38-8.05,13.83c-1.78,4.17,3.19,6.32,5,9.31c1.66,3.171,3.83,6.41,3.49,10.16
	c-0.07,13.38,0,26.761-0.03,40.141c0.12,2.92-1.73,5.33-2.86,7.88c-1.26,2.979-4.3,4.62-5.85,7.399c-0.92,2.37,0.05,5.091,2.08,6.57
	c3.01,2.41,5.06,5.85,6.53,9.36c0.53,4.54-0.41,9.1-0.83,13.62c-4.76,0.109-10.52,2.109-14.62-1.08
	c-2.17-7.59-4.24-15.24-6.02-22.94c-3.98-13.02-6.2-26.53-10.66-39.399c-2.39-8.181-3.66-16.631-6.05-24.811
	c-1.08-3.92,2.3-6.92,4.19-9.92c4.68-7.09,9.84-13.86,14.55-20.9c0.69-12.859,0.3-25.819-0.42-38.689
	c-8.07-0.12-16.16-0.42-24.21,0.21c-0.68,3.77-0.87,7.61-1.09,11.439c-2.43,0.271-4.91,0.66-7.35,0.2
	c-1.23-0.27-3.18-0.52-3.11-2.22c-0.44-3.1-0.28-6.25-0.44-9.38c-8.06-1.351-16.24-0.22-24.28,0.67c-0.24,3.54-0.41,7.09-0.75,10.62
	c-3.39,0.33-6.81,0.359-10.22,0.149c-0.49-3.38-0.25-6.89-1.21-10.189c-0.75-1.66-2.59-1.18-4.03-1.17
	c-6.52,0.29-13.15-0.521-19.52,1.319c0.19,6.41,0.02,12.801-0.66,19.171c0.26,5.6,0.17,11.22,0.52,16.8
	c1.46,4.359,5.33,7.3,7.62,11.2c2.3,3.949,5.12,7.55,7.89,11.18c1.3,2.01,3.22,4.149,2.67,6.74c-0.48,3.21-1.6,6.279-2.31,9.439
	c-1.87,11.47-5.15,22.66-8.18,33.86c-0.97,7.08-3.13,13.92-5.18,20.74c-2.46,9.31-4.72,18.67-7.12,27.989
	c-9.28,0.9-18.61,0.57-27.91,1.061C48.64,310.949,49.08,336.99,49,363c0.06,5.939-0.26,11.899,0.36,17.819
	c9.36,0.99,18.79,0,28.17,0.67c2.82,7.55,3.86,15.63,6.84,23.13c3.36,11.391,8.25,22.351,14.76,32.301
	c6.63,12.47,17.52,22.22,29.62,29.25c15.3,7.779,32.15,12.319,49.22,13.89c23.49,3.5,47.32,4.33,71.03,3.68
	c24.811,0.42,49.641-1.46,74.09-5.71c13.02-1.92,25.37-6.64,37.57-11.37c11.561-4.37,20.99-12.85,28.949-22.08
	c8.57-11.8,15.4-24.88,20.41-38.569c3.03-9.021,4.521-18.46,7.34-27.54c9.521-2.04,19.271-0.19,28.871-1.16
	C446.03,345.44,445.41,313.579,445.18,281.71z M102.14,165.15c1.85,0.11,3.7,0.28,5.54,0.49l-2.2,5.24
	C103.88,169.28,102.81,167.3,102.14,165.15z M241.39,217.89c-0.25,4.17-0.28,8.35-0.01,12.53c-1.95,0.27-3.89,0.5-5.84,0.67
	c-0.54-11.13-0.32-22.3-0.12-33.44c1.58-0.21,3.17-0.41,4.76-0.59c0.24,1.521,0.61,3.03,0.59,4.58c-0.84,1.58-2.12,2.92-2.79,4.59
	C237.25,210.59,241.82,213.58,241.39,217.89z M259.74,214c-0.141,5.52,1.05,11.09-0.131,16.56c-1.799,0.09-3.6,0.15-5.399,0.18
	c-0.25-4.92-0.42-9.859-0.08-14.77c-0.05-3.02,3.271-4.96,2.771-8.03c0.3-3.069-2.15-5.25-3.051-7.96
	c0.291-1.34,1.24-2.38,2.18-3.31c0.98,0.439,1.891,1.01,2.73,1.7C260.13,203.46,259.689,208.79,259.74,214z M387.9,168.71
	c-2.211-0.79-1.73-3.42-2.291-5.24c1.891-0.05,3.771-0.04,5.66,0.05C390.23,165.3,389.189,167.1,387.9,168.71z M385.62,237.39
	c-4.56-6.45-9.33-12.79-13.44-19.55c2.33-4.7,4.801-9.53,8.98-12.89c3.109,7.119,4.79,14.739,6.57,22.27
	c1.35,5.49,3.369,10.85,4.029,16.5C389.359,241.98,387.3,239.82,385.62,237.39z M354.07,217.11c-0.35,3.011-2.87,5.11-4.23,7.69
	c-4.47,6.71-8.51,13.85-14.24,19.61c0.03-4.301,1.301-8.431,2.26-12.58c1.771-8.9,4.021-17.721,7.051-26.261
	C348.359,209.04,352.16,212.49,354.07,217.11z M364,230.084l38.25,54.546c0.391,7.58,0.57,15.26,0.029,22.84
	c-6.42-0.07-12.879,0.439-19.27-0.4c0.061-8.18-0.06-16.369-0.67-24.54c-5.4-0.949-30.26,0.051-37.24-0.06
	c-0.359,7.16-0.709,14.33-0.25,21.5c0.24,1.8-0.68,4.25-2.879,3.93c-5.541,0.19-11.091,0.29-16.631,0.29
	c-0.98-6.74-0.33-13.55-0.17-20.319c0.141-1.65-0.05-3.45,0.859-4.92L364,230.084z M376.18,183.99c0.25,1.4-0.9,2.521-1.43,3.721
	c-3.58,5.95-6.84,12.2-11.75,17.21c-4.5-5.891-9.391-11.641-12.88-18.2c0.14-8.02,3.229-15.64,5.31-23.3
	c4.84,0,9.69-0.141,14.541-0.19C372.561,169.98,374.8,176.89,376.18,183.99z M260.77,298c0.271,16.06,0.121,32.119-0.31,48.18
	c-8.489,1.439-17.14,0.63-25.68,0.22c-0.18-20.47,0.13-40.93,0.28-61.38c0.8-6.6,7.06-12.45,13.9-11.76
	c5.149,0.03,9.54,4.1,10.86,8.92C261.189,287.34,260.641,292.72,260.77,298z M142.16,191.16c-3.45,5.52-7.07,11.01-11.59,15.72
	c-2.93-3.3-5.45-6.92-7.9-10.59c-1.62-2.431-3.99-4.54-4.72-7.46c0.1-8.46,3.23-16.48,5.52-24.53c4.73-0.64,9.48,0.08,14.12,0.99
	c2.04,6.979,4.23,13.92,5.94,20.989C144.07,188.05,142.97,189.68,142.16,191.16z M121.84,219.94c-4.27,7.8-9.56,14.95-14.84,22.061
	c-1.42,1.84-3.16,3.38-4.98,4.81c0.72-6.84,3.24-13.31,4.66-20.01c1.7-6.69,2.99-13.561,6.12-19.771
	C116.12,211.1,119.47,215.21,121.84,219.94z M144.7,227.32c-1.51-2.43-3.57-4.569-4.57-7.27c1.5-4.89,4.99-9.09,8.86-12.36
	c3.69,10.29,6.03,20.99,8.82,31.54c0.53,1.891,0.6,3.87,0.7,5.82C152.69,240.17,149.06,233.4,144.7,227.32z M155.36,171.25
	c-1.05-1.83-1.83-3.79-2.62-5.74c2.2-0.31,4.4-0.57,6.61-0.75L155.36,171.25z M97.03,279.02c10.63-15.05,21.41-29.979,32.22-44.899
	c0.53-1.021,1.29-1.261,2.28-0.73c3.9,3.9,6.94,8.55,10,13.12c7.49,9.89,14.4,20.2,21.92,30.07c2.01,3.25,4.91,6.069,6.17,9.689
	c0.29,7.771-0.38,15.57-0.11,23.37c-6.17,1.01-12.42,0.26-18.63,0.29c-1.36-8.38-1-16.88-1.31-25.32
	c-9.43-2.109-19.06-0.449-28.59-0.43c-3.28,0-6.55,0.09-9.8,0.35c-0.54,8.48-0.36,16.971-0.54,25.46
	c-6.33,0.761-12.72,0.55-19.07,0.41c0.04-6.81-0.62-13.62-0.22-20.43C91.39,285.59,94.67,282.36,97.03,279.02z M372.74,394.76
	c-7.7,5.609-16.79,8.95-26.01,11.109c-4.791,0.74-9.61,1.33-14.311,2.561c-11.35,1.89-22.88,2.31-34.32,3.399
	c-14.729,0.23-61.399,3.131-70.07,2.46c-21.05-0.869-42.21-0.229-63.11-3.34c-14.82-2.729-30.13-5.59-43.06-13.77
	c-5.63-4.54-11.96-8.891-15.11-15.641l281.73-2.829C385.07,385.56,378.8,390.36,372.74,394.76z M338.27,170.16
	c-1.649-1.87-2.84-4.07-3.869-6.32c1.979-0.01,3.97,0.01,5.97,0.06C339.91,166.05,339.65,168.35,338.27,170.16z M241.26,140.08
	c0.18,5.189-0.27,10.39-0.48,15.569c-1.7,0.021-3.4,0.03-5.1,0.021c-2.45-8.36-1.17-17.12-0.92-25.681
	c0.14-2.029,0.11-4.189,1.12-6.029c1.33-0.61,2.77-0.98,4.18-1.4c2.06,4.36-1.95,7.91-1.91,12.21
	C239.04,136.63,240.53,138.14,241.26,140.08z M256.05,132.13c-0.06-2.72-2.76-4.88-2.021-7.68c1.301-0.9,2.781-1.48,4.211-2.12
	c1.779,4.35,1.22,9.1,1.27,13.68c-0.06,6.4,0.09,12.81-0.13,19.21c-1.86-0.16-3.71-0.34-5.55-0.52
	c-0.051-4.58-0.26-9.171-0.01-13.74C253.939,137.86,256.42,135.3,256.05,132.13z"/>
<path fill="#D2AB67" d="M212.19,123.43c3.24,1.46,6.62,0.96,9.79-0.36c-0.77,3.24-0.88,6.601-0.02,9.841
	c-3.25-0.351-6.52-0.131-9.76,0.18C212.86,129.9,212.8,126.63,212.19,123.43z M212.17,151.63c0.22,3.16,0.12,6.33,0.07,9.5
	c3.07-0.97,6.24-1.021,9.3,0.02c-0.65-3.199-0.36-6.449,0.27-9.62C218.61,151.93,215.37,152.04,212.17,151.63z M224.98,248.98
	c15.66-0.39,31.331-0.42,46.991-0.74c8.209-0.14,16.569,0.601,24.649-1.26c-6.24-2.899-13.261-1.5-19.86-1.29
	c-21.92,0.23-43.83,0.431-65.75,0.73c-3.81-0.08-8-1.23-11.26,1.46C208.14,248.6,216.58,248.52,224.98,248.98z M283.689,196.96
	c-3.209,0.91-6.529,0.979-9.779,0.31c0.66,3.061,0.92,6.2,0.5,9.32c3.16-1.33,6.449-0.51,9.63,0.21
	C282.75,203.59,281.71,200.15,283.689,196.96z M202.94,365.51l0.39,10.8l16.7,0.27l43.97-0.25l29.609-0.51l0.141-10.59l-65.8,0.021
	L202.94,365.51L202.94,365.51z M293.34,190.58c-0.8,17.609,0.04,35.25,0.12,52.87c-8.149,0.17-16.3-0.15-24.44,0.239
	c-15.34,0.24-30.689-0.21-46.02,0.271c-6.62-0.24-13.24-0.351-19.85,0.069c-0.79-17.64-1.04-35.31-0.83-52.97
	C232.66,190.7,263,190.29,293.34,190.58z M211.08,202.09c-1.15,2.689-2.2,5.43-2.86,8.3c2.99-0.2,5.87-1.06,8.81-1.6
	c2.83,0.489,5.62,1.279,8.48,1.67c-0.23-2.88-1.13-5.66-1.41-8.521c0.18-2.609,0.91-5.149,1.2-7.739
	c-2.91-0.07-5.73,0.569-8.54,1.21c-2.77-0.21-5.39-1.36-8.15-1.7C208.83,196.66,209.88,199.42,211.08,202.09z M225.67,240.38
	c-0.28-2.82-1.09-5.561-1.3-8.391c0.11-2.819,0.71-5.6,0.85-8.43c-2.82,0.38-5.39,1.63-8.11,2.32c-2.56-0.58-5.03-1.49-7.57-2.101
	c-0.72,3,0.31,5.86,2.12,8.25c-1.32,2.801-2.4,5.78-1.98,8.931c2.97-0.38,5.74-2.38,8.81-1.65
	C220.87,239.72,223.26,240.12,225.67,240.38z M262.76,198.02c0.141-5.87-9.38-6.71-11.539-1.83c-0.75,2.08-0.861,4.33-1.441,6.45
	c-0.979,0.75-2.069,1.32-3.129,1.94c-0.84-2.931-0.91-6.101-2.21-8.891c-2.59-3.27-8.47-3.939-11.13-0.399
	c-1.55,1.81-1,4.42-1.27,6.609c-0.08,12.771-0.05,25.53,0,38.29c6.63,0.79,13.33,0.03,19.989,0.38c3.861,0.29,7.681-0.31,11.49-0.84
	C264.311,225.83,263.24,211.92,262.76,198.02z M285.84,232.01c0.15-2.95,0.939-5.81,1.35-8.73c-3.58,0.2-7.049,2.12-10.66,1.29
	c-2.039-0.399-4.09-0.689-6.159-0.88c0.55,2.75,1.78,5.391,1.909,8.221c-0.489,2.409-1.439,4.71-1.789,7.149
	c2.88,1.38,5.539-1.03,8.4-1.189c2.719,0.68,5.289,1.869,8.039,2.479C286.75,237.54,285.971,234.81,285.84,232.01z M287.33,210.46
	c-0.359-2.5-1.35-4.86-1.721-7.34c0.201-3.16,0.851-6.271,1-9.431c-2.859,0.311-5.59,1.36-8.43,1.66
	c-2.56-0.689-5.039-1.62-7.65-2.07c-0.01,3,1.101,5.83,1.4,8.79c-0.22,2.801-0.97,5.54-1.189,8.36c2.85-0.41,5.46-1.68,8.24-2.35
	C281.779,208.8,284.45,209.97,287.33,210.46z M282.971,185.61c-9.32-0.22-18.641-0.109-27.951-0.069
	c-18,0.77-36.069-0.561-54.04,0.779c-0.06,0.46-0.18,1.381-0.25,1.841c16.72-0.051,33.44-0.5,50.161-0.45
	c15.02-0.82,30.189,0.79,45.129-1.23C291.77,185.27,287.311,185.93,282.971,185.61z M292.96,133.99
	c0.83,11-0.14,22.021,0.021,33.021c-6.94,1.11-13.971,0.63-20.961,0.76c-11.01,0.47-22.029,0.08-33.04,0.271
	c-12.16,0.5-24.33-0.061-36.49,0.34c-1.19-5.061-0.42-10.25-0.48-15.391C202.33,141,202.37,129,202.69,117
	c19.1-0.641,38.21-0.48,57.31-0.511c10.91-0.399,21.82-0.229,32.73-0.189C293.33,122.19,292.391,128.1,292.96,133.99z
	 M208.71,121.14c0.2,2.64,1.67,4.98,1.91,7.6c-1.09,2.511-1.97,5.131-1.32,7.9c2.62-0.52,5.14-1.41,7.74-2
	c2.79,0.49,5.5,1.4,8.33,1.74c-0.27-3.32-1.78-6.59-1.05-9.94c0.41-2.12,0.76-4.239,0.96-6.39c-3.67,0.06-7.15,2.78-10.8,1.46
	C212.6,121.12,210.48,119.69,208.71,121.14z M225.46,163.71c-0.26-2.811-1.3-5.44-2.61-7.91c1.03-2.33,3.02-4.76,1.74-7.41
	c-2.73-0.43-5.13,1.18-7.68,1.811c-2.83-0.58-5.54-1.761-8.47-1.771c0.36,2.76,1.25,5.41,2.41,7.93c-0.91,1.811-1.87,3.591-2.8,5.38
	c0.32,0.671,0.95,2,1.26,2.671c3.09-0.591,6.18-2.12,9.37-1.261C220.91,163.62,223.18,163.81,225.46,163.71z M263.7,164.36
	c-0.32-10.72-0.13-21.46-0.229-32.189c-0.24-3.65-0.051-7.54-1.711-10.9c-1.92-3.16-6.59-2.74-9.18-0.68
	c-2.83,2-2.03,5.92-2.92,8.88c-1.35,0.11-2.71,0.22-4.06,0.32c-0.51-2.57-0.45-5.36-1.73-7.7c-1.65-1.811-4.18-3.23-6.68-3.04
	c-2.56,0.89-5.13,3.1-5.08,6.04c-0.61,13.22-0.37,26.479-0.25,39.71C242.47,164.42,253.09,164.61,263.7,164.36z M269.96,119.65
	c0.74,2.12,1.86,4.13,2.36,6.33c-0.551,3.44-1.7,6.88-0.891,10.391c2.48-0.811,4.791-2.29,7.41-2.57
	c2.801,0.77,5.561,1.83,8.53,1.64c-0.33-2.87-1.78-5.479-2.16-8.31c0.649-2.49,1.521-4.92,1.761-7.5
	c-1.801,0.26-3.591,0.55-5.32,1.1C277.779,122.59,273.93,119.59,269.96,119.65z M287.609,163.52c-0.549-2.6-1.76-4.99-2.359-7.56
	c0.46-2.92,1.43-5.771,1.05-8.771c-5.13,1.95-10.61,1.771-15.909,0.681c0.17,2.88,1.409,5.489,2.629,8.06
	c-1.199,2.57-2.16,5.26-2.369,8.11c2.82-0.38,5.459-1.601,8.279-1.95C281.84,162.48,284.66,163.4,287.609,163.52z M202.97,258.76
	c12.01-0.6,24.04,0.06,36.05-0.49c12.339-0.06,24.69,0.13,37.02-0.51c7.319-0.45,14.75,0.5,22.021-0.71
	c2.76-0.75,2.729-4.4,0.879-6.12c-5.969-0.7-12.02-0.68-18.02-0.45c-28.811-0.109-57.66,0.19-86.47,1.13
	c-0.15,2.011-2.02,5.11,0.58,6.2C197.35,259.39,200.34,258.59,202.97,258.76z M174.4,318.51l25.41-0.36l-0.42-30.72l-9.41-0.46
	l-16.15,0.38L174.4,318.51L174.4,318.51z M298.891,101.23c-3.83-2.43-8.621-1.16-12.871-1.26c-21.289-0.04-42.56,0.47-63.839,0.58
	c-8.62,0.54-17.29-0.26-25.89,0.65c-2.88,1.46-3,4.659-2.47,7.449c6.99,1.46,14.16,0.87,21.2,0.19c10.91-0.28,21.83,0.08,32.75-0.16
	c17.09-0.64,34.24,0.41,51.311-0.56C299.26,105.88,300.561,103.17,298.891,101.23z M260.08,262.63c8.98-0.33,17.97-0.86,26.96-0.9
	c2.94-0.08,5.931-0.12,8.79-0.92c-2.58-0.53-5.21-0.62-7.83-0.59c-29.27,0.11-58.56,0.2-87.81,0.93
	c3.88,2.271,8.5,1.891,12.82,2.011C228.69,262.67,244.4,263.43,260.08,262.63z M211.79,361.92c6.39,0.89,13.01,2.689,19.33,0.35
	c0.46-25.41-0.21-50.83-0.14-76.24c-0.53-4.489-1.95-9.51-5.93-12.159c-3.83-2.7-8.76-2.25-13.2-2.141
	c-0.54,16.09-0.3,32.18-0.35,48.271C211.66,333.97,211.16,347.96,211.79,361.92z M285.98,111.31c-28.9,1.18-57.86-0.43-86.74,1.07
	c0.53,0.51,1.58,1.52,2.11,2.03c17.18-0.28,34.37-0.351,51.55-0.521c14.26-2.99,28.89,0.9,43.229-1.24
	C293.16,110.51,289.38,111.35,285.98,111.31z M203.27,362.88c1.79,0.029,3.58,0.029,5.37,0c0.11-7.971,0.23-15.94,0.58-23.9
	c-0.11-13-0.65-26-0.22-38.99c-0.56-9.279,0.03-18.56,0.28-27.829c-0.06-1.181,0.51-2.891,1.96-2.811
	c4.29-0.35,8.69,0.17,12.79,1.49c3.78,1.67,6.5,4.979,8.83,8.29c2.53-3.15,4.78-7.12,8.91-8.351c3.88-1.3,8.33-2.46,12.24-0.64
	c4.12,1.58,6.79,5.311,9.62,8.5c2.17-2.76,4.06-6.05,7.42-7.51c5.11-2.33,11.011-3.32,16.511-1.811
	c0.789,11.54,0.31,23.12,0.439,34.681c0.12,19.359-0.21,38.729,0.15,58.079c1.83-0.079,3.67-0.17,5.51-0.279
	c0.189-32.05,0.23-64.07-0.42-96.11c-14.02-1.68-28.18-0.029-42.26-0.45c-16.021,0.45-32.07-0.02-48.07,0.95
	c-0.43,18.601,0.16,37.21-0.39,55.811C202.79,335.63,202.15,349.27,203.27,362.88z M254.42,159.15c-3.38,1.49-7.27,1.92-10.87,1.221
	c-2.92-1.46-6.18-1.49-9.37-1.471c0.11,0.891,0.32,2.66,0.42,3.551c8.73-0.2,17.46-0.521,26.19-0.471
	c-0.05-0.76-0.17-2.279-0.22-3.04C258.52,158.86,256.359,158.21,254.42,159.15z M214.7,172.56c6.1,0.26,12.22,0.29,18.33,0.03
	c15.66-0.24,31.31-0.32,46.97-0.601c5.35-0.13,10.75,0.461,16.04-0.539c-5.13-1.841-10.71-0.62-16.03-0.94
	c-22.66-0.37-45.33-0.26-67.99-0.24c-4.15,0.12-8.38,0.09-12.35,1.45C204.62,172.75,209.68,172.43,214.7,172.56z M274.16,132.52
	c3.08-1,6.27-0.85,9.369,0.03c-0.909-3.17-0.949-6.43-0.109-9.62c-3.4,0.83-6.859,1.021-10.09-0.5
	C274.3,125.7,275.1,129.13,274.16,132.52z M245.26,159c1.63-0.11,3.25-0.24,4.881-0.391c0.109-7.189,0.42-14.42-0.41-21.59
	c-1.641,0.05-3.271,0.11-4.9,0.19C244.38,144.46,244.66,151.76,245.26,159z M252.811,132.42c-3.541-0.91-7.241-0.91-10.741,0.1
	C245.24,135.18,249.43,133.92,252.811,132.42z M273.75,151.04c0.79,3.3,1.18,6.71,0.32,10.05c3.039-1.19,6.27-1.61,9.52-1.23
	c-0.22-2.92-0.48-5.85-0.49-8.779C279.99,151.45,276.859,151.36,273.75,151.04z M253.439,235.42c-3.109,2.7-7.64,1.63-10.939-0.141
	c-2.92-1.729-6.39-0.369-9.27,0.73c1.04,0.49,2.1,0.92,3.19,1.29c8.25,1.2,16.609,0.71,24.9,0.25c-0.25-1.271-0.51-2.53-0.76-3.79
	C258.1,233.8,255.45,233.79,253.439,235.42z M274.21,226.55c1.24,3.25,1.101,6.66,0.19,9.97c3.02-0.87,6.129-1.05,9.229-0.54
	c-0.13-3.02-0.11-6.04,0.05-9.05C280.529,227.82,277.3,227.53,274.21,226.55z M146.84,317.909l-0.9-30.619L115.06,287l-0.23,31.68
	L146.84,317.909L146.84,317.909z M156.27,260.72c5,5.62,8.31,12.59,13.92,17.69c-0.1-7.381-2.95-14.45-7.18-20.41
	c-5.91-10.141-14.25-18.49-20.93-28.08c-1.71-2.58-3.47-5.15-5.67-7.34c-1.24,1.72-2.44,3.47-3.57,5.27
	c5.25,7.22,9.85,14.9,15.45,21.87C151.17,253.23,153.35,257.24,156.27,260.72z M128.85,211.22c-4.19-6.42-8.59-12.74-12.96-19.05
	c-0.92,0.41-1.84,0.83-2.75,1.25c-0.19,4.01,0.39,8.21,2.84,11.52c3.16,4.19,6.8,8.03,9.5,12.561
	C126.85,215.58,128.7,213.7,128.85,211.22z M170.77,318.17l-0.11-4.79L149.5,314l0.23,4.17H170.77L170.77,318.17z M163.96,165.85
	c-1.85,3.71-4.4,6.95-6.89,10.23c-2.45,3.439-0.17,7.6,1.11,11.029c6.02-7.43,11.41-15.38,16.35-23.569
	C171.07,163.49,165.94,161.96,163.96,165.85z M408.189,155.97c-9.719-0.39-19.459-0.29-29.18,0.01
	c-19.82,0.07-39.64,0.021-59.449,0.931c0.01,0.77,0.02,2.3,0.029,3.069c29.561-0.34,59.131-0.71,88.7-0.81
	C408.26,158.37,408.21,156.77,408.189,155.97z M180.24,283.98c-5.23-20.46-10.71-40.89-15.83-61.39
	c-6.01-19.53-9.94-39.65-16.35-59.061c-2.16-0.14-4.32-0.25-6.48-0.31c0.46,3.59,1.54,7.04,2.7,10.45
	c2.54,8.939,4.8,17.95,7.24,26.92c3.47,10.87,5.46,22.14,8.81,33.04c5.04,17.01,8.49,34.46,14.1,51.3
	C176.37,284.66,178.31,284.34,180.24,283.98z M87.97,163.91c4.75,7.85,9.97,15.439,15.59,22.699c1.02-3.12,2.73-6.79,0.78-9.909
	c-2.36-3.91-4.39-8.12-7.54-11.48C94.5,162.77,90.91,163.68,87.97,163.91z M327.34,452.35c-10.91,2.83-22.24,3.3-33.4,4.55
	c-23.239,2.08-46.589,2.37-69.91,2.53c-12.01-0.78-24.08-0.601-36.04-2.19c-14.3-1.91-28.86-3.47-42.36-8.899
	c-11.59-3.891-22.11-10.65-31.01-18.99c-3.29-2.92-5.7-6.67-9.03-9.55c2.48,7.029,8.08,12.26,12.89,17.729
	c7.8,8.01,17.31,14.721,28.12,17.88c5.89,1.16,11.3,4.051,17.3,4.78c25.55,6.09,51.94,6.88,78.09,7.3
	c8.98-0.54,17.99,0.08,26.96-0.439c7.61-1.55,15.399-1.34,23.1-2.03c16.33-1.81,32.75-3.75,48.521-8.54
	c6.779-2.3,13.97-3.74,19.9-7.979c12.18-7.07,22.399-17.521,28.84-30.07c-5.94,6.37-11.771,13.01-19.261,17.62
	C356.95,443.99,342.3,449.24,327.34,452.35z M401.471,388.32c1.209-3.18,1.52-6.609,1.76-9.979c-0.78-0.09-2.33-0.271-3.11-0.36
	c-1.94,6.521-4.44,12.87-7,19.18c-2.149,5.46-5.75,10.16-8.95,15.03c-6.8,7.62-14.52,14.86-24.04,18.93
	c-4.17,1.721-8,4.181-12.28,5.65c-19.689,7.54-40.979,9.03-61.83,10.21c-15.959,0.73-31.91,1.8-47.89,1.74
	c-13.04-0.62-26.08-1.2-39.12-1.71c-13.08-0.141-25.98-2.57-38.96-3.95c-20.31-4.84-39.36-16.32-51.93-33.17
	c-2.92-4.26-4.99-9.021-7.39-13.59c-2.59-4.88-3.53-10.38-5.39-15.53c-0.94,0.06-2.81,0.2-3.74,0.27
	c1.81,8.5,4.55,16.891,8.91,24.44c4.77,10.79,13.01,19.54,21.84,27.16c6.14,4.43,12.25,9.24,19.63,11.41
	c19.11,7.67,39.65,10.91,60.11,12.22c23.03,1.17,46.1,1.16,69.141,0.06c10.649-0.569,21.35-0.739,31.92-2.25
	c5.58-0.859,11.33-0.479,16.789-2.06c4.36-1.29,8.811-2.22,13.32-2.81c8.37-1.21,15.95-5.16,23.75-8.15
	c15.561-7.93,28.98-20.43,37.15-35.95C397.52,399.94,399,393.909,401.471,388.32z M151.13,437.76c8.46,2.609,17.29,3.49,25.95,5.16
	c15.51,2.449,31.25,2.949,46.92,3.239c10.65-1.12,21.33,0.48,31.99-0.14c13.97-0.72,28-0.38,41.939-1.78
	c18.09-1.75,36.521-3.79,53.461-10.77c7.239-3.47,14.34-7.4,20.68-12.351c6.119-5.64,11.99-11.89,15.63-19.46
	c-3.88,2.761-6.82,6.57-10.47,9.601c-7.69,6.77-17.271,10.87-26.84,14.22c-4.181,1.74-8.41,3.47-12.91,4.18
	c-23.4,5.48-47.53,6.61-71.461,7.301c-23.02,0.199-46.029-0.11-69.04-0.28c-13.53-1.03-27.1-2.28-40.31-5.45
	c-6.08-1.68-12.05-3.76-17.93-6.02c-5.57-2.091-10.5-5.471-15.67-8.351c-4.99-2.78-8.36-7.7-13.51-10.229
	c1.73,3.37,4.19,6.279,6.83,8.97C126.33,425.159,137.63,433.99,151.13,437.76z M90.94,318.8l20.69-0.17l0.1-4.94l-21.21,0.19
	L90.94,318.8L90.94,318.8z M175.57,160.98c-0.12-0.66-0.37-1.99-0.49-2.66c-12.02-0.779-24.06-0.38-36.09-0.75
	c-17.38,0.341-34.78,0.091-52.15,0.78c-0.01,1.04-0.02,2.07-0.02,3.11c14.36,0.939,28.76,0.17,43.13-0.21
	C145.15,160.79,160.36,161.1,175.57,160.98z M397.1,163.08c-3.05,3.79-6.029,7.729-8.129,12.14c-0.82,3.06,0.439,6.27,1.109,9.27
	c2.91-2.649,4.85-6.119,7.15-9.279c3.09-4.4,6.5-8.641,8.869-13.51C403.12,161.72,399.01,159.91,397.1,163.08z M389.7,384.71
	c-5.351,7.449-13.261,12.42-21.091,16.89c-11.529,4.65-23.479,8.56-35.819,10.27c-9.181,1.86-18.55,2.261-27.819,3.4
	c-42.74,3.65-85.75,3-128.521,0.17c-18.01-1.689-36.78-3.85-52.64-13.229c-8.73-5.36-17.19-11.881-22.23-20.99
	c-0.75-0.07-2.27-0.22-3.03-0.29c2.89,10.52,8.87,20.29,17.47,27.08c4.82,4.99,10.68,8.819,16.61,12.359
	c8.17,3.771,16.56,7.42,25.55,8.66c11.74,2.94,23.89,3.271,35.87,4.63c28.98,0.431,58,2.54,86.94,0.271
	c12.17-0.86,24.41-1.04,36.439-3.23c7.61-0.489,15.03-2.279,22.461-3.859c15.709-3.66,30.449-11.67,41.879-23.07
	c6.74-7.47,14-16.03,14.36-26.58C392.98,378.71,391.76,382.13,389.7,384.71z M253.87,207.97c-3.56-2.11-8.5-2.72-11.87,0.07
	C245.88,209.11,250,209.05,253.87,207.97z M392.109,250.86c-5.029-6.649-10.01-13.34-14.899-20.1c-2.41-3.37-4.56-6.97-7.39-10.01
	c-2.211,0.149-2.87,2.64-4.131,4.08c8.931,14.29,18.75,28.02,29.08,41.319c2.221,3.37,4.621,6.63,7.33,9.62
	c-0.59-4.479-1.33-8.97-2.55-13.33C398.32,257.88,394.51,254.78,392.109,250.86z M296.811,286.06l0.16,31.08l24.119-0.22
	l-0.79-30.94L296.811,286.06L296.811,286.06z M283,174.75c-27.68-0.03-55.36-0.03-83.03,0.51c-2.54-0.25-6.2,1.54-5.6,4.53
	c0.34,1.689,1.78,3.239,3.63,2.949c14.65,0.711,29.31,0.9,43.97,0.391c18.93-0.641,37.94-0.05,56.83-1.63
	c0.841-1.98,0.62-4.17,0.671-6.261C294.01,174.45,288.49,174.82,283,174.75z M323.07,93.01c-20.35,0.33-40.711,0.25-61.07,0.229
	c-29.93,0.74-59.89-0.3-89.82,0.681c-0.07,1.56-0.12,3.13-0.15,4.689c10,0.33,20-0.359,30.01-0.109c14.65-0.55,29.31,0.04,43.96-0.5
	c25.76,0.16,51.52-0.11,77.27-0.95C323.2,95.7,323.141,94.36,323.07,93.01z M246.07,234.84c1.53-0.32,3.071-0.65,4.59-1
	c-0.02-7.08,0.46-14.21-0.2-21.26c-1.21-0.841-2.601-1.341-3.94-1.91C245.04,218.6,244.61,226.87,246.07,234.84z M212.5,207.08
	c3.09-1.011,6.32-0.931,9.48-0.28c-0.72-3.16-0.93-6.4-0.34-9.59c-3.17,0.899-6.48,0.88-9.65,0.02
	C212.78,200.45,213.19,203.8,212.5,207.08z M212.28,227.23c0.78,3.03,1.06,6.16,1.06,9.29c2.99-0.06,5.97,0.04,8.95,0.34
	c-0.14-3.08-0.29-6.159-0.33-9.25C218.73,228.09,215.45,227.97,212.28,227.23z M314.76,283.36c2.2,0.07,4.391-0.069,6.57-0.35
	c3.05-12.521,6.63-24.91,9.29-37.51c1.18-5.011,2.96-9.851,4.101-14.87c1.989-9.49,5.68-18.55,7.049-28.18
	c3.59-13.301,7.32-26.62,9.15-40.311c-1.891,0.12-3.779,0.25-5.66,0.39c-8.939,34.2-17.63,68.45-26.119,102.75
	C318.15,271.44,315.189,277.1,314.76,283.36z M349.52,316.56l29.94-0.01l-0.021-31.33l-29.959,0.84L349.52,316.56L349.52,316.56z
	 M383.6,316.56l20.891-0.81l-0.04-4.41l-21.82,0.439L383.6,316.56L383.6,316.56z M359.26,218.24c-3.74,5.87-8.38,11.11-11.81,17.181
	c-5.171,7.49-10.2,15.1-15.7,22.35c-3.26,5.681-4.83,12.271-5.37,18.76c7.63-10.149,14.44-20.899,22.2-30.96
	c5.18-7.8,10.63-15.42,15.73-23.27c5.689-7.15,10.26-15.08,15.569-22.5c2.181-2.87-0.399-6.38-1.44-9.2
	C372.359,200.04,365.061,208.62,359.26,218.24z M346.95,198.99c2.569,6.04,7.47,10.671,10.96,16.171
	c1.33-1.75,2.609-3.521,3.859-5.33c-3.93-7.021-8.93-13.341-14.039-19.53C346.91,193.07,345.45,196.18,346.95,198.99z
	 M324.77,317.039l21.51-0.35l-0.59-4.81l-21.6,0.729L324.77,317.039L324.77,317.039z M320.46,161.88
	c4.56,8.07,9.899,15.78,16.22,22.58c0.78-2.58,2.78-5.42,1.17-8.09c-2.59-4.37-5.029-8.95-8.51-12.7
	C327.13,161.09,323.439,161.87,320.46,161.88z M146.81,203.82c2.73-3.52,1.02-8.199-0.57-11.819
	c-5.15,9.31-12.76,16.88-18.27,25.939c-2.26,3.391-5.03,6.4-7.24,9.83c-5.24,8.021-11.29,15.49-16.3,23.66
	c-2.71,4.25-6.38,7.93-8.24,12.7c-1.78,4.689-2.73,9.66-3.15,14.649c1.21-1.38,2.36-2.819,3.41-4.34
	c9.21-13.399,18.87-26.479,28.23-39.77C132.52,224.72,139.49,214.14,146.81,203.82z M99.98,324.98c32.31-0.34,64.63-0.69,96.95-0.77
	c1.74,0.029,2.86-0.841,3.36-2.631c-3.08-0.34-6.18-0.369-9.28-0.34c-36.67,0.141-73.35-0.25-110.01,0.261
	c-9.57,0.149-19.16-0.32-28.71,0.449c0.05,0.75,0.16,2.25,0.21,3C68.32,325.09,84.16,324.32,99.98,324.98z M76.01,319.619
	l11.62-0.96l-0.29-31.319l-34.57,0.479v31.021L76.01,319.619L76.01,319.619z M95.95,254.96c5.56-19.04,9.87-38.44,15.43-57.5
	c2.38-11.26,5.4-22.4,7.51-33.7c-2.42,0-4.84,0.05-7.26,0.18c-6.13,29.351-14.74,58.11-21.57,87.29c-1.14,5.3-3.31,10.32-4.24,15.67
	c-1.08,6.221-3.55,12.12-4.42,18.4c2.43-0.13,4.86-0.34,7.27-0.6C91.26,274.83,94.12,265.01,95.95,254.96z M195.24,335.26l-5.36-1.2
	l-2.94-4.62l-2.08,5.15l-6.45,0.35l4.82,4.41l-1.24,5.9l3.9-3.211l6.1,3.101l-0.7-5.87L195.24,335.26L195.24,335.26z M183.99,347.81
	c1.59,0.33,3.19,0.64,4.79,0.94c0.14-0.7,0.42-2.101,0.55-2.801c-1.53-0.189-3.05-0.359-4.58-0.54
	C184.5,346.199,184.24,347,183.99,347.81z M138.96,335.47l-4.45-0.95l-3.45-4.97l-2.12,5.319l-6.88,0.49l5.18,3.62l-1.22,6.08
	l4.97-2l5.02,1.78l-0.2-5.61L138.96,335.47L138.96,335.47z M163.39,333.76l-3.61-4.2l-1.16,4.76l-7.32,0.55l5.03,4.23l-0.78,5.82
	l4.28-2.801l5.78,2.57l-1-5.62l3.64-3.64L163.39,333.76L163.39,333.76z M156.64,348.21c2.64-0.03,5.27-0.271,7.88-0.721
	c-1.24-0.76-2.41-1.71-3.82-2.12C158.74,344.6,157.89,347.22,156.64,348.21z M153.59,143.92c0.8-0.99,1.51-2.04,2.14-3.15
	c-4.49-0.39-9.01-0.319-13.51-0.17c0.07,0.83,0.22,2.5,0.3,3.34C146.19,144.2,149.95,144.73,153.59,143.92z M143.99,156.24
	c10.73-0.34,21.45-0.67,32.18-0.88c0.1-3.01-0.01-6.02-0.43-8.989c-9.9-0.28-19.8-0.11-29.69,0.14c-19.91-0.16-39.8,0.25-59.71,0.41
	c-0.02,3.09,0,6.18,0.19,9.27C105.69,156.32,124.84,156.22,143.99,156.24z M189.01,91.52c26.67-0.03,53.34-0.58,80.01-0.55
	c18.11-0.82,36.291,0.7,54.36-1.08c0.24-7.3,0.07-14.6,0.12-21.89c-0.061-5.891,0.3-11.8-0.57-17.65
	c-7.459-0.22-14.93,0.11-22.38,0.47c-0.239,8.95-0.54,17.9-0.569,26.86c-6.24-0.82-12.621,0.85-18.74-0.99
	c-0.86-1.75-0.721-3.75-0.77-5.649c0.02-6.721,0.059-13.44-0.011-20.16c-7.351-1.13-14.81-0.58-22.2-0.311
	c-0.029,8.87,0.03,17.74-0.039,26.601c-6.291,1.16-12.701,0.609-19.041,0.33c-1.48-8.851-0.62-17.811-1.18-26.71
	c-7.77,0.42-15.92-1.181-23.44,1.12c-0.19,8.77,0.02,17.54-0.06,26.31c-6.06-0.02-12.15,0.34-18.18-0.44
	c-0.03-8.819,0.6-17.68-0.6-26.47c-7.85-0.5-15.75-0.97-23.6-0.14c-0.32,13.34-0.06,26.68,0.14,40.02
	C177.81,92.02,183.43,91.75,189.01,91.52z M175.62,143.26c0.37-5.09,0.46-10.2-0.1-15.271c-5.78-0.71-11.64-0.729-17.4,0.16
	c-0.19,5.141-0.17,10.28-0.03,15.431C163.91,144.35,169.87,144.68,175.62,143.26z M139.63,143.52c-0.18-5.12,0.39-10.25-0.01-15.37
	c-6.08-1.199-12.28-0.47-18.35,0.41c-0.03,5.24-0.05,10.48,0.04,15.72C127.42,144.76,133.57,144.41,139.63,143.52z M103.9,143.64
	c-0.37-4.99,0.51-10.27-1.02-15.06c-5.3-0.25-10.61-0.011-15.91-0.061c-0.55,5.44-0.61,10.92-0.32,16.38
	C92.42,145.12,98.23,144.77,103.9,143.64z M119.23,140.58c-4.17-0.25-8.34-0.67-12.52-0.45c-0.09,1.34-0.17,2.68-0.24,4.02
	c4.25-0.189,8.49-0.42,12.75-0.46C119.22,142.65,119.22,141.61,119.23,140.58z M67.38,332.579c0.21-1.6,0.4-3.199,0.58-4.79
	c-5.14-0.05-10.29-0.06-15.43,0c-0.15,7.04,0.08,14.08,0.38,21.12c3,0.221,6.03,0.33,9.03-0.01c1.93-2.49,1.81-5.89,2.49-8.84
	c-1.6-1.83-6.13-3.45-4.76-6.28C62.16,332.98,64.81,332.949,67.38,332.579z M70,354.5c27.66-0.11,55.32,0.289,82.97-0.341
	c15.91-0.42,31.83-0.35,47.73-0.909c-0.5-1.851-2.02-2.45-3.79-2.25c-22.97,0-45.94-0.011-68.92,0c-17.97,0.63-35.97-0.12-53.95,0.5
	c-7.41,0.22-14.89-0.601-22.23,0.739c0.58,0.54,1.74,1.601,2.32,2.141C59.41,354.73,64.71,354.39,70,354.5z M200.15,347.81
	c-0.04-7.06,0.16-14.18-0.76-21.19c-3.33-0.159-6.66-0.119-9.98,0.15c0.51,1.82,1.08,3.62,1.69,5.41c2.88,0.02,5.78,0.22,8.37,1.63
	c-1.55,2.3-3.67,4.14-5.21,6.43c0.26,2.59,1.21,5.03,1.86,7.54C197.46,347.8,198.8,347.81,200.15,347.81z M177.65,347.789
	c1.75-2.149,2.06-4.989,2.66-7.6c-2.26-1.93-4.34-4.07-5.86-6.64c2.81-0.74,5.74-0.84,8.56-1.511c0.66-1.51,0.98-3.13,1.36-4.71
	c-7.03-1.119-14.25-1.579-21.31-0.409c0.35,1.619,0.71,3.25,1.07,4.88c2.87,0.41,5.72,0.989,8.48,1.939
	c-1.45,2.32-3.33,4.311-5.34,6.16c0.84,2.9,1.75,5.78,2.7,8.66C172.52,348.369,175.15,348.46,177.65,347.789z M399.5,402.449
	c-4.71,14.19-13.04,26.96-23.21,37.83c-6.649,6.67-15.55,10.23-24.11,13.721c-8.93,3.479-17.91,7.109-27.41,8.71
	c-36.289,7.8-73.619,7.189-110.52,6.97c-12.79-1.53-25.75-1.8-38.37-4.55c-13.03-2.78-26.56-4.351-38.65-10.341
	c-15.36-7.46-27.59-20.64-35.16-35.819c-3.64-6.17-5.6-13.101-8.15-19.75c-2.13-6.101-3.27-12.53-5.77-18.521
	c-1.78,0.181-3.56,0.391-5.33,0.62c1.29,10.26,4.74,20.08,7.92,29.87c2.33,7.17,6.59,13.46,9.83,20.21
	c2.52,5.22,5.77,10.09,9.53,14.49c6.42,6.35,13.39,12.189,21.08,16.96c6.2,3.12,12.55,6.16,19.37,7.67
	c12.47,3.05,25.07,5.79,37.88,6.89c13.15,1.4,26.36,2.641,39.59,2.48c22.22-0.97,44.52-0.2,66.669-2.45
	c19.73-1.64,39.66-4.21,58.201-11.5c10.35-4.33,19.93-10.41,28.59-17.52c2.24-1.79,3.819-4.221,5.42-6.561
	c3.02-4.609,6.529-8.899,9.31-13.66c4.78-8.41,8.21-17.47,11.39-26.58c2.78-7.63,3.82-15.77,4.541-23.81
	c-1.841,0.17-3.73,0.17-5.5,0.74C404.18,386.48,402.48,394.659,399.5,402.449z M127.88,348.21c2.35-0.051,4.68-0.29,7-0.7
	c-1.28-0.87-2.56-1.74-3.94-2.431C129.81,346.01,128.79,347.05,127.88,348.21z M411.02,353.81l-59,0.97l-55.189,1.23l0.061,19.689
	l64.06-0.46l81.74-0.779l-0.181-20.15L411.02,353.81L411.02,353.81z M149.79,348.88c2.54-1.67,3.17-5.021,3.71-7.801
	c-1.01-3.13-4.55-4.579-6.22-7.369c2.91-0.881,5.93-1.28,8.95-1.591c0.38-1.72,0.71-3.449,1.01-5.18
	c-8.14-0.33-16.34-0.35-24.45,0.62c0.61,1.27,1.28,2.5,2.01,3.71c2.82,1.16,5.91,1.53,8.73,2.73c-1.43,2.22-3.39,4.029-4.91,6.189
	c-0.5,2.84-0.07,6.05,2.02,8.2C143.63,349.01,146.74,349.09,149.79,348.88z M199.79,356.61l-67.77,0.15l-46.04,0.529l-33.42,0.87
	l0.88,19.801l146.04-1.261L199.79,356.61L199.79,356.61z M73.65,334.38l-2.76-5.351l-2.38,5.811l-6.15,0.22l3.63,4.32l0.07,6.029
	l4.25-2.13l5.65,2.141l-0.52-5.271l3.89-5.38L73.65,334.38L73.65,334.38z M98.38,347.869c2.58,0.881,5.29,1.12,7.98,0.551
	c-1.17-1.181-2.27-2.431-3.66-3.351C100.93,345.38,99.72,346.81,98.38,347.869z M104.69,333.42l-3.15-3.69l-1.8,4.7l-6.47,1.04
	l4.42,4.16l-0.76,5.96l5.24-2.471l4.87,2.04l-0.39-5.199l3.84-4.761L104.69,333.42L104.69,333.42z M122.45,348.329
	c0.79-2.699,1.47-5.43,2-8.199c-2.26-1.801-4.31-3.83-5.96-6.2c2.88-0.92,5.87-1.42,8.87-1.72c0.34-1.71,0.68-3.431,0.99-5.15
	c-7.9-0.2-15.8,0.1-23.68,0.479c0.2,1.561,0.42,3.12,0.66,4.681c3.05,0.689,6.44,0.67,9.03,2.64c-1.47,1.76-3.34,3.13-4.88,4.83
	c-0.84,3.28,1.41,6.38,2.5,9.37C115.48,349.07,118.99,348.92,122.45,348.329z M67.78,349.159c2.57-0.29,5.14-0.58,7.69-1.05
	c-1.82-1.89-4.28-2.33-6.78-2.359C68.46,346.61,68.01,348.31,67.78,349.159z M91,349.05c4.75,0.239,3.93-5.91,4.37-9.08
	c-2.03-1.75-4.1-3.46-6.01-5.34c2.64-1.601,5.82-1.49,8.65-2.561c0.68-1.34,1.11-2.78,1.61-4.189c-8.96-0.601-18-1.03-26.97-0.271
	c0.45,1.68,0.94,3.36,1.45,5.03c2.59,0.38,5.2,0.67,7.81,0.96c0.04,0.56,0.11,1.67,0.15,2.229c-1.47,1.421-2.95,2.841-4.42,4.271
	c0.79,2.56,0.58,5.729,2.56,7.74C83.53,349.43,87.41,349.11,91,349.05z M212.57,75.66c0.01-1.58-0.01-3.16-0.03-4.74
	c-4.31-0.681-8.86-0.94-13.03,0.52c-0.56,1.48-0.75,3.061-0.99,4.61C203.2,76.61,207.91,76.24,212.57,75.66z M391.99,331.84
	l-6.131,0.81l3.641,4.01l0.45,5.681l4.2-2.551l4.8,2.49l-0.341-5.1l3.291-4.49l-4.49-1.08l-3.65-4.66L391.99,331.84L391.99,331.84z
	 M364.641,327.3l-2.381,5.02l-5.869,0.771l4.709,4.13l-0.35,4.75l8.85,0.069l-0.35-4.77l3.05-4.53l-5.21-0.649L364.641,327.3
	L364.641,327.3z M367.891,325.539c0.02,1.16,0.039,2.33,0.069,3.5c3.181,0.641,6.39,1.25,9.46,2.351c-1.6,2.42-3.891,4.32-5.38,6.81
	c0.239,2.721,0.56,6.101,3.21,7.601c3.15,0.13,6.311,0.069,9.46-0.17c1.431-1.53,2.31-3.58,2.56-5.65
	c0.73-3.55-3.279-4.93-5.289-7.05c0.209-0.62,0.619-1.86,0.83-2.47c2.469-0.29,4.949-0.46,7.43-0.591
	c0.41-1.729,0.74-3.479,1.05-5.229C383.48,324.32,375.66,324.829,367.891,325.539z M391.721,346.42
	c1.789-0.29,3.579-0.591,5.379-0.881c-0.06-0.539-0.189-1.63-0.25-2.17c-1.649-0.069-3.289-0.119-4.92-0.17
	C391.88,344,391.77,345.61,391.721,346.42z M339.29,325.73c0.33,1.32,0.66,2.63,1.01,3.95c2.851,0.439,6.229,0.04,8.431,2.32
	c-0.26,2.89-3.17,4.359-4.91,6.369c0.729,2.73,1.63,5.42,2.689,8.04c3.17-0.319,6.49-0.029,9.53-1.109
	c0.91-2.3,1.479-4.71,2.149-7.08c-1.85-1.65-3.68-3.311-5.43-5.061c0.2-0.64,0.59-1.909,0.79-2.55c2.46-0.09,4.921-0.18,7.39-0.37
	c0.281-1.67,0.561-3.33,0.83-5C354.279,325.09,346.75,325.02,339.29,325.73z M365.9,346.329c0.52-0.609,1.57-1.819,2.09-2.43
	c-2.211,0.11-4.43,0.32-6.561,0.93C362.84,345.579,364.33,346.079,365.9,346.329z M340.43,345.199c-2.49-1.14-5.13-1.199-7.13,0.88
	C335.73,346.63,338.25,346.539,340.43,345.199z M233.91,350.579c0.07,0.771,0.19,2.311,0.25,3.091c7.59-0.4,15.18-0.011,22.76-0.12
	c2.391,0.09,4.46-1.11,5.93-2.931C253.23,349.67,243.56,350.71,233.91,350.579z M255.37,75.59c0.101-1.62,0.18-3.23,0.229-4.84
	c-4.939-0.79-10-1.05-14.919,0.02c-0.05,1.561-0.09,3.12-0.11,4.681C245.46,76.35,250.46,76.28,255.37,75.59z M297.09,331.99
	c3.01-0.58,6.02-1.239,9.061-1.689c0.289-1.41,0.58-2.82,0.869-4.221c-3.399-0.1-6.799-0.09-10.199-0.05
	C297.08,327.85,295.37,330.97,297.09,331.99z M396.3,324.75c0.57,1.399,1.06,2.859,1.91,4.13c2.319,0.81,4.78,1.12,7.17,1.659
	c0.149,0.631,0.44,1.9,0.591,2.53c-1.611,1.38-3.201,2.76-4.791,4.15c0.791,2.67,1.391,5.42,2.631,7.939
	c2.989,0.551,6.069,0.641,9.109,0.601c3.96,0.31,4.46-4.73,5.13-7.61c-1.39-2.63-4.04-4.229-5.979-6.41
	c2.09-2.729,5.55-2.75,8.65-3.149c0.199-1.38,0.39-2.761,0.579-4.141C413.01,323.01,404.6,324.07,396.3,324.75z M233.97,356.82
	c0.02,1.891,0.04,3.8,0.08,5.7c9.46,0.18,19.04,1.13,28.421-0.46c0.059-1.76-0.041-3.51-0.101-5.26
	C252.93,356.35,243.34,355.07,233.97,356.82z M281.05,270.26c-3.399,0.51-6.84,1.35-9.93,2.87c-3.931,2.609-6.63,7.21-6.61,11.979
	c-0.85,25.521,0.77,51.05,0.721,76.57c6.52,0.26,13.1,1.53,19.569,0.13c0.64-29.24-0.239-58.5-0.069-87.75
	C285.13,271.89,283.3,269.76,281.05,270.26z M421.21,345.22c2.49,0.069,4.99-0.04,7.47-0.311c-1.359-1.029-2.449-2.89-4.35-2.79
	C423.17,343.02,422.21,344.15,421.21,345.22z M422.41,331.51l-6.28,0.859l4.58,4.07l-0.739,5.28l9.819-0.42l-0.98-5.2l3.681-3.43
	l-5.48-1.851l-2.99-4.39L422.41,331.51L422.41,331.51z M429.39,328.55c2.67,0.5,5.351,1.069,7.79,2.33
	c-1.62,2.279-3.489,4.359-5.359,6.43c0.63,2.6,1.05,5.33,2.39,7.69c2.67,0.659,5.42,0.119,8.12-0.011
	c0.26-6.95,0.25-13.92,0.02-20.87c-5.229-0.189-10.5-0.35-15.68,0.471C427.45,325.94,427.44,328.35,429.39,328.55z M334.779,333.03
	l-6.109,0.601l4.08,4.689l-0.07,4.25l9.41-0.04l-0.85-5.83l3.92-3.02l-4.85-0.98l-3.57-4.729L334.779,333.03L334.779,333.03z
	 M372.07,141.6c0.75-5.189,1.05-10.51-0.1-15.67c-5.711-0.12-11.431-0.67-17.131-0.15c-0.189,5.301,0.52,10.58,0.439,15.881
	C360.88,141.89,366.51,142.75,372.07,141.6z M319.18,144.88c-0.34,3.31-0.47,6.649,0.051,9.95c10.59,0.02,21.18-0.07,31.77-0.341
	c7.67,0.051,15.34,0.101,22.98-0.579c11.26-1.011,22.6,0.27,33.84-1c1.56-2.721,0.85-5.971,0.63-8.921
	c-11.16,0.12-22.32-0.22-33.479,0.211C356.38,145.29,337.75,143.33,319.18,144.88z M408.42,141.43
	c0.061-5.29,0.85-10.66-0.609-15.83c-5.851,0.08-11.69-0.77-17.531-0.29c-0.559,5.53,0.051,11.08,0.091,16.62
	C396.391,142.05,402.43,142.19,408.42,141.43z M388.16,141.21c-2.23-5.021-8.77-2.931-13.02-2.26c0.25,1.01,0.5,2.029,0.77,3.05
	C379.99,141.71,384.08,141.57,388.16,141.21z M284.45,75.48c4.19,0.63,8.47,0.25,12.69-0.01c0.1-1.76,0.139-3.51,0.129-5.27
	c-4.819-0.721-9.699-0.381-14.5,0.359C283.13,72.25,282.029,75.12,284.45,75.48z M319.1,141.83c6.051,0.939,12.16,0.55,18.23,0.06
	c0.359-5.2,0.24-10.43-0.71-15.56c-5.8-0.17-11.61-0.13-17.399,0.25C318.71,131.65,318.891,136.74,319.1,141.83z M351.83,141.86
	c-0.02-0.689-0.04-2.069-0.051-2.76c-3.67-0.82-7.42-0.8-11.149-0.57c0.011,1.171,0.03,2.351,0.07,3.53
	C344.41,142.04,348.12,142.02,351.83,141.86z M406.83,315.65l21.16,0.36l14.47-1.03l-0.05-25.01l-0.78-5.53l-13.66-0.35l-21.3,0.31
	L406.83,315.65L406.83,315.65z M313.779,346.05c-1.219-0.7-2.389-1.53-3.75-1.931c-1.52,0.2-2.619,1.391-3.799,2.24
	C308.75,346.77,311.3,346.6,313.779,346.05z M296.811,347.17c0.85-0.051,2.56-0.15,3.41-0.2c1.039-3.07,4.629-7.48,0.889-9.9
	c-1.289-0.99-2.31-2.56-3.939-2.96C295.24,338.11,296.891,342.869,296.811,347.17z M380.98,161.76c-2.201,0-4.391,0.02-6.58,0.07
	c1.02,5.609,2.699,11.08,4.09,16.609c4.119,14.641,7.63,29.42,11.949,44.011c0.98,6.539,3.58,12.649,5.011,19.1
	c3.86,13.46,7.03,27.09,11.05,40.51c2.529-0.05,5.07-0.18,7.59-0.439c-9.13-32.87-18.02-65.82-27-98.74
	C385.061,175.84,383.5,168.66,380.98,161.76z M310.04,327.86l-1.49,4.69l-6.85,1.35l3.94,3.22l-0.761,5.83l5.08-1.5l5.03,1.44
	l-0.73-5.39l3.27-3.921l-5.289-0.979L310.04,327.86L310.04,327.86z M312.27,326.159c0.471,1.311,0.891,2.65,1.551,3.891
	c2.89,0.84,5.89,1.25,8.75,2.229c-1.881,2.4-3.971,4.63-5.98,6.92c0.95,2.471,2.01,4.9,3.141,7.301c2.47,0,4.939-0.021,7.41-0.04
	c1.31-2.591,2.409-5.28,3.18-8.07c-2.301-1.88-4.61-3.74-6.69-5.87c2.899-1.78,6.29-2.14,9.58-2.58c0.13-1.37,0.261-2.74,0.38-4.1
	C326.5,325.43,319.32,325.07,312.27,326.159z M388,351.5c16.7,0.21,33.38-0.681,50.08-0.73c1.92,0.08,3.83-0.29,5.55-1.17
	c-9.06-2.11-18.43-0.82-27.63-1.35c-39.74,0.35-79.471,1.27-119.21,1.81c0.04,0.72,0.12,2.16,0.16,2.88
	C327.29,352.22,357.641,351.59,388,351.5z M423,319.01c-14.67-0.221-29.33,0.39-43.99,0.24c-24.34-0.101-48.689,1.68-73,0.05
	c-3.619-0.21-7.3,0.109-10.609,1.68c1.449,0.82,2.869,1.96,4.66,1.771c44.619-0.66,89.26-0.29,133.88-1.25
	c3.02,0,6.029-0.271,9.01-0.771c-0.53-0.46-1.601-1.4-2.13-1.87C434.89,318.32,428.94,319.22,423,319.01z"/>
<g>
	<polygon fill="#D2AB67" stroke="#000000" stroke-width="3.5" points="61.151,215.117 51.228,220.333 53.124,209.285 45.097,201.46 
		56.19,199.848 61.151,189.796 66.112,199.848 77.205,201.46 69.178,209.285 71.074,220.333 	"/>
	<polygon fill="#D2AB67" stroke="#000000" stroke-width="3.5" points="433.702,215.117 423.779,220.333 425.675,209.285 
		417.647,201.46 428.741,199.848 433.702,189.796 438.663,199.848 449.757,201.46 441.729,209.285 443.625,220.333 	"/>
	<polygon fill="#D2AB67" stroke="#000000" stroke-width="3.5" points="357.99,89.912 346.897,88.3 354.925,80.476 353.029,69.427 
		362.951,74.644 372.874,69.427 370.979,80.476 379.006,88.3 367.912,89.912 362.951,99.964 	"/>
	<polygon fill="#D2AB67" stroke="#000000" stroke-width="3.5" points="125.49,89.912 114.397,88.3 122.424,80.476 120.529,69.427 
		130.451,74.644 140.375,69.427 138.478,80.476 146.506,88.3 135.412,89.912 130.451,99.964 	"/>
</g>
</svg>
