<?xml version="1.0" encoding="UTF-8" ?>
<!DOCTYPE svg PUBLIC "-//W3C//DTD SVG 1.1//EN" "http://www.w3.org/Graphics/SVG/1.1/DTD/svg11.dtd">
<svg width="485pt" height="584pt" viewBox="0 0 485 584" version="1.1" xmlns="http://www.w3.org/2000/svg">
<g id="#fefefeff">
<path fill="#fefefe" opacity="1.00" d=" M 0.00 0.00 L 485.00 0.00 L 485.00 584.00 L 0.00 584.00 L 0.00 0.00 M 1.01 1.01 C 1.05 116.02 0.88 231.02 1.09 346.03 C 1.22 380.22 9.42 414.12 24.00 444.99 C 35.53 469.90 52.39 491.96 71.34 511.67 C 98.84 539.05 133.31 558.85 170.13 570.75 C 181.11 573.46 192.08 576.30 203.17 578.60 C 232.52 582.50 262.67 582.39 291.59 575.59 C 327.11 568.30 360.45 552.12 389.24 530.24 C 414.15 509.73 436.41 485.41 452.09 457.07 C 471.01 425.04 481.08 388.06 482.93 351.02 C 483.10 234.35 482.96 117.68 482.99 1.01 C 322.33 1.00 161.67 0.99 1.01 1.01 Z" />
<path fill="#fefefe" opacity="1.00" d=" M 7.01 7.01 C 163.67 7.00 320.33 6.99 476.99 7.01 C 477.00 118.68 477.03 230.34 476.98 342.01 C 477.25 385.05 463.88 427.70 440.90 463.96 C 432.32 478.25 420.83 490.44 409.89 502.89 C 397.33 514.75 384.71 526.82 369.96 535.96 C 320.49 569.12 258.11 581.31 199.58 571.42 C 182.01 567.17 164.11 563.22 147.80 555.19 C 141.79 552.15 135.57 549.54 129.51 546.61 C 80.59 520.44 42.29 476.06 21.70 424.72 C 13.00 398.69 6.67 371.61 7.02 344.01 C 6.97 231.67 7.01 119.34 7.01 7.01 M 239.65 27.69 C 230.60 29.45 222.68 34.85 217.11 42.11 C 213.17 47.89 206.04 49.36 200.08 52.20 C 186.55 58.77 172.66 64.56 159.22 71.31 C 153.88 66.43 147.83 62.42 142.17 57.99 C 139.88 51.79 139.22 44.95 136.03 39.03 C 125.34 40.80 114.47 40.71 103.68 40.20 C 105.01 44.55 106.53 48.85 108.08 53.12 C 100.03 53.70 91.84 54.60 83.85 53.20 C 73.27 49.64 68.78 38.69 64.03 29.54 C 57.79 37.13 58.29 47.32 60.66 56.35 C 63.24 63.89 56.66 71.08 59.37 78.59 C 60.39 84.48 65.51 88.27 69.45 92.24 C 70.23 85.57 70.77 77.92 76.68 73.66 C 81.98 67.42 90.80 70.04 97.57 72.12 C 93.98 73.91 90.34 75.59 86.69 77.23 C 90.95 81.47 94.48 86.38 97.94 91.28 C 102.86 86.85 107.27 81.90 111.64 76.94 C 115.91 79.59 120.24 82.19 124.18 85.34 C 121.00 89.23 115.99 90.96 112.49 94.50 C 110.42 97.22 111.33 101.14 110.42 104.18 C 118.62 101.27 126.65 97.89 134.74 94.68 C 135.87 96.67 137.02 98.65 138.16 100.63 C 130.84 103.56 123.52 106.49 116.31 109.66 C 118.18 111.74 120.01 114.55 123.00 114.96 C 131.15 114.86 138.50 111.12 146.05 108.54 C 151.77 111.96 157.85 114.71 164.03 117.17 C 167.07 111.50 170.08 105.68 170.88 99.19 C 179.58 94.82 188.83 91.71 197.71 87.74 C 214.03 80.71 230.60 73.20 248.55 71.80 C 252.37 72.07 256.13 72.96 259.89 73.71 C 258.57 84.47 248.98 91.47 240.16 96.22 C 224.27 103.85 207.25 108.63 190.77 114.72 C 171.07 121.44 150.07 127.17 133.78 140.78 C 121.95 149.11 114.28 161.99 109.33 175.34 C 105.23 188.32 107.10 202.52 111.91 215.04 C 120.28 237.60 142.78 252.22 147.19 276.70 C 150.90 273.11 156.37 269.30 153.76 263.17 C 151.55 250.46 143.81 239.85 138.46 228.38 C 147.34 239.18 154.73 251.76 157.57 265.59 C 158.53 269.87 155.70 273.74 154.44 277.67 C 157.71 276.49 161.57 275.72 163.69 272.70 C 165.92 269.46 164.76 265.19 164.43 261.65 C 162.40 252.17 157.55 243.66 154.07 234.69 C 159.66 241.78 164.09 249.87 166.36 258.65 C 167.44 264.18 166.52 269.86 166.48 275.46 C 168.82 273.53 171.69 271.72 172.56 268.62 C 173.80 263.70 173.41 258.62 173.63 253.61 C 175.59 259.11 176.79 265.57 173.92 270.97 C 172.42 274.05 169.68 276.17 167.02 278.18 C 176.09 290.34 187.83 300.52 201.06 307.92 C 215.40 314.36 230.08 320.12 244.96 325.19 C 243.16 321.05 241.17 317.00 239.85 312.69 C 248.10 323.06 254.79 334.57 262.84 345.11 C 270.69 357.55 280.11 368.96 287.13 381.92 C 290.42 386.68 289.05 393.42 285.89 397.89 C 281.10 402.49 274.26 403.97 268.25 406.38 C 269.30 399.33 271.12 392.30 270.67 385.12 C 269.72 376.74 264.38 369.93 262.25 361.95 C 259.88 355.10 259.63 347.53 255.85 341.21 C 253.20 336.71 250.36 332.06 246.31 328.74 C 236.09 324.13 225.13 321.42 214.76 317.15 C 224.50 335.27 234.67 353.19 243.18 371.94 C 246.85 379.76 244.17 388.77 246.34 396.94 C 247.25 402.57 250.80 407.18 252.48 412.54 C 237.64 418.65 223.12 425.57 208.02 431.00 C 200.55 434.08 191.20 433.98 185.78 440.77 C 176.36 452.37 168.31 465.09 157.94 475.95 C 152.45 482.60 144.65 488.75 144.26 498.08 C 144.54 501.68 146.07 505.07 147.20 508.48 C 148.82 505.60 150.10 502.53 151.92 499.77 C 155.00 495.60 160.41 493.69 163.03 489.10 C 166.85 482.68 171.28 476.54 177.03 471.69 C 174.96 482.37 168.67 492.32 170.51 503.56 C 171.23 510.64 175.60 517.36 182.51 519.71 C 181.72 515.84 180.72 511.95 180.55 508.00 C 181.09 503.81 183.79 500.19 184.25 496.00 C 184.07 491.24 182.59 486.47 183.77 481.72 C 185.76 476.76 189.14 472.57 191.93 468.07 C 194.14 464.04 194.62 459.36 195.95 455.03 C 196.79 455.01 198.46 454.96 199.30 454.93 C 200.89 465.54 206.21 475.04 208.33 485.51 C 212.61 480.64 216.09 474.57 215.72 467.87 C 216.01 461.61 211.55 456.75 210.20 450.94 C 209.89 447.82 212.78 445.58 215.26 444.30 C 227.37 438.51 239.78 433.30 252.54 429.12 C 253.04 442.85 253.01 456.59 253.62 470.32 C 253.70 478.89 254.12 487.65 251.88 496.02 C 250.35 501.50 244.08 503.04 239.17 504.30 C 227.12 505.57 214.89 502.85 202.88 504.87 C 195.26 506.82 191.68 514.45 188.81 521.02 C 192.33 519.90 195.75 518.38 199.38 517.66 C 204.22 517.23 209.06 520.40 213.89 518.79 C 221.89 516.44 230.14 512.89 238.59 515.25 C 229.00 518.78 219.12 521.43 209.43 524.66 C 200.55 528.24 195.21 537.48 195.37 546.89 C 200.73 542.99 206.10 538.11 213.19 538.22 C 219.63 537.49 223.40 531.33 229.32 529.37 C 232.64 528.25 236.13 527.76 239.57 527.11 C 234.47 532.56 227.83 536.11 221.22 539.39 C 215.42 542.39 211.18 547.89 208.81 553.89 C 207.77 557.65 209.05 561.64 209.63 565.41 C 213.55 561.52 216.47 555.92 222.02 554.25 C 226.25 553.75 229.57 551.22 232.06 547.99 C 237.33 541.66 245.66 539.21 251.48 533.60 C 254.73 528.53 256.05 521.94 261.85 518.93 C 272.64 524.41 285.51 522.76 295.67 529.81 C 294.51 523.60 291.81 517.19 286.31 513.66 C 281.52 509.59 274.89 510.29 269.24 508.62 C 267.45 506.13 267.43 502.87 267.40 499.93 C 268.86 474.47 266.43 448.98 268.41 423.52 C 277.74 420.84 287.08 418.19 296.40 415.48 C 303.89 413.31 311.05 407.78 313.08 400.01 C 314.60 393.69 311.78 387.51 309.27 381.87 C 304.08 370.31 300.73 358.06 296.80 346.05 C 295.87 342.71 292.75 340.72 290.07 338.92 C 276.89 329.92 265.37 318.82 253.05 308.74 C 268.15 315.96 278.09 330.47 293.00 337.99 C 299.91 341.82 307.67 343.79 315.41 345.14 C 307.70 338.16 299.50 331.75 291.63 324.98 C 302.01 327.36 307.82 337.38 317.05 341.91 C 323.56 345.76 331.35 343.35 338.43 342.86 C 325.11 336.21 312.19 328.69 298.53 322.73 C 285.43 319.46 273.78 312.49 262.35 305.58 C 249.89 297.31 245.49 282.38 240.73 269.11 C 237.82 260.84 233.58 253.12 230.87 244.78 C 242.79 258.40 244.33 277.32 253.62 292.36 C 258.45 300.59 266.62 306.01 274.83 310.44 C 271.63 305.12 267.99 299.94 266.25 293.92 C 262.46 280.83 259.37 267.57 255.20 254.60 C 267.31 271.50 265.41 294.87 279.34 310.68 C 283.65 314.35 289.06 316.56 294.13 319.04 C 283.84 302.29 284.56 281.71 275.59 264.42 C 289.50 278.96 286.08 301.47 297.75 317.25 C 301.73 320.88 306.92 322.92 311.68 325.36 C 302.89 309.17 302.14 290.53 296.64 273.26 C 306.50 284.73 304.87 301.40 310.34 314.84 C 313.84 325.32 323.00 332.44 332.41 337.41 C 324.25 321.77 322.66 303.97 317.59 287.30 C 328.84 300.26 326.89 319.04 334.21 333.86 C 337.84 341.02 345.73 344.10 352.51 347.44 C 341.76 332.46 344.50 313.26 338.34 296.63 C 346.45 307.39 346.62 321.57 349.85 334.13 C 351.07 339.39 354.93 343.37 358.11 347.55 C 362.00 341.60 365.81 335.26 365.71 327.87 C 366.42 305.29 353.88 285.43 342.91 266.75 C 353.43 276.10 359.88 289.05 364.99 301.94 C 370.45 318.29 370.63 338.57 358.36 351.99 C 350.43 350.43 343.29 344.82 334.94 346.02 C 324.61 347.21 314.13 348.22 303.84 346.15 C 318.98 360.20 335.98 372.00 352.02 384.97 C 363.79 394.41 376.66 402.33 388.77 411.31 C 386.06 406.60 383.47 401.83 380.82 397.11 C 377.52 391.03 370.56 388.60 365.36 384.58 C 353.19 375.77 340.51 367.50 329.47 357.27 C 344.90 366.94 359.95 377.22 375.05 387.39 C 372.29 382.23 370.36 376.12 365.51 372.47 C 355.92 365.04 345.14 359.00 336.85 350.01 C 347.15 356.37 356.79 363.73 367.07 370.13 C 364.93 364.69 362.57 359.32 360.94 353.70 C 370.88 366.51 375.12 382.62 383.75 396.24 C 392.82 413.11 404.18 429.44 421.03 439.36 C 424.84 432.13 428.83 423.15 424.75 415.20 C 404.34 394.04 387.54 369.64 371.84 344.88 C 392.41 365.24 404.65 392.88 426.98 411.63 C 427.55 406.92 427.75 402.14 427.43 397.42 C 426.54 388.70 421.96 381.01 419.99 372.56 C 425.77 379.45 428.13 388.31 431.60 396.43 C 432.91 390.07 433.78 383.53 433.65 377.03 C 430.94 365.81 423.31 356.77 417.93 346.79 C 426.27 353.57 431.03 363.13 436.81 371.89 C 438.78 366.77 439.60 361.08 437.13 355.90 C 428.46 336.81 412.17 322.80 396.85 309.12 C 387.37 299.83 371.93 300.08 363.75 289.02 C 371.56 293.15 379.70 296.70 388.26 299.00 C 378.09 271.95 358.70 249.55 337.04 230.95 C 321.90 217.10 305.03 205.21 287.54 194.53 C 266.73 183.76 244.73 172.81 220.67 173.40 C 203.44 174.08 188.32 187.53 170.68 183.29 C 164.52 182.09 158.87 175.29 162.02 169.06 C 166.65 160.47 175.41 155.03 184.03 151.07 C 208.72 139.73 233.91 129.27 257.27 115.30 C 266.76 109.83 275.46 102.61 281.07 93.07 C 288.46 81.54 289.80 67.13 288.32 53.82 C 286.98 42.57 279.03 32.79 268.85 28.22 C 259.46 24.96 249.25 26.07 239.65 27.69 Z" />
<path fill="#fefefe" opacity="1.00" d=" M 165.61 82.15 C 179.24 77.09 192.76 71.22 207.24 69.02 C 194.86 76.12 181.67 81.61 168.93 88.01 C 167.81 86.06 166.70 84.11 165.61 82.15 Z" />
<path fill="#fefefe" opacity="1.00" d=" M 222.18 206.11 C 225.77 202.59 225.57 196.75 227.75 192.40 C 227.84 197.85 228.79 205.80 222.99 208.97 C 215.72 211.86 206.92 209.55 200.32 214.38 C 195.40 218.05 194.01 224.34 193.30 230.07 C 194.43 256.39 212.43 279.76 235.45 291.44 C 239.86 293.81 244.62 295.57 248.67 298.55 C 230.05 292.41 211.56 282.11 201.00 265.01 C 192.70 253.30 189.63 238.50 190.41 224.34 C 191.29 218.31 194.63 211.57 200.99 209.98 C 207.72 207.17 215.58 209.29 222.18 206.11 Z" />
<path fill="#fefefe" opacity="1.00" d=" M 377.80 305.84 C 399.04 317.28 415.10 338.99 417.69 363.24 C 417.99 368.72 416.45 374.10 415.16 379.38 C 410.48 375.93 405.37 372.89 401.69 368.30 C 395.88 361.92 392.63 353.81 388.83 346.18 C 385.33 339.10 380.53 332.78 376.87 325.80 C 392.58 338.87 394.61 363.09 413.01 373.49 C 414.35 359.08 411.81 343.86 403.04 332.04 C 396.67 321.49 386.78 313.97 377.80 305.84 Z" />
</g>
<g id="#000000ff">
<path fill="#000000" opacity="1.00" d=" M 1.01 1.01 C 161.67 0.99 322.33 1.00 482.99 1.01 C 482.96 117.68 483.10 234.35 482.93 351.02 C 481.08 388.06 471.01 425.04 452.09 457.07 C 436.41 485.41 414.15 509.73 389.24 530.24 C 360.45 552.12 327.11 568.30 291.59 575.59 C 262.67 582.39 232.52 582.50 203.17 578.60 C 192.08 576.30 181.11 573.46 170.13 570.75 C 133.31 558.85 98.84 539.05 71.34 511.67 C 52.39 491.96 35.53 469.90 24.00 444.99 C 9.42 414.12 1.22 380.22 1.09 346.03 C 0.88 231.02 1.05 116.02 1.01 1.01 M 7.01 7.01 C 7.01 119.34 6.97 231.67 7.02 344.01 C 6.67 371.61 13.00 398.69 21.70 424.72 C 42.29 476.06 80.59 520.44 129.51 546.61 C 135.57 549.54 141.79 552.15 147.80 555.19 C 164.11 563.22 182.01 567.17 199.58 571.42 C 258.11 581.31 320.49 569.12 369.96 535.96 C 384.71 526.82 397.33 514.75 409.89 502.89 C 420.83 490.44 432.32 478.25 440.90 463.96 C 463.88 427.70 477.25 385.05 476.98 342.01 C 477.03 230.34 477.00 118.68 476.99 7.01 C 320.33 6.99 163.67 7.00 7.01 7.01 Z" />
<path fill="#000000" opacity="1.00" d=" M 239.65 27.69 C 249.25 26.07 259.46 24.96 268.85 28.22 C 279.03 32.79 286.98 42.57 288.32 53.82 C 289.80 67.13 288.46 81.54 281.07 93.07 C 275.46 102.61 266.76 109.83 257.27 115.30 C 233.91 129.27 208.72 139.73 184.03 151.07 C 175.41 155.03 166.65 160.47 162.02 169.06 C 158.87 175.29 164.52 182.09 170.68 183.29 C 188.32 187.53 203.44 174.08 220.67 173.40 C 244.73 172.81 266.73 183.76 287.54 194.53 C 305.03 205.21 321.90 217.10 337.04 230.95 C 358.70 249.55 378.09 271.95 388.26 299.00 C 379.70 296.70 371.56 293.15 363.75 289.02 C 371.93 300.08 387.37 299.83 396.85 309.12 C 412.17 322.80 428.46 336.81 437.13 355.90 C 439.60 361.08 438.78 366.77 436.81 371.89 C 431.03 363.13 426.27 353.57 417.93 346.79 C 423.31 356.77 430.94 365.81 433.65 377.03 C 433.78 383.53 432.91 390.07 431.60 396.43 C 428.13 388.31 425.77 379.45 419.99 372.56 C 421.96 381.01 426.54 388.70 427.43 397.42 C 427.75 402.14 427.55 406.92 426.98 411.63 C 404.65 392.88 392.41 365.24 371.84 344.88 C 387.54 369.64 404.34 394.04 424.75 415.20 C 428.83 423.15 424.84 432.13 421.03 439.36 C 404.18 429.44 392.82 413.11 383.75 396.24 C 375.12 382.62 370.88 366.51 360.94 353.70 C 362.57 359.32 364.93 364.69 367.07 370.13 C 356.79 363.73 347.15 356.37 336.85 350.01 C 345.14 359.00 355.92 365.04 365.51 372.47 C 370.36 376.12 372.29 382.23 375.05 387.39 C 359.95 377.22 344.90 366.94 329.47 357.27 C 340.51 367.50 353.19 375.77 365.36 384.58 C 370.56 388.60 377.52 391.03 380.82 397.11 C 383.47 401.83 386.06 406.60 388.77 411.31 C 376.66 402.33 363.79 394.41 352.02 384.97 C 335.98 372.00 318.98 360.20 303.84 346.15 C 314.13 348.22 324.61 347.21 334.94 346.02 C 343.29 344.82 350.43 350.43 358.36 351.99 C 370.63 338.57 370.45 318.29 364.99 301.94 C 359.88 289.05 353.43 276.10 342.91 266.75 C 353.88 285.43 366.42 305.29 365.71 327.87 C 365.81 335.26 362.00 341.60 358.11 347.55 C 354.93 343.37 351.07 339.39 349.85 334.13 C 346.62 321.57 346.45 307.39 338.34 296.63 C 344.50 313.26 341.76 332.46 352.51 347.44 C 345.73 344.10 337.84 341.02 334.21 333.86 C 326.89 319.04 328.84 300.26 317.59 287.30 C 322.66 303.97 324.25 321.77 332.41 337.41 C 323.00 332.44 313.84 325.32 310.34 314.84 C 304.87 301.40 306.50 284.73 296.64 273.26 C 302.14 290.53 302.89 309.17 311.68 325.36 C 306.92 322.92 301.73 320.88 297.75 317.25 C 286.08 301.47 289.50 278.96 275.59 264.42 C 284.56 281.71 283.84 302.29 294.13 319.04 C 289.06 316.56 283.65 314.35 279.34 310.68 C 265.41 294.87 267.31 271.50 255.20 254.60 C 259.37 267.57 262.46 280.83 266.25 293.92 C 267.99 299.94 271.63 305.12 274.83 310.44 C 266.62 306.01 258.45 300.59 253.62 292.36 C 244.33 277.32 242.79 258.40 230.87 244.78 C 233.58 253.12 237.82 260.84 240.73 269.11 C 245.49 282.38 249.89 297.31 262.35 305.58 C 273.78 312.49 285.43 319.46 298.53 322.73 C 312.19 328.69 325.11 336.21 338.43 342.86 C 331.35 343.35 323.56 345.76 317.05 341.91 C 307.82 337.38 302.01 327.36 291.63 324.98 C 299.50 331.75 307.70 338.16 315.41 345.14 C 307.67 343.79 299.91 341.82 293.00 337.99 C 278.09 330.47 268.15 315.96 253.05 308.74 C 265.37 318.82 276.89 329.92 290.07 338.92 C 292.75 340.72 295.87 342.71 296.80 346.05 C 300.73 358.06 304.08 370.31 309.27 381.87 C 311.78 387.51 314.60 393.69 313.08 400.01 C 311.05 407.78 303.89 413.31 296.40 415.48 C 287.08 418.19 277.74 420.84 268.41 423.52 C 266.43 448.98 268.86 474.47 267.40 499.93 C 267.43 502.87 267.45 506.13 269.24 508.62 C 274.89 510.29 281.52 509.59 286.31 513.66 C 291.81 517.19 294.51 523.60 295.67 529.81 C 285.51 522.76 272.64 524.41 261.85 518.93 C 256.05 521.94 254.73 528.53 251.48 533.60 C 245.66 539.21 237.33 541.66 232.06 547.99 C 229.57 551.22 226.25 553.75 222.02 554.25 C 216.47 555.92 213.55 561.52 209.63 565.41 C 209.05 561.64 207.77 557.65 208.81 553.89 C 211.18 547.89 215.42 542.39 221.22 539.39 C 227.83 536.11 234.47 532.56 239.57 527.11 C 236.13 527.76 232.64 528.25 229.32 529.37 C 223.40 531.33 219.63 537.49 213.19 538.22 C 206.10 538.11 200.73 542.99 195.37 546.89 C 195.21 537.48 200.55 528.24 209.43 524.66 C 219.12 521.43 229.00 518.78 238.59 515.25 C 230.14 512.89 221.89 516.44 213.89 518.79 C 209.06 520.40 204.22 517.23 199.38 517.66 C 195.75 518.38 192.33 519.90 188.81 521.02 C 191.68 514.45 195.26 506.82 202.88 504.87 C 214.89 502.85 227.12 505.57 239.17 504.30 C 244.08 503.04 250.35 501.50 251.88 496.02 C 254.12 487.65 253.70 478.89 253.62 470.32 C 253.01 456.59 253.04 442.85 252.54 429.12 C 239.78 433.30 227.37 438.51 215.26 444.30 C 212.78 445.58 209.89 447.82 210.20 450.94 C 211.55 456.75 216.01 461.61 215.72 467.87 C 216.09 474.57 212.61 480.64 208.33 485.51 C 206.21 475.04 200.89 465.54 199.30 454.93 C 198.46 454.96 196.79 455.01 195.95 455.03 C 194.62 459.36 194.14 464.04 191.93 468.07 C 189.14 472.57 185.76 476.76 183.77 481.72 C 182.59 486.47 184.07 491.24 184.25 496.00 C 183.79 500.19 181.09 503.81 180.55 508.00 C 180.72 511.95 181.72 515.84 182.51 519.71 C 175.60 517.36 171.23 510.64 170.51 503.56 C 168.67 492.32 174.96 482.37 177.03 471.69 C 171.28 476.54 166.85 482.68 163.03 489.10 C 160.41 493.69 155.00 495.60 151.92 499.77 C 150.10 502.53 148.82 505.60 147.20 508.48 C 146.07 505.07 144.54 501.68 144.26 498.08 C 144.65 488.75 152.45 482.60 157.94 475.95 C 168.31 465.09 176.36 452.37 185.78 440.77 C 191.20 433.98 200.55 434.08 208.02 431.00 C 223.12 425.57 237.64 418.65 252.48 412.54 C 250.80 407.18 247.25 402.57 246.34 396.94 C 244.17 388.77 246.85 379.76 243.18 371.94 C 234.67 353.19 224.50 335.27 214.76 317.15 C 225.13 321.42 236.09 324.13 246.31 328.74 C 250.36 332.06 253.20 336.71 255.85 341.21 C 259.63 347.53 259.88 355.10 262.25 361.95 C 264.38 369.93 269.72 376.74 270.67 385.12 C 271.12 392.30 269.30 399.33 268.25 406.38 C 274.26 403.97 281.10 402.49 285.89 397.89 C 289.05 393.42 290.42 386.68 287.13 381.92 C 280.11 368.96 270.69 357.55 262.84 345.11 C 254.79 334.57 248.10 323.06 239.85 312.69 C 241.17 317.00 243.16 321.05 244.96 325.19 C 230.08 320.12 215.40 314.36 201.06 307.92 C 187.83 300.52 176.09 290.34 167.02 278.18 C 169.68 276.17 172.42 274.05 173.92 270.97 C 176.79 265.57 175.59 259.11 173.63 253.61 C 173.41 258.62 173.80 263.70 172.56 268.62 C 171.69 271.72 168.82 273.53 166.48 275.46 C 166.52 269.86 167.44 264.18 166.36 258.65 C 164.09 249.87 159.66 241.78 154.07 234.69 C 157.55 243.66 162.40 252.17 164.43 261.65 C 164.76 265.19 165.92 269.46 163.69 272.70 C 161.57 275.72 157.71 276.49 154.44 277.67 C 155.70 273.74 158.53 269.87 157.57 265.59 C 154.73 251.76 147.34 239.18 138.46 228.38 C 143.81 239.85 151.55 250.46 153.76 263.17 C 156.37 269.30 150.90 273.11 147.19 276.70 C 142.78 252.22 120.28 237.60 111.91 215.04 C 107.10 202.52 105.23 188.32 109.33 175.34 C 114.28 161.99 121.95 149.11 133.78 140.78 C 150.07 127.17 171.07 121.44 190.77 114.72 C 207.25 108.63 224.27 103.85 240.16 96.22 C 248.98 91.47 258.57 84.47 259.89 73.71 C 256.13 72.96 252.37 72.07 248.55 71.80 C 230.60 73.20 214.03 80.71 197.71 87.74 C 188.83 91.71 179.58 94.82 170.88 99.19 C 170.08 105.68 167.07 111.50 164.03 117.17 C 157.85 114.71 151.77 111.96 146.05 108.54 C 138.50 111.12 131.15 114.86 123.00 114.96 C 120.01 114.55 118.18 111.74 116.31 109.66 C 123.52 106.49 130.84 103.56 138.16 100.63 C 137.02 98.65 135.87 96.67 134.74 94.68 C 126.65 97.89 118.62 101.27 110.42 104.18 C 111.33 101.14 110.42 97.22 112.49 94.50 C 115.99 90.96 121.00 89.23 124.18 85.34 C 120.24 82.19 115.91 79.59 111.64 76.94 C 107.27 81.90 102.86 86.85 97.94 91.28 C 94.48 86.38 90.95 81.47 86.69 77.23 C 90.34 75.59 93.98 73.91 97.57 72.12 C 90.80 70.04 81.98 67.42 76.68 73.66 C 70.77 77.92 70.23 85.57 69.45 92.24 C 65.51 88.27 60.39 84.48 59.37 78.59 C 56.66 71.08 63.24 63.89 60.66 56.35 C 58.29 47.32 57.79 37.13 64.03 29.54 C 68.78 38.69 73.27 49.64 83.85 53.20 C 91.84 54.60 100.03 53.70 108.08 53.12 C 106.53 48.85 105.01 44.55 103.68 40.20 C 114.47 40.71 125.34 40.80 136.03 39.03 C 139.22 44.95 139.88 51.79 142.17 57.99 C 147.83 62.42 153.88 66.43 159.22 71.31 C 172.66 64.56 186.55 58.77 200.08 52.20 C 206.04 49.36 213.17 47.89 217.11 42.11 C 222.68 34.85 230.60 29.45 239.65 27.69 M 63.45 35.37 C 60.32 42.48 60.94 50.49 63.19 57.77 C 65.19 62.95 60.96 67.83 61.20 73.04 C 60.22 78.55 64.39 82.59 66.79 86.98 C 69.14 79.96 72.28 71.78 79.74 68.79 C 87.03 65.46 94.68 68.58 101.82 70.55 C 99.43 73.44 96.60 75.92 93.71 78.30 C 94.94 81.13 96.23 83.94 97.40 86.80 C 98.01 86.84 99.23 86.93 99.84 86.97 C 103.47 82.61 107.07 78.24 110.76 73.94 C 116.29 77.12 121.56 80.74 127.12 83.86 C 129.07 85.09 131.29 83.93 133.20 83.24 C 141.29 79.69 149.21 75.75 157.18 71.94 C 151.56 67.78 146.12 63.15 139.43 60.81 C 130.71 56.75 121.02 56.34 111.65 55.17 C 121.08 53.78 130.34 55.85 139.44 58.10 C 138.60 52.49 136.77 47.11 133.96 42.19 C 125.24 43.43 116.42 43.34 107.64 43.14 C 108.71 47.45 109.98 51.70 111.19 55.97 C 100.95 56.01 90.67 56.51 80.46 55.46 C 72.37 51.02 68.66 42.44 63.45 35.37 M 240.57 42.43 C 235.00 43.98 232.25 49.47 229.41 53.99 C 235.58 54.61 242.00 55.15 247.95 52.97 C 252.63 51.11 256.08 47.34 259.64 43.95 C 253.58 41.66 246.88 40.08 240.57 42.43 M 207.12 52.14 C 194.95 58.52 182.19 63.66 169.88 69.75 C 156.82 75.45 144.21 82.20 130.68 86.77 C 123.83 89.48 115.35 92.15 113.28 100.21 C 122.68 96.86 131.74 92.62 141.08 89.11 C 169.98 76.28 200.11 66.28 231.05 59.74 C 225.50 57.10 221.31 52.56 217.65 47.74 C 214.09 49.10 210.52 50.42 207.12 52.14 M 177.99 86.00 C 174.10 88.02 169.54 90.24 169.24 95.41 C 182.70 91.72 195.20 85.32 208.14 80.21 C 212.43 78.50 216.87 77.08 220.90 74.77 C 226.21 72.29 227.97 66.34 230.97 61.76 C 213.11 69.43 195.86 78.38 177.99 86.00 M 165.61 82.15 C 166.70 84.11 167.81 86.06 168.93 88.01 C 181.67 81.61 194.86 76.12 207.24 69.02 C 192.76 71.22 179.24 77.09 165.61 82.15 M 136.88 94.41 C 143.61 103.73 152.93 110.68 163.83 114.33 C 168.24 104.72 169.35 93.16 164.22 83.58 C 154.94 86.76 146.03 90.89 136.88 94.41 M 120.55 111.97 C 128.85 112.04 137.38 110.20 144.03 105.01 C 135.71 101.73 127.52 108.24 120.55 111.97 M 222.18 206.11 C 215.58 209.29 207.72 207.17 200.99 209.98 C 194.63 211.57 191.29 218.31 190.41 224.34 C 189.63 238.50 192.70 253.30 201.00 265.01 C 211.56 282.11 230.05 292.41 248.67 298.55 C 244.62 295.57 239.86 293.81 235.45 291.44 C 212.43 279.76 194.43 256.39 193.30 230.07 C 194.01 224.34 195.40 218.05 200.32 214.38 C 206.92 209.55 215.72 211.86 222.99 208.97 C 228.79 205.80 227.84 197.85 227.75 192.40 C 225.57 196.75 225.77 202.59 222.18 206.11 M 377.80 305.84 C 386.78 313.97 396.67 321.49 403.04 332.04 C 411.81 343.86 414.35 359.08 413.01 373.49 C 394.61 363.09 392.58 338.87 376.87 325.80 C 380.53 332.78 385.33 339.10 388.83 346.18 C 392.63 353.81 395.88 361.92 401.69 368.30 C 405.37 372.89 410.48 375.93 415.16 379.38 C 416.45 374.10 417.99 368.72 417.69 363.24 C 415.10 338.99 399.04 317.28 377.80 305.84 M 240.98 360.42 C 242.72 365.23 245.58 369.58 247.14 374.45 C 248.01 379.97 247.10 385.61 247.87 391.15 C 248.45 398.70 253.44 404.84 254.99 412.14 C 258.00 410.51 261.54 409.63 264.09 407.26 C 266.59 401.86 268.78 396.07 268.06 389.97 C 268.16 379.55 261.78 370.76 258.54 361.24 C 252.67 360.99 246.83 360.65 240.98 360.42 M 283.72 370.28 C 287.35 377.15 294.56 383.78 291.39 392.35 C 290.77 398.32 285.71 402.20 280.51 404.33 C 259.20 413.53 237.30 421.36 216.29 431.24 C 208.64 434.34 200.24 435.25 192.75 438.74 C 187.79 440.92 184.95 445.76 182.02 450.05 C 175.73 459.85 168.05 468.65 160.30 477.30 C 154.50 483.48 147.78 490.06 147.25 499.08 C 151.59 495.15 157.04 492.42 160.95 488.11 C 164.98 480.38 170.47 473.54 176.78 467.55 C 177.99 468.09 179.21 468.63 180.42 469.18 C 178.55 477.37 176.00 485.39 173.34 493.36 C 170.49 500.87 174.36 508.97 178.29 515.35 C 178.65 506.15 180.23 497.07 180.47 487.87 C 180.03 481.49 183.68 476.09 187.13 471.14 C 191.02 465.31 192.12 458.20 194.79 451.82 C 197.19 452.22 199.60 452.62 202.01 453.02 C 202.82 457.69 203.41 462.38 204.47 467.01 C 206.60 471.08 209.18 474.91 210.71 479.29 C 211.71 475.47 212.79 471.59 212.30 467.61 C 212.21 460.43 206.99 454.05 208.65 446.77 C 216.93 438.21 228.95 434.69 239.92 430.91 C 254.61 425.40 269.39 420.12 284.37 415.44 C 294.22 412.87 305.76 410.79 310.71 400.61 C 311.86 389.92 304.91 380.94 301.77 371.21 C 295.74 370.94 289.73 370.65 283.72 370.28 M 254.91 428.02 C 255.98 448.71 256.73 469.46 255.38 490.16 C 254.95 493.35 254.98 496.73 253.65 499.72 C 248.69 505.77 240.45 507.70 232.97 507.62 C 222.71 507.81 212.15 504.41 202.14 508.18 C 199.09 509.65 196.90 512.36 194.59 514.74 C 202.39 515.15 210.67 517.50 218.21 514.40 C 225.85 511.44 234.12 512.26 242.08 513.15 C 240.86 515.21 239.98 518.37 237.40 519.36 C 227.01 523.89 214.85 523.74 205.33 530.36 C 202.64 533.11 200.55 536.38 198.52 539.63 C 201.80 537.80 205.13 535.81 208.93 535.32 C 212.02 534.83 215.49 535.22 218.06 533.09 C 224.85 527.45 233.38 524.30 242.19 524.09 C 241.45 526.77 241.61 530.27 238.96 531.91 C 232.68 537.38 224.71 540.17 218.07 545.06 C 213.55 548.23 211.81 553.88 210.26 558.92 C 214.39 555.32 219.05 552.33 224.44 551.02 C 228.39 549.74 230.09 545.58 233.01 542.98 C 238.01 538.72 244.08 536.06 249.51 532.44 C 253.85 527.98 253.49 519.28 260.32 517.29 C 267.66 515.80 273.44 522.43 280.65 521.83 C 284.45 521.69 288.13 522.75 291.81 523.56 C 289.25 519.51 285.60 516.20 281.44 513.86 C 276.67 512.36 271.63 511.93 266.78 510.84 C 262.42 482.37 267.39 453.41 264.82 424.77 C 261.53 425.89 258.21 426.94 254.91 428.02 Z" />
<path fill="#000000" opacity="1.00" d=" M 239.24 47.95 C 241.71 45.84 244.41 44.04 247.25 42.47 C 248.15 44.28 249.23 46.03 249.76 47.99 C 249.46 49.93 247.50 51.15 245.95 52.11 C 243.39 51.32 241.31 49.57 239.24 47.95 Z" />
<path fill="#000000" opacity="1.00" d=" M 111.68 48.08 C 112.36 47.32 113.04 46.56 113.72 45.81 C 113.99 47.68 114.28 49.55 114.56 51.42 C 113.59 50.31 112.63 49.19 111.68 48.08 Z" />
<path fill="#000000" opacity="1.00" d=" M 121.31 46.93 C 123.05 46.27 124.11 49.96 122.19 50.19 C 120.90 49.86 120.27 47.84 121.31 46.93 Z" />
<path fill="#000000" opacity="1.00" d=" M 131.12 47.54 C 135.06 48.31 128.82 50.96 131.12 47.54 Z" />
<path fill="#000000" opacity="1.00" d=" M 117.23 48.82 C 118.61 48.08 119.82 50.48 118.62 51.33 C 117.20 52.11 115.99 49.68 117.23 48.82 Z" />
<path fill="#000000" opacity="1.00" d=" M 125.98 47.51 C 127.14 49.38 128.13 51.35 128.98 53.38 C 127.79 51.52 126.80 49.55 125.98 47.51 Z" />
<path fill="#000000" opacity="1.00" d=" M 66.47 49.07 C 69.83 51.64 73.11 54.33 76.17 57.27 C 72.09 55.69 68.52 53.00 66.47 49.07 Z" />
<path fill="#000000" opacity="1.00" d=" M 63.47 52.38 C 66.42 54.58 69.38 56.79 72.09 59.28 C 68.98 57.30 66.17 54.88 63.47 52.38 Z" />
<path fill="#000000" opacity="1.00" d=" M 73.54 59.12 C 74.95 56.93 76.70 61.03 74.10 60.41 C 73.96 60.09 73.68 59.44 73.54 59.12 Z" />
<path fill="#000000" opacity="1.00" d=" M 68.01 62.22 C 68.57 61.15 70.43 61.15 70.99 62.22 C 71.35 64.03 67.65 64.03 68.01 62.22 Z" />
<path fill="#000000" opacity="1.00" d=" M 68.34 67.76 C 70.67 65.83 73.38 64.47 76.29 63.64 C 73.79 65.29 71.13 66.69 68.34 67.76 Z" />
<path fill="#000000" opacity="1.00" d=" M 67.10 68.38 C 68.78 68.78 67.68 71.34 66.22 70.94 C 64.55 70.54 65.68 68.05 67.10 68.38 Z" />
<path fill="#000000" opacity="1.00" d=" M 73.13 68.11 C 74.44 68.78 74.43 69.46 73.11 70.14 C 71.81 69.47 71.82 68.80 73.13 68.11 Z" />
<path fill="#000000" opacity="1.00" d=" M 97.98 79.35 C 99.54 77.35 101.30 75.50 103.24 73.86 C 101.65 75.84 99.90 77.68 97.98 79.35 Z" />
<path fill="#000000" opacity="1.00" d=" M 99.46 81.57 C 101.54 79.54 103.76 77.66 106.13 75.98 C 103.93 77.88 101.71 79.74 99.46 81.57 Z" />
<path fill="#000000" opacity="1.00" d=" M 150.92 96.69 C 152.16 95.42 153.42 94.16 154.69 92.92 C 155.82 94.21 156.95 95.50 158.08 96.80 C 156.99 97.90 155.89 98.99 154.80 100.08 C 153.50 98.95 152.21 97.82 150.92 96.69 Z" />
</g>
<g id="#ff0000ff">
<path fill="#ff0000" opacity="1.00" d=" M 63.45 35.37 C 68.66 42.44 72.37 51.02 80.46 55.46 C 90.67 56.51 100.95 56.01 111.19 55.97 C 109.98 51.70 108.71 47.45 107.64 43.14 C 116.42 43.34 125.24 43.43 133.96 42.19 C 136.77 47.11 138.60 52.49 139.44 58.10 C 130.34 55.85 121.08 53.78 111.65 55.17 C 121.02 56.34 130.71 56.75 139.43 60.81 C 146.12 63.15 151.56 67.78 157.18 71.94 C 149.21 75.75 141.29 79.69 133.20 83.24 C 131.29 83.93 129.07 85.09 127.12 83.86 C 121.56 80.74 116.29 77.12 110.76 73.94 C 107.07 78.24 103.47 82.61 99.84 86.97 C 99.23 86.93 98.01 86.84 97.40 86.80 C 96.23 83.94 94.94 81.13 93.71 78.30 C 96.60 75.92 99.43 73.44 101.82 70.55 C 94.68 68.58 87.03 65.46 79.74 68.79 C 72.28 71.78 69.14 79.96 66.79 86.98 C 64.39 82.59 60.22 78.55 61.20 73.04 C 60.96 67.83 65.19 62.95 63.19 57.77 C 60.94 50.49 60.32 42.48 63.45 35.37 M 111.68 48.08 C 112.63 49.19 113.59 50.31 114.56 51.42 C 114.28 49.55 113.99 47.68 113.72 45.81 C 113.04 46.56 112.36 47.32 111.68 48.08 M 121.31 46.93 C 120.27 47.84 120.90 49.86 122.19 50.19 C 124.11 49.96 123.05 46.27 121.31 46.93 M 131.12 47.54 C 128.82 50.96 135.06 48.31 131.12 47.54 M 117.23 48.82 C 115.99 49.68 117.20 52.11 118.62 51.33 C 119.82 50.48 118.61 48.08 117.23 48.82 M 125.98 47.51 C 126.80 49.55 127.79 51.52 128.98 53.38 C 128.13 51.35 127.14 49.38 125.98 47.51 M 66.47 49.07 C 68.52 53.00 72.09 55.69 76.17 57.27 C 73.11 54.33 69.83 51.64 66.47 49.07 M 63.47 52.38 C 66.17 54.88 68.98 57.30 72.09 59.28 C 69.38 56.79 66.42 54.58 63.47 52.38 M 73.54 59.12 C 73.68 59.44 73.96 60.09 74.10 60.41 C 76.70 61.03 74.95 56.93 73.54 59.12 M 68.01 62.22 C 67.65 64.03 71.35 64.03 70.99 62.22 C 70.43 61.15 68.57 61.15 68.01 62.22 M 68.34 67.76 C 71.13 66.69 73.79 65.29 76.29 63.64 C 73.38 64.47 70.67 65.83 68.34 67.76 M 67.10 68.38 C 65.68 68.05 64.55 70.54 66.22 70.94 C 67.68 71.34 68.78 68.78 67.10 68.38 M 73.13 68.11 C 71.82 68.80 71.81 69.47 73.11 70.14 C 74.43 69.46 74.44 68.78 73.13 68.11 M 97.98 79.35 C 99.90 77.68 101.65 75.84 103.24 73.86 C 101.30 75.50 99.54 77.35 97.98 79.35 M 99.46 81.57 C 101.71 79.74 103.93 77.88 106.13 75.98 C 103.76 77.66 101.54 79.54 99.46 81.57 Z" />
<path fill="#ff0000" opacity="1.00" d=" M 240.57 42.43 C 246.88 40.08 253.58 41.66 259.64 43.95 C 256.08 47.34 252.63 51.11 247.95 52.97 C 242.00 55.15 235.58 54.61 229.41 53.99 C 232.25 49.47 235.00 43.98 240.57 42.43 M 239.24 47.95 C 241.31 49.57 243.39 51.32 245.95 52.11 C 247.50 51.15 249.46 49.93 249.76 47.99 C 249.23 46.03 248.15 44.28 247.25 42.47 C 244.41 44.04 241.71 45.84 239.24 47.95 Z" />
<path fill="#ff0000" opacity="1.00" d=" M 207.12 52.14 C 210.52 50.42 214.09 49.10 217.65 47.74 C 221.31 52.56 225.50 57.10 231.05 59.74 C 200.11 66.28 169.98 76.28 141.08 89.11 C 131.74 92.62 122.68 96.86 113.28 100.21 C 115.35 92.15 123.83 89.48 130.68 86.77 C 144.21 82.20 156.82 75.45 169.88 69.75 C 182.19 63.66 194.95 58.52 207.12 52.14 Z" />
<path fill="#ff0000" opacity="1.00" d=" M 177.99 86.00 C 195.86 78.38 213.11 69.43 230.97 61.76 C 227.97 66.34 226.21 72.29 220.90 74.77 C 216.87 77.08 212.43 78.50 208.14 80.21 C 195.20 85.32 182.70 91.72 169.24 95.41 C 169.54 90.24 174.10 88.02 177.99 86.00 Z" />
<path fill="#ff0000" opacity="1.00" d=" M 136.88 94.41 C 146.03 90.89 154.94 86.76 164.22 83.58 C 169.35 93.16 168.24 104.72 163.83 114.33 C 152.93 110.68 143.61 103.73 136.88 94.41 M 150.92 96.69 C 152.21 97.82 153.50 98.95 154.80 100.08 C 155.89 98.99 156.99 97.90 158.08 96.80 C 156.95 95.50 155.82 94.21 154.69 92.92 C 153.42 94.16 152.16 95.42 150.92 96.69 Z" />
<path fill="#ff0000" opacity="1.00" d=" M 120.55 111.97 C 127.52 108.24 135.71 101.73 144.03 105.01 C 137.38 110.20 128.85 112.04 120.55 111.97 Z" />
<path fill="#ff0000" opacity="1.00" d=" M 240.98 360.42 C 246.83 360.65 252.67 360.99 258.54 361.24 C 261.78 370.76 268.16 379.55 268.06 389.97 C 268.78 396.07 266.59 401.86 264.09 407.26 C 261.54 409.63 258.00 410.51 254.99 412.14 C 253.44 404.84 248.45 398.70 247.87 391.15 C 247.10 385.61 248.01 379.97 247.14 374.45 C 245.58 369.58 242.72 365.23 240.98 360.42 Z" />
<path fill="#ff0000" opacity="1.00" d=" M 283.72 370.28 C 289.73 370.65 295.74 370.94 301.77 371.21 C 304.91 380.94 311.86 389.92 310.71 400.61 C 305.76 410.79 294.22 412.87 284.37 415.44 C 269.39 420.12 254.61 425.40 239.92 430.91 C 228.95 434.69 216.93 438.21 208.65 446.77 C 206.99 454.05 212.21 460.43 212.30 467.61 C 212.79 471.59 211.71 475.47 210.71 479.29 C 209.18 474.91 206.60 471.08 204.47 467.01 C 203.41 462.38 202.82 457.69 202.01 453.02 C 199.60 452.62 197.19 452.22 194.79 451.82 C 192.12 458.20 191.02 465.31 187.13 471.14 C 183.68 476.09 180.03 481.49 180.47 487.87 C 180.23 497.07 178.65 506.15 178.29 515.35 C 174.36 508.97 170.49 500.87 173.34 493.36 C 176.00 485.39 178.55 477.37 180.42 469.18 C 179.21 468.63 177.99 468.09 176.78 467.55 C 170.47 473.54 164.98 480.38 160.95 488.11 C 157.04 492.42 151.59 495.15 147.25 499.08 C 147.78 490.06 154.50 483.48 160.30 477.30 C 168.05 468.65 175.73 459.85 182.02 450.05 C 184.95 445.76 187.79 440.92 192.75 438.74 C 200.24 435.25 208.64 434.34 216.29 431.24 C 237.30 421.36 259.20 413.53 280.51 404.33 C 285.71 402.20 290.77 398.32 291.39 392.35 C 294.56 383.78 287.35 377.15 283.72 370.28 Z" />
<path fill="#ff0000" opacity="1.00" d=" M 254.91 428.02 C 258.21 426.94 261.53 425.89 264.82 424.77 C 267.39 453.41 262.42 482.37 266.78 510.84 C 271.63 511.93 276.67 512.36 281.44 513.86 C 285.60 516.20 289.25 519.51 291.81 523.56 C 288.13 522.75 284.45 521.69 280.65 521.83 C 273.44 522.43 267.66 515.80 260.32 517.29 C 253.49 519.28 253.85 527.98 249.51 532.44 C 244.08 536.06 238.01 538.72 233.01 542.98 C 230.09 545.58 228.39 549.74 224.44 551.02 C 219.05 552.33 214.39 555.32 210.26 558.92 C 211.81 553.88 213.55 548.23 218.07 545.06 C 224.71 540.17 232.68 537.38 238.96 531.91 C 241.61 530.27 241.45 526.77 242.19 524.09 C 233.38 524.30 224.85 527.45 218.06 533.09 C 215.49 535.22 212.02 534.83 208.93 535.32 C 205.13 535.81 201.80 537.80 198.52 539.63 C 200.55 536.38 202.64 533.11 205.33 530.36 C 214.85 523.74 227.01 523.89 237.40 519.36 C 239.98 518.37 240.86 515.21 242.08 513.15 C 234.12 512.26 225.85 511.44 218.21 514.40 C 210.67 517.50 202.39 515.15 194.59 514.74 C 196.90 512.36 199.09 509.65 202.14 508.18 C 212.15 504.41 222.71 507.81 232.97 507.62 C 240.45 507.70 248.69 505.77 253.65 499.72 C 254.98 496.73 254.95 493.35 255.38 490.16 C 256.73 469.46 255.98 448.71 254.91 428.02 Z" />
</g>
</svg>
