<?xml version="1.0" encoding="UTF-8" standalone="no"?>
<!-- Created with Inkscape (http://www.inkscape.org/) -->
<svg
   xmlns:dc="http://purl.org/dc/elements/1.1/"
   xmlns:cc="http://web.resource.org/cc/"
   xmlns:rdf="http://www.w3.org/1999/02/22-rdf-syntax-ns#"
   xmlns:svg="http://www.w3.org/2000/svg"
   xmlns="http://www.w3.org/2000/svg"
   xmlns:sodipodi="http://sodipodi.sourceforge.net/DTD/sodipodi-0.dtd"
   xmlns:inkscape="http://www.inkscape.org/namespaces/inkscape"
   id="svg2387"
   sodipodi:version="0.32"
   inkscape:version="0.45.1"
   width="489.59766"
   height="573.75"
   version="1.0"
   sodipodi:docbase="/home/liftarn/Bilder"
   sodipodi:docname="Coat_of_arms_of_Jonava_(Lithuania).svg"
   inkscape:output_extension="org.inkscape.output.svg.inkscape">
  <metadata
     id="metadata2392">
    <rdf:RDF>
      <cc:Work
         rdf:about="">
        <dc:format>image/svg+xml</dc:format>
        <dc:type
           rdf:resource="http://purl.org/dc/dcmitype/StillImage" />
      </cc:Work>
    </rdf:RDF>
  </metadata>
  <defs
     id="defs2390" />
  <sodipodi:namedview
     inkscape:window-height="627"
     inkscape:window-width="910"
     inkscape:pageshadow="2"
     inkscape:pageopacity="0.0"
     guidetolerance="10.0"
     gridtolerance="10.0"
     objecttolerance="10.0"
     borderopacity="1.0"
     bordercolor="#666666"
     pagecolor="#ffffff"
     id="base"
     inkscape:zoom="0.70659722"
     inkscape:cx="242.75344"
     inkscape:cy="277.57623"
     inkscape:window-x="0"
     inkscape:window-y="25"
     inkscape:current-layer="svg2387" />
  <path
     id="path2162"
     style="fill:#005ca1;fill-opacity:1;fill-rule:evenodd;stroke:#000000;stroke-width:3.75;stroke-linecap:butt;stroke-linejoin:miter;stroke-miterlimit:4;stroke-dasharray:none;stroke-opacity:1"
     d="M 1.875,1.875 L 487.72267,1.875 L 487.72267,346.87499 C 487.72267,471.87499 366.26075,571.87499 244.79883,571.87499 C 123.33692,571.87499 1.875,471.87499 1.875,346.87499 L 1.875,1.875 z " />
  <g
     id="g3593"
     transform="translate(-3.65449e-2,-0.4173887)">
    <path
       id="path2472"
       d="M 171.58869,504.92235 C 167.1623,501.59442 159.42994,499 153.93779,499 C 151.90322,499 145.9099,500.56692 140.61929,502.48204 C 135.32868,504.39716 131,505.58931 131,505.13126 C 131,502.98885 133.59729,497.08814 136.27072,493.15688 C 139.6615,488.17074 147.16897,483 151.01764,483 C 156.23197,483 163.07259,479.79945 167.89256,475.10465 C 173.73824,469.41078 177.98528,460.82541 181.56296,447.46999 C 184.10221,437.99102 184.27579,435.80089 185.08731,403 C 185.55677,384.025 186.22417,367.07891 186.57043,365.34202 C 187.09638,362.70377 185.99036,359.86764 179.84999,348.10893 C 171.57187,332.25646 172.28524,332.73773 161.85534,335.96883 C 155.76596,337.85526 139.57082,346.4247 135.60482,349.85893 C 132.24196,352.77089 130.03819,359.50766 127.98536,373.15115 C 126.88069,380.49302 125.26038,388.66919 124.38467,391.32042 C 122.33811,397.5165 117.45776,402.39002 111.86412,403.82347 C 108.64626,404.64809 106.87513,405.86883 105.12093,408.47116 C 99.331142,417.06026 90.230316,422.09451 86.334134,418.86335 C 85.429966,418.11351 84.07886,416.0375 83.331676,414.25 C 82.584492,412.4625 81.801109,411 81.590826,411 C 81.380542,411 79.765409,413.24885 78.001641,415.99744 C 72.012092,425.33135 65.742518,428.30966 60.222506,424.4433 C 58.467592,423.21411 57.996778,421.89917 57.984687,418.1933 C 57.962352,411.3476 56.987748,410.47635 53.493569,414.17844 C 48.820691,419.12936 41.69379,421.35678 38,419.02074 C 36.707462,418.20331 36.54984,413.89883 36.860353,387.89838 L 37.220707,357.72465 L 34.360353,358.42293 C 23.473978,361.08051 23.471693,361.07683 23.60062,341.0948 C 23.655961,332.51766 24.443461,318.8753 25.35062,310.77844 C 27.274508,293.60675 27.452774,280.26385 25.879044,271.22682 C 24.873802,265.4543 24.402179,264.57983 21.310278,262.75556 L 17.862468,260.7213 L 18.478345,248.11065 C 21.390312,188.4854 22.962262,177.77244 31.515798,159.25944 C 38.98323,143.09716 51.921267,128.351 69.77892,115.64895 C 81.326523,107.4352 89.666019,104.60549 102.5,104.5462 C 114.95731,104.48865 121.01773,106.41225 127.91422,112.61278 C 134.78131,118.78689 137.07558,125.08236 137.71276,139.5 C 138.14477,149.27537 137.90867,151.48944 135.59202,159.38748 C 131.82038,172.24598 131.37666,177.79381 133.49419,185.61661 C 134.94703,190.98384 136.27589,193.26412 140.79616,198.14655 C 148.64074,206.61963 150.57307,207.45647 157.20981,205.2549 L 162.5,203.5 L 163.19911,197.16124 C 165.34241,177.72832 176.81754,160.58543 193,152.64121 C 200.06614,149.17233 204.44692,147.95753 233.06704,141.53058 C 245.36144,138.76975 254.89387,134.83615 260.98967,130.00818 C 266.70185,125.48405 271.72346,117.38469 272.89682,110.80315 C 275.73744,94.869623 265.93618,76.232866 252.26639,71.575102 C 242.72402,68.323689 230.31035,70.210747 221.45206,76.259325 C 217.06416,79.255455 216.54511,80.067122 214.57372,87.01542 C 212.21674,95.322733 206.88767,105.72661 200.89667,113.71697 C 198.7453,116.5863 190.08269,125.8113 181.64643,134.21697 C 165.43292,150.37168 161.77781,155.66593 160.39407,165 C 159.59421,170.39546 158.54153,171.87445 154.21343,173.6836 C 150.17185,175.373 143.57243,173.93811 142.01701,171.03178 C 139.85516,166.99234 140.87731,157.06453 144.63592,145.59507 C 149.1266,131.89168 149.5804,124.32811 146.25,118.69284 C 141.73751,111.05739 144.49313,93.758034 152.97091,76.5 C 159.08245,64.058862 164.37677,57.345476 176.21286,47.028358 C 186.92388,37.691938 198.77257,31.342906 212,27.852088 C 219.15197,25.96463 223.19606,25.600241 237.5,25.554437 L 254.5,25.5 L 262.5,28.811866 C 289.24218,39.882684 306.09974,58.433948 313.10388,84.5 C 314.76211,90.671135 315.25353,95.357602 315.25353,105 C 315.25353,120.85109 313.12065,129.42092 305.34692,144.80429 C 300.4669,154.46134 298.53491,157.15713 292.08858,163.30429 C 277.70412,177.02119 274.15453,181.02849 272.46106,185.46278 C 270.10398,191.63472 271.10949,195.84138 276.28426,201.45745 C 279.83751,205.31372 281.35444,206.18879 285.93718,207.02597 C 295.77495,208.82312 308.33851,205.81239 317.6499,199.42631 C 323.95726,195.1005 333.32679,183.58721 337.14584,175.46968 C 338.70623,172.153 342.21664,160.78449 344.94675,150.20631 C 347.67686,139.62814 351.35169,127.94179 353.11303,124.23664 C 357.65916,114.6734 367.97052,104.56997 378.44814,99.412425 C 386.30078,95.547007 386.53507,95.5 397.94814,95.5 C 408.76877,95.5 409.97475,95.70535 417,98.744101 C 432.27743,105.35231 444.56061,117.26911 453.43832,134.09558 C 464.20461,154.50158 466.32193,164.70986 469.49438,211.50708 C 470.31493,223.61098 471.81549,238.15819 472.82897,243.83423 L 474.67167,254.15429 L 472.21422,255.82715 C 466.15656,259.95077 465.21263,261.50092 464.45578,268.56837 C 463.35583,278.83946 464.51191,294.37367 467.91129,315 C 472.63911,343.68696 473.37253,351.7825 471.50223,354.63695 C 469.6283,357.49692 466.91858,357.59999 461.25,355.02693 L 457,353.09778 L 457,359.05948 C 457,362.33841 457.94721,369.17891 459.10491,374.26059 C 461.56719,385.06864 462.06727,399.0091 460.07866,401.40522 C 457.48656,404.52851 449.21561,402.69004 442.37055,397.46906 C 440.59014,396.11108 438.83158,395 438.46264,395 C 438.0937,395 438.09361,398.4875 438.46245,402.75 C 439.29196,412.33641 438.35671,413.98004 431.64169,414.73692 C 427.4771,415.20633 426.37767,414.89211 422.53902,412.13541 C 420.13773,410.41093 417.87908,409 417.5198,409 C 417.16052,409 415.39161,410.125 413.58889,411.5 C 408.96458,415.02713 403.76155,414.87584 399.44837,411.08881 C 396.37669,408.39184 395.69678,408.21715 390.20868,408.71479 C 384.48443,409.23385 384.149,409.1294 380.26174,405.6175 C 372.24877,398.37827 366.92594,384.77004 363.04954,361.61319 C 361.95514,355.07545 360.81898,349.48565 360.52474,349.19141 C 359.91589,348.58255 317.42927,340.08115 314.75,340.03206 C 312.13961,339.98424 312.53258,343.76386 316.06959,352.72397 C 322.94139,370.13193 331.8242,383.68033 344.16239,395.57216 C 356.24771,407.22028 369.14143,414.81177 388.26491,421.53857 C 401.32159,426.13134 405.15618,433.06709 399.36214,441.61045 C 397.91131,443.7497 395.77872,446.175 394.62305,447 C 390.54435,449.91166 360.66458,462 357.54628,462 C 355.808,462 349.48718,462.9 343.5,464 C 326.09805,467.19719 313.33085,466.32435 308.08727,461.57897 C 305.6296,459.35482 304.0565,453.54448 303.31753,443.96173 C 302.76929,436.85224 302.39273,435.64821 300.28579,434.26769 C 295.65588,431.23405 295.26166,433.30736 296.44193,454.48344 L 297.5,473.46688 L 300.5,475.32041 C 316.92652,485.46946 321,489.38076 321,495.00427 L 321,497.71277 L 310.75,498.27766 C 301.01756,498.81402 292.23192,500.96469 287.37022,504.00087 C 285.79529,504.98443 284.4655,504.89784 280.50731,503.554 C 273.38537,501.13604 264.69712,500.59028 254.47392,501.91869 C 249.53826,502.56003 244.7125,503.32102 243.75,503.60977 C 241.10014,504.40474 241.5607,501.29867 244.97553,495.34469 C 248.26564,489.60817 252.19605,486.15602 265.65718,477.17961 L 274.81436,471.07324 L 275.53912,462.37264 C 276.71999,448.19647 275.65824,439.59231 271.8102,432.15441 L 268.5,425.7561 L 250.29345,418.48506 L 232.08689,411.21401 L 223.25988,420.35701 C 208.62345,435.51737 199.63763,450.78866 196.41827,465.97401 C 194.28004,476.05975 194.29319,476.09867 201.09819,479.83702 C 206.25166,482.6681 207.53712,483.95683 209.57655,488.33702 C 212.05175,493.65311 212.42942,495.71738 211.41193,498.36891 C 210.89285,499.72162 210.27432,499.68478 206.13907,498.05481 C 201.56121,496.25039 197.11265,495.56198 191.92144,495.85463 C 188.39099,496.05366 180.89097,501.20048 178.69346,504.93221 C 177.69987,506.61949 176.57487,507.96918 176.19346,507.93152 C 175.81206,507.89385 173.73991,506.53973 171.58869,504.92235 z "
       style="fill:#000000" />
    <path
       d="M 323.00813,460.25 C 323.0126,459.8375 321.1573,454.325 318.88523,448 C 314.43585,435.61376 311.74681,431.82462 309.20785,434.36357 C 307.952,435.61943 307.9295,437.21523 309.04427,445.96272 C 310.21832,455.17534 310.60363,456.33014 313.24516,458.55284 C 315.99402,460.86585 322.98827,462.08171 323.00813,460.25 z M 341.45234,460.01812 L 344.03488,459.03624 L 338.62821,448.26812 C 333.38079,437.81716 333.05924,437.42077 327.7113,434.81017 C 322.42523,432.22977 322.13475,432.19363 320.57082,433.92174 C 319.0534,435.59848 319.21437,436.50041 322.89683,446.95477 C 325.07276,453.13217 326.99863,458.3031 327.17654,458.44572 C 330.41241,461.03989 336.88869,461.75322 341.45234,460.01812 z M 365,455.20393 C 369.66656,452.93207 369.96104,450.64072 365.80755,448.92028 C 364.00081,448.17191 359.59248,444.62119 356.01128,441.0298 L 349.5,434.5 L 343,434.5 L 336.5,434.5 L 336.60358,438.13182 C 336.73594,442.77259 340.27459,450.08844 344.61093,454.6863 L 347.99693,458.2765 L 354.74847,457.59218 C 358.46181,457.21581 363.075,456.14109 365,455.20393 z M 385.23608,446.30661 C 392.09652,442.70155 395.98785,438.5599 395.99626,434.85425 C 396.00175,432.43942 388.0691,427.74887 372.74723,421.10717 C 359.02171,415.15745 352.02224,411.02114 346.38985,405.53139 C 344.67927,403.86412 340.13339,399.96491 336.28791,396.86646 C 321.242,384.74343 311.31367,367.04734 306.62735,344 C 304.36564,332.87695 303.23711,322.15536 301.52231,295.5 C 299.83973,269.34533 298.07157,255.48822 294.97448,244.18435 C 290.69988,228.58279 283.61351,215.7765 273.95307,206.19505 C 266.0285,198.33528 264.10857,190.76185 267.91543,182.37874 C 269.96115,177.87385 273.78825,173.78761 287.73564,161.2165 C 296.13444,153.64646 297.32013,152.10639 301.50194,143.33572 C 308.79222,128.04556 310.5036,120.79367 310.43083,105.5 C 310.374,93.557336 310.10581,91.727331 307.13339,83 C 302.56657,69.591371 297.16744,60.958618 287.09883,50.966477 C 280.39992,44.318446 276.51144,41.410185 269.5,37.80401 C 257.75701,31.764272 250.65008,30 238.0635,30 C 216.60089,30 194.73897,37.589367 178.99177,50.50675 C 165.1641,61.849553 151,87.252916 151,100.7101 C 151,103.81037 151.20403,104 154.53984,104 C 159.02431,104 164.99193,100.9704 170.48982,95.902619 C 173.89556,92.763317 174.91922,91.024383 175.45168,87.47366 C 176.18247,82.600388 178.38631,81.52917 181.42659,84.569446 C 183.09997,86.24283 182.45097,88.550913 179.65444,90.871826 C 178.41227,91.902737 179.06187,93.752514 184.09984,103.5304 C 187.34493,109.82858 190,115.66077 190,116.49082 C 190,119.10063 191.37812,118.13571 195.31653,112.76835 C 203.25827,101.94515 208.56214,87.610808 209.71551,73.85338 C 210.02884,70.116044 210.67102,67.296682 211.1426,67.588129 C 211.61417,67.879577 212.00689,69.103976 212.01531,70.309017 C 212.0476,74.928739 213.21523,75.004846 221.51326,70.928104 C 232.59744,65.482552 241.43374,64.079326 250.52044,66.321694 C 259.4092,68.515216 266.12638,72.933712 271.07217,79.840434 C 284.47508,98.557385 280.26939,124.72355 261.96838,136.48058 C 256.29735,140.12379 245.11348,143.72073 229.26954,146.99714 C 208.294,151.33473 200.54552,153.60428 192.77968,157.68512 C 180.89348,163.93114 175.65785,170.61918 171.11087,185.36509 C 166.29027,200.99831 167.67216,219.27534 174.61794,231.75 C 178.25653,238.28494 180.05591,239.74332 179.24475,235.5 C 178.96578,234.04065 179.23163,233 179.88342,233 C 180.49754,233 181,234.06875 181,235.375 C 181,241.00942 182.50002,244.55265 186.63651,248.68914 C 189.00748,251.06012 191.33295,253 191.80422,253 C 192.27549,253 192.07171,250.1875 191.35138,246.75 C 190.63104,243.3125 190.08482,239.6 190.13755,238.5 C 190.19028,237.4 190.83486,239.51915 191.56995,243.20923 C 194.47463,257.79047 201.17547,263.58282 208.48632,257.8321 C 211.90865,255.1401 213.96369,250.37832 214.11831,244.78212 C 214.18339,242.42695 214.61636,239.15 215.08047,237.5 C 215.6301,235.54595 215.7966,238.06436 215.558,244.72337 L 215.1917,254.94674 L 218.84585,253.44661 C 228.18465,249.61276 231.0627,245.15777 231.96719,233.13583 C 232.48236,226.2885 232.78751,225.08912 233.44061,227.3446 C 233.91493,228.98265 233.79979,232.99247 233.16915,236.79826 C 232.56681,240.43325 232.2438,243.57713 232.45135,243.78468 C 232.6589,243.99223 233.80958,243.6371 235.00842,242.9955 C 237.97516,241.40774 240.87875,234.45347 241.64805,227.09313 C 242.40043,219.89479 243.76411,219.09449 244.19521,225.59829 L 244.5,230.19658 L 247.22589,228.04467 C 248.76544,226.8293 250.4261,224.13131 251.04162,221.84544 C 251.64103,219.61941 252.35645,218.02312 252.63145,218.29812 C 252.90645,218.57312 252.62899,220.66411 252.01487,222.94477 C 251.2012,225.96653 249.84627,227.82503 247.02024,229.79571 C 244.54128,231.52437 242.54707,234.02929 241.49261,236.73894 C 240.58534,239.07036 238.51159,241.99536 236.88428,243.23894 C 235.25697,244.48252 231.68748,247.40343 228.95208,249.72985 C 223.011,254.78264 218.96068,257 215.6721,257 C 214.33714,257 212.62729,257.74471 211.87244,258.6549 C 209.51233,261.50075 204.59274,263.03039 201.05932,262.01701 C 199.31202,261.51589 194.27723,257.85587 189.87091,253.88362 C 181.41782,246.26328 175.04012,238.08554 170.4972,229.04191 L 167.75542,223.58382 L 165.73201,226.04191 C 164.61914,227.39386 162.53667,230.975 161.10431,234 C 158.61335,239.26061 158.50332,240.21816 158.57625,256 C 158.64869,271.67716 158.83432,273.18595 162.29855,286.25498 C 169.52111,313.50254 185.53285,351.17439 197.02933,367.96831 C 212.31884,390.30304 234.75161,407.29749 261.79837,417.03555 C 271.42385,420.50117 271.66459,418.87507 263.06994,408.44652 C 251.54865,394.46687 245.89135,381.16337 246.09968,368.5399 C 246.21451,361.58189 247.07685,357.80772 248.67342,357.27553 C 249.44437,357.01854 249.90776,360.72236 250.16548,369.20139 C 250.58554,383.02157 251.78524,386.63443 260.35162,399.87671 C 265.28154,407.49758 273.04373,413.35627 275.26619,411.13381 C 277.17107,409.22893 286.13995,409.77473 289.5,412 C 291.15,413.09275 292.78623,413.98979 293.13606,413.99341 C 294.97074,414.01242 297.29186,405.6922 298.11659,396.14038 C 299.1884,383.72676 299.79615,381.06865 301.09401,383.11787 C 303.02858,386.1724 301.98655,396.58038 298.59075,408.12064 C 293.73346,424.62768 293.69544,425.91505 297.99106,428.42546 C 300.94094,430.1494 303.57626,430.51575 314.99106,430.7887 C 335.85314,431.28754 352.46549,430.89853 352.83333,429.90255 C 353.19651,428.91919 358,428.62834 358,429.58971 C 358,429.91405 357.01394,430.97788 355.80876,431.95377 L 353.61752,433.72813 L 357.10441,438.61407 C 359.0222,441.30133 362.75911,444.9625 365.40866,446.75 C 371.9671,451.1746 376.15028,451.08106 385.23608,446.30661 z M 219.40899,416.28618 C 224.13405,410.94358 228,405.80951 228,404.87714 C 228,402.94065 194.83559,371.80623 193.86303,372.82969 C 193.5127,373.19836 192.90907,383.5125 192.52164,395.75 L 191.81721,418 L 195.09288,418 C 198.88577,418 205.93023,421.16044 208.52283,424.02523 C 209.50576,425.11135 210.42428,426 210.56398,426 C 210.70368,426 214.68393,421.62878 219.40899,416.28618 z M 69.269345,417.16918 C 79.713835,401.38649 86.453827,379.93107 88.932223,354.57632 C 90.895727,334.48909 89.876966,285 87.499956,285 C 86.845467,285 85.495486,284.1 84.5,283 C 82.398419,280.67778 79.730956,280.41433 78.108902,282.36878 C 77.400749,283.22205 76.83023,289.90703 76.594058,300.11878 C 76.205562,316.91675 75.4822,322.1876 68.650542,358 C 64.096357,381.8736 62.61024,396.01934 63.318315,408.75526 C 64.08478,422.54143 64.926552,423.73158 69.269345,417.16918 z M 47.712425,410.58936 C 52.543523,405.10095 57.130922,395.79693 59.836357,386 C 61.993651,378.188 69.007914,342.37444 71.098017,328.5 C 72.521019,319.05389 72.836882,300.47244 71.688727,293.75 C 71.007691,289.76254 70.523011,289 68.669552,289 C 67.005241,289 65.653066,287.52919 63.177438,283.02602 C 61.371121,279.74033 59.549853,276.83983 59.130174,276.58045 C 58.710496,276.32108 57.793535,280.24687 57.092482,285.30443 C 56.39143,290.36199 53.187546,308 49.97274,324.5 C 41.746286,366.72229 40.88782,372.98985 40.282119,395.25 C 39.754346,414.6462 39.781311,415 41.787373,415 C 42.948674,415 45.505181,413.09692 47.712425,410.58936 z M 95.526597,410.75 C 99.779154,406.79806 105.12725,394.1714 108.21372,380.79618 C 109.97229,373.17538 110.36561,368.25599 110.39612,353.5 C 110.43658,333.93848 109.38886,325.25292 103.40948,295.58069 C 101.53427,286.27506 100,278.48267 100,278.26426 C 100,278.04585 98.7625,278.00955 97.25,278.18358 L 94.5,278.5 L 94.247382,295 C 94.108443,304.075 93.069046,323.425 91.937611,338 C 90.806177,352.575 89.617524,375.6375 89.296159,389.25 C 88.762123,411.87095 88.85455,414 90.370615,414 C 91.282931,414 93.603122,412.5375 95.526597,410.75 z M 432.28611,403.05028 C 432.02709,394.02857 429.35951,379.63564 423.38048,355 C 414.05702,316.58417 411.57725,300.51248 412.14788,282.20024 L 412.5,270.90048 L 408.76902,268.76455 C 406.71698,267.58979 404.83387,266.8328 404.58432,267.08235 C 404.33477,267.33189 403.45298,284.34191 402.62478,304.88239 L 401.11896,342.22871 L 403.53187,355.86435 C 404.85898,363.36396 406.88211,372.875 408.02774,377 C 412.65968,393.67805 424.15671,411.46738 429.87509,410.80435 C 432.46833,410.50367 432.49742,410.4101 432.28611,403.05028 z M 410.07797,404.75 C 411.57668,399.23557 410.15565,391.19988 405.54538,379.11891 C 397.93584,359.17854 395.91285,335.73315 397.98307,291.47613 C 398.69156,276.3301 399.03907,263.70574 398.75533,263.42199 C 398.47158,263.13824 396.2211,264.26823 393.75427,265.93307 C 389.27402,268.95676 389.26682,268.97127 387.15495,279.23003 C 383.32679,297.82589 382.50701,306.88252 382.60463,329.5 C 382.69016,349.31677 382.96776,352.78802 385.40196,364.4791 C 389.947,386.30817 394.12323,396.70312 401.73154,405.12461 C 406.40262,410.29493 408.59775,410.19641 410.07797,404.75 z M 389.3512,403.24076 C 389.8158,402.48903 386.30489,384.80966 381.85635,365.5 C 378.37629,350.3942 378.5639,318.25559 382.31981,286.10969 C 383.8229,273.24502 384.84775,262.51441 384.59723,262.2639 C 384.0949,261.76157 383.13008,264.92671 373.55679,298.48252 C 367.10941,321.08152 367,321.66685 367,333.55884 C 367,364.25602 371.78357,384.2605 382.70839,399.25 C 385.93188,403.67283 388.23065,405.05384 389.3512,403.24076 z M 116.11733,394.45604 C 122.31609,385.86248 125.91361,360.86575 123.9874,339.77227 C 123.37103,333.02252 121.98332,322.90223 120.9036,317.28274 C 118.74129,306.02885 111.34388,278.9712 110.07908,277.68966 C 109.63922,277.24398 108.14612,278.22607 106.76109,279.87209 L 104.24285,282.86484 L 106.03494,290.38679 C 110.51117,309.17482 112.36847,327.48877 112.43554,353.5 C 112.47099,367.25 112.12284,383.16322 111.66187,388.86271 C 110.72013,400.50631 111.26223,401.18685 116.11733,394.45604 z M 455.73672,386.25 C 455.08463,371.15193 453.22497,362.17486 443.92712,329.24187 C 436.06666,301.40009 433.41227,288.74216 432.42854,274.40875 L 431.73596,264.31749 L 428.53191,267.81372 C 425.50766,271.11373 425.14385,271.2458 422.04906,270.16695 C 420.24572,269.5383 418.3096,269.30866 417.74657,269.65663 C 416.19981,270.61258 417.53382,314.33609 419.49612,327 C 423.26789,351.3415 429.38939,368.72526 439.56808,384 C 445.65307,393.13151 451.31033,399 454.02817,399 C 456.28447,399 456.28668,398.98347 455.73672,386.25 z M 41.917693,338.01519 C 48.348969,325.61034 52.089903,310.15127 53.536875,290 L 54.219026,280.5 L 51.152937,278.25217 C 45.067846,273.79102 41,262.99899 41,251.31634 C 41,248.94235 40.567273,247 40.038383,247 C 39.509494,247 37.001583,249.01685 34.465246,251.48188 C 31.15244,254.70156 30.020169,256.48819 30.444737,257.82588 C 30.769794,258.85004 31.428916,264.95587 31.909454,271.39439 C 32.762785,282.82782 32.116166,301.01026 30.105236,322.12761 C 28.368211,340.3686 27.772111,352.82225 28.573923,354.11961 C 29.753332,356.02793 37.302752,346.91664 41.917693,338.01519 z M 465.69717,340.75 C 465.36488,335.1125 463.87077,322.175 462.37691,312 C 460.20156,297.18316 459.63493,289.53797 459.53078,273.59929 L 459.40075,253.69859 L 453.57431,248.27535 C 450.26924,245.199 447.37129,243.22871 446.87764,243.72236 C 446.39902,244.20098 445.51382,247.26268 444.91054,250.52612 C 443.60286,257.60002 441.50869,262 439.44957,262 C 436.94951,262 435.72294,267.00569 435.77405,277 C 435.8619,294.17925 442.78264,319.55509 452.19772,337.21957 C 455.22749,342.90402 462.82421,351 465.12833,351 C 465.98868,351 466.1403,348.26792 465.69717,340.75 z M 131.73407,346.05422 C 133.78778,342.76571 135.07885,323.90406 133.97734,313.28151 C 132.72814,301.23454 130.71135,293.42664 126.48144,284.26145 C 122.87797,276.45358 117.26433,268 115.68295,268 C 113.45872,268 116.18472,285.57762 121.91338,308.17467 C 125.16569,321.0036 128.14878,335.2125 128.54246,339.75 C 128.93615,344.2875 129.5419,348 129.88858,348 C 130.23526,348 131.06573,347.1244 131.73407,346.05422 z M 355.32196,336.25 C 354.16808,328.17802 354.47479,312.6131 355.92791,305.5 C 356.60205,302.2 358.49297,293.71534 360.12995,286.6452 C 361.76693,279.57506 362.96987,273.09902 362.80314,272.254 C 362.58479,271.14733 361.18965,271.94581 357.81512,275.1088 C 353.28709,279.35298 353.04374,279.87987 350.54704,290.84583 C 349.12628,297.08604 347.56002,306.09494 347.06645,310.8656 C 346.1292,319.92476 347.10414,333.45755 348.94134,336.8904 C 350.50058,339.80386 352.95136,342 354.64338,342 C 355.89875,342 356.00962,341.06053 355.32196,336.25 z M 363.72939,331.24005 C 363.97198,319.88157 364.97846,314.80601 373.29537,283 C 378.51859,263.02503 380.26117,250 377.71034,250 C 376.84929,250 374.51447,252.68382 372.52184,255.96405 C 368.94284,261.85571 363.86783,279.23117 359.52185,300.47247 C 357.10298,312.29486 357.33372,326.92836 360.07044,335.26499 C 361.28646,338.96924 362.55557,341.99552 362.89069,341.99005 C 363.22581,341.98458 363.60322,337.14708 363.72939,331.24005 z M 143.34107,338.94635 C 147.22084,335.89453 148.26843,330.89655 147.85499,317.41091 C 147.5616,307.84116 147.08779,304.73178 145.44443,301.59163 C 143.43779,297.75734 136.82575,293.02274 136.1806,294.9582 C 136.00233,295.49302 136.56376,305.40171 137.42823,316.97752 C 138.29271,328.55333 139,338.69395 139,339.51222 C 139,341.54258 140.24719,341.38 143.34107,338.94635 z M 344.71549,339.197 C 345.66042,338.59655 345.60742,337.20873 344.47736,332.96231 C 342.21298,324.4534 342.66099,316.98817 346.6502,296.75632 C 348.68288,286.4473 350.01037,277.67704 349.60018,277.26685 C 349.18999,276.85666 346.72106,278.76631 344.11366,281.51052 C 339.53771,286.32659 339.30581,286.86492 337.44117,297 C 332.88285,321.77623 336.75774,344.25371 344.71549,339.197 z M 333.74671,332.25693 C 332.05927,326.47212 332.5741,311.79739 334.94405,298.12787 C 336.12382,291.3232 336.83225,285.49891 336.51835,285.18501 C 336.20445,284.87112 333.96643,286.83857 331.54496,289.55714 C 326.34208,295.39841 325.52784,299.12867 325.55472,317 C 325.57974,333.6386 327.81358,339.45507 333.17131,336.83209 C 334.59996,336.13266 334.6835,335.46841 333.74671,332.25693 z M 322.48344,333.75 C 323.13645,331.80961 325.19216,291.85883 324.66607,291.33274 C 324.4094,291.07606 321.79203,294.31996 318.84969,298.5414 L 313.5,306.21675 L 313.19774,301.10837 C 313.0315,298.29877 312.66441,296 312.382,296 C 310.33064,296 307.50496,298.86489 305.83681,302.63602 C 304.07994,306.60772 303.94005,308.37272 304.57061,318.61229 C 305.37915,331.74212 306.8738,335.20827 310.817,333.09794 C 312.86258,332.00318 313.01056,331.1607 313.16771,319.71482 L 313.33543,307.5 L 314.04518,318 C 314.90542,330.7264 314.58405,329.20149 317.07258,332.36514 C 319.27809,335.16899 321.78958,335.81178 322.48344,333.75 z M 156.33998,332.74067 C 157.63484,331.79384 158.38314,328.66707 159.35542,320.14061 C 160.49907,310.1114 160.46656,308.43955 159.07431,305.68396 C 157.57431,302.71511 151.46855,298.19811 150.39994,299.26672 C 150.12173,299.54494 150.44022,307.47374 151.10771,316.88629 C 152.34924,334.39359 152.6856,335.41281 156.33998,332.74067 z M 167.96951,329.04001 C 169.23748,328.2381 169.04934,326.49154 166.59776,316.30532 C 163.74569,304.45509 161.24755,298.66835 162.36479,306.5 C 162.67863,308.7 163.21061,314.1 163.54696,318.5 C 164.43839,330.16152 164.80703,331.04007 167.96951,329.04001 z M 152.53596,282.18846 C 144.20617,259.24208 144.76961,260.28432 140.00034,259.00009 C 133.05638,257.13028 132.87323,257.50448 136.0849,267 C 140.44596,279.89374 145.73572,289.55921 151.883,295.86635 C 156.55829,300.66323 157.42623,301.19983 157.72646,299.47911 C 157.92039,298.36763 155.58466,290.58683 152.53596,282.18846 z M 319.00691,293.98923 C 324.66272,285.17541 329.56564,270.52193 331.46682,256.75 L 332.12255,252 L 329.02915,252 C 323.94829,252 319.00791,254.54782 318.94802,257.19897 C 318.91942,258.46454 317.88183,268.3875 316.64224,279.25 C 315.40266,290.1125 314.70414,299 315.08998,299 C 315.47582,299 317.23844,296.74515 319.00691,293.98923 z M 146.8405,295.57792 C 147.02778,294.61193 146.30117,292.84922 145.22582,291.66079 C 141.67084,287.732 138.26546,280.67236 133.01867,266.35436 L 127.83504,252.20872 L 123.63408,250.60436 C 117.47468,248.25206 117,248.44365 117,253.28207 C 117,264.44594 124.29621,278.3791 136.6679,290.84073 C 143.79681,298.02146 146.15396,299.11914 146.8405,295.57792 z M 310.40225,289.60566 C 314.12145,282.25479 315.97691,274.72522 315.97282,267 C 315.96836,258.58277 315.28327,257.53668 310.37791,258.45693 C 303.14257,259.81428 303.46821,258.77281 303.79354,279.51551 C 304.07503,297.46337 304.1609,298.16437 305.88655,296.60267 C 306.87627,295.70699 308.90833,292.55833 310.40225,289.60566 z M 156.71175,275.50814 C 154.81218,263.79687 154.14442,261.45891 152.61491,261.16436 C 148.42646,260.35773 148.55027,262.61898 153.57636,278.72364 C 156.38279,287.71603 158.60347,293.42498 158.74062,292 C 158.87296,290.625 157.95997,283.20366 156.71175,275.50814 z M 331.81901,285.75 C 338.62727,275.82404 344.61747,260.24766 346.43265,247.75 C 347.12068,243.01283 347.11468,243 344.2105,243 C 339.48051,243 335.03546,244.99097 334.49882,247.34993 C 332.62524,255.58579 327.47049,290 328.11046,290 C 328.54686,290 330.21571,288.0875 331.81901,285.75 z M 77.651264,278.3321 C 82.70051,269.71621 84.203148,257.74555 81.615661,246.75 C 80.485763,241.94848 80.483731,241 81.603347,241 C 82.372961,241 83.646401,243.41573 84.592665,246.67076 C 86.352147,252.72317 86.071344,261.06002 83.798642,270.24477 C 82.801593,274.27418 82.876595,275.518 84.296113,278.49477 C 86.23746,282.56581 87.134958,282.75215 91.123259,279.91223 C 98.520872,274.64467 101.86947,259.86418 98.548123,247.13938 C 97.635007,243.64103 97.038665,240.628 97.222917,240.44375 C 99.194094,238.47257 102.95903,250.95472 102.97077,259.5 C 102.97379,261.7 102.3224,265.95702 101.52323,268.96005 C 100.22319,273.84524 100.23606,274.60336 101.64549,276.16077 C 103.08408,277.75039 103.42595,277.76702 105.58496,276.35238 C 106.88526,275.50039 109.19808,272.26006 110.72457,269.15165 C 113.2902,263.92722 113.49148,262.64727 113.38731,252.21928 C 113.28456,241.93296 113.41678,241.05996 114.88731,242.31577 C 115.77429,243.07324 122.21945,246.65242 129.20989,250.26952 C 138.20071,254.92169 143.5055,257.04419 147.33899,257.52315 C 153.75284,258.32451 154.36179,257.74194 154.68025,250.5 C 154.9104,245.26643 155.64448,242.92944 161.43368,229 C 164.83428,220.81778 165.89956,213.96424 164.18922,211.27192 C 163.66081,210.44012 160.84231,210.10776 155.45453,210.24192 C 149.51589,210.38979 146.68038,209.99967 144.26585,208.70251 C 129.58525,200.81567 123.20658,178.57739 130.00954,159 C 131.78656,153.88614 132.27449,150.26086 132.29758,142 C 132.3599,119.70098 123.92913,110.15958 103.3122,109.1962 L 94.124391,108.76688 L 83.681494,113.95658 C 59.17594,126.13487 41.839278,144.411 32.862251,167.52972 C 30.156028,174.49911 29.579065,178.43772 25.885039,215.15936 C 23.670172,237.17695 22.091469,255.4248 22.37681,255.71014 C 23.395314,256.72865 32.001281,251.78745 34.634826,248.67209 C 38.45824,244.14917 40.478106,239.10658 44.465286,224.13039 C 48.047132,210.67666 50.290569,205 52.02568,205 C 53.393557,205 53.522075,204.36126 48.006421,224.976 L 43.012841,243.63949 L 44.0055,254.05772 C 45.040548,264.92085 48.457578,274.47089 51.763263,275.7394 C 54.084803,276.63026 59.379332,270.25264 62.001042,263.40731 C 63.850001,258.57964 64.285109,255.35276 64.381748,245.75131 C 64.446787,239.28952 64.792617,234.00202 65.150259,234.00131 C 65.507902,234.00059 66.35451,236.3093 67.031612,239.13177 C 68.562594,245.51362 67.727142,255.57342 65.010369,263.46986 C 61.830815,272.71139 62.559566,279.75246 67.209388,284.71643 L 69.285551,286.93286 L 72.138918,284.90108 C 73.708269,283.7836 76.188825,280.82756 77.651264,278.3321 z M 347.64197,274.34028 C 353.5901,266.02224 358.41985,255.25789 361.46851,243.52422 C 364.89363,230.34164 365.02895,230.90959 358.85128,232.53923 C 356.01949,233.28624 353.39338,234.25801 353.01548,234.69872 C 352.16974,235.68504 339,281.00184 339,282.92571 C 339,285.0172 342.47744,281.56251 347.64197,274.34028 z M 364.78935,261.75 L 375.68832,246.5 L 377.3499,235.5 C 378.26377,229.45 379.0089,223.9375 379.00574,223.25 C 378.9994,221.86983 373.27769,221.5364 371.28887,222.80031 C 370.62274,223.22364 368.48549,229.10188 366.53941,235.86308 C 362.33083,250.48483 358.94157,259.31737 354.35143,267.62545 C 351.26408,273.2135 350.7393,277 353.05218,277 C 353.51319,277 358.79491,270.1375 364.78935,261.75 z M 427.97049,265.05785 C 430.19639,260.69472 429.94177,259.17027 426.12721,254.02185 C 423.89778,251.01284 423.54874,249.52913 423.53948,243.02185 C 423.5285,235.30507 426.19168,225 428.19694,225 C 429.27647,225 429.12259,225.93886 426.5783,234.87568 C 424.4037,242.51395 426.67491,251.60768 432.29129,257.75 C 434.07374,259.69938 440,261.03659 440,259.48941 C 440,259.20859 440.90233,254.92791 442.00517,249.97678 L 444.01034,240.97474 L 441.00426,221.23737 C 439.35092,210.38182 437.76502,200.4875 437.48004,199.25 C 437.13507,197.752 437.42385,197 438.34406,197 C 440.43226,197 442.84264,206.13972 443.96448,218.31165 C 445.05912,230.18842 446.82432,235.26817 452.58281,243.11281 C 458.3419,250.95827 470.1064,256.54437 468.65009,250.74199 C 466.61881,242.64871 464.83596,227.26268 463.47259,206.05997 C 462.60824,192.61796 461.01923,176.46183 459.94144,170.15747 C 456.6447,150.87363 447.57886,132.15037 435,118.64708 C 429.60686,112.85759 426.96742,110.95016 419.5,107.44579 C 408.04706,102.07106 401.75592,100.63728 392.15347,101.21338 C 382.62468,101.78506 375.72089,105.05942 368.54601,112.41002 C 359.66185,121.51177 354.68026,133.23983 349.13639,158.1057 C 346.44569,170.17424 345.45333,172.82924 340.35273,181.6057 C 327.93424,202.97383 311.92465,213 290.22295,213 L 281.8661,213 L 285.31442,217.25 C 293.23446,227.01134 300.95532,241.91445 302.58058,250.57783 C 303.30877,254.4594 305.39162,256 309.91121,256 C 312.05326,256 313.43876,255.26 314.59196,253.5 C 315.64341,251.89528 317.17364,250.99214 318.86501,250.97804 C 322.05486,250.95145 328.83518,247.97491 333.25635,244.66027 C 335.04036,243.32277 338.525,241.22853 341,240.00642 C 343.475,238.78431 346.85,236.55188 348.5,235.04547 C 350.15,233.53906 354.2,231.24847 357.5,229.95527 C 360.8,228.66207 364.71733,226.31711 366.20517,224.74424 C 367.91625,222.93537 371.22354,221.20913 375.20517,220.04669 C 378.66733,219.03591 382.36562,217.85878 383.42361,217.43084 C 384.86707,216.84699 385.21086,217.00812 384.80094,218.07639 C 384.50049,218.85938 383.24356,223.53603 382.00776,228.46895 C 378.55668,242.24459 380.57549,253.05204 388.10564,261.11309 C 393.087,266.44565 393.5,265.22888 393.5,245.22048 C 393.5,232.07949 393.84246,226.77539 394.75,225.86034 C 395.75056,224.8515 396.00438,227.0844 396.02196,237.05 C 396.03984,247.18581 396.40304,250.29116 397.97591,253.75635 C 400.74884,259.86536 404.4714,264.40039 408.48906,266.56404 C 411.56552,268.22083 412.15811,268.26966 413.44906,266.97281 C 414.73772,265.67826 414.55514,264.77379 411.94054,259.5 C 408.06926,251.69141 407.10827,242.53079 409.36427,234.94174 C 412.51047,224.35811 415.26874,223.91708 412.63063,234.41948 C 410.45609,243.07635 410.57542,248.13021 413.11909,255.10646 C 415.54131,261.74964 421.24959,269 424.0576,269 C 425.26489,269 426.69376,267.56044 427.97049,265.05785 z "
       style="fill:#ffffff"
       id="path2466" />
    <path
       d="M 177.92408,497.58082 C 181.69131,493.57078 189.36163,490.86591 197.51385,490.67266 C 201.51979,490.5777 204.62321,490.21395 204.41033,489.86433 C 204.19746,489.51471 200.87434,487.07709 197.02564,484.44738 C 191.25123,480.50191 189.91642,479.07141 189.38978,476.26415 C 188.32615,470.59451 190.66463,462.40843 197.4318,448.11231 C 200.97572,440.62554 204.3843,432.53695 205.00643,430.13767 C 206.02174,426.2221 205.92732,425.55154 204.08452,423.58996 C 202.35298,421.74683 201.2913,421.49035 197.30542,421.95229 L 192.5794,422.5 L 191.35513,432.269 C 189.78684,444.78315 187.7645,451.67659 182.92627,461 C 175.10007,476.08131 163.32431,486.96217 149.00168,492.34649 L 143.26357,494.50362 L 153.90676,494.50181 C 163.52712,494.50017 165.02805,494.75619 169.52497,497.16582 C 175.72211,500.4865 175.21774,500.46158 177.92408,497.58082 z M 292.89219,498.07445 C 296.52648,497.0154 302.81461,495.18083 306.86579,493.99762 L 314.23159,491.84634 L 307.36579,486.93726 C 295.4779,478.43734 293.85105,476.87647 291.40545,471.62413 C 288.59942,465.59772 288.29546,457.55159 290.15414,438.5 C 291.45162,425.20076 290.82951,418.24597 288.03354,414.7931 C 286.54224,412.95141 285.18487,412.5 281.13835,412.5 C 278.33654,412.5 275.52293,413.07727 274.8,413.80044 C 272.63713,415.96405 273.50924,423.05296 276.83479,430.34015 C 280.88829,439.2225 283.33375,450.95827 282.51761,457.61198 C 281.08291,469.30855 272.81515,480.82818 258.51505,491.0552 C 254.41269,493.98909 251.15607,496.47446 251.27811,496.57823 C 251.40015,496.68201 254.2,496.3743 257.5,495.89445 C 263.99011,494.95071 275.52435,496.19078 281.83267,498.51051 C 283.8497,499.25222 285.67648,499.89078 285.89219,499.92954 C 286.10789,499.96829 289.25789,499.1335 292.89219,498.07445 z M 155.00312,169.49624 C 155.58842,168.79099 156.87821,165.28961 157.86931,161.7154 C 160.0379,153.89478 168.06626,141.41217 177.43778,131.29007 C 181.047,127.39178 184,123.96906 184,123.68404 C 184,123.39901 183.11713,121.10616 182.03807,118.58881 L 180.07613,114.0118 L 174.12617,117.2559 C 168.96956,120.06744 168.09942,120.96668 167.60036,124 C 166.84615,128.58417 162.88244,133.5526 160.6599,132.69973 C 158.30383,131.79562 158.58045,130.54744 162,126.65278 C 166.29974,121.75564 165.91036,121.01293 159.75931,122.37887 L 154.51861,123.54265 L 153.83399,128.32874 C 153.45745,130.96109 151.46599,138.3765 149.40853,144.80742 C 145.11253,158.23523 144.3998,166.56782 147.27514,169.74906 C 149.20063,171.87939 153.13202,171.75078 155.00312,169.49624 z "
       style="fill:#ed1c24;fill-opacity:1"
       id="path2470" />
  </g>
</svg>
