<?xml version="1.0" encoding="UTF-8" standalone="no"?>
<svg xmlns:rdf="http://www.w3.org/1999/02/22-rdf-syntax-ns#" xmlns="http://www.w3.org/2000/svg" height="570" width="474" version="1.0" xmlns:cc="http://creativecommons.org/ns#" xmlns:dc="http://purl.org/dc/elements/1.1/">
 <path d="m2.5 2.5v353.12c0 101.02 97.693 211.88 234.5 211.88s234.5-110.86 234.5-211.88v-353.13z" stroke="#000" stroke-width="5" fill="#efca7f"/>
 <path d="m233.16 26.007c2-2.4 5.7-1 7 1.4 2.9 5.1 2.7 11 3.2 16.6 0.7-3 1.6-5.9 2.8-8.8 1.1-2-0.5-4.2-0.89999-6.1 2.6 0.4 5.2 0.7 7.8 1-1.5 1.8-5 2.8-4.4 5.6 0.7 4.1-1.1 7.9-2.7 11.6 2-2.4 4-4.8 6.5-6.8 0.1-1.7 0.1-3.3 0-5 1.4 2.2 3 4.2 5.4 5.3-3.3 0.6-4.7 3.5-6.1 6.1 4-1.5 8.2-4.7 12.5-2.5 3.1 1.4 7.5 1.2 9.1 4.8 1 2.8-1.5 5.1-3.6 6.5-7.3 4.6-16.4 4.8-24.8 4.6 1.6 2.1 3.8 3.3 6.4 3.9 1.3 2.2 3.4 3.4 5.8 4-1.6 1.1-3 2.2-4.4 3.5-0.8-1.5-0.8-4.1-3-4.3-2.9-0.3-5.2-2.2-7.2-4.2-0.6 1.4-1.3 2.9-2.1 4.3 3 0.7 4.1 3.8 4.6 6.5-1.2-0.9-2.3-1.9-3.5-2.8-1.5-0.6-2.9-1.1-4.3-1.9-1-0.1-2.1-0.2-3.2-0.3-2.8 1.2-5.5 2.8-7.5 5.2-0.4-3.2 1.3-6.4 4.8-6.5-1.3-1.3-2.4-2.8-2.9-4.5-2.6 2.3-5.5 4.4-8.7 5.8l-0.6 3.3c-1.8-1.7-3.5-3.5-5.3-5.3h4c2.3-1 3-4.5 6-4.2 1.8 0.3 2-1.1 2.2-2.5-7.7 0-15.8-0.4-22.9-3.8-3.5-1.7-6.9-5.3-5.9-9.4 1.5-1.5 3.7-1.4 5.5-1.8 3.1-0.5 6.1-2.2 9.2-1.2 3 0.8 5.5 2.6 8.2 4.1-1-2.2-1.9-4.5-3-6.7-1.3-1.2-3-1.9-3.9-3.4 0.9-0.1 2.7-0.4 3.6-0.5 0.9-0.7 1.9-1.4 2.9-2.1-0.2 1.4-0.5 2.8-0.5 4.2 1.4 2.4 3.1 4.6 4.7 6.8-0.6-3.5-2.3-7.1-1.3-10.7 0.4-2-1.8-3.2-2.7-4.7 2-0.3 4.1-0.7 6.1-1.4-2.6 4.9 1 9.8 1.5 14.8 1.4-6.2 0.9-13.5 5.6-18.5m2.2 1.2c-1.7 0.9-2.5 2.8-3.6 4.3 2.9-0.3 5.7-0.4 8.5-0.5-1.3-1.5-2.6-3.9-4.9-3.8m-4.4 5.8c0.1 1.5 0.2 2.9 0.3 4.4 3.3-0.6 6.6-0.4 9.8-0.3-0.3-1.4-0.4-3-1.1-4.3-3-0.5-6-0.1-9 0.2m-0.6 5.6c0.1 1.5 0.1 3 0.1 4.5 3.6-0.4 7.1-0.2 10.7 0.2-0.1-1.5-0.2-2.9-0.3-4.4-3.5-0.4-7-0.5-10.5-0.3m0.3 6.1c0 0.9 0.1 2.5 0.2 3.4 2.7-0.5 5.5-0.8 8.2-0.3 1.8 0.7 1.6-1.8 2.1-2.8-3.5-0.5-7-0.5-10.5-0.3m-31.1 4.1c0.2 3.3 3.8 4.9 6.4 6.1 8 2.9 16.7 2.3 25 2.9 0.3 1 0.5 2 0.7 3 3 0.3 5.9 0.3 8.9-0.1-0.1-0.7-0.1-2.1-0.1-2.8 7.8-0.7 15.8-0.6 23.6-2.5 2.1-0.5 4.2-1.2 5.9-2.7 0.9-0.9 1-2.9-0.4-3.3-3.3-1.1-6.5-2.4-9.8-3.1-7.3 1.8-13 7.2-20 9.8 0.5-0.6 1.4-1.9 1.9-2.5-1.6-2.7-4.5-5-7.8-4.4-2 0.4-3 2.4-4 4 0.7 0.8 1.5 1.6 2.2 2.3-8.7 0.8-14-8.4-22.3-9.2-3.3 0.7-7.2 0.9-10.2 2.5m38.4 14.2c-1.9 0.4-1.1 3.6 0.8 3 1.9-0.4 1.1-3.5-0.8-3m-4.9 1c-0.5 1.6 0 2.1 1.7 1.6 0.5-1.6-0.1-2.2-1.7-1.6z"/>
 <g fill="#ed1c24">
  <path d="m235.36 27.207c2.3-0.1 3.6 2.3 4.9 3.8-2.8 0.1-5.6 0.2-8.5 0.5 1.1-1.5 1.9-3.4 3.6-4.3z"/>
  <path d="m230.96 33.007c3-0.3 6-0.7 9-0.2 0.69999 1.3 0.8 2.9 1.1 4.3-3.2-0.1-6.5-0.3-9.8 0.3-0.10001-1.5-0.2-2.9-0.3-4.4z"/>
  <path d="m230.36 38.607c3.5-0.2 7-0.1 10.5 0.3 0.10001 1.5 0.2 2.9 0.3 4.4-3.6-0.4-7.1-0.6-10.7-0.2 0-1.5 0-3-0.10001-4.5z"/>
  <path d="m230.66 44.707c3.5-0.2 7-0.2 10.5 0.3-0.5 1-0.3 3.5-2.1 2.8-2.7-0.5-5.5-0.2-8.2 0.3-0.1-0.9-0.2-2.5-0.2-3.4z"/>
  <path d="m199.56 48.807c3-1.6 6.9-1.8 10.2-2.5 8.3 0.8 13.6 10 22.3 9.2-0.7-0.7-1.5-1.5-2.2-2.3 1-1.6 2-3.6 4-4 3.3-0.6 6.2 1.7 7.8 4.4-0.5 0.6-1.4 1.9-1.9 2.5 7-2.6 12.7-8 20-9.8 3.3 0.7 6.5 2 9.8 3.1 1.4 0.4 1.3 2.4 0.4 3.3-1.7 1.5-3.8 2.2-5.9 2.7-7.8 1.9-15.8 1.8-23.6 2.5 0 0.7 0 2.1 0.1 2.8-3 0.4-5.9 0.4-8.9 0.1-0.2-1-0.4-2-0.7-3-8.3-0.6-17 0-25-2.9-2.6-1.2-6.2-2.8-6.4-6.1z"/>
  <path d="m237.96 63.007c1.9-0.5 2.7 2.6 0.8 3-1.9 0.6-2.7-2.6-0.8-3z"/>
  <path d="m233.06 64.007c1.6-0.6 2.2 0 1.7 1.6-1.7 0.5-2.2 0-1.7-1.6z"/>
 </g>
 <path d="m101.96 96.907c1.5-1.4 2.8-3.4 4.9-4 1.5 0.4 2.5 1.7 3.6 2.8 3.8 10.4-2.9 20.5-7.7 29.3 2.1-0.1 3.6-1.6 5.3-2.6 1.5-0.6 3.2-0.8 4.8-1.5 0.8-1.2 1.5-2.4 2.2-3.7 0.6 2.6 1.1 5.1 1.7 7.6l-3-1.2c-2.9 1.8-6.1 3.1-9.5 4.1 0.8 1.6 1.5 3.2 2.2 4.9 1.1-0.8 2-1.8 3.4-2.3 1.7 0.2 3.3 0.9 4.9 1.5-3 0.8-5.9 2-8.6 3.5-1.9 3.8-2.3 8.1-1.7 12.2-1.3-1.5-2.4-3-3.5-4.5 0.2-0.7 0.6-2 0.8-2.7-1.6-0.1-3.3-0.3-4.9-0.4 0.7 3.3 0.5 6.7-0.8 9.9 0.8 1 1.6 1.9 2.5 2.9-1.7 0.8-3.4 1.5-5.1 2.3 0.3-2.5 0.3-5-0.3-7.4 0.5-2.4 0.5-4.8 0-7.2-4.5 7.3-9.5 15.3-17.6 19-2.7 1.2-7.3 1.3-7.8-2.5 0-3.8 1.2-7.5 2.2-11.1 1.8-3.2 5.5-4.7 8.4-6.8-2 0.1-4 0.1-6 0.1-0.8 0.7-1.6 1.4-2.5 2.1-0.2-2.7-1-5.2-2-7.6 1.4 0.9 2.8 1.9 4.4 2.6 3.3-0.7 6.5-1.4 9.8-1.7-5-0.3-9.9-1.9-14-4.9-1.7 0.7-3.3 1.4-5 2 1-2.5 2.2-4.9 3.3-7.4 1.4 1.4 2.4 3.8 4.6 4 3 0.6 6 1.2 8.9 2.2-4.6-3.1-9.3-6.3-12.3-11-1-2.4-1.1-6 2-6.8 6.9-1.7 13.3 2.3 19.3 5-3.7-3.3-6.3-8.7-11.7-9.5 1.4-1.4 2.7-2.8 4-4.3 0.6 1.5 1.1 3 1.7 4.5 4 1 6.6 4.2 9.4 6.9-1.5-3.5-2.2-8.4-6.8-9.2 1-0.6 2-1.1 2.9-1.6 1-0.8 1.9-1.6 2.9-2.4-1 4.5 2.4 7.9 4.6 11.4 0.1-3.8-0.3-7.8 1.3-11.3 1.3-2 3.3-3.4 4.8-5.2m4.2-1c-2.8 3.5-7.4 6.1-7.9 11-0.8 6.6 1.7 14-2.5 19.9-0.3-0.8-0.8-2.4-1.1-3.2-2.1 0.3-4.6 0.2-5.9 2.2-1.7 3.1-1.5 8.6 3.1 8.6-5.4 3-11.1 5.8-16.3 9.2-3.5 2-3.2 6.4-4.3 9.8 0 1.3-1.3 3.6 0.6 4.1 2.1 0.5 4-0.9 5.6-2.1 6.5-5.7 10.6-13.5 16.1-20.1 0.5 0.4 1.6 1.2 2.2 1.5 1.6-2.2 3.5-4.5 4.4-7.1-0.6-1-1.2-1.9-1.8-2.8 4.3-8.3 10.6-16.4 10.7-26-0.19999-1.8-0.19999-5.5-2.9-5m-36.697 19.403c-0.5 2 0.4 3.9 1.2 5.7 1.4-2.4 2.9-4.7 4.4-7.1-1.8 0.4-4.2-0.2-5.6 1.4m2.5 6.5l3.3 3c1.7-2.8 3.3-5.7 5.3-8.3-1.2-0.8-2.4-1.6-3.6-2.3-1.9 2.4-3.6 4.9-5 7.6m10.2-5.3c-1.8 2.9-4.4 5.8-4.9 9.3 1 1.1 2.3 1.7 3.5 2.4 1.1-3.3 3.2-6.1 5-9.1-1.1-1-2.3-1.8-3.6-2.6m0.4 11.4c-1.1 1.9 2.9 2.9 2.9 0.8 0.9-2.4 2.5-4.5 4.4-6.2-0.7-0.9-1.4-1.8-2.1-2.7-2.1 2.4-4.2 5-5.2 8.1m19.5 4c-1.9 0.4-1 3.4 0.9 2.8 2-0.4 1-3.6-0.9-2.8m-3.2 4.2c-0.2 1.6 0.7 2.4 2.2 2.3l0.4-2.4c-0.6 0-1.9 0-2.6 0.1z"/>
 <path d="m361.06 103.91c0-3.2 1-7 3.8-8.7 2.2-1 3.7 1.2 5 2.6 1.6 2.1 3.7 3.6 5.4 5.5 2.1 3.6 1.5 8 1.6 11.9 2.2-3.5 5.9-6.6 4.5-11.2 2 1.3 3.9 2.8 6 4.2-4.8 0.2-5.1 5.4-6.7 8.8 2.9-2.4 5.1-6.1 9.2-6.7 0.60001-1.5 1.2-3 1.8-4.6 1.2 1.7 2.6 3.1 4.2 4.5-1.7 0.5-3.7 0.3-4.8 1.8-2.1 2.4-4.5 4.7-6.6 7.2 5.8-2.4 11.8-6.1 18.4-4.9 2.9 0.6 3.8 4.3 2.4 6.7-2.5 4.8-7.4 7.7-11.6 10.9 2.7-0.6 5.4-1.2 8.1-1.7 2.3-0.3 3.4-2.6 4.9-4.1 0.9 2.5 2 5 3 7.4-1.7-0.6-3.3-1.4-5-1.9-2.3 0.9-4.1 2.8-6.5 3.5-2.3 0.7-4.7 0.8-7 1.3 3 0.7 6.2 0.4 8.9 2.1 1.7-1 3.3-2 5-3-1.2 2.4-2.3 4.8-2 7.6-2.2-2.6-5.4-2.3-8.5-2 2.7 1.9 5.9 3.4 8 6.1 1.1 3.1 1.7 6.4 2.5 9.6 0.4 2.1-0.7 5-3.2 5.2-4.3 0.4-8-2.4-11.1-5-4.5-3.9-7.6-9-10.6-14.1-2.1 1.7-0.9 4.7-0.4 6.8-1.1 2.3-0.9 4.8-0.5 7.3-1.5-1-3.1-2-5-2.1 0.7-1.4 3-2.7 2-4.6-1.1-2.8-0.8-5.7-0.3-8.6-1.6 0.3-3.1 0.5-4.7 0.6 0.9 2.8-0.7 5.6-3.2 6.9 0.9-2.9 0.5-5.9 0.1-8.8-0.6-1-1.1-2-1.7-3.1-2.5-1.5-5-3-8-3.1 2.2-2.6 6-2.3 7.9 0.4 0.5-1.7 1.3-3.4 2.1-5-3.3-1-6.5-2.3-9.5-4.2-1 0.5-1.9 1-2.9 1.4 0.5-2.5 1-5 1.9-7.5 0.9 2.2 2.1 4.6 4.8 4.4 3.2-0.5 3.9 4.4 7.2 3-4-7.1-8.5-14.5-8.9-22.8m3 3.1c1.9 7.9 6.5 14.8 10.4 21.9-0.7 0.9-1.4 1.8-2.1 2.7 1.4 2.5 2.9 4.8 4.6 7.1 0.9-0.5 1.8-0.9 2.7-1.3 5 6.8 9.4 14.2 15.7 19.9 1.7 1.7 4 2.3 6.4 2.3-0.2-4.3-0.7-9-2.9-12.7-5.4-4.5-12-6.9-17.8-10.7 4.2 0.3 4.4-4.5 3.4-7.4-0.7-3.3-6.8-4.8-7.5-0.6-5.1-6.6-0.1-15.8-3.5-23-2.1-2.8-4.9-4.9-7-7.7-3.6 1.5-2.9 6.3-2.4 9.5m28.1 11.5c2 2.5 3.6 5.3 5.2 8.2 1.2-1 2.3-1.9 3.4-2.9-1.4-2.7-3-5.3-4.9-7.7-1.3 0.8-2.5 1.6-3.7 2.4m5.3-2.6c1.7 2.3 3.3 4.7 4.7 7.1 0.9-1.9 1.3-4 1.4-6.1-2-0.6-4-0.9-6.1-1m-10.7 5.4c2.6 2.4 4.1 5.6 5.3 8.9 1.2-0.8 2.4-1.5 3.5-2.4-0.6-3.6-3-6.5-5-9.4-1.3 0.9-2.6 1.9-3.8 2.9m-1.7 0.4c-0.7 0.8-1.3 1.7-2 2.6 1.9 2.5 4.1 4.8 4.9 8 0.6-0.4 1.9-1.1 2.5-1.5-0.8-3.5-3.1-6.4-5.4-9.1m-15.9 12.6c-1.3 1.2 0.9 3.3 2.1 1.9 1.2-1.2-0.9-3.2-2.1-1.9m2.7 3.7c-1.4 1 0.3 3.5 1.7 2.3 1.5-1.1-0.2-3.6-1.7-2.3z"/>
 <g fill="#ed1c24">
  <path d="m106.16 95.907c2.7-0.5 2.7 3.2 2.9 5-0.1 9.6-6.4 17.7-10.7 26 0.6 0.9 1.2 1.8 1.8 2.8-0.9 2.6-2.8 4.9-4.4 7.1-0.6-0.3-1.7-1.1-2.2-1.5-5.5 6.6-9.6 14.4-16.1 20.1-1.6 1.2-3.5 2.6-5.6 2.1-1.9-0.5-0.6-2.8-0.6-4.1 1.1-3.4 0.8-7.8 4.3-9.8 5.2-3.4 10.9-6.2 16.3-9.2-4.6 0-4.8-5.5-3.1-8.6 1.3-2 3.8-1.9 5.9-2.2 0.3 0.8 0.8 2.4 1.1 3.2 4.2-5.9 1.7-13.3 2.5-19.9 0.5-4.9 5.1-7.5 7.9-11z"/>
  <path d="m364.06 107.01c-0.5-3.2-1.2-8 2.4-9.5 2.1 2.8 4.9 4.9 7 7.7 3.4 7.2-1.6 16.4 3.5 23 0.7-4.2 6.8-2.7 7.5 0.6 1 2.9 0.8 7.7-3.4 7.4 5.8 3.8 12.4 6.2 17.8 10.7 2.2 3.7 2.7 8.4 2.9 12.7-2.4 0-4.7-0.6-6.4-2.3-6.3-5.7-10.7-13.1-15.7-19.9-0.89999 0.4-1.8 0.8-2.7 1.3-1.7-2.3-3.2-4.6-4.6-7.1 0.7-0.9 1.4-1.8 2.1-2.7-3.9-7.1-8.5-14-10.4-21.9z"/>
  <path d="m256.66 106.81c2.6 3.3 4.9 6.9 5.8 11 0.89999 5.1-1.9 9.9-1.2 14.9 1.1 4.1 4.5 7.7 3.5 12.1-1.3 3-4.9 3.1-7.6 3.7-0.1-4-0.19999-8.2-1.9-12.1-2.5-5.6-0.5-11.7 0.8-17.4 1.1-4 0.8-8.1 0.6-12.2z"/>
  <path d="m69.463 115.31c1.4-1.6 3.8-1 5.6-1.4-1.5 2.4-3 4.7-4.4 7.1-0.8-1.8-1.7-3.7-1.2-5.7z"/>
  <path d="m71.963 121.81c1.4-2.7 3.1-5.2 5-7.6 1.2 0.7 2.4 1.5 3.6 2.3-2 2.6-3.6 5.5-5.3 8.3l-3.3-3z"/>
  <path d="m82.163 116.51c1.3 0.8 2.5 1.6 3.6 2.6-1.8 3-3.9 5.8-5 9.1-1.2-0.7-2.5-1.3-3.5-2.4 0.5-3.5 3.1-6.4 4.9-9.3z"/>
  <path d="m392.16 118.51c1.2-0.8 2.4-1.6 3.7-2.4 1.9 2.4 3.5 5 4.9 7.7-1.1 1-2.2 1.9-3.4 2.9-1.6-2.9-3.2-5.7-5.2-8.2z"/>
  <path d="m397.46 115.91c2.1 0.1 4.1 0.4 6.1 1-0.1 2.1-0.5 4.2-1.4 6.1-1.4-2.4-3-4.8-4.7-7.1z"/>
  <path d="m386.76 121.31c1.2-1 2.5-2 3.8-2.9 2 2.9 4.4 5.8 5 9.4-1.1 0.9-2.3 1.6-3.5 2.4-1.2-3.3-2.7-6.5-5.3-8.9z"/>
  <path d="m82.563 127.91c1-3.1 3.1-5.7 5.2-8.1 0.7 0.9 1.4 1.8 2.1 2.7-1.9 1.7-3.5 3.8-4.4 6.2 0 2.1-4 1.1-2.9-0.8z"/>
  <path d="m385.06 121.71c2.3 2.7 4.6 5.6 5.4 9.1-0.6 0.4-1.9 1.1-2.5 1.5-0.8-3.2-3-5.5-4.9-8 0.7-0.9 1.3-1.8 2-2.6z"/>
  <path d="m102.06 131.91c1.9-0.8 2.9 2.4 0.9 2.8-1.9 0.6-2.8-2.4-0.9-2.8z"/>
  <path d="m369.16 134.31c1.2-1.3 3.3 0.7 2.1 1.9-1.2 1.4-3.4-0.7-2.1-1.9z"/>
  <path d="m98.863 136.11c0.7-0.1 2-0.1 2.6-0.1l-0.4 2.4c-1.5 0.1-2.4-0.7-2.2-2.3z"/>
  <path d="m371.86 138.01c1.5-1.3 3.2 1.2 1.7 2.3-1.4 1.2-3.1-1.3-1.7-2.3z"/>
 </g>
 <path d="m403.26 259.21c2.4-1.4 5.7-2.7 8.1-0.8 2.7 3 0.4 7.1 0.10001 10.6 0 4.9-5 7.1-8.3 9.8 1.9 0 3.8-0.1 5.7-0.1 0.9-0.8 1.7-1.7 2.6-2.5-0.10001 2.8 1.2 5.3 2.4 7.6-1.6-0.9-3.2-1.8-4.9-2.7-2.3 1.5-5 1.9-7.7 2.2-0.3 0.2-0.9 0.6-1.1 0.8 4.8-0.7 9.4 1.2 13.5 3.6 1.7-0.7 3.4-1.4 5.1-2.1-1.3 2.2-1.3 5.4-3.1 7.2-1.4-1.2-2.2-3.2-4.1-3.4-3-0.4-6-0.8-9-1.5 4.7 3.3 10.3 5.9 12.9 11.2 1.3 2.5-0.2 5.7-3 6.1-6.6 1.3-12.8-1.8-18.7-4.3 4 3.1 7 8.4 12.5 8.8-1.5 1.5-2.9 3-4.2 4.7-0.8-1.8-0.8-4.6-3.3-4.9-3.3-0.9-5.5-3.8-8.1-5.9 1.7 3.4 2.6 8.4 7.3 8.5-2.1 1.5-3.7 3.7-6.3 4.4 0.2-1 0.5-2.9 0.7-3.8-1.8-2.3-3.6-4.6-5.3-7 0.3 4.8 1.4 11-3 14.4-2.7 1.9-3.9 7.1-7.9 6.4-3.3-1.9-4.3-6.1-4.2-9.7 0.3-8 4-15.2 7.5-22.2-2.5-0.9-3.4 1.5-4.8 3-1.5 0.4-3.2 0.6-4.7 1.2-0.9 1.2-1.5 2.6-2.2 4-0.8-2.4-1.4-4.9-2.3-7.4 1 0.4 2.1 0.8 3.1 1.2 2.8-2.1 6-3.6 9.3-4.8-1.1-1.5-2-3.1-2.6-4.8-1.6 3.2-5.4 3-7.9 1.1 3-0.6 5.6-2.1 7.9-3.9 0.5-1 0.9-1.9 1.4-2.8 0.4-3.1 0.5-6.3-0.2-9.4 2.2 1.7 3.7 4.1 3.6 7l4.5 0.3c-0.8-2.8-1.2-5.8-0.3-8.7 0.9-1.8-1.3-2.8-2.2-4.1 1.6-0.7 3.2-1.5 4.6-2.5 0.10001 1.6 0 3.2 0.4 4.7 1.1 3.2-0.3 6.5 1 9.6 4.2-7 8-14.8 15.2-19.1m0.1 3c-6.5 6-10 14.3-15.3 21.2-0.5-0.3-1.7-0.9-2.3-1.2-1.8 2.5-3.3 5.3-4.1 8.3 0.5 0.3 1.6 1 2.2 1.4-3.7 8.7-9.6 17.1-9.2 26.9 0.3 1.7 0.4 5.4 3 5 2.3-3 5.4-5.5 6.9-9 1.6-7.3-2.1-15.2 1.3-22.3 1.1 1.1 2 3.2 4 2.5 5.4-0.3 6.1-10.7 0.2-10.6 5.2-3.7 10.9-6.6 15.9-10.5 2.6-1.8 2.2-5.3 3-8.1 0-1.8 1.4-4.3-0.4-5.7-2-0.4-3.8 0.9-5.2 2.1m-22.3 18.7c-1.8 0.4-1 3.3 0.7 2.7 1.8-0.4 1-3.3-0.7-2.7m-2.9 4.1c-1.6 1.3 0.7 3.7 2.1 2.3 1.4-1.3-0.8-3.7-2.1-2.3m18.2 4.8c-0.7 2.5-2.1 4.5-3.9 6.3l2.4 2.7c1.9-2.8 4-5.6 4.6-8.9 0.7-2.1-3.2-1.8-3.1-0.1m0.6 9.1c0.2 1.5 2.3 1.8 3.2 2.9 2.3-2.9 4-6.2 4.9-9.8-1.1-0.7-2.3-1.4-3.5-2.1-1.3 3.1-2.9 6.1-4.6 9m5.1 2.5c1.2 0.7 2.5 1.6 3.8 2.3 1.6-2.5 3.6-5 4.3-8-0.8-1.2-2-2-3.4-2.4-1.6 2.7-2.6 5.7-4.7 8.1m5.5 2.4c2.1-0.2 4.1-0.7 6-1.3-0.2-2.1-0.8-4.1-1.7-6.1-1.3 2.5-2.8 5-4.3 7.4z"/>
 <path d="m58.963 260.91c1-3 4.7-2.6 7-1.5 8.2 3.9 12.7 12.3 16.9 20 1.7-3-0.1-6.3 1.2-9.4 0.5-1.6 0.3-3.4 0.3-5 1.4 1.1 2.9 2.1 4.8 2.3-1 1.1-1.9 2.3-2.8 3.4 1.4 3.1 1.1 6.5 0.2 9.7 1.6-0.1 3.2-0.2 4.9-0.2-0.9-2.9 1-5.6 3.4-6.9-1 3.4-1 7 0 10.4 1.9 3.1 5.6 4.8 9 5.6-2.7 1.6-6.1 1.8-8.1-1-0.7 1.7-1.5 3.2-2.5 4.7 3.2 1 6.1 2.7 9 4.4 1.2 0 2.3-0.3 3.4-0.5-0.8 2.3-1.5 4.5-2.3 6.8-0.6-1.2-1.2-2.4-1.9-3.5-1.5-1.1-3.5-0.9-5.2-1.7-1.2-1.4-2.2-3.5-4.5-2.8 3.7 8.2 8.6 16.8 7 26.1-0.6 2.6-2.5 6.4-5.7 5.8-2.7-2-4.2-5.1-6.8-7.3-3.6-3.4-2-9-2.5-13.5-1.3 2.3-3 4.2-4.5 6.3-0.6 1.5-0.2 3.2-0.3 4.8-1.9-1.6-3.8-3.2-5.7-4.7 4.9 0 5.4-5.5 7.5-8.8-2.7 2.2-5 5.1-8.4 6.2-2.4 0.4-2.6 3-3.5 4.8-1.1-1.6-2.4-3.2-3.9-4.6 5.4-0.2 8.2-5.5 12-8.5-5.9 2.2-12.1 5.4-18.6 3.9-2.8-0.5-3.8-4-2.5-6.3 2.6-5.1 8.1-7.5 12.4-10.9-3.1 0.8-6.1 1.3-9.3 1.6-1.6 0.7-2.6 2.3-3.9 3.5-0.8-2.6-1.7-5.1-2.6-7.6 1.7 0.8 3.3 1.8 5.2 2.3 4-2.6 8.6-3.9 13.4-3.9-3.1-0.8-6.2-1.3-9.2-2.5-1.5 0.7-3 1.6-4.4 2.4 0.6-1.4 1.3-2.8 2-4.1v-3.4c0.9 0.8 1.8 1.6 2.8 2.4 1.9 0.1 3.7 0.1 5.6 0.2-2.6-2.3-6.2-3.9-7.7-7.1-0.3-4-2.2-8-1.2-11.9m3.4 0.5c-1.4 1.3-0.3 3.3-0.2 4.9 0.7 2.9 0.3 6.4 2.8 8.4 5 4.3 11.1 7.1 16.3 11-4.2-0.7-4.7 4.1-4 7.1 0.7 3.4 6.9 5.3 7.6 0.7 4.6 7.1-0.6 15.7 2 23.3 1.8 3.1 4.5 5.7 7 8.3 2.7-1 2.7-4.8 2.7-7.3-0.7-8.8-5.5-16.5-9.2-24.3 0.7-0.9 1.4-1.8 2.1-2.7-1.1-2.7-2.5-5.3-4.4-7.6-0.5 0.4-1.5 1.2-2.1 1.6-5-7.3-8.9-15.6-15.5-21.7-1.4-1.1-3.3-2.7-5.1-1.7m26.8 20.5c-1.8 0.4-1.1 3.4 0.8 2.9 2-0.4 1.1-3.6-0.8-2.9m2 4.2c-1.5 1 0.2 3.5 1.6 2.4 1.5-1-0.2-3.6-1.6-2.4m-19.3 3.9c-0.4 3.6 2.5 6.7 4.1 9.8 0.9-0.9 1.8-1.8 2.8-2.7-2.4-1.9-3.9-4.5-4.3-7.6-0.7 0.1-2 0.4-2.6 0.5m-6 3.5c1.3 3.3 2.8 6.4 4.9 9.3 1.3-0.8 2.6-1.7 3.8-2.6-2.2-2.5-3.4-5.7-4.6-8.8-1.7-0.3-2.8 1.4-4.1 2.1m-4.8 3.3c0.5 3 2.5 5.4 4.2 7.9 1.3-0.6 2.6-1.2 3.9-1.9-1.9-2.6-3.4-5.5-4.5-8.5-1.3 0.7-2.8 1.2-3.6 2.5m-3.3 7.1c1.9 0.4 3.8 0.8 5.8 1.1-1.5-2.4-2.9-4.9-4.2-7.4-1.2 1.9-1.5 4.1-1.6 6.3z"/>
 <g fill="#ed1c24">
  <path d="m403.36 262.21c1.4-1.2 3.2-2.5 5.2-2.1 1.8 1.4 0.4 3.9 0.4 5.7-0.8 2.8-0.4 6.3-3 8.1-5 3.9-10.7 6.8-15.9 10.5 5.9-0.1 5.2 10.3-0.2 10.6-2 0.7-2.9-1.4-4-2.5-3.4 7.1 0.3 15-1.3 22.3-1.5 3.5-4.6 6-6.9 9-2.6 0.4-2.7-3.3-3-5-0.39999-9.8 5.5-18.2 9.2-26.9-0.6-0.4-1.7-1.1-2.2-1.4 0.80001-3 2.3-5.8 4.1-8.3 0.6 0.3 1.8 0.9 2.3 1.2 5.3-6.9 8.8-15.2 15.3-21.2z"/>
  <path d="m62.363 261.41c1.8-1 3.7 0.6 5.1 1.7 6.6 6.1 10.5 14.4 15.5 21.7 0.6-0.4 1.6-1.2 2.1-1.6 1.9 2.3 3.3 4.9 4.4 7.6-0.7 0.9-1.4 1.8-2.1 2.7 3.7 7.8 8.5 15.5 9.2 24.3 0 2.5 0 6.3-2.7 7.3-2.5-2.6-5.2-5.2-7-8.3-2.6-7.6 2.6-16.2-2-23.3-0.7 4.6-6.9 2.7-7.6-0.7-0.7-3-0.2-7.8 4-7.1-5.2-3.9-11.3-6.7-16.3-11-2.5-2-2.1-5.5-2.8-8.4-0.1-1.6-1.2-3.6 0.2-4.9z"/>
  <path d="m381.06 280.91c1.7-0.6 2.5 2.3 0.7 2.7-1.7 0.6-2.5-2.3-0.7-2.7z"/>
  <path d="m89.163 281.91c1.9-0.7 2.8 2.5 0.8 2.9-1.9 0.5-2.6-2.5-0.8-2.9z"/>
  <path d="m378.16 285.01c1.3-1.4 3.5 1 2.1 2.3-1.4 1.4-3.7-1-2.1-2.3z"/>
  <path d="m91.163 286.11c1.4-1.2 3.1 1.4 1.6 2.4-1.4 1.1-3.1-1.4-1.6-2.4z"/>
  <path d="m396.36 289.81c-0.1-1.7 3.8-2 3.1 0.1-0.60001 3.3-2.7 6.1-4.6 8.9l-2.4-2.7c1.8-1.8 3.2-3.8 3.9-6.3z"/>
  <path d="m71.863 290.01c0.6-0.1 1.9-0.4 2.6-0.5 0.4 3.1 1.9 5.7 4.3 7.6-1 0.9-1.9 1.8-2.8 2.7-1.6-3.1-4.5-6.2-4.1-9.8z"/>
  <path d="m396.96 298.91c1.7-2.9 3.3-5.9 4.6-9 1.2 0.7 2.4 1.4 3.5 2.1-0.9 3.6-2.6 6.9-4.9 9.8-0.9-1.1-3-1.4-3.2-2.9z"/>
  <path d="m65.863 293.51c1.3-0.7 2.4-2.4 4.1-2.1 1.2 3.1 2.4 6.3 4.6 8.8-1.2 0.9-2.5 1.8-3.8 2.6-2.1-2.9-3.6-6-4.9-9.3z"/>
  <path d="m402.06 301.41c2.1-2.4 3.1-5.4 4.7-8.1 1.4 0.4 2.6 1.2 3.4 2.4-0.7 3-2.7 5.5-4.3 8-1.3-0.7-2.6-1.6-3.8-2.3z"/>
  <path d="m61.063 296.81c0.8-1.3 2.3-1.8 3.6-2.5 1.1 3 2.6 5.9 4.5 8.5-1.3 0.7-2.6 1.3-3.9 1.9-1.7-2.5-3.7-4.9-4.2-7.9z"/>
  <path d="m57.763 303.91c0.1-2.2 0.4-4.4 1.6-6.3 1.3 2.5 2.7 5 4.2 7.4-2-0.3-3.9-0.7-5.8-1.1z"/>
  <path d="m407.56 303.81c1.5-2.4 3-4.9 4.3-7.4 0.9 2 1.5 4 1.7 6.1-1.9 0.6-3.9 1.1-6 1.3z"/>
 </g>
 <path d="m225.96 405.81c2-5.5 5.5-10.3 9.1-14.9l2.7 2.4c10.6 9.2 20.8 19 30.8 28.8 1.5 1.6 3.9 3.2 3.1 5.7-1.1 7.6 0.5 15.1 3.4 22.1-6.3 2.6-12.5 5.2-18.4 8.7-6.5 3.7-12.9 8.4-15.8 15.6-0.3-4.1 0.3-8.3 1.5-12.2-5.7 4.5-10 10.5-12.4 17.4-1.2-4.8-1.2-9.8-0.6-14.7-5.2 4-8 10-10.2 16-0.8-3.5-1.1-7.1-1.1-10.7-5.7 3.3-11.7 6-18.1 7.5-2.6 0.7-5.2 0.1-7.7-0.8-15.2-6.7-30-15-42.8-25.8-1.9-0.8-4.2-0.5-6.1-1.5-2-1.7-3.5-3.8-5.6-5.4-3.9-2.9-8.7-4.4-13.3-5.7 5.5-3.9 12.5-4.4 18.8-2.7-4.2-4.9-9-9.4-14.5-12.9 6.8-1.8 13.8 0.2 19.7 3.5-2-5.9-5.1-11.5-8.8-16.6 6.5 1.1 12.7 3.8 17.3 8.5-0.30001-6.4-1.8-12.6-4.6-18.4 7.2 3.8 13.5 10.1 15.6 18.1 0.69999 2 1 4.7 3.3 5.5 10 3.7 20.5 6.7 29.4 12.8 6.2-4.5 13.4-7.4 20.6-9.9 1.5-6.8 2.1-13.9 4.7-20.4m-68.1 0.6c1.4 4.4 2.4 8.8 2 13.5-0.3 3 1.1 7 4.7 6.8 2.7-7.4-1.3-15.3-6.7-20.3m-12 7.6c3.2 3.5 5.2 7.8 6.6 12.4 1 2.3 1.3 5.9 4.4 6.4s3.5-3.6 2.4-5.6c-2.4-6.1-8.4-9.5-13.4-13.2m-9.2 10.9c4.3 3.8 8.6 7.7 11.4 12.8 1.2 2.4 4.1 4 6.7 2.8 1.4-2 0.3-4.7-1.2-6.3-4.4-4.8-10.6-7.6-16.9-9.3m-3.9 13.1c3.8 1.5 7.6 3.4 10.3 6.6 1.3 1.8 3.5 3.2 5.8 2.5 2-0.2 2.4-3 1-4.1-4.6-4.1-11.2-4.6-17.1-5zm182.9-268c6 0 12.9 0.1 17.5 4.5 3.5 3.5 0.30001 10.1-4.4 10.1-1.9-0.1-2.5-2.2-3.5-3.4-2.6-4.2-6.3-7.6-9.6-11.2zm-32.1-13.5c1.6-1.5 3.9-1.6 5.9-1.9-0.2 1.3-0.3 2.6-0.5 3.9-1.5 0.6-2.9 1.3-4.3 2.1 1.9 1.3 4.7 2.3 4.2 5.3-2.2-0.5-5.2-0.3-6.5-2.6-1-2.1-0.8-5.2 1.2-6.8zm-32-58.8c6.9 5 12.8 12.2 14 20.9 0.9 4.1-0.5 8.1-0.8 12.1-0.1 3.3 2 6.1 3.9 8.6 1.7-4 1.1-8.3 0.7-12.5-0.4-5.1 1.7-10.5 6.3-13.1 3.4-2 7.8-4.7 11.8-2.6 0.2 6.2 0.7 12.5 0.6 18.7-0.6 7.8 1.6 15.5 1 23.3-2.4 0.7-5 1.1-7 2.9-2.3 2-2.3 5.9-0.7 8.4 1.6 2.4 4.9 2.4 7.4 3.1 0 4.7-2.2 9.2-0.8 13.8 0.7-3.7 1.5-7.3 2.2-10.9 1.6-10 0.7-20.2 0.2-30.2 3.2 0.6 6.7 1.4 9.1 3.9 5.1 4.7 5.9 12.1 9 18.1 3.1 7.4 9.9 12.2 14.4 18.6 5.4 7.3 8.3 16.1 9.4 24.9 1.5 13.7 2.5 27.4 2.6 41.1 0.3 9.8 1.3 20 5.9 28.9 2 4.2 5.1 7.8 8.2 11.3-7.5-0.4-13.1-5.9-17.8-11.2 1 10.7 4.8 20.8 9.4 30.5-5.4-0.8-8.5-5.6-11.7-9.5 0.1 8 3.4 15.3 6.8 22.3-6-1.9-9.6-7.4-12.5-12.6 0.3 7.2 2.6 14.1 5.8 20.6l-6.9-3.3c1.7 9.4 7.1 17.4 10.7 26.1 1.6 3.8 4.1 7.1 7.4 9.6 6.5 5.2 12.2 11.8 15.5 19.6 1.9 4.7 4 9.3 6 13.9 3.6 8.5 8.4 16.7 9.4 26 0.9 7.2-1.2 14.6 0.9 21.7 0.9 3.1 3.5 5.2 5.8 7.4-3.9 3.1-9 5.9-14.1 4.1-5.3-1.9-7.6-7.5-9.5-12.2-4 7.6-6.6 16.2-6 24.8 0.1 4.9 1.9 9.5 3.5 14-4.6-1.6-7.6-5.4-10.1-9.4-2 8.5-0.5 17.2 1.9 25.4-4.4-2.6-8.1-6.2-10.8-10.5-1.6 7.3-0.5 14.8 1.8 21.9-4.9-2-8-6.5-10-11.3-1.6 9-6.9 16.6-9.4 25.2-1.4 5.6-7.4 7.6-11.9 10-10.7 5.6-22.7 7.9-34.5 10-5.7 0.9-11.7 2.3-17.5 0.6-3.1 1.8-6.7 2.3-10.1 3.3-4 1.1-7.2 3.8-10.4 6.3-0.6-5.9 1.6-11.4 5.4-15.8-5.6-1-11.3-0.3-16.7 1.6 2.3-5.9 7.2-10.1 13.1-12.2-4.4-2.4-9.6-2.8-14.5-3.4 5.4-4 11.6-6.9 18.4-7.6-5.2-4.1-11.4-6.6-17.7-8.1 10-4 22.3-4.1 31 2.8 10.3-7.5 23.3-9.6 35.5-12 1.4-5 2.5-10.1 4.3-14.9 0.9-3.1 2.6-6.4 1.1-9.6-2.2-5.1-7.4-8.1-9.8-13.2-4.3-8.3-8-17.5-6.9-27 1.2-13.7 6.2-26.6 10.8-39.3 2.3-5.7 4.3-12 9.1-16 3.4-2.7 8-2.5 12-3.3-4.6-1.5-10.2-0.9-13.6 2.7-3.5 3.8-5.6 8.6-7.6 13.3-4.8 11.4-8.4 23.3-11.9 35.2-10.4-11.3-21.8-21.7-33.5-31.8-6-5.1-11.6-10.5-17.3-15.9-9.4-8.5-16.2-19.4-22.8-30.1-7.1-11.6-13.5-23.8-16.7-37.1 12.5 2.8 25.1 5.8 37.7 8.7 7.2 1.4 14.5 3.2 22 3.3-20.8-6.5-42.4-9.5-63.3-15.4-9.6-3.1-19.8-1.8-29.2 1.2 3.1-3.8 7-6.8 11.5-8.7-6.1-1.2-12.4-0.3-18.4 1.2 1.5-3.2 4.2-5.6 7.4-7-7.9-2.9-15.7-5.9-23.6-8.9-3.9-1.6-8.3-3.4-10.4-7.4-2.6-4.9-4.6-10.1-6.7-15.2-2.8-7.2-5.9-14.5-5.9-22.3-5.9-4.7-8.7-12.3-15.1-16.5 7.3-1.6 14.9 0.6 20.5 5.3-0.7-7-4.1-13.4-8.7-18.6 7.6-0.2 14 5 17.4 11.5 0.2-6.2-0.8-12.5-4.4-17.8 6.1 2.3 11 6.8 14.1 12.5 2.2-2.2 4.7-4.3 5.8-7.4 1.1-3.4 1.5-7.1 2.3-10.7 4.1 8.3 6.1 18.4 2.1 27.2 7.9 6.3 10.5 16.7 14.8 25.4 23.1 1.7 46 6.3 68.6 11.5 7.1 1.6 14 4.1 21.3 4.8-15.9-6.5-33-9.3-49.8-12.2 3-10.8 9.9-20 18.5-27.1-3 0-6 0.1-9 0.2 4.3-3 8.8-5.9 11.8-10.2-4.9 1.4-9.9 1.9-15 2 4.7-2.4 9.6-4.3 14.1-7.2 15-9.2 24.9-25.7 27.5-43-4.6 2-9.7 2-14.3-0.1 5.6-1.7 10.4-5.3 13.2-10.5-4.3 2-9 3-13.7 2.6 5.2-3.2 10.2-6.7 13.7-11.8-3.6 1.5-7.4 2.8-11.3 3.2 6.2-5.7 11.5-12.9 13-21.4 0.9-3.5 0-7.1 0.4-10.7 1.5-2.4 4.2-3.7 6.6-5.2 0.4 4.8 0.9 9.5 2.5 14.1 0.3-4.1 0.9-8.3 2-12.3 1.6-5.9 0.5-12.1-0.8-18m5.1 9.1c0.2 4.1 0.5 8.2-0.6 12.2-1.3 5.7-3.3 11.8-0.8 17.4 1.7 3.9 1.8 8.1 1.9 12.1 2.7-0.6 6.3-0.7 7.6-3.7 1-4.4-2.4-8-3.5-12.1-0.7-5 2.1-9.8 1.2-14.9-0.9-4.1-3.2-7.7-5.8-11m55.4 91c-0.2 2.6-2.7 4.3-5.2 4-3.3 0.1-5.9-2.4-9-3 3 2.8 6.9 5.1 11.1 4.9 4.6-0.7 6.3-6.6 4.6-10.5-1.5-3-3.6-5.6-5.5-8.3 1.3 4.3 4.5 8.2 4 12.9m-181 18.3c-2.6 2.4-1.9 6-1.1 9.1 0.6-0.2 1.8-0.7 2.5-0.9 4.6-5 4.3-12.3 4-18.7-1 3.8-2.3 7.7-5.4 10.5m-11.7-7.4c1.5 4.8 2.3 9.9 1.9 15-0.1 1.7-0.5 3.6 0.8 5 1.6 0.4 2.8-1 3.1-2.4 1.7-6.4-1.2-13.2-5.8-17.6m-12.9 3.4c1.4 2.5 3 4.9 3.9 7.6 1.2 3.7 0.9 7.7 2.1 11.3 0.3 1.5 2.1 1.4 3.2 1.8 3.5-8.1-2.2-16.7-9.2-20.7m-11.6 11.2c4.8 3.7 7.3 9.6 12.2 13.3 0.80001-2.1 1.4-4.7 0-6.8-2.7-4.1-7.8-5.3-12.2-6.5m135.7 281.9c5.3 1.7 8.5 6.6 13.3 9 2.6 1.2 4.4-2.2 2.7-4.1-4-4.5-10.4-4.9-16-4.9m-3.5 13.2c0.1 0.2 0.1 0.5 0.2 0.6 2.5 0.1 5.1 0.2 7.6 0.8 2.8 0.7 5.2 2.5 8 2.8 3 0.3 2.8-4.5 0.60001-5.4-5.3-2.3-11.1 0.1-16.4 1.2m1.4 11.8c4.8-0.4 9.6 0 14.3 0.4 1.6 0 4.1 0.4 4.4-1.8 1.1-1.9-1.6-3.6-3.3-3.5-5.4 0-10.6 2.5-15.4 4.9m7 12.4c3.7-1.9 7.8-2.9 12-3.4 2.8 0.1 4.7-4.8 1.4-5.6-6-0.5-10.2 4.6-13.4 9zm-54.1-446.3c5 7.9 4.1 17.7 2.8 26.5 5.7-5.6 10.1-12.4 13.1-19.9 2.2 6.8 1.7 13.9 0.4 20.8 6.1-3.2 10.5-8.5 14.8-13.6-0.80001 7.2-1.8 14.9-6.6 20.7-2.4 3.2-6.2 5-10.2 5.5 0.1 8.3-2.6 16.5-7.8 23 5.3 4 8.7 9.8 12.6 14.9 6.9 9 15.3 16.7 23.1 24.8-1.1 1.4-2.1 2.8-3.4 4-7.8 6.6-16.9 11.5-26.2 15.5 4.8 1.7 10 0.9 14.9 0.2-4 3.8-8.7 6.5-13.2 9.6 3.3 0.6 6.6 0.8 9.8 0.4-6.1 5.1-10.3 12-13.6 19.3-5.2-5.6-10.3-11.2-15.1-17.2-5.6-6.5-12.8-11.6-20.8-14.7 4.1-1.5 8.6-1.5 12.9-0.7-5.8-6.9-13-12.6-21-16.7 4.4-0.8 8.8 0.1 13.1 0.9-5.3-9.8-10.4-19.7-15.1-29.8-2.3-4.2-1.6-9.2-0.4-13.6 3-11.6 6.2-23.3 12.1-33.7 1.7-8.3 3.8-16.9 2.1-25.5 6.6 5.1 10.8 12.9 11.4 21.1 5.3-6.1 8.6-13.8 10.3-21.8m-18.3 6.4c0.2 3.3 0.9 6.7 0.2 10-0.5 3.2-1.9 6.5-0.8 9.8 1 2.2 4.7 0.8 5-1.3 1.7-6.5-1.3-13-4.4-18.5m10.3 19.1c-2.2 4.1 4 5.5 5.8 2.3 3.4-5.4 2.8-12.2 3-18.3-1.3 6.1-5.4 10.9-8.8 16m13.3 2.8c-3.2 1.8-0.2 7.3 3 5 5.9-3.8 6.3-11.8 7.1-18-2.9 4.7-5.6 9.6-10.1 13m21.9-6.2c-2.9 3.5-6.4 6.7-10.6 8.6-1.6 0.8-3.7 1.7-3.6 3.9 0.8 2.8 4.4 2.1 6.4 1 5-3 6.6-8.9 8.7-13.9-0.2 0.1-0.7 0.3-0.9 0.4z"/>
 <path fill="#e6e6e7" d="m235.46 542.61c3.2-4.4 7.4-9.5 13.4-9 3.3 0.8 1.4 5.7-1.4 5.6-4.2 0.5-8.3 1.5-12 3.4zm-7-12.4c4.8-2.4 10-4.9 15.4-4.9 1.7-0.1 4.4 1.6 3.3 3.5-0.3 2.2-2.8 1.8-4.4 1.8-4.7-0.4-9.5-0.8-14.3-0.4zm-1.4-11.8c5.3-1.1 11.1-3.5 16.4-1.2 2.2 0.9 2.4 5.7-0.6 5.4-2.8-0.3-5.2-2.1-8-2.8-2.5-0.6-5.1-0.7-7.6-0.8-0.1-0.1-0.1-0.4-0.2-0.6zm3.5-13.2c5.6 0 12 0.4 16 4.9 1.7 1.9-0.1 5.3-2.7 4.1-4.8-2.4-8-7.3-13.3-9zm-97.8-67.2c5.9 0.4 12.5 0.9 17.1 5 1.4 1.1 1 3.9-1 4.1-2.3 0.7-4.5-0.7-5.8-2.5-2.7-3.2-6.5-5.1-10.3-6.6zm3.9-13.1c6.3 1.7 12.5 4.5 16.9 9.3 1.5 1.6 2.6 4.3 1.2 6.3-2.6 1.2-5.5-0.4-6.7-2.8-2.8-5.1-7.1-9-11.4-12.8zm9.2-10.9c5 3.7 11 7.1 13.4 13.2 1.1 2 0.7 6.1-2.4 5.6s-3.4-4.1-4.4-6.4c-1.4-4.6-3.4-8.9-6.6-12.4zm12-7.6c5.4 5 9.4 12.9 6.7 20.3-3.6 0.2-5-3.8-4.7-6.8 0.4-4.7-0.6-9.1-2-13.5zm-63-183.1c4.4 1.2 9.5 2.4 12.2 6.5 1.4 2.1 0.80001 4.7 0 6.8-4.9-3.7-7.4-9.6-12.2-13.3zm11.6-11.2c7 4 12.7 12.6 9.2 20.7-1.1-0.4-2.9-0.3-3.2-1.8-1.2-3.6-0.9-7.6-2.1-11.3-0.90001-2.7-2.5-5.1-3.9-7.6zm12.9-3.4c4.6 4.4 7.5 11.2 5.8 17.6-0.3 1.4-1.5 2.8-3.1 2.4-1.3-1.4-0.9-3.3-0.8-5 0.4-5.1-0.4-10.2-1.9-15zm11.7 7.4c3.1-2.8 4.4-6.7 5.4-10.5 0.3 6.4 0.6 13.7-4 18.7-0.7 0.2-1.9 0.7-2.5 0.9-0.8-3.1-1.5-6.7 1.1-9.1zm77.5-97.7c0.2-0.1 0.7-0.3 0.9-0.4-2.1 5-3.7 10.9-8.7 13.9-2 1.1-5.6 1.8-6.4-1-0.1-2.2 2-3.1 3.6-3.9 4.2-1.9 7.7-5.1 10.6-8.6zm-21.9 6.2c4.5-3.4 7.2-8.3 10.1-13-0.8 6.2-1.2 14.2-7.1 18-3.2 2.3-6.2-3.2-3-5zm-13.3-2.8c3.4-5.1 7.5-9.9 8.8-16-0.19999 6.1 0.40001 12.9-3 18.3-1.8 3.2-8 1.8-5.8-2.3zm-10.3-19.1c3.1 5.5 6.1 12 4.4 18.5-0.3 2.1-4 3.5-5 1.3-1.1-3.3 0.3-6.6 0.8-9.8 0.7-3.3 0-6.7-0.19999-10z"/>
</svg>
