<?xml version="1.0" encoding="utf-8"?>
<!-- Generator: Adobe Illustrator 14.0.0, SVG Export Plug-In . SVG Version: 6.00 Build 43363)  -->
<!DOCTYPE svg PUBLIC "-//W3C//DTD SVG 1.1//EN" "http://www.w3.org/Graphics/SVG/1.1/DTD/svg11.dtd">
<svg version="1.1" id="Layer_1" xmlns="http://www.w3.org/2000/svg" xmlns:xlink="http://www.w3.org/1999/xlink" x="0px" y="0px"
	 width="359.5px" height="430.333px" viewBox="0 0 359.5 430.333" enable-background="new 0 0 359.5 430.333" xml:space="preserve">
<path id="path2470" fill="#D12E24" stroke="#000000" stroke-width="4" d="M204.593,424.031
	c45.885-6.509,88.602-31.898,116.938-69.509c14.096-18.702,25.287-42.629,30.762-65.766c4.765-20.125,4.553-13.319,4.863-155.985
	l0.279-130.153H179.899H2.364l0.282,130.154c0.256,118,0.4,130.969,1.581,138.887c7.756,52.108,35.402,96.008,78.464,124.59
	c25.305,16.805,52.562,26.207,84.669,29.215C174.073,426.094,196.009,425.246,204.593,424.031z"/>
<polygon fill="#CB9C46" stroke="#000000" points="128.5,208.5 95.642,209.597 101.827,241.887 80.483,216.881 59.095,241.849 
	65.336,209.571 32.481,208.416 61.608,193.171 42.026,166.763 72.106,180.031 80.543,148.256 88.924,180.045 119.028,166.831 
	99.399,193.204 "/>
<polygon fill="#CB9C46" stroke="#000000" points="326.942,211.12 294.084,212.217 300.27,244.506 278.926,219.501 257.537,244.469 
	263.779,212.19 230.924,211.035 260.051,195.791 240.469,169.382 270.549,182.65 278.985,150.875 287.367,182.665 317.471,169.45 
	297.842,195.824 "/>
<rect x="133.5" y="366.834" fill="#CCC8CD" stroke="#000000" width="92.167" height="23.167"/>
<path fill="#CCC8CD" stroke="#000000" d="M209.954,366.334h-60.288h0.083c-0.028,0-0.056,0-0.083,0
	c-3.682,0-6.667-2.985-6.667-6.667s2.985-6.667,6.667-6.667c0.028,0,0.056,0,0.083,0h-0.083h60.288h-0.095c0.031,0,0.063,0,0.095,0
	c3.683,0,6.667,2.985,6.667,6.667S213.637,366.334,209.954,366.334c-0.021,0-0.043,0-0.063,0H209.954z"/>
<polygon fill="#CCC2C9" stroke="#000000" points="156.999,59 150.25,353 210.938,353 204.749,59 "/>
<path fill="#CCC8CD" stroke="#000000" d="M202.186,80.025h-41.947h0.058c-0.02,0-0.039,0-0.058,0c-2.562,0-4.639-1.086-4.639-2.425
	c0-1.338,2.077-2.424,4.639-2.424c0.019,0,0.039,0,0.058,0h-0.058h41.947h-0.066c0.022,0,0.044,0,0.066,0
	c2.563,0,4.639,1.086,4.639,2.424C206.824,78.939,204.748,80.025,202.186,80.025c-0.015,0-0.03,0-0.044,0H202.186z"/>
<path fill="#D4CDD3" stroke="#000000" d="M156.999,59c-3.649,0-8.249-7.563-8.249-13.563h64.649c0,6-4.6,13.563-8.249,13.563h-0.401
	H156.999z"/>
<rect x="140.833" y="32.5" fill="#D4CDD3" stroke="#000000" width="81.167" height="15.833"/>
</svg>
