<?xml version="1.0" encoding="UTF-8" ?>
<!DOCTYPE svg PUBLIC "-//W3C//DTD SVG 1.1//EN" "http://www.w3.org/Graphics/SVG/1.1/DTD/svg11.dtd">
<svg width="595pt" height="657pt" viewBox="0 0 595 657" version="1.1" xmlns="http://www.w3.org/2000/svg">
<g id="#000000ff">
<path fill="#000000" opacity="1.00" d=" M 58.26 13.25 C 216.09 13.26 373.92 13.24 531.75 13.26 C 531.75 123.50 531.75 233.74 531.75 343.97 C 531.92 368.56 528.43 393.20 521.12 416.69 C 528.55 416.28 536.53 418.71 541.28 424.72 C 547.50 432.60 552.21 441.57 556.29 450.71 C 559.76 458.15 558.83 466.86 556.33 474.45 C 554.78 479.34 550.72 482.70 547.54 486.52 C 542.26 492.67 536.69 498.65 532.28 505.48 C 529.28 496.23 530.39 486.12 532.92 476.88 C 523.43 479.83 514.15 484.16 504.13 484.85 C 509.22 477.20 515.34 470.24 522.23 464.17 C 526.50 460.37 532.09 457.90 535.21 452.92 C 535.26 451.33 533.55 450.48 532.45 449.68 C 525.51 446.06 517.39 445.97 509.75 446.43 C 503.52 459.08 496.66 471.44 488.46 482.93 C 490.71 489.21 493.69 495.63 499.15 499.76 C 509.52 507.28 521.02 513.07 532.56 518.55 C 536.19 520.43 540.07 522.21 542.79 525.37 C 545.51 528.57 544.75 533.02 545.42 536.89 C 546.60 544.67 547.75 552.61 550.94 559.88 C 552.98 564.11 551.05 568.97 548.35 572.42 C 543.32 578.83 536.31 583.24 529.61 587.70 C 501.00 605.61 469.31 618.12 436.95 627.43 C 389.24 640.93 339.51 646.64 289.99 646.25 C 224.84 645.70 159.22 634.53 99.12 608.85 C 81.80 601.20 64.69 592.75 49.22 581.75 C 43.75 577.66 37.93 572.92 36.01 566.07 C 34.78 562.16 37.41 558.67 38.43 555.07 C 40.77 546.91 42.13 538.49 42.80 530.03 C 42.93 526.58 45.68 524.07 48.33 522.27 C 52.66 519.42 57.49 517.48 62.07 515.10 C 71.06 510.74 79.81 505.82 87.98 500.06 C 94.28 495.44 97.46 487.96 99.75 480.74 C 92.69 469.94 85.87 458.91 80.63 447.10 C 72.53 445.57 63.78 445.82 56.14 449.15 C 54.68 450.03 52.19 450.97 52.44 453.02 C 53.63 455.23 55.64 456.83 57.56 458.39 C 67.82 465.31 76.64 474.44 83.23 484.91 C 73.30 484.01 64.04 479.90 54.63 476.87 C 57.25 486.13 57.90 496.02 55.56 505.42 C 49.52 497.51 43.14 489.88 36.42 482.53 C 29.65 475.70 28.19 465.17 29.44 456.01 C 31.69 448.16 35.82 440.99 39.89 433.97 C 43.44 428.45 46.87 422.19 53.09 419.29 C 57.86 416.64 63.43 416.61 68.73 416.71 C 62.35 396.09 58.75 374.58 58.25 352.98 C 58.26 239.74 58.24 126.49 58.26 13.25 M 63.24 18.27 C 63.27 129.84 63.25 241.41 63.25 352.98 C 64.42 400.99 81.23 448.41 110.40 486.54 C 134.65 518.52 167.36 544.00 204.31 559.69 C 238.11 574.19 275.43 580.15 312.08 577.48 C 350.41 574.74 387.96 562.14 420.23 541.31 C 452.69 520.40 479.83 491.31 498.36 457.42 C 516.72 424.05 526.42 386.07 526.75 348.00 C 526.74 238.08 526.75 128.17 526.75 18.26 C 372.24 18.26 217.74 18.23 63.24 18.27 M 52.55 421.82 C 47.41 425.25 44.07 431.05 42.89 437.04 C 41.99 442.89 46.23 447.68 50.07 451.50 C 53.30 446.80 59.22 445.73 64.41 444.65 C 69.41 444.06 74.48 444.08 79.48 444.70 C 75.54 436.48 72.47 427.87 69.50 419.26 C 64.02 417.75 57.63 419.10 52.55 421.82 M 520.32 418.86 C 517.71 427.58 514.34 436.07 510.54 444.35 C 513.61 444.22 516.69 444.22 519.77 444.26 C 525.66 445.12 532.31 445.80 536.60 450.43 C 537.60 451.79 538.66 450.14 539.42 449.45 C 542.60 446.12 545.44 441.64 544.58 436.84 C 543.07 429.15 537.83 421.91 530.08 419.62 C 526.89 418.84 523.60 418.52 520.32 418.86 M 33.25 451.24 C 29.38 459.16 30.93 468.57 34.24 476.41 L 34.67 475.95 L 34.13 476.53 C 37.55 480.88 41.48 484.80 44.98 489.08 L 45.04 489.01 C 48.18 492.91 51.56 496.62 54.50 500.68 C 55.36 493.99 55.07 487.18 53.50 480.62 C 52.76 478.17 51.95 475.76 51.09 473.36 C 53.85 474.40 56.65 475.35 59.43 476.33 C 65.91 478.56 72.42 480.70 79.04 482.46 C 75.39 477.14 70.94 472.43 66.34 467.93 C 62.16 463.71 56.71 461.04 52.61 456.75 C 49.60 453.30 45.62 450.74 43.25 446.73 C 41.19 443.85 40.80 440.25 40.61 436.82 C 37.85 441.46 35.48 446.32 33.25 451.24 M 546.85 436.96 C 546.73 439.69 546.54 442.52 545.25 444.99 C 542.35 450.84 536.60 454.37 532.44 459.21 C 523.10 465.25 515.10 473.24 508.64 482.26 C 518.14 480.04 527.29 476.60 536.47 473.37 C 535.15 476.67 534.16 480.09 533.43 483.57 C 532.46 489.08 532.16 494.72 533.08 500.27 C 536.18 496.73 539.08 493.03 542.17 489.49 C 545.92 484.91 550.27 480.83 553.64 475.94 L 553.41 475.77 C 556.37 469.42 557.42 461.93 555.74 455.09 C 553.42 448.77 550.52 442.61 546.85 436.96 M 101.23 482.76 C 98.75 491.03 94.22 499.16 86.57 503.65 C 82.72 506.06 78.91 508.54 74.94 510.76 C 71.16 512.80 67.39 514.88 63.52 516.76 C 59.86 518.49 56.19 520.19 52.63 522.11 C 49.84 523.75 46.71 525.41 45.24 528.46 C 44.05 531.05 44.95 534.13 46.78 536.19 C 50.95 541.17 56.22 545.09 61.67 548.56 C 63.40 547.23 65.21 546.00 67.07 544.85 C 70.66 542.86 74.21 540.80 77.78 538.77 C 81.52 536.50 85.28 534.25 88.86 531.74 C 92.67 528.96 96.33 526.00 99.88 522.91 L 99.75 522.76 C 106.47 516.54 111.77 508.78 114.73 500.10 C 110.00 494.50 105.56 488.67 101.23 482.76 M 473.44 501.99 C 475.79 507.99 479.27 513.50 483.49 518.38 C 486.11 521.45 489.10 524.17 492.21 526.74 L 492.11 526.82 C 499.33 532.57 507.20 537.40 515.24 541.92 C 518.97 543.97 522.71 546.07 526.08 548.71 C 531.97 545.33 538.13 541.50 541.55 535.42 C 543.23 532.64 543.31 528.72 540.87 526.35 C 537.78 523.40 533.87 521.33 529.93 519.77 L 529.29 520.05 L 529.15 519.29 C 521.13 515.43 513.17 511.31 505.59 506.60 C 502.03 504.27 498.38 502.05 495.21 499.22 C 491.47 495.16 488.97 490.19 486.99 485.09 C 482.60 490.82 478.20 496.55 473.44 501.99 M 116.29 501.91 C 113.61 509.36 109.18 516.07 103.76 521.81 C 92.48 533.82 77.46 541.03 63.60 549.49 C 71.90 555.53 81.23 560.01 90.25 564.87 C 147.94 594.10 212.59 607.86 276.98 609.96 C 324.40 611.70 372.04 606.04 417.86 593.76 C 454.93 583.71 490.95 569.29 524.09 549.80 C 517.16 544.92 509.42 541.36 502.34 536.69 C 489.61 528.64 477.76 518.02 471.89 503.83 C 437.19 542.75 389.49 569.96 338.11 579.21 C 294.04 587.27 247.67 582.84 206.12 565.95 C 171.68 552.08 140.71 529.86 116.29 501.91 M 44.22 536.45 C 43.27 543.41 42.12 550.40 39.91 557.09 C 38.97 559.93 36.88 562.78 38.05 565.89 C 39.92 571.42 44.52 575.46 48.98 578.98 C 64.56 590.30 81.86 599.02 99.47 606.72 C 119.50 615.33 140.20 622.41 161.34 627.77 L 161.33 627.86 C 194.67 636.51 228.91 641.53 263.30 643.41 C 294.23 645.13 325.30 644.28 356.10 640.96 C 383.49 637.96 410.65 632.77 437.16 625.23 C 457.72 619.29 477.97 612.06 497.28 602.80 L 497.58 602.23 L 497.71 602.79 C 509.61 596.93 521.43 590.80 532.41 583.32 C 537.86 579.60 543.42 575.72 547.30 570.27 C 549.08 567.70 550.63 564.30 549.24 561.21 C 545.83 553.52 544.51 545.12 543.40 536.85 C 538.05 545.20 528.83 549.46 520.58 554.30 C 501.99 564.85 482.50 573.72 462.63 581.54 L 463.27 581.59 C 461.77 581.45 460.47 582.33 459.09 582.74 C 443.81 588.47 428.19 593.23 412.40 597.31 L 413.07 597.52 C 412.33 597.61 410.84 597.78 410.10 597.87 C 392.16 602.34 373.97 605.90 355.62 608.12 L 355.64 608.39 C 324.91 612.06 293.88 613.34 262.99 611.33 C 228.83 609.37 194.83 603.97 161.86 594.79 C 127.91 585.27 95.10 571.47 64.95 553.15 C 57.41 548.46 49.79 543.50 44.22 536.45 Z" />
<path fill="#000000" opacity="1.00" d=" M 91.48 59.61 C 113.37 54.12 136.47 58.74 157.04 67.00 C 189.06 80.12 216.94 101.47 242.16 124.83 C 259.66 141.34 276.17 158.93 291.47 177.50 C 292.41 178.49 293.85 181.18 295.06 179.00 C 308.19 163.23 321.93 147.95 336.56 133.56 C 359.89 110.75 385.41 89.73 414.42 74.55 C 435.23 63.84 458.40 55.98 482.09 57.42 C 488.92 57.89 495.95 58.75 502.16 61.83 C 504.26 62.81 506.46 65.00 505.58 67.53 C 504.77 69.83 502.02 70.02 500.03 70.57 C 484.76 73.36 470.44 79.75 456.72 86.80 C 429.83 100.96 405.85 120.05 383.93 140.96 C 360.56 163.36 339.53 188.11 320.11 213.99 C 349.44 254.86 375.85 298.06 396.29 344.09 C 406.59 340.61 416.96 336.50 427.98 336.25 C 431.63 336.33 435.81 336.67 438.53 339.41 C 450.46 354.51 461.11 370.82 468.36 388.71 C 473.56 400.95 478.43 414.49 475.24 427.91 C 472.00 441.79 460.69 451.92 448.98 459.08 C 437.91 465.53 426.55 471.50 415.01 477.08 C 409.00 479.70 402.79 482.72 396.07 482.53 C 392.56 482.51 389.44 480.24 387.67 477.32 C 385.15 473.46 383.54 468.25 385.93 463.94 C 388.53 459.50 393.48 457.27 398.14 455.64 C 391.45 438.34 383.31 421.62 376.09 404.53 C 365.07 408.14 353.54 411.70 341.81 410.36 C 336.32 409.76 330.33 407.37 327.87 402.07 C 325.47 396.89 327.59 390.97 330.50 386.48 C 336.16 377.94 344.55 371.71 352.98 366.12 C 353.83 365.38 355.95 364.65 354.80 363.19 C 336.85 325.10 317.02 287.83 294.31 252.35 C 294.11 252.36 293.70 252.38 293.50 252.39 C 270.52 288.19 250.72 325.94 232.40 364.31 C 241.38 370.52 250.75 376.82 257.01 385.98 C 259.91 390.38 262.25 396.02 260.30 401.26 C 258.17 407.14 251.64 409.77 245.87 410.38 C 234.23 411.61 222.72 408.27 211.85 404.47 C 205.87 417.93 199.93 431.42 194.04 444.92 C 192.55 448.46 190.76 451.91 189.84 455.66 C 194.82 457.53 200.54 459.94 202.51 465.34 C 204.20 470.77 201.52 476.73 197.46 480.39 C 193.70 483.58 188.32 482.65 183.96 481.43 C 174.51 478.47 165.79 473.66 157.04 469.12 C 147.03 463.64 136.55 458.71 127.88 451.16 C 119.69 444.30 113.13 434.79 111.91 423.97 C 110.46 412.20 114.47 400.69 118.95 390.00 C 125.56 373.64 134.71 358.37 145.50 344.43 C 147.53 341.87 149.04 338.50 152.39 337.44 C 158.36 335.25 164.90 336.47 170.94 337.68 C 178.00 339.18 184.73 341.83 191.57 344.08 C 211.99 298.05 238.41 254.87 267.72 214.00 C 245.07 183.78 220.22 155.05 191.96 129.92 C 171.68 111.95 149.60 95.74 125.21 83.77 C 113.44 78.21 101.33 72.98 88.44 70.71 C 85.89 70.14 81.86 69.53 82.05 66.08 C 83.04 61.88 87.93 60.78 91.48 59.61 M 93.05 62.35 C 90.06 63.24 86.55 64.06 84.88 66.98 C 85.93 66.48 86.97 65.97 88.02 65.46 C 99.17 64.14 110.45 66.15 121.07 69.57 C 137.53 74.96 152.87 83.28 167.39 92.62 C 199.78 113.71 228.07 140.52 253.40 169.58 C 272.01 190.71 289.30 212.96 305.69 235.85 L 305.59 235.90 C 317.81 253.10 329.45 270.72 340.06 288.96 L 340.16 288.89 C 345.23 297.94 350.18 307.91 359.35 313.50 C 364.95 317.11 372.49 316.77 377.87 312.90 C 371.60 300.90 365.01 289.07 358.09 277.43 C 347.40 259.38 335.95 241.79 323.88 224.64 C 307.50 201.35 289.60 179.15 270.48 158.06 C 246.00 131.25 219.22 106.13 188.43 86.68 C 170.16 75.30 150.31 65.79 129.01 61.89 C 117.15 59.83 104.80 59.42 93.05 62.35 M 459.65 61.75 C 434.74 66.19 411.86 78.11 391.07 92.13 C 363.73 110.75 339.70 133.75 317.37 158.04 C 309.79 166.37 302.43 174.91 295.30 183.63 C 299.91 189.13 304.16 194.92 308.84 200.36 C 317.05 189.85 325.64 179.65 334.43 169.61 C 363.78 136.03 397.06 105.12 436.15 83.20 C 455.11 73.02 475.99 63.69 498.00 65.25 C 499.92 65.01 501.36 66.35 502.98 67.10 C 501.57 64.28 498.35 63.44 495.57 62.58 C 483.88 59.42 471.51 59.81 459.65 61.75 M 87.91 67.41 C 100.99 69.83 113.43 74.75 125.39 80.46 C 159.55 96.96 189.14 121.48 215.75 148.22 C 237.19 170.04 256.79 193.64 274.78 218.38 C 295.50 246.53 313.41 276.63 330.22 307.22 L 330.86 307.22 L 330.67 307.90 C 331.29 309.96 332.55 311.74 333.51 313.64 C 344.09 333.68 354.15 354.01 363.47 374.67 C 364.12 376.12 365.04 377.95 366.95 377.79 C 372.59 376.95 377.72 374.23 382.78 371.72 C 388.72 368.48 394.90 365.50 400.14 361.16 C 393.90 345.32 386.73 329.84 378.74 314.81 C 373.32 318.60 365.87 319.16 359.97 316.17 C 352.82 312.76 347.95 306.19 343.82 299.66 C 326.43 268.74 306.29 239.45 284.90 211.17 L 284.78 211.27 C 272.63 195.21 259.72 179.72 246.26 164.74 C 223.10 138.86 197.42 114.99 168.39 95.80 C 154.47 86.66 139.79 78.46 124.09 72.78 C 112.56 68.62 100.21 66.04 87.91 67.41 M 465.17 72.31 C 448.54 78.06 433.13 86.79 418.48 96.44 C 393.89 112.93 371.54 132.61 351.31 154.19 C 336.89 169.64 322.95 185.57 310.10 202.35 C 312.73 205.54 315.09 208.94 317.65 212.19 C 338.04 184.77 360.43 158.75 385.34 135.34 C 405.37 116.62 427.12 99.53 451.17 86.26 C 466.42 77.94 482.55 70.91 499.61 67.33 C 487.92 66.22 476.17 68.39 465.17 72.31 M 235.40 268.03 C 226.47 282.75 217.81 297.66 210.02 313.01 C 216.08 317.29 224.51 316.88 230.30 312.34 C 241.24 304.14 245.88 290.73 253.28 279.72 C 262.76 264.17 272.90 249.02 283.44 234.16 C 279.23 227.98 274.70 222.02 270.48 215.85 C 257.82 232.56 246.50 250.25 235.40 268.03 M 284.55 236.08 C 270.68 255.97 257.26 276.20 245.35 297.34 C 243.30 301.05 240.88 304.55 238.23 307.86 C 234.56 311.82 230.42 315.70 225.13 317.27 C 219.69 318.98 213.72 317.88 208.99 314.80 C 201.25 329.95 193.90 345.32 187.67 361.16 C 196.15 367.60 205.83 372.37 215.61 376.48 C 218.12 377.26 222.39 379.19 223.81 375.84 C 232.92 355.77 242.63 335.97 252.86 316.45 C 265.15 293.06 278.35 270.14 292.68 247.94 C 290.00 243.96 287.57 239.82 284.55 236.08 M 149.75 345.99 C 150.26 353.65 154.87 360.20 159.26 366.21 L 159.62 366.28 C 171.15 381.14 188.06 390.66 204.94 398.27 C 213.16 401.80 221.62 404.97 230.46 406.52 C 237.87 407.84 246.08 408.71 253.00 405.10 C 257.11 402.99 258.94 398.09 257.59 393.72 L 257.38 393.65 C 256.04 389.15 252.97 385.49 249.84 382.11 C 244.03 376.21 237.35 371.20 230.28 366.92 C 228.80 370.13 227.13 373.26 225.92 376.58 C 224.66 379.74 221.03 380.33 218.08 379.39 C 210.20 377.21 203.08 373.00 195.93 369.13 C 192.43 366.96 188.53 365.15 185.79 362.00 C 185.76 358.73 187.82 355.79 188.78 352.72 L 188.91 352.82 C 189.62 350.98 190.34 349.15 191.05 347.31 C 184.82 345.10 178.68 342.56 172.18 341.23 L 172.11 341.10 C 166.22 339.88 160.00 338.26 154.07 340.09 C 151.52 340.84 149.54 343.25 149.75 345.99 M 396.95 347.29 C 397.88 350.18 399.09 352.98 400.20 355.81 L 400.34 355.72 C 400.78 358.06 403.61 361.13 401.06 363.11 C 396.60 366.83 391.33 369.44 386.26 372.22 C 380.06 375.21 373.95 379.10 366.95 379.78 C 364.80 380.03 363.18 378.51 362.05 376.90 C 361.29 374.80 360.34 372.78 359.38 370.78 C 358.82 369.49 358.27 368.20 357.73 366.91 C 351.17 370.73 344.85 375.19 339.61 380.71 L 339.41 380.75 C 335.78 384.27 332.50 388.27 330.56 392.99 C 329.32 396.54 329.67 400.81 332.59 403.46 C 336.88 407.09 343.07 408.07 348.46 407.42 C 354.23 407.58 359.90 406.10 365.43 404.62 L 365.62 404.43 C 374.12 402.42 382.12 398.70 389.99 394.97 C 402.04 388.90 414.11 381.94 423.23 371.83 C 427.01 368.64 430.05 364.52 432.63 360.30 L 432.89 360.19 C 435.59 355.22 438.79 349.79 437.83 343.91 C 436.51 339.62 431.21 339.37 427.48 339.24 C 416.87 339.85 406.83 343.66 396.95 347.29 M 137.79 360.74 C 130.34 371.86 124.47 383.96 119.70 396.45 C 115.23 407.74 112.26 420.84 117.34 432.45 C 123.24 446.16 136.50 454.52 149.08 461.42 L 149.26 461.24 C 157.30 466.02 165.70 470.17 174.12 474.25 C 178.65 476.28 183.25 478.31 188.14 479.30 C 190.95 479.83 194.39 479.69 196.33 477.28 C 198.78 474.28 200.95 470.16 199.64 466.23 C 197.32 461.55 192.00 459.77 187.44 458.05 C 185.87 460.83 184.30 463.78 181.76 465.81 C 179.57 467.51 176.62 466.98 174.07 466.84 C 166.42 465.10 159.26 461.71 152.50 457.79 C 149.01 455.29 144.27 453.70 142.39 449.57 C 141.33 445.23 146.15 443.06 148.60 440.40 C 144.70 438.37 140.87 436.17 137.46 433.39 C 134.24 430.75 132.90 426.55 132.20 422.60 C 130.53 411.91 133.27 400.95 138.35 391.55 C 143.02 385.81 146.71 379.22 152.18 374.16 C 154.34 372.05 157.23 371.03 160.16 370.59 C 154.40 363.69 148.87 355.95 147.69 346.80 C 144.08 351.22 140.90 355.96 137.79 360.74 M 440.24 346.78 C 438.92 355.93 433.48 363.70 427.68 370.61 C 430.13 371.03 432.68 371.59 434.62 373.27 C 440.29 377.80 443.68 384.40 448.35 389.84 C 452.90 397.42 456.03 406.04 456.03 414.99 C 456.17 421.03 455.60 427.78 451.37 432.48 C 447.83 435.90 443.30 438.02 439.21 440.69 C 441.73 442.44 444.07 444.50 445.88 447.01 C 445.76 449.30 445.01 451.59 442.95 452.85 C 435.69 458.05 427.72 462.38 419.25 465.25 L 419.28 465.48 C 415.41 466.36 411.30 467.81 407.35 466.59 C 404.03 464.80 402.20 461.28 400.51 458.07 C 396.69 459.39 392.70 460.84 389.81 463.78 C 387.92 465.68 387.20 468.61 388.16 471.15 C 389.43 475.47 392.84 480.39 398.00 479.51 C 405.94 478.53 413.00 474.40 420.19 471.16 C 429.37 466.53 438.41 461.62 447.32 456.47 C 458.68 449.49 469.87 439.58 472.52 425.89 C 475.18 412.59 469.54 399.60 464.53 387.57 C 460.32 377.82 455.33 368.35 449.26 359.62 C 446.64 355.09 443.38 350.95 440.24 346.78 M 150.07 381.04 C 144.73 388.13 138.71 395.16 136.51 403.99 C 134.43 411.97 133.44 421.05 137.43 428.61 C 140.44 433.01 145.66 435.10 150.06 437.81 C 161.03 422.03 169.04 404.40 176.99 386.97 C 174.53 384.11 170.92 382.40 168.22 379.73 C 165.29 377.56 163.07 373.55 158.95 373.79 C 155.06 374.73 152.52 378.13 150.07 381.04 M 422.31 377.28 C 418.69 380.80 414.57 383.73 410.63 386.86 C 416.26 398.93 421.97 410.97 428.36 422.67 C 431.26 427.88 434.18 433.13 437.89 437.83 C 443.19 434.43 450.34 431.76 451.98 424.96 C 454.45 415.29 452.58 404.81 448.21 395.94 C 445.41 390.86 441.75 386.32 438.29 381.68 C 435.72 378.57 433.07 374.97 429.00 373.83 C 426.19 373.37 424.15 375.56 422.31 377.28 M 180.23 387.59 C 178.58 391.30 176.83 394.97 175.07 398.64 C 174.03 400.91 172.93 403.16 171.80 405.40 C 170.78 407.51 169.78 409.64 168.71 411.74 C 167.49 414.01 166.32 416.31 165.18 418.63 C 161.33 425.77 157.57 433.04 152.62 439.50 C 150.51 442.46 146.98 443.96 144.79 446.83 C 143.08 448.71 145.61 450.77 147.07 451.85 C 154.88 457.16 163.35 461.77 172.50 464.31 C 174.99 464.78 177.94 465.76 180.27 464.28 C 183.91 461.24 185.78 456.72 187.53 452.44 C 190.10 445.85 193.24 439.50 195.80 432.91 L 195.94 432.97 C 196.81 430.89 197.70 428.82 198.63 426.78 C 199.67 424.45 200.67 422.11 201.62 419.76 L 201.77 419.84 C 202.71 417.53 203.69 415.24 204.70 412.97 C 206.27 409.44 208.00 405.98 209.17 402.31 C 199.09 398.34 189.40 393.35 180.23 387.59 M 378.59 402.32 C 379.82 405.62 381.29 408.83 382.73 412.05 C 383.58 413.97 384.42 415.92 385.24 417.87 L 385.41 417.80 C 386.30 420.07 387.25 422.33 388.17 424.59 L 388.29 424.53 C 388.99 426.23 389.74 427.92 390.54 429.59 L 390.44 429.64 C 394.20 437.95 397.85 446.32 401.28 454.77 C 403.06 458.55 404.87 463.14 408.97 464.89 C 416.84 465.25 424.11 461.24 430.98 457.84 C 435.43 455.11 440.72 453.06 443.80 448.64 C 442.70 444.68 438.17 443.27 435.83 440.16 C 429.84 432.70 425.60 424.02 421.13 415.61 C 420.22 413.89 419.32 412.15 418.41 410.44 C 417.43 408.63 416.88 406.58 415.72 404.89 L 414.92 404.69 L 415.22 404.07 C 414.68 402.14 413.55 400.46 412.74 398.64 C 411.10 395.01 409.32 391.45 407.72 387.80 C 398.26 393.11 388.80 398.54 378.59 402.32 Z" />
<path fill="#000000" opacity="1.00" d=" M 500.03 574.30 C 504.78 571.82 509.35 569.04 513.84 566.12 C 514.30 566.99 514.77 567.86 515.25 568.74 C 513.20 568.42 511.41 569.44 509.72 570.42 C 510.75 571.97 511.74 573.58 512.96 575.00 C 514.44 574.25 515.75 573.22 517.08 572.23 C 517.42 572.80 518.09 573.95 518.42 574.52 C 516.76 575.02 515.12 575.56 513.49 576.13 C 514.64 578.16 515.82 580.16 517.01 582.17 C 519.16 581.26 521.11 579.98 521.60 577.52 C 521.90 578.33 522.21 579.14 522.53 579.96 C 521.78 581.38 520.93 582.88 521.43 584.57 C 522.61 584.13 523.80 583.67 524.98 583.21 C 523.99 585.00 522.84 587.34 520.34 586.76 C 519.87 585.34 519.80 583.84 519.66 582.39 C 517.64 583.66 515.57 584.86 513.53 586.10 C 513.69 585.59 514.03 584.58 514.19 584.08 C 512.24 579.55 509.24 575.55 506.76 571.30 C 506.23 571.74 505.16 572.62 504.63 573.07 C 504.39 579.19 505.53 585.29 505.65 591.41 C 501.55 588.55 497.85 585.18 493.98 582.03 C 492.71 580.87 491.12 580.25 489.45 580.06 C 489.89 581.26 490.40 582.54 490.89 583.76 C 489.66 583.19 488.60 582.02 487.19 582.02 C 485.82 582.48 483.68 584.24 485.22 585.70 C 487.90 587.99 492.73 586.98 494.71 590.39 C 496.33 592.85 494.94 595.83 492.87 597.50 C 491.31 598.02 489.73 598.45 488.16 598.89 C 487.52 597.37 486.89 595.85 486.26 594.34 C 487.49 595.21 488.57 596.38 490.07 596.82 C 491.81 596.81 492.68 594.97 493.89 594.01 C 491.83 590.36 487.14 591.09 484.17 588.76 C 482.41 587.32 482.69 584.92 483.23 582.98 C 486.97 580.33 491.52 579.21 495.43 576.84 C 495.32 577.31 495.09 578.26 494.98 578.73 C 497.89 581.29 500.80 583.86 503.78 586.36 C 503.38 582.37 502.94 578.40 502.44 574.42 C 501.84 574.39 500.64 574.33 500.03 574.30 Z" />
<path fill="#000000" opacity="1.00" d=" M 71.86 566.54 C 73.99 567.55 76.06 568.69 78.02 570.02 C 77.62 570.22 76.82 570.61 76.42 570.81 C 75.83 574.46 75.51 578.17 74.51 581.75 C 74.76 581.76 75.27 581.76 75.53 581.76 C 78.22 579.32 81.24 577.27 83.87 574.78 C 83.71 574.28 83.39 573.29 83.23 572.79 C 87.76 575.46 92.49 577.81 97.27 580.02 C 96.65 581.07 96.04 582.14 95.44 583.21 C 95.81 580.61 93.32 579.76 91.42 578.92 C 90.62 580.68 89.81 582.43 89.05 584.22 C 90.64 584.82 92.24 585.41 93.86 585.93 C 93.16 587.03 92.46 588.14 91.76 589.25 C 92.35 586.87 90.00 586.19 88.45 585.18 C 87.41 587.17 86.41 589.18 85.43 591.21 C 87.43 592.69 89.81 594.13 92.05 591.99 C 91.49 592.80 90.37 594.44 89.81 595.25 C 86.39 593.83 83.26 591.79 79.80 590.46 C 81.45 590.44 83.00 589.82 83.46 588.10 C 85.13 584.32 87.58 580.87 88.80 576.91 C 88.34 576.62 87.42 576.03 86.96 575.73 C 81.40 578.57 76.92 583.30 71.50 586.48 C 71.85 580.62 72.85 574.83 73.51 569.01 C 73.09 568.39 72.27 567.16 71.86 566.54 Z" />
<path fill="#000000" opacity="1.00" d=" M 98.99 580.98 C 102.24 582.70 106.23 583.46 108.79 586.24 C 110.74 589.71 107.25 592.45 104.43 593.70 C 105.29 597.27 106.00 601.13 108.70 603.86 C 107.41 603.30 106.08 602.81 104.87 602.11 C 101.38 599.92 103.94 593.80 99.87 592.33 C 99.14 593.98 98.41 595.64 97.67 597.30 C 98.15 598.07 98.62 598.85 99.09 599.64 C 96.89 598.59 94.69 597.56 92.47 596.55 C 93.03 596.45 94.14 596.24 94.70 596.14 C 97.10 591.98 98.80 587.46 100.73 583.07 C 100.29 582.54 99.42 581.50 98.99 580.98 M 100.47 591.05 C 101.14 591.41 102.47 592.14 103.13 592.51 C 106.57 591.04 107.50 586.04 103.85 584.19 C 102.48 586.35 101.44 588.69 100.47 591.05 Z" />
<path fill="#000000" opacity="1.00" d=" M 120.21 585.37 C 122.08 584.57 122.28 586.99 123.10 588.06 C 124.52 587.75 125.94 587.44 127.38 587.22 C 126.04 588.60 124.14 589.06 122.40 589.71 C 122.63 590.08 123.08 590.80 123.31 591.16 C 124.89 591.76 126.39 592.55 127.87 593.37 C 127.16 594.94 126.40 596.50 125.50 597.98 C 125.54 597.21 125.63 595.67 125.67 594.89 C 123.70 592.55 120.20 590.18 117.15 591.89 C 112.12 594.63 111.49 603.37 117.23 605.76 C 119.50 607.31 121.68 605.79 123.61 604.53 C 122.87 605.88 122.08 607.21 121.26 608.53 C 116.76 607.72 111.56 605.73 110.09 600.94 C 107.96 594.76 114.55 587.60 120.89 590.25 C 121.37 589.89 121.86 589.53 122.33 589.17 C 121.22 588.17 119.82 587.05 120.21 585.37 Z" />
<path fill="#000000" opacity="1.00" d=" M 472.85 587.24 C 474.91 586.55 476.91 585.72 478.92 584.92 C 478.49 585.38 477.63 586.29 477.20 586.75 C 479.11 591.22 481.01 595.69 483.09 600.09 C 483.82 600.16 485.26 600.29 485.98 600.35 C 483.58 601.24 481.21 602.22 478.89 603.30 L 479.94 601.24 C 478.77 597.59 476.98 594.17 475.53 590.62 C 475.04 589.19 474.03 588.11 472.85 587.24 Z" />
<path fill="#000000" opacity="1.00" d=" M 463.50 606.00 C 463.60 600.78 463.31 595.56 463.65 590.35 C 468.29 593.98 471.63 598.98 476.14 602.74 C 476.82 602.92 478.18 603.29 478.86 603.47 C 477.11 604.13 475.37 604.82 473.66 605.56 C 472.74 604.09 471.69 602.72 470.58 601.42 C 469.34 601.08 468.12 600.69 466.95 600.17 L 468.99 599.58 C 467.73 598.32 466.51 597.04 465.29 595.76 C 465.23 597.28 465.17 598.81 465.10 600.34 C 466.05 600.84 467.00 601.35 467.95 601.89 C 463.79 600.96 465.71 605.14 465.27 607.16 L 466.75 607.68 C 466.73 607.81 466.69 608.06 466.67 608.19 C 462.02 610.40 456.92 611.47 452.27 613.67 C 452.52 612.46 453.07 611.20 452.48 610.01 C 451.10 606.20 449.92 602.32 448.34 598.60 C 447.75 598.35 446.57 597.86 445.99 597.61 C 448.40 596.94 450.74 596.08 453.07 595.15 C 452.61 595.64 451.70 596.61 451.24 597.10 C 452.70 601.54 454.23 605.96 456.00 610.30 C 458.55 609.94 461.37 609.10 461.56 606.05 C 461.83 607.18 462.12 608.32 462.43 609.46 C 463.20 608.42 463.55 607.27 463.50 606.00 Z" />
<path fill="#000000" opacity="1.00" d=" M 129.52 594.10 C 131.89 594.31 134.07 595.27 136.25 596.18 C 135.73 596.33 134.71 596.63 134.20 596.78 C 132.18 601.19 130.91 605.90 129.19 610.44 C 130.50 610.93 132.40 612.77 133.54 610.97 C 137.36 606.67 140.75 602.01 144.66 597.79 C 145.61 603.48 145.36 609.29 146.23 614.99 C 146.72 616.00 147.43 616.88 148.06 617.83 C 146.25 617.15 144.42 616.51 142.59 615.89 C 142.96 614.01 143.28 612.04 142.69 610.17 C 141.20 609.46 139.62 608.99 138.06 608.47 C 137.07 609.75 136.07 611.03 135.07 612.32 C 135.51 612.74 136.39 613.60 136.83 614.02 C 132.40 612.84 128.13 611.11 123.81 609.58 C 124.36 609.50 125.48 609.34 126.03 609.25 C 128.08 604.81 129.81 600.12 130.99 595.38 L 129.52 594.10 M 139.01 607.24 C 140.26 607.67 141.53 608.12 142.79 608.57 C 142.70 606.71 142.59 604.88 142.50 603.04 C 141.32 604.43 140.16 605.83 139.01 607.24 Z" />
<path fill="#000000" opacity="1.00" d=" M 430.88 602.29 C 433.30 601.78 435.71 601.11 437.83 599.80 C 437.38 600.74 436.39 601.54 436.46 602.67 C 437.39 607.15 439.05 611.43 440.28 615.84 C 441.06 615.97 442.61 616.25 443.39 616.39 C 441.14 617.01 438.91 617.68 436.73 618.48 C 437.19 613.81 435.07 609.49 433.82 605.12 C 433.57 603.55 432.24 602.77 430.88 602.29 Z" />
<path fill="#000000" opacity="1.00" d=" M 150.87 600.90 C 153.32 601.58 155.76 602.30 158.22 602.97 C 157.77 603.24 156.87 603.80 156.42 604.07 C 154.95 607.56 153.92 611.29 153.48 615.05 C 153.29 618.55 158.59 620.47 160.60 617.61 C 162.62 614.02 163.17 609.85 164.33 605.95 C 163.54 605.27 162.76 604.60 161.99 603.93 C 164.37 604.63 166.76 605.34 169.13 606.10 C 168.53 606.15 167.33 606.26 166.72 606.32 C 165.11 610.69 164.68 615.60 161.79 619.41 C 158.02 621.48 152.20 620.30 150.64 615.98 C 150.02 611.48 152.22 607.21 153.21 602.91 C 152.43 602.23 151.65 601.56 150.87 600.90 Z" />
<path fill="#000000" opacity="1.00" d=" M 417.74 606.20 C 421.25 605.12 424.80 604.20 428.33 603.22 C 428.53 604.44 428.75 605.67 428.97 606.91 C 427.60 604.80 425.36 605.42 423.29 605.93 C 423.78 607.83 424.28 609.74 424.81 611.64 C 426.51 611.17 428.25 610.69 429.70 609.60 C 429.91 610.93 430.15 612.28 430.41 613.61 C 428.96 611.94 427.03 612.27 425.14 612.94 C 425.78 615.22 426.13 617.69 427.62 619.63 C 429.33 618.85 431.89 618.68 431.94 616.27 C 432.10 616.25 432.41 616.23 432.57 616.21 C 432.63 617.34 432.70 618.47 432.78 619.61 C 429.27 620.51 425.75 621.38 422.26 622.32 C 422.65 621.82 423.43 620.82 423.82 620.32 C 422.72 615.75 421.67 611.13 420.05 606.72 C 419.47 606.59 418.32 606.33 417.74 606.20 Z" />
<path fill="#000000" opacity="1.00" d=" M 409.84 608.33 C 412.00 607.39 414.33 606.99 416.63 606.53 C 415.98 607.22 414.84 607.60 414.77 608.71 C 415.64 613.86 417.07 618.90 417.84 624.08 C 412.54 621.48 407.77 617.95 402.78 614.84 C 403.58 618.14 404.28 621.48 405.39 624.71 C 406.30 625.12 407.23 625.50 408.18 625.85 C 405.97 626.21 403.79 626.67 401.62 627.19 C 402.78 626.22 403.33 624.92 402.80 623.45 C 401.85 618.80 400.72 614.20 399.90 609.53 C 405.14 612.53 410.07 616.04 415.19 619.23 C 414.16 615.66 413.69 611.88 412.14 608.48 C 411.57 608.44 410.41 608.37 409.84 608.33 Z" />
<path fill="#000000" opacity="1.00" d=" M 179.40 609.49 C 183.45 608.08 187.56 610.00 191.36 611.30 C 190.87 612.84 190.39 614.40 189.81 615.92 C 189.69 611.37 183.87 609.26 180.22 611.12 C 176.22 614.06 176.00 620.94 179.97 624.01 C 181.44 625.18 183.36 625.36 185.17 625.57 C 185.43 622.94 187.66 619.52 184.24 618.14 C 186.50 618.55 188.76 619.00 191.05 619.24 C 188.41 620.82 188.93 624.22 187.80 626.72 C 183.38 627.53 178.09 626.25 175.19 622.62 C 172.01 618.30 174.15 611.05 179.40 609.49 Z" />
<path fill="#000000" opacity="1.00" d=" M 191.86 611.02 C 193.82 611.47 195.80 611.86 197.80 612.10 C 196.38 614.82 199.03 617.61 199.48 620.32 C 201.61 618.34 203.77 616.17 204.48 613.26 C 207.27 613.98 210.13 614.42 213.00 614.71 C 212.62 614.99 211.84 615.55 211.46 615.82 C 212.31 619.58 213.04 623.37 213.97 627.12 C 216.16 624.18 217.89 620.94 219.62 617.72 C 219.57 617.19 219.46 616.11 219.41 615.58 C 220.04 615.64 221.31 615.78 221.94 615.85 C 222.10 616.20 222.42 616.90 222.57 617.25 C 218.86 622.07 216.46 627.86 212.35 632.36 C 210.65 626.51 209.56 620.51 207.83 614.67 C 203.14 617.80 198.89 622.74 199.46 628.76 C 200.13 629.01 201.46 629.49 202.13 629.73 C 199.61 629.69 197.13 629.20 194.63 628.97 C 196.79 627.31 196.96 624.47 197.15 621.98 C 195.96 618.12 194.84 613.93 191.86 611.02 Z" />
<path fill="#000000" opacity="1.00" d=" M 382.19 625.97 C 383.73 621.34 384.43 616.40 386.60 612.00 C 388.72 617.14 389.67 622.75 392.09 627.75 C 392.68 627.96 393.86 628.39 394.45 628.61 C 392.61 628.93 390.76 629.23 388.91 629.55 C 388.21 625.98 387.10 622.50 385.76 619.13 C 384.72 623.17 383.62 627.20 382.22 631.14 C 379.65 627.95 377.35 624.58 375.01 621.23 C 375.54 624.62 373.62 629.65 377.16 631.73 C 375.54 631.88 373.94 632.09 372.35 632.35 C 374.30 626.50 372.71 620.11 373.32 614.04 C 376.56 617.80 379.03 622.14 382.19 625.97 Z" />
<path fill="#000000" opacity="1.00" d=" M 360.95 616.72 C 363.30 616.41 365.66 616.18 368.03 616.05 C 367.54 616.43 366.56 617.19 366.07 617.56 C 366.81 622.28 367.27 627.04 368.12 631.74 C 369.08 632.00 370.04 632.27 371.00 632.56 C 368.35 632.82 365.70 633.06 363.07 633.49 C 363.47 633.15 364.27 632.47 364.67 632.13 C 364.76 627.29 363.64 622.50 363.03 617.71 C 362.33 617.38 361.64 617.05 360.95 616.72 Z" />
<path fill="#000000" opacity="1.00" d=" M 222.66 617.98 C 223.41 616.21 224.94 616.11 226.68 616.63 C 227.12 619.57 228.42 622.26 229.64 624.94 C 231.04 622.50 234.04 620.46 233.60 617.34 C 237.93 618.47 242.54 617.88 246.83 619.12 C 249.85 620.28 248.96 624.30 246.88 625.98 C 249.43 627.55 250.97 631.16 248.82 633.70 C 245.65 637.07 240.63 634.69 236.68 634.80 C 237.20 634.49 238.25 633.89 238.77 633.59 C 239.40 628.74 239.86 623.86 240.00 618.98 C 239.23 618.90 237.71 618.75 236.94 618.68 C 233.16 622.58 228.92 627.08 229.95 633.04 C 230.42 633.20 231.36 633.52 231.83 633.68 C 231.78 633.85 231.67 634.19 231.62 634.36 C 229.40 633.97 227.16 633.68 224.91 633.51 C 227.43 631.98 227.34 628.68 227.11 626.11 C 225.82 623.35 225.14 619.84 222.66 617.98 M 243.14 619.46 C 242.60 624.31 241.99 629.18 242.08 634.07 C 243.96 634.40 246.73 634.42 246.76 631.86 C 247.43 629.31 244.96 627.98 243.92 626.21 C 247.07 624.79 246.90 619.78 243.14 619.46 Z" />
<path fill="#000000" opacity="1.00" d=" M 349.96 620.97 C 350.10 617.84 353.68 617.18 356.15 616.89 C 356.54 616.96 357.32 617.10 357.71 617.18 C 358.01 618.43 358.27 619.70 358.53 620.97 C 357.34 620.09 356.41 618.69 354.90 618.41 C 353.76 618.82 352.66 619.34 351.60 619.94 C 353.24 624.25 359.93 624.77 359.79 629.97 C 360.00 632.34 357.87 633.82 355.95 634.65 C 352.36 634.72 348.79 634.98 345.24 635.36 C 344.45 633.50 343.66 631.66 342.87 629.82 C 341.28 629.96 339.68 630.06 338.12 630.37 C 337.45 631.60 337.02 632.94 336.52 634.26 C 336.89 634.68 337.65 635.52 338.03 635.94 C 335.75 636.05 333.39 636.76 331.14 636.16 C 328.01 634.51 326.97 630.19 323.22 629.56 C 323.32 631.71 323.51 633.87 323.74 636.02 C 324.38 636.21 325.64 636.59 326.27 636.78 C 321.87 637.02 317.48 637.24 313.07 637.29 C 312.51 635.41 311.90 633.56 311.28 631.72 C 309.58 631.73 307.89 631.76 306.21 631.79 C 305.67 633.25 305.14 634.71 304.60 636.19 C 304.96 636.56 305.68 637.32 306.04 637.70 C 303.82 637.65 301.55 637.92 299.38 637.40 C 296.11 635.76 295.45 630.81 291.43 630.44 C 291.80 633.00 290.56 637.32 294.34 637.59 C 291.95 637.50 289.55 637.53 287.17 637.78 C 289.56 635.45 288.58 631.94 288.79 628.97 C 288.66 626.17 289.30 623.11 287.59 620.66 C 291.01 621.08 295.11 619.82 298.01 622.16 C 300.27 624.76 298.13 627.94 296.32 630.05 C 298.17 632.40 300.10 634.69 302.16 636.87 C 304.74 631.20 306.41 625.17 308.98 619.50 C 311.55 624.58 313.34 630.02 315.97 635.06 C 316.64 637.03 318.89 636.33 320.46 636.60 C 320.58 631.56 320.13 626.53 319.90 621.50 C 319.23 621.18 317.90 620.55 317.23 620.24 C 320.94 620.45 324.94 619.24 328.47 620.63 C 331.72 622.73 329.80 626.72 327.94 629.08 C 329.84 631.40 331.88 633.64 334.35 635.38 C 336.29 629.57 337.77 623.61 339.93 617.87 C 343.03 623.07 345.05 628.88 348.49 633.87 C 348.88 633.90 349.66 633.95 350.06 633.98 C 350.82 632.71 350.59 631.22 350.57 629.83 C 351.61 631.37 352.57 634.02 354.95 633.44 C 357.25 633.23 358.17 630.08 356.22 628.79 C 353.76 626.57 349.28 625.08 349.96 620.97 M 291.83 621.74 C 291.65 624.22 291.37 626.72 291.57 629.22 C 292.22 629.30 293.53 629.44 294.18 629.51 C 297.72 627.50 296.04 621.43 291.83 621.74 M 322.75 621.15 C 322.95 623.65 322.72 626.24 323.38 628.69 C 326.20 629.55 328.29 626.48 327.28 623.97 C 326.98 621.69 324.63 621.22 322.75 621.15 M 339.69 623.81 C 339.20 625.44 338.74 627.09 338.29 628.73 C 339.51 628.72 340.73 628.70 341.95 628.68 C 341.51 626.92 340.75 625.27 339.69 623.81 M 308.50 625.11 C 307.87 626.91 307.24 628.71 306.63 630.52 C 307.61 630.43 309.56 630.24 310.53 630.15 C 309.86 628.46 309.19 626.78 308.50 625.11 Z" />
<path fill="#000000" opacity="1.00" d=" M 252.59 618.97 C 256.01 619.63 259.50 619.73 262.97 619.87 L 263.58 619.92 C 263.34 620.94 263.11 621.99 262.88 623.03 C 261.74 621.32 259.73 621.12 257.91 620.77 C 257.74 622.77 257.57 624.78 257.41 626.80 C 259.21 626.84 261.01 626.82 262.81 626.69 C 262.60 627.74 262.41 628.80 262.22 629.87 C 260.88 628.58 259.13 628.16 257.34 628.01 C 257.22 630.35 257.11 632.71 257.10 635.07 C 259.28 635.22 262.03 635.72 262.86 633.02 C 262.85 634.07 262.86 635.13 262.87 636.20 C 261.16 636.68 259.87 637.69 259.46 639.47 C 260.21 639.84 261.71 640.58 262.46 640.95 C 260.90 641.20 259.32 641.71 257.74 641.33 C 256.38 639.66 258.41 637.96 259.10 636.54 C 256.67 636.40 254.26 636.24 251.84 636.11 C 252.28 635.78 253.16 635.13 253.60 634.81 C 254.48 630.28 254.58 625.59 254.65 620.98 C 254.13 620.48 253.10 619.47 252.59 618.97 Z" />
<path fill="#000000" opacity="1.00" d=" M 272.09 620.31 C 275.89 620.99 280.51 619.41 283.72 622.01 C 287.03 625.97 281.95 631.50 277.45 629.83 C 277.69 632.58 276.42 636.61 279.95 637.50 C 277.37 637.32 274.78 637.19 272.19 637.29 C 272.96 636.63 274.43 636.39 274.26 635.08 C 274.73 630.69 274.38 626.25 274.84 621.85 C 273.92 621.32 273.00 620.81 272.09 620.31 M 277.83 621.50 C 277.59 624.23 277.47 626.97 277.43 629.71 C 279.29 629.16 281.90 628.54 281.78 626.06 C 282.31 623.53 280.10 621.79 277.83 621.50 Z" />
</g>
<g id="#ed1c24ff">
<path fill="#ed1c24" opacity="1.00" d=" M 63.24 18.27 C 217.74 18.23 372.24 18.26 526.75 18.26 C 526.75 128.17 526.74 238.08 526.75 348.00 C 526.42 386.07 516.72 424.05 498.36 457.42 C 479.83 491.31 452.69 520.40 420.23 541.31 C 387.96 562.14 350.41 574.74 312.08 577.48 C 275.43 580.15 238.11 574.19 204.31 559.69 C 167.36 544.00 134.65 518.52 110.40 486.54 C 81.23 448.41 64.42 400.99 63.25 352.98 C 63.25 241.41 63.27 129.84 63.24 18.27 M 91.48 59.61 C 87.93 60.78 83.04 61.88 82.05 66.08 C 81.86 69.53 85.89 70.14 88.44 70.71 C 101.33 72.98 113.44 78.21 125.21 83.77 C 149.60 95.74 171.68 111.95 191.96 129.92 C 220.22 155.05 245.07 183.78 267.72 214.00 C 238.41 254.87 211.99 298.05 191.57 344.08 C 184.73 341.83 178.00 339.18 170.94 337.68 C 164.90 336.47 158.36 335.25 152.39 337.44 C 149.04 338.50 147.53 341.87 145.50 344.43 C 134.71 358.37 125.56 373.64 118.95 390.00 C 114.47 400.69 110.46 412.20 111.91 423.97 C 113.13 434.79 119.69 444.30 127.88 451.16 C 136.55 458.71 147.03 463.64 157.04 469.12 C 165.79 473.66 174.51 478.47 183.96 481.43 C 188.32 482.65 193.70 483.58 197.46 480.39 C 201.52 476.73 204.20 470.77 202.51 465.34 C 200.54 459.94 194.82 457.53 189.84 455.66 C 190.76 451.91 192.55 448.46 194.04 444.92 C 199.93 431.42 205.87 417.93 211.85 404.47 C 222.72 408.27 234.23 411.61 245.87 410.38 C 251.64 409.77 258.17 407.14 260.30 401.26 C 262.25 396.02 259.91 390.38 257.01 385.98 C 250.75 376.82 241.38 370.52 232.40 364.31 C 250.72 325.94 270.52 288.19 293.50 252.39 C 293.70 252.38 294.11 252.36 294.31 252.35 C 317.02 287.83 336.85 325.10 354.80 363.19 C 355.95 364.65 353.83 365.38 352.98 366.12 C 344.55 371.71 336.16 377.94 330.50 386.48 C 327.59 390.97 325.47 396.89 327.87 402.07 C 330.33 407.37 336.32 409.76 341.81 410.36 C 353.54 411.70 365.07 408.14 376.09 404.53 C 383.31 421.62 391.45 438.34 398.14 455.64 C 393.48 457.27 388.53 459.50 385.93 463.94 C 383.54 468.25 385.15 473.46 387.67 477.32 C 389.44 480.24 392.56 482.51 396.07 482.53 C 402.79 482.72 409.00 479.70 415.01 477.08 C 426.55 471.50 437.91 465.53 448.98 459.08 C 460.69 451.92 472.00 441.79 475.24 427.91 C 478.43 414.49 473.56 400.95 468.36 388.71 C 461.11 370.82 450.46 354.51 438.53 339.41 C 435.81 336.67 431.63 336.33 427.98 336.25 C 416.96 336.50 406.59 340.61 396.29 344.09 C 375.85 298.06 349.44 254.86 320.11 213.99 C 339.53 188.11 360.56 163.36 383.93 140.96 C 405.85 120.05 429.83 100.96 456.72 86.80 C 470.44 79.75 484.76 73.36 500.03 70.57 C 502.02 70.02 504.77 69.83 505.58 67.53 C 506.46 65.00 504.26 62.81 502.16 61.83 C 495.95 58.75 488.92 57.89 482.09 57.42 C 458.40 55.98 435.23 63.84 414.42 74.55 C 385.41 89.73 359.89 110.75 336.56 133.56 C 321.93 147.95 308.19 163.23 295.06 179.00 C 293.85 181.18 292.41 178.49 291.47 177.50 C 276.17 158.93 259.66 141.34 242.16 124.83 C 216.94 101.47 189.06 80.12 157.04 67.00 C 136.47 58.74 113.37 54.12 91.48 59.61 Z" />
<path fill="#ed1c24" opacity="1.00" d=" M 150.07 381.04 C 152.52 378.13 155.06 374.73 158.95 373.79 C 163.07 373.55 165.29 377.56 168.22 379.73 C 170.92 382.40 174.53 384.11 176.99 386.97 C 169.04 404.40 161.03 422.03 150.06 437.81 C 145.66 435.10 140.44 433.01 137.43 428.61 C 133.44 421.05 134.43 411.97 136.51 403.99 C 138.71 395.16 144.73 388.13 150.07 381.04 Z" />
<path fill="#ed1c24" opacity="1.00" d=" M 422.31 377.28 C 424.15 375.56 426.19 373.37 429.00 373.83 C 433.07 374.97 435.72 378.57 438.29 381.68 C 441.75 386.32 445.41 390.86 448.21 395.94 C 452.58 404.81 454.45 415.29 451.98 424.96 C 450.34 431.76 443.19 434.43 437.89 437.83 C 434.18 433.13 431.26 427.88 428.36 422.67 C 421.97 410.97 416.26 398.93 410.63 386.86 C 414.57 383.73 418.69 380.80 422.31 377.28 Z" />
</g>
<g id="#ffffffff">
<path fill="#ffffff" opacity="1.00" d=" M 93.05 62.35 C 104.80 59.42 117.15 59.83 129.01 61.89 C 150.31 65.79 170.16 75.30 188.43 86.68 C 219.22 106.13 246.00 131.25 270.48 158.06 C 265.13 162.41 258.87 165.41 253.40 169.58 C 228.07 140.52 199.78 113.71 167.39 92.62 C 152.87 83.28 137.53 74.96 121.07 69.57 C 110.45 66.15 99.17 64.14 88.02 65.46 C 86.97 65.97 85.93 66.48 84.88 66.98 C 86.55 64.06 90.06 63.24 93.05 62.35 Z" />
<path fill="#ffffff" opacity="1.00" d=" M 459.65 61.75 C 471.51 59.81 483.88 59.42 495.57 62.58 C 498.35 63.44 501.57 64.28 502.98 67.10 C 501.36 66.35 499.92 65.01 498.00 65.25 C 475.99 63.69 455.11 73.02 436.15 83.20 C 397.06 105.12 363.78 136.03 334.43 169.61 C 329.20 165.08 322.85 162.22 317.37 158.04 C 339.70 133.75 363.73 110.75 391.07 92.13 C 411.86 78.11 434.74 66.19 459.65 61.75 Z" />
<path fill="#ffffff" opacity="1.00" d=" M 101.23 482.76 C 105.56 488.67 110.00 494.50 114.73 500.10 C 111.77 508.78 106.47 516.54 99.75 522.76 C 94.43 517.05 91.47 509.67 86.57 503.65 C 94.22 499.16 98.75 491.03 101.23 482.76 Z" />
</g>
<g id="#fcfcfcff">
<path fill="#fcfcfc" opacity="1.00" d=" M 87.91 67.41 C 100.21 66.04 112.56 68.62 124.09 72.78 C 139.79 78.46 154.47 86.66 168.39 95.80 C 197.42 114.99 223.10 138.86 246.26 164.74 C 259.72 179.72 272.63 195.21 284.78 211.27 C 281.72 214.01 278.27 216.24 274.78 218.38 C 256.79 193.64 237.19 170.04 215.75 148.22 C 189.14 121.48 159.55 96.96 125.39 80.46 C 113.43 74.75 100.99 69.83 87.91 67.41 Z" />
</g>
<g id="#fdfdfdff">
<path fill="#fdfdfd" opacity="1.00" d=" M 465.17 72.31 C 476.17 68.39 487.92 66.22 499.61 67.33 C 482.55 70.91 466.42 77.94 451.17 86.26 C 427.12 99.53 405.37 116.62 385.34 135.34 C 360.43 158.75 338.04 184.77 317.65 212.19 C 315.09 208.94 312.73 205.54 310.10 202.35 C 322.95 185.57 336.89 169.64 351.31 154.19 C 371.54 132.61 393.89 112.93 418.48 96.44 C 433.13 86.79 448.54 78.06 465.17 72.31 Z" />
</g>
<g id="#f5f5f5ff">
<path fill="#f5f5f5" opacity="1.00" d=" M 270.48 158.06 C 289.60 179.15 307.50 201.35 323.88 224.64 C 317.44 227.75 312.00 232.51 305.69 235.85 C 289.30 212.96 272.01 190.71 253.40 169.58 C 258.87 165.41 265.13 162.41 270.48 158.06 Z" />
<path fill="#f5f5f5" opacity="1.00" d=" M 33.25 451.24 C 35.48 446.32 37.85 441.46 40.61 436.82 C 40.80 440.25 41.19 443.85 43.25 446.73 C 45.62 450.74 49.60 453.30 52.61 456.75 C 50.10 459.22 47.73 461.82 45.54 464.58 C 42.27 468.70 38.13 472.00 34.67 475.95 L 34.24 476.41 C 30.93 468.57 29.38 459.16 33.25 451.24 Z" />
<path fill="#f5f5f5" opacity="1.00" d=" M 139.01 607.24 C 140.16 605.83 141.32 604.43 142.50 603.04 C 142.59 604.88 142.70 606.71 142.79 608.57 C 141.53 608.12 140.26 607.67 139.01 607.24 Z" />
</g>
<g id="#f7f8f8ff">
<path fill="#f7f8f8" opacity="1.00" d=" M 295.30 183.63 C 302.43 174.91 309.79 166.37 317.37 158.04 C 322.85 162.22 329.20 165.08 334.43 169.61 C 325.64 179.65 317.05 189.85 308.84 200.36 C 304.16 194.92 299.91 189.13 295.30 183.63 Z" />
</g>
<g id="#eff0f0ff">
<path fill="#eff0f0" opacity="1.00" d=" M 284.78 211.27 L 284.90 211.17 C 306.29 239.45 326.43 268.74 343.82 299.66 C 339.32 301.86 335.31 304.92 330.86 307.22 L 330.22 307.22 C 313.41 276.63 295.50 246.53 274.78 218.38 C 278.27 216.24 281.72 214.01 284.78 211.27 Z" />
<path fill="#eff0f0" opacity="1.00" d=" M 235.40 268.03 C 246.50 250.25 257.82 232.56 270.48 215.85 C 274.70 222.02 279.23 227.98 283.44 234.16 C 272.90 249.02 262.76 264.17 253.28 279.72 C 247.34 275.79 241.01 272.44 235.40 268.03 Z" />
<path fill="#eff0f0" opacity="1.00" d=" M 305.69 235.85 C 312.00 232.51 317.44 227.75 323.88 224.64 C 335.95 241.79 347.40 259.38 358.09 277.43 C 352.04 281.12 346.25 285.24 340.16 288.89 L 340.06 288.96 C 329.45 270.72 317.81 253.10 305.59 235.90 L 305.69 235.85 Z" />
<path fill="#eff0f0" opacity="1.00" d=" M 161.86 594.79 C 194.83 603.97 228.83 609.37 262.99 611.33 C 262.95 614.17 262.90 617.02 262.97 619.87 C 259.50 619.73 256.01 619.63 252.59 618.97 C 253.10 619.47 254.13 620.48 254.65 620.98 C 254.58 625.59 254.48 630.28 253.60 634.81 C 253.16 635.13 252.28 635.78 251.84 636.11 C 254.26 636.24 256.67 636.40 259.10 636.54 C 258.41 637.96 256.38 639.66 257.74 641.33 C 259.32 641.71 260.90 641.20 262.46 640.95 C 262.67 641.57 263.09 642.79 263.30 643.41 C 228.91 641.53 194.67 636.51 161.33 627.86 L 161.34 627.77 C 161.85 625.01 161.93 622.20 161.79 619.41 C 164.68 615.60 165.11 610.69 166.72 606.32 C 167.33 606.26 168.53 606.15 169.13 606.10 C 166.76 605.34 164.37 604.63 161.99 603.93 C 161.93 600.88 161.88 597.83 161.86 594.79 M 179.40 609.49 C 174.15 611.05 172.01 618.30 175.19 622.62 C 178.09 626.25 183.38 627.53 187.80 626.72 C 188.93 624.22 188.41 620.82 191.05 619.24 C 188.76 619.00 186.50 618.55 184.24 618.14 C 187.66 619.52 185.43 622.94 185.17 625.57 C 183.36 625.36 181.44 625.18 179.97 624.01 C 176.00 620.94 176.22 614.06 180.22 611.12 C 183.87 609.26 189.69 611.37 189.81 615.92 C 190.39 614.40 190.87 612.84 191.36 611.30 C 187.56 610.00 183.45 608.08 179.40 609.49 M 191.86 611.02 C 194.84 613.93 195.96 618.12 197.15 621.98 C 196.96 624.47 196.79 627.31 194.63 628.97 C 197.13 629.20 199.61 629.69 202.13 629.73 C 201.46 629.49 200.13 629.01 199.46 628.76 C 198.89 622.74 203.14 617.80 207.83 614.67 C 209.56 620.51 210.65 626.51 212.35 632.36 C 216.46 627.86 218.86 622.07 222.57 617.25 C 222.42 616.90 222.10 616.20 221.94 615.85 C 221.31 615.78 220.04 615.64 219.41 615.58 C 219.46 616.11 219.57 617.19 219.62 617.72 C 217.89 620.94 216.16 624.18 213.97 627.12 C 213.04 623.37 212.31 619.58 211.46 615.82 C 211.84 615.55 212.62 614.99 213.00 614.71 C 210.13 614.42 207.27 613.98 204.48 613.26 C 203.77 616.17 201.61 618.34 199.48 620.32 C 199.03 617.61 196.38 614.82 197.80 612.10 C 195.80 611.86 193.82 611.47 191.86 611.02 M 222.66 617.98 C 225.14 619.84 225.82 623.35 227.11 626.11 C 227.34 628.68 227.43 631.98 224.91 633.51 C 227.16 633.68 229.40 633.97 231.62 634.36 C 231.67 634.19 231.78 633.85 231.83 633.68 C 231.36 633.52 230.42 633.20 229.95 633.04 C 228.92 627.08 233.16 622.58 236.94 618.68 C 237.71 618.75 239.23 618.90 240.00 618.98 C 239.86 623.86 239.40 628.74 238.77 633.59 C 238.25 633.89 237.20 634.49 236.68 634.80 C 240.63 634.69 245.65 637.07 248.82 633.70 C 250.97 631.16 249.43 627.55 246.88 625.98 C 248.96 624.30 249.85 620.28 246.83 619.12 C 242.54 617.88 237.93 618.47 233.60 617.34 C 234.04 620.46 231.04 622.50 229.64 624.94 C 228.42 622.26 227.12 619.57 226.68 616.63 C 224.94 616.11 223.41 616.21 222.66 617.98 Z" />
</g>
<g id="#edeeeeff">
<path fill="#edeeee" opacity="1.00" d=" M 284.55 236.08 C 287.57 239.82 290.00 243.96 292.68 247.94 C 278.35 270.14 265.15 293.06 252.86 316.45 C 247.63 314.23 243.05 310.81 238.23 307.86 C 240.88 304.55 243.30 301.05 245.35 297.34 C 257.26 276.20 270.68 255.97 284.55 236.08 Z" />
<path fill="#edeeee" opacity="1.00" d=" M 520.32 418.86 C 523.60 418.52 526.89 418.84 530.08 419.62 C 526.57 427.80 522.82 435.89 519.77 444.26 C 516.69 444.22 513.61 444.22 510.54 444.35 C 514.34 436.07 517.71 427.58 520.32 418.86 Z" />
</g>
<g id="#eaebecff">
<path fill="#eaebec" opacity="1.00" d=" M 210.02 313.01 C 217.81 297.66 226.47 282.75 235.40 268.03 C 241.01 272.44 247.34 275.79 253.28 279.72 C 245.88 290.73 241.24 304.14 230.30 312.34 C 224.51 316.88 216.08 317.29 210.02 313.01 Z" />
<path fill="#eaebec" opacity="1.00" d=" M 340.16 288.89 C 346.25 285.24 352.04 281.12 358.09 277.43 C 365.01 289.07 371.60 300.90 377.87 312.90 C 372.49 316.77 364.95 317.11 359.35 313.50 C 350.18 307.91 345.23 297.94 340.16 288.89 Z" />
</g>
<g id="#e7e8e9ff">
<path fill="#e7e8e9" opacity="1.00" d=" M 330.86 307.22 C 335.31 304.92 339.32 301.86 343.82 299.66 C 347.95 306.19 352.82 312.76 359.97 316.17 C 365.87 319.16 373.32 318.60 378.74 314.81 C 386.73 329.84 393.90 345.32 400.14 361.16 C 394.90 365.50 388.72 368.48 382.78 371.72 C 377.72 374.23 372.59 376.95 366.95 377.79 C 365.04 377.95 364.12 376.12 363.47 374.67 C 354.15 354.01 344.09 333.68 333.51 313.64 C 332.55 311.74 331.29 309.96 330.67 307.90 L 330.86 307.22 Z" />
<path fill="#e7e8e9" opacity="1.00" d=" M 225.13 317.27 C 230.42 315.70 234.56 311.82 238.23 307.86 C 243.05 310.81 247.63 314.23 252.86 316.45 C 242.63 335.97 232.92 355.77 223.81 375.84 C 222.39 379.19 218.12 377.26 215.61 376.48 C 205.83 372.37 196.15 367.60 187.67 361.16 C 193.90 345.32 201.25 329.95 208.99 314.80 C 213.72 317.88 219.69 318.98 225.13 317.27 Z" />
<path fill="#e7e8e9" opacity="1.00" d=" M 52.55 421.82 C 57.63 419.10 64.02 417.75 69.50 419.26 C 72.47 427.87 75.54 436.48 79.48 444.70 C 74.48 444.08 69.41 444.06 64.41 444.65 C 61.18 436.64 55.07 430.10 52.55 421.82 Z" />
<path fill="#e7e8e9" opacity="1.00" d=" M 52.61 456.75 C 56.71 461.04 62.16 463.71 66.34 467.93 C 63.74 470.47 61.10 473.04 59.43 476.33 C 56.65 475.35 53.85 474.40 51.09 473.36 C 51.95 475.76 52.76 478.17 53.50 480.62 C 50.25 482.95 47.47 485.85 45.04 489.01 L 44.98 489.08 C 41.48 484.80 37.55 480.88 34.13 476.53 L 34.67 475.95 C 38.13 472.00 42.27 468.70 45.54 464.58 C 47.73 461.82 50.10 459.22 52.61 456.75 Z" />
<path fill="#e7e8e9" opacity="1.00" d=" M 291.83 621.74 C 296.04 621.43 297.72 627.50 294.18 629.51 C 293.53 629.44 292.22 629.30 291.57 629.22 C 291.37 626.72 291.65 624.22 291.83 621.74 Z" />
</g>
<g id="#f1cd81ff">
<path fill="#f1cd81" opacity="1.00" d=" M 149.75 345.99 C 149.54 343.25 151.52 340.84 154.07 340.09 C 160.00 338.26 166.22 339.88 172.11 341.10 L 172.18 341.23 C 172.43 341.66 172.92 342.53 173.17 342.96 C 178.22 346.46 184.10 348.66 188.78 352.72 C 187.82 355.79 185.76 358.73 185.79 362.00 C 188.53 365.15 192.43 366.96 195.93 369.13 C 203.08 373.00 210.20 377.21 218.08 379.39 C 221.03 380.33 224.66 379.74 225.92 376.58 C 232.76 379.67 239.03 383.83 245.60 387.43 C 249.53 389.50 253.09 392.34 257.38 393.65 L 257.59 393.72 C 258.94 398.09 257.11 402.99 253.00 405.10 C 246.08 408.71 237.87 407.84 230.46 406.52 C 229.21 405.45 227.98 404.37 226.60 403.48 C 205.82 391.56 184.98 379.73 164.22 367.76 C 162.81 366.92 161.20 366.57 159.62 366.28 L 159.26 366.21 C 154.87 360.20 150.26 353.65 149.75 345.99 Z" />
</g>
<g id="#e0ba72ff">
<path fill="#e0ba72" opacity="1.00" d=" M 396.95 347.29 C 406.83 343.66 416.87 339.85 427.48 339.24 C 425.13 342.47 421.32 343.92 417.97 345.85 C 412.09 349.14 406.10 352.23 400.34 355.72 L 400.20 355.81 C 399.09 352.98 397.88 350.18 396.95 347.29 Z" />
</g>
<g id="#f2cd82ff">
<path fill="#f2cd82" opacity="1.00" d=" M 427.48 339.24 C 431.21 339.37 436.51 339.62 437.83 343.91 C 438.79 349.79 435.59 355.22 432.89 360.19 L 432.63 360.30 C 429.30 361.60 426.17 363.33 423.13 365.18 C 406.07 374.75 388.99 384.29 371.94 393.88 C 364.22 398.57 355.92 402.29 348.46 407.42 C 343.07 408.07 336.88 407.09 332.59 403.46 C 329.67 400.81 329.32 396.54 330.56 392.99 C 340.81 388.11 350.48 382.04 360.39 376.49 C 360.80 376.59 361.63 376.80 362.05 376.90 C 363.18 378.51 364.80 380.03 366.95 379.78 C 373.95 379.10 380.06 375.21 386.26 372.22 C 391.33 369.44 396.60 366.83 401.06 363.11 C 403.61 361.13 400.78 358.06 400.34 355.72 C 406.10 352.23 412.09 349.14 417.97 345.85 C 421.32 343.92 425.13 342.47 427.48 339.24 Z" />
</g>
<g id="#dbb56eff">
<path fill="#dbb56e" opacity="1.00" d=" M 172.18 341.23 C 178.68 342.56 184.82 345.10 191.05 347.31 C 190.34 349.15 189.62 350.98 188.91 352.82 L 188.78 352.72 C 184.10 348.66 178.22 346.46 173.17 342.96 C 172.92 342.53 172.43 341.66 172.18 341.23 Z" />
</g>
<g id="#cea863ff">
<path fill="#cea863" opacity="1.00" d=" M 137.79 360.74 C 140.90 355.96 144.08 351.22 147.69 346.80 C 148.87 355.95 154.40 363.69 160.16 370.59 C 157.23 371.03 154.34 372.05 152.18 374.16 C 146.71 379.22 143.02 385.81 138.35 391.55 C 137.59 381.29 138.34 371.00 137.79 360.74 Z" />
<path fill="#cea863" opacity="1.00" d=" M 440.24 346.78 C 443.38 350.95 446.64 355.09 449.26 359.62 C 448.54 369.68 449.93 379.85 448.35 389.84 C 443.68 384.40 440.29 377.80 434.62 373.27 C 432.68 371.59 430.13 371.03 427.68 370.61 C 433.48 363.70 438.92 355.93 440.24 346.78 Z" />
</g>
<g id="#e1bb72ff">
<path fill="#e1bb72" opacity="1.00" d=" M 423.13 365.18 C 426.17 363.33 429.30 361.60 432.63 360.30 C 430.05 364.52 427.01 368.64 423.23 371.83 C 421.25 372.60 419.23 373.31 417.35 374.31 C 401.25 383.64 384.90 392.52 368.72 401.69 C 367.54 402.44 366.58 403.45 365.62 404.43 L 365.43 404.62 C 359.90 406.10 354.23 407.58 348.46 407.42 C 355.92 402.29 364.22 398.57 371.94 393.88 C 388.99 384.29 406.07 374.75 423.13 365.18 Z" />
</g>
<g id="#c39d59ff">
<path fill="#c39d59" opacity="1.00" d=" M 449.26 359.62 C 455.33 368.35 460.32 377.82 464.53 387.57 C 469.54 399.60 475.18 412.59 472.52 425.89 C 469.87 439.58 458.68 449.49 447.32 456.47 C 447.17 453.72 447.07 450.98 446.76 448.25 C 446.54 447.94 446.10 447.32 445.88 447.01 C 444.07 444.50 441.73 442.44 439.21 440.69 C 443.30 438.02 447.83 435.90 451.37 432.48 C 455.60 427.78 456.17 421.03 456.03 414.99 C 456.03 406.04 452.90 397.42 448.35 389.84 C 449.93 379.85 448.54 369.68 449.26 359.62 Z" />
<path fill="#c39d59" opacity="1.00" d=" M 119.70 396.45 C 124.47 383.96 130.34 371.86 137.79 360.74 C 138.34 371.00 137.59 381.29 138.35 391.55 C 133.27 400.95 130.53 411.91 132.20 422.60 C 132.90 426.55 134.24 430.75 137.46 433.39 C 140.87 436.17 144.70 438.37 148.60 440.40 C 146.15 443.06 141.33 445.23 142.39 449.57 C 144.27 453.70 149.01 455.29 152.50 457.79 C 151.42 458.93 150.34 460.08 149.26 461.24 L 149.08 461.42 C 136.50 454.52 123.24 446.16 117.34 432.45 C 112.26 420.84 115.23 407.74 119.70 396.45 Z" />
</g>
<g id="#e0ba71ff">
<path fill="#e0ba71" opacity="1.00" d=" M 159.62 366.28 C 161.20 366.57 162.81 366.92 164.22 367.76 C 184.98 379.73 205.82 391.56 226.60 403.48 C 227.98 404.37 229.21 405.45 230.46 406.52 C 221.62 404.97 213.16 401.80 204.94 398.27 C 188.06 390.66 171.15 381.14 159.62 366.28 Z" />
</g>
<g id="#ddb86fff">
<path fill="#ddb86f" opacity="1.00" d=" M 230.28 366.92 C 237.35 371.20 244.03 376.21 249.84 382.11 C 252.97 385.49 256.04 389.15 257.38 393.65 C 253.09 392.34 249.53 389.50 245.60 387.43 C 239.03 383.83 232.76 379.67 225.92 376.58 C 227.13 373.26 228.80 370.13 230.28 366.92 Z" />
</g>
<g id="#caa45fff">
<path fill="#caa45f" opacity="1.00" d=" M 339.61 380.71 C 344.85 375.19 351.17 370.73 357.73 366.91 C 358.27 368.20 358.82 369.49 359.38 370.78 C 354.64 373.18 350.06 375.87 345.50 378.59 C 343.71 379.71 341.70 380.39 339.61 380.71 Z" />
</g>
<g id="#deb970ff">
<path fill="#deb970" opacity="1.00" d=" M 345.50 378.59 C 350.06 375.87 354.64 373.18 359.38 370.78 C 360.34 372.78 361.29 374.80 362.05 376.90 C 361.63 376.80 360.80 376.59 360.39 376.49 C 350.48 382.04 340.81 388.11 330.56 392.99 C 332.50 388.27 335.78 384.27 339.41 380.75 L 339.61 380.71 C 341.70 380.39 343.71 379.71 345.50 378.59 Z" />
</g>
<g id="#cea862ff">
<path fill="#cea862" opacity="1.00" d=" M 417.35 374.31 C 419.23 373.31 421.25 372.60 423.23 371.83 C 414.11 381.94 402.04 388.90 389.99 394.97 C 382.12 398.70 374.12 402.42 365.62 404.43 C 366.58 403.45 367.54 402.44 368.72 401.69 C 384.90 392.52 401.25 383.64 417.35 374.31 Z" />
</g>
<g id="#c19b57ff">
<path fill="#c19b57" opacity="1.00" d=" M 180.23 387.59 C 189.40 393.35 199.09 398.34 209.17 402.31 C 208.00 405.98 206.27 409.44 204.70 412.97 C 195.09 407.64 184.86 403.61 175.07 398.64 C 176.83 394.97 178.58 391.30 180.23 387.59 Z" />
</g>
<g id="#c49e5aff">
<path fill="#c49e5a" opacity="1.00" d=" M 378.59 402.32 C 388.80 398.54 398.26 393.11 407.72 387.80 C 409.32 391.45 411.10 395.01 412.74 398.64 C 402.47 402.48 392.79 407.71 382.73 412.05 C 381.29 408.83 379.82 405.62 378.59 402.32 Z" />
</g>
<g id="#cfa963ff">
<path fill="#cfa963" opacity="1.00" d=" M 171.80 405.40 C 172.93 403.16 174.03 400.91 175.07 398.64 C 184.86 403.61 195.09 407.64 204.70 412.97 C 203.69 415.24 202.71 417.53 201.77 419.84 L 201.62 419.76 C 191.67 415.00 182.02 409.55 171.80 405.40 Z" />
</g>
<g id="#d2ad66ff">
<path fill="#d2ad66" opacity="1.00" d=" M 382.73 412.05 C 392.79 407.71 402.47 402.48 412.74 398.64 C 413.55 400.46 414.68 402.14 415.22 404.07 L 414.92 404.69 C 404.89 408.60 395.35 413.68 385.41 417.80 L 385.24 417.87 C 384.42 415.92 383.58 413.97 382.73 412.05 Z" />
</g>
<g id="#ddb76fff">
<path fill="#ddb76f" opacity="1.00" d=" M 385.41 417.80 C 395.35 413.68 404.89 408.60 414.92 404.69 L 415.72 404.89 C 416.88 406.58 417.43 408.63 418.41 410.44 C 408.22 414.76 397.98 419.15 388.29 424.53 L 388.17 424.59 C 387.25 422.33 386.30 420.07 385.41 417.80 Z" />
</g>
<g id="#dbb56dff">
<path fill="#dbb56d" opacity="1.00" d=" M 168.71 411.74 C 169.78 409.64 170.78 407.51 171.80 405.40 C 182.02 409.55 191.67 415.00 201.62 419.76 C 200.67 422.11 199.67 424.45 198.63 426.78 C 194.81 424.25 190.43 422.81 186.37 420.74 C 180.47 417.75 174.54 414.84 168.71 411.74 Z" />
</g>
<g id="#e8c379ff">
<path fill="#e8c379" opacity="1.00" d=" M 388.29 424.53 C 397.98 419.15 408.22 414.76 418.41 410.44 C 419.32 412.15 420.22 413.89 421.13 415.61 C 410.87 420.14 400.70 424.87 390.54 429.59 C 389.74 427.92 388.99 426.23 388.29 424.53 Z" />
</g>
<g id="#e6c177ff">
<path fill="#e6c177" opacity="1.00" d=" M 165.18 418.63 C 166.32 416.31 167.49 414.01 168.71 411.74 C 174.54 414.84 180.47 417.75 186.37 420.74 C 190.43 422.81 194.81 424.25 198.63 426.78 C 197.70 428.82 196.81 430.89 195.94 432.97 L 195.80 432.91 C 185.29 428.80 175.73 422.61 165.18 418.63 Z" />
</g>
<g id="#f3cf83ff">
<path fill="#f3cf83" opacity="1.00" d=" M 390.54 429.59 C 400.70 424.87 410.87 420.14 421.13 415.61 C 425.60 424.02 429.84 432.70 435.83 440.16 C 438.17 443.27 442.70 444.68 443.80 448.64 C 440.72 453.06 435.43 455.11 430.98 457.84 C 424.11 461.24 416.84 465.25 408.97 464.89 C 404.87 463.14 403.06 458.55 401.28 454.77 C 397.85 446.32 394.20 437.95 390.44 429.64 L 390.54 429.59 Z" />
<path fill="#f3cf83" opacity="1.00" d=" M 165.18 418.63 C 175.73 422.61 185.29 428.80 195.80 432.91 C 193.24 439.50 190.10 445.85 187.53 452.44 C 185.78 456.72 183.91 461.24 180.27 464.28 C 177.94 465.76 174.99 464.78 172.50 464.31 C 163.35 461.77 154.88 457.16 147.07 451.85 C 145.61 450.77 143.08 448.71 144.79 446.83 C 146.98 443.96 150.51 442.46 152.62 439.50 C 157.57 433.04 161.33 425.77 165.18 418.63 Z" />
</g>
<g id="#dddee0ff">
<path fill="#dddee0" opacity="1.00" d=" M 530.08 419.62 C 537.83 421.91 543.07 429.15 544.58 436.84 C 545.44 441.64 542.60 446.12 539.42 449.45 C 538.66 450.14 537.60 451.79 536.60 450.43 C 532.31 445.80 525.66 445.12 519.77 444.26 C 522.82 435.89 526.57 427.80 530.08 419.62 Z" />
</g>
<g id="#d8dadbff">
<path fill="#d8dadb" opacity="1.00" d=" M 42.89 437.04 C 44.07 431.05 47.41 425.25 52.55 421.82 C 55.07 430.10 61.18 436.64 64.41 444.65 C 59.22 445.73 53.30 446.80 50.07 451.50 C 46.23 447.68 41.99 442.89 42.89 437.04 Z" />
<path fill="#d8dadb" opacity="1.00" d=" M 459.09 582.74 C 460.47 582.33 461.77 581.45 463.27 581.59 C 469.89 582.60 476.77 580.91 483.23 582.98 C 482.69 584.92 482.41 587.32 484.17 588.76 C 487.14 591.09 491.83 590.36 493.89 594.01 C 492.68 594.97 491.81 596.81 490.07 596.82 C 488.57 596.38 487.49 595.21 486.26 594.34 C 486.89 595.85 487.52 597.37 488.16 598.89 C 489.73 598.45 491.31 598.02 492.87 597.50 C 494.13 597.76 495.40 598.03 496.67 598.31 C 496.98 599.61 497.29 600.91 497.58 602.23 L 497.28 602.80 C 477.97 612.06 457.72 619.29 437.16 625.23 C 436.95 622.98 436.73 620.73 436.73 618.48 C 438.91 617.68 441.14 617.01 443.39 616.39 C 442.61 616.25 441.06 615.97 440.28 615.84 C 439.05 611.43 437.39 607.15 436.46 602.67 C 436.39 601.54 437.38 600.74 437.83 599.80 C 429.72 597.61 421.02 600.63 413.07 597.52 L 412.40 597.31 C 428.19 593.23 443.81 588.47 459.09 582.74 M 472.85 587.24 C 474.03 588.11 475.04 589.19 475.53 590.62 C 476.98 594.17 478.77 597.59 479.94 601.24 L 478.89 603.30 C 481.21 602.22 483.58 601.24 485.98 600.35 C 485.26 600.29 483.82 600.16 483.09 600.09 C 481.01 595.69 479.11 591.22 477.20 586.75 C 477.63 586.29 478.49 585.38 478.92 584.92 C 476.91 585.72 474.91 586.55 472.85 587.24 M 463.50 606.00 C 463.55 607.27 463.20 608.42 462.43 609.46 C 462.12 608.32 461.83 607.18 461.56 606.05 C 461.37 609.10 458.55 609.94 456.00 610.30 C 454.23 605.96 452.70 601.54 451.24 597.10 C 451.70 596.61 452.61 595.64 453.07 595.15 C 450.74 596.08 448.40 596.94 445.99 597.61 C 446.57 597.86 447.75 598.35 448.34 598.60 C 449.92 602.32 451.10 606.20 452.48 610.01 C 453.07 611.20 452.52 612.46 452.27 613.67 C 456.92 611.47 462.02 610.40 466.67 608.19 C 466.69 608.06 466.73 607.81 466.75 607.68 L 465.27 607.16 C 465.71 605.14 463.79 600.96 467.95 601.89 C 467.00 601.35 466.05 600.84 465.10 600.34 C 465.17 598.81 465.23 597.28 465.29 595.76 C 466.51 597.04 467.73 598.32 468.99 599.58 L 466.95 600.17 C 468.12 600.69 469.34 601.08 470.58 601.42 C 471.69 602.72 472.74 604.09 473.66 605.56 C 475.37 604.82 477.11 604.13 478.86 603.47 C 478.18 603.29 476.82 602.92 476.14 602.74 C 471.63 598.98 468.29 593.98 463.65 590.35 C 463.31 595.56 463.60 600.78 463.50 606.00 Z" />
</g>
<g id="#f2f2f3ff">
<path fill="#f2f2f3" opacity="1.00" d=" M 546.85 436.96 C 550.52 442.61 553.42 448.77 555.74 455.09 C 557.42 461.93 556.37 469.42 553.41 475.77 C 546.52 470.13 538.95 465.29 532.44 459.21 C 536.60 454.37 542.35 450.84 545.25 444.99 C 546.54 442.52 546.73 439.69 546.85 436.96 Z" />
</g>
<g id="#d4ae68ff">
<path fill="#d4ae68" opacity="1.00" d=" M 445.88 447.01 C 446.10 447.32 446.54 447.94 446.76 448.25 C 447.07 450.98 447.17 453.72 447.32 456.47 C 438.41 461.62 429.37 466.53 420.19 471.16 C 419.88 469.26 419.58 467.37 419.28 465.48 L 419.25 465.25 C 427.72 462.38 435.69 458.05 442.95 452.85 C 445.01 451.59 445.76 449.30 445.88 447.01 Z" />
</g>
<g id="#dab46dff">
<path fill="#dab46d" opacity="1.00" d=" M 152.50 457.79 C 159.26 461.71 166.42 465.10 174.07 466.84 C 174.09 469.31 174.11 471.77 174.12 474.25 C 165.70 470.17 157.30 466.02 149.26 461.24 C 150.34 460.08 151.42 458.93 152.50 457.79 Z" />
</g>
<g id="#eac57bff">
<path fill="#eac57b" opacity="1.00" d=" M 187.44 458.05 C 192.00 459.77 197.32 461.55 199.64 466.23 C 200.95 470.16 198.78 474.28 196.33 477.28 C 194.39 479.69 190.95 479.83 188.14 479.30 C 183.25 478.31 178.65 476.28 174.12 474.25 C 174.11 471.77 174.09 469.31 174.07 466.84 C 176.62 466.98 179.57 467.51 181.76 465.81 C 184.30 463.78 185.87 460.83 187.44 458.05 Z" />
<path fill="#eac57b" opacity="1.00" d=" M 389.81 463.78 C 392.70 460.84 396.69 459.39 400.51 458.07 C 402.20 461.28 404.03 464.80 407.35 466.59 C 411.30 467.81 415.41 466.36 419.28 465.48 C 419.58 467.37 419.88 469.26 420.19 471.16 C 413.00 474.40 405.94 478.53 398.00 479.51 C 392.84 480.39 389.43 475.47 388.16 471.15 C 387.20 468.61 387.92 465.68 389.81 463.78 Z" />
</g>
<g id="#e4e5e6ff">
<path fill="#e4e5e6" opacity="1.00" d=" M 508.64 482.26 C 515.10 473.24 523.10 465.25 532.44 459.21 C 538.95 465.29 546.52 470.13 553.41 475.77 L 553.64 475.94 C 550.27 480.83 545.92 484.91 542.17 489.49 C 539.50 487.17 536.72 484.92 533.43 483.57 C 534.16 480.09 535.15 476.67 536.47 473.37 C 527.29 476.60 518.14 480.04 508.64 482.26 Z" />
<path fill="#e4e5e6" opacity="1.00" d=" M 505.59 506.60 C 513.17 511.31 521.13 515.43 529.15 519.29 L 529.29 520.05 C 527.31 523.77 525.01 527.30 522.85 530.92 C 520.41 534.64 518.50 538.79 515.24 541.92 C 507.20 537.40 499.33 532.57 492.11 526.82 L 492.21 526.74 C 493.96 525.33 495.55 523.70 496.63 521.71 C 499.53 516.62 502.58 511.62 505.59 506.60 Z" />
<path fill="#e4e5e6" opacity="1.00" d=" M 339.69 623.81 C 340.75 625.27 341.51 626.92 341.95 628.68 C 340.73 628.70 339.51 628.72 338.29 628.73 C 338.74 627.09 339.20 625.44 339.69 623.81 Z" />
</g>
<g id="#dcdddeff">
<path fill="#dcddde" opacity="1.00" d=" M 66.34 467.93 C 70.94 472.43 75.39 477.14 79.04 482.46 C 72.42 480.70 65.91 478.56 59.43 476.33 C 61.10 473.04 63.74 470.47 66.34 467.93 Z" />
<path fill="#dcddde" opacity="1.00" d=" M 52.63 522.11 C 56.19 520.19 59.86 518.49 63.52 516.76 C 65.31 520.14 67.23 523.47 69.41 526.62 C 72.25 530.64 74.37 535.17 77.78 538.77 C 74.21 540.80 70.66 542.86 67.07 544.85 C 62.48 537.13 57.53 529.63 52.63 522.11 Z" />
</g>
<g id="#dedfe0ff">
<path fill="#dedfe0" opacity="1.00" d=" M 45.04 489.01 C 47.47 485.85 50.25 482.95 53.50 480.62 C 55.07 487.18 55.36 493.99 54.50 500.68 C 51.56 496.62 48.18 492.91 45.04 489.01 Z" />
</g>
<g id="#dadbddff">
<path fill="#dadbdd" opacity="1.00" d=" M 533.43 483.57 C 536.72 484.92 539.50 487.17 542.17 489.49 C 539.08 493.03 536.18 496.73 533.08 500.27 C 532.16 494.72 532.46 489.08 533.43 483.57 Z" />
</g>
<g id="#fafafbff">
<path fill="#fafafb" opacity="1.00" d=" M 473.44 501.99 C 478.20 496.55 482.60 490.82 486.99 485.09 C 488.97 490.19 491.47 495.16 495.21 499.22 C 491.22 505.56 487.26 511.91 483.49 518.38 C 479.27 513.50 475.79 507.99 473.44 501.99 Z" />
<path fill="#fafafb" opacity="1.00" d=" M 44.22 536.45 C 49.79 543.50 57.41 548.46 64.95 553.15 C 95.10 571.47 127.91 585.27 161.86 594.79 C 161.88 597.83 161.93 600.88 161.99 603.93 C 162.76 604.60 163.54 605.27 164.33 605.95 C 163.17 609.85 162.62 614.02 160.60 617.61 C 158.59 620.47 153.29 618.55 153.48 615.05 C 153.92 611.29 154.95 607.56 156.42 604.07 C 156.87 603.80 157.77 603.24 158.22 602.97 C 155.76 602.30 153.32 601.58 150.87 600.90 C 151.65 601.56 152.43 602.23 153.21 602.91 C 152.22 607.21 150.02 611.48 150.64 615.98 C 152.20 620.30 158.02 621.48 161.79 619.41 C 161.93 622.20 161.85 625.01 161.34 627.77 C 140.20 622.41 119.50 615.33 99.47 606.72 C 81.86 599.02 64.56 590.30 48.98 578.98 C 44.52 575.46 39.92 571.42 38.05 565.89 C 36.88 562.78 38.97 559.93 39.91 557.09 C 42.12 550.40 43.27 543.41 44.22 536.45 M 71.86 566.54 C 72.27 567.16 73.09 568.39 73.51 569.01 C 72.85 574.83 71.85 580.62 71.50 586.48 C 76.92 583.30 81.40 578.57 86.96 575.73 C 87.42 576.03 88.34 576.62 88.80 576.91 C 87.58 580.87 85.13 584.32 83.46 588.10 C 83.00 589.82 81.45 590.44 79.80 590.46 C 83.26 591.79 86.39 593.83 89.81 595.25 C 90.37 594.44 91.49 592.80 92.05 591.99 C 89.81 594.13 87.43 592.69 85.43 591.21 C 86.41 589.18 87.41 587.17 88.45 585.18 C 90.00 586.19 92.35 586.87 91.76 589.25 C 92.46 588.14 93.16 587.03 93.86 585.93 C 92.24 585.41 90.64 584.82 89.05 584.22 C 89.81 582.43 90.62 580.68 91.42 578.92 C 93.32 579.76 95.81 580.61 95.44 583.21 C 96.04 582.14 96.65 581.07 97.27 580.02 C 92.49 577.81 87.76 575.46 83.23 572.79 C 83.39 573.29 83.71 574.28 83.87 574.78 C 81.24 577.27 78.22 579.32 75.53 581.76 C 75.27 581.76 74.76 581.76 74.51 581.75 C 75.51 578.17 75.83 574.46 76.42 570.81 C 76.82 570.61 77.62 570.22 78.02 570.02 C 76.06 568.69 73.99 567.55 71.86 566.54 M 98.99 580.98 C 99.42 581.50 100.29 582.54 100.73 583.07 C 98.80 587.46 97.10 591.98 94.70 596.14 C 94.14 596.24 93.03 596.45 92.47 596.55 C 94.69 597.56 96.89 598.59 99.09 599.64 C 98.62 598.85 98.15 598.07 97.67 597.30 C 98.41 595.64 99.14 593.98 99.87 592.33 C 103.94 593.80 101.38 599.92 104.87 602.11 C 106.08 602.81 107.41 603.30 108.70 603.86 C 106.00 601.13 105.29 597.27 104.43 593.70 C 107.25 592.45 110.74 589.71 108.79 586.24 C 106.23 583.46 102.24 582.70 98.99 580.98 M 120.21 585.37 C 119.82 587.05 121.22 588.17 122.33 589.17 C 121.86 589.53 121.37 589.89 120.89 590.25 C 114.55 587.60 107.96 594.76 110.09 600.94 C 111.56 605.73 116.76 607.72 121.26 608.53 C 122.08 607.21 122.87 605.88 123.61 604.53 C 121.68 605.79 119.50 607.31 117.23 605.76 C 111.49 603.37 112.12 594.63 117.15 591.89 C 120.20 590.18 123.70 592.55 125.67 594.89 C 125.63 595.67 125.54 597.21 125.50 597.98 C 126.40 596.50 127.16 594.94 127.87 593.37 C 126.39 592.55 124.89 591.76 123.31 591.16 C 123.08 590.80 122.63 590.08 122.40 589.71 C 124.14 589.06 126.04 588.60 127.38 587.22 C 125.94 587.44 124.52 587.75 123.10 588.06 C 122.28 586.99 122.08 584.57 120.21 585.37 M 129.52 594.10 L 130.99 595.38 C 129.81 600.12 128.08 604.81 126.03 609.25 C 125.48 609.34 124.36 609.50 123.81 609.58 C 128.13 611.11 132.40 612.84 136.83 614.02 C 136.39 613.60 135.51 612.74 135.07 612.32 C 136.07 611.03 137.07 609.75 138.06 608.47 C 139.62 608.99 141.20 609.46 142.69 610.17 C 143.28 612.04 142.96 614.01 142.59 615.89 C 144.42 616.51 146.25 617.15 148.06 617.83 C 147.43 616.88 146.72 616.00 146.23 614.99 C 145.36 609.29 145.61 603.48 144.66 597.79 C 140.75 602.01 137.36 606.67 133.54 610.97 C 132.40 612.77 130.50 610.93 129.19 610.44 C 130.91 605.90 132.18 601.19 134.20 596.78 C 134.71 596.63 135.73 596.33 136.25 596.18 C 134.07 595.27 131.89 594.31 129.52 594.10 Z" />
</g>
<g id="#f1f1f2ff">
<path fill="#f1f1f2" opacity="1.00" d=" M 483.49 518.38 C 487.26 511.91 491.22 505.56 495.21 499.22 C 498.38 502.05 502.03 504.27 505.59 506.60 C 502.58 511.62 499.53 516.62 496.63 521.71 C 495.55 523.70 493.96 525.33 492.21 526.74 C 489.10 524.17 486.11 521.45 483.49 518.38 Z" />
</g>
<g id="#f0f0f1ff">
<path fill="#f0f0f1" opacity="1.00" d=" M 74.94 510.76 C 78.91 508.54 82.72 506.06 86.57 503.65 C 91.47 509.67 94.43 517.05 99.75 522.76 L 99.88 522.91 C 96.33 526.00 92.67 528.96 88.86 531.74 C 87.47 530.26 86.09 528.76 85.05 527.01 C 81.83 521.50 78.08 516.32 74.94 510.76 Z" />
</g>
<g id="#e6e6e7ff">
<path fill="#e6e6e7" opacity="1.00" d=" M 63.52 516.76 C 67.39 514.88 71.16 512.80 74.94 510.76 C 78.08 516.32 81.83 521.50 85.05 527.01 C 86.09 528.76 87.47 530.26 88.86 531.74 C 85.28 534.25 81.52 536.50 77.78 538.77 C 74.37 535.17 72.25 530.64 69.41 526.62 C 67.23 523.47 65.31 520.14 63.52 516.76 Z" />
<path fill="#e6e6e7" opacity="1.00" d=" M 262.99 611.33 C 293.88 613.34 324.91 612.06 355.64 608.39 C 355.85 611.22 356.02 614.05 356.15 616.89 C 353.68 617.18 350.10 617.84 349.96 620.97 C 349.28 625.08 353.76 626.57 356.22 628.79 C 358.17 630.08 357.25 633.23 354.95 633.44 C 352.57 634.02 351.61 631.37 350.57 629.83 C 350.59 631.22 350.82 632.71 350.06 633.98 C 349.66 633.95 348.88 633.90 348.49 633.87 C 345.05 628.88 343.03 623.07 339.93 617.87 C 337.77 623.61 336.29 629.57 334.35 635.38 C 331.88 633.64 329.84 631.40 327.94 629.08 C 329.80 626.72 331.72 622.73 328.47 620.63 C 324.94 619.24 320.94 620.45 317.23 620.24 C 317.90 620.55 319.23 621.18 319.90 621.50 C 320.13 626.53 320.58 631.56 320.46 636.60 C 318.89 636.33 316.64 637.03 315.97 635.06 C 313.34 630.02 311.55 624.58 308.98 619.50 C 306.41 625.17 304.74 631.20 302.16 636.87 C 300.10 634.69 298.17 632.40 296.32 630.05 C 298.13 627.94 300.27 624.76 298.01 622.16 C 295.11 619.82 291.01 621.08 287.59 620.66 C 289.30 623.11 288.66 626.17 288.79 628.97 C 288.58 631.94 289.56 635.45 287.17 637.78 C 289.55 637.53 291.95 637.50 294.34 637.59 C 290.56 637.32 291.80 633.00 291.43 630.44 C 295.45 630.81 296.11 635.76 299.38 637.40 C 301.55 637.92 303.82 637.65 306.04 637.70 C 305.68 637.32 304.96 636.56 304.60 636.19 C 305.14 634.71 305.67 633.25 306.21 631.79 C 307.89 631.76 309.58 631.73 311.28 631.72 C 311.90 633.56 312.51 635.41 313.07 637.29 C 317.48 637.24 321.87 637.02 326.27 636.78 C 325.64 636.59 324.38 636.21 323.74 636.02 C 323.51 633.87 323.32 631.71 323.22 629.56 C 326.97 630.19 328.01 634.51 331.14 636.16 C 333.39 636.76 335.75 636.05 338.03 635.94 C 337.65 635.52 336.89 634.68 336.52 634.26 C 337.02 632.94 337.45 631.60 338.12 630.37 C 339.68 630.06 341.28 629.96 342.87 629.82 C 343.66 631.66 344.45 633.50 345.24 635.36 C 348.79 634.98 352.36 634.72 355.95 634.65 C 355.98 636.74 356.04 638.85 356.10 640.96 C 325.30 644.28 294.23 645.13 263.30 643.41 C 263.09 642.79 262.67 641.57 262.46 640.95 C 261.71 640.58 260.21 639.84 259.46 639.47 C 259.87 637.69 261.16 636.68 262.87 636.20 C 262.86 635.13 262.85 634.07 262.86 633.02 C 262.03 635.72 259.28 635.22 257.10 635.07 C 257.11 632.71 257.22 630.35 257.34 628.01 C 259.13 628.16 260.88 628.58 262.22 629.87 C 262.41 628.80 262.60 627.74 262.81 626.69 C 261.01 626.82 259.21 626.84 257.41 626.80 C 257.57 624.78 257.74 622.77 257.91 620.77 C 259.73 621.12 261.74 621.32 262.88 623.03 C 263.11 621.99 263.34 620.94 263.58 619.92 L 262.97 619.87 C 262.90 617.02 262.95 614.17 262.99 611.33 M 272.09 620.31 C 273.00 620.81 273.92 621.32 274.84 621.85 C 274.38 626.25 274.73 630.69 274.26 635.08 C 274.43 636.39 272.96 636.63 272.19 637.29 C 274.78 637.19 277.37 637.32 279.95 637.50 C 276.42 636.61 277.69 632.58 277.45 629.83 C 281.95 631.50 287.03 625.97 283.72 622.01 C 280.51 619.41 275.89 620.99 272.09 620.31 Z" />
</g>
<g id="#d7d8d9ff">
<path fill="#d7d8d9" opacity="1.00" d=" M 529.29 520.05 L 529.93 519.77 C 533.87 521.33 537.78 523.40 540.87 526.35 C 543.31 528.72 543.23 532.64 541.55 535.42 C 538.13 541.50 531.97 545.33 526.08 548.71 C 522.71 546.07 518.97 543.97 515.24 541.92 C 518.50 538.79 520.41 534.64 522.85 530.92 C 525.01 527.30 527.31 523.77 529.29 520.05 Z" />
</g>
<g id="#d4d6d7ff">
<path fill="#d4d6d7" opacity="1.00" d=" M 45.24 528.46 C 46.71 525.41 49.84 523.75 52.63 522.11 C 57.53 529.63 62.48 537.13 67.07 544.85 C 65.21 546.00 63.40 547.23 61.67 548.56 C 56.22 545.09 50.95 541.17 46.78 536.19 C 44.95 534.13 44.05 531.05 45.24 528.46 Z" />
</g>
<g id="#d3d5d6ff">
<path fill="#d3d5d6" opacity="1.00" d=" M 520.58 554.30 C 528.83 549.46 538.05 545.20 543.40 536.85 C 544.51 545.12 545.83 553.52 549.24 561.21 C 550.63 564.30 549.08 567.70 547.30 570.27 C 543.42 575.72 537.86 579.60 532.41 583.32 C 521.43 590.80 509.61 596.93 497.71 602.79 L 497.58 602.23 C 497.29 600.91 496.98 599.61 496.67 598.31 C 495.40 598.03 494.13 597.76 492.87 597.50 C 494.94 595.83 496.33 592.85 494.71 590.39 C 492.73 586.98 487.90 587.99 485.22 585.70 C 483.68 584.24 485.82 582.48 487.19 582.02 C 488.60 582.02 489.66 583.19 490.89 583.76 C 490.40 582.54 489.89 581.26 489.45 580.06 C 491.12 580.25 492.71 580.87 493.98 582.03 C 497.85 585.18 501.55 588.55 505.65 591.41 C 505.53 585.29 504.39 579.19 504.63 573.07 C 505.16 572.62 506.23 571.74 506.76 571.30 C 509.24 575.55 512.24 579.55 514.19 584.08 C 514.03 584.58 513.69 585.59 513.53 586.10 C 515.57 584.86 517.64 583.66 519.66 582.39 C 519.80 583.84 519.87 585.34 520.34 586.76 C 522.84 587.34 523.99 585.00 524.98 583.21 C 523.80 583.67 522.61 584.13 521.43 584.57 C 520.93 582.88 521.78 581.38 522.53 579.96 C 522.21 579.14 521.90 578.33 521.60 577.52 C 521.11 579.98 519.16 581.26 517.01 582.17 C 515.82 580.16 514.64 578.16 513.49 576.13 C 515.12 575.56 516.76 575.02 518.42 574.52 C 518.09 573.95 517.42 572.80 517.08 572.23 C 515.75 573.22 514.44 574.25 512.96 575.00 C 511.74 573.58 510.75 571.97 509.72 570.42 C 511.41 569.44 513.20 568.42 515.25 568.74 C 514.77 567.86 514.30 566.99 513.84 566.12 C 509.35 569.04 504.78 571.82 500.03 574.30 C 500.64 574.33 501.84 574.39 502.44 574.42 C 502.94 578.40 503.38 582.37 503.78 586.36 C 500.80 583.86 497.89 581.29 494.98 578.73 C 495.09 578.26 495.32 577.31 495.43 576.84 C 491.52 579.21 486.97 580.33 483.23 582.98 C 476.77 580.91 469.89 582.60 463.27 581.59 L 462.63 581.54 C 482.50 573.72 501.99 564.85 520.58 554.30 Z" />
</g>
<g id="#f8f9f9ff">
<path fill="#f8f9f9" opacity="1.00" d=" M 100.47 591.05 C 101.44 588.69 102.48 586.35 103.85 584.19 C 107.50 586.04 106.57 591.04 103.13 592.51 C 102.47 592.14 101.14 591.41 100.47 591.05 Z" />
</g>
<g id="#dedfe1ff">
<path fill="#dedfe1" opacity="1.00" d=" M 355.62 608.12 C 373.97 605.90 392.16 602.34 410.10 597.87 C 410.84 597.78 412.33 597.61 413.07 597.52 C 421.02 600.63 429.72 597.61 437.83 599.80 C 435.71 601.11 433.30 601.78 430.88 602.29 C 432.24 602.77 433.57 603.55 433.82 605.12 C 435.07 609.49 437.19 613.81 436.73 618.48 C 436.73 620.73 436.95 622.98 437.16 625.23 C 410.65 632.77 383.49 637.96 356.10 640.96 C 356.04 638.85 355.98 636.74 355.95 634.65 C 357.87 633.82 360.00 632.34 359.79 629.97 C 359.93 624.77 353.24 624.25 351.60 619.94 C 352.66 619.34 353.76 618.82 354.90 618.41 C 356.41 618.69 357.34 620.09 358.53 620.97 C 358.27 619.70 358.01 618.43 357.71 617.18 C 357.32 617.10 356.54 616.96 356.15 616.89 C 356.02 614.05 355.85 611.22 355.64 608.39 L 355.62 608.12 M 417.74 606.20 C 418.32 606.33 419.47 606.59 420.05 606.72 C 421.67 611.13 422.72 615.75 423.82 620.32 C 423.43 620.82 422.65 621.82 422.26 622.32 C 425.75 621.38 429.27 620.51 432.78 619.61 C 432.70 618.47 432.63 617.34 432.57 616.21 C 432.41 616.23 432.10 616.25 431.94 616.27 C 431.89 618.68 429.33 618.85 427.62 619.63 C 426.13 617.69 425.78 615.22 425.14 612.94 C 427.03 612.27 428.96 611.94 430.41 613.61 C 430.15 612.28 429.91 610.93 429.70 609.60 C 428.25 610.69 426.51 611.17 424.81 611.64 C 424.28 609.74 423.78 607.83 423.29 605.93 C 425.36 605.42 427.60 604.80 428.97 606.91 C 428.75 605.67 428.53 604.44 428.33 603.22 C 424.80 604.20 421.25 605.12 417.74 606.20 M 409.84 608.33 C 410.41 608.37 411.57 608.44 412.14 608.48 C 413.69 611.88 414.16 615.66 415.19 619.23 C 410.07 616.04 405.14 612.53 399.90 609.53 C 400.72 614.20 401.85 618.80 402.80 623.45 C 403.33 624.92 402.78 626.22 401.62 627.19 C 403.79 626.67 405.97 626.21 408.18 625.85 C 407.23 625.50 406.30 625.12 405.39 624.71 C 404.28 621.48 403.58 618.14 402.78 614.84 C 407.77 617.95 412.54 621.48 417.84 624.08 C 417.07 618.90 415.64 613.86 414.77 608.71 C 414.84 607.60 415.98 607.22 416.63 606.53 C 414.33 606.99 412.00 607.39 409.84 608.33 M 382.19 625.97 C 379.03 622.14 376.56 617.80 373.32 614.04 C 372.71 620.11 374.30 626.50 372.35 632.35 C 373.94 632.09 375.54 631.88 377.16 631.73 C 373.62 629.65 375.54 624.62 375.01 621.23 C 377.35 624.58 379.65 627.95 382.22 631.14 C 383.62 627.20 384.72 623.17 385.76 619.13 C 387.10 622.50 388.21 625.98 388.91 629.55 C 390.76 629.23 392.61 628.93 394.45 628.61 C 393.86 628.39 392.68 627.96 392.09 627.75 C 389.67 622.75 388.72 617.14 386.60 612.00 C 384.43 616.40 383.73 621.34 382.19 625.97 M 360.95 616.72 C 361.64 617.05 362.33 617.38 363.03 617.71 C 363.64 622.50 364.76 627.29 364.67 632.13 C 364.27 632.47 363.47 633.15 363.07 633.49 C 365.70 633.06 368.35 632.82 371.00 632.56 C 370.04 632.27 369.08 632.00 368.12 631.74 C 367.27 627.04 366.81 622.28 366.07 617.56 C 366.56 617.19 367.54 616.43 368.03 616.05 C 365.66 616.18 363.30 616.41 360.95 616.72 Z" />
</g>
<g id="#ebecedff">
<path fill="#ebeced" opacity="1.00" d=" M 243.14 619.46 C 246.90 619.78 247.07 624.79 243.92 626.21 C 244.96 627.98 247.43 629.31 246.76 631.86 C 246.73 634.42 243.96 634.40 242.08 634.07 C 241.99 629.18 242.60 624.31 243.14 619.46 Z" />
</g>
<g id="#e8e9eaff">
<path fill="#e8e9ea" opacity="1.00" d=" M 277.83 621.50 C 280.10 621.79 282.31 623.53 281.78 626.06 C 281.90 628.54 279.29 629.16 277.43 629.71 C 277.47 626.97 277.59 624.23 277.83 621.50 Z" />
</g>
<g id="#e5e6e6ff">
<path fill="#e5e6e6" opacity="1.00" d=" M 322.75 621.15 C 324.63 621.22 326.98 621.69 327.28 623.97 C 328.29 626.48 326.20 629.55 323.38 628.69 C 322.72 626.24 322.95 623.65 322.75 621.15 Z" />
<path fill="#e5e6e6" opacity="1.00" d=" M 308.50 625.11 C 309.19 626.78 309.86 628.46 310.53 630.15 C 309.56 630.24 307.61 630.43 306.63 630.52 C 307.24 628.71 307.87 626.91 308.50 625.11 Z" />
</g>
</svg>
