<?xml version="1.0" encoding="UTF-8" standalone="no"?>
<svg
   xmlns:dc="http://purl.org/dc/elements/1.1/"
   xmlns:cc="http://creativecommons.org/ns#"
   xmlns:rdf="http://www.w3.org/1999/02/22-rdf-syntax-ns#"
   xmlns:svg="http://www.w3.org/2000/svg"
   xmlns="http://www.w3.org/2000/svg"
   xmlns:sodipodi="http://sodipodi.sourceforge.net/DTD/sodipodi-0.dtd"
   xmlns:inkscape="http://www.inkscape.org/namespaces/inkscape"
   width="491pt"
   height="580pt"
   viewBox="0 0 491 580"
   version="1.1"
   id="svg6845"
   sodipodi:version="0.32"
   inkscape:version="0.46"
   sodipodi:docname="Coat_of_arms_of_Druskininkai_(Lithuania).svg"
   inkscape:output_extension="org.inkscape.output.svg.inkscape">
  <metadata
     id="metadata7158">
    <rdf:RDF>
      <cc:Work
         rdf:about="">
        <dc:format>image/svg+xml</dc:format>
        <dc:type
           rdf:resource="http://purl.org/dc/dcmitype/StillImage" />
      </cc:Work>
    </rdf:RDF>
  </metadata>
  <defs
     id="defs7156">
    <inkscape:perspective
       sodipodi:type="inkscape:persp3d"
       inkscape:vp_x="0 : 362.5 : 1"
       inkscape:vp_y="0 : 1000 : 0"
       inkscape:vp_z="613.75 : 362.5 : 1"
       inkscape:persp3d-origin="306.875 : 241.66667 : 1"
       id="perspective7160" />
  </defs>
  <sodipodi:namedview
     inkscape:window-height="972"
     inkscape:window-width="1280"
     inkscape:pageshadow="2"
     inkscape:pageopacity="0.0"
     guidetolerance="10.0"
     gridtolerance="10.0"
     objecttolerance="10.0"
     borderopacity="1.0"
     bordercolor="#666666"
     pagecolor="#ffffff"
     id="base"
     showgrid="false"
     inkscape:zoom="0.63724138"
     inkscape:cx="306.875"
     inkscape:cy="362.5"
     inkscape:window-x="-8"
     inkscape:window-y="-8"
     inkscape:current-layer="svg6845" />
  <path
     fill="#000000"
     stroke="#000000"
     stroke-width="0.09375"
     opacity="1.00"
     d=" M 5.0 4.2 C 166.0 4.3 327.0 4.3 488.0 4.2 C 488.0 112.8 488.0 221.4 488.0 330.0 C 489.5 385.2 470.9 440.5 436.8 483.8 C 414.7 512.0 386.3 535.3 354.3 551.3 C 320.0 568.6 281.4 577.6 243.0 576.8 C 202.7 576.5 162.6 565.4 127.6 545.4 C 92.0 525.2 61.6 495.7 40.2 460.7 C 16.8 422.6 4.3 377.8 5.0 333.0 C 5.0 223.4 5.0 113.8 5.0 4.2 M 11.2 10.6 C 11.3 119.1 11.2 227.5 11.3 336.0 C 11.5 363.1 16.1 390.1 25.5 415.6 C 36.0 444.2 52.1 470.8 72.7 493.3 C 97.4 520.6 128.5 541.9 162.9 555.1 C 198.6 568.8 237.7 573.5 275.6 568.7 C 314.6 563.9 352.1 549.0 383.9 525.9 C 412.9 505.0 437.0 477.4 453.9 445.9 C 472.1 412.3 481.5 374.2 481.7 336.0 C 481.8 227.5 481.7 119.1 481.8 10.6 C 453.5 10.4 425.3 10.5 397.0 10.5 C 268.4 10.5 139.8 10.4 11.2 10.6 Z"
     id="path6847" />
  <path
     fill="#0b4da2"
     stroke="#0b4da2"
     stroke-width="0.09375"
     opacity="1.00"
     d=" M 11.2 10.6 C 139.8 10.4 268.4 10.5 397.0 10.5 C 425.3 10.5 453.5 10.4 481.8 10.6 C 481.7 119.1 481.8 227.5 481.7 336.0 C 481.5 374.2 472.1 412.3 453.9 445.9 C 437.0 477.4 412.9 505.0 383.9 525.9 C 352.1 549.0 314.6 563.9 275.6 568.7 C 237.7 573.5 198.6 568.8 162.9 555.1 C 128.5 541.9 97.4 520.6 72.7 493.3 C 52.1 470.8 36.0 444.2 25.5 415.6 C 16.1 390.1 11.5 363.1 11.3 336.0 C 11.2 227.5 11.3 119.1 11.2 10.6 M 146.3 27.0 C 148.8 55.4 151.3 83.7 153.8 112.1 C 154.5 117.7 154.5 123.3 155.0 128.9 C 155.1 132.1 158.9 132.8 161.4 133.7 C 171.6 136.0 182.4 136.0 192.6 133.6 C 195.0 132.8 198.6 131.9 198.6 128.8 C 198.9 124.6 198.6 120.2 199.0 116.0 C 201.2 91.6 203.4 67.1 205.5 42.7 C 206.0 37.2 206.9 31.7 206.5 26.1 C 203.4 29.4 202.7 33.9 201.6 38.1 C 199.9 34.2 198.2 29.5 193.6 28.2 C 187.2 25.9 179.6 31.1 179.8 38.0 C 179.4 42.8 183.7 45.6 186.1 49.1 C 185.3 55.3 183.4 61.3 181.8 67.4 C 179.9 53.6 179.8 39.7 177.2 26.0 C 174.7 30.0 175.1 34.9 174.9 39.4 C 173.9 36.5 173.3 33.2 171.2 30.9 C 167.4 26.9 160.4 26.6 156.5 30.5 C 153.7 33.0 153.4 37.0 152.5 40.4 C 151.2 36.0 149.8 31.6 148.5 27.2 C 148.0 27.2 146.8 27.0 146.3 27.0 M 216.6 26.1 C 216.5 28.0 216.5 29.8 216.6 31.6 C 219.4 64.3 222.6 97.1 225.1 129.8 C 225.9 132.4 229.1 132.9 231.4 133.7 C 241.6 136.0 252.4 136.1 262.6 133.6 C 265.0 132.8 268.5 131.8 268.6 128.8 C 269.0 124.2 268.5 119.6 269.0 115.0 C 271.3 89.9 273.5 64.7 275.7 39.6 C 276.1 35.1 277.2 30.4 275.7 26.0 C 273.8 29.6 272.6 33.6 271.4 37.6 C 269.6 33.6 267.5 28.9 262.8 28.1 C 255.8 26.0 248.3 32.7 249.8 39.9 C 250.1 44.0 254.4 45.9 255.9 49.2 C 255.4 55.0 253.5 60.6 251.8 66.2 C 250.3 57.5 249.9 48.7 249.0 40.0 C 248.4 35.3 248.9 30.2 246.2 26.0 C 245.2 30.0 244.9 34.2 244.8 38.3 C 243.3 34.2 241.4 29.4 236.7 28.2 C 230.0 25.8 222.2 31.8 223.1 38.9 C 223.0 43.9 227.7 46.4 230.7 49.4 C 231.4 55.5 231.3 61.6 231.1 67.7 C 226.5 55.6 223.4 42.9 219.4 30.6 C 218.8 28.9 217.7 27.5 216.6 26.1 M 286.5 26.1 C 286.1 32.4 287.2 38.7 287.7 44.9 C 289.9 70.4 292.3 95.8 294.3 121.3 C 294.8 125.3 293.3 131.3 298.3 132.8 C 307.4 135.9 317.4 135.9 326.9 134.7 C 330.7 134.0 335.1 133.6 338.0 130.7 C 338.7 128.5 338.5 126.2 338.5 124.0 C 338.4 117.6 339.2 111.3 339.8 105.0 C 342.1 79.0 344.4 53.0 346.7 27.0 C 346.2 27.0 345.0 27.2 344.5 27.2 C 343.3 31.5 341.9 35.7 340.8 40.0 C 340.5 35.5 338.9 30.4 334.3 28.6 C 327.9 25.4 319.3 30.7 319.7 38.0 C 319.2 42.7 322.9 46.0 326.2 48.5 C 324.8 54.8 323.4 61.2 321.6 67.4 C 320.1 53.9 318.9 40.4 317.6 27.0 C 317.1 27.0 316.0 27.1 315.5 27.1 C 315.2 30.5 314.9 33.9 314.7 37.3 C 312.8 33.4 310.6 28.8 305.8 28.0 C 298.9 26.1 291.6 32.8 293.1 39.8 C 293.5 44.1 297.2 46.8 300.7 48.7 C 301.0 55.0 301.4 61.4 301.0 67.7 C 297.4 58.7 295.1 49.2 292.2 40.0 C 290.5 35.3 290.0 29.9 286.5 26.1 M 160.0 147.0 C 154.8 151.3 152.4 158.0 151.8 164.5 C 144.5 161.2 135.7 160.6 128.7 164.8 C 120.7 169.0 116.3 178.1 116.5 187.0 C 123.3 187.0 130.0 187.0 136.8 187.0 C 138.5 192.0 140.6 197.0 143.9 201.1 C 149.6 208.6 158.0 213.7 167.1 215.9 C 161.7 320.6 156.6 425.3 151.2 530.0 C 167.4 530.1 183.7 530.0 199.9 530.0 C 194.7 425.3 189.2 320.6 184.3 215.8 C 195.6 213.3 205.2 205.7 211.0 195.7 C 214.2 200.5 217.7 205.2 222.4 208.6 C 227.0 212.2 232.5 214.4 238.0 216.0 C 232.6 320.6 227.4 425.3 222.2 530.0 C 238.4 530.0 254.6 530.0 270.8 530.0 C 265.6 425.3 260.4 320.6 255.0 216.0 C 260.5 214.4 266.0 212.2 270.6 208.6 C 275.3 205.2 278.8 200.5 282.0 195.7 C 287.8 205.7 297.4 213.3 308.7 215.8 C 306.6 266.0 303.7 316.1 301.3 366.2 C 298.6 420.8 295.8 475.4 293.1 530.0 C 309.3 530.0 325.6 530.0 341.8 530.0 C 336.4 425.3 331.3 320.6 325.9 215.9 C 330.8 214.5 335.7 212.8 339.8 209.8 C 347.9 204.5 353.5 196.2 356.2 187.0 C 363.0 187.0 369.7 187.0 376.5 187.0 C 376.7 178.1 372.3 169.0 364.3 164.8 C 357.3 160.6 348.5 161.2 341.2 164.5 C 340.7 156.5 336.8 148.5 329.6 144.5 C 320.9 139.2 308.8 140.3 301.4 147.4 C 296.4 151.7 294.2 158.2 293.7 164.7 C 286.3 161.0 277.6 160.9 270.3 164.5 C 269.8 157.0 266.3 149.4 259.8 145.2 C 251.0 139.1 238.2 140.0 230.4 147.4 C 225.6 151.7 223.2 158.2 222.7 164.5 C 215.4 160.9 206.7 160.9 199.3 164.7 C 198.9 157.0 195.4 149.4 188.8 145.2 C 180.2 139.2 167.7 140.0 160.0 147.0 Z"
     id="path6849" />
  <path
     fill="#000000"
     stroke="#000000"
     stroke-width="0.09375"
     opacity="1.00"
     d=" M 146.3 27.0 C 146.8 27.0 148.0 27.2 148.5 27.2 C 149.8 31.6 151.2 36.0 152.5 40.4 C 153.4 37.0 153.7 33.0 156.5 30.5 C 160.4 26.6 167.4 26.9 171.2 30.9 C 173.3 33.2 173.9 36.5 174.9 39.4 C 175.1 34.9 174.7 30.0 177.2 26.0 C 179.8 39.7 179.9 53.6 181.8 67.4 C 183.4 61.3 185.3 55.3 186.1 49.1 C 183.7 45.6 179.4 42.8 179.8 38.0 C 179.6 31.1 187.2 25.9 193.6 28.2 C 198.2 29.5 199.9 34.2 201.6 38.1 C 202.7 33.9 203.4 29.4 206.5 26.1 C 206.9 31.7 206.0 37.2 205.5 42.7 C 203.4 67.1 201.2 91.6 199.0 116.0 C 198.6 120.2 198.9 124.6 198.6 128.8 C 198.6 131.9 195.0 132.8 192.6 133.6 C 182.4 136.0 171.6 136.0 161.4 133.7 C 158.9 132.8 155.1 132.1 155.0 128.9 C 154.5 123.3 154.5 117.7 153.8 112.1 C 151.3 83.7 148.8 55.4 146.3 27.0 M 155.7 33.6 C 158.1 34.8 160.4 35.9 162.8 37.1 C 162.6 34.5 162.3 31.9 162.0 29.3 C 159.7 30.4 157.6 31.9 155.7 33.6 M 163.7 29.1 C 163.9 31.7 164.0 34.3 164.3 36.9 C 166.4 35.4 168.6 33.9 170.6 32.2 C 168.4 31.0 166.1 29.9 163.7 29.1 M 183.3 32.1 C 185.3 33.8 187.5 35.4 189.6 37.0 C 189.9 34.3 190.1 31.7 190.2 29.1 C 187.8 29.9 185.5 30.9 183.3 32.1 M 191.9 29.3 C 191.6 31.9 191.3 34.4 191.1 37.0 C 193.5 35.9 195.8 34.8 198.1 33.5 C 196.3 31.9 194.2 30.4 191.9 29.3 M 165.1 38.1 C 167.5 39.2 169.8 40.3 172.2 41.3 C 172.2 38.8 172.0 36.2 171.6 33.6 C 169.4 35.1 167.2 36.5 165.1 38.1 M 182.3 33.7 C 181.8 36.2 181.6 38.8 181.8 41.3 C 184.1 40.3 186.5 39.2 188.8 38.1 C 186.7 36.6 184.5 35.1 182.3 33.7 M 154.8 35.2 C 155.0 37.7 155.3 40.3 155.8 42.8 C 158.0 41.3 160.1 39.8 162.2 38.3 C 159.8 37.2 157.3 36.1 154.8 35.2 M 191.7 38.3 C 193.9 39.8 196.0 41.3 198.2 42.8 C 198.7 40.3 198.9 37.7 198.9 35.2 C 196.5 36.1 194.1 37.2 191.7 38.3 M 156.6 44.0 C 158.8 45.4 161.1 46.5 163.5 47.4 C 163.4 44.8 163.2 42.2 163.0 39.6 C 160.9 41.0 158.7 42.5 156.6 44.0 M 164.5 39.4 C 164.7 42.0 165.0 44.6 165.3 47.2 C 167.5 45.9 169.6 44.5 171.5 42.8 C 169.2 41.6 166.8 40.5 164.5 39.4 M 182.4 42.8 C 184.3 44.4 186.4 45.9 188.5 47.2 C 188.9 44.7 189.2 42.0 189.4 39.4 C 187.1 40.5 184.7 41.6 182.4 42.8 M 190.9 39.5 C 190.7 42.1 190.5 44.7 190.4 47.3 C 192.8 46.4 195.1 45.4 197.3 44.1 C 195.2 42.5 193.1 41.0 190.9 39.5 M 152.7 41.0 C 155.6 50.4 158.2 60.0 161.5 69.3 C 161.3 62.7 161.6 56.0 160.7 49.4 C 158.0 46.7 154.9 44.2 152.7 41.0 M 167.1 48.6 C 168.6 54.9 170.0 61.2 171.8 67.4 C 172.8 58.8 173.6 50.2 174.3 41.6 C 172.2 44.2 169.8 46.6 167.1 48.6 M 192.6 48.6 C 192.5 55.2 192.1 61.7 192.2 68.3 C 194.7 60.5 197.0 52.7 199.3 44.8 C 197.1 46.1 194.9 47.4 192.6 48.6 M 171.2 93.0 C 171.0 96.1 170.2 99.5 171.4 102.6 C 172.7 106.1 174.3 109.6 175.9 113.0 C 176.1 98.0 175.9 83.0 176.0 68.0 C 176.0 60.6 176.2 53.1 175.6 45.7 C 174.4 61.5 172.8 77.2 171.2 93.0 M 177.5 45.7 C 177.5 67.9 177.5 90.2 177.6 112.4 C 179.9 107.0 183.6 101.4 182.6 95.2 C 180.8 78.7 179.7 62.1 177.5 45.7 M 152.0 46.4 C 152.6 52.2 154.1 58.0 155.2 63.8 C 158.6 80.1 161.5 96.6 165.1 113.0 C 166.7 109.0 170.8 104.9 168.8 100.4 C 163.0 82.4 158.1 64.2 152.0 46.4 M 197.5 57.6 C 193.1 71.9 188.8 86.2 184.4 100.5 C 182.5 105.0 186.6 109.0 188.1 113.0 C 190.5 102.5 192.4 92.0 194.5 81.4 C 196.6 69.8 199.5 58.2 201.2 46.5 C 199.6 50.1 198.6 53.8 197.5 57.6 M 150.1 47.1 C 150.0 53.4 151.0 59.5 151.5 65.7 C 152.9 79.7 153.9 93.6 155.5 107.5 C 157.8 110.0 160.8 111.6 163.5 113.6 C 159.8 94.0 155.7 74.6 152.0 55.0 C 151.5 52.4 150.9 49.7 150.1 47.1 M 188.4 48.5 C 186.8 54.9 185.3 61.3 183.7 67.7 C 181.0 76.3 183.8 85.2 184.3 93.9 C 186.3 87.6 188.6 81.4 189.9 74.9 C 190.5 66.1 190.5 57.3 190.8 48.5 C 190.2 48.5 189.0 48.5 188.4 48.5 M 162.9 47.8 C 163.0 57.4 163.2 67.0 163.7 76.6 C 165.1 82.7 167.1 88.7 169.2 94.7 C 170.0 87.8 170.8 81.0 171.1 74.0 C 170.2 67.9 168.3 62.0 167.1 56.0 C 166.2 53.0 166.3 49.1 162.9 47.8 M 200.2 60.4 C 196.7 78.1 193.1 95.8 189.7 113.5 C 192.5 111.7 195.1 109.7 197.8 107.8 C 199.2 92.2 200.7 76.6 202.2 61.0 C 202.5 56.7 203.2 52.4 203.0 48.1 C 201.6 52.1 201.1 56.3 200.2 60.4 M 165.3 116.1 C 168.5 115.8 171.6 115.6 174.8 115.4 C 173.3 112.1 171.8 108.9 170.3 105.7 C 168.5 109.1 166.9 112.6 165.3 116.1 M 178.5 115.4 C 181.6 115.6 184.8 115.8 187.9 116.2 C 186.3 112.7 184.6 109.2 182.9 105.7 C 181.4 108.9 179.9 112.1 178.5 115.4 M 155.7 109.7 C 155.8 112.8 156.1 115.9 156.3 119.0 C 158.9 117.9 161.6 117.0 164.3 116.2 C 161.5 114.0 158.6 111.8 155.7 109.7 M 189.0 116.1 C 191.6 117.0 194.3 117.8 197.0 118.8 C 197.1 115.8 197.4 112.8 197.5 109.8 C 194.6 111.8 191.8 114.0 189.0 116.1 M 156.8 120.8 C 156.8 122.4 156.8 123.9 156.7 125.5 C 163.2 123.0 170.1 122.2 177.0 122.2 C 183.8 122.3 190.8 122.9 197.1 125.7 C 197.0 124.1 196.9 122.6 196.9 121.0 C 190.8 117.8 183.8 117.2 177.0 117.2 C 170.1 117.2 163.0 117.7 156.8 120.8 M 163.4 125.3 C 160.6 125.8 158.1 127.2 155.9 128.9 C 159.9 132.1 165.1 132.9 170.0 133.3 C 177.3 133.8 184.8 133.8 191.9 131.9 C 193.9 131.2 196.6 130.7 197.3 128.3 C 194.0 126.0 190.0 125.1 186.2 124.6 C 178.6 123.6 170.8 123.8 163.4 125.3 Z"
     id="path6851" />
  <path
     fill="#000000"
     stroke="#000000"
     stroke-width="0.09375"
     opacity="1.00"
     d=" M 216.6 26.1 C 217.7 27.5 218.8 28.9 219.4 30.6 C 223.4 42.9 226.5 55.6 231.1 67.7 C 231.3 61.6 231.4 55.5 230.7 49.4 C 227.7 46.4 223.0 43.9 223.1 38.9 C 222.2 31.8 230.0 25.8 236.7 28.2 C 241.4 29.4 243.3 34.2 244.8 38.3 C 244.9 34.2 245.2 30.0 246.2 26.0 C 248.9 30.2 248.4 35.3 249.0 40.0 C 249.9 48.7 250.3 57.5 251.8 66.2 C 253.5 60.6 255.4 55.0 255.9 49.2 C 254.4 45.9 250.1 44.0 249.8 39.9 C 248.3 32.7 255.8 26.0 262.8 28.1 C 267.5 28.9 269.6 33.6 271.4 37.6 C 272.6 33.6 273.8 29.6 275.7 26.0 C 277.2 30.4 276.1 35.1 275.7 39.6 C 273.5 64.7 271.3 89.9 269.0 115.0 C 268.5 119.6 269.0 124.2 268.6 128.8 C 268.5 131.8 265.0 132.8 262.6 133.6 C 252.4 136.1 241.6 136.0 231.4 133.7 C 229.1 132.9 225.9 132.4 225.1 129.8 C 222.6 97.1 219.4 64.3 216.6 31.6 C 216.5 29.8 216.5 28.0 216.6 26.1 M 253.2 32.3 C 255.3 33.9 257.4 35.4 259.5 36.8 C 259.8 34.2 260.0 31.7 260.2 29.1 C 257.7 29.9 255.4 31.0 253.2 32.3 M 225.6 33.6 C 227.9 34.8 230.3 35.9 232.7 37.0 C 232.5 34.4 232.2 31.8 231.8 29.2 C 229.6 30.5 227.5 31.9 225.6 33.6 M 233.6 29.0 C 233.7 31.7 233.9 34.3 234.1 37.0 C 236.3 35.4 238.4 33.9 240.5 32.2 C 238.3 30.9 236.0 29.9 233.6 29.0 M 261.8 29.3 C 261.5 31.9 261.2 34.5 261.0 37.1 C 263.4 36.0 265.7 34.8 268.0 33.6 C 266.1 31.8 264.0 30.4 261.8 29.3 M 235.0 38.1 C 237.4 39.2 239.8 40.3 242.2 41.3 C 242.1 38.7 241.9 36.2 241.4 33.6 C 239.2 35.1 237.1 36.6 235.0 38.1 M 252.0 33.7 C 251.7 36.2 251.6 38.8 251.6 41.3 C 253.7 40.4 255.7 39.6 257.7 38.5 C 257.8 35.8 253.7 35.2 252.0 33.7 M 224.8 35.1 C 225.0 37.6 225.2 40.1 225.6 42.6 C 227.8 41.3 230.0 39.8 232.1 38.4 C 229.7 37.2 227.3 36.1 224.8 35.1 M 261.6 38.3 C 263.7 39.9 265.9 41.3 268.1 42.8 C 268.5 40.3 268.8 37.7 268.8 35.2 C 266.4 36.1 264.0 37.2 261.6 38.3 M 226.6 44.0 C 228.7 45.4 231.0 46.5 233.4 47.4 C 233.3 44.8 233.1 42.2 232.9 39.6 C 230.8 41.0 228.6 42.5 226.6 44.0 M 234.4 39.5 C 234.6 42.1 234.9 44.6 235.3 47.2 C 237.4 45.9 239.5 44.5 241.4 42.8 C 239.1 41.6 236.8 40.5 234.4 39.5 M 252.3 42.8 C 254.2 44.5 256.3 46.0 258.6 47.2 C 258.8 44.6 259.1 42.0 259.3 39.4 C 256.9 40.5 254.6 41.6 252.3 42.8 M 260.8 39.5 C 260.6 42.1 260.4 44.7 260.3 47.3 C 262.7 46.5 265.0 45.4 267.1 44.0 C 265.0 42.5 262.9 41.0 260.8 39.5 M 237.1 48.6 C 238.5 54.9 239.9 61.2 241.7 67.4 C 242.8 58.6 243.4 49.8 244.3 41.0 C 242.3 43.9 240.0 46.5 237.1 48.6 M 270.8 56.9 C 267.2 75.8 263.2 94.6 259.7 113.5 C 262.6 111.0 268.0 109.6 267.9 105.0 C 269.8 84.6 271.8 64.2 273.6 43.9 C 272.4 48.2 271.7 52.5 270.8 56.9 M 262.5 48.8 C 262.3 55.0 262.0 61.3 262.1 67.5 C 264.9 60.0 267.0 52.3 269.3 44.6 C 267.0 46.0 264.8 47.4 262.5 48.8 M 240.6 99.1 C 241.1 104.2 244.0 108.7 246.0 113.4 C 246.1 97.0 246.0 80.5 246.0 64.0 C 246.0 57.9 246.2 51.7 245.6 45.6 C 244.1 63.4 242.2 81.2 240.6 99.1 M 221.9 46.4 C 222.2 50.3 223.2 54.2 223.9 58.0 C 227.7 76.3 231.1 94.7 235.0 113.0 C 236.5 109.7 238.6 106.6 239.4 103.1 C 235.2 88.6 230.6 74.2 226.3 59.8 C 224.9 55.3 223.8 50.7 221.9 46.4 M 247.5 46.6 C 247.5 68.5 247.5 90.4 247.5 112.3 C 249.7 106.9 253.4 101.5 252.5 95.4 C 250.7 79.1 249.7 62.8 247.5 46.6 M 266.7 59.8 C 262.4 74.2 257.8 88.6 253.6 103.1 C 254.4 106.6 256.5 109.8 258.0 113.1 C 261.5 96.7 264.5 80.2 267.9 63.8 C 269.0 58.0 270.5 52.3 271.1 46.4 C 269.2 50.7 268.2 55.3 266.7 59.8 M 220.0 47.3 C 220.0 49.5 220.1 51.6 220.3 53.8 C 222.0 71.8 223.6 89.8 225.3 107.8 C 228.0 109.8 230.6 111.7 233.3 113.6 C 229.9 94.6 225.8 75.8 222.2 56.8 C 221.6 53.7 221.0 50.4 220.0 47.3 M 232.9 47.8 C 232.6 55.2 233.2 62.6 233.3 70.0 C 233.0 78.4 236.3 86.3 239.0 94.1 C 239.9 89.1 240.2 84.0 240.7 78.9 C 241.8 71.7 238.7 64.8 237.3 57.7 C 236.2 54.3 236.6 49.7 232.9 47.8 M 257.5 51.6 C 255.9 58.9 253.9 66.0 252.4 73.3 C 252.4 80.2 253.5 87.0 254.2 93.9 C 256.3 87.6 258.5 81.4 259.9 74.9 C 260.2 65.8 260.8 56.6 260.4 47.5 C 259.1 48.7 257.6 49.8 257.5 51.6 M 240.2 105.7 C 238.5 109.1 236.8 112.6 235.3 116.1 C 238.4 115.8 241.6 115.5 244.7 115.4 C 243.2 112.1 241.7 108.9 240.2 105.7 M 252.8 105.7 C 251.3 108.9 249.8 112.1 248.3 115.3 C 251.5 115.6 254.6 115.8 257.7 116.1 C 256.2 112.6 254.5 109.1 252.8 105.7 M 225.5 109.6 C 225.7 112.7 226.0 115.8 226.2 118.9 C 228.8 117.9 231.5 117.0 234.2 116.2 C 231.3 114.0 228.4 111.8 225.5 109.6 M 258.8 116.2 C 261.5 117.0 264.2 117.8 266.9 118.7 C 267.0 115.7 267.3 112.7 267.5 109.7 C 264.6 111.8 261.7 114.0 258.8 116.2 M 235.0 118.1 C 232.1 118.7 229.2 119.2 226.9 121.1 C 226.6 122.6 226.4 124.1 226.2 125.6 C 239.3 121.0 254.1 121.0 267.1 125.6 C 266.9 124.0 266.7 122.4 266.3 120.8 C 262.5 118.5 258.0 118.0 253.7 117.5 C 247.5 117.0 241.2 117.1 235.0 118.1 M 234.1 125.1 C 231.0 125.6 228.2 127.0 225.7 128.9 C 233.4 134.4 243.5 133.6 252.5 133.4 C 257.8 132.9 263.6 132.5 267.6 128.7 C 265.2 127.1 262.6 125.8 259.8 125.3 C 251.3 123.6 242.6 123.6 234.1 125.1 Z"
     id="path6853" />
  <path
     fill="#000000"
     stroke="#000000"
     stroke-width="0.09375"
     opacity="1.00"
     d=" M 286.5 26.1 C 290.0 29.9 290.5 35.3 292.2 40.0 C 295.1 49.2 297.4 58.7 301.0 67.7 C 301.4 61.4 301.0 55.0 300.7 48.7 C 297.2 46.8 293.5 44.1 293.1 39.8 C 291.6 32.8 298.9 26.1 305.8 28.0 C 310.6 28.8 312.8 33.4 314.7 37.3 C 314.9 33.9 315.2 30.5 315.5 27.1 C 316.0 27.1 317.1 27.0 317.6 27.0 C 318.9 40.4 320.1 53.9 321.6 67.4 C 323.4 61.2 324.8 54.8 326.2 48.5 C 322.9 46.0 319.2 42.7 319.7 38.0 C 319.3 30.7 327.9 25.4 334.3 28.6 C 338.9 30.4 340.5 35.5 340.8 40.0 C 341.9 35.7 343.3 31.5 344.5 27.2 C 345.0 27.2 346.2 27.0 346.7 27.0 C 344.4 53.0 342.1 79.0 339.8 105.0 C 339.2 111.3 338.4 117.6 338.5 124.0 C 338.5 126.2 338.7 128.5 338.0 130.7 C 335.1 133.6 330.7 134.0 326.9 134.7 C 317.4 135.9 307.4 135.9 298.3 132.8 C 293.3 131.3 294.8 125.3 294.3 121.3 C 292.3 95.8 289.9 70.4 287.7 44.9 C 287.2 38.7 286.1 32.4 286.5 26.1 M 323.1 32.3 C 325.1 33.9 327.3 35.4 329.4 36.9 C 329.7 34.3 329.9 31.7 330.1 29.1 C 327.6 29.9 325.3 30.9 323.1 32.3 M 295.5 33.6 C 297.8 34.8 300.2 35.9 302.6 37.0 C 302.3 34.4 302.1 31.8 301.7 29.2 C 299.5 30.4 297.4 31.9 295.5 33.6 M 303.5 29.0 C 303.6 31.6 303.8 34.3 304.0 36.9 C 306.2 35.4 308.4 33.9 310.5 32.2 C 308.2 31.0 305.9 29.9 303.5 29.0 M 331.7 29.2 C 331.4 31.8 331.1 34.4 330.9 37.1 C 333.3 35.9 335.6 34.8 337.9 33.5 C 336.0 31.8 333.9 30.4 331.7 29.2 M 304.9 38.1 C 307.3 39.2 309.7 40.3 312.1 41.3 C 312.0 38.7 311.8 36.1 311.4 33.6 C 309.2 35.1 307.0 36.6 304.9 38.1 M 322.0 33.6 C 321.7 36.2 321.5 38.8 321.5 41.3 C 323.9 40.3 326.3 39.2 328.6 38.1 C 326.4 36.5 324.2 35.0 322.0 33.6 M 294.8 35.1 C 294.8 37.6 295.1 40.1 295.4 42.7 C 297.7 41.3 299.8 39.9 301.9 38.3 C 299.6 37.2 297.2 36.1 294.8 35.1 M 331.5 38.4 C 333.7 39.9 335.8 41.3 338.1 42.7 C 338.5 40.2 338.7 37.7 338.6 35.1 C 336.2 36.2 333.9 37.2 331.5 38.4 M 297.2 44.6 C 299.1 45.9 301.3 46.6 303.4 47.3 C 303.2 44.7 303.0 42.2 302.8 39.6 C 301.0 41.2 297.5 41.9 297.2 44.6 M 304.3 39.4 C 304.5 42.0 304.8 44.6 305.1 47.1 C 307.3 45.9 309.4 44.4 311.3 42.8 C 309.0 41.6 306.6 40.5 304.3 39.4 M 322.2 42.8 C 324.1 44.5 326.2 45.9 328.4 47.2 C 328.7 44.6 329.0 42.0 329.2 39.4 C 326.8 40.5 324.5 41.6 322.2 42.8 M 330.6 39.5 C 330.5 42.1 330.3 44.7 330.2 47.3 C 332.6 46.5 334.9 45.4 337.0 44.0 C 334.9 42.5 332.8 41.0 330.6 39.5 M 307.0 48.7 C 308.4 54.9 309.8 61.2 311.6 67.4 C 312.6 58.6 313.3 49.8 314.2 41.0 C 312.3 44.0 309.8 46.6 307.0 48.7 M 332.5 49.4 C 331.9 55.4 332.0 61.5 332.1 67.5 C 334.8 59.8 337.0 51.9 339.3 44.1 C 337.0 45.9 334.4 47.2 332.5 49.4 M 317.3 45.5 C 317.2 67.8 317.2 90.2 317.3 112.5 C 319.0 108.8 320.9 105.0 322.1 101.1 C 323.0 98.1 322.2 95.0 322.0 92.0 C 320.4 76.5 319.4 60.9 317.3 45.5 M 324.2 100.4 C 322.2 104.9 326.3 109.0 327.9 113.0 C 330.5 101.6 332.4 90.2 334.8 78.8 C 336.8 68.0 339.5 57.3 341.0 46.4 C 334.9 64.2 329.9 82.4 324.2 100.4 M 340.7 56.7 C 337.1 75.7 333.1 94.6 329.5 113.6 C 332.2 111.6 335.2 110.0 337.5 107.5 C 338.4 101.7 338.6 95.8 339.2 90.0 C 340.4 75.4 342.4 61.0 343.0 46.4 C 342.0 49.8 341.4 53.3 340.7 56.7 M 292.0 47.2 C 292.5 53.1 294.1 58.9 295.2 64.8 C 298.5 80.8 301.3 97.0 304.9 113.0 C 306.4 109.0 310.5 105.0 308.6 100.5 C 303.7 84.4 298.7 68.3 293.9 52.2 C 293.3 50.5 292.7 48.8 292.0 47.2 M 315.6 47.5 C 313.7 63.6 312.5 79.9 310.7 96.1 C 309.7 102.1 313.4 107.5 315.7 112.9 C 315.7 91.1 315.9 69.2 315.6 47.5 M 290.0 48.1 C 289.9 50.0 290.0 52.0 290.2 53.9 C 291.9 71.9 293.5 89.8 295.2 107.8 C 297.9 109.7 300.5 111.7 303.3 113.5 C 299.7 94.6 295.7 75.8 292.1 56.9 C 291.5 53.9 291.0 51.0 290.0 48.1 M 302.8 47.7 C 302.6 57.1 303.1 66.5 303.4 75.9 C 304.6 82.5 307.2 88.7 308.9 95.2 C 309.7 88.2 310.6 81.2 310.9 74.1 C 310.1 68.3 308.3 62.7 307.1 57.0 C 306.2 53.7 306.1 49.6 302.8 47.7 M 328.0 49.8 C 326.4 54.6 325.6 59.5 324.3 64.4 C 323.5 68.4 321.9 72.4 322.3 76.5 C 322.9 82.4 323.4 88.3 324.1 94.2 C 325.7 89.1 327.3 84.0 328.9 78.9 C 330.5 74.1 329.9 68.9 330.2 64.0 C 330.2 58.5 330.8 53.1 330.2 47.7 C 329.7 48.2 328.6 49.3 328.0 49.8 M 322.7 105.7 C 321.2 108.9 319.7 112.1 318.2 115.4 C 321.4 115.6 324.5 115.9 327.7 116.1 C 326.1 112.6 324.5 109.1 322.7 105.7 M 305.1 116.2 C 308.2 115.8 311.4 115.6 314.5 115.4 C 313.1 112.1 311.6 108.9 310.1 105.7 C 308.4 109.2 306.7 112.7 305.1 116.2 M 328.6 116.2 C 331.4 117.0 334.1 117.8 336.8 118.8 C 336.9 115.8 337.2 112.7 337.3 109.7 C 334.4 111.8 331.5 114.0 328.6 116.2 M 295.5 109.8 C 295.6 112.9 295.9 115.9 296.1 119.0 C 298.7 118.0 301.4 117.0 304.1 116.2 C 301.3 114.0 298.4 111.8 295.5 109.8 M 296.6 120.8 C 296.5 122.4 296.5 124.0 296.4 125.5 C 309.4 121.0 324.2 121.0 337.2 125.7 C 336.9 124.1 336.7 122.4 336.2 120.8 C 331.9 118.3 326.8 117.8 322.0 117.4 C 313.4 117.0 304.5 117.0 296.6 120.8 M 303.3 125.3 C 300.5 125.8 297.9 127.2 295.6 128.9 C 298.2 130.8 301.1 132.1 304.2 132.6 C 312.5 134.0 321.2 134.0 329.5 132.5 C 332.5 132.0 335.2 130.6 337.6 128.9 C 335.3 127.1 332.7 125.8 329.8 125.3 C 321.1 123.5 312.0 123.6 303.3 125.3 Z"
     id="path6855" />
  <path
     fill="#d2ab67"
     stroke="#d2ab67"
     stroke-width="0.09375"
     opacity="1.00"
     d=" M 253.2 32.3 C 255.4 31.0 257.7 29.9 260.2 29.1 C 260.0 31.7 259.8 34.2 259.5 36.8 C 257.4 35.4 255.3 33.9 253.2 32.3 Z"
     id="path6857" />
  <path
     fill="#d2ab67"
     stroke="#d2ab67"
     stroke-width="0.09375"
     opacity="1.00"
     d=" M 323.1 32.3 C 325.3 30.9 327.6 29.9 330.1 29.1 C 329.9 31.7 329.7 34.3 329.4 36.9 C 327.3 35.4 325.1 33.9 323.1 32.3 Z"
     id="path6859" />
  <path
     fill="#d1aa67"
     stroke="#d1aa67"
     stroke-width="0.09375"
     opacity="1.00"
     d=" M 155.7 33.6 C 157.6 31.9 159.7 30.4 162.0 29.3 C 162.3 31.9 162.6 34.5 162.8 37.1 C 160.4 35.9 158.1 34.8 155.7 33.6 Z"
     id="path6861" />
  <path
     fill="#d2ab67"
     stroke="#d2ab67"
     stroke-width="0.09375"
     opacity="1.00"
     d=" M 163.7 29.1 C 166.1 29.9 168.4 31.0 170.6 32.2 C 168.6 33.9 166.4 35.4 164.3 36.9 C 164.0 34.3 163.9 31.7 163.7 29.1 Z"
     id="path6863" />
  <path
     fill="#d1ab67"
     stroke="#d1ab67"
     stroke-width="0.09375"
     opacity="1.00"
     d=" M 183.3 32.1 C 185.5 30.9 187.8 29.9 190.2 29.1 C 190.1 31.7 189.9 34.3 189.6 37.0 C 187.5 35.4 185.3 33.8 183.3 32.1 Z"
     id="path6865" />
  <path
     fill="#d2ab67"
     stroke="#d2ab67"
     stroke-width="0.09375"
     opacity="1.00"
     d=" M 191.9 29.3 C 194.2 30.4 196.3 31.9 198.1 33.5 C 195.8 34.8 193.5 35.9 191.1 37.0 C 191.3 34.4 191.6 31.9 191.9 29.3 Z"
     id="path6867" />
  <path
     fill="#d1ab67"
     stroke="#d1ab67"
     stroke-width="0.09375"
     opacity="1.00"
     d=" M 225.6 33.6 C 227.5 31.9 229.6 30.5 231.8 29.2 C 232.2 31.8 232.5 34.4 232.7 37.0 C 230.3 35.9 227.9 34.8 225.6 33.6 Z"
     id="path6869" />
  <path
     fill="#d1ab67"
     stroke="#d1ab67"
     stroke-width="0.09375"
     opacity="1.00"
     d=" M 233.6 29.0 C 236.0 29.9 238.3 30.9 240.5 32.2 C 238.4 33.9 236.3 35.4 234.1 37.0 C 233.9 34.3 233.7 31.7 233.6 29.0 Z"
     id="path6871" />
  <path
     fill="#d2ab67"
     stroke="#d2ab67"
     stroke-width="0.09375"
     opacity="1.00"
     d=" M 261.8 29.3 C 264.0 30.4 266.1 31.8 268.0 33.6 C 265.7 34.8 263.4 36.0 261.0 37.1 C 261.2 34.5 261.5 31.9 261.8 29.3 Z"
     id="path6873" />
  <path
     fill="#d1aa67"
     stroke="#d1aa67"
     stroke-width="0.09375"
     opacity="1.00"
     d=" M 295.5 33.6 C 297.4 31.9 299.5 30.4 301.7 29.2 C 302.1 31.8 302.3 34.4 302.6 37.0 C 300.2 35.9 297.8 34.8 295.5 33.6 Z"
     id="path6875" />
  <path
     fill="#d2ab67"
     stroke="#d2ab67"
     stroke-width="0.09375"
     opacity="1.00"
     d=" M 303.5 29.0 C 305.9 29.9 308.2 31.0 310.5 32.2 C 308.4 33.9 306.2 35.4 304.0 36.9 C 303.8 34.3 303.6 31.6 303.5 29.0 Z"
     id="path6877" />
  <path
     fill="#d2ab67"
     stroke="#d2ab67"
     stroke-width="0.09375"
     opacity="1.00"
     d=" M 331.7 29.2 C 333.9 30.4 336.0 31.8 337.9 33.5 C 335.6 34.8 333.3 35.9 330.9 37.1 C 331.1 34.4 331.4 31.8 331.7 29.2 Z"
     id="path6879" />
  <path
     fill="#d2ab67"
     stroke="#d2ab67"
     stroke-width="0.09375"
     opacity="1.00"
     d=" M 165.1 38.1 C 167.2 36.5 169.4 35.1 171.6 33.6 C 172.0 36.2 172.2 38.8 172.2 41.3 C 169.8 40.3 167.5 39.2 165.1 38.1 Z"
     id="path6881" />
  <path
     fill="#d2ab67"
     stroke="#d2ab67"
     stroke-width="0.09375"
     opacity="1.00"
     d=" M 182.3 33.7 C 184.5 35.1 186.7 36.6 188.8 38.1 C 186.5 39.2 184.1 40.3 181.8 41.3 C 181.6 38.8 181.8 36.2 182.3 33.7 Z"
     id="path6883" />
  <path
     fill="#d2ab67"
     stroke="#d2ab67"
     stroke-width="0.09375"
     opacity="1.00"
     d=" M 235.0 38.1 C 237.1 36.6 239.2 35.1 241.4 33.6 C 241.9 36.2 242.1 38.7 242.2 41.3 C 239.8 40.3 237.4 39.2 235.0 38.1 Z"
     id="path6885" />
  <path
     fill="#d2ab67"
     stroke="#d2ab67"
     stroke-width="0.09375"
     opacity="1.00"
     d=" M 252.0 33.7 C 253.7 35.2 257.8 35.8 257.7 38.5 C 255.7 39.6 253.7 40.4 251.6 41.3 C 251.6 38.8 251.7 36.2 252.0 33.7 Z"
     id="path6887" />
  <path
     fill="#d2ab67"
     stroke="#d2ab67"
     stroke-width="0.09375"
     opacity="1.00"
     d=" M 304.9 38.1 C 307.0 36.6 309.2 35.1 311.4 33.6 C 311.8 36.1 312.0 38.7 312.1 41.3 C 309.7 40.3 307.3 39.2 304.9 38.1 Z"
     id="path6889" />
  <path
     fill="#d1ab67"
     stroke="#d1ab67"
     stroke-width="0.09375"
     opacity="1.00"
     d=" M 322.0 33.6 C 324.2 35.0 326.4 36.5 328.6 38.1 C 326.3 39.2 323.9 40.3 321.5 41.3 C 321.5 38.8 321.7 36.2 322.0 33.6 Z"
     id="path6891" />
  <path
     fill="#d2ab67"
     stroke="#d2ab67"
     stroke-width="0.09375"
     opacity="1.00"
     d=" M 224.8 35.1 C 227.3 36.1 229.7 37.2 232.1 38.4 C 230.0 39.8 227.8 41.3 225.6 42.6 C 225.2 40.1 225.0 37.6 224.8 35.1 Z"
     id="path6893" />
  <path
     fill="#d1aa67"
     stroke="#d1aa67"
     stroke-width="0.09375"
     opacity="1.00"
     d=" M 261.6 38.3 C 264.0 37.2 266.4 36.1 268.8 35.2 C 268.8 37.7 268.5 40.3 268.1 42.8 C 265.9 41.3 263.7 39.9 261.6 38.3 Z"
     id="path6895" />
  <path
     fill="#d2ab67"
     stroke="#d2ab67"
     stroke-width="0.09375"
     opacity="1.00"
     d=" M 294.8 35.1 C 297.2 36.1 299.6 37.2 301.9 38.3 C 299.8 39.9 297.7 41.3 295.4 42.7 C 295.1 40.1 294.8 37.6 294.8 35.1 Z"
     id="path6897" />
  <path
     fill="#d2ab67"
     stroke="#d2ab67"
     stroke-width="0.09375"
     opacity="1.00"
     d=" M 154.8 35.2 C 157.3 36.1 159.8 37.2 162.2 38.3 C 160.1 39.8 158.0 41.3 155.8 42.8 C 155.3 40.3 155.0 37.7 154.8 35.2 Z"
     id="path6899" />
  <path
     fill="#d2ab67"
     stroke="#d2ab67"
     stroke-width="0.09375"
     opacity="1.00"
     d=" M 191.7 38.3 C 194.1 37.2 196.5 36.1 198.9 35.2 C 198.9 37.7 198.7 40.3 198.2 42.8 C 196.0 41.3 193.9 39.8 191.7 38.3 Z"
     id="path6901" />
  <path
     fill="#d2ab67"
     stroke="#d2ab67"
     stroke-width="0.09375"
     opacity="1.00"
     d=" M 331.5 38.4 C 333.9 37.2 336.2 36.2 338.6 35.1 C 338.7 37.7 338.5 40.2 338.1 42.7 C 335.8 41.3 333.7 39.9 331.5 38.4 Z"
     id="path6903" />
  <path
     fill="#d2ab67"
     stroke="#d2ab67"
     stroke-width="0.09375"
     opacity="1.00"
     d=" M 156.6 44.0 C 158.7 42.5 160.9 41.0 163.0 39.6 C 163.2 42.2 163.4 44.8 163.5 47.4 C 161.1 46.5 158.8 45.4 156.6 44.0 Z"
     id="path6905" />
  <path
     fill="#d2ab67"
     stroke="#d2ab67"
     stroke-width="0.09375"
     opacity="1.00"
     d=" M 164.5 39.4 C 166.8 40.5 169.2 41.6 171.5 42.8 C 169.6 44.5 167.5 45.9 165.3 47.2 C 165.0 44.6 164.7 42.0 164.5 39.4 Z"
     id="path6907" />
  <path
     fill="#d2ab67"
     stroke="#d2ab67"
     stroke-width="0.09375"
     opacity="1.00"
     d=" M 182.4 42.8 C 184.7 41.6 187.1 40.5 189.4 39.4 C 189.2 42.0 188.9 44.7 188.5 47.2 C 186.4 45.9 184.3 44.4 182.4 42.8 Z"
     id="path6909" />
  <path
     fill="#d2ab67"
     stroke="#d2ab67"
     stroke-width="0.09375"
     opacity="1.00"
     d=" M 190.9 39.5 C 193.1 41.0 195.2 42.5 197.3 44.1 C 195.1 45.4 192.8 46.4 190.4 47.3 C 190.5 44.7 190.7 42.1 190.9 39.5 Z"
     id="path6911" />
  <path
     fill="#d2ab67"
     stroke="#d2ab67"
     stroke-width="0.09375"
     opacity="1.00"
     d=" M 226.6 44.0 C 228.6 42.5 230.8 41.0 232.9 39.6 C 233.1 42.2 233.3 44.8 233.4 47.4 C 231.0 46.5 228.7 45.4 226.6 44.0 Z"
     id="path6913" />
  <path
     fill="#d2ab67"
     stroke="#d2ab67"
     stroke-width="0.09375"
     opacity="1.00"
     d=" M 234.4 39.5 C 236.8 40.5 239.1 41.6 241.4 42.8 C 239.5 44.5 237.4 45.9 235.3 47.2 C 234.9 44.6 234.6 42.1 234.4 39.5 Z"
     id="path6915" />
  <path
     fill="#d2ab67"
     stroke="#d2ab67"
     stroke-width="0.09375"
     opacity="1.00"
     d=" M 252.3 42.8 C 254.6 41.6 256.9 40.5 259.3 39.4 C 259.1 42.0 258.8 44.6 258.6 47.2 C 256.3 46.0 254.2 44.5 252.3 42.8 Z"
     id="path6917" />
  <path
     fill="#d2ab67"
     stroke="#d2ab67"
     stroke-width="0.09375"
     opacity="1.00"
     d=" M 260.8 39.5 C 262.9 41.0 265.0 42.5 267.1 44.0 C 265.0 45.4 262.7 46.5 260.3 47.3 C 260.4 44.7 260.6 42.1 260.8 39.5 Z"
     id="path6919" />
  <path
     fill="#d2ab67"
     stroke="#d2ab67"
     stroke-width="0.09375"
     opacity="1.00"
     d=" M 297.2 44.6 C 297.5 41.9 301.0 41.2 302.8 39.6 C 303.0 42.2 303.2 44.7 303.4 47.3 C 301.3 46.6 299.1 45.9 297.2 44.6 Z"
     id="path6921" />
  <path
     fill="#d2ab67"
     stroke="#d2ab67"
     stroke-width="0.09375"
     opacity="1.00"
     d=" M 304.3 39.4 C 306.6 40.5 309.0 41.6 311.3 42.8 C 309.4 44.4 307.3 45.9 305.1 47.1 C 304.8 44.6 304.5 42.0 304.3 39.4 Z"
     id="path6923" />
  <path
     fill="#d2ab67"
     stroke="#d2ab67"
     stroke-width="0.09375"
     opacity="1.00"
     d=" M 322.2 42.8 C 324.5 41.6 326.8 40.5 329.2 39.4 C 329.0 42.0 328.7 44.6 328.4 47.2 C 326.2 45.9 324.1 44.5 322.2 42.8 Z"
     id="path6925" />
  <path
     fill="#d2ab67"
     stroke="#d2ab67"
     stroke-width="0.09375"
     opacity="1.00"
     d=" M 330.6 39.5 C 332.8 41.0 334.9 42.5 337.0 44.0 C 334.9 45.4 332.6 46.5 330.2 47.3 C 330.3 44.7 330.5 42.1 330.6 39.5 Z"
     id="path6927" />
  <path
     fill="#0b4da2"
     stroke="#0b4da2"
     stroke-width="0.09375"
     opacity="1.00"
     d=" M 152.7 41.0 C 154.9 44.2 158.0 46.7 160.7 49.4 C 161.6 56.0 161.3 62.7 161.5 69.3 C 158.2 60.0 155.6 50.4 152.7 41.0 Z"
     id="path6929" />
  <path
     fill="#0b4da2"
     stroke="#0b4da2"
     stroke-width="0.09375"
     opacity="1.00"
     d=" M 237.1 48.6 C 240.0 46.5 242.3 43.9 244.3 41.0 C 243.4 49.8 242.8 58.6 241.7 67.4 C 239.9 61.2 238.5 54.9 237.1 48.6 Z"
     id="path6931" />
  <path
     fill="#0b4da2"
     stroke="#0b4da2"
     stroke-width="0.09375"
     opacity="1.00"
     d=" M 307.0 48.7 C 309.8 46.6 312.3 44.0 314.2 41.0 C 313.3 49.8 312.6 58.6 311.6 67.4 C 309.8 61.2 308.4 54.9 307.0 48.7 Z"
     id="path6933" />
  <path
     fill="#0b4da2"
     stroke="#0b4da2"
     stroke-width="0.09375"
     opacity="1.00"
     d=" M 167.1 48.6 C 169.8 46.6 172.2 44.2 174.3 41.6 C 173.6 50.2 172.8 58.8 171.8 67.4 C 170.0 61.2 168.6 54.9 167.1 48.6 Z"
     id="path6935" />
  <path
     fill="#d2ab67"
     stroke="#d2ab67"
     stroke-width="0.09375"
     opacity="1.00"
     d=" M 270.8 56.9 C 271.7 52.5 272.4 48.2 273.6 43.9 C 271.8 64.2 269.8 84.6 267.9 105.0 C 268.0 109.6 262.6 111.0 259.7 113.5 C 263.2 94.6 267.2 75.8 270.8 56.9 Z"
     id="path6937" />
  <path
     fill="#0b4da2"
     stroke="#0b4da2"
     stroke-width="0.09375"
     opacity="1.00"
     d=" M 332.5 49.4 C 334.4 47.2 337.0 45.9 339.3 44.1 C 337.0 51.9 334.8 59.8 332.1 67.5 C 332.0 61.5 331.9 55.4 332.5 49.4 Z"
     id="path6939" />
  <path
     fill="#0b4da1"
     stroke="#0b4da1"
     stroke-width="0.09375"
     opacity="1.00"
     d=" M 192.6 48.6 C 194.9 47.4 197.1 46.1 199.3 44.8 C 197.0 52.7 194.7 60.5 192.2 68.3 C 192.1 61.7 192.5 55.2 192.6 48.6 Z"
     id="path6941" />
  <path
     fill="#0b4da2"
     stroke="#0b4da2"
     stroke-width="0.09375"
     opacity="1.00"
     d=" M 262.5 48.8 C 264.8 47.4 267.0 46.0 269.3 44.6 C 267.0 52.3 264.9 60.0 262.1 67.5 C 262.0 61.3 262.3 55.0 262.5 48.8 Z"
     id="path6943" />
  <path
     fill="#d2ab67"
     stroke="#d2ab67"
     stroke-width="0.09375"
     opacity="1.00"
     d=" M 171.2 93.0 C 172.8 77.2 174.4 61.5 175.6 45.7 C 176.2 53.1 176.0 60.6 176.0 68.0 C 175.9 83.0 176.1 98.0 175.9 113.0 C 174.3 109.6 172.7 106.1 171.4 102.6 C 170.2 99.5 171.0 96.1 171.2 93.0 Z"
     id="path6945" />
  <path
     fill="#d2ab67"
     stroke="#d2ab67"
     stroke-width="0.09375"
     opacity="1.00"
     d=" M 177.5 45.7 C 179.7 62.1 180.8 78.7 182.6 95.2 C 183.6 101.4 179.9 107.0 177.6 112.4 C 177.5 90.2 177.5 67.9 177.5 45.7 Z"
     id="path6947" />
  <path
     fill="#d2ab67"
     stroke="#d2ab67"
     stroke-width="0.09375"
     opacity="1.00"
     d=" M 240.6 99.1 C 242.2 81.2 244.1 63.4 245.6 45.6 C 246.2 51.7 246.0 57.9 246.0 64.0 C 246.0 80.5 246.1 97.0 246.0 113.4 C 244.0 108.7 241.1 104.2 240.6 99.1 Z"
     id="path6949" />
  <path
     fill="#d2ab67"
     stroke="#d2ab67"
     stroke-width="0.09375"
     opacity="1.00"
     d=" M 317.3 45.5 C 319.4 60.9 320.4 76.5 322.0 92.0 C 322.2 95.0 323.0 98.1 322.1 101.1 C 320.9 105.0 319.0 108.8 317.3 112.5 C 317.2 90.2 317.2 67.8 317.3 45.5 Z"
     id="path6951" />
  <path
     fill="#d2ab67"
     stroke="#d2ab67"
     stroke-width="0.09375"
     opacity="1.00"
     d=" M 152.0 46.4 C 158.1 64.2 163.0 82.4 168.8 100.4 C 170.8 104.9 166.7 109.0 165.1 113.0 C 161.5 96.6 158.6 80.1 155.2 63.8 C 154.1 58.0 152.6 52.2 152.0 46.4 Z"
     id="path6953" />
  <path
     fill="#d2ab67"
     stroke="#d2ab67"
     stroke-width="0.09375"
     opacity="1.00"
     d=" M 197.5 57.6 C 198.6 53.8 199.6 50.1 201.2 46.5 C 199.5 58.2 196.6 69.8 194.5 81.4 C 192.4 92.0 190.5 102.5 188.1 113.0 C 186.6 109.0 182.5 105.0 184.4 100.5 C 188.8 86.2 193.1 71.9 197.5 57.6 Z"
     id="path6955" />
  <path
     fill="#d2ab67"
     stroke="#d2ab67"
     stroke-width="0.09375"
     opacity="1.00"
     d=" M 221.9 46.4 C 223.8 50.7 224.9 55.3 226.3 59.8 C 230.6 74.2 235.2 88.6 239.4 103.1 C 238.6 106.6 236.5 109.7 235.0 113.0 C 231.1 94.7 227.7 76.3 223.9 58.0 C 223.2 54.2 222.2 50.3 221.9 46.4 Z"
     id="path6957" />
  <path
     fill="#d2ab67"
     stroke="#d2ab67"
     stroke-width="0.09375"
     opacity="1.00"
     d=" M 247.5 46.6 C 249.7 62.8 250.7 79.1 252.5 95.4 C 253.4 101.5 249.7 106.9 247.5 112.3 C 247.5 90.4 247.5 68.5 247.5 46.6 Z"
     id="path6959" />
  <path
     fill="#d2ab67"
     stroke="#d2ab67"
     stroke-width="0.09375"
     opacity="1.00"
     d=" M 266.7 59.8 C 268.2 55.3 269.2 50.7 271.1 46.4 C 270.5 52.3 269.0 58.0 267.9 63.8 C 264.5 80.2 261.5 96.7 258.0 113.1 C 256.5 109.8 254.4 106.6 253.6 103.1 C 257.8 88.6 262.4 74.2 266.7 59.8 Z"
     id="path6961" />
  <path
     fill="#d2ab67"
     stroke="#d2ab67"
     stroke-width="0.09375"
     opacity="1.00"
     d=" M 324.2 100.4 C 329.9 82.4 334.9 64.2 341.0 46.4 C 339.5 57.3 336.8 68.0 334.8 78.8 C 332.4 90.2 330.5 101.6 327.9 113.0 C 326.3 109.0 322.2 104.9 324.2 100.4 Z"
     id="path6963" />
  <path
     fill="#d2ab67"
     stroke="#d2ab67"
     stroke-width="0.09375"
     opacity="1.00"
     d=" M 340.7 56.7 C 341.4 53.3 342.0 49.8 343.0 46.4 C 342.4 61.0 340.4 75.4 339.2 90.0 C 338.6 95.8 338.4 101.7 337.5 107.5 C 335.2 110.0 332.2 111.6 329.5 113.6 C 333.1 94.6 337.1 75.7 340.7 56.7 Z"
     id="path6965" />
  <path
     fill="#d2ab67"
     stroke="#d2ab67"
     stroke-width="0.09375"
     opacity="1.00"
     d=" M 150.1 47.1 C 150.9 49.7 151.5 52.4 152.0 55.0 C 155.7 74.6 159.8 94.0 163.5 113.6 C 160.8 111.6 157.8 110.0 155.5 107.5 C 153.9 93.6 152.9 79.7 151.5 65.7 C 151.0 59.5 150.0 53.4 150.1 47.1 Z"
     id="path6967" />
  <path
     fill="#d2ab67"
     stroke="#d2ab67"
     stroke-width="0.09375"
     opacity="1.00"
     d=" M 188.4 48.5 C 189.0 48.5 190.2 48.5 190.8 48.5 C 190.5 57.3 190.5 66.1 189.9 74.9 C 188.6 81.4 186.3 87.6 184.3 93.9 C 183.8 85.2 181.0 76.3 183.7 67.7 C 185.3 61.3 186.8 54.9 188.4 48.5 Z"
     id="path6969" />
  <path
     fill="#d2ab67"
     stroke="#d2ab67"
     stroke-width="0.09375"
     opacity="1.00"
     d=" M 220.0 47.3 C 221.0 50.4 221.6 53.7 222.2 56.8 C 225.8 75.8 229.9 94.6 233.3 113.6 C 230.6 111.7 228.0 109.8 225.3 107.8 C 223.6 89.8 222.0 71.8 220.3 53.8 C 220.1 51.6 220.0 49.5 220.0 47.3 Z"
     id="path6971" />
  <path
     fill="#d2ab67"
     stroke="#d2ab67"
     stroke-width="0.09375"
     opacity="1.00"
     d=" M 292.0 47.2 C 292.7 48.8 293.3 50.5 293.9 52.2 C 298.7 68.3 303.7 84.4 308.6 100.5 C 310.5 105.0 306.4 109.0 304.9 113.0 C 301.3 97.0 298.5 80.8 295.2 64.8 C 294.1 58.9 292.5 53.1 292.0 47.2 Z"
     id="path6973" />
  <path
     fill="#d2ab67"
     stroke="#d2ab67"
     stroke-width="0.09375"
     opacity="1.00"
     d=" M 315.6 47.5 C 315.9 69.2 315.7 91.1 315.7 112.9 C 313.4 107.5 309.7 102.1 310.7 96.1 C 312.5 79.9 313.7 63.6 315.6 47.5 Z"
     id="path6975" />
  <path
     fill="#d2ab67"
     stroke="#d2ab67"
     stroke-width="0.09375"
     opacity="1.00"
     d=" M 162.9 47.8 C 166.3 49.1 166.2 53.0 167.1 56.0 C 168.3 62.0 170.2 67.9 171.1 74.0 C 170.8 81.0 170.0 87.8 169.2 94.7 C 167.1 88.7 165.1 82.7 163.7 76.6 C 163.2 67.0 163.0 57.4 162.9 47.8 Z"
     id="path6977" />
  <path
     fill="#d2ab67"
     stroke="#d2ab67"
     stroke-width="0.09375"
     opacity="1.00"
     d=" M 200.2 60.4 C 201.1 56.3 201.6 52.1 203.0 48.1 C 203.2 52.4 202.5 56.7 202.2 61.0 C 200.7 76.6 199.2 92.2 197.8 107.8 C 195.1 109.7 192.5 111.7 189.7 113.5 C 193.1 95.8 196.7 78.1 200.2 60.4 Z"
     id="path6979" />
  <path
     fill="#d2ab67"
     stroke="#d2ab67"
     stroke-width="0.09375"
     opacity="1.00"
     d=" M 232.9 47.8 C 236.6 49.7 236.2 54.3 237.3 57.7 C 238.7 64.8 241.8 71.7 240.7 78.9 C 240.2 84.0 239.9 89.1 239.0 94.1 C 236.3 86.3 233.0 78.4 233.3 70.0 C 233.2 62.6 232.6 55.2 232.9 47.8 Z"
     id="path6981" />
  <path
     fill="#d2ab67"
     stroke="#d2ab67"
     stroke-width="0.09375"
     opacity="1.00"
     d=" M 257.5 51.6 C 257.6 49.8 259.1 48.7 260.4 47.5 C 260.8 56.6 260.2 65.8 259.9 74.9 C 258.5 81.4 256.3 87.6 254.2 93.9 C 253.5 87.0 252.4 80.2 252.4 73.3 C 253.9 66.0 255.9 58.9 257.5 51.6 Z"
     id="path6983" />
  <path
     fill="#d2ab67"
     stroke="#d2ab67"
     stroke-width="0.09375"
     opacity="1.00"
     d=" M 290.0 48.1 C 291.0 51.0 291.5 53.9 292.1 56.9 C 295.7 75.8 299.7 94.6 303.3 113.5 C 300.5 111.7 297.9 109.7 295.2 107.8 C 293.5 89.8 291.9 71.9 290.2 53.9 C 290.0 52.0 289.9 50.0 290.0 48.1 Z"
     id="path6985" />
  <path
     fill="#d2ab67"
     stroke="#d2ab67"
     stroke-width="0.09375"
     opacity="1.00"
     d=" M 302.8 47.7 C 306.1 49.6 306.2 53.7 307.1 57.0 C 308.3 62.7 310.1 68.3 310.9 74.1 C 310.6 81.2 309.7 88.2 308.9 95.2 C 307.2 88.7 304.6 82.5 303.4 75.9 C 303.1 66.5 302.6 57.1 302.8 47.7 Z"
     id="path6987" />
  <path
     fill="#d2ab67"
     stroke="#d2ab67"
     stroke-width="0.09375"
     opacity="1.00"
     d=" M 328.0 49.8 C 328.6 49.3 329.7 48.2 330.2 47.7 C 330.8 53.1 330.2 58.5 330.2 64.0 C 329.9 68.9 330.5 74.1 328.9 78.9 C 327.3 84.0 325.7 89.1 324.1 94.2 C 323.4 88.3 322.9 82.4 322.3 76.5 C 321.9 72.4 323.5 68.4 324.3 64.4 C 325.6 59.5 326.4 54.6 328.0 49.8 Z"
     id="path6989" />
  <path
     fill="#d1ab67"
     stroke="#d1ab67"
     stroke-width="0.09375"
     opacity="1.00"
     d=" M 165.3 116.1 C 166.9 112.6 168.5 109.1 170.3 105.7 C 171.8 108.9 173.3 112.1 174.8 115.4 C 171.6 115.6 168.5 115.8 165.3 116.1 Z"
     id="path6991" />
  <path
     fill="#d2ab67"
     stroke="#d2ab67"
     stroke-width="0.09375"
     opacity="1.00"
     d=" M 240.2 105.7 C 241.7 108.9 243.2 112.1 244.7 115.4 C 241.6 115.5 238.4 115.8 235.3 116.1 C 236.8 112.6 238.5 109.1 240.2 105.7 Z"
     id="path6993" />
  <path
     fill="#d2ab67"
     stroke="#d2ab67"
     stroke-width="0.09375"
     opacity="1.00"
     d=" M 252.8 105.7 C 254.5 109.1 256.2 112.6 257.7 116.1 C 254.6 115.8 251.5 115.6 248.3 115.3 C 249.8 112.1 251.3 108.9 252.8 105.7 Z"
     id="path6995" />
  <path
     fill="#d1ab67"
     stroke="#d1ab67"
     stroke-width="0.09375"
     opacity="1.00"
     d=" M 322.7 105.7 C 324.5 109.1 326.1 112.6 327.7 116.1 C 324.5 115.9 321.4 115.6 318.2 115.4 C 319.7 112.1 321.2 108.9 322.7 105.7 Z"
     id="path6997" />
  <path
     fill="#d2ab67"
     stroke="#d2ab67"
     stroke-width="0.09375"
     opacity="1.00"
     d=" M 178.5 115.4 C 179.9 112.1 181.4 108.9 182.9 105.7 C 184.6 109.2 186.3 112.7 187.9 116.2 C 184.8 115.8 181.6 115.6 178.5 115.4 Z"
     id="path6999" />
  <path
     fill="#d2ab67"
     stroke="#d2ab67"
     stroke-width="0.09375"
     opacity="1.00"
     d=" M 305.1 116.2 C 306.7 112.7 308.4 109.2 310.1 105.7 C 311.6 108.9 313.1 112.1 314.5 115.4 C 311.4 115.6 308.2 115.8 305.1 116.2 Z"
     id="path7001" />
  <path
     fill="#d2ab67"
     stroke="#d2ab67"
     stroke-width="0.09375"
     opacity="1.00"
     d=" M 155.7 109.7 C 158.6 111.8 161.5 114.0 164.3 116.2 C 161.6 117.0 158.9 117.9 156.3 119.0 C 156.1 115.9 155.8 112.8 155.7 109.7 Z"
     id="path7003" />
  <path
     fill="#d2ab67"
     stroke="#d2ab67"
     stroke-width="0.09375"
     opacity="1.00"
     d=" M 225.5 109.6 C 228.4 111.8 231.3 114.0 234.2 116.2 C 231.5 117.0 228.8 117.9 226.2 118.9 C 226.0 115.8 225.7 112.7 225.5 109.6 Z"
     id="path7005" />
  <path
     fill="#d2ab67"
     stroke="#d2ab67"
     stroke-width="0.09375"
     opacity="1.00"
     d=" M 258.8 116.2 C 261.7 114.0 264.6 111.8 267.5 109.7 C 267.3 112.7 267.0 115.7 266.9 118.7 C 264.2 117.8 261.5 117.0 258.8 116.2 Z"
     id="path7007" />
  <path
     fill="#d2ab67"
     stroke="#d2ab67"
     stroke-width="0.09375"
     opacity="1.00"
     d=" M 328.6 116.2 C 331.5 114.0 334.4 111.8 337.3 109.7 C 337.2 112.7 336.9 115.8 336.8 118.8 C 334.1 117.8 331.4 117.0 328.6 116.2 Z"
     id="path7009" />
  <path
     fill="#d2ab67"
     stroke="#d2ab67"
     stroke-width="0.09375"
     opacity="1.00"
     d=" M 189.0 116.1 C 191.8 114.0 194.6 111.8 197.5 109.8 C 197.4 112.8 197.1 115.8 197.0 118.8 C 194.3 117.8 191.6 117.0 189.0 116.1 Z"
     id="path7011" />
  <path
     fill="#d2ab67"
     stroke="#d2ab67"
     stroke-width="0.09375"
     opacity="1.00"
     d=" M 295.5 109.8 C 298.4 111.8 301.3 114.0 304.1 116.2 C 301.4 117.0 298.7 118.0 296.1 119.0 C 295.9 115.9 295.6 112.9 295.5 109.8 Z"
     id="path7013" />
  <path
     fill="#d2ab67"
     stroke="#d2ab67"
     stroke-width="0.09375"
     opacity="1.00"
     d=" M 156.8 120.8 C 163.0 117.7 170.1 117.2 177.0 117.2 C 183.8 117.2 190.8 117.8 196.9 121.0 C 196.9 122.6 197.0 124.1 197.1 125.7 C 190.8 122.9 183.8 122.3 177.0 122.2 C 170.1 122.2 163.2 123.0 156.7 125.5 C 156.8 123.9 156.8 122.4 156.8 120.8 Z"
     id="path7015" />
  <path
     fill="#d2ab67"
     stroke="#d2ab67"
     stroke-width="0.09375"
     opacity="1.00"
     d=" M 235.0 118.1 C 241.2 117.1 247.5 117.0 253.7 117.5 C 258.0 118.0 262.5 118.5 266.3 120.8 C 266.7 122.4 266.9 124.0 267.1 125.6 C 254.1 121.0 239.3 121.0 226.2 125.6 C 226.4 124.1 226.6 122.6 226.9 121.1 C 229.2 119.2 232.1 118.7 235.0 118.1 Z"
     id="path7017" />
  <path
     fill="#d2ab67"
     stroke="#d2ab67"
     stroke-width="0.09375"
     opacity="1.00"
     d=" M 296.6 120.8 C 304.5 117.0 313.4 117.0 322.0 117.4 C 326.8 117.8 331.9 118.3 336.2 120.8 C 336.7 122.4 336.9 124.1 337.2 125.7 C 324.2 121.0 309.4 121.0 296.4 125.5 C 296.5 124.0 296.5 122.4 296.6 120.8 Z"
     id="path7019" />
  <path
     fill="#d2ab67"
     stroke="#d2ab67"
     stroke-width="0.09375"
     opacity="1.00"
     d=" M 163.4 125.3 C 170.8 123.8 178.6 123.6 186.2 124.6 C 190.0 125.1 194.0 126.0 197.3 128.3 C 196.6 130.7 193.9 131.2 191.9 131.9 C 184.8 133.8 177.3 133.8 170.0 133.3 C 165.1 132.9 159.9 132.1 155.9 128.9 C 158.1 127.2 160.6 125.8 163.4 125.3 Z"
     id="path7021" />
  <path
     fill="#d2ab67"
     stroke="#d2ab67"
     stroke-width="0.09375"
     opacity="1.00"
     d=" M 234.1 125.1 C 242.6 123.6 251.3 123.6 259.8 125.3 C 262.6 125.8 265.2 127.1 267.6 128.7 C 263.6 132.5 257.8 132.9 252.5 133.4 C 243.5 133.6 233.4 134.4 225.7 128.9 C 228.2 127.0 231.0 125.6 234.1 125.1 Z"
     id="path7023" />
  <path
     fill="#d2ab67"
     stroke="#d2ab67"
     stroke-width="0.09375"
     opacity="1.00"
     d=" M 303.3 125.3 C 312.0 123.6 321.1 123.5 329.8 125.3 C 332.7 125.8 335.3 127.1 337.6 128.9 C 335.2 130.6 332.5 132.0 329.5 132.5 C 321.2 134.0 312.5 134.0 304.2 132.6 C 301.1 132.1 298.2 130.8 295.6 128.9 C 297.9 127.2 300.5 125.8 303.3 125.3 Z"
     id="path7025" />
  <path
     fill="#000000"
     stroke="#000000"
     stroke-width="0.09375"
     opacity="1.00"
     d=" M 160.0 147.0 C 167.7 140.0 180.2 139.2 188.8 145.2 C 195.4 149.4 198.9 157.0 199.3 164.7 C 206.7 160.9 215.4 160.9 222.7 164.5 C 223.2 158.2 225.6 151.7 230.4 147.4 C 238.2 140.0 251.0 139.1 259.8 145.2 C 266.3 149.4 269.8 157.0 270.3 164.5 C 277.6 160.9 286.3 161.0 293.7 164.7 C 294.2 158.2 296.4 151.7 301.4 147.4 C 308.8 140.3 320.9 139.2 329.6 144.5 C 336.8 148.5 340.7 156.5 341.2 164.5 C 348.5 161.2 357.3 160.6 364.3 164.8 C 372.3 169.0 376.7 178.1 376.5 187.0 C 369.7 187.0 363.0 187.0 356.2 187.0 C 353.5 196.2 347.9 204.5 339.8 209.8 C 335.7 212.8 330.8 214.5 325.9 215.9 C 331.3 320.6 336.4 425.3 341.8 530.0 C 325.6 530.0 309.3 530.0 293.1 530.0 C 295.8 475.4 298.6 420.8 301.3 366.2 C 303.7 316.1 306.6 266.0 308.7 215.8 C 297.4 213.3 287.8 205.7 282.0 195.7 C 278.8 200.5 275.3 205.2 270.6 208.6 C 266.0 212.2 260.5 214.4 255.0 216.0 C 260.4 320.6 265.6 425.3 270.8 530.0 C 254.6 530.0 238.4 530.0 222.2 530.0 C 227.4 425.3 232.6 320.6 238.0 216.0 C 232.5 214.4 227.0 212.2 222.4 208.6 C 217.7 205.2 214.2 200.5 211.0 195.7 C 205.2 205.7 195.6 213.3 184.3 215.8 C 189.2 320.6 194.7 425.3 199.9 530.0 C 183.7 530.0 167.4 530.1 151.2 530.0 C 156.6 425.3 161.7 320.6 167.1 215.9 C 158.0 213.7 149.6 208.6 143.9 201.1 C 140.6 197.0 138.5 192.0 136.8 187.0 C 130.0 187.0 123.3 187.0 116.5 187.0 C 116.3 178.1 120.7 169.0 128.7 164.8 C 135.7 160.6 144.5 161.2 151.8 164.5 C 152.4 158.0 154.8 151.3 160.0 147.0 M 166.6 146.2 C 169.0 150.5 171.4 154.8 174.0 159.0 C 174.0 154.1 174.1 149.2 173.9 144.2 C 171.4 144.7 169.0 145.4 166.6 146.2 M 177.1 144.3 C 176.9 149.3 177.0 154.3 177.0 159.3 C 179.6 155.0 182.1 150.6 184.6 146.1 C 182.1 145.4 179.6 144.8 177.1 144.3 M 237.5 146.1 C 239.9 150.6 242.5 154.9 245.0 159.3 C 245.0 154.3 245.1 149.3 244.9 144.3 C 242.4 144.8 240.0 145.4 237.5 146.1 M 248.1 144.3 C 247.9 149.3 248.0 154.3 248.0 159.3 C 250.5 154.9 253.1 150.6 255.5 146.1 C 253.0 145.4 250.6 144.8 248.1 144.3 M 308.4 146.1 C 310.8 150.6 313.4 154.9 316.0 159.3 C 316.0 154.3 316.1 149.3 315.9 144.2 C 313.4 144.7 310.9 145.4 308.4 146.1 M 319.1 144.2 C 318.9 149.2 319.0 154.1 319.0 159.0 C 321.6 154.8 324.0 150.5 326.4 146.2 C 324.0 145.4 321.6 144.7 319.1 144.2 M 158.4 153.2 C 162.8 155.8 167.1 158.3 171.5 160.7 C 169.2 156.2 166.6 152.0 164.0 147.7 C 162.0 149.4 160.1 151.2 158.4 153.2 M 187.1 147.7 C 184.6 152.0 182.0 156.3 179.7 160.7 C 184.1 158.3 188.4 155.8 192.7 153.2 C 190.9 151.2 189.1 149.4 187.1 147.7 M 229.4 153.2 C 233.7 155.8 238.0 158.3 242.4 160.7 C 240.1 156.2 237.5 151.9 235.0 147.6 C 233.0 149.4 231.1 151.2 229.4 153.2 M 250.6 160.7 C 255.0 158.3 259.3 155.8 263.6 153.2 C 261.9 151.2 260.0 149.4 258.0 147.6 C 255.5 151.9 252.9 156.2 250.6 160.7 M 300.3 153.2 C 304.6 155.8 308.9 158.3 313.3 160.7 C 311.0 156.2 308.4 152.0 305.9 147.6 C 303.9 149.4 302.0 151.2 300.3 153.2 M 321.5 160.7 C 325.9 158.2 330.3 156.0 334.4 153.2 C 332.9 151.1 330.9 149.3 329.0 147.7 C 326.4 151.9 323.9 156.2 321.5 160.7 M 157.0 155.7 C 156.2 158.2 155.5 160.7 155.0 163.2 C 159.9 163.3 164.9 163.3 169.8 163.2 C 165.6 160.6 161.3 158.2 157.0 155.7 M 181.6 163.1 C 186.4 163.3 191.3 163.2 196.2 163.2 C 195.6 160.7 194.9 158.2 194.1 155.8 C 189.9 158.2 185.6 160.5 181.6 163.1 M 227.9 155.7 C 227.1 158.2 226.5 160.7 226.0 163.2 C 230.9 163.3 235.7 163.3 240.6 163.2 C 236.5 160.5 232.2 158.2 227.9 155.7 M 252.4 163.2 C 257.3 163.3 262.1 163.3 267.0 163.2 C 266.5 160.7 265.9 158.2 265.0 155.7 C 260.8 158.2 256.5 160.5 252.4 163.2 M 298.9 155.8 C 298.1 158.2 297.4 160.7 296.8 163.2 C 301.7 163.2 306.6 163.3 311.4 163.1 C 307.4 160.5 303.1 158.2 298.9 155.8 M 323.2 163.2 C 328.1 163.3 333.1 163.3 338.0 163.2 C 337.5 160.7 336.8 158.2 336.0 155.7 C 331.7 158.2 327.4 160.6 323.2 163.2 M 131.3 166.8 C 133.7 171.1 136.1 175.4 138.7 179.7 C 138.8 174.7 138.8 169.8 138.7 164.8 C 136.2 165.3 133.7 166.0 131.3 166.8 M 141.8 164.8 C 141.7 169.7 141.7 174.6 141.9 179.4 C 144.6 175.4 146.9 171.0 149.3 166.8 C 146.8 166.0 144.3 165.3 141.8 164.8 M 202.2 166.8 C 204.6 171.1 207.0 175.5 209.7 179.7 C 209.8 174.8 209.7 169.8 209.7 164.8 C 207.2 165.3 204.6 166.0 202.2 166.8 M 212.8 164.8 C 212.7 169.6 212.7 174.5 212.9 179.4 C 215.5 175.3 217.8 171.0 220.2 166.9 C 217.8 166.1 215.3 165.4 212.8 164.8 M 272.8 166.9 C 275.3 171.0 277.5 175.3 280.1 179.4 C 280.3 174.5 280.3 169.6 280.2 164.8 C 277.7 165.4 275.2 166.0 272.8 166.9 M 283.3 164.8 C 283.2 169.8 283.2 174.8 283.3 179.8 C 285.9 175.6 288.3 171.2 290.9 166.9 C 288.4 166.0 285.8 165.3 283.3 164.8 M 343.7 166.8 C 346.1 171.0 348.4 175.4 351.1 179.4 C 351.3 174.6 351.2 169.7 351.2 164.8 C 348.7 165.3 346.2 166.0 343.7 166.8 M 354.3 164.8 C 354.2 169.7 354.2 174.7 354.3 179.6 C 356.9 175.4 359.3 171.1 361.7 166.8 C 359.3 166.0 356.8 165.3 354.3 164.8 M 181.8 166.5 C 182.1 177.3 182.7 188.2 183.3 199.0 C 190.9 197.0 197.9 192.9 203.2 187.1 C 197.9 186.9 192.6 187.0 187.4 187.0 C 187.3 179.1 190.7 171.5 196.7 166.3 C 191.7 166.6 186.7 166.5 181.8 166.5 M 296.3 166.4 C 299.0 169.1 301.8 172.0 303.3 175.7 C 305.0 179.2 305.3 183.1 305.6 187.0 C 300.4 187.0 295.1 186.9 289.8 187.1 C 295.1 192.9 302.0 197.0 309.7 199.0 C 310.3 188.2 310.9 177.3 311.2 166.5 C 306.2 166.5 301.3 166.6 296.3 166.4 M 155.5 166.6 C 158.0 169.7 160.8 172.9 162.2 176.7 C 163.5 180.0 163.7 183.5 164.0 186.9 C 158.6 187.0 153.2 187.0 147.8 187.1 C 153.2 192.9 160.2 197.0 167.9 199.0 C 168.4 188.2 169.0 177.4 169.5 166.5 C 164.8 166.5 160.1 166.5 155.5 166.6 M 172.2 175.9 C 166.4 292.4 160.4 409.0 154.7 525.5 C 161.2 521.3 167.6 517.0 174.0 512.6 C 174.0 398.7 174.0 284.8 174.0 171.0 C 174.0 169.4 173.8 167.8 173.5 166.2 C 172.1 169.2 172.5 172.7 172.2 175.9 M 177.6 166.2 C 177.2 168.1 177.0 170.1 177.0 172.0 C 177.1 285.5 176.9 399.1 177.0 512.6 C 183.6 516.8 189.9 521.3 196.5 525.5 C 190.5 407.0 184.6 288.5 178.6 170.0 C 178.5 168.7 178.0 167.4 177.6 166.2 M 226.4 166.6 C 228.8 169.6 231.4 172.5 232.9 176.1 C 234.4 179.5 234.7 183.2 235.0 186.9 C 229.6 187.1 224.2 187.0 218.8 187.1 C 224.2 192.9 231.1 197.0 238.8 199.0 C 239.4 188.2 239.9 177.3 240.4 166.5 C 235.7 166.5 231.0 166.5 226.4 166.6 M 243.1 176.0 C 237.3 292.5 231.4 409.0 225.5 525.5 C 232.0 521.2 238.5 516.9 245.0 512.6 C 245.0 398.7 245.0 284.9 245.0 171.0 C 245.0 169.4 244.8 167.8 244.4 166.2 C 243.1 169.2 243.4 172.7 243.1 176.0 M 248.6 166.2 C 248.2 167.8 248.0 169.4 248.0 171.0 C 248.0 284.9 248.0 398.7 248.0 512.6 C 254.5 516.9 260.9 521.2 267.5 525.5 C 261.5 407.3 255.5 289.1 249.6 170.9 C 249.6 169.3 249.2 167.7 248.6 166.2 M 252.6 166.5 C 253.1 177.3 253.6 188.2 254.2 199.0 C 261.9 197.0 268.8 192.9 274.2 187.1 C 268.8 187.0 263.4 187.1 258.0 186.9 C 258.3 183.2 258.6 179.5 260.1 176.1 C 261.6 172.5 264.2 169.6 266.6 166.6 C 262.0 166.5 257.3 166.5 252.6 166.5 M 314.0 177.0 C 308.2 293.2 302.3 409.4 296.5 525.5 C 303.1 521.3 309.4 516.8 316.0 512.6 C 316.1 398.7 316.0 284.9 316.0 171.0 C 316.0 169.4 315.8 167.8 315.4 166.2 C 313.9 169.6 314.3 173.4 314.0 177.0 M 319.5 166.2 C 318.8 169.7 319.0 173.4 319.0 177.0 C 319.0 288.9 319.0 400.8 319.0 512.6 C 325.4 517.0 331.8 521.3 338.3 525.5 C 332.5 407.3 326.4 289.2 320.6 171.0 C 320.6 169.3 320.1 167.7 319.5 166.2 M 323.5 166.5 C 324.0 177.4 324.6 188.2 325.1 199.0 C 332.8 197.0 339.8 192.9 345.2 187.1 C 339.8 187.0 334.4 187.1 329.0 186.9 C 329.3 183.5 329.5 180.0 330.8 176.7 C 332.2 172.9 335.0 169.7 337.5 166.6 C 332.9 166.5 328.2 166.5 323.5 166.5 M 123.2 173.9 C 127.5 176.4 131.8 179.0 136.2 181.4 C 133.8 176.9 131.3 172.6 128.7 168.3 C 126.7 170.0 124.8 171.9 123.2 173.9 M 144.3 181.3 C 148.8 179.0 153.0 176.4 157.4 173.9 C 155.7 171.9 153.8 170.0 151.8 168.3 C 149.2 172.6 146.7 176.9 144.3 181.3 M 194.1 173.9 C 198.4 176.4 202.8 179.0 207.2 181.4 C 204.8 176.9 202.2 172.6 199.6 168.3 C 197.6 170.0 195.8 171.9 194.1 173.9 M 215.3 181.3 C 219.7 179.0 224.0 176.4 228.3 173.8 C 226.5 171.9 224.7 170.1 222.7 168.3 C 220.2 172.6 217.6 176.9 215.3 181.3 M 264.7 173.8 C 269.0 176.4 273.3 179.0 277.7 181.3 C 275.4 176.9 272.8 172.6 270.3 168.3 C 268.3 170.0 266.4 171.9 264.7 173.8 M 293.3 168.3 C 290.8 172.6 288.2 176.9 285.8 181.4 C 290.2 179.0 294.6 176.4 298.9 173.9 C 297.2 171.9 295.3 170.0 293.3 168.3 M 335.6 173.8 C 339.9 176.4 344.2 179.0 348.7 181.3 C 346.3 176.9 343.8 172.6 341.2 168.3 C 339.2 170.0 337.3 171.8 335.6 173.8 M 356.8 181.4 C 361.2 179.0 365.5 176.4 369.8 173.9 C 368.1 171.9 366.3 170.0 364.3 168.3 C 361.7 172.6 359.2 176.9 356.8 181.4 M 119.8 184.0 C 124.8 184.0 129.8 184.0 134.8 183.9 C 130.5 181.3 126.1 178.9 121.7 176.4 C 120.9 178.8 120.2 181.4 119.8 184.0 M 145.9 183.9 C 150.8 184.0 155.8 184.1 160.8 183.9 C 160.3 181.4 159.7 178.9 158.9 176.4 C 154.5 178.8 150.1 181.3 145.9 183.9 M 190.6 184.0 C 195.6 184.0 200.7 184.0 205.7 183.9 C 201.4 181.3 197.0 178.8 192.6 176.4 C 191.8 178.9 191.2 181.4 190.6 184.0 M 216.6 184.0 C 221.7 184.0 226.7 184.1 231.7 183.9 C 231.2 181.4 230.5 178.9 229.8 176.4 C 225.4 178.8 221.0 181.4 216.6 184.0 M 263.2 176.4 C 262.4 178.9 261.8 181.4 261.3 183.9 C 266.3 184.1 271.3 184.0 276.4 184.0 C 272.0 181.4 267.6 178.8 263.2 176.4 M 287.3 183.9 C 292.3 184.0 297.3 184.0 302.3 184.0 C 301.8 181.4 301.2 178.9 300.3 176.4 C 296.0 178.9 291.6 181.3 287.3 183.9 M 334.1 176.4 C 333.3 178.9 332.7 181.4 332.2 183.9 C 337.2 184.1 342.2 184.0 347.1 183.9 C 342.9 181.2 338.5 178.8 334.1 176.4 M 358.2 183.9 C 363.2 184.0 368.2 184.0 373.2 184.0 C 372.8 181.4 372.1 178.9 371.3 176.4 C 366.9 178.8 362.5 181.4 358.2 183.9 M 140.1 187.1 C 143.9 199.6 154.4 209.6 167.2 212.6 C 167.4 209.1 167.5 205.6 167.8 202.1 C 158.4 200.0 149.7 194.7 143.8 187.0 C 142.9 187.0 141.0 187.1 140.1 187.1 M 207.8 186.6 C 201.6 194.3 193.1 200.1 183.4 202.1 C 183.6 205.6 183.8 209.1 184.0 212.6 C 195.0 209.9 204.6 202.2 209.2 191.8 C 208.9 190.1 208.3 188.4 207.8 186.6 M 211.1 187.1 C 214.8 199.6 225.4 209.7 238.2 212.6 C 238.3 209.1 238.5 205.6 238.6 202.1 C 229.2 200.1 220.6 194.6 214.7 187.0 C 213.5 187.0 212.3 187.0 211.1 187.1 M 278.3 187.0 C 272.4 194.6 263.8 200.1 254.4 202.1 C 254.5 205.6 254.7 209.1 254.8 212.6 C 267.6 209.7 278.2 199.6 281.9 187.1 C 280.7 187.0 279.5 187.0 278.3 187.0 M 284.5 193.3 C 289.3 202.9 298.5 210.1 309.0 212.6 C 309.2 209.1 309.4 205.6 309.6 202.1 C 299.9 200.1 291.4 194.3 285.2 186.6 C 284.8 188.8 283.0 191.2 284.5 193.3 M 349.2 187.0 C 343.3 194.7 334.6 200.0 325.2 202.1 C 325.5 205.6 325.6 209.1 325.8 212.6 C 338.6 209.6 349.1 199.6 352.9 187.1 C 352.0 187.1 350.1 187.0 349.2 187.0 M 157.8 527.0 C 169.7 527.0 181.5 527.1 193.4 526.9 C 187.5 522.9 181.7 518.9 175.7 515.1 C 169.5 518.6 163.8 523.0 157.8 527.0 M 228.6 527.0 C 240.5 527.0 252.5 527.0 264.4 527.0 C 258.5 523.0 252.7 519.0 246.7 515.2 C 240.4 518.6 234.7 523.1 228.6 527.0 M 317.3 515.1 C 311.3 518.9 305.4 522.9 299.6 527.0 C 311.5 527.0 323.3 527.0 335.2 527.0 C 329.2 523.0 323.5 518.6 317.3 515.1 Z"
     id="path7027" />
  <path
     fill="#d0d8de"
     stroke="#d0d8de"
     stroke-width="0.09375"
     opacity="1.00"
     d=" M 166.6 146.2 C 169.0 145.4 171.4 144.7 173.9 144.2 C 174.1 149.2 174.0 154.1 174.0 159.0 C 171.4 154.8 169.0 150.5 166.6 146.2 Z"
     id="path7029" />
  <path
     fill="#d0d8de"
     stroke="#d0d8de"
     stroke-width="0.09375"
     opacity="1.00"
     d=" M 177.1 144.3 C 179.6 144.8 182.1 145.4 184.6 146.1 C 182.1 150.6 179.6 155.0 177.0 159.3 C 177.0 154.3 176.9 149.3 177.1 144.3 Z"
     id="path7031" />
  <path
     fill="#d0d8de"
     stroke="#d0d8de"
     stroke-width="0.09375"
     opacity="1.00"
     d=" M 237.5 146.1 C 240.0 145.4 242.4 144.8 244.9 144.3 C 245.1 149.3 245.0 154.3 245.0 159.3 C 242.5 154.9 239.9 150.6 237.5 146.1 Z"
     id="path7033" />
  <path
     fill="#d0d8de"
     stroke="#d0d8de"
     stroke-width="0.09375"
     opacity="1.00"
     d=" M 248.1 144.3 C 250.6 144.8 253.0 145.4 255.5 146.1 C 253.1 150.6 250.5 154.9 248.0 159.3 C 248.0 154.3 247.9 149.3 248.1 144.3 Z"
     id="path7035" />
  <path
     fill="#d0d8de"
     stroke="#d0d8de"
     stroke-width="0.09375"
     opacity="1.00"
     d=" M 308.4 146.1 C 310.9 145.4 313.4 144.7 315.9 144.2 C 316.1 149.3 316.0 154.3 316.0 159.3 C 313.4 154.9 310.8 150.6 308.4 146.1 Z"
     id="path7037" />
  <path
     fill="#d0d8de"
     stroke="#d0d8de"
     stroke-width="0.09375"
     opacity="1.00"
     d=" M 319.1 144.2 C 321.6 144.7 324.0 145.4 326.4 146.2 C 324.0 150.5 321.6 154.8 319.0 159.0 C 319.0 154.1 318.9 149.2 319.1 144.2 Z"
     id="path7039" />
  <path
     fill="#d0d8de"
     stroke="#d0d8de"
     stroke-width="0.09375"
     opacity="1.00"
     d=" M 158.4 153.2 C 160.1 151.2 162.0 149.4 164.0 147.7 C 166.6 152.0 169.2 156.2 171.5 160.7 C 167.1 158.3 162.8 155.8 158.4 153.2 Z"
     id="path7041" />
  <path
     fill="#d0d8de"
     stroke="#d0d8de"
     stroke-width="0.09375"
     opacity="1.00"
     d=" M 187.1 147.7 C 189.1 149.4 190.9 151.2 192.7 153.2 C 188.4 155.8 184.1 158.3 179.7 160.7 C 182.0 156.3 184.6 152.0 187.1 147.7 Z"
     id="path7043" />
  <path
     fill="#cfd7dd"
     stroke="#cfd7dd"
     stroke-width="0.09375"
     opacity="1.00"
     d=" M 229.4 153.2 C 231.1 151.2 233.0 149.4 235.0 147.6 C 237.5 151.9 240.1 156.2 242.4 160.7 C 238.0 158.3 233.7 155.8 229.4 153.2 Z"
     id="path7045" />
  <path
     fill="#cfd7dd"
     stroke="#cfd7dd"
     stroke-width="0.09375"
     opacity="1.00"
     d=" M 250.6 160.7 C 252.9 156.2 255.5 151.9 258.0 147.6 C 260.0 149.4 261.9 151.2 263.6 153.2 C 259.3 155.8 255.0 158.3 250.6 160.7 Z"
     id="path7047" />
  <path
     fill="#d0d8de"
     stroke="#d0d8de"
     stroke-width="0.09375"
     opacity="1.00"
     d=" M 300.3 153.2 C 302.0 151.2 303.9 149.4 305.9 147.6 C 308.4 152.0 311.0 156.2 313.3 160.7 C 308.9 158.3 304.6 155.8 300.3 153.2 Z"
     id="path7049" />
  <path
     fill="#d0d8de"
     stroke="#d0d8de"
     stroke-width="0.09375"
     opacity="1.00"
     d=" M 321.5 160.7 C 323.9 156.2 326.4 151.9 329.0 147.7 C 330.9 149.3 332.9 151.1 334.4 153.2 C 330.3 156.0 325.9 158.2 321.5 160.7 Z"
     id="path7051" />
  <path
     fill="#d0d8de"
     stroke="#d0d8de"
     stroke-width="0.09375"
     opacity="1.00"
     d=" M 157.0 155.7 C 161.3 158.2 165.6 160.6 169.8 163.2 C 164.9 163.3 159.9 163.3 155.0 163.2 C 155.5 160.7 156.2 158.2 157.0 155.7 Z"
     id="path7053" />
  <path
     fill="#d0d8de"
     stroke="#d0d8de"
     stroke-width="0.09375"
     opacity="1.00"
     d=" M 181.6 163.1 C 185.6 160.5 189.9 158.2 194.1 155.8 C 194.9 158.2 195.6 160.7 196.2 163.2 C 191.3 163.2 186.4 163.3 181.6 163.1 Z"
     id="path7055" />
  <path
     fill="#d0d8de"
     stroke="#d0d8de"
     stroke-width="0.09375"
     opacity="1.00"
     d=" M 227.9 155.7 C 232.2 158.2 236.5 160.5 240.6 163.2 C 235.7 163.3 230.9 163.3 226.0 163.2 C 226.5 160.7 227.1 158.2 227.9 155.7 Z"
     id="path7057" />
  <path
     fill="#d0d8de"
     stroke="#d0d8de"
     stroke-width="0.09375"
     opacity="1.00"
     d=" M 252.4 163.2 C 256.5 160.5 260.8 158.2 265.0 155.7 C 265.9 158.2 266.5 160.7 267.0 163.2 C 262.1 163.3 257.3 163.3 252.4 163.2 Z"
     id="path7059" />
  <path
     fill="#d0d8de"
     stroke="#d0d8de"
     stroke-width="0.09375"
     opacity="1.00"
     d=" M 298.9 155.8 C 303.1 158.2 307.4 160.5 311.4 163.1 C 306.6 163.3 301.7 163.2 296.8 163.2 C 297.4 160.7 298.1 158.2 298.9 155.8 Z"
     id="path7061" />
  <path
     fill="#d0d8de"
     stroke="#d0d8de"
     stroke-width="0.09375"
     opacity="1.00"
     d=" M 323.2 163.2 C 327.4 160.6 331.7 158.2 336.0 155.7 C 336.8 158.2 337.5 160.7 338.0 163.2 C 333.1 163.3 328.1 163.3 323.2 163.2 Z"
     id="path7063" />
  <path
     fill="#d0d8de"
     stroke="#d0d8de"
     stroke-width="0.09375"
     opacity="1.00"
     d=" M 131.3 166.8 C 133.7 166.0 136.2 165.3 138.7 164.8 C 138.8 169.8 138.8 174.7 138.7 179.7 C 136.1 175.4 133.7 171.1 131.3 166.8 Z"
     id="path7065" />
  <path
     fill="#d0d8de"
     stroke="#d0d8de"
     stroke-width="0.09375"
     opacity="1.00"
     d=" M 141.8 164.8 C 144.3 165.3 146.8 166.0 149.3 166.8 C 146.9 171.0 144.6 175.4 141.9 179.4 C 141.7 174.6 141.7 169.7 141.8 164.8 Z"
     id="path7067" />
  <path
     fill="#d0d8de"
     stroke="#d0d8de"
     stroke-width="0.09375"
     opacity="1.00"
     d=" M 202.2 166.8 C 204.6 166.0 207.2 165.3 209.7 164.8 C 209.7 169.8 209.8 174.8 209.7 179.7 C 207.0 175.5 204.6 171.1 202.2 166.8 Z"
     id="path7069" />
  <path
     fill="#d0d8de"
     stroke="#d0d8de"
     stroke-width="0.09375"
     opacity="1.00"
     d=" M 212.8 164.8 C 215.3 165.4 217.8 166.1 220.2 166.9 C 217.8 171.0 215.5 175.3 212.9 179.4 C 212.7 174.5 212.7 169.6 212.8 164.8 Z"
     id="path7071" />
  <path
     fill="#d0d8de"
     stroke="#d0d8de"
     stroke-width="0.09375"
     opacity="1.00"
     d=" M 272.8 166.9 C 275.2 166.0 277.7 165.4 280.2 164.8 C 280.3 169.6 280.3 174.5 280.1 179.4 C 277.5 175.3 275.3 171.0 272.8 166.9 Z"
     id="path7073" />
  <path
     fill="#d0d8de"
     stroke="#d0d8de"
     stroke-width="0.09375"
     opacity="1.00"
     d=" M 283.3 164.8 C 285.8 165.3 288.4 166.0 290.9 166.9 C 288.3 171.2 285.9 175.6 283.3 179.8 C 283.2 174.8 283.2 169.8 283.3 164.8 Z"
     id="path7075" />
  <path
     fill="#d0d8de"
     stroke="#d0d8de"
     stroke-width="0.09375"
     opacity="1.00"
     d=" M 343.7 166.8 C 346.2 166.0 348.7 165.3 351.2 164.8 C 351.2 169.7 351.3 174.6 351.1 179.4 C 348.4 175.4 346.1 171.0 343.7 166.8 Z"
     id="path7077" />
  <path
     fill="#d0d8de"
     stroke="#d0d8de"
     stroke-width="0.09375"
     opacity="1.00"
     d=" M 354.3 164.8 C 356.8 165.3 359.3 166.0 361.7 166.8 C 359.3 171.1 356.9 175.4 354.3 179.6 C 354.2 174.7 354.2 169.7 354.3 164.8 Z"
     id="path7079" />
  <path
     fill="#0b4da2"
     stroke="#0b4da2"
     stroke-width="0.09375"
     opacity="1.00"
     d=" M 181.8 166.5 C 186.7 166.5 191.7 166.6 196.7 166.3 C 190.7 171.5 187.3 179.1 187.4 187.0 C 192.6 187.0 197.9 186.9 203.2 187.1 C 197.9 192.9 190.9 197.0 183.3 199.0 C 182.7 188.2 182.1 177.3 181.8 166.5 Z"
     id="path7081" />
  <path
     fill="#0b4da2"
     stroke="#0b4da2"
     stroke-width="0.09375"
     opacity="1.00"
     d=" M 296.3 166.4 C 301.3 166.6 306.2 166.5 311.2 166.5 C 310.9 177.3 310.3 188.2 309.7 199.0 C 302.0 197.0 295.1 192.9 289.8 187.1 C 295.1 186.9 300.4 187.0 305.6 187.0 C 305.3 183.1 305.0 179.2 303.3 175.7 C 301.8 172.0 299.0 169.1 296.3 166.4 Z"
     id="path7083" />
  <path
     fill="#0b4da2"
     stroke="#0b4da2"
     stroke-width="0.09375"
     opacity="1.00"
     d=" M 155.5 166.6 C 160.1 166.5 164.8 166.5 169.5 166.5 C 169.0 177.4 168.4 188.2 167.9 199.0 C 160.2 197.0 153.2 192.9 147.8 187.1 C 153.2 187.0 158.6 187.0 164.0 186.9 C 163.7 183.5 163.5 180.0 162.2 176.7 C 160.8 172.9 158.0 169.7 155.5 166.6 Z"
     id="path7085" />
  <path
     fill="#d0d8de"
     stroke="#d0d8de"
     stroke-width="0.09375"
     opacity="1.00"
     d=" M 172.2 175.9 C 172.5 172.7 172.1 169.2 173.5 166.2 C 173.8 167.8 174.0 169.4 174.0 171.0 C 174.0 284.8 174.0 398.7 174.0 512.6 C 167.6 517.0 161.2 521.3 154.7 525.5 C 160.4 409.0 166.4 292.4 172.2 175.9 Z"
     id="path7087" />
  <path
     fill="#d0d8de"
     stroke="#d0d8de"
     stroke-width="0.09375"
     opacity="1.00"
     d=" M 177.6 166.2 C 178.0 167.4 178.5 168.7 178.6 170.0 C 184.6 288.5 190.5 407.0 196.5 525.5 C 189.9 521.3 183.6 516.8 177.0 512.6 C 176.9 399.1 177.1 285.5 177.0 172.0 C 177.0 170.1 177.2 168.1 177.6 166.2 Z"
     id="path7089" />
  <path
     fill="#0b4da2"
     stroke="#0b4da2"
     stroke-width="0.09375"
     opacity="1.00"
     d=" M 226.4 166.6 C 231.0 166.5 235.7 166.5 240.4 166.5 C 239.9 177.3 239.4 188.2 238.8 199.0 C 231.1 197.0 224.2 192.9 218.8 187.1 C 224.2 187.0 229.6 187.1 235.0 186.9 C 234.7 183.2 234.4 179.5 232.9 176.1 C 231.4 172.5 228.8 169.6 226.4 166.6 Z"
     id="path7091" />
  <path
     fill="#d0d8de"
     stroke="#d0d8de"
     stroke-width="0.09375"
     opacity="1.00"
     d=" M 243.1 176.0 C 243.4 172.7 243.1 169.2 244.4 166.2 C 244.8 167.8 245.0 169.4 245.0 171.0 C 245.0 284.9 245.0 398.7 245.0 512.6 C 238.5 516.9 232.0 521.2 225.5 525.5 C 231.4 409.0 237.3 292.5 243.1 176.0 Z"
     id="path7093" />
  <path
     fill="#d0d8de"
     stroke="#d0d8de"
     stroke-width="0.09375"
     opacity="1.00"
     d=" M 248.6 166.2 C 249.2 167.7 249.6 169.3 249.6 170.9 C 255.5 289.1 261.5 407.3 267.5 525.5 C 260.9 521.2 254.5 516.9 248.0 512.6 C 248.0 398.7 248.0 284.9 248.0 171.0 C 248.0 169.4 248.2 167.8 248.6 166.2 Z"
     id="path7095" />
  <path
     fill="#0b4da2"
     stroke="#0b4da2"
     stroke-width="0.09375"
     opacity="1.00"
     d=" M 252.6 166.5 C 257.3 166.5 262.0 166.5 266.6 166.6 C 264.2 169.6 261.6 172.5 260.1 176.1 C 258.6 179.5 258.3 183.2 258.0 186.9 C 263.4 187.1 268.8 187.0 274.2 187.1 C 268.8 192.9 261.9 197.0 254.2 199.0 C 253.6 188.2 253.1 177.3 252.6 166.5 Z"
     id="path7097" />
  <path
     fill="#d0d8de"
     stroke="#d0d8de"
     stroke-width="0.09375"
     opacity="1.00"
     d=" M 314.0 177.0 C 314.3 173.4 313.9 169.6 315.4 166.2 C 315.8 167.8 316.0 169.4 316.0 171.0 C 316.0 284.9 316.1 398.7 316.0 512.6 C 309.4 516.8 303.1 521.3 296.5 525.5 C 302.3 409.4 308.2 293.2 314.0 177.0 Z"
     id="path7099" />
  <path
     fill="#d0d8de"
     stroke="#d0d8de"
     stroke-width="0.09375"
     opacity="1.00"
     d=" M 319.5 166.2 C 320.1 167.7 320.6 169.3 320.6 171.0 C 326.4 289.2 332.5 407.3 338.3 525.5 C 331.8 521.3 325.4 517.0 319.0 512.6 C 319.0 400.8 319.0 288.9 319.0 177.0 C 319.0 173.4 318.8 169.7 319.5 166.2 Z"
     id="path7101" />
  <path
     fill="#0b4da2"
     stroke="#0b4da2"
     stroke-width="0.09375"
     opacity="1.00"
     d=" M 323.5 166.5 C 328.2 166.5 332.9 166.5 337.5 166.6 C 335.0 169.7 332.2 172.9 330.8 176.7 C 329.5 180.0 329.3 183.5 329.0 186.9 C 334.4 187.1 339.8 187.0 345.2 187.1 C 339.8 192.9 332.8 197.0 325.1 199.0 C 324.6 188.2 324.0 177.4 323.5 166.5 Z"
     id="path7103" />
  <path
     fill="#d0d8de"
     stroke="#d0d8de"
     stroke-width="0.09375"
     opacity="1.00"
     d=" M 123.2 173.9 C 124.8 171.9 126.7 170.0 128.7 168.3 C 131.3 172.6 133.8 176.9 136.2 181.4 C 131.8 179.0 127.5 176.4 123.2 173.9 Z"
     id="path7105" />
  <path
     fill="#d0d8de"
     stroke="#d0d8de"
     stroke-width="0.09375"
     opacity="1.00"
     d=" M 144.3 181.3 C 146.7 176.9 149.2 172.6 151.8 168.3 C 153.8 170.0 155.7 171.9 157.4 173.9 C 153.0 176.4 148.8 179.0 144.3 181.3 Z"
     id="path7107" />
  <path
     fill="#d0d8de"
     stroke="#d0d8de"
     stroke-width="0.09375"
     opacity="1.00"
     d=" M 194.1 173.9 C 195.8 171.9 197.6 170.0 199.6 168.3 C 202.2 172.6 204.8 176.9 207.2 181.4 C 202.8 179.0 198.4 176.4 194.1 173.9 Z"
     id="path7109" />
  <path
     fill="#d0d8de"
     stroke="#d0d8de"
     stroke-width="0.09375"
     opacity="1.00"
     d=" M 215.3 181.3 C 217.6 176.9 220.2 172.6 222.7 168.3 C 224.7 170.1 226.5 171.9 228.3 173.8 C 224.0 176.4 219.7 179.0 215.3 181.3 Z"
     id="path7111" />
  <path
     fill="#d0d8de"
     stroke="#d0d8de"
     stroke-width="0.09375"
     opacity="1.00"
     d=" M 264.7 173.8 C 266.4 171.9 268.3 170.0 270.3 168.3 C 272.8 172.6 275.4 176.9 277.7 181.3 C 273.3 179.0 269.0 176.4 264.7 173.8 Z"
     id="path7113" />
  <path
     fill="#d0d8de"
     stroke="#d0d8de"
     stroke-width="0.09375"
     opacity="1.00"
     d=" M 293.3 168.3 C 295.3 170.0 297.2 171.9 298.9 173.9 C 294.6 176.4 290.2 179.0 285.8 181.4 C 288.2 176.9 290.8 172.6 293.3 168.3 Z"
     id="path7115" />
  <path
     fill="#d0d8de"
     stroke="#d0d8de"
     stroke-width="0.09375"
     opacity="1.00"
     d=" M 335.6 173.8 C 337.3 171.8 339.2 170.0 341.2 168.3 C 343.8 172.6 346.3 176.9 348.7 181.3 C 344.2 179.0 339.9 176.4 335.6 173.8 Z"
     id="path7117" />
  <path
     fill="#d0d8de"
     stroke="#d0d8de"
     stroke-width="0.09375"
     opacity="1.00"
     d=" M 356.8 181.4 C 359.2 176.9 361.7 172.6 364.3 168.3 C 366.3 170.0 368.1 171.9 369.8 173.9 C 365.5 176.4 361.2 179.0 356.8 181.4 Z"
     id="path7119" />
  <path
     fill="#d0d8de"
     stroke="#d0d8de"
     stroke-width="0.09375"
     opacity="1.00"
     d=" M 119.8 184.0 C 120.2 181.4 120.9 178.8 121.7 176.4 C 126.1 178.9 130.5 181.3 134.8 183.9 C 129.8 184.0 124.8 184.0 119.8 184.0 Z"
     id="path7121" />
  <path
     fill="#d0d8de"
     stroke="#d0d8de"
     stroke-width="0.09375"
     opacity="1.00"
     d=" M 145.9 183.9 C 150.1 181.3 154.5 178.8 158.9 176.4 C 159.7 178.9 160.3 181.4 160.8 183.9 C 155.8 184.1 150.8 184.0 145.9 183.9 Z"
     id="path7123" />
  <path
     fill="#d0d8de"
     stroke="#d0d8de"
     stroke-width="0.09375"
     opacity="1.00"
     d=" M 190.6 184.0 C 191.2 181.4 191.8 178.9 192.6 176.4 C 197.0 178.8 201.4 181.3 205.7 183.9 C 200.7 184.0 195.6 184.0 190.6 184.0 Z"
     id="path7125" />
  <path
     fill="#d0d8de"
     stroke="#d0d8de"
     stroke-width="0.09375"
     opacity="1.00"
     d=" M 216.6 184.0 C 221.0 181.4 225.4 178.8 229.8 176.4 C 230.5 178.9 231.2 181.4 231.7 183.9 C 226.7 184.1 221.7 184.0 216.6 184.0 Z"
     id="path7127" />
  <path
     fill="#d0d8de"
     stroke="#d0d8de"
     stroke-width="0.09375"
     opacity="1.00"
     d=" M 263.2 176.4 C 267.6 178.8 272.0 181.4 276.4 184.0 C 271.3 184.0 266.3 184.1 261.3 183.9 C 261.8 181.4 262.4 178.9 263.2 176.4 Z"
     id="path7129" />
  <path
     fill="#d0d8de"
     stroke="#d0d8de"
     stroke-width="0.09375"
     opacity="1.00"
     d=" M 287.3 183.9 C 291.6 181.3 296.0 178.9 300.3 176.4 C 301.2 178.9 301.8 181.4 302.3 184.0 C 297.3 184.0 292.3 184.0 287.3 183.9 Z"
     id="path7131" />
  <path
     fill="#d0d8de"
     stroke="#d0d8de"
     stroke-width="0.09375"
     opacity="1.00"
     d=" M 334.1 176.4 C 338.5 178.8 342.9 181.2 347.1 183.9 C 342.2 184.0 337.2 184.1 332.2 183.9 C 332.7 181.4 333.3 178.9 334.1 176.4 Z"
     id="path7133" />
  <path
     fill="#d0d8de"
     stroke="#d0d8de"
     stroke-width="0.09375"
     opacity="1.00"
     d=" M 358.2 183.9 C 362.5 181.4 366.9 178.8 371.3 176.4 C 372.1 178.9 372.8 181.4 373.2 184.0 C 368.2 184.0 363.2 184.0 358.2 183.9 Z"
     id="path7135" />
  <path
     fill="#d0d8de"
     stroke="#d0d8de"
     stroke-width="0.09375"
     opacity="1.00"
     d=" M 140.1 187.1 C 141.0 187.1 142.9 187.0 143.8 187.0 C 149.7 194.7 158.4 200.0 167.8 202.1 C 167.5 205.6 167.4 209.1 167.2 212.6 C 154.4 209.6 143.9 199.6 140.1 187.1 Z"
     id="path7137" />
  <path
     fill="#d0d8de"
     stroke="#d0d8de"
     stroke-width="0.09375"
     opacity="1.00"
     d=" M 207.8 186.6 C 208.3 188.4 208.9 190.1 209.2 191.8 C 204.6 202.2 195.0 209.9 184.0 212.6 C 183.8 209.1 183.6 205.6 183.4 202.1 C 193.1 200.1 201.6 194.3 207.8 186.6 Z"
     id="path7139" />
  <path
     fill="#d0d8de"
     stroke="#d0d8de"
     stroke-width="0.09375"
     opacity="1.00"
     d=" M 211.1 187.1 C 212.3 187.0 213.5 187.0 214.7 187.0 C 220.6 194.6 229.2 200.1 238.6 202.1 C 238.5 205.6 238.3 209.1 238.2 212.6 C 225.4 209.7 214.8 199.6 211.1 187.1 Z"
     id="path7141" />
  <path
     fill="#d0d8de"
     stroke="#d0d8de"
     stroke-width="0.09375"
     opacity="1.00"
     d=" M 278.3 187.0 C 279.5 187.0 280.7 187.0 281.9 187.1 C 278.2 199.6 267.6 209.7 254.8 212.6 C 254.7 209.1 254.5 205.6 254.4 202.1 C 263.8 200.1 272.4 194.6 278.3 187.0 Z"
     id="path7143" />
  <path
     fill="#d0d8de"
     stroke="#d0d8de"
     stroke-width="0.09375"
     opacity="1.00"
     d=" M 284.5 193.3 C 283.0 191.2 284.8 188.8 285.2 186.6 C 291.4 194.3 299.9 200.1 309.6 202.1 C 309.4 205.6 309.2 209.1 309.0 212.6 C 298.5 210.1 289.3 202.9 284.5 193.3 Z"
     id="path7145" />
  <path
     fill="#d0d8de"
     stroke="#d0d8de"
     stroke-width="0.09375"
     opacity="1.00"
     d=" M 349.2 187.0 C 350.1 187.0 352.0 187.1 352.9 187.1 C 349.1 199.6 338.6 209.6 325.8 212.6 C 325.6 209.1 325.5 205.6 325.2 202.1 C 334.6 200.0 343.3 194.7 349.2 187.0 Z"
     id="path7147" />
  <path
     fill="#d0d8de"
     stroke="#d0d8de"
     stroke-width="0.09375"
     opacity="1.00"
     d=" M 157.8 527.0 C 163.8 523.0 169.5 518.6 175.7 515.1 C 181.7 518.9 187.5 522.9 193.4 526.9 C 181.5 527.1 169.7 527.0 157.8 527.0 Z"
     id="path7149" />
  <path
     fill="#d0d8de"
     stroke="#d0d8de"
     stroke-width="0.09375"
     opacity="1.00"
     d=" M 228.6 527.0 C 234.7 523.1 240.4 518.6 246.7 515.2 C 252.7 519.0 258.5 523.0 264.4 527.0 C 252.5 527.0 240.5 527.0 228.6 527.0 Z"
     id="path7151" />
  <path
     fill="#d0d8de"
     stroke="#d0d8de"
     stroke-width="0.09375"
     opacity="1.00"
     d=" M 317.3 515.1 C 323.5 518.6 329.2 523.0 335.2 527.0 C 323.3 527.0 311.5 527.0 299.6 527.0 C 305.4 522.9 311.3 518.9 317.3 515.1 Z"
     id="path7153" />
</svg>
