<?xml version="1.0" encoding="UTF-8" standalone="no"?>
<!-- Created with Inkscape (http://www.inkscape.org/) -->
<svg
   xmlns:dc="http://purl.org/dc/elements/1.1/"
   xmlns:cc="http://web.resource.org/cc/"
   xmlns:rdf="http://www.w3.org/1999/02/22-rdf-syntax-ns#"
   xmlns:svg="http://www.w3.org/2000/svg"
   xmlns="http://www.w3.org/2000/svg"
   xmlns:sodipodi="http://sodipodi.sourceforge.net/DTD/sodipodi-0.dtd"
   xmlns:inkscape="http://www.inkscape.org/namespaces/inkscape"
   width="1003.4727"
   height="1211.8356"
   id="svg2023"
   sodipodi:version="0.32"
   inkscape:version="0.45.1"
   sodipodi:docname="gaiz.svg"
   sodipodi:docbase="C:\Documents and Settings\PD\Desktop\Aurimo visi\Heraldika\Del LT herbu\3 Darymui"
   inkscape:output_extension="org.inkscape.output.svg.inkscape"
   version="1.0">
  <defs
     id="defs2025" />
  <sodipodi:namedview
     id="base"
     pagecolor="#ffffff"
     bordercolor="#666666"
     borderopacity="1.0"
     inkscape:pageopacity="0.0"
     inkscape:pageshadow="2"
     inkscape:zoom="0.42249956"
     inkscape:cx="501.73636"
     inkscape:cy="605.91778"
     inkscape:document-units="px"
     inkscape:current-layer="layer1"
     inkscape:window-width="1024"
     inkscape:window-height="708"
     inkscape:window-x="0"
     inkscape:window-y="26" />
  <metadata
     id="metadata2028">
    <rdf:RDF>
      <cc:Work
         rdf:about="">
        <dc:format>image/svg+xml</dc:format>
        <dc:type
           rdf:resource="http://purl.org/dc/dcmitype/StillImage" />
      </cc:Work>
    </rdf:RDF>
  </metadata>
  <g
     inkscape:label="Sluoksnis 1"
     inkscape:groupmode="layer"
     id="layer1"
     transform="translate(246.79801,432.27916)">
    <path
       sodipodi:nodetypes="cccss"
       style="fill:#008000;fill-opacity:1;stroke:#000000;stroke-width:10.34451771;stroke-miterlimit:4;stroke-dasharray:none;stroke-opacity:1"
       d="M -241.62575,260.30976 L -241.62575,-427.1069 L 751.50237,-427.1069 L 751.50237,260.30976 C 751.50237,945.70763 -241.62575,945.77679 -241.62575,260.30976 z "
       id="path45147" />
    <g
       id="g2268"
       transform="translate(-177.55646,-362.57562)"
       style="fill:#ffffff;fill-opacity:1;stroke:#000000;stroke-opacity:1">
      <path
         style="fill:#ffffff;fill-opacity:1;stroke:#000000;stroke-width:6;stroke-miterlimit:4;stroke-dasharray:none;stroke-opacity:1"
         d="M 427.589,1052.616 C 430.56999,1036.5152 422.02405,1022.6275 417.55297,1016.8615 C 412.57787,1010.4455 402.17147,1003.4967 397.28571,1001.2696 C 394.52793,1000.0126 371.84456,983.42317 364.86634,968.84647 C 336.84125,910.30531 377.58492,877.37597 379.97027,875.55017 C 401.20659,859.29546 418.27041,859.70788 449.28907,840.91259 C 459.79853,834.54454 468.77522,825.63734 464.84787,806.49039 C 462.31897,794.16128 432.27401,783.59995 428.74557,782.3932 C 426.54557,781.64079 339.81071,772.23866 336.78571,771.67149 C 324.1601,769.30426 268.93493,755.13378 243.21352,708.50093 C 229.67266,683.95139 228.84304,646.537 230.5745,638.00377 C 234.20418,620.11549 244.90379,578.24352 278.75078,543.85709 C 297.68935,524.61085 314.19206,511.0523 344.57865,488.55054 C 346.89915,486.83217 404.31494,446.37524 431.01319,425.37808 C 459.03864,403.33713 471.47181,386.3092 474.41432,382.74609 C 508.73423,341.18789 513.65795,330.78696 522.21418,285.23996 C 526.50009,262.42495 520.1701,242.64566 518.11816,233.50259 C 511.68037,204.81703 483.25008,178.68964 462.42706,169.55612 C 455.41092,166.47866 441.40506,163.41667 431.65006,163.86644 C 421.71901,164.32433 409.32617,166.47425 386.20791,181.58815 C 380.11799,185.56952 373.10237,192.61719 359.26738,202.84232 C 341.29825,216.12289 343.68612,213.75062 325.60833,224.49931 C 308.22428,234.83551 296.08722,241.89967 291.79047,239.28666 C 287.88624,236.91235 282.93975,236.76116 290.13528,230.93043 C 293.18961,228.45543 300.48752,223.17477 300.2327,221.87379 C 299.60453,218.6667 293.66436,220.12068 286.36076,215.40154 C 279.8195,211.17498 274.78571,203.81578 274.78571,198.4793 L 274.78571,194.45765 C 274.78571,194.45765 285.22304,202.14768 287.87071,203.61866 C 304.58424,212.90429 316.34567,208.86145 316.34567,208.51603 C 316.34567,208.1706 302.32066,201.8262 299.30781,199.12699 C 293.49778,193.92177 291.47613,190.16012 290.35537,182.46933 C 289.86615,179.11224 290.00664,177.71933 290.83446,177.71933 C 292.25755,177.71933 300.85574,187.06484 306.35905,190.67924 C 310.99368,193.72312 314.89904,195.76817 324.07746,197.03846 C 335.61448,198.63518 336.35841,196.25519 340.44815,193.37705 C 344.65518,190.41636 378.4023,160.48691 381.91012,157.30322 C 399.06425,141.7342 403.08236,119.97499 398.66459,110.08904 C 394.20359,100.10633 386.76566,91.017226 367.41045,80.774976 C 361.91045,77.864516 342.21164,65.973468 337.64162,63.858698 C 319.99215,55.691428 312.967,51.938673 311.24175,53.370513 C 308.57994,55.579613 304.73133,61.903716 303.92557,67.688146 C 302.15927,80.368096 303.7043,82.8495 301.41996,82.52371 C 299.88659,82.30503 297.20507,80.508638 295.51854,74.71933 C 293.17909,66.688779 293.78973,66.356689 294.14967,57.042269 C 294.35159,51.817269 294.24562,44.380799 293.56683,44.380799 C 291.5136,44.380799 283.45163,56.423386 282.78928,62.760416 C 282.44943,66.011916 281.14429,75.99772 280.71648,76.26212 C 279.71224,76.88277 276.96139,70.474756 274.10775,64.388556 C 272.15433,60.222316 273.29886,55.239399 274.21217,51.604755 C 275.87136,45.001801 276.6157,42.996764 277.93134,38.962869 C 279.08224,35.434064 256.89929,27.71933 256.38333,27.71933 C 255.86737,27.71933 244.15542,21.549001 244.15542,20.307371 C 244.15542,19.321251 249.69914,12.608173 251.36733,9.6523006 C 254.5619,3.9918426 266.57798,-3.5537229 267.94149,-2.7110269 C 268.38125,-2.4392359 277.77447,-5.9878519 287.22334,-4.0273429 C 302.55138,-0.84698691 323.18346,5.0520839 330.43845,7.1468159 C 334.2867,8.2579199 376.48042,18.939768 381.15542,20.143335 C 389.25475,22.228486 437.34262,34.672554 445.05752,42.79729 C 445.48739,43.25 459.32169,50.260274 467.7022,57.373748 C 472.99065,61.862647 489.06377,74.407058 497.28571,82.798778 C 514.56315,100.43301 525.8941,109.81716 532.08125,121.0562 C 535.98452,128.14654 595.62869,188.79958 602.86861,267.62604 C 608.52947,329.26005 607.09975,354.35051 586.86473,389.8167 C 572.33096,415.29021 558.63103,432.53772 538.3823,454.04315 C 510.58554,483.56506 458.74216,516.8691 389.3463,565.25501 C 358.77131,586.57327 333.88735,621.45702 328.34847,635.88035 C 326.32181,641.1578 323.03533,656.84992 325.16115,663.11137 C 329.07277,674.6328 328.38,677.69243 337.51911,687.65623 C 345.68187,696.55558 370.05691,705.64214 384.47204,707.13777 C 468.47516,715.85344 486.8163,726.25078 509.7921,746.85814 C 523.15091,758.83987 530.14122,776.8898 534.13972,789.37301 C 535.85017,794.71299 540.08123,809.35412 538.78018,817.23755 C 536.23864,832.63749 532.32085,872.19193 478.2651,894.84686 C 451.09711,906.23305 427.84285,910.85271 413.2369,923.25387 C 395.67126,938.16795 400.21452,958.58687 403.90399,960.92477 C 405.50846,961.94147 423.88278,984.95126 425.75351,986.08963 C 433.50588,990.80705 457.36849,1022.3864 437.91356,1056.4693 C 436.6299,1058.7181 426.8572,1063.9004 427.589,1052.616 z "
         id="path2272"
         sodipodi:nodetypes="csssssssssssssssssssssssssccssssssssssssssssssssssssssssssssssssssssssssssssssc" />
    </g>
    <path
       style="fill:#ffd700;fill-opacity:1;stroke:#000000;stroke-width:6;stroke-miterlimit:4;stroke-dasharray:none;stroke-opacity:1"
       d="M 210.16305,-215.21231 C 208.59722,-221.19688 186.26575,-229.02495 173.02635,-229.8083 C 165.13755,-230.27506 156.15671,-228.36667 149.94321,-226.36874 C 139.05511,-222.86775 137.15251,-218.39379 126.99401,-208.90444 C 114.37841,-197.11976 106.28611,-193.2831 96.090814,-188.05187 C 83.390516,-181.53536 56.521602,-179.72373 38.461369,-188.08844 C 20.653791,-196.33614 6.7488114,-214.96168 6.7488114,-214.96168 C 6.7488114,-214.96168 -2.364087,-216.61815 20.984431,-208.43855 C 32.380952,-204.44605 41.904552,-203.58953 42.241052,-203.04504 C 43.108752,-201.64108 77.7849,-202.57888 77.3238,-203.9917 C 77.1276,-204.59299 60.62961,-209.4348 55.90461,-212.7348 C 47.29021,-218.75128 37.62182,-225.80553 35.92202,-229.60433 C 35.42232,-230.72115 23.511652,-249.58889 23.326252,-259.94417 C 23.217552,-266.0137 25.028852,-266.14662 28.966052,-260.35806 C 32.582052,-255.04163 50.689818,-229.78722 69.496976,-225.91558 C 74.254007,-224.9363 90.92319,-222.52142 102.74725,-224.7795 C 113.95875,-226.9206 116.34975,-228.21952 119.20525,-229.45886 C 130.91775,-234.54234 134.62575,-236.03502 135.54125,-236.03502 C 136.11545,-236.03502 150.23893,-247.03416 186.62975,-244.17412 C 202.51339,-242.92579 205.91545,-242.27426 213.54075,-238.91193 C 216.10965,-237.77922 221.59029,-236.34294 221.29874,-234.92512 C 218.97712,-223.63509 211.83985,-208.80361 210.16305,-215.21231 z M 436.67724,287.87658 C 427.25884,277.82958 425.79664,264.24868 426.21804,259.19945 C 426.57614,254.90982 427.64594,247.11785 432.77884,237.71498 C 434.33794,234.85888 443.78574,225.52535 451.11284,222.71722 C 457.30004,220.34594 471.22834,219.48653 479.86724,222.96498 C 485.99284,225.43144 496.18194,230.36777 499.01674,235.52896 C 503.15267,243.05905 508.72314,259.89231 501.84357,272.10361 C 497.04866,280.61462 498.59234,283.30485 487.69534,290.36564 C 483.45504,293.11317 471.20613,296.83177 467.22803,296.87181 C 446.75213,297.07789 441.25654,292.76154 436.67724,287.87658 z M -25.217437,88.115129 C -32.260237,90.347589 -40.474435,92.551408 -47.538235,90.323258 C -52.847835,88.648498 -62.227035,85.201321 -65.828535,80.641941 C -74.702335,69.407911 -79.474314,60.640339 -78.022614,52.339549 C -76.976414,46.356989 -75.540348,37.61221 -74.649648,35.87948 C -71.672348,30.08739 -67.210248,25.93998 -64.699748,23.46498 C -62.189148,20.98998 -51.426648,15.2008 -50.166348,14.74578 C -44.052548,12.53853 -33.299663,10.491411 -26.469463,13.131191 C -20.130363,15.581181 -15.148269,16.311893 -10.865548,19.96498 C -6.6902536,23.526434 -5.8098821,26.572729 -2.8616821,31.503089 C 2.4472179,40.381369 2.2757768,49.188731 1.7101391,58.439142 C 0.82297782,72.947731 -22.266737,87.179809 -25.217437,88.115129 z M 577.64007,-130.4897 C 576.11107,-135.48749 575.38177,-143.00213 575.38177,-148.20712 C 575.38177,-154.67031 577.9885,-160.80156 581.74724,-166.61609 C 584.28696,-170.54487 588.28274,-173.83147 591.24724,-175.99189 C 595.83464,-179.33502 604.75614,-182.68967 607.19704,-182.86835 C 618.36474,-183.68588 627.16909,-182.25603 632.19674,-180.02682 C 639.06528,-176.98137 648.85576,-168.43208 652.46996,-160.53502 C 657.04076,-150.54761 655.40405,-141.04814 652.89763,-129.97362 C 650.90654,-121.17607 646.56185,-120.02106 638.83593,-112.01986 C 634.80863,-107.84907 619.94363,-104.39049 614.07853,-104.39623 C 606.87733,-104.40327 591.25381,-111.17246 587.26231,-115.71987 C 585.15341,-118.12249 580.02617,-122.69049 577.64007,-130.4897 z "
       id="path2289"
       sodipodi:nodetypes="csssszcssssssssssssssscssssssssscssssssssssscsssssssssss" />
    <path
       style="fill:#ffffff;fill-opacity:1;stroke:#000000;stroke-width:6;stroke-miterlimit:4;stroke-dasharray:none;stroke-opacity:1"
       d="M 494.3723,-250.38379 C 495.071,-249.68508 496.58073,-211.45325 495.9658,-198.24945 C 493.66712,-148.89225 484.34036,-117.87448 484.27496,-117.59948 M 398.44182,401.85394 C 399.80061,392.72188 396.42328,383.63093 391.11346,375.44283 C 385.04618,366.08668 376.58614,359.63838 375.01144,359.63838 C 374.45104,359.63838 363.15725,352.65775 360.13225,351.13036 C 350.74775,346.39195 345.50523,333.8959 341.48633,325.00089 C 335.06883,310.79695 335.59987,281.2024 339.88061,261.43174 C 344.14401,241.74115 364.91246,217.19349 365.42451,218.19834 C 370.33345,227.83164 389.59251,237.20268 395.70893,248.67176 C 405.71412,267.4328 412.13376,281.21529 410.42642,297.00062 C 405.20695,345.25751 389.58134,350.89074 404.15748,379.30934 C 406.73528,384.3352 405.18489,370.94365 406.70064,366.50788 C 409.39118,358.63413 412.11325,348.11608 413.2863,348.11608 C 413.7112,348.11608 437.44272,310.18555 442.11866,292.81627 C 442.95586,289.7064 449.71502,296.97713 455.4401,297.64533 C 459.8631,298.16156 450.37858,314.37423 444.12798,324.26171 C 438.54648,333.09076 434.27868,335.09398 426.24556,346.28506 C 423.82043,349.66354 416.95138,377.125 417.90538,377.125 C 419.23798,377.125 425.44758,376.11844 453.17996,354.53823 C 464.07443,346.0606 491.18812,344.10477 504.40776,346.28135 C 539.17488,352.00566 576.07138,374.30094 573.37778,377.10263 C 569.53378,381.10084 560.4416,397.92959 545.91668,404.31078 C 518.14834,416.51015 502.23751,415.24996 495.87778,414.06737 C 464.4644,408.22606 454.48016,404.0044 446.3075,398.50276 L 427.9452,389.60906 L 416.08378,393.32514 C 407.09536,402.99262 411.12754,426.22755 412.24944,427.80305 C 413.37124,429.37845 417.99466,438.11267 417.81396,438.57797 C 417.63336,439.04337 410.0978,440.65235 405.42114,450.00307 C 401.78849,457.26636 394.04122,431.42923 398.44182,401.85394 z M 18.872212,216.06059 C 27.171431,207.4669 32.338671,193.14111 33.046171,187.122 C 33.607271,182.34756 32.544951,175.75593 30.118351,170.96357 C 26.398851,163.61777 15.890972,168.74058 11.954972,169.52778 C 9.7961719,169.95955 -7.4978446,188.35651 -22.288945,195.00422 C -42.556168,204.11311 -71.701816,206.3882 -98.654094,200.44527 C -102.21155,199.66085 -139.74983,177.64393 -140.42583,175.8641 C -141.52973,172.95782 -120.5484,146.03496 -90.518325,135.26276 C -69.899942,127.86666 -37.076222,127.37843 -32.221168,129.46838 C -23.323168,132.78769 -7.1902362,136.36878 6.3281808,146.05416 C 20.143986,155.9526 27.537591,153.00664 27.537591,153.00664 C 24.506631,92.619383 -24.83419,86.581453 -14.986168,82.52958 C -8.7154895,79.94957 -5.8060492,76.093309 -0.93707478,67.607531 C 0.48384685,65.131111 3.9049426,79.210389 10.10955,86.318927 C 23.540799,101.70693 38.245217,120.69284 38.218852,144.125 C 38.204232,157.11818 52.136371,127.24348 51.791671,118.84909 C 51.221271,104.95865 45.405858,95.145541 53.350771,70.66029 C 64.466328,36.4035 78.103166,14.471519 98.765272,2.1208086 C 108.90647,-3.9410604 123.73201,-7.8262019 137.39819,-15.044831 C 138.02853,-15.377786 142.40589,6.9259189 142.49821,8.9404868 C 143.14983,23.159336 143.141,32.32862 139.82507,47.396499 C 132.86029,79.045056 115.50629,103.53511 112.85529,105.82428 C 97.256851,119.2937 70.959572,133.06058 69.556372,133.06058 C 68.882072,133.06058 62.308572,139.08418 58.873472,142.52168 C 49.721072,151.68041 46.598471,165.32353 45.172471,183.71172 C 44.551871,191.71477 41.290317,215.32063 32.446611,226.25832 C 30.359686,228.83938 20.667612,216.28301 18.872212,216.06059 z M 511.3595,-43.80133 C 504.1009,-50.54493 495.26893,-52.464718 486.2844,-45.086101 C 476.91104,-37.388153 489.0619,-9.5126406 489.0619,-9.5126406 C 480.78796,-11.72548 469.0811,-11.173961 467.9811,-11.066611 C 466.0926,-10.882311 465.69505,-44.634668 468.54998,-54.408637 C 474.97218,-76.395336 480.76056,-100.09593 482.51126,-110.53585 C 483.53666,-116.65065 484.51561,-120.40555 480.1965,-125.91417 C 467.64266,-141.92543 459.864,-162.57359 457.5511,-170.23278 C 455.5505,-176.85754 446.47021,-208.80987 462.05472,-234.77936 C 468.66109,-245.78799 495.24614,-280.94388 496.27524,-280.94388 C 497.31064,-280.94388 515.97156,-257.1507 522.14564,-239.29423 C 531.65266,-211.79837 529.13995,-198.10154 526.12036,-174.00384 C 523.82076,-155.65197 508.45936,-137.68028 506.33446,-135.52452 C 502.53686,-131.6718 496.17218,-122.99397 496.26238,-119.08231 C 496.50826,-108.41932 491.3251,-91.829473 494.48584,-96.026142 C 506.57686,-112.07998 526.39981,-121.04463 534.01232,-124.44867 C 560.61502,-136.34443 574.85902,-134.95485 575.54652,-135.45772 C 576.30272,-136.01083 572.71198,-130.40477 581.18244,-123.42367 C 589.21134,-116.80649 563.14318,-119.03508 549.57674,-115.9176 C 525.60993,-110.41018 509.32639,-95.128008 508.97912,-94.79274 C 495.0098,-81.306122 492.17739,-61.637868 495.89886,-64.204961 C 535.46054,-91.494839 572.77767,-84.768484 583.66664,-81.587978 C 593.7277,-78.649295 610.95055,-75.971747 630.4645,-56.1851 C 635.42623,-51.154028 649.28142,-38.389739 646.74392,-36.810801 C 643.09854,-34.542491 632.88756,-24.377462 628.54836,-20.144552 C 612.30056,-4.2948215 585.54152,-4.1031023 569.2208,-8.2637105 C 537.59998,-16.324746 520.5387,-35.27332 511.3595,-43.80133 z M 491.37879,-48.66484 C 509.1353,-62.62239 546.12628,-56.036117 564.16656,-50.088362 C 594.08496,-40.224469 623.60844,-36.960824 624.50952,-40.678317"
       id="path2291"
       sodipodi:nodetypes="csscssssssssssssssssssssscccsssscsssssssszcssssssssssssssscczcsssssssssssssssssssssssscss" />
    <path
       sodipodi:type="arc"
       style="fill:#000000;fill-opacity:1;fill-rule:nonzero;stroke:#000000;stroke-width:6;stroke-miterlimit:4;stroke-dasharray:none;stroke-opacity:1"
       id="path2166"
       sodipodi:cx="-1426.8295"
       sodipodi:cy="-93.392014"
       sodipodi:rx="19.911638"
       sodipodi:ry="19.911638"
       d="M -1408.4039,-100.94002 A 19.911638,19.911638 0 1 1 -1408.4322,-101.00864"
       sodipodi:start="5.8943885"
       sodipodi:end="12.173847"
       sodipodi:open="true"
       transform="translate(1657.6229,-209.49009)" />
    <path
       sodipodi:type="arc"
       style="fill:#000000;fill-opacity:1;fill-rule:nonzero;stroke:#ffffff;stroke-width:5;stroke-miterlimit:4;stroke-dasharray:none;stroke-opacity:1"
       id="path3139"
       sodipodi:cx="-1452.9619"
       sodipodi:cy="-86.408592"
       sodipodi:rx="13.630553"
       sodipodi:ry="14.318965"
       d="M -1440.3487,-91.836558 A 13.630553,14.318965 0 1 1 -1440.368,-91.885902"
       sodipodi:start="5.8943885"
       sodipodi:end="12.173847"
       sodipodi:open="true"
       transform="matrix(1.0689278,-3.0995789e-2,3.1739007e-2,1.0438972,1786.7878,-257.26371)" />
    <path
       style="fill:none;fill-rule:evenodd;stroke:#000000;stroke-width:6;stroke-linecap:butt;stroke-linejoin:miter;stroke-miterlimit:4;stroke-dasharray:none;stroke-opacity:1"
       d="M 422.71028,391.44551 C 469.50838,375.86306 467.9525,380.76949 500.19652,382.60937 C 532.44054,384.44925 547.77578,384.64848 547.77578,384.64848"
       id="path15469"
       sodipodi:nodetypes="czc" />
    <path
       style="fill:none;fill-rule:evenodd;stroke:#000000;stroke-width:6;stroke-linecap:butt;stroke-linejoin:miter;stroke-miterlimit:4;stroke-dasharray:none;stroke-opacity:1"
       d="M 364.93544,243.94979 C 360.17752,322.11573 389.40478,373.09352 389.40478,373.09352"
       id="path16440"
       sodipodi:nodetypes="cc" />
    <path
       style="fill:none;fill-rule:evenodd;stroke:#000000;stroke-width:6;stroke-linecap:butt;stroke-linejoin:miter;stroke-miterlimit:4;stroke-dasharray:none;stroke-opacity:1"
       d="M -118.76552,177.46903 C -118.62606,177.19009 -118.48659,176.91116 -118.34712,176.63222 C -116.6673,173.27259 -50.259497,164.5185 -34.247367,163.2432 C -24.372417,162.45671 21.596103,165.85132 23.074373,166.59045 C 23.999493,167.05301 23.204213,166.85014 23.492773,167.42727"
       id="path17411"
       sodipodi:nodetypes="csssc" />
    <path
       style="fill:none;fill-rule:evenodd;stroke:#000000;stroke-width:6;stroke-linecap:butt;stroke-linejoin:miter;stroke-miterlimit:4;stroke-dasharray:none;stroke-opacity:1"
       d="M 48.178783,132.69951 C 93.366713,74.959369 113.86864,21.403299 113.86864,21.403299"
       id="path18382"
       sodipodi:nodetypes="cc" />
  </g>
</svg>
