<?xml version="1.0" encoding="UTF-8" standalone="no"?>
<!-- Created with Inkscape (http://www.inkscape.org/) -->
<svg
   xmlns:dc="http://purl.org/dc/elements/1.1/"
   xmlns:cc="http://creativecommons.org/ns#"
   xmlns:rdf="http://www.w3.org/1999/02/22-rdf-syntax-ns#"
   xmlns:svg="http://www.w3.org/2000/svg"
   xmlns="http://www.w3.org/2000/svg"
   xmlns:sodipodi="http://sodipodi.sourceforge.net/DTD/sodipodi-0.dtd"
   xmlns:inkscape="http://www.inkscape.org/namespaces/inkscape"
   id="svg2"
   sodipodi:version="0.32"
   inkscape:version="0.46"
   width="491"
   height="580"
   version="1.0"
   sodipodi:docname="Coat_of_arms_of_Ignalina_(Lithuania).svg"
   inkscape:output_extension="org.inkscape.output.svg.inkscape">
  <metadata
     id="metadata7">
    <rdf:RDF>
      <cc:Work
         rdf:about="">
        <dc:format>image/svg+xml</dc:format>
        <dc:type
           rdf:resource="http://purl.org/dc/dcmitype/StillImage" />
      </cc:Work>
    </rdf:RDF>
  </metadata>
  <defs
     id="defs5">
    <inkscape:perspective
       sodipodi:type="inkscape:persp3d"
       inkscape:vp_x="0 : 526.18109 : 1"
       inkscape:vp_y="0 : 1000 : 0"
       inkscape:vp_z="744.09448 : 526.18109 : 1"
       inkscape:persp3d-origin="372.04724 : 350.78739 : 1"
       id="perspective9" />
  </defs>
  <sodipodi:namedview
     inkscape:window-height="722"
     inkscape:window-width="994"
     inkscape:pageshadow="2"
     inkscape:pageopacity="0.0"
     guidetolerance="10.0"
     gridtolerance="10.0"
     objecttolerance="10.0"
     borderopacity="1.0"
     bordercolor="#666666"
     pagecolor="#ffffff"
     id="base"
     showgrid="false"
     inkscape:zoom="0.7959869"
     inkscape:cx="438.65077"
     inkscape:cy="333.09254"
     inkscape:window-x="5"
     inkscape:window-y="49"
     inkscape:current-layer="svg2" />
  <path
     style="fill:#000000"
     d="M 230.5,575.89038 C 182.69674,572.98188 134.68299,554.13772 96.5,523.29885 C 84.090572,513.27626 65.716526,494.5174 56.19587,482.15062 C 35.995991,455.91216 19.838828,421.36135 12.604759,388.93449 C 6.9156089,363.43276 7,366.59742 7,178.75613 L 7,6 L 246.5,6 L 486,6 L 486,178.75613 C 486,360.67624 485.95858,362.57607 481.52515,384.00347 C 475.9875,410.76768 464.30414,440.03373 449.86012,463.32229 C 432.68167,491.01965 404.84998,519.37939 377,537.56476 C 333.6286,565.88526 283.14104,579.09322 230.5,575.89038 z"
     id="path2472" />
  <path
     style="fill:#0b4da2;fill-opacity:1"
     d="M 278.98972,567.48571 C 339.36624,558.91699 395.57319,525.50864 432.85617,476.03039 C 451.39922,451.4219 466.12572,419.93917 473.332,389.5 C 479.60204,363.01547 479.32312,371.96423 479.72934,184.25 L 480.09992,13 L 246.5,13 L 12.900077,13 L 13.270662,184.25 C 13.606657,339.51573 13.800977,356.5734 15.352534,367 C 25.554769,435.55994 61.934359,493.327 118.59467,530.93793 C 151.88921,553.03873 187.75337,565.4118 230,569.37256 C 238.83047,570.20045 267.6945,569.08874 278.98972,567.48571 z"
     id="path2470" />
  <g
     id="g2474">
    <path
       id="path2468"
       d="M 242.13997,491.92347 C 239.74196,491.45226 235.46696,489.78514 232.63997,488.21876 C 229.81299,486.65238 225.25,484.54644 222.5,483.5389 C 203.93898,476.73851 181.86853,461.48653 169.31833,446.78722 C 162.14853,438.38966 146,416.26585 146,414.84064 C 146,412.49101 175.59741,414.54056 183.91523,417.46618 L 187.5,418.72704 L 187.52678,405.11352 C 187.55248,392.05012 189.80971,376.85367 191.91795,375.55071 C 193.12177,374.80671 210.52733,385.40842 217.40778,391.07654 C 220.7585,393.83687 224.83203,397.7789 226.46007,399.83661 L 229.42014,403.57791 L 232.14693,392.75966 C 234.7353,382.49053 243.41883,362.09525 245.83966,360.59909 C 247.35747,359.66104 257.14768,380.01208 261.26606,392.66615 L 264.57472,402.8323 L 269.25126,397.52806 C 271.82335,394.61072 276.72555,390.1207 280.14503,387.55023 C 286.8672,382.49708 299.23213,375 300.84411,375 C 303.32267,375 308,396.04462 308,407.19638 L 308,414.21682 L 310.75,413.51947 C 316.57541,412.04226 324.92201,411.13163 335.47408,410.822 C 344.9892,410.54281 346.49162,410.71719 346.775,412.13363 C 347.11406,413.82842 327.21939,440.72871 319.13991,449.5 C 305.89129,463.88305 286.51038,478.06204 269.38787,485.89838 C 255.74526,492.1421 249.86718,493.44187 242.13997,491.92347 z"
       style="fill:#000000" />
    <path
       id="path2466"
       d="M 259,486.74753 C 262.40439,485.20643 262.11982,485.16092 248.58333,485.08157 C 240.92917,485.03671 234.93318,485.26652 235.25892,485.59226 C 238.68808,489.02142 252.49288,489.69317 259,486.74753 z"
       style="fill:#ffffff;fill-opacity:1" />
    <path
       id="path2464"
       d="M 273.02031,477.36268 C 277.19576,473.59042 286.97353,461.16803 286.99039,459.61408 C 287.02205,456.6956 270.15667,462.43971 264.39439,467.30996 L 261.28878,469.9348 L 255.06007,457.22247 C 249.21324,445.28954 248.74125,444.63246 247.36161,446.50507 C 245.39594,449.17314 238.66176,462.65716 237.20189,466.84813 L 236.03562,470.19627 L 232.09731,467.07707 C 229.93124,465.36151 226.139,463.06433 223.67012,461.97223 C 218.86134,459.84508 210,458.23414 210,459.48709 C 210,461.10793 218.996,472.74159 223.35974,476.76395 L 227.95531,481 L 248.47478,481 L 268.99424,481 L 273.02031,477.36268 z"
       style="fill:#ffffff;fill-opacity:1" />
    <path
       id="path2462"
       d="M 215.75917,472.75 C 211.03489,467.17041 205,458.09602 205,456.57193 C 205,456.25737 207.3625,456.00949 210.25,456.02109 C 216.01398,456.04425 227.18832,459.57378 231.72503,462.8042 L 234.6073,464.85656 L 239.43646,455.02815 C 242.09249,449.62252 245.26921,443.94109 246.49584,442.40276 L 248.72606,439.60579 L 251.51538,444.02436 C 253.0495,446.45457 256.08104,452.14493 258.25213,456.66961 L 262.19958,464.8963 L 265.84979,462.51581 C 271.50402,458.8284 281.51982,455.86068 287.15962,456.20163 L 292.09515,456.5 L 288.29757,462.75895 C 286.20891,466.20137 282.52453,471.30798 280.11007,474.10699 C 275.94125,478.93975 275.87221,479.11744 278.73933,477.6348 C 284.51312,474.64906 302.21802,460.83573 310.66405,452.72721 C 315.33819,448.23985 323.92461,438.25299 329.745,430.53419 C 335.56539,422.81539 340.81634,415.86419 341.41377,415.08709 C 342.34153,413.8803 340.82231,413.77188 331,414.34388 C 314.80297,415.28713 306.944,417.61145 296.49014,424.55033 C 288.1302,430.09934 281.41884,436.5397 274.01994,446.11322 C 270.32535,450.89369 266.84429,454.51137 266.28424,454.1525 C 265.69425,453.77443 265.02858,446.13972 264.70152,436 C 263.89797,411.08768 259.66016,393.21165 250.00865,374.02223 L 246.24764,366.54446 L 244.13008,370.02223 C 240.94082,375.26011 236.30305,388.78464 233.93953,399.73968 C 232.29034,407.3837 231.7204,414.37861 231.31096,432 C 231.02342,444.375 230.45987,454.85346 230.05862,455.28546 C 229.65737,455.71747 224.86753,451.73444 219.41454,446.43429 C 196.97536,424.62408 186.16494,419.23385 161.18489,417.4002 C 149.95476,416.57585 149.81499,415.26759 162.81984,432.70401 C 173.67547,447.25885 182.41148,456.00852 194.04017,463.97316 C 202.43529,469.72309 218.55593,478.94624 220.27554,478.98329 C 220.70209,478.99248 218.66972,476.1875 215.75917,472.75 z"
       style="fill:#ffffff;fill-opacity:1" />
    <path
       id="path2460"
       d="M 225.86456,405.34093 C 224.30503,403.05344 220.21001,398.6151 216.76452,395.47795 C 208.94786,388.3608 194.79574,379.59984 193.86805,381.30374 C 191.20441,386.19609 189.36209,412.69081 191.24682,419 C 191.73543,420.63563 194.05745,422.6752 197.96277,424.89902 C 201.2458,426.76849 209.23473,433.0919 215.71595,438.95105 L 227.5,449.60405 L 228.10004,429.55202 L 228.70007,409.5 L 225.86456,405.34093 z"
       style="fill:#ffffff;fill-opacity:1" />
    <path
       id="path2458"
       d="M 282.44686,432.5 C 286.91018,428.1 293.59294,422.74886 297.29743,420.60858 C 302.12505,417.81942 304.21855,415.97827 304.68837,414.10858 C 305.54545,410.69776 303.42491,391.79384 301.43271,385.08538 C 299.66463,379.1316 299.76589,379.13935 291.15929,384.29854 C 283.14833,389.10066 273.57535,397.32376 269.10874,403.23975 L 265.13377,408.50456 L 266.55981,418.00228 C 267.34414,423.22603 268.00413,432.225 268.02646,438 L 268.06706,448.5 L 271.1994,444.5 C 272.92218,442.3 277.98354,436.9 282.44686,432.5 z"
       style="fill:#ffffff;fill-opacity:1" />
    <path
       id="path2456"
       d="M 173.42114,408.61552 C 166.98242,405.61738 164,401.91555 164,396.92185 C 164,388.33281 174.7843,387.53917 178.36191,395.86493 C 179.22101,397.86422 180.21788,402.0875 180.57718,405.25 C 181.34259,411.98706 181.00386,412.14637 173.42114,408.61552 z"
       style="fill:#000000;fill-opacity:1" />
    <path
       id="path2454"
       d="M 176.53731,402.25 C 175.64568,397.37071 173.42391,394 171.09939,394 C 165.85244,394 166.59129,400.56089 172.22507,403.9958 C 176.7692,406.76636 177.32175,406.54266 176.53731,402.25 z"
       style="fill:#d2ab67;fill-opacity:1" />
    <path
       id="path2452"
       d="M 310.72834,405.75 C 311.34952,398.24878 312.77217,394.32437 315.70725,392.01564 C 320.77424,388.02995 327,390.56084 327,396.60636 C 327,402.37805 324.729,405.39971 318.18347,408.33717 C 314.92001,409.80173 311.80974,411 311.27175,411 C 310.7032,411 310.47564,408.8015 310.72834,405.75 z"
       style="fill:#000000;fill-opacity:1" />
    <path
       id="path2450"
       d="M 318.77039,403.99856 C 322.95498,401.44721 324.8153,397.68731 322.98453,395.48136 C 319.94696,391.82131 316.12808,395.10186 314.52311,402.75 C 313.72926,406.53288 314.32601,406.70831 318.77039,403.99856 z"
       style="fill:#d2ab67;fill-opacity:1" />
    <path
       id="path2448"
       d="M 220.01162,387.51817 C 213.87587,382.97448 212.07566,380.02483 212.03596,374.45 C 211.99219,368.30276 213.14759,367 218.6433,367 C 221.89458,367 223.25052,367.51959 224.4433,369.22251 C 226.28939,371.85818 226.40812,380.67983 224.67315,386.3007 L 223.5,390.1014 L 220.01162,387.51817 z"
       style="fill:#000000;fill-opacity:1" />
    <path
       id="path2446"
       d="M 222.46009,374.30636 C 221.86811,370.73635 218.81669,369.07732 216.45201,371.03983 C 214.09368,372.99707 214.7776,376.67711 218.23056,380.60981 L 221.46112,384.28922 L 222.22539,380.89461 C 222.64574,379.02757 222.75136,376.06286 222.46009,374.30636 z"
       style="fill:#d2ab67;fill-opacity:1" />
    <path
       id="path2444"
       d="M 266.82517,386.29024 C 266.18941,384.75561 265.63117,380.51101 265.58462,376.8578 C 265.48297,368.87857 267.35743,366 272.65499,366 C 277.303,366 280,368.94571 280,374.02234 C 280,377.35516 279.28218,378.82342 275.81265,382.58743 C 269.80385,389.1062 268.25595,389.74393 266.82517,386.29024 z"
       style="fill:#000000;fill-opacity:1" />
    <path
       id="path2442"
       d="M 276,373.42086 C 276,370.02085 275.86481,369.88632 272.75,370.18664 C 269.6206,370.48837 269.4885,370.68083 269.19019,375.37294 C 268.70294,383.03665 269.57675,384.13112 273.07136,380.23422 C 275.14548,377.92133 276,375.93334 276,373.42086 z"
       style="fill:#d2ab67;fill-opacity:1" />
  </g>
  <g
     id="g2490"
     transform="translate(-0.3195383,-151.2348)">
    <path
       id="path2492"
       d="M 242.13997,491.92347 C 239.74196,491.45226 235.46696,489.78514 232.63997,488.21876 C 229.81299,486.65238 225.25,484.54644 222.5,483.5389 C 203.93898,476.73851 181.86853,461.48653 169.31833,446.78722 C 162.14853,438.38966 146,416.26585 146,414.84064 C 146,412.49101 175.59741,414.54056 183.91523,417.46618 L 187.5,418.72704 L 187.52678,405.11352 C 187.55248,392.05012 189.80971,376.85367 191.91795,375.55071 C 193.12177,374.80671 210.52733,385.40842 217.40778,391.07654 C 220.7585,393.83687 224.83203,397.7789 226.46007,399.83661 L 229.42014,403.57791 L 232.14693,392.75966 C 234.7353,382.49053 243.41883,362.09525 245.83966,360.59909 C 247.35747,359.66104 257.14768,380.01208 261.26606,392.66615 L 264.57472,402.8323 L 269.25126,397.52806 C 271.82335,394.61072 276.72555,390.1207 280.14503,387.55023 C 286.8672,382.49708 299.23213,375 300.84411,375 C 303.32267,375 308,396.04462 308,407.19638 L 308,414.21682 L 310.75,413.51947 C 316.57541,412.04226 324.92201,411.13163 335.47408,410.822 C 344.9892,410.54281 346.49162,410.71719 346.775,412.13363 C 347.11406,413.82842 327.21939,440.72871 319.13991,449.5 C 305.89129,463.88305 286.51038,478.06204 269.38787,485.89838 C 255.74526,492.1421 249.86718,493.44187 242.13997,491.92347 z"
       style="fill:#000000" />
    <path
       id="path2494"
       d="M 259,486.74753 C 262.40439,485.20643 262.11982,485.16092 248.58333,485.08157 C 240.92917,485.03671 234.93318,485.26652 235.25892,485.59226 C 238.68808,489.02142 252.49288,489.69317 259,486.74753 z"
       style="fill:#ffffff;fill-opacity:1" />
    <path
       id="path2496"
       d="M 273.02031,477.36268 C 277.19576,473.59042 286.97353,461.16803 286.99039,459.61408 C 287.02205,456.6956 270.15667,462.43971 264.39439,467.30996 L 261.28878,469.9348 L 255.06007,457.22247 C 249.21324,445.28954 248.74125,444.63246 247.36161,446.50507 C 245.39594,449.17314 238.66176,462.65716 237.20189,466.84813 L 236.03562,470.19627 L 232.09731,467.07707 C 229.93124,465.36151 226.139,463.06433 223.67012,461.97223 C 218.86134,459.84508 210,458.23414 210,459.48709 C 210,461.10793 218.996,472.74159 223.35974,476.76395 L 227.95531,481 L 248.47478,481 L 268.99424,481 L 273.02031,477.36268 z"
       style="fill:#ffffff;fill-opacity:1" />
    <path
       id="path2498"
       d="M 215.75917,472.75 C 211.03489,467.17041 205,458.09602 205,456.57193 C 205,456.25737 207.3625,456.00949 210.25,456.02109 C 216.01398,456.04425 227.18832,459.57378 231.72503,462.8042 L 234.6073,464.85656 L 239.43646,455.02815 C 242.09249,449.62252 245.26921,443.94109 246.49584,442.40276 L 248.72606,439.60579 L 251.51538,444.02436 C 253.0495,446.45457 256.08104,452.14493 258.25213,456.66961 L 262.19958,464.8963 L 265.84979,462.51581 C 271.50402,458.8284 281.51982,455.86068 287.15962,456.20163 L 292.09515,456.5 L 288.29757,462.75895 C 286.20891,466.20137 282.52453,471.30798 280.11007,474.10699 C 275.94125,478.93975 275.87221,479.11744 278.73933,477.6348 C 284.51312,474.64906 302.21802,460.83573 310.66405,452.72721 C 315.33819,448.23985 323.92461,438.25299 329.745,430.53419 C 335.56539,422.81539 340.81634,415.86419 341.41377,415.08709 C 342.34153,413.8803 340.82231,413.77188 331,414.34388 C 314.80297,415.28713 306.944,417.61145 296.49014,424.55033 C 288.1302,430.09934 281.41884,436.5397 274.01994,446.11322 C 270.32535,450.89369 266.84429,454.51137 266.28424,454.1525 C 265.69425,453.77443 265.02858,446.13972 264.70152,436 C 263.89797,411.08768 259.66016,393.21165 250.00865,374.02223 L 246.24764,366.54446 L 244.13008,370.02223 C 240.94082,375.26011 236.30305,388.78464 233.93953,399.73968 C 232.29034,407.3837 231.7204,414.37861 231.31096,432 C 231.02342,444.375 230.45987,454.85346 230.05862,455.28546 C 229.65737,455.71747 224.86753,451.73444 219.41454,446.43429 C 196.97536,424.62408 186.16494,419.23385 161.18489,417.4002 C 149.95476,416.57585 149.81499,415.26759 162.81984,432.70401 C 173.67547,447.25885 182.41148,456.00852 194.04017,463.97316 C 202.43529,469.72309 218.55593,478.94624 220.27554,478.98329 C 220.70209,478.99248 218.66972,476.1875 215.75917,472.75 z"
       style="fill:#ffffff;fill-opacity:1" />
    <path
       id="path2500"
       d="M 225.86456,405.34093 C 224.30503,403.05344 220.21001,398.6151 216.76452,395.47795 C 208.94786,388.3608 194.79574,379.59984 193.86805,381.30374 C 191.20441,386.19609 189.36209,412.69081 191.24682,419 C 191.73543,420.63563 194.05745,422.6752 197.96277,424.89902 C 201.2458,426.76849 209.23473,433.0919 215.71595,438.95105 L 227.5,449.60405 L 228.10004,429.55202 L 228.70007,409.5 L 225.86456,405.34093 z"
       style="fill:#ffffff;fill-opacity:1" />
    <path
       id="path2502"
       d="M 282.44686,432.5 C 286.91018,428.1 293.59294,422.74886 297.29743,420.60858 C 302.12505,417.81942 304.21855,415.97827 304.68837,414.10858 C 305.54545,410.69776 303.42491,391.79384 301.43271,385.08538 C 299.66463,379.1316 299.76589,379.13935 291.15929,384.29854 C 283.14833,389.10066 273.57535,397.32376 269.10874,403.23975 L 265.13377,408.50456 L 266.55981,418.00228 C 267.34414,423.22603 268.00413,432.225 268.02646,438 L 268.06706,448.5 L 271.1994,444.5 C 272.92218,442.3 277.98354,436.9 282.44686,432.5 z"
       style="fill:#ffffff;fill-opacity:1" />
    <path
       id="path2504"
       d="M 173.42114,408.61552 C 166.98242,405.61738 164,401.91555 164,396.92185 C 164,388.33281 174.7843,387.53917 178.36191,395.86493 C 179.22101,397.86422 180.21788,402.0875 180.57718,405.25 C 181.34259,411.98706 181.00386,412.14637 173.42114,408.61552 z"
       style="fill:#000000;fill-opacity:1" />
    <path
       id="path2506"
       d="M 176.53731,402.25 C 175.64568,397.37071 173.42391,394 171.09939,394 C 165.85244,394 166.59129,400.56089 172.22507,403.9958 C 176.7692,406.76636 177.32175,406.54266 176.53731,402.25 z"
       style="fill:#d2ab67;fill-opacity:1" />
    <path
       id="path2508"
       d="M 310.72834,405.75 C 311.34952,398.24878 312.77217,394.32437 315.70725,392.01564 C 320.77424,388.02995 327,390.56084 327,396.60636 C 327,402.37805 324.729,405.39971 318.18347,408.33717 C 314.92001,409.80173 311.80974,411 311.27175,411 C 310.7032,411 310.47564,408.8015 310.72834,405.75 z"
       style="fill:#000000;fill-opacity:1" />
    <path
       id="path2510"
       d="M 318.77039,403.99856 C 322.95498,401.44721 324.8153,397.68731 322.98453,395.48136 C 319.94696,391.82131 316.12808,395.10186 314.52311,402.75 C 313.72926,406.53288 314.32601,406.70831 318.77039,403.99856 z"
       style="fill:#d2ab67;fill-opacity:1" />
    <path
       id="path2512"
       d="M 220.01162,387.51817 C 213.87587,382.97448 212.07566,380.02483 212.03596,374.45 C 211.99219,368.30276 213.14759,367 218.6433,367 C 221.89458,367 223.25052,367.51959 224.4433,369.22251 C 226.28939,371.85818 226.40812,380.67983 224.67315,386.3007 L 223.5,390.1014 L 220.01162,387.51817 z"
       style="fill:#000000;fill-opacity:1" />
    <path
       id="path2514"
       d="M 222.46009,374.30636 C 221.86811,370.73635 218.81669,369.07732 216.45201,371.03983 C 214.09368,372.99707 214.7776,376.67711 218.23056,380.60981 L 221.46112,384.28922 L 222.22539,380.89461 C 222.64574,379.02757 222.75136,376.06286 222.46009,374.30636 z"
       style="fill:#d2ab67;fill-opacity:1" />
    <path
       id="path2516"
       d="M 266.82517,386.29024 C 266.18941,384.75561 265.63117,380.51101 265.58462,376.8578 C 265.48297,368.87857 267.35743,366 272.65499,366 C 277.303,366 280,368.94571 280,374.02234 C 280,377.35516 279.28218,378.82342 275.81265,382.58743 C 269.80385,389.1062 268.25595,389.74393 266.82517,386.29024 z"
       style="fill:#000000;fill-opacity:1" />
    <path
       id="path2518"
       d="M 276,373.42086 C 276,370.02085 275.86481,369.88632 272.75,370.18664 C 269.6206,370.48837 269.4885,370.68083 269.19019,375.37294 C 268.70294,383.03665 269.57675,384.13112 273.07136,380.23422 C 275.14548,377.92133 276,375.93334 276,373.42086 z"
       style="fill:#d2ab67;fill-opacity:1" />
  </g>
  <g
     id="g2520"
     transform="translate(-0.3195432,-304.02922)">
    <path
       id="path2522"
       d="M 242.13997,491.92347 C 239.74196,491.45226 235.46696,489.78514 232.63997,488.21876 C 229.81299,486.65238 225.25,484.54644 222.5,483.5389 C 203.93898,476.73851 181.86853,461.48653 169.31833,446.78722 C 162.14853,438.38966 146,416.26585 146,414.84064 C 146,412.49101 175.59741,414.54056 183.91523,417.46618 L 187.5,418.72704 L 187.52678,405.11352 C 187.55248,392.05012 189.80971,376.85367 191.91795,375.55071 C 193.12177,374.80671 210.52733,385.40842 217.40778,391.07654 C 220.7585,393.83687 224.83203,397.7789 226.46007,399.83661 L 229.42014,403.57791 L 232.14693,392.75966 C 234.7353,382.49053 243.41883,362.09525 245.83966,360.59909 C 247.35747,359.66104 257.14768,380.01208 261.26606,392.66615 L 264.57472,402.8323 L 269.25126,397.52806 C 271.82335,394.61072 276.72555,390.1207 280.14503,387.55023 C 286.8672,382.49708 299.23213,375 300.84411,375 C 303.32267,375 308,396.04462 308,407.19638 L 308,414.21682 L 310.75,413.51947 C 316.57541,412.04226 324.92201,411.13163 335.47408,410.822 C 344.9892,410.54281 346.49162,410.71719 346.775,412.13363 C 347.11406,413.82842 327.21939,440.72871 319.13991,449.5 C 305.89129,463.88305 286.51038,478.06204 269.38787,485.89838 C 255.74526,492.1421 249.86718,493.44187 242.13997,491.92347 z"
       style="fill:#000000" />
    <path
       id="path2524"
       d="M 259,486.74753 C 262.40439,485.20643 262.11982,485.16092 248.58333,485.08157 C 240.92917,485.03671 234.93318,485.26652 235.25892,485.59226 C 238.68808,489.02142 252.49288,489.69317 259,486.74753 z"
       style="fill:#ffffff;fill-opacity:1" />
    <path
       id="path2526"
       d="M 273.02031,477.36268 C 277.19576,473.59042 286.97353,461.16803 286.99039,459.61408 C 287.02205,456.6956 270.15667,462.43971 264.39439,467.30996 L 261.28878,469.9348 L 255.06007,457.22247 C 249.21324,445.28954 248.74125,444.63246 247.36161,446.50507 C 245.39594,449.17314 238.66176,462.65716 237.20189,466.84813 L 236.03562,470.19627 L 232.09731,467.07707 C 229.93124,465.36151 226.139,463.06433 223.67012,461.97223 C 218.86134,459.84508 210,458.23414 210,459.48709 C 210,461.10793 218.996,472.74159 223.35974,476.76395 L 227.95531,481 L 248.47478,481 L 268.99424,481 L 273.02031,477.36268 z"
       style="fill:#ffffff;fill-opacity:1" />
    <path
       id="path2528"
       d="M 215.75917,472.75 C 211.03489,467.17041 205,458.09602 205,456.57193 C 205,456.25737 207.3625,456.00949 210.25,456.02109 C 216.01398,456.04425 227.18832,459.57378 231.72503,462.8042 L 234.6073,464.85656 L 239.43646,455.02815 C 242.09249,449.62252 245.26921,443.94109 246.49584,442.40276 L 248.72606,439.60579 L 251.51538,444.02436 C 253.0495,446.45457 256.08104,452.14493 258.25213,456.66961 L 262.19958,464.8963 L 265.84979,462.51581 C 271.50402,458.8284 281.51982,455.86068 287.15962,456.20163 L 292.09515,456.5 L 288.29757,462.75895 C 286.20891,466.20137 282.52453,471.30798 280.11007,474.10699 C 275.94125,478.93975 275.87221,479.11744 278.73933,477.6348 C 284.51312,474.64906 302.21802,460.83573 310.66405,452.72721 C 315.33819,448.23985 323.92461,438.25299 329.745,430.53419 C 335.56539,422.81539 340.81634,415.86419 341.41377,415.08709 C 342.34153,413.8803 340.82231,413.77188 331,414.34388 C 314.80297,415.28713 306.944,417.61145 296.49014,424.55033 C 288.1302,430.09934 281.41884,436.5397 274.01994,446.11322 C 270.32535,450.89369 266.84429,454.51137 266.28424,454.1525 C 265.69425,453.77443 265.02858,446.13972 264.70152,436 C 263.89797,411.08768 259.66016,393.21165 250.00865,374.02223 L 246.24764,366.54446 L 244.13008,370.02223 C 240.94082,375.26011 236.30305,388.78464 233.93953,399.73968 C 232.29034,407.3837 231.7204,414.37861 231.31096,432 C 231.02342,444.375 230.45987,454.85346 230.05862,455.28546 C 229.65737,455.71747 224.86753,451.73444 219.41454,446.43429 C 196.97536,424.62408 186.16494,419.23385 161.18489,417.4002 C 149.95476,416.57585 149.81499,415.26759 162.81984,432.70401 C 173.67547,447.25885 182.41148,456.00852 194.04017,463.97316 C 202.43529,469.72309 218.55593,478.94624 220.27554,478.98329 C 220.70209,478.99248 218.66972,476.1875 215.75917,472.75 z"
       style="fill:#ffffff;fill-opacity:1" />
    <path
       id="path2530"
       d="M 225.86456,405.34093 C 224.30503,403.05344 220.21001,398.6151 216.76452,395.47795 C 208.94786,388.3608 194.79574,379.59984 193.86805,381.30374 C 191.20441,386.19609 189.36209,412.69081 191.24682,419 C 191.73543,420.63563 194.05745,422.6752 197.96277,424.89902 C 201.2458,426.76849 209.23473,433.0919 215.71595,438.95105 L 227.5,449.60405 L 228.10004,429.55202 L 228.70007,409.5 L 225.86456,405.34093 z"
       style="fill:#ffffff;fill-opacity:1" />
    <path
       id="path2532"
       d="M 282.44686,432.5 C 286.91018,428.1 293.59294,422.74886 297.29743,420.60858 C 302.12505,417.81942 304.21855,415.97827 304.68837,414.10858 C 305.54545,410.69776 303.42491,391.79384 301.43271,385.08538 C 299.66463,379.1316 299.76589,379.13935 291.15929,384.29854 C 283.14833,389.10066 273.57535,397.32376 269.10874,403.23975 L 265.13377,408.50456 L 266.55981,418.00228 C 267.34414,423.22603 268.00413,432.225 268.02646,438 L 268.06706,448.5 L 271.1994,444.5 C 272.92218,442.3 277.98354,436.9 282.44686,432.5 z"
       style="fill:#ffffff;fill-opacity:1" />
    <path
       id="path2534"
       d="M 173.42114,408.61552 C 166.98242,405.61738 164,401.91555 164,396.92185 C 164,388.33281 174.7843,387.53917 178.36191,395.86493 C 179.22101,397.86422 180.21788,402.0875 180.57718,405.25 C 181.34259,411.98706 181.00386,412.14637 173.42114,408.61552 z"
       style="fill:#000000;fill-opacity:1" />
    <path
       id="path2536"
       d="M 176.53731,402.25 C 175.64568,397.37071 173.42391,394 171.09939,394 C 165.85244,394 166.59129,400.56089 172.22507,403.9958 C 176.7692,406.76636 177.32175,406.54266 176.53731,402.25 z"
       style="fill:#d2ab67;fill-opacity:1" />
    <path
       id="path2538"
       d="M 310.72834,405.75 C 311.34952,398.24878 312.77217,394.32437 315.70725,392.01564 C 320.77424,388.02995 327,390.56084 327,396.60636 C 327,402.37805 324.729,405.39971 318.18347,408.33717 C 314.92001,409.80173 311.80974,411 311.27175,411 C 310.7032,411 310.47564,408.8015 310.72834,405.75 z"
       style="fill:#000000;fill-opacity:1" />
    <path
       id="path2540"
       d="M 318.77039,403.99856 C 322.95498,401.44721 324.8153,397.68731 322.98453,395.48136 C 319.94696,391.82131 316.12808,395.10186 314.52311,402.75 C 313.72926,406.53288 314.32601,406.70831 318.77039,403.99856 z"
       style="fill:#d2ab67;fill-opacity:1" />
    <path
       id="path2542"
       d="M 220.01162,387.51817 C 213.87587,382.97448 212.07566,380.02483 212.03596,374.45 C 211.99219,368.30276 213.14759,367 218.6433,367 C 221.89458,367 223.25052,367.51959 224.4433,369.22251 C 226.28939,371.85818 226.40812,380.67983 224.67315,386.3007 L 223.5,390.1014 L 220.01162,387.51817 z"
       style="fill:#000000;fill-opacity:1" />
    <path
       id="path2544"
       d="M 222.46009,374.30636 C 221.86811,370.73635 218.81669,369.07732 216.45201,371.03983 C 214.09368,372.99707 214.7776,376.67711 218.23056,380.60981 L 221.46112,384.28922 L 222.22539,380.89461 C 222.64574,379.02757 222.75136,376.06286 222.46009,374.30636 z"
       style="fill:#d2ab67;fill-opacity:1" />
    <path
       id="path2546"
       d="M 266.82517,386.29024 C 266.18941,384.75561 265.63117,380.51101 265.58462,376.8578 C 265.48297,368.87857 267.35743,366 272.65499,366 C 277.303,366 280,368.94571 280,374.02234 C 280,377.35516 279.28218,378.82342 275.81265,382.58743 C 269.80385,389.1062 268.25595,389.74393 266.82517,386.29024 z"
       style="fill:#000000;fill-opacity:1" />
    <path
       id="path2548"
       d="M 276,373.42086 C 276,370.02085 275.86481,369.88632 272.75,370.18664 C 269.6206,370.48837 269.4885,370.68083 269.19019,375.37294 C 268.70294,383.03665 269.57675,384.13112 273.07136,380.23422 C 275.14548,377.92133 276,375.93334 276,373.42086 z"
       style="fill:#d2ab67;fill-opacity:1" />
  </g>
</svg>
