<?xml version="1.0" encoding="UTF-8" standalone="no"?>
<svg
   xmlns:dc="http://purl.org/dc/elements/1.1/"
   xmlns:cc="http://creativecommons.org/ns#"
   xmlns:rdf="http://www.w3.org/1999/02/22-rdf-syntax-ns#"
   xmlns:svg="http://www.w3.org/2000/svg"
   xmlns="http://www.w3.org/2000/svg"
   xmlns:sodipodi="http://sodipodi.sourceforge.net/DTD/sodipodi-0.dtd"
   xmlns:inkscape="http://www.inkscape.org/namespaces/inkscape"
   width="499.99988"
   height="600.00024"
   viewBox="0 0 132.29163 158.75007"
   version="1.1"
   id="svg847"
   sodipodi:docname="Joniškis.svg"
   inkscape:version="1.0.2 (e86c870879, 2021-01-15, custom)">
  <defs
     id="defs841" />
  <sodipodi:namedview
     id="base"
     pagecolor="#ffffff"
     bordercolor="#666666"
     borderopacity="1.0"
     inkscape:pageopacity="0.0"
     inkscape:pageshadow="2"
     inkscape:zoom="0.98994949"
     inkscape:cx="297.99298"
     inkscape:cy="233.38081"
     inkscape:document-units="px"
     inkscape:current-layer="layer1"
     inkscape:document-rotation="0"
     showgrid="false"
     inkscape:snap-smooth-nodes="true"
     inkscape:showpageshadow="false"
     borderlayer="true"
     units="px"
     inkscape:window-width="1920"
     inkscape:window-height="1017"
     inkscape:window-x="-8"
     inkscape:window-y="-4"
     inkscape:window-maximized="1"
     inkscape:snap-global="false" />
  <metadata
     id="metadata844">
    <rdf:RDF>
      <cc:Work
         rdf:about="">
        <dc:format>image/svg+xml</dc:format>
        <dc:type
           rdf:resource="http://purl.org/dc/dcmitype/StillImage" />
        <dc:title />
      </cc:Work>
    </rdf:RDF>
  </metadata>
  <g
     inkscape:label="Layer 1"
     inkscape:groupmode="layer"
     id="layer1"
     transform="translate(-37.673664,-62.331388)">
    <g
       id="g1419"
       transform="matrix(0.9397502,0,0,0.93188413,2.2668907,4.2486594)">
      <path
         style="font-variation-settings:normal;opacity:1;vector-effect:none;fill:#e30013;fill-opacity:1;stroke:#000000;stroke-width:1.5875;stroke-linecap:butt;stroke-linejoin:miter;stroke-miterlimit:4;stroke-dasharray:none;stroke-dashoffset:0;stroke-opacity:1;stop-color:#000000;stop-opacity:1"
         d="M 38.470542,63.122023 V 164.1504 c 0,34.01786 28.943668,67.73799 69.592838,67.73799 40.64918,0 69.59285,-33.72013 69.59285,-67.73799 V 63.122023 Z"
         id="path844"
         sodipodi:nodetypes="cszscc" />
      <g
         id="g1208">
        <path
           style="font-variation-settings:normal;vector-effect:none;fill:#d9dadc;fill-opacity:1;stroke:#000000;stroke-width:0.79375;stroke-linecap:butt;stroke-linejoin:miter;stroke-miterlimit:4;stroke-dasharray:none;stroke-dashoffset:0;stroke-opacity:1;stop-color:#000000"
           d="m 128.7738,215.6698 c 0,0 -0.43139,0.42327 -0.30068,1.30295 0.097,0.65246 0.52136,0.83168 0.25057,1.85417 0.80254,-0.25129 1.22174,-0.60397 1.50338,-1.35305 0.34638,-0.92125 0.0501,-1.95441 -0.60135,-1.95441 -0.65147,0 -0.85192,0.15034 -0.85192,0.15034 z m 5.52914,3.57473 c 0,0 1.40316,-0.60135 1.85418,-1.9544 0.45102,-1.35305 -0.15034,-2.35532 -0.85192,-2.40543 -0.70158,-0.0501 -1.25283,0.85192 -0.90204,2.00452 0.3508,1.1526 0.15034,1.75396 -0.10022,2.35531 z m 4.30972,-5.46231 c 0,0 1.05962,0.60917 1.20271,1.75395 0.15033,1.20271 -0.55124,2.15486 -0.55124,2.15486 0,0 -0.35079,-1.10248 -1.10249,-1.75395 -0.75169,-0.65147 -0.85192,-1.25283 -0.65147,-1.75396 0.20046,-0.50113 1.10249,-0.4009 1.10249,-0.4009 z m 2.00452,-2.50566 c 0,0 1.03987,0.10687 1.60362,1.15261 0.56074,1.04015 0.40496,1.95634 -0.15034,3.00677 0,0 -0.60136,-1.40316 -1.45328,-1.90429 -0.85192,-0.50113 -1.00226,-1.40317 -1.00226,-1.40317 z m 18.54182,-44.2164 c 0.79168,-1.1674 0.6422,-2.11478 1.15261,-4.00905 0.5104,-1.89427 1.65537,-2.89115 2.00452,-4.15937 0.3834,-1.3926 -0.54631,-2.72024 -0.95215,-3.20724 0,0 1.60362,0.25057 2.60588,1.75396 1.00226,1.50339 0.35078,3.10701 0.35078,3.10701 l -2.3052,4.15938 z"
           id="path1241"
           sodipodi:nodetypes="cscssccsssccscssccscsccczscsccc" />
        <g
           id="g1333">
          <path
             style="font-variation-settings:normal;opacity:1;vector-effect:none;fill:#007531;fill-opacity:1;stroke:none;stroke-width:0.79375;stroke-linecap:butt;stroke-linejoin:miter;stroke-miterlimit:4;stroke-dasharray:none;stroke-dashoffset:0;stroke-opacity:1;stop-color:#000000;stop-opacity:1"
             d="m 121.75798,176.86561 c -0.21347,0.83771 -0.53117,1.89538 -2.25509,1.9043 0,0 -2.50565,-0.88533 -4.15938,-1.33635 l -8.56933,3.12371 c 0,0 -2.07116,-0.65651 -3.35758,-0.70158 l -0.60135,1.75396 c 0,0 -0.30067,2.40542 -2.3052,2.80633 l -0.618063,4.27631 3.407683,2.00452 27.89626,3.27405 c 0,0 3.11739,-1.23881 2.90655,-6.61492 -0.21083,-5.37611 -7.65837,-9.9581 -10.54152,-11.35723 -0.60875,-0.29541 -1.11278,-0.49696 -1.54843,-0.632 z"
             id="path1341"
             sodipodi:nodetypes="ccccccccccsscc" />
          <path
             style="font-variation-settings:normal;opacity:1;vector-effect:none;fill:#d9dadc;fill-opacity:1;stroke:none;stroke-width:0.529167;stroke-linecap:butt;stroke-linejoin:miter;stroke-miterlimit:4;stroke-dasharray:none;stroke-dashoffset:0;stroke-opacity:1;stop-color:#000000;stop-opacity:1"
             d="m 121.74377,177.21177 c 0,0 0.53153,-1.02762 0.24805,-1.87807 l -3.49682,0.0735 c 0.99482,1.43632 2.12894,1.19854 3.24877,1.80459 z m -18.85157,4.35855 c 0,0 0.70871,-0.77959 0.35436,-1.73633 l -3.07907,0.0435 c 0.27956,1.0809 1.78001,1.52876 2.72471,1.69284 z"
             id="path1339"
             sodipodi:nodetypes="cccccccc" />
          <path
             style="font-variation-settings:normal;opacity:1;vector-effect:none;fill:none;fill-opacity:1;stroke:#000000;stroke-width:0.79375;stroke-linecap:butt;stroke-linejoin:miter;stroke-miterlimit:4;stroke-dasharray:none;stroke-dashoffset:0;stroke-opacity:1;stop-color:#000000;stop-opacity:1"
             d="m 131.19593,193.97086 c 0,0 3.11739,-1.23881 2.90655,-6.61492 -0.21083,-5.37611 -7.65837,-9.9581 -10.54152,-11.35723 -2.88314,-1.39912 -3.41751,-0.69276 -5.46124,-0.78683 0.85355,0.92098 2.20696,1.56193 3.65826,1.65373 -0.21347,0.83771 -0.53117,1.89538 -2.25509,1.9043 0,0 -2.50565,-0.88533 -4.15938,-1.33635 l -8.56933,3.12371 c 0,0 -2.07116,-0.65651 -3.35758,-0.70158 -1.28642,-0.0451 -2.25508,0.15034 -3.457796,-0.10023 0.616486,1.03251 1.216826,1.83231 2.856446,1.85419 0,0 -0.30067,2.40542 -2.3052,2.80633 l -0.618063,4.27631 3.407683,2.00452 z"
             id="path1330"
             sodipodi:nodetypes="cszccccczcccccc" />
          <path
             style="font-variation-settings:normal;opacity:1;vector-effect:none;fill:none;fill-opacity:1;stroke:#000000;stroke-width:0.529167;stroke-linecap:butt;stroke-linejoin:miter;stroke-miterlimit:4;stroke-dasharray:none;stroke-dashoffset:0;stroke-opacity:1;stop-color:#000000;stop-opacity:1"
             d="m 129.66946,188.8936 c 0,0 1.37737,-1.16236 1.10457,-4.35246 -0.27224,-3.18356 -2.54969,-5.58327 -4.36461,-6.80965 m -7.65822,0.92148 c 4.31571,1.69105 8.26826,3.67956 12.07723,6.46458 M 115.94486,182.211 c 5.18789,1.47672 9.05567,2.60272 14.33233,6.01357"
             id="path1335"
             sodipodi:nodetypes="csccccc" />
          <path
             style="font-variation-settings:normal;opacity:1;vector-effect:none;fill:none;fill-opacity:1;stroke:#000000;stroke-width:0.529167;stroke-linecap:butt;stroke-linejoin:miter;stroke-miterlimit:4;stroke-dasharray:none;stroke-dashoffset:0;stroke-opacity:1;stop-color:#000000;stop-opacity:1"
             d="m 121.74377,177.21177 c 0,0 0.53153,-1.02762 0.24805,-1.87807 m -19.09962,6.23662 c 0,0 0.70871,-0.77959 0.35436,-1.73633"
             id="path1337"
             sodipodi:nodetypes="cccc" />
        </g>
        <path
           id="path1205"
           style="font-variation-settings:normal;opacity:1;vector-effect:none;fill:#007531;fill-opacity:1;stroke:#000000;stroke-width:3;stroke-linecap:butt;stroke-linejoin:miter;stroke-miterlimit:4;stroke-dasharray:none;stroke-dashoffset:0;stroke-opacity:1;stop-color:#000000;stop-opacity:1"
           d="m 190.38477,556.1543 c -0.27778,0.0241 -0.53704,0.0973 -0.77539,0.21875 -3.81366,1.94249 1.11682,7.5427 4.52734,13.68164 3.24622,5.84318 6.27065,14.78283 6.88281,31.61719 0.61216,16.83439 -1.51347,32.1987 -0.75586,52.65429 0.75723,20.44509 4.92347,30.30522 10.98438,39.77539 0.0783,7.06587 -0.35259,23.82509 8.96484,43.5625 9.31744,19.73741 26.23042,31.32431 47.23242,38.00977 21.00201,6.68542 43.68164,5.93164 43.68164,5.93164 l 120.92383,26.51172 c 0,0 -9.70456,6.20813 -5.99023,13.63672 3.71425,7.42854 13.44658,2.27329 26.42578,-3.3711 13.83666,-6.01731 24.51117,-10.38535 28.74023,-8.69726 3.79597,1.51525 0.88826,4.14792 5.02344,6.01757 4.13518,1.86962 7.49445,-2.90449 7.07617,-5.79492 -0.41832,-2.89039 -2.8346,-5.15726 -5.70508,-6.71484 0,0 2.89588,-1.26157 10.14649,-0.69336 7.25061,0.56821 8.30388,2.94726 7.23242,6.69727 -1.07142,3.75001 2.76481,5.34969 6.31836,4.93164 3.55359,-0.4181 4.82031,-3.32618 4.82031,-3.32618 0,0 4.18138,0.65053 7.19922,-0.95898 3.01788,-1.60951 2.86914,-4.71094 2.86914,-4.71094 0,0 4.69763,-0.94698 5.2793,-4.96484 0.6068,-4.1915 -2.23813,-6.95209 -5.81836,-8.62695 -3.58023,-1.67486 -8.18945,-1.45118 -8.18945,-1.45118 -0.57279,-1.06673 -1.14597,-1.71437 -1.71875,-2.55664 9.06028,-3.73345 16.95327,-8.39568 29.95507,-21.99804 13.08979,-13.6944 24.91019,-34.01734 34.28516,-58.66016 9.375,-24.64286 8.83984,-34.82227 8.83984,-34.82227 0,0 2.4099,-1.8739 4.55274,-4.82031 3.10896,2.91005 4.73262,5.1234 6.96484,10.44531 0,0 6.50358,-9.98101 8.03516,-17.94531 1.53158,-7.96429 -4.55274,-10.71398 -4.55274,-17.14258 2.50851,-4.90756 4.48901,-6.45067 10.44532,-15 6.24143,-8.95865 7.95752,-14.71394 7.23242,-21.69726 0,0 -7.40595,4.18378 -11.51758,12.85742 -4.11163,8.67364 -6.66914,10.91892 -10.05469,13.61523 0,0 -1.93309,-10.65352 0.72657,-18.98632 2.65969,-8.3328 7.66809,-13.36416 8.44531,-18.46875 -1.556,-0.38899 -10.21056,0.93966 -13.31446,10.71484 -3.04826,9.6 -7.42774,18.27202 -13.92773,17.11133 -6.50003,-1.16069 -15.26758,-5.59347 -20.89258,5.38867 -5.62499,10.98214 -7.42819,19.29243 -15.26758,30.26758 -7.83938,10.97514 -14.8066,20.66416 -18.69922,25.83398 -2.67359,3.55087 -4.41613,7.35167 -4.79492,11.52344 1.76395,-1.76391 5.5192,-5.68454 11.36133,-10.65039 6.19816,-5.26847 12.96875,-7.31055 12.96875,-7.31055 -0.58182,2.90914 -4.00704,6.39977 -7.4082,9.5 -3.40743,3.10598 -4.40389,4.18092 -6.38281,8.63672 5.03263,-3.59924 15.8829,-12.32313 23.76953,-15.09961 -0.56054,4.92083 -4.20425,5.85751 -5.18946,10.33399 5.08918,1.33927 5.86749,6.24007 0.80274,7.76953 -5.40261,1.63151 -6.65576,2.84514 -7.76758,5.89258 7.49991,0.80356 6.74767,7.99586 0.80273,7.76757 -6.26139,-0.24075 -9.62835,0.52147 -11.25,3.48243 6.69634,1.33927 6.56774,8.56561 -0.26757,6.69531 -6.12881,-1.67702 -9.07742,-0.29053 -11.25,2.14258 5.62499,2.41073 2.45221,10.35927 -2.67774,6.16211 -5.04589,-4.12823 -8.31429,-4.61316 -10.44726,-4.01758 0,0 2.14426,5.08871 -1.33789,8.03515 -3.48216,2.94641 -10.71514,1.87446 -12.32227,-10.71484 -1.54692,-12.11781 -12.05273,-13.39258 -12.05273,-13.39258 0,0 2.30835,6.94157 -2.14454,9.91016 -4.45288,2.96859 -8.49221,0.35133 -11.21679,-8.61719 -2.72228,-8.96092 -12.26081,-10.3868 -16.63867,-10.13281 5.89285,9.91071 -6.42913,18.21457 -10.71485,9.10742 -4.28572,-9.10715 -10.17969,-10.98242 -10.17969,-10.98242 0,0 -12.85601,2.9462 -21.69531,0.26758 C 400.71575,697.424 390.35742,700 390.35742,700 c 0,0 5.62556,3.74914 5.08985,10.17773 -0.53571,6.42856 -6.96485,5.08985 -6.96485,5.08985 L 368.30273,705 c -10.74102,0.86782 -16.54328,3.45624 -21.16015,6.16016 5.35714,2.41073 7.30385,8.06548 3.48242,11.25 -3.82143,3.18451 -6.96429,1.87556 -15,-2.41016 -8.03571,-4.28572 -16.07227,1.07227 -16.07227,1.07227 0,0 5.84034,4.48156 3.75,8.03515 -2.09033,3.55359 -9.37388,6.16071 -16.07031,0 -6.69643,-6.1607 -15.80469,-3.75 -15.80469,-3.75 2.14286,2.14284 5.98992,6.61648 2.67969,9.375 -3.31022,2.75853 -6.91898,2.37884 -10.44726,-5.08984 -3.10357,-6.56961 -8.45455,-6.01252 -13.125,-5.625 2.41071,2.9464 3.82226,6.19612 1.07226,7.76758 -2.75,1.57141 -7.23186,1.3393 -7.76758,-5.625 C 263.30413,719.19589 259.01758,720 259.01758,720 c 0,0 -1.07031,2.40989 -2.94531,4.55273 -3.21429,-2.14284 -5.80665,-4.88281 -5.80665,-4.88281 0,0 17.42475,-0.56714 28.41016,-18.37109 10.98541,-17.80392 3.03099,-40.53344 -12.8789,-48.86719 -15.90991,-8.33378 -35.22924,-1.13653 -45.45704,14.39453 -5.23277,-11.33767 -8.13834,-23.06544 -7.95507,-42.04687 0.19381,-20.07583 1.10914,-30.66984 -4.32422,-45.03125 -5.15396,-13.62292 -13.50921,-23.95606 -17.67578,-23.59375 z m 61.09765,119.08203 c 2.84125,-0.0603 5.55341,1.23755 7.36914,3.83789 5.28214,7.56461 -6.81783,20.83549 -19.69726,11.74414 1.01175,-10.40066 6.90393,-15.46682 12.32812,-15.58203 z"
           transform="scale(0.26458333)" />
        <path
           style="font-variation-settings:normal;opacity:1;vector-effect:none;fill:none;fill-opacity:1;stroke:#000000;stroke-width:0.79375;stroke-linecap:butt;stroke-linejoin:miter;stroke-miterlimit:4;stroke-dasharray:none;stroke-dashoffset:0;stroke-opacity:1;stop-color:#000000;stop-opacity:1"
           d="m 137.0508,209.27203 c -0.76502,-1.52737 -2.38792,-1.38889 -4.83591,-0.8018 -2.44799,0.58708 -4.6329,1.86533 -6.96571,2.90655 -2.51186,1.12114 -4.40995,1.25283 -5.31198,-0.45101 m 27.31101,-30.79071 c 2.2608,-0.95233 3.5716,-1.38311 5.36269,-2.11685 1.03834,0.42382 2.21887,0.44448 3.18616,-0.20403"
           id="path1245"
           sodipodi:nodetypes="czscccc" />
        <path
           style="font-variation-settings:normal;vector-effect:none;fill:none;fill-opacity:1;stroke:#000000;stroke-width:0.529167;stroke-linecap:butt;stroke-linejoin:miter;stroke-miterlimit:4;stroke-dasharray:none;stroke-dashoffset:0;stroke-opacity:1;stop-color:#000000"
           d="m 156.4467,177.02279 c 0,0 1.3111,-1.24023 1.52372,-3.29548 0.21262,-2.05525 1.94451,-4.43015 2.55134,-5.13812 m -0.83863,9.02419 c -0.29649,-1.36588 -0.88999,-2.01851 -1.73633,-3.40179 m 2.51591,1.66546 c -0.6017,-2.18117 -1.36158,-2.31665 -1.84263,-4.18136 m -6.60278,6.42559 c 0.97918,-0.37041 1.92994,-0.8165 2.16155,-1.98437 0.23161,-1.16787 -0.15483,-2.05289 0.46066,-3.68527 0.61549,-1.63239 1.87807,-2.55134 2.26786,-4.96094 m -12.60688,11.81374 c 0,0 3.18218,-1.5535 5.03636,-1e-5 m -2.1978,1.68711 c 0,0 1.09849,0.17717 2.97656,-0.17718 1.87807,-0.35435 3.33091,0.17718 4.74832,1.24024 m -8.09644,1.14356 c 0.63449,0.77743 1.68342,0.94853 3.38355,0.6282 1.70062,-0.32042 3.26005,0.81501 3.75614,1.66546 m -7.4414,-0.4961 c 0,0 0.42522,1.52372 2.6222,1.66546 2.19699,0.14174 3.012,0.46066 3.79158,1.55915 m -7.37914,-1.04052 c 0.2604,0.48051 0.29283,1.32704 2.38277,1.99727 2.0805,0.6672 2.76412,0.88553 3.50809,2.44504 m -6.98075,-3.012 c 0,0 0.38979,1.8072 2.19699,3.04743 1.80719,1.24024 2.37416,2.05525 2.87025,3.64984 m -6.83101,-4.99478 c 0.35507,0.71015 0.17029,2.6853 1.97946,4.6104 1.78548,1.8999 2.38823,2.7061 2.45554,4.30972 m -5.86322,-7.96797 c 0,0 -0.65147,2.15486 0.80181,4.81085 1.45327,2.65599 2.05463,4.30972 2.20497,6.46458 M 138.763,193.7203 c 0,0 -0.35079,1.45327 0.65147,5.26186 1.00226,3.8086 1.30294,5.11153 1.10249,7.01583 m -3.95893,2.25509 c 0.35792,-1.31239 0.0568,-4.1838 -0.30068,-7.81764 -0.35975,-3.65738 0.85192,-5.96345 1.45328,-6.76526 m -6.16391,14.88357 c 0,0 1.15261,-1.90429 0.90204,-6.71514 -0.25058,-4.81085 1.30294,-6.96571 1.30294,-6.96571 m -3.80399,18.46745 c -1.55219,-1.40638 -3.30599,-0.88841 -6.36896,0.10778 -3.00535,0.97744 -5.51243,0.8018 -6.66504,-0.95215 m 19.22859,2.50161 c 0.56485,-0.77907 0.54305,-1.86261 -0.77958,-2.69309 0,0 0.21262,-1.02762 1.24024,-1.45284 0.33623,-0.32238 0.66481,-1.33068 -0.14174,-2.23243 m 0.14174,2.23243 c 1.10185,0.51511 2.54394,0.94555 2.48047,2.62221 m -17.125,-20.37163 c 1.52229,-1.75087 3.01513,-1.62135 4.74354,-1.9519 m -12.16027,1.04986 c 1.09461,-2.45043 3.01321,-2.36045 4.60284,-2.942 m -45.037583,16.69158 c 0,0 -1.87633,-2.04462 -1.225897,-5.04662 0.651469,-3.00678 4.209495,-4.96118 5.211756,-6.61491 m -10.623964,9.6217 c 0,0 -0.851922,-3.00679 0.250565,-5.51244 1.102487,-2.50565 4.159382,-3.40768 4.660513,-5.26187 m -10.523738,6.86549 c 0,0 -0.701583,-2.60588 0.952147,-4.71063 1.653731,-2.10474 4.301124,-2.15486 5.261869,-3.79999 m -10.273172,2.19638 c 0,0 1.202713,-2.05464 3.658251,-3.0569 2.455539,-1.00226 4.560287,-0.25056 4.560287,-0.25056 m -9.671816,-1.45328 c 0,0 1.65373,-1.95441 3.95893,-2.35531 2.305199,-0.40091 3.507912,0.70158 3.507912,0.70158 m -7.76752,-3.75848 c 0,0 1.65373,-0.65147 3.958929,-0.50113 2.3052,0.15034 3.107009,1.45328 3.107009,1.45328 m -5.813113,-6.26413 c 0,0 2.004522,-0.40091 3.95893,0.75169 1.954409,1.1526 2.255087,2.70611 2.255087,2.70611 m -2.906556,-7.91786 c 0,0 2.054634,0.80181 3.107008,2.65599 1.052374,1.85418 0.801809,3.20723 0.801809,3.20723 m 1.202713,-7.81763 c 0,0 1.403165,1.00226 1.102486,3.00678 -0.300678,2.00452 -0.751695,2.95667 -0.701582,3.85871 m 1.553504,0.0501 c 0,0 2.405426,-1.40317 3.107008,-2.95667 0.701583,-1.5535 -0.05011,-2.85644 -0.05011,-2.85644 M 68.421,179.65524 c 0,0 1.904295,0.30068 3.758477,-0.35079 1.854183,-0.65147 2.204974,-1.70385 2.204974,-1.70385 m -5.512434,3.75848 c 0,0 0.83124,1.54999 2.906556,1.9043 2.054635,0.35078 3.207234,-0.7517 3.207234,-0.7517 m -7.817633,0.80181 c 0,0 -0.250566,1.90429 0.801808,3.50791 1.052374,1.60362 2.655991,2.00452 2.655991,2.00452 M 53.286862,175.44574 c 0,0 1.453279,1.95441 4.460061,1.55351 m -4.760739,-6.06368 c 0,0 1.353052,1.80407 3.908817,1.65373 m -3.758478,-6.21402 c 0,0 1.052374,1.70385 3.107009,1.95441 m -3.056896,-4.91108 c 0,0 1.904296,1.45328 3.006783,1.85419 m -2.856443,-4.51018 c 0,0 1.603617,0.60136 2.80633,2.10475 m -2.95667,-4.76074 c 0,0 1.453278,0.45102 2.95667,1.80407 m -3.056896,-3.75848 c 0,0 1.954409,0.50113 2.856443,0.85192 m -3.257347,-2.65599 c 0,0 1.804069,0.20046 2.856443,0.7517 m -3.30746,-2.60588 c 0,0 1.603617,0.25057 2.756217,0.50113 m -3.307461,-1.75395 c 0,0 1.202713,-0.40091 2.455539,0.15033 m -3.257347,-1.50339 c 0,0 1.052373,-0.50113 2.255086,-0.20045 m -3.107008,-1.10249 c 0,0 1.002261,-0.50113 2.154861,-0.20045"
           id="path1247"
           sodipodi:nodetypes="czcccccczsccccsccsccsccsccsccsccsccsccscczccsccccccccccccsccsccsccsccsccsccsccsccsccsccsccsccsc" />
        <path
           style="font-variation-settings:normal;vector-effect:none;fill:none;fill-opacity:1;stroke:#000000;stroke-width:0.79375;stroke-linecap:butt;stroke-linejoin:miter;stroke-miterlimit:4;stroke-dasharray:none;stroke-dashoffset:0;stroke-opacity:1;stop-color:#000000"
           d="m 66.216025,190.41284 c -2.567768,-2.45749 -3.206138,-4.78715 -2.939964,-7.63389 m -7.383321,0.86863 c 0.149128,-2.97217 1.12195,-5.23999 2.405424,-7.21629"
           id="path1210"
           sodipodi:nodetypes="cccc" />
        <path
           id="path1243"
           style="font-variation-settings:normal;vector-effect:none;fill:#000000;fill-opacity:1;stroke:none;stroke-width:0.264583;stroke-linecap:butt;stroke-linejoin:miter;stroke-miterlimit:4;stroke-dasharray:none;stroke-dashoffset:0;stroke-opacity:1;stop-color:#000000"
           d="m 159.53496,149.59552 c -1.20271,0.82687 -1.06251,3.19694 -0.42633,4.28501 0.65086,1.11316 1.62875,1.63832 2.40554,2.70578 l 1.30328,-0.75138 c -0.6076,-0.4067 -1.90899,-1.06365 -2.28048,-2.25516 -0.36302,-1.1643 -0.14487,-2.75644 0.1757,-3.35742 -1.40317,0.80181 -0.9524,3.15692 -0.9524,3.15692 -0.65147,-1.11332 -0.52599,-2.82086 -0.22531,-3.78375 z m -0.22582,10.80812 c 0,0 -1.73868,2.90299 -2.25981,4.81935 -0.50703,1.86451 -0.44977,3.04198 -1.07022,4.47776 1.54744,-0.89292 2.50923,-1.43872 3.72277,-2.69699 L 158.75,166.83529 Z m -7.96489,4.146 c 0,0 -1.28679,0.15502 -1.48828,1.62988 -0.19475,1.42561 1.20435,2.72836 0.92087,4.11034 -0.28348,1.38197 -0.49592,2.26822 0.10646,2.62258 0,0 0.0825,-1.72976 0.92139,-2.87063 0.88588,-1.20479 2.19779,-1.64633 2.62206,-2.69285 0.42426,-1.04652 -0.0705,-2.16164 -1.09813,-2.40968 -1.02763,-0.24804 -1.98437,-0.38964 -1.98437,-0.38964 z m -4.10776,3.84473 c -0.12652,0.31241 -0.24334,0.77059 -0.14469,1.25987 0.0986,0.48927 0.43889,0.9925 1.12913,1.31258 0.60243,0.27935 0.77322,0.36141 1.0175,0.76171 0.24428,0.4003 0.23666,0.62843 0.32918,1.10588 0.23577,-0.36895 0.23797,-0.91648 0.0754,-1.3255 -0.15402,-0.38768 -0.54481,-0.71889 -1.19993,-1.02268 -0.56732,-0.26308 -0.76473,-0.59609 -0.83354,-0.93741 -0.0688,-0.34132 0.0168,-0.70807 0.11679,-0.95498 z m 1.08675,4.28329 c -1.00064,-0.10833 -1.33661,0.40352 -1.46761,0.78513 -0.131,0.38163 0.0307,0.86005 0.39275,1.11311 -0.0199,-0.62461 0.10499,-1.29244 0.73225,-1.39061 0.62726,-0.0982 2.10765,1.06592 0.61133,2.82825 -1.52586,1.79712 -4.5744,3.13676 -4.5744,3.13676 l 0.20878,0.48628 c 0,0 3.10434,-1.32192 4.76766,-3.28094 1.58706,-1.8692 0.32988,-3.56964 -0.67076,-3.67798 z"
           sodipodi:nodetypes="csccsccccscccccsscssscccsscssscczscssccsz" />
        <path
           id="path1249"
           style="fill:#d9dadc;fill-opacity:1;stroke:none;stroke-width:0.529167;stroke-miterlimit:4;stroke-dasharray:none"
           d="m 153.08213,165.11808 a 1.2668441,1.3420137 0 0 1 0.0186,0.22996 1.2668441,1.3420137 0 0 1 -1.26659,1.34204 1.2668441,1.3420137 0 0 1 -1.1343,-0.74466 1.5925789,1.5925789 0 0 0 -0.0827,0.50488 1.5925789,1.5925789 0 0 0 1.59266,1.59267 1.5925789,1.5925789 0 0 0 1.59267,-1.59267 1.5925789,1.5925789 0 0 0 -0.72037,-1.33222 z" />
      </g>
      <g
         id="g1219">
        <path
           style="font-variation-settings:normal;opacity:1;vector-effect:none;fill:#007531;fill-opacity:1;stroke:none;stroke-width:0.79375;stroke-linecap:butt;stroke-linejoin:miter;stroke-miterlimit:4;stroke-dasharray:none;stroke-dashoffset:0;stroke-opacity:1;stop-color:#000000;stop-opacity:1"
           d="m 76.044085,212.63523 c 1.416907,-0.85019 2.111869,-1.33588 4.18136,-3.75614 2.069491,-2.42026 3.495592,-2.9765 4.106193,-3.31015 0,0 -0.704406,-1.43818 -2.121818,-2.00514 0,0 -2.409596,1.91351 -5.457029,0.42523 1.850812,-0.34562 2.341042,-0.74325 4.323103,-2.19699 2.125979,-1.5593 3.827008,-2.33873 3.827008,-2.33873 0,0 0.283483,-1.13393 -0.850446,-2.05524 -1.34402,0.74461 -3.020422,1.28106 -4.960937,0.49609 2.075461,-0.76034 2.780492,-1.68349 4.819196,-2.40959 2.038704,-0.7261 9.485489,-2.69602 15.869965,-3.03024 6.38447,-0.33422 17.07434,-0.5828 22.53683,0.80389 5.46249,1.3867 7.58818,4.77768 6.596,8.53382 -0.99219,3.75614 -4.05179,6.36115 -9.72143,9.42578 -5.54874,2.99928 -9.17034,4.65146 -12.60279,7.07489 -3.13062,2.21034 -5.10268,4.33527 -6.732704,5.82355 -1.630023,1.48828 -3.330916,1.27567 -3.330916,1.27567 0.883682,-0.98545 1.387264,-1.69641 2.480469,-3.47266 1.119101,-1.81832 1.798231,-2.47149 2.303291,-3.08287 -1.2223,-0.2864 -3.338681,-0.50471 -5.634206,0.95675 -2.552822,1.62527 -3.827009,3.04744 -6.165737,2.4096 1.160451,-0.60827 1.857671,-1.5285 2.763951,-3.04743 0.90628,-1.51893 2.62221,-2.90569 2.62221,-2.90569 -1.102263,-0.4724 -4.183984,-1.52276 -6.95391,-0.11238 -2.733895,1.39202 -3.775421,2.05524 -5.873657,1.38805 1.30128,-0.57977 1.742027,-0.97963 3.118304,-2.62221 1.376277,-1.64258 2.06558,-2.06824 3.047433,-2.74319 0,0 -2.603311,-2.58155 -6.023996,-0.87121 -3.420685,1.71035 -4.464845,2.12611 -6.165737,1.34654 z"
           id="path1228"
           sodipodi:nodetypes="czcccsccczzzsssscscsczcsczcsc" />
        <path
           style="font-variation-settings:normal;opacity:1;vector-effect:none;fill:#d9dadc;fill-opacity:1;stroke:none;stroke-width:0.529167;stroke-linecap:butt;stroke-linejoin:miter;stroke-miterlimit:4;stroke-dasharray:none;stroke-dashoffset:0;stroke-opacity:1;stop-color:#000000;stop-opacity:1"
           d="m 98.772794,222.28472 c 0,0 1.302936,-0.10022 1.804066,1.20272 -1.149455,0.58608 -1.647158,1.49804 -3.484824,1.74002 z m -6.514693,-3.00678 c 0,0 1.65373,0.15034 1.553504,2.00453 l -3.738449,1.05159 z m -7.166164,-4.30972 c 0,0 1.302938,0.60136 1.102486,2.15486 l -3.467208,0.46164 z m -6.113791,-4.71062 c 0,0 1.302939,0.25056 1.252826,1.95441 -1.305685,0.78546 -2.514217,0.85188 -3.565815,0.49818 z m 1.904296,-8.31877 c 0,0 1.202712,0.20046 1.202712,1.80407 -1.510647,0.3121 -2.961527,0.86328 -4.649068,0.4678 z m 2.004521,-5.96345 c 0,0 1.102487,0.25057 1.052374,1.50339 -1.350939,0.77742 -2.586018,0.76481 -4.105656,0.36126 z"
           id="path1226"
           sodipodi:nodetypes="cccccccccccccccccccccccc" />
        <path
           style="font-variation-settings:normal;opacity:1;vector-effect:none;fill:none;fill-opacity:1;stroke:#000000;stroke-width:0.79375;stroke-linecap:butt;stroke-linejoin:miter;stroke-miterlimit:4;stroke-dasharray:none;stroke-dashoffset:0;stroke-opacity:1;stop-color:#000000;stop-opacity:1"
           d="m 76.044085,212.63523 c 1.416907,-0.85019 2.111869,-1.33588 4.18136,-3.75614 2.069491,-2.42026 3.495592,-2.9765 4.106193,-3.31015 0,0 -0.704406,-1.43818 -2.121818,-2.00514 0,0 -2.409596,1.91351 -5.457029,0.42523 1.850812,-0.34562 2.341042,-0.74325 4.323103,-2.19699 2.125979,-1.5593 3.827008,-2.33873 3.827008,-2.33873 0,0 0.283483,-1.13393 -0.850446,-2.05524 -1.34402,0.74461 -3.020422,1.28106 -4.960937,0.49609 2.075461,-0.76034 2.780492,-1.68349 4.819196,-2.40959 2.038704,-0.7261 9.485489,-2.69602 15.869965,-3.03024 6.38447,-0.33422 17.07434,-0.5828 22.53683,0.80389 5.46249,1.3867 7.58818,4.77768 6.596,8.53382 -0.99219,3.75614 -4.05179,6.36115 -9.72143,9.42578 -5.54874,2.99928 -9.17034,4.65146 -12.60279,7.07489 -3.13062,2.21034 -5.10268,4.33527 -6.732704,5.82355 -1.630023,1.48828 -3.330916,1.27567 -3.330916,1.27567 0.883682,-0.98545 1.387264,-1.69641 2.480469,-3.47266 1.119101,-1.81832 1.798231,-2.47149 2.303291,-3.08287 -1.2223,-0.2864 -3.338681,-0.50471 -5.634206,0.95675 -2.552822,1.62527 -3.827009,3.04744 -6.165737,2.4096 1.160451,-0.60827 1.857671,-1.5285 2.763951,-3.04743 0.90628,-1.51893 2.62221,-2.90569 2.62221,-2.90569 -1.102263,-0.4724 -4.183984,-1.52276 -6.95391,-0.11238 -2.733895,1.39202 -3.775421,2.05524 -5.873657,1.38805 1.30128,-0.57977 1.742027,-0.97963 3.118304,-2.62221 1.376277,-1.64258 2.06558,-2.06824 3.047433,-2.74319 0,0 -2.603311,-2.58155 -6.023996,-0.87121 -3.420685,1.71035 -4.464845,2.12611 -6.165737,1.34654 z"
           id="path1216"
           sodipodi:nodetypes="czcccsccczzzsssscscsczcsczcsc" />
        <path
           style="font-variation-settings:normal;opacity:1;vector-effect:none;fill:none;fill-opacity:1;stroke:#000000;stroke-width:0.529167;stroke-linecap:butt;stroke-linejoin:miter;stroke-miterlimit:4;stroke-dasharray:none;stroke-dashoffset:0;stroke-opacity:1;stop-color:#000000;stop-opacity:1"
           d="m 98.772794,222.28472 c 0,0 1.302936,-0.10022 1.804066,1.20272 m -8.318759,-4.2095 c 0,0 1.65373,0.15034 1.553504,2.00453 m -8.719668,-6.31425 c 0,0 1.302938,0.60136 1.102486,2.15486 m -7.216277,-6.86548 c 0,0 1.302939,0.25056 1.252826,1.95441 m 0.65147,-10.27318 c 0,0 1.202712,0.20046 1.202712,1.80407 m 0.801809,-7.76752 c 0,0 1.102487,0.25057 1.052374,1.50339"
           id="path1222"
           sodipodi:nodetypes="cccccccccccc" />
        <path
           style="font-variation-settings:normal;opacity:1;vector-effect:none;fill:none;fill-opacity:1;stroke:#000000;stroke-width:0.529167;stroke-linecap:butt;stroke-linejoin:miter;stroke-miterlimit:4;stroke-dasharray:none;stroke-dashoffset:0;stroke-opacity:1;stop-color:#000000;stop-opacity:1"
           d="m 101.19131,219.15533 c 1.60647,-1.79686 3.84435,-3.35407 6.58489,-5.495 3.11044,-2.42989 6.27208,-4.99813 8.304,-7.69049 1.9525,-2.58713 3.52465,-6.23291 5.61094,-8.41284 2.08628,-2.17992 3.6488,-2.84443 4.49923,-2.60145 m -31.276278,21.39914 c 1.266203,-0.75972 4.165452,-3.56167 7.617178,-5.51244 3.45789,-1.95425 9.12058,-4.35983 13.27996,-4.51017 m -27.612285,6.01356 c 1.111305,-0.5593 2.483998,-1.63983 5.512434,-3.50791 3.101549,-1.91318 7.116051,-4.05916 12.027131,-5.06142 4.91108,-1.00226 9.77204,-0.90203 12.22758,-0.80181 m 1.70384,-2.90655 c 0,0 -7.36661,-0.65147 -13.0795,-0.35079 -5.71289,0.30067 -10.573851,1.00226 -14.68312,2.50565 -4.10927,1.50339 -5.712887,2.79773 -7.844471,3.58738 m 0.226246,-5.98925 c 1.78196,-0.7279 5.775095,-1.96659 11.376703,-3.06045 5.606922,-1.09491 16.214832,-0.7937 20.245662,-0.60136 3.92493,0.18728 6.5147,0.65147 6.5147,0.65147"
           id="path1224"
           sodipodi:nodetypes="csszccsccssccssccssc" />
      </g>
      <g
         id="g1203">
        <path
           style="color:#000000;font-style:normal;font-variant:normal;font-weight:normal;font-stretch:normal;font-size:medium;line-height:normal;font-family:sans-serif;font-variant-ligatures:normal;font-variant-position:normal;font-variant-caps:normal;font-variant-numeric:normal;font-variant-alternates:normal;font-variant-east-asian:normal;font-feature-settings:normal;font-variation-settings:normal;text-indent:0;text-align:start;text-decoration:none;text-decoration-line:none;text-decoration-style:solid;text-decoration-color:#000000;letter-spacing:normal;word-spacing:normal;text-transform:none;writing-mode:lr-tb;direction:ltr;text-orientation:mixed;dominant-baseline:auto;baseline-shift:baseline;text-anchor:start;white-space:normal;shape-padding:0;shape-margin:0;inline-size:0;clip-rule:nonzero;display:inline;overflow:visible;visibility:visible;opacity:1;isolation:auto;mix-blend-mode:normal;color-interpolation:sRGB;color-interpolation-filters:linearRGB;solid-color:#000000;solid-opacity:1;vector-effect:none;fill:#000000;fill-opacity:1;fill-rule:nonzero;stroke:none;stroke-linecap:butt;stroke-linejoin:miter;stroke-miterlimit:4;stroke-dasharray:none;stroke-dashoffset:0;stroke-opacity:1;color-rendering:auto;image-rendering:auto;shape-rendering:auto;text-rendering:auto;enable-background:accumulate;stop-color:#000000;stop-opacity:1"
           d="m 120.46484,99 c -1.85248,-0.499103 -2.51466,-2.324383 -1.67968,-3.808594 0.95349,-1.694855 1.12473,-1.85465 1.52929,-2.966797 l -6.53656,-6.745102 -14.59039,2.780259 c -0.740555,0.246851 -1.550887,0.502108 -2.285156,1.216796 -0.734269,0.714689 -1.364374,1.852152 -1.871094,3.806641 -0.421939,1.627477 -1.403448,2.367065 -2.306641,2.746094 -0.903192,0.379029 -1.480747,0.359375 -1.480747,0.359375 l 2.147699,5.494498 25.056729,1.20984 z"
           id="path1209"
           sodipodi:nodetypes="cscccssscccc" />
        <path
           style="font-variation-settings:normal;opacity:1;vector-effect:none;fill:#d9dadc;fill-opacity:1;stroke:#000000;stroke-width:0.79375;stroke-linecap:butt;stroke-linejoin:miter;stroke-miterlimit:4;stroke-dasharray:none;stroke-dashoffset:0;stroke-opacity:1;stop-color:#000000;stop-opacity:1"
           d="m 113.133,87.973959 c -4.18136,-0.496094 -7.60752,0.696266 -10.3471,0.921317 -1.17686,0.09668 -2.50963,0.01648 -3.472655,-0.259859 -0.96303,-0.27634 -1.922716,-1.213562 -1.842634,-2.574963 0.14174,-2.409597 1.275582,-2.76049 4.039619,-2.69308 2.90569,0.07087 4.03962,-0.779576 4.03962,-0.779576 1.9933,-3.618857 4.16071,-5.694751 7.58315,-7.016183 3.47459,-1.341564 5.31529,0.496094 5.31529,0.496094 -1.84263,1.630022 -2.48047,4.535714 -2.48047,4.535714 4.89007,2.834821 3.04743,7.370536 3.04743,7.370536 1.17774,1.730248 1.36678,3.05544 0.93348,4.098331 0,0 -2.63437,-3.602237 -6.81573,-4.098331 z"
           id="path1204"
           sodipodi:nodetypes="ssssscsccccs" />
        <path
           style="font-variation-settings:normal;opacity:1;vector-effect:none;fill:#d9dadc;fill-opacity:1;stroke:#000000;stroke-width:0.79375;stroke-linecap:butt;stroke-linejoin:miter;stroke-miterlimit:4;stroke-dasharray:none;stroke-dashoffset:0;stroke-opacity:1;stop-color:#000000;stop-opacity:1"
           d="m 91.800967,152.46615 c -2.128719,3.96688 -3.378032,9.15748 -5.693267,11.81175 0,0 -1.346539,-0.21261 -2.76395,-3e-5 0,0 -0.0038,2.44743 1.630023,5.45706 1.633802,3.00964 2.798381,3.34138 3.330915,5.95313 0.537612,2.63666 2.126116,4.25223 4.110491,6.66183 1.984375,2.4096 3.047433,3.47266 4.110491,5.95312 0,0 -1.559152,1.31111 -1.630022,4.00419 0,0 -1.417411,0.74414 -2.62221,2.37416 0,0 -1.701026,0.21245 -2.338727,1.98438 -0.532489,1.47959 -0.313444,2.24596 -0.425224,3.75614 0,0 1.559152,-0.56697 3.401786,-0.85045 1.842634,-0.28348 3.226972,-1.37961 3.401785,-3.1183 0,0 2.834822,-1.7009 3.968752,-3.11831 0,0 2.36708,-0.61893 2.69308,-1.48828 0.326,-0.86935 0.28348,-3.54352 0,-4.39397 -0.24754,-0.74263 -1.13393,-0.4961 -1.13393,-0.4961 0,0 -0.56696,-1.84263 -1.913504,-3.75614 -1.331631,-1.89232 -1.419212,-3.18892 -1.771764,-5.74051 -0.350335,-2.53554 -2.267295,-4.4425 -3.543526,-5.24442 -1.276231,-0.80192 -2.196987,-2.05524 -2.196987,-2.05524 0,0 0.921317,-2.33873 3.472657,-5.45703 2.551339,-3.11831 6.732704,-6.66183 7.583144,-10.70146 0.85045,-4.03962 -8.646203,-4.96093 -8.646203,-4.96093 0,0 -2.504093,0.82683 -3.02381,3.42541 z m 16.229353,3.09468 c 0,0 -0.0372,3.98952 0.0415,8.04484 0.0702,3.6165 0.31284,5.42056 0.87981,7.47581 0.56696,2.05524 0.51848,3.42041 0.28348,3.96874 -0.235,0.54834 -1.59167,2.20199 -2.26786,4.53572 -0.699,2.41243 0.29294,4.48374 0.92132,5.74051 0.62838,1.25677 -0.21261,6.44922 -0.77958,8.85882 l -0.7087,0.0708 c 0,0 0.31891,2.65765 1.38197,4.78376 l 0.7087,-0.31885 c 0,0 0.28285,1.87571 0.10632,4.46485 -0.17654,2.58913 0.21261,3.40178 1.41741,4.60658 1.13393,1.13393 1.9135,2.62221 1.9135,2.62221 0,0 1.2048,-1.84263 2.33873,-4.03962 1.13393,-2.19699 0.92131,-3.33091 -0.0709,-5.59877 -0.99219,-2.26786 -1.45285,-4.57115 -1.38198,-6.41379 l -0.38976,-0.24808 c 0,-1.26222 0.42523,-3.6925 1.98438,-6.94531 1.58966,-3.31647 2.48047,-6.16574 1.84263,-8.57534 -0.63783,-2.4096 -0.28348,-3.68527 0.35436,-6.23661 0.63783,-2.55134 1.10508,-4.21443 -0.14175,-6.44922 0,0 1.77177,-6.16573 1.48829,-9.851 z"
           id="path1412"
           sodipodi:nodetypes="cccssscccscsccsscsszcsscccsszssccccsscssccsssccc" />
        <path
           style="font-variation-settings:normal;opacity:1;vector-effect:none;fill:#d9dadc;fill-opacity:1;stroke:#000000;stroke-width:0.79375;stroke-linecap:butt;stroke-linejoin:miter;stroke-miterlimit:4;stroke-dasharray:none;stroke-dashoffset:0;stroke-opacity:1;stop-color:#000000;stop-opacity:1"
           d="m 97.916816,134.29483 c 0,0 -1.692522,1.80378 -0.85927,6.00234 0,0 -3.130462,2.60145 -5.256578,4.37322 -2.126116,1.77176 -2.661123,2.64037 -2.126116,3.43114 0.466598,0.68965 1.317184,-0.0129 1.317184,-0.0129 0,0 0.717304,0.34652 0.992188,0.96713 -0.421385,0.43504 -1.265371,0.85078 -1.408813,1.90994 -0.127347,0.94032 1.225557,1.50045 1.225557,1.50045 0,0 0.869153,-0.89546 1.736328,-1.48828 5.573435,-0.16136 8.112274,3.9954 12.012554,4.81919 0,0 0.22748,1.26454 1.06539,1.34072 0.83791,0.0762 1.06097,-0.95215 1.06097,-0.95215 0.46772,-0.12205 0.93545,-0.0606 1.40317,0.10023 0,0 0.11823,1.23048 1.05845,1.37381 1.06028,0.16164 1.11927,-0.78625 1.22169,-1.22347 0.55124,-0.14915 1.20272,-0.18741 1.75396,-0.0501 0.0367,0.44543 -0.0228,1.50285 1.00226,1.47833 1.03406,-0.0247 0.9772,-1.47833 0.9772,-1.47833 0.50526,-0.17089 1.09103,-0.2104 1.80407,-0.0501 0,0 0.20045,0.91874 1.10249,0.81851 0.90203,-0.10022 1.10248,-0.85192 1.00226,-1.80407 0,0 0.75169,-0.284 1.70384,-0.13366 0,0 0.38431,1.01701 1.2088,0.50973 0.82448,-0.50728 -0.10631,-2.66459 -0.40699,-5.22036 -0.30068,-2.55576 -0.0501,-6.31424 -1.30294,-8.87 z"
           id="path1371"
           sodipodi:nodetypes="ccssccscccsccsccsccscczscc" />
        <path
           style="font-variation-settings:normal;opacity:1;vector-effect:none;fill:#d9dadc;fill-opacity:1;stroke:#000000;stroke-width:0.79375;stroke-linecap:butt;stroke-linejoin:miter;stroke-miterlimit:4;stroke-dasharray:none;stroke-dashoffset:0;stroke-opacity:1;stop-color:#000000;stop-opacity:1"
           d="m 98.288368,126.31826 c 0,0 -1.403165,2.46955 -1.804069,4.2095 -0.390666,1.69551 -0.07087,2.76481 1.43252,3.76707 0,0 0.37155,2.34672 2.376071,2.44694 0,0 0.60136,1.50339 2.40543,1.20272 0,0 1.00226,1.10248 2.7061,0.60135 0,0 0.90204,1.00226 2.40543,0.30068 0,0 1.30294,1.40317 3.50791,0.20045 l -1.37037,-6.5908 z"
           id="path1356"
           sodipodi:nodetypes="cscccccccc" />
        <path
           style="font-variation-settings:normal;vector-effect:none;fill:#d9dadc;fill-opacity:1;stroke:#000000;stroke-width:0.79375;stroke-linecap:butt;stroke-linejoin:miter;stroke-miterlimit:10;stroke-dasharray:none;stroke-dashoffset:0;stroke-opacity:1;stop-color:#000000"
           d="m 92.745908,99.785715 c 0,0 -2.62221,-5.031808 -2.905692,-10.630581 0,0 2.607185,-5.45742 -0.962831,-10.512463 -3.570016,-5.055044 -6.655017,-6.31501 -10.625847,-6.787668 -3.970829,-0.472658 -8.135739,-0.07011 -12.661205,4.065233 -6.898065,6.303405 -9.52471,16.38368 -9.27188,27.031034 0.25288,10.64945 1.842634,18.14285 4.252232,29.3404 2.409598,11.19754 4.535714,21.68638 6.094866,29.62388 0,0 1.417411,-1.48828 1.700893,-3.75614 l 0.496094,2.19699 c 0,0 1.204799,-1.48829 2.055245,-3.54353 1.017119,-1.00216 2.034772,-2.24549 2.338728,-4.46484 1.701113,-1.3341 2.295041,-3.39275 2.69308,-6.66183 0,0 1.559152,-1.84264 2.196987,-6.87444 0.637835,-5.03181 0.358652,-18.2889 0.358652,-18.2889 0,0 1.342241,-1.9092 1.554852,-5.09838 0,0 0.850446,3.26004 2.409598,5.31529 0,0 1.417411,-2.69308 1.559152,-5.88225 0,0 0.850447,3.827 3.189174,6.7327 0,0 0.708706,-1.7009 0.921317,-4.25223 0,0 0.566965,3.33091 2.763951,5.5279 0,0 1.063058,-2.05525 1.204798,-4.53571 0,0 0.566965,3.54352 2.905691,5.24441 0,0 1.513035,-1.76245 1.700895,-6.52009 l 1.037582,-8.37782 z"
           id="path1236"
           sodipodi:nodetypes="cczzsssccccccscccccccccccc" />
        <path
           id="path1315"
           style="font-variation-settings:normal;vector-effect:none;fill:none;fill-opacity:1;stroke:#000000;stroke-width:0.529167;stroke-linecap:butt;stroke-linejoin:bevel;stroke-miterlimit:4;stroke-dasharray:none;stroke-dashoffset:0;stroke-opacity:1;stop-color:#000000"
           d="m 80.169967,103.26077 c 1.323092,-1.1047 2.09839,-2.65849 2.240827,-4.607621 0.689851,2.468521 1.747218,3.440591 3.210733,4.442281 M 80.30967,96.307624 c 0,0 0.637609,1.343837 2.101124,2.345525 1.323092,-1.104702 2.09839,-2.658494 2.240827,-4.607626 0.389173,2.21795 0.921091,3.04473 2.384606,4.046418 m -5.194435,-8.58893 c 0.389173,2.21795 1.346314,3.540824 2.809829,4.542512 1.323092,-1.104702 2.240131,-2.587624 2.59518,-4.324144 m -2.721875,-1.463938 c 0,0 0.626631,1.616086 2.120514,2.012842 M 68.329535,80.298532 c -0.06518,1.605753 0.219508,3.303893 1.441056,4.594099 1.48925,-0.896831 2.661228,-2.799573 3.284601,-5.071414 0,0 -0.223904,3.451663 1.973082,5.294297 M 64.477969,82.109901 c 0.147427,1.889235 0.644731,4.083469 1.866279,5.373675 1.315137,-0.31295 2.332827,-1.102675 3.426343,-2.590945 0.413615,1.41378 0.733468,2.714952 1.919955,3.882445 1.014459,-0.463289 1.831697,-1.244416 2.574421,-2.181443 M 61.729932,85.084555 c 0.147427,1.889235 0.751037,3.883017 1.972585,5.173223 1.031655,-0.525562 1.748667,-1.185705 2.641731,-2.774201 0.330462,2.276661 1.387829,4.112825 2.751118,5.615643 1.323092,-1.104702 2.240131,-2.587624 2.59518,-4.324144 0,0 0.305183,3.199051 2.409931,4.301537 m -14.41028,-3.791085 c 0.230015,2.947569 1.187377,4.455019 2.609377,5.845451 1.252221,-1.317314 1.189635,-2.99494 1.402943,-4.873201 0.312602,4.005902 1.788733,6.158862 3.010281,7.449068 1.252221,-1.317314 2.16926,-2.729365 2.382568,-4.607626 0.03957,2.185794 0.498058,3.635084 1.581683,5.676539 1.252221,-0.901939 1.84244,-1.839004 2.104526,-2.626712 0,0 -0.08832,1.909515 1.415074,3.212454 m 4.308581,21.161359 c -0.885982,-1.41887 -1.525031,-2.39349 -2.113253,-4.44823 -0.310881,-1.08595 -0.546316,-2.23215 -0.679249,-3.69538 -0.11859,-1.30535 -0.155604,-2.86302 -0.09183,-4.85529 M 60.837225,106.4735 c 0,0 2.085381,-1.59929 2.01451,-6.135 m -0.552161,-5.207521 c 0.06412,1.798293 0.255315,3.39555 0.552161,5.207521 0.15603,0.95243 0.341249,1.8811 0.552544,2.75907 0.613281,2.54829 1.842409,5.43334 2.479797,6.31684 0,0 1.557629,-1.93627 1.345018,-5.4798 m -0.516296,-6.227764 c 0.06211,1.884933 0.240367,4.123974 0.516296,6.227764 0.170173,1.29746 0.377495,2.54347 0.61763,3.62324 0.629505,2.83057 1.891141,5.36722 2.545388,6.34859 0,0 0.955668,-0.82155 1.026539,-3.5855 M 70.677049,98.775759 c -0.244701,4.258921 0.230081,8.725071 0.741602,11.545181 0.17287,0.95306 0.349936,1.71812 0.504845,2.22365 0.613281,2.00138 1.488055,3.65321 2.408925,4.84319 0,0 1.238566,-1.53587 1.380307,-5.00853 m 4.347354,3.04523 c 0,0 -0.47247,-3.49628 -0.47247,-5.76414 m 4.44122,5.19718 c 0,0 -0.54334,-3.28367 -0.47247,-5.69327 m 4.582961,8.17374 c 0,0 -0.401599,-5.19718 -0.47247,-7.81939 m 4.441219,8.81158 c 0,0 -0.472469,-6.61459 -0.118116,-9.66202 m -5.905878,-5.81139 c 0.905611,-4.091432 1.772689,-7.43942 1.275669,-11.977119 M 68.366443,158.15941 c -0.212612,-3.00714 -0.513392,-5.09039 -1.214974,-10.29254 -0.716133,-5.31005 -3.282144,-18.3097 -4.710625,-27.2615 -1.428481,-8.9518 -1.603619,-14.13187 -1.603619,-14.13187 0,0 -1.302938,-3.60814 -1.80407,-9.02035 -0.501129,-5.412208 0.437,-10.926783 5.011304,-14.862813 4.574304,-3.936031 11.029415,-3.419844 15.004066,-0.297116 m -8.381307,74.820329 c 0.590742,-2.95371 -0.475558,-7.91034 -1.578045,-17.73249 -1.102488,-9.82216 -3.207234,-29.9676 -3.207234,-29.9676 m 7.124007,43.93683 c 0.433096,-2.91685 0.282251,-6.87149 -0.509086,-15.47262 -0.802239,-8.71963 -2.104748,-23.97123 -2.104748,-23.97123 m 5.357027,32.68179 c 0.292138,-3.56117 -0.345723,-11.41667 -0.646401,-17.63068 -0.300678,-6.21402 -0.772454,-11.57256 -0.772454,-11.57256"
           sodipodi:nodetypes="ccccccccccccccccccccccccccccccccccccssccccsscccsscccsscccccccccccccsscssccsccsccsc" />
        <path
           style="font-variation-settings:normal;opacity:1;vector-effect:none;fill:none;fill-opacity:1;stroke:#000000;stroke-width:0.79375;stroke-linecap:butt;stroke-linejoin:miter;stroke-miterlimit:4;stroke-dasharray:none;stroke-dashoffset:0;stroke-opacity:1;stop-color:#000000;stop-opacity:1"
           d="m 107.80985,138.84652 c 0,0 0.20045,-2.50565 0.50112,-4.00904 m -2.90655,3.70836 c 0,0 0.26355,-2.73427 0.83051,-5.21474 m -3.53661,4.61339 c 0,0 0.48918,-2.9125 1.19789,-5.03861 m -3.60332,3.83589 c 0,0 0.62675,-2.91457 1.26459,-4.89895 m -3.640661,2.45201 c 0,0 0.664096,-2.45201 1.656284,-4.29464"
           id="path1358"
           sodipodi:nodetypes="cccccccccc" />
        <path
           style="font-variation-settings:normal;opacity:1;vector-effect:none;fill:#d9dadc;fill-opacity:1;stroke:#000000;stroke-width:0.79375;stroke-linecap:butt;stroke-linejoin:miter;stroke-miterlimit:4;stroke-dasharray:none;stroke-dashoffset:0;stroke-opacity:1;stop-color:#000000;stop-opacity:1"
           d="m 114.97601,100.02562 c 2.25508,0.60136 2.65599,2.15486 2.65599,2.15486 l -2.23838,28.68136 c 0,0 -3.70837,3.30746 -9.72193,2.50565 -6.013564,-0.8018 -6.414469,-4.51017 -6.915599,-6.01356 -0.50113,-1.50339 -1.503391,-2.10475 -1.80407,-5.61266 -0.300674,-3.50791 -0.330034,-8.18513 -0.330034,-8.18513 l 3.580353,-14.02099 c 0,0 1.36008,-1.347007 3.81562,-1.39712 2.28345,1.93046 6.81022,1.846298 8.65285,0.08352 1.75395,0.200453 2.3052,1.80407 2.3052,1.80407 z"
           id="path1146"
           sodipodi:nodetypes="cccsssccccc" />
        <path
           style="font-variation-settings:normal;opacity:1;vector-effect:none;fill:#d9dadc;fill-opacity:1;stroke:#000000;stroke-width:0.79375;stroke-linecap:butt;stroke-linejoin:miter;stroke-miterlimit:4;stroke-dasharray:none;stroke-dashoffset:0;stroke-opacity:1;paint-order:fill markers stroke;stop-color:#000000;stop-opacity:1"
           d="m 124.04706,97.848585 c 0,0 2.55134,-3.543527 4.03962,-7.370534 0,0 -2.57023,-7.424045 1.13814,-13.337383 3.70836,-5.913339 10.22306,-7.116051 16.33685,-4.710626 6.11379,2.405426 9.72193,7.116051 11.526,12.628486 1.80406,5.512434 1.50339,10.423511 1.20271,18.441602 -0.30068,8.01808 -2.40543,19.34363 -3.60814,25.85832 -1.20271,6.5147 -4.00904,16.43708 -5.21176,22.85155 -1.20271,6.41447 -1.40316,8.36531 -1.40316,8.36531 0,0 -1.60257,-0.84228 -2.1989,-2.41802 0,0 -1.76863,-0.78209 -2.21105,-3.24119 0,0 -2.40542,-0.60136 -3.00678,-4.51017 0,0 -2.7061,-1.10249 -2.80633,-6.31425 -0.61828,-0.80697 -1.83405,-1.65957 -1.80407,-8.41899 0.0317,-7.14516 0.60136,-19.14318 0.60136,-19.14318 z"
           id="path1011" />
        <g
           id="g998">
          <path
             style="font-variation-settings:normal;opacity:1;vector-effect:none;fill:#d9dadc;fill-opacity:1;stroke:#000000;stroke-width:0.79375;stroke-linecap:butt;stroke-linejoin:miter;stroke-miterlimit:4;stroke-dasharray:none;stroke-dashoffset:0;stroke-opacity:1;stop-color:#000000;stop-opacity:1"
             d="m 107.95226,134.14276 c 1.63416,5.98903 6.04886,7.9928 8.44575,8.19667 2.3969,0.20389 5.54972,-0.12158 9.4719,-4.04376 0.62458,-0.62458 1.22797,-1.30955 1.80798,-2.03622 0.81088,-1.01591 1.57608,-2.11333 2.28965,-3.24116 1.98125,-3.13151 3.56443,-6.49756 4.62203,-9.00484 1.27815,-3.03015 2.79197,-7.4231 3.47606,-11.76414 0.23164,-1.46996 0.36815,-2.93398 0.36815,-4.33711 0,-3.67428 -0.99321,-6.14411 -2.08033,-7.74415 -0.55402,-0.815423 -1.13243,-1.404946 -1.6162,-1.812864 -1.43302,-1.208343 -5.84176,-3.540415 -11.62623,-0.601357 -5.7847,2.939181 -9.79894,8.306511 -13.05283,16.098381 -3.25389,7.79188 -3.7164,14.38837 -2.10593,20.29055 z"
             id="path861"
             sodipodi:nodetypes="szssssssssszs" />
          <path
             style="font-variation-settings:normal;opacity:1;vector-effect:none;fill:none;fill-opacity:1;stroke:#000000;stroke-width:0.529167;stroke-linecap:butt;stroke-linejoin:miter;stroke-miterlimit:4;stroke-dasharray:none;stroke-dashoffset:0;stroke-opacity:1;stop-color:#000000;stop-opacity:1"
             d="m 134.73725,98.355186 c -1.01762,-0.246634 -1.97712,-0.424894 -3.05662,-0.377976 -1.28855,0.056 -2.74808,0.432844 -4.68152,1.397208 -0.50677,0.25277 -1.04528,0.591613 -1.60626,1.008992 -1.27989,0.95228 -2.67675,2.31338 -4.08052,3.99383 -1.7009,2.03615 -3.41196,4.54115 -4.93742,7.35582 -0.59613,1.09994 -1.16393,2.24719 -1.69169,3.43222 -0.31723,0.71231 -0.60761,1.41121 -0.87231,2.09704 -1.36293,3.53126 -2.04501,6.71586 -2.20576,9.599 -0.0909,1.62958 -0.0152,3.16286 0.19826,4.608 0.14045,0.95097 0.34055,1.86377 0.59209,2.74073 0.4753,1.65709 1.30515,3.08291 2.35308,4.19919 1.38919,1.47981 3.16159,2.41565 4.9992,2.62519 1.14123,0.13014 2.30761,-0.0198 3.42297,-0.49364"
             id="path874"
             sodipodi:nodetypes="cssssssssssssc" />
          <circle
             style="opacity:1;fill:#d6b268;fill-opacity:1;stroke:#000000;stroke-width:0.529167;stroke-miterlimit:4;stroke-dasharray:none;paint-order:fill markers stroke"
             id="path876"
             cx="113.2035"
             cy="113.16334"
             r="1.2671936" />
          <circle
             style="fill:#d6b268;fill-opacity:1;stroke:#000000;stroke-width:0.529167;stroke-miterlimit:4;stroke-dasharray:none;paint-order:fill markers stroke"
             id="path876-3"
             cx="122.60138"
             cy="100.25819"
             r="1.0735657" />
          <circle
             style="fill:#d6b268;fill-opacity:1;stroke:#000000;stroke-width:0.529167;stroke-miterlimit:4;stroke-dasharray:none;paint-order:fill markers stroke"
             id="path876-2"
             cx="109.49944"
             cy="129.55237"
             r="1.2671936" />
          <ellipse
             style="fill:#d6b268;fill-opacity:1;stroke:#000000;stroke-width:0.529167;stroke-miterlimit:4;stroke-dasharray:none;paint-order:fill markers stroke"
             id="path876-3-1"
             cx="133.39017"
             cy="125.07337"
             rx="1.2239048"
             ry="1.0735657"
             transform="rotate(7.3278967)" />
          <path
             id="path962"
             style="font-variation-settings:normal;opacity:1;vector-effect:none;fill:none;fill-opacity:1;stroke:#000000;stroke-width:2;stroke-linecap:butt;stroke-linejoin:miter;stroke-miterlimit:4;stroke-dasharray:none;stroke-dashoffset:0;stroke-opacity:1;stop-color:#000000;stop-opacity:1"
             d="m 497.69141,370.30664 c 0,0 4.35351,2.52228 4.35351,7.55274 0,5.03048 -2.46939,13.28485 -9.08984,32.95703 -3.58192,10.64339 -8.87319,24.79063 -13.79883,37.44921 -13.16607,-5.48197 -29.61816,-12.52053 -33.61523,-14.7832 -5.4635,-3.09282 -6.42024,-7.76788 -5.69922,-11.18359 m 70.47461,42.05664 c -3.78807,-5.11389 -7.00701,-6.25126 -18.75,-10.98633 -1.23553,-0.4982 -3.22259,-1.32346 -4.78907,-1.96484 6.82234,-17.90616 13.64431,-36.79033 16.4043,-45.07032 4.9245,-14.77345 6.06084,-22.53978 7.19727,-25.38086 1.13642,-2.84103 3.64683,-2.55462 4.97265,-2.36523 m -62.76172,154.45508 c 0,0 -3.26616,-3.92026 1.34766,-11.55078 4.61382,-7.63057 10.60561,-18.18422 18.75,-35.41992 2.77686,-5.87658 6.88415,-16.00103 11.2168,-27.17579 4.62809,1.87882 11.47752,4.66656 12.96484,5.26954 6.00794,2.43564 7.95362,5.4911 9.84766,8.90039 m -76.56446,-29.8711 c 0,0 2.37184,-5.67769 11.78907,-1.56836 5.70249,2.48836 20.62113,8.58783 34.26953,14.14258 -3.01573,7.60782 -5.71809,14.21678 -7.5,18.30859 -5.11389,11.74303 -16.47822,37.69115 -22.91797,44.13086 -6.43971,6.43971 -12.09766,4.91211 -12.09766,4.91211 M 458.5033,394.49666 c 0,0 4.88957,-1.55022 6.49671,4.34263 1.60714,5.89286 9.91071,47.41072 9.91071,47.41072 m 6.96429,-5.625 c 0,0 -7.44692,-35.81375 -9.10714,-44.19643 -1.6363,-8.26188 -2.23783,-9.90235 1.15787,-17.02671 m 16.5207,62.56242 c 0,0 12.58928,-9.375 21.16071,-17.41071 8.57143,-8.03572 11.60714,-16.69644 11.60714,-16.69644 m -33.83928,44.82144 c 0,0 9.375,-5.89286 17.94643,-13.92857 8.57143,-8.03572 14.50142,-14.50064 14.50142,-14.50064 m -48.92107,39.67921 c 0,0 -12.45535,12.05357 -27.1875,19.55357 -14.73214,7.5 -20.31829,7.26598 -23.15022,13.40977 m -0.74932,-17.41606 c 0,0 4.5424,2.83605 11.57811,0.25629 7.03572,-2.57976 30.80358,-17.41071 38.83929,-25.44643 m 7.5,15.26786 c 2.79688,15.04385 3.16694,29.28462 2.82996,45.44277 m 8.6538,-12.25005 c -0.40663,-15.18809 -1.06905,-28.78939 -4.51947,-42.83558"
             transform="scale(0.26458333)"
             sodipodi:nodetypes="csscsccscssccsscsccscssccsccsccsccsccsccsccccc" />
        </g>
        <path
           id="path1045"
           style="font-variation-settings:normal;opacity:1;vector-effect:none;fill:none;fill-opacity:1;stroke:#000000;stroke-width:0.529167;stroke-linecap:butt;stroke-linejoin:miter;stroke-miterlimit:4;stroke-dasharray:none;stroke-dashoffset:0;stroke-opacity:1;stop-color:#000000;stop-opacity:1"
           d="m 145.07923,78.584795 c -0.0548,1.749671 -0.56525,3.552229 -2.07603,4.549099 0,0 -1.36727,-0.465875 -1.8684,-3.491077 -0.18362,3.557576 -1.02408,4.536819 -2.37168,5.451128 0,0 -0.92484,-0.720013 -1.34294,-2.836045 -0.0537,3.941487 -2.39599,5.108938 -2.39599,5.108938 0,0 -0.40389,-0.441573 -0.81835,-1.551687 m 12.9458,-4.503135 c -0.30788,2.364267 -1.03704,3.692496 -2.19702,5.09027 0,0 -1.55052,-0.644095 -1.95142,-3.268392 -0.28385,2.755767 -1.01801,4.18959 -2.18843,5.529122 0,0 -1.55051,-0.231043 -2.05165,-3.569071 -0.35438,3.540583 -1.78751,5.040155 -1.78751,5.040155 0,0 -1.54878,-0.406925 -1.95142,-2.767262 0,0 0.0529,3.153674 -2.01449,5.167405 0,0 -0.65639,-0.501574 -1.18943,-1.540759 m 19.00922,-10.85142 c 0.14914,3.137824 -1.57609,4.989588 -1.57609,4.989588 0,0 -2.13974,-2.055854 -2.10176,-3.819636 0.038,-1.763781 0.18069,-2.534322 0.18069,-2.534322 m 5.74927,3.430049 c 0.22459,4.725324 -2.07722,6.693431 -2.07722,6.693431 0,0 -1.42601,-1.244219 -1.75098,-3.769522 -0.3995,3.12456 -0.88669,4.243739 -2.1469,5.541287 0,0 -1.65075,-1.245451 -2.15188,-4.270653 -0.18362,3.557576 -0.81755,4.790946 -1.98797,6.130478 0,0 -1.45029,-0.832399 -2.15188,-3.869748 -0.0537,3.941487 -1.78751,5.340832 -1.78751,5.340832 0,0 -1.60762,-0.551304 -2.05165,-3.869748 0,0 0.25337,4.005595 -2.01449,5.9191 0,0 -1.80967,-0.755006 -1.95142,-3.518957 0,0 -0.0932,3.081431 -2.04763,4.183918 M 155.23348,86.37817 c 0.12436,4.224193 -2.57835,7.194561 -2.57835,7.194561 0,0 -1.50901,-1.340646 -1.65075,-4.671557 -0.68293,4.35531 -1.4415,5.341189 -2.60148,6.939415 0,0 -1.2964,-1.34064 -1.2964,-5.16765 -0.38407,4.158932 -0.93497,5.299203 -2.318,6.443319 0,0 -1.42094,-1.546145 -1.82185,-4.583494 -0.35435,5.244426 -2.28864,5.930034 -2.28864,5.930034 0,0 -1.50739,-0.839827 -1.65075,-4.45895 0,0 -0.0516,4.179827 -2.31946,6.093332 0,0 -1.60493,-1.280029 -1.74668,-4.04398 m 18.71886,9.31781 c 0,0 -1.30833,-0.81335 -1.66268,-4.07339 m 0.63783,-7.724889 c 0,0 0.0516,3.327856 -0.63783,7.724889 -0.68293,4.35531 -2.1502,6.82947 -2.81409,7.64812 0,0 -1.36727,-1.41151 -1.36727,-5.23852 m -9.56752,6.09486 c 0,0 1.06305,-1.27567 1.63002,-3.89788 0.56696,-2.62221 0.77957,-7.441402 0.77957,-7.441402 m 4.11049,-1.34654 c 0,0 0.0709,2.834821 -1.06305,8.575332 -1.13393,5.74052 -2.841,7.26319 -2.841,7.26319 0,0 -1.34036,-1.87703 -0.98601,-7.05058 m 8.50446,-10.063611 c 0,0 0.29796,4.05825 -0.56696,7.866631 -0.88016,3.87545 -1.6718,6.22851 -2.84222,7.86872 0,0 -1.26827,-1.84474 -1.26827,-5.88435 m -13.09747,-9.040249 c 0,0 0.80181,-11.125092 8.71967,-15.935944 7.91786,-4.810853 14.12478,-0.334289 15.88583,5.662773 1.85419,6.314242 1.24067,14.2843 -1.5535,18.99284 0,0 0,4.51018 -1.10249,12.72871 -1.10248,8.21854 -2.50565,14.83346 -4.40994,24.9563 -1.9043,10.12283 -2.18066,11.87334 -2.19282,15.20758 m -2.19208,-3.14705 c 0,0 -0.593,-4.81085 1.01062,-12.62848 1.60361,-7.81764 4.00904,-29.03216 4.40994,-33.54233 m -4.20949,2.6302 c 0,0 -0.4009,6.08947 -1.30294,14.20778 -0.90203,8.11831 -2.54741,17.4477 -2.91491,24.79761 m -2.83138,-6.23908 c 0,0 1.03566,-8.53592 1.9377,-17.65649 0.90203,-9.12057 1.00226,-13.73098 1.00226,-13.73098"
           sodipodi:nodetypes="ccccccccccccccccccscccccccccccccccccccccccccccccccsccscccscccsscssccsccsccsc" />
        <path
           style="font-variation-settings:normal;opacity:1;vector-effect:none;fill:#d9dadc;fill-opacity:1;stroke:#000000;stroke-width:0.79375;stroke-linecap:butt;stroke-linejoin:miter;stroke-miterlimit:4;stroke-dasharray:none;stroke-dashoffset:0;stroke-opacity:1;stop-color:#000000;stop-opacity:1"
           d="m 88.132122,101.12811 c -0.637367,0.24786 -1.740408,0.59216 -1.94174,1.90584 -0.208458,1.36017 4.004186,-0.0354 4.004186,-0.0354 0,0 -0.652232,-1.33121 -2.062446,-1.8704 z"
           id="path1140"
           sodipodi:nodetypes="cscc" />
        <path
           style="font-variation-settings:normal;opacity:1;vector-effect:none;fill:#d9dadc;fill-opacity:1;stroke:#000000;stroke-width:0.79375;stroke-linecap:butt;stroke-linejoin:miter;stroke-miterlimit:4;stroke-dasharray:none;stroke-dashoffset:0;stroke-opacity:1;stop-color:#000000;stop-opacity:1"
           d="m 74.673919,96.218564 c -0.05378,2.030149 -1.280654,3.364399 -0.992187,5.527896 l 5.669643,1.41742 c 0.771878,-2.81066 0.666934,-4.860465 1.133929,-8.008374 z m 5.811386,8.291856 c 3.619019,-2.48123 6.886614,-1.29569 10.205358,-2.26786 l 3.614397,6.59096 c -4.392526,1.64886 -7.855756,1.28637 -12.614955,1.77176 z"
           id="path1127"
           sodipodi:nodetypes="cccccccccc" />
        <path
           id="path1148"
           style="font-variation-settings:normal;opacity:1;vector-effect:none;fill:#fdd5a4;fill-opacity:1;stroke:none;stroke-width:0.999999;stroke-linecap:butt;stroke-linejoin:miter;stroke-miterlimit:4;stroke-dasharray:none;stroke-dashoffset:0;stroke-opacity:1;stop-color:#000000;stop-opacity:1"
           d="m 424.70508,334.47461 c -1.2356,0.026 -2.1542,0.28199 -2.375,0.3457 2.82179,1.71896 2.82226,5.67969 2.82226,5.67969 -1.55332,2.46295 -4.8663,3.28104 -8.59961,2.04102 -4.56196,-1.51527 -4.93164,-6.6875 -4.93164,-6.6875 -5.56645,3.75529 -6.04297,11.73632 -6.04297,11.73632 0,0 -0.4515,8.93899 4.58204,14.15235 2.51599,2.60587 4.94031,3.13238 6.67968,2.67187 1.55104,-0.41064 2.59858,-1.59173 2.78516,-3.08984 -1.94949,-1.11425 -2.77523,-3.11357 -3.2207,-5.45117 2.22674,-0.23857 3.56883,-0.22813 5.5039,-0.0957 -1.425,-0.50924 -2.56352,-1.00809 -2.74218,-2.96093 -0.17866,-1.95284 1.2815,-3.45613 3.55468,-3.15821 l 0.27149,1.51563 c -1.26439,-0.055 -2.35242,0.20318 -2.35742,1.3164 -0.005,1.11321 0.87038,1.66949 1.86914,1.86719 0.28815,-1.21374 1.00835,-2.42462 1.82226,-3.88672 0.86718,-1.55778 1.83988,-3.38148 2.54688,-5.61132 1.26176,-3.97962 1.12301,-7.91257 0.97656,-9.6211 -0.93244,-0.62369 -2.10572,-0.78556 -3.14453,-0.76367 z m -6.65039,0.67969 c -1.0225,-0.0426 -2.04917,0.11894 -3.00781,0.53711 0.89158,0.20465 1.09948,0.20512 2.39257,0.58398 2.17455,0.63713 4.33625,1.65469 6.13282,2.78906 -0.13074,-1.01382 -0.64026,-2.43221 -2.53125,-3.22461 -0.9455,-0.3962 -1.96383,-0.64294 -2.98633,-0.68554 z m 12.38476,0.78906 c -0.44627,-0.003 -0.73813,0.0134 -1.03515,0.0371 0.1122,2.08849 0.0656,5.66279 -1.09961,9.33789 -0.75583,2.3838 -1.78759,4.30829 -2.66407,5.88281 -0.8765,1.57452 -1.57724,2.81963 -1.73632,3.66797 -0.0758,0.40405 -0.0106,0.64494 0.0605,0.76758 0.0711,0.12266 0.13887,0.17156 0.29493,0.19336 0.31215,0.0435 1.07283,-0.20003 1.77148,-1.24805 1.48626,-2.22936 3.94019,-8.17216 5.26367,-12.14258 0.71947,-2.15834 1.96762,-3.46913 3.45313,-4.23047 0.28343,-0.14525 0.57881,-0.25803 0.875,-0.37109 -1.26332,-1.55825 -3.57839,-1.88329 -5.1836,-1.89453 z m 8.23243,2.63867 c -1.222,0.24588 -2.3536,0.50649 -3.24415,0.96289 -0.0161,0.008 -0.0288,0.0213 -0.0449,0.0293 0.12215,0.0382 0.23718,0.063 0.36328,0.11133 0.92032,0.35278 1.97119,1.04957 2.59571,2.24414 3.24831,1.53478 4.40369,-1.27504 2.68554,-2.39844 -0.63727,-0.41668 -1.50781,-0.72487 -2.35546,-0.94922 z m -4.82032,2.19141 c -0.39791,0.47439 -0.73763,1.08071 -1.02539,1.85742 1.31616,0.71094 2.58223,1.90738 3.84766,1.6543 0.20069,-2.34375 -1.45899,-3.19727 -1.45899,-3.19727 -0.61839,-0.23705 -1.0855,-0.29285 -1.36328,-0.31445 z m -2.17383,5.0664 c -1.13472,3.04107 -2.53535,6.34604 -3.75976,8.51954 0.86388,1.11815 2.06908,0.58432 3.33203,-1.09961 1.40644,-1.875 2.47742,-6.02763 1.20508,-6.69727 -0.44071,-0.23195 -0.66259,-0.48702 -0.77735,-0.72266 z m -28.16796,4.41993 c -4.46751,10.10873 -4.9375,25.63281 -4.9375,25.63281 15.91302,8.19732 25.4707,-2.13672 25.4707,-2.13672 -0.75765,-5.4927 -0.69531,-12.46094 -0.69531,-12.46094 -1.1384,0.1341 -2.22657,0.11719 -2.22657,0.11719 -0.23824,2.1306 -1.76603,3.88518 -3.89648,4.44922 -2.35242,0.62282 -5.36307,-0.18345 -8.15039,-3.07031 -3.85816,-3.99595 -5.13263,-9.4907 -5.56445,-12.53125 z m 14.85156,7.06054 c 0.34776,1.04249 0.84638,2.32204 2.11133,2.67969 0.99397,-0.41159 1.34843,-1.3435 1.36523,-2.53906 -0.29639,-0.0816 -1.62573,-0.18063 -3.47656,-0.14063 z"
           transform="scale(0.26458333)" />
        <path
           style="font-variation-settings:normal;opacity:1;vector-effect:none;fill:none;fill-opacity:1;stroke:#000000;stroke-width:0.529167;stroke-linecap:butt;stroke-linejoin:miter;stroke-miterlimit:4;stroke-dasharray:none;stroke-dashoffset:0;stroke-opacity:1;stop-color:#000000;stop-opacity:1"
           d="m 101.98844,103.56547 c 0,0 2.11461,2.28995 6.53797,2.22062 4.42336,-0.0693 7.89026,-2.85845 7.89026,-2.85845 m -16.01674,-3.330913 c 0,0 3.68526,3.401783 8.00837,3.330913 4.3231,-0.0709 6.7327,-3.047431 6.7327,-3.047431 m -11.64639,-1.559152 c 0,0 2.19698,2.055243 5.31529,1.913503 3.1183,-0.14174 4.39397,-2.480467 4.39397,-2.480467 m -4.67746,8.031997 c 0,0 -1.15088,2.82556 -2.25336,11.44501 -1.10249,8.61944 -0.81025,13.4797 -0.60136,16.13639"
           id="path1142"
           sodipodi:nodetypes="czcccccsccsc" />
        <path
           style="font-variation-settings:normal;opacity:1;vector-effect:none;fill:#d9dadc;fill-opacity:1;stroke:#000000;stroke-width:0.79375;stroke-linecap:butt;stroke-linejoin:miter;stroke-miterlimit:4;stroke-dasharray:none;stroke-dashoffset:0;stroke-opacity:1;stop-color:#000000;stop-opacity:1"
           d="m 88.132125,101.12811 c 0,0 2.405428,-1.00226 5.91334,-1.703846 3.507912,-0.701583 4.911076,-1.603619 4.911076,-1.603619 3.253459,3.796775 3.291709,7.640035 5.712889,12.628485 -3.40768,1.50339 -8.047443,3.10701 -8.047443,3.10701 -3.300216,-4.22657 -3.812434,-8.94509 -8.489862,-12.42803 z m -7.953925,1.9649 c 0,0 -3.827009,-2.55134 -8.291853,-2.19699 0,0 -0.02426,5.61089 1.078234,10.42174 0,0 5.61266,0.50113 9.521477,0 0,0 -0.105526,-4.9235 -2.307858,-8.22475 z M 76.894532,88.493676 c -2.62221,2.480469 -5.173549,7.441406 -5.173549,7.441406 3.388019,1.611804 6.103258,-0.98917 9.921875,0.637835 l 0.637834,-7.724888 c 0,0 2.693081,0.708705 3.118304,-2.196987 0.445541,-3.044529 -2.480469,-7.087053 -2.480469,-7.087053 0,0 -1.842634,0.566964 -3.685268,1.700892 -1.842634,1.133929 -1.984375,1.630023 -2.055245,3.118304 z m 7.29537,-8.546678 37.885458,-13.831198 2.10474,1.102486 -0.8018,2.505652 -37.384329,15.535042 z"
           id="path1081"
           sodipodi:nodetypes="cscccccccccccccscscccccccc" />
        <path
           style="font-variation-settings:normal;opacity:1;vector-effect:none;fill:none;fill-opacity:1;stroke:#000000;stroke-width:0.529167;stroke-linecap:butt;stroke-linejoin:miter;stroke-miterlimit:4;stroke-dasharray:none;stroke-dashoffset:0;stroke-opacity:1;stop-color:#000000;stop-opacity:1"
           d="m 96.901295,98.600221 c 2.828236,3.867649 3.149965,7.710909 5.571145,12.699359 m -3.515898,1.35453 c -3.85146,-4.47714 -3.641337,-8.94509 -7.516957,-12.52826 m 9.480055,11.77873 c -3.421865,-4.55816 -3.139058,-8.04679 -6.378345,-12.544088 M 72.964581,111.31776 c 1.620025,-6.01013 4.618172,-5.39257 7.213619,-8.22475 m 2.102492,-14.244981 c 0,0 -1.254967,-0.910453 -0.830303,-2.16918 0.424664,-1.258726 1.553504,-1.302939 1.553504,-1.302939 0.105041,-0.626086 -0.363339,-0.730781 -0.902035,-0.952148 -0.748839,-0.307721 -1.252825,-0.801808 -1.00226,-1.804069 0,0 1.603617,0.65147 2.756217,0.902035 m -5.261869,4.209495 c 0,0 1.854182,-0.50113 3.056895,0.350791 m -2.706104,-1.102487 c 0,0 1.1526,-0.451017 2.455539,0 M 81.30005,86.678849 c 0,0 -1.302939,-0.651469 -2.004522,-1.403165 -0.701582,-0.751695 -0.350791,-2.154861 -0.601356,-3.407686 m 3.157121,3.908816 c 0,0 -1.503391,-0.601356 -1.603617,-2.305199 -0.100226,-1.703844 -0.300678,-2.104748 -0.400904,-2.505652 m 1.804069,1.804069 c 0,0 0,-1.353052 -0.350791,-2.405426 m 1.954408,2.906557 c 0,0 -0.05011,-0.902035 -0.150339,-1.653731 m 3.090304,0.534539 37.985677,-14.933685"
           id="path1083"
           sodipodi:nodetypes="ccccccccczcscccccccsccsccccc" />
        <path
           style="font-variation-settings:normal;opacity:1;vector-effect:none;fill:#d6b268;fill-opacity:1;stroke:#000000;stroke-width:0.79375;stroke-linecap:butt;stroke-linejoin:miter;stroke-miterlimit:4;stroke-dasharray:none;stroke-dashoffset:0;stroke-opacity:1;stop-color:#000000;stop-opacity:1"
           d="m 73.894344,87.38337 c 0,0 0.779577,-3.047434 2.196987,-3.614399 1.41741,-0.566962 3.704167,3.59735 2.338727,4.606587 -1.365438,1.009237 -3.756138,-0.354354 -4.535714,-0.992188 z m 6.937984,-11.746093 5.813112,14.633006 1.002261,-0.300678 -1.453278,-7.817634 -4.560286,-7.015825 z"
           id="path1085"
           sodipodi:nodetypes="cssccccccc" />
        <circle
           style="fill:#d6b268;fill-opacity:1;stroke:#000000;stroke-width:0.79375;stroke-miterlimit:4;stroke-dasharray:none;paint-order:fill markers stroke"
           id="path876-8"
           cx="80.932556"
           cy="74.670761"
           r="1.2671936" />
        <circle
           style="fill:#d6b268;fill-opacity:1;stroke:#000000;stroke-width:0.79375;stroke-miterlimit:4;stroke-dasharray:none;paint-order:fill markers stroke"
           id="path876-8-8"
           cx="87.647705"
           cy="91.088799"
           r="1.2671936" />
        <path
           id="path1189"
           style="color:#000000;font-style:normal;font-variant:normal;font-weight:normal;font-stretch:normal;font-size:medium;line-height:normal;font-family:sans-serif;font-variant-ligatures:normal;font-variant-position:normal;font-variant-caps:normal;font-variant-numeric:normal;font-variant-alternates:normal;font-variant-east-asian:normal;font-feature-settings:normal;font-variation-settings:normal;text-indent:0;text-align:start;text-decoration:none;text-decoration-line:none;text-decoration-style:solid;text-decoration-color:#000000;letter-spacing:normal;word-spacing:normal;text-transform:none;writing-mode:lr-tb;direction:ltr;text-orientation:mixed;dominant-baseline:auto;baseline-shift:baseline;text-anchor:start;white-space:normal;shape-padding:0;shape-margin:0;inline-size:0;clip-rule:nonzero;display:inline;overflow:visible;visibility:visible;opacity:1;isolation:auto;mix-blend-mode:normal;color-interpolation:sRGB;color-interpolation-filters:linearRGB;solid-color:#000000;solid-opacity:1;vector-effect:none;fill:#d9dadc;fill-opacity:1;fill-rule:nonzero;stroke:none;stroke-width:3.77953;stroke-linecap:butt;stroke-linejoin:miter;stroke-miterlimit:4;stroke-dasharray:none;stroke-dashoffset:0;stroke-opacity:1;color-rendering:auto;image-rendering:auto;shape-rendering:auto;text-rendering:auto;enable-background:accumulate;stop-color:#000000;stop-opacity:1"
           d="m 415.98302,340.66097 c -1.86827,-1.04867 -2.36672,-2.79344 -2.57482,-3.83285 0.73429,0.15183 1.65793,0.31496 3.60938,0.88672 0.2806,1.06738 -0.0418,2.12606 -1.03456,2.94613 z"
           transform="scale(0.26458333)"
           sodipodi:nodetypes="cccc" />
        <path
           style="font-variation-settings:normal;opacity:1;vector-effect:none;fill:none;fill-opacity:1;stroke:#000000;stroke-width:0.529167;stroke-linecap:butt;stroke-linejoin:miter;stroke-miterlimit:4;stroke-dasharray:none;stroke-dashoffset:0;stroke-opacity:1;stop-color:#000000;stop-opacity:1"
           d="m 98.864398,83.74535 c 0.889592,-0.285704 1.614302,-0.134495 1.913502,0.885882 0.28908,0.985881 -0.1063,1.630023 -0.1063,1.630023 0,0 2.72851,-0.956753 3.86244,-1.452847 m 1.33473,-2.610399 c -0.52433,1.310807 -0.87104,1.806409 -1.68908,3.460845 -0.86295,1.745268 -1.61248,2.524848 -2.76395,3.153739 2.36342,-0.41434 4.86007,-1.863259 8.61578,-2.467831 3.96118,-0.637648 7.89281,-0.05011 9.49643,2.505652 m -12.95423,-1.770661 c 0,0 -0.47906,-2.291181 1.65373,-4.760738 2.13281,-2.469557 6.58887,-3.171139 7.96798,-1.102487 1.3791,2.068652 0.65147,4.46006 0.20045,5.412208 m -9.87227,-0.100226 c 0,0 0.50107,-1.609971 3.90882,-2.204974 3.40774,-0.595004 4.79587,-1.767974 4.66051,-4.159382 -0.13537,-2.391408 0,-3.608138 1.35305,-4.96119"
           id="path1221"
           sodipodi:nodetypes="csccsccsccsscczsc" />
        <path
           style="font-variation-settings:normal;opacity:1;vector-effect:none;fill:none;fill-opacity:1;stroke:#000000;stroke-width:0.529167;stroke-linecap:butt;stroke-linejoin:miter;stroke-miterlimit:4;stroke-dasharray:none;stroke-dashoffset:0;stroke-opacity:1;stop-color:#000000;stop-opacity:1"
           d="m 91.75697,149.43707 c 0,0 0.451016,-0.30068 3.207234,-2.40542 2.756217,-2.10475 5.011303,-4.51017 6.314246,-6.01357 1.30293,-1.50339 1.41987,-3.07359 1.41987,-3.07359 m -12.119006,10.28987 c 0,0 1.08041,-0.89011 2.906556,-2.40542 1.826146,-1.51531 4.409948,-3.30746 7.26639,-4.25961 m -3.945279,-0.92137 c 1.254352,-0.91087 2.803643,-2.27975 3.210289,-4.00641 m -7.595196,15.07088 c 1.135883,-1.23054 3.280319,-2.50221 7.194045,-5.24823 3.915121,-2.74701 5.671371,-5.3793 6.322841,-7.28359 0,0 -0.65147,3.60814 -0.65147,7.21627 0,3.60814 0.30068,8.61945 0.55124,10.07272 m 3.40769,0.18375 c -0.14777,-1.62547 0.24355,-3.18422 -0.20045,-6.76526 -0.24367,-1.96531 -0.41356,-3.68488 -0.41758,-5.4539 -0.003,-1.52358 0.11613,-3.08385 0.41758,-4.86938 m -1.55351,17.13866 c 0.28567,-1.72937 -0.0375,-2.71981 0.20046,-5.61266 0.25143,-3.05683 0.93547,-6.65662 0.93547,-6.65662 m 2.48892,12.63677 c 0,0 0.21698,-0.62343 0.15033,-2.75622 -0.0666,-2.13278 0.40589,-4.98094 0.60135,-7.7174 0.20045,-2.80634 0.20045,-6.06368 0.20045,-6.06368 m -0.20045,6.06368 c 0,0 0.71312,3.98564 1.00227,5.91333 0.30067,2.00452 0.4009,2.90656 0.40089,4.71063 m 1.43182,0.24118 c 0,0 0.38897,-1.07638 0.24807,-3.68527 -0.12243,-2.26692 0.024,-3.88916 0.17434,-6.99617 0.15034,-3.107 -0.10023,-4.66051 -0.10023,-4.66051 m 0.10023,4.66051 c 0.23164,3.01128 0.60891,3.55628 1.20268,5.56259 0.62119,2.09897 0.4068,3.2008 0.88736,4.54561 m 1.66891,-0.59608 c 0,0 -1e-5,-1.24024 -0.38979,-3.54353 -0.38979,-2.30329 -0.54616,-3.96402 -0.44593,-6.169 0.10023,-2.20497 -0.30068,-4.20949 -0.30068,-4.20949 m 0.30068,4.20949 c 0.13649,1.49483 0.77547,2.81185 1.60362,4.56029 0.99996,2.1112 1.24009,4.3136 1.24009,4.3136"
           id="path1373"
           sodipodi:nodetypes="cssccsccccscsccssccsccssccsccssccsccssccsc" />
        <path
           style="font-variation-settings:normal;opacity:1;vector-effect:none;fill:none;fill-opacity:1;stroke:#000000;stroke-width:0.529167;stroke-linecap:butt;stroke-linejoin:miter;stroke-miterlimit:4;stroke-dasharray:none;stroke-dashoffset:0;stroke-opacity:1;stop-color:#000000;stop-opacity:1"
           d="m 85.429031,164.29178 c 1.080997,0.15443 2.578926,0.52657 3.989329,1.716 1.471788,1.24119 1.883537,3.29531 3.336817,4.74858 m -6.397272,-6.57389 c 4.07856,-4.09146 4.51562,-8.67196 9.474926,-13.04155 M 83.603609,164.3724 c 0,0 2.196987,2.62221 4.464844,5.95312 2.267857,3.33092 2.637389,5.03432 3.685268,7.65402 0.992187,2.48047 2.05653,3.7474 3.614397,5.88226 1.530747,2.09769 2.480469,4.18136 2.763951,5.31528 m -1.559152,-1.08668 c 0.324983,0.6638 0.713065,1.00236 1.984375,0.99219 1.275629,-0.0102 1.984378,-1.73633 3.543528,-2.09068 m -7.12249,5.38616 c 0,0 1.417411,-0.38979 3.118304,-0.38979 1.700893,0 2.055246,0.70871 2.196986,1.27567 m -4.677455,-1.06306 c 0,0 1.311105,-1.94894 1.665458,-3.2246 m -3.791574,4.39397 c 0,0 3.578962,-0.56697 4.960938,1.48828 m -6.413784,-0.0354 c 0.817461,-0.0817 3.25223,-0.21537 4.323103,1.66546 m 12.355094,8.09101 c 0,0 0.95675,-1.09849 2.83482,-1.3111 1.87807,-0.21261 3.43723,0.42522 3.43723,0.42522 m -6.30748,-3.15374 c 0,0 1.01759,-0.5654 2.72851,-0.46065 1.73634,0.1063 2.90569,1.06306 2.90569,1.06306 m -6.16573,-2.37416 c 0,0 1.39851,-1.00063 2.87026,-0.85046 1.47174,0.15018 2.48047,1.24024 2.48047,1.24024 m -6.76814,-4.85463 c 0.89689,0.0747 1.60797,-0.0255 3.64983,-1.13393 0,0 1.45284,0.88588 2.44503,1.24023 m -1.80719,3.50809 c 0,0 -0.46066,-2.65764 -0.63784,-4.74832 -0.17718,-2.09068 0.6509,-6.4364 1.59459,-9.75651 0.98359,-3.4605 0.42522,-5.45703 0.7087,-8.22098 0.28348,-2.76396 1.21183,-5.21969 1.65709,-7.02932 0.48591,-1.9748 0.43333,-3.24263 0.45102,-3.85871 m 1.70385,1.95441 c 0,0 -0.65147,-1.25283 -1.70385,-1.95441 0,0 -2.58851,0.58735 -3.70836,3.10701 -1.11985,2.51967 -0.70159,6.01357 -1.85418,7.91786 M 113.79,164.72155 c 0,0 0.40091,-2.45553 0.45102,-6.76526"
           id="path1169"
           sodipodi:nodetypes="csccccsssccsccsccccccccsccsccscccccsssscccsccc" />
      </g>
    </g>
  </g>
</svg>
