<?xml version="1.0" encoding="UTF-8" standalone="no"?>
<!-- Created with Inkscape (http://www.inkscape.org/) -->

<svg
   xmlns:dc="http://purl.org/dc/elements/1.1/"
   xmlns:cc="http://creativecommons.org/ns#"
   xmlns:rdf="http://www.w3.org/1999/02/22-rdf-syntax-ns#"
   xmlns:svg="http://www.w3.org/2000/svg"
   xmlns="http://www.w3.org/2000/svg"
   xmlns:xlink="http://www.w3.org/1999/xlink"
   xmlns:sodipodi="http://sodipodi.sourceforge.net/DTD/sodipodi-0.dtd"
   xmlns:inkscape="http://www.inkscape.org/namespaces/inkscape"
   width="571"
   height="689.5"
   id="svg2"
   version="1.1"
   inkscape:version="0.48.5 r10040"
   sodipodi:docname="New document 1">
  <defs
     id="defs4" />
  <sodipodi:namedview
     id="base"
     pagecolor="#f6f3f1"
     bordercolor="#666666"
     borderopacity="1.0"
     inkscape:pageopacity="0"
     inkscape:pageshadow="2"
     inkscape:zoom="0.98994949"
     inkscape:cx="324.13386"
     inkscape:cy="337.35633"
     inkscape:document-units="px"
     inkscape:current-layer="layer1"
     showgrid="false"
     showborder="true"
     inkscape:window-width="1920"
     inkscape:window-height="1017"
     inkscape:window-x="-8"
     inkscape:window-y="-8"
     inkscape:window-maximized="1"
     inkscape:showpageshadow="false"
     fit-margin-top="0"
     fit-margin-left="0"
     fit-margin-right="0"
     fit-margin-bottom="0" />
  <metadata
     id="metadata7">
    <rdf:RDF>
      <cc:Work
         rdf:about="">
        <dc:format>image/svg+xml</dc:format>
        <dc:type
           rdf:resource="http://purl.org/dc/dcmitype/StillImage" />
        <dc:title></dc:title>
      </cc:Work>
    </rdf:RDF>
  </metadata>
  <g
     inkscape:label="Layer 1"
     inkscape:groupmode="layer"
     id="layer1"
     transform="translate(19.785714,-59.040754)">
    <path
       style="color:#000000;fill:#e30016;fill-opacity:1;stroke:#000000;stroke-width:7;stroke-linecap:butt;stroke-linejoin:miter;stroke-miterlimit:4;stroke-opacity:1;stroke-dasharray:none;stroke-dashoffset:0;marker:none;visibility:visible;display:inline;overflow:visible;enable-background:accumulate"
       d="m -16.285714,62.540754 c 0,0 0,341.249996 0,419.078936 0,77.82896 78,263.42106 282.000004,263.42106 204,0 282,-185.5921 282,-263.42106 0,-77.82894 0,-419.078936 0,-419.078936 z"
       id="path2993"
       inkscape:connector-curvature="0"
       sodipodi:nodetypes="cszscc" />
    <g
       id="g4023"
       transform="translate(0.53448826,0)">
      <g
         transform="translate(-1.5258789e-5,0)"
         id="g3989">
        <path
           sodipodi:nodetypes="ccsczccsssscszsscccccsszscsssscczcscccc"
           inkscape:connector-curvature="0"
           id="path4001"
           d="m 280.72567,672.29229 c -8.71256,-9.09138 -7.95495,-25.00128 -7.95495,-25.00128 1.13642,6.43972 8.57614,15.90636 20.45559,11.36422 11.87944,-4.54215 8.71257,-18.18275 8.71257,-18.18275 0,0 -4.78808,7.8994 -10.60661,7.57614 -5.81853,-0.32325 -7.40122,-7.19733 -7.40122,-7.19733 l 0,-29.38197 c 1.60714,-8.03571 8.57143,-34.82142 18.21428,-55.17857 9.64286,-20.35714 24.64286,-27.85714 27.85715,-18.75 3.21428,9.10715 -11.4276,26.77971 -24.64286,47.07787 -12.27263,18.85031 -10.36888,37.27923 6.29859,37.87881 16.67825,0.59997 21.09032,-16.76158 20.3327,-22.05225 -10.22779,10.60661 -17.80394,8.33377 -17.42513,1.89404 0.37881,-6.43972 15.80055,-22.31504 38.51207,-45.20432 22.71152,-22.88928 36.18853,-41.18402 28.78935,-66.67007 -7.39918,-25.48605 -28.08238,-34.98088 -57.76253,-14.08086 -30.88938,21.75154 -49.06111,88.32707 -49.06111,88.32707 1.51523,-57.57869 38.63834,-128.48063 38.63834,-128.48063 -32.57742,-39.39595 -48.50209,-92.74278 -48.50209,-92.74278 0,0 -15.92467,53.34683 -48.50209,92.74278 0,0 37.12311,70.90194 38.63834,128.48063 0,0 -18.17173,-66.57553 -49.06111,-88.32707 -29.68015,-20.90002 -50.36335,-11.40519 -57.76253,14.08086 -7.39918,25.48605 6.07783,43.78079 28.78935,66.67007 22.71152,22.88928 38.13326,38.7646 38.51207,45.20432 0.37881,6.43973 -7.19734,8.71257 -17.42513,-1.89404 -0.75762,5.29067 3.65445,22.65222 20.3327,22.05225 16.66747,-0.59958 18.57122,-19.0285 6.29859,-37.87881 -13.21526,-20.29816 -27.85714,-37.97072 -24.64286,-47.07787 3.21429,-9.10714 18.21429,-1.60714 27.85715,18.75 9.64285,20.35715 16.60714,47.14286 18.21428,55.17857 l 0,29.38197 c 0,0 -1.58269,6.87408 -7.40122,7.19733 -5.81853,0.32326 -10.60661,-7.57614 -10.60661,-7.57614 0,0 -3.16687,13.6406 8.71257,18.18275 11.87945,4.54214 19.31917,-4.9245 20.45559,-11.36422 0,0 0.75761,15.9099 -7.95495,25.00128 0,0 9.28078,10.98541 15.54586,29.54696 6.26508,-18.56155 15.54586,-29.54696 15.54586,-29.54696 z"
           style="color:#000000;fill:#d9dadc;fill-opacity:1;stroke:#000000;stroke-width:3;stroke-linecap:butt;stroke-linejoin:miter;stroke-miterlimit:4;stroke-opacity:1;stroke-dasharray:none;stroke-dashoffset:0;marker:none;visibility:visible;display:inline;overflow:visible;enable-background:accumulate" />
        <path
           style="font-size:medium;font-style:normal;font-variant:normal;font-weight:normal;font-stretch:normal;text-indent:0;text-align:start;text-decoration:none;line-height:normal;letter-spacing:normal;word-spacing:normal;text-transform:none;direction:ltr;block-progression:tb;writing-mode:lr-tb;text-anchor:start;baseline-shift:baseline;color:#000000;fill:#000000;fill-opacity:1;stroke:none;stroke-width:2;marker:none;visibility:visible;display:inline;overflow:visible;enable-background:accumulate;font-family:Sans;-inkscape-font-specification:Sans"
           d="m 250.60168,641.125 c -1.05887,7.36083 -4.59334,13.50891 -13.21875,11.65625 10.10737,4.96132 14.34274,-3.77822 15.21875,-11.46875 l -2,-0.1875 z m 29.1875,0 -2,0.1875 c 0.87601,7.69053 5.08013,16.43007 15.1875,11.46875 -8.62541,1.85266 -12.12863,-4.29542 -13.1875,-11.65625 z"
           id="path3943"
           inkscape:connector-curvature="0" />
        <path
           style="color:#000000;fill:none;stroke:#000000;stroke-width:2;stroke-linecap:butt;stroke-linejoin:miter;stroke-miterlimit:4;stroke-opacity:1;stroke-dasharray:none;stroke-dashoffset:0;marker:none;visibility:visible;display:inline;overflow:visible;enable-background:accumulate"
           d="m 265.17981,699.31387 0,-352.03816"
           id="path3947"
           inkscape:connector-curvature="0" />
        <path
           inkscape:connector-curvature="0"
           id="path3978"
           style="color:#000000;fill:none;stroke:#000000;stroke-width:3;stroke-linecap:butt;stroke-linejoin:miter;stroke-miterlimit:4;stroke-opacity:1;stroke-dasharray:none;stroke-dashoffset:0;marker:none;visibility:visible;display:inline;overflow:visible;enable-background:accumulate"
           d="m 275.71676,559.59432 c 0,0 -3.75,24.375 -3.75,52.76786 m 1.69643,39.73214 c 0,0 -2.14286,-7.5 -1.33928,-17.67857 m -17.68105,-74.82143 c 0,0 3.75,24.375 3.75,52.76786 m -1.69643,39.73214 c 0,0 2.14286,-7.5 1.33928,-17.67857" />
        <path
           inkscape:connector-curvature="0"
           id="path3980"
           style="color:#000000;fill:none;stroke:#000000;stroke-width:2;stroke-linecap:butt;stroke-linejoin:miter;stroke-miterlimit:4;stroke-opacity:1;stroke-dasharray:none;stroke-dashoffset:0;marker:none;visibility:visible;display:inline;overflow:visible;enable-background:accumulate"
           d="m 330.85449,602.33922 c 0,0 -7.37684,18.26484 -20.07678,12.65754 -12.5311,-5.53274 0.89403,-28.29625 13.25825,-42.2045 12.36422,-13.90825 39.39595,-42.67895 29.54696,-61.61931 -9.84899,-18.94036 -33.62237,-6.20984 -50.00255,20.45559 -16.38018,26.66543 -25.75889,58.67629 -25.75889,91.29255 m -78.31635,-20.58187 c 0,0 7.37684,18.26484 20.07678,12.65754 12.5311,-5.53274 -0.89403,-28.29625 -13.25825,-42.2045 -12.36422,-13.90825 -39.39595,-42.67895 -29.54696,-61.61931 9.84899,-18.94036 33.62237,-6.20984 50.00255,20.45559 16.38018,26.66543 25.75889,58.67629 25.75889,91.29255" />
        <rect
           style="color:#000000;fill:#d9dadc;fill-opacity:1;stroke:#000000;stroke-width:3;marker:none;visibility:visible;display:inline;overflow:visible;enable-background:accumulate"
           id="rect3949"
           width="45.078056"
           height="29.546963"
           x="242.64078"
           y="611.30432" />
        <rect
           y="621.15332"
           x="237.71629"
           height="9.8489885"
           width="54.927044"
           id="rect3951"
           style="color:#000000;fill:#d9dadc;fill-opacity:1;stroke:#000000;stroke-width:3.00000024;marker:none;visibility:visible;display:inline;overflow:visible;enable-background:accumulate"
           rx="5.0641961"
           ry="4.9244943" />
      </g>
      <use
         height="1052.3622"
         width="744.09448"
         transform="translate(-133.34012,-245.46707)"
         id="use4019"
         xlink:href="#g3989"
         y="0"
         x="0" />
      <use
         x="0"
         y="0"
         xlink:href="#g3989"
         id="use4021"
         transform="translate(133.34013,-245.46707)"
         width="744.09448"
         height="1052.3622" />
    </g>
  </g>
</svg>
