<?xml version="1.0" encoding="UTF-8" standalone="no"?>
<!-- Created with Inkscape (http://www.inkscape.org/) -->
<svg
   xmlns:dc="http://purl.org/dc/elements/1.1/"
   xmlns:cc="http://creativecommons.org/ns#"
   xmlns:rdf="http://www.w3.org/1999/02/22-rdf-syntax-ns#"
   xmlns:svg="http://www.w3.org/2000/svg"
   xmlns="http://www.w3.org/2000/svg"
   xmlns:sodipodi="http://sodipodi.sourceforge.net/DTD/sodipodi-0.dtd"
   xmlns:inkscape="http://www.inkscape.org/namespaces/inkscape"
   width="499.69995"
   height="601.23425"
   id="svg2023"
   sodipodi:version="0.32"
   inkscape:version="0.46"
   sodipodi:docname="Juresherbas3.svg"
   sodipodi:docbase="C:\Documents and Settings\PD\Desktop\Aurimo visi\Heraldika\Del LT herbu\3 Darymui"
   inkscape:output_extension="org.inkscape.output.svg.inkscape"
   version="1.0">
  <defs
     id="defs2025">
    <inkscape:perspective
       sodipodi:type="inkscape:persp3d"
       inkscape:vp_x="0 : 300.61713 : 1"
       inkscape:vp_y="0 : 1000 : 0"
       inkscape:vp_z="499.69995 : 300.61713 : 1"
       inkscape:persp3d-origin="249.84998 : 200.41142 : 1"
       id="perspective27" />
  </defs>
  <sodipodi:namedview
     id="base"
     pagecolor="#ffffff"
     bordercolor="#666666"
     borderopacity="1.0"
     inkscape:pageopacity="0.0"
     inkscape:pageshadow="2"
     inkscape:zoom="0.85158158"
     inkscape:cx="66.661414"
     inkscape:cy="300.61712"
     inkscape:document-units="px"
     inkscape:current-layer="layer1"
     inkscape:window-width="1280"
     inkscape:window-height="752"
     inkscape:window-x="-8"
     inkscape:window-y="-8"
     showgrid="false" />
  <metadata
     id="metadata2028">
    <rdf:RDF>
      <cc:Work
         rdf:about="">
        <dc:format>image/svg+xml</dc:format>
        <dc:type
           rdf:resource="http://purl.org/dc/dcmitype/StillImage" />
      </cc:Work>
    </rdf:RDF>
  </metadata>
  <g
     inkscape:label="Sluoksnis 1"
     inkscape:groupmode="layer"
     id="layer1"
     transform="translate(-115.25706,-50.239661)">
    <path
       style="fill:#000000;fill-opacity:1;stroke:#000000;stroke-width:1.70000005;stroke-miterlimit:4;stroke-dasharray:none;stroke-opacity:1"
       d="M 345.60705,650.09743 C 285.08519,644.92459 230.43736,619.69828 188.60706,577.62375 C 175.54549,564.48592 167.98887,555.31829 158.22149,540.76025 C 136.85105,508.90813 123.68883,475.3937 118.09575,438.58969 C 116.18179,425.9953 116.11995,419.74738 116.1136,238.33969 L 116.10706,51.08968 L 365.10705,51.08968 L 614.10702,51.08968 L 614.10472,237.33969 C 614.10242,417.41554 614.03702,424.04068 612.13092,437.19438 C 601.21492,512.52538 556.97402,578.32096 491.01796,617.3149 C 465.18485,632.58772 430.23442,644.47482 399.10705,648.57501 C 384.65926,650.47811 358.70289,651.21674 345.60705,650.09743 z"
       id="path2422" />
    <path
       style="fill:#ffffff;fill-opacity:1;stroke:#000000;stroke-width:1.70000005000000010;stroke-miterlimit:4;stroke-dasharray:none;stroke-opacity:1"
       d="M 397.32267,643.532 C 471.55845,633.28457 534.08831,592.62348 573.31552,529.08969 C 580.12402,518.06248 590.83842,496.73624 593.41172,489.08969 C 594.24462,486.61469 595.86002,482.22775 597.00152,479.34093 C 600.29452,471.01275 604.93012,451.40342 607.10582,436.59841 C 609.05032,423.3659 609.10702,417.81567 609.10702,240.73484 C 609.10702,100.32194 608.83162,58.214233 607.90702,57.289679 C 606.15982,55.542437 124.0543,55.542437 122.30706,57.289679 C 121.38242,58.214315 121.10841,100.4942 121.11295,241.53969 C 121.11928,438.18088 120.91499,429.55118 126.14461,454.08969 C 135.41732,497.59927 162.1958,545.2111 194.79888,576.1562 C 233.72535,613.10311 278.59434,635.34038 329.60705,642.9677 C 346.61838,645.51119 380.91431,645.797 397.32267,643.532 z"
       id="path2420" />
    <path
       id="path2248"
       d="M 203.55202,212.65739 C 203.30662,211.38293 209.0778,223.42732 196.76462,225.87103 C 196.76462,224.92862 195.33512,224.52458 192.01462,224.52848 C 185.08482,224.53661 180.86452,225.99524 173.19382,231.03336 C 168.09702,234.38096 165.38442,235.5229 162.52942,235.5229 C 157.55412,235.5229 152.22912,233.25945 150.76412,230.52191 C 149.18902,227.57894 148.33584,224.1412 153.19822,228.88744 C 155.62313,231.25444 161.34782,231.01205 165.33042,229.49789 C 166.81322,228.93413 170.45305,225.33654 173.04275,223.00819 C 178.64855,217.96812 187.88282,215.52392 197.33062,214.76554 C 202.58082,214.3441 203.79742,213.93185 203.55202,212.65739 z M 299.15311,146.41814 C 296.23642,143.89289 294.80356,145.0339 291.77685,143.75579 C 287.43355,145.40098 288.11481,150.52291 286.22341,150.52291 C 284.47731,150.52291 283.64011,149.67579 282.76461,147.02291 C 281.42541,142.96514 279.7635,142.5204 275.10721,145.62015 C 267.56841,150.63882 269.01871,147.59895 268.58671,143.83197 C 268.29951,141.3276 267.76106,140.36505 265.07902,141.34151 C 261.08714,142.79485 260.42444,142.82933 260.8124,138.0448 C 261.10383,134.45072 262.16165,133.62211 257.50352,133.44016 C 255.40994,133.35838 252.11403,132.93058 251.76343,132.57995 C 251.41283,132.22932 253.75452,129.70201 255.32742,127.4322 C 258.09712,123.43557 258.12732,123.26133 256.28492,121.91408 C 255.23852,121.14894 253.58846,120.63422 252.63252,120.52291 C 247.69447,119.94794 249.64792,118.79884 252.72502,116.20971 C 254.35612,114.83718 256.26982,113.50367 256.97762,113.24634 C 257.84612,112.93061 257.50425,111.34182 255.01462,109.35308 C 248.4786,104.13204 250.94902,104.00289 254.88392,102.63114 C 257.50792,101.71642 257.89212,101.18477 257.30322,99.283318 C 255.22072,92.559328 253.89103,90.79801 259.52562,92.522908 C 263.72238,93.807648 266.01329,90.755955 266.51279,85.545962 C 267.00808,80.379832 268.9697,82.153955 271.35211,83.312928 C 273.79961,84.503565 274.41904,83.841834 274.79779,81.637894 C 275.52647,77.397697 277.94131,77.861118 282.28341,81.673528 L 285.87171,84.824168 L 289.74761,81.039468 C 295.63225,74.873884 296.80832,76.787315 297.07211,81.310678 C 297.4665,88.073608 300.46761,86.150558 303.23451,83.551168 C 306.79011,80.210828 309.72289,78.782889 308.76461,85.456478 C 308.26034,88.968258 309.02562,89.90207 311.51461,89.706478 C 317.52331,89.234297 315.5882,90.312528 314.00561,94.191478 C 312.52273,97.826047 313.86244,99.015448 316.81481,99.033918 C 320.9014,99.061882 322.11797,99.619479 319.26751,102.50943 C 317.46814,104.33552 319.48522,105.75302 323.26822,107.85865 C 325.59622,109.1544 328.35854,111.29055 329.03985,111.41086 C 330.59524,111.6855 326.06601,113.34881 323.83001,114.48952 C 321.59401,115.63024 319.76461,116.88478 319.76461,117.27738 C 319.76461,117.66999 321.00211,120.37211 322.51461,123.2821 C 325.73341,129.47496 325.08971,130.48237 317.89801,130.50759 C 313.82851,130.52186 313.57961,130.67601 314.24141,132.77291 C 314.63201,134.01041 315.19271,136.30922 315.48751,137.88137 C 315.98331,140.52559 315.84511,140.67997 313.64401,139.94113 C 307.97111,138.0369 306.44861,138.7121 305.00411,143.77291 C 303.49921,149.04542 302.57623,149.38186 299.15311,146.41814 z "
       style="fill:#ff0000;fill-opacity:1;stroke:#000000;stroke-width:1.79999995;stroke-miterlimit:4;stroke-dasharray:none;stroke-opacity:1"
       sodipodi:nodetypes="ccsssssssssccsssssssssssssssssssscccssssssssssssssssss" />
    <path
       id="path2242"
       d="M 332.23263,196.7551 C 328.67958,198.97402 346.64549,207.51923 366.58158,212.28837 C 377.44937,214.88818 406.25347,214.82092 418.33158,212.16753 C 421.15654,211.54692 423.61708,210.93571 423.53835,213.17202 C 423.43105,216.22007 423.16516,216.12686 420.26727,219.66755 C 417.28425,223.31225 413.68458,223.86428 413.68458,223.86428 L 400.01328,223.14933 L 388.11591,222.7569 L 383.62304,224.50824 C 381.28043,226.85085 380.58158,228.44052 380.58158,231.42663 C 380.58158,236.1349 381.97545,237.70355 386.15914,237.70355 C 387.90679,237.70355 392.05649,236.8284 391.49583,237.68787 C 389.08712,241.38032 395.3234,241.19313 398.90357,241.7157 C 400.74281,241.98416 398.6859,242.94257 399.21,244.32106 C 399.68489,245.57011 400.13784,246.70303 401.00498,247.03578 C 401.87211,247.36853 404.67804,248.15301 403.06538,250.7501 C 402.63114,251.44941 405.54747,254.38058 407.20142,256.98859 C 411.26356,263.39392 410.16994,263.44518 398.03408,264.79769 C 391.98165,265.47222 389.40136,263.28354 389.58083,266.49582 C 389.71083,268.82256 380.37525,259.09671 380.08158,261.80852 C 379.95721,262.95697 376.30425,257.868 375.23496,255.6784 C 373.64184,252.41618 374.17418,250.12384 375.13916,246.90303 C 375.76515,244.81366 376.64509,244.29068 377.48878,243.96693 C 378.67469,243.51185 379.26986,242.45222 378.46343,240.9454 C 377.88972,239.8734 377.58158,237.96055 377.58158,236.89174 C 377.58158,234.55121 375.42922,232.54862 373.94775,233.51075 C 370.68987,235.62655 365.05638,254.72121 366.60496,261.39756 C 367.8366,266.7075 361.09619,278.69489 361.1286,274.87783 C 361.18501,268.23462 353.77061,280.95206 354.11971,279.61495 C 355.81802,273.11015 342.96952,284.96257 346.01561,282.06696 C 348.6656,279.54788 334.77541,280.8415 334.78141,278.67954 C 334.7848,277.4595 336.10963,272.42161 336.93708,270.835 C 338.09707,268.61074 336.88392,269.07935 335.98317,267.99401 C 335.09831,266.92782 336.54714,265.33799 337.42396,264.46117 C 338.86698,263.01815 337.93652,261.33361 337.93652,260.10853 C 337.93652,258.88345 339.70658,257.96379 341.08158,256.88221 C 342.45658,255.80063 342.36341,253.92425 342.77525,253.13366 C 345.83931,247.25176 357.10408,245.50388 359.08158,248.70355 C 360.46797,250.94678 362.51476,249.43456 364.15719,244.95355 C 367.86088,234.84888 371.64394,226.43973 373.61122,223.93873 C 376.12074,220.7484 373.074,221.39182 363.50132,219.67367 C 350.70453,217.37683 332.97846,208.92542 324.41068,203.1431 C 319.76761,200.00953 335.78568,194.53618 332.23263,196.7551 z "
       style="fill:#096d09;stroke:#000000;stroke-width:1.79999995;stroke-miterlimit:4;stroke-dasharray:none;stroke-opacity:1"
       sodipodi:nodetypes="cssszccccsssssssssssssssssssssssssssssssssc" />
    <path
       style="fill:#000000;fill-opacity:1;stroke:#000000;stroke-width:1.70000005;stroke-miterlimit:4;stroke-dasharray:none;stroke-opacity:1"
       d="M 253.15366,387.93312 C 262.87434,386.36281 268.84514,380.30483 267.69931,379.98291 C 254.34328,376.23048 250.71117,375.73565 244.85925,368.60789 C 242.16615,365.32765 241.00028,363.00977 239.69424,359.5683 C 236.55829,351.30494 236.52702,347.95969 236.73291,343.08969 C 237.18842,332.31559 237.86893,331.10325 241.00207,323.78007 C 245.48807,313.29483 255.45319,302.87414 265.60705,298.05025 C 282.53772,290.00683 305.2408,295.09792 313.91656,308.8835 C 321.43993,320.83797 321.34716,332.84355 313.5877,351.44111 C 312.08916,355.03276 316.45445,352.7483 318.6836,348.77431 C 320.58639,345.38214 321.52417,342.08129 323.59409,331.49018 L 324.19986,328.39066 L 335.40345,327.77864 C 349.02415,327.03457 358.68262,325.26209 379.60705,319.66659 C 404.70997,312.9537 409.9202,311.89915 420.67768,311.35391 C 428.29754,310.9677 432.13042,311.24528 436.42768,312.49452 C 439.55133,313.40259 443.86848,316.59611 443.86848,317.07955 C 443.86848,317.563 439.60187,316.69152 436.53998,317.6546 C 424.89413,321.31767 417.38826,329.00556 414.98853,339.72868 C 413.93355,344.44283 414.00985,345.94003 415.55486,350.84135 C 418.59314,360.47988 432.97288,373.44375 448.29133,380.35447 C 453.46427,382.68818 454.08043,383.30885 455.14102,387.25427 C 458.10237,398.27052 458.1787,398.37997 465.34847,401.89019 C 469.05624,403.70547 472.88124,406.27883 473.84847,407.60877 C 476.12037,410.73265 477.10706,410.71311 477.10706,407.54424 C 477.10706,403.87525 473.26765,400.569 466.83566,398.69917 C 461.06305,397.02103 460.80864,396.71444 459.69147,390.08969 C 458.67669,384.07211 455.64565,380.39036 448.90522,376.9878 C 426.18834,365.52036 416.69643,354.39794 418.48581,341.34299 C 419.30753,335.34786 424.43416,327.52127 430.12203,323.57849 C 433.86154,320.9863 435.37408,320.57583 441.52037,320.48526 C 449.64359,320.36556 451.04547,318.79451 446.94755,314.40316 C 436.74946,303.47479 418.99106,304.6515 368.60705,319.59415 C 355.17003,323.57924 350.9251,324.40968 342.10705,324.77837 C 328.02548,325.36713 324.79172,326.03725 320.03083,314.76518 C 315.56596,304.19398 308.62479,297.06797 300.71744,293.4136 C 295.2395,290.88198 293.52026,290.5898 284.10705,290.59074 C 275.44654,290.59161 272.60093,290.99792 267.86403,292.90998 C 252.15107,299.25256 238.57146,315.49676 234.49158,332.83076 C 232.52851,341.17118 233.46499,351.97068 235.91102,358.37941 C 238.52747,365.23464 241.77287,375.71456 262.10387,381.42817 C 254.18526,389.09964 238.97971,381.69486 235.09649,378.42735 C 233.47482,377.0628 231.68879,376.23016 231.12753,376.57704 C 230.56227,376.92639 230.10023,381.08456 230.09175,385.89871 C 230.08333,390.67875 227.92819,397.8423 227.45542,398.58842 C 226.80702,399.61173 226.7342,395.67979 221.75069,390.69628 C 218.11706,387.06266 214.46934,384.08969 213.64463,384.08969 C 212.81006,384.08969 211.89904,385.30912 211.59013,386.83969 C 209.58837,396.7577 204.50802,406.26398 201.86019,406.26398 C 201.35011,406.26398 202.10706,401.34302 202.10706,396.76376 C 202.10706,389.16501 200.76894,377.344 198.12542,361.58969 C 196.67211,352.92856 196.87817,334.70737 198.50919,327.65358 C 199.28036,324.31844 200.41685,319.11469 201.03473,316.08969 C 202.80198,307.43767 208.01617,295.6195 215.8358,282.54251 C 225.10779,267.03667 226.37026,263.9255 226.49997,256.26226 C 226.60052,250.32097 226.40776,249.75648 223.34128,247.01226 C 217.41975,241.71303 211.57997,243.24952 207.57059,251.16165 C 204.68498,256.85613 201.11346,259.44373 192.93649,261.76421 C 186.04393,263.7202 178.31221,269.34386 175.60706,274.36875 C 171.79956,281.44128 169.51828,276.00312 173.14762,268.5059 C 174.35104,266.01996 176.52172,263.25469 177.97136,262.36085 C 181.994,259.88051 189.09686,252.91417 190.68726,249.88935 C 194.16699,243.27117 190.76687,237.32554 184.06491,238.30918 C 182.38966,238.55506 180.77502,238.36147 180.47683,237.87898 C 179.51153,236.31709 182.8628,232.43001 186.27959,231.14846 C 194.51837,228.05833 195.98736,226.00502 197.10706,225.43782 C 206.50135,220.67898 204.13988,213.49864 203.89444,212.22418 C 203.49635,210.15705 199.39304,208.12103 195.60706,208.11207 C 191.74222,208.10292 180.95776,211.38043 177.97249,213.47139 C 174.25527,216.07503 173.10706,215.51774 173.10706,211.10993 C 173.10706,204.01376 178.362,193.68762 183.3977,190.88845 C 184.61285,190.21299 189.65706,189.58716 194.60706,189.49772 C 206.25099,189.28731 214.95116,186.93934 217.54988,183.306 C 218.61843,181.81203 221.81245,178.22719 224.64771,175.33969 C 229.62038,170.27538 229.99379,170.09081 235.20489,170.1213 C 242.02273,170.1612 252.96924,175.7048 257.54027,181.43251 C 260.28593,184.87295 260.60253,185.97241 260.56392,191.93251 C 260.52961,197.2265 259.89212,199.9207 257.4507,205.08969 C 253.55742,213.33258 252.8613,216.31313 254.08049,219.51983 C 256.32977,225.43589 268.1953,228.48886 268.9266,223.33969 C 269.24997,221.06281 267.74345,220.25095 266.60705,222.08969 C 264.82214,224.97773 257.10681,220.65491 257.10735,216.76711 C 257.10751,215.56953 258.68251,210.18383 260.60735,204.7989 C 264.45404,194.03736 264.86603,189.84196 262.60705,184.43545 C 260.55569,179.52585 260.67367,179.08969 264.05308,179.08969 C 266.23536,179.08969 268.89263,177.44802 274.30308,172.75718 C 278.32026,169.2743 283.74455,164.97768 286.35705,163.20914 C 288.96955,161.44059 291.10705,159.76449 291.10705,159.48446 C 291.10705,159.20443 296.27216,155.65479 296.81897,156.2016 C 297.36578,156.74841 301.14179,157.33555 305.21011,157.50636 C 309.27843,157.67717 314.35494,158.17197 316.49126,158.60592 C 322.23397,159.77244 320.80791,157.1339 314.27336,154.5023 C 309.48099,152.57231 306.88012,154.10404 308.50597,152.71926 C 312.97201,148.91541 320.50218,144.86585 325.88221,144.40385 C 330.67591,143.9922 332.36493,144.32089 336.26661,146.42473 C 338.82936,147.80661 341.19186,148.67153 341.51661,148.34679 C 342.89882,146.96457 341.89986,145.0339 339.03629,143.55308 C 336.57356,142.27956 334.75395,142.40874 335.68576,141.28598 C 337.17008,139.49749 348.40867,135.08968 351.67668,135.08968 C 355.01027,135.08968 361.04582,137.68352 363.85665,140.32416 C 365.46587,141.83594 366.44554,142.15119 367.19753,141.3992 C 367.94952,140.64721 367.34282,139.28885 365.12855,136.76694 L 361.09455,133.73929 L 365.03408,131.62741 C 368.76046,129.70043 376.07766,128.6145 379.5178,129.47792 C 380.92171,129.83028 383.67672,131.52897 385.64005,133.25279 C 389.97381,137.05789 392.35876,135.95069 389.00705,131.68968 C 385.99462,127.86 382.07848,128.6687 396.46762,126.71583 C 403.67634,125.73748 404.09341,126.69889 407.52879,130.02132 C 411.43556,133.79965 413.09364,133.55042 411.23205,129.46468 C 410.57212,128.01628 409.80634,127.7108 407.94526,126.3953 C 406.11348,125.10051 416.46387,125.43389 422.81871,125.23216 C 443.19782,124.58524 473.12448,129.90371 498.02265,138.59716 C 512.90809,143.79456 526.76474,150.96036 524.9572,152.52602 C 524.76462,152.69283 518.98206,151.0589 512.10706,148.89506 C 458.20053,131.92857 385.57858,137.4999 332.10705,162.70413 C 318.03007,169.33942 297.89198,179.61507 297.89198,181.85457 C 297.89198,184.18217 312.08797,179.6267 320.60705,177.56969 C 328.25245,175.72363 335.45855,175.69791 338.90671,177.50437 C 340.3919,178.28245 343.15783,180.53245 345.05322,182.50437 C 346.94861,184.4763 349.08611,186.08969 349.80322,186.08969 C 352.22782,186.08969 351.12659,182.69403 347.49632,178.9763 L 342.98458,175.45878 L 346.17211,174.05487 C 347.4297,173.38183 351.21567,172.60985 354.58538,172.33937 C 362.09156,171.73684 367.38126,174.05946 372.22223,180.08339 C 375.40735,184.04685 378.10705,185.29399 378.10705,182.80192 C 378.10705,182.09364 377.13512,179.57685 375.14769,178.05192 C 366.76126,171.61715 371.14169,172.08969 378.29133,172.08969 C 386.1368,172.08969 391.39891,174.55288 396.44195,180.58597 C 398.52964,183.08351 400.65834,184.86701 401.1724,184.5493 C 402.71141,183.59814 402.7679,181.82042 399.10705,178.74247 C 391.4678,172.31959 395.23347,173.08604 401.35705,173.11165 C 408.70037,173.14237 414.19281,175.90054 418.03705,181.48795 C 419.7784,184.01891 421.60496,186.08969 422.09607,186.08969 C 424.25859,186.08969 424.10111,183.6791 421.70174,180.05341 C 420.27466,177.89695 417.48522,175.71772 417.48522,175.43093 C 417.48522,174.32286 429.33889,175.15972 432.47214,176.46887 C 434.28761,177.22742 436.91903,179.31243 438.31975,181.10222 C 441.48045,185.14085 445.44952,183.01217 441.5777,180.03294 C 435.62256,175.45066 439.48088,176.57764 451.10706,178.51025 C 470.50656,181.73502 488.71501,187.04939 512.10706,196.31386 C 522.49484,200.42797 547.54839,212.21074 549.02373,213.6759 C 550.72412,215.36456 545.96933,214.50154 529.99461,210.22202 C 472.4975,194.81892 432.01064,189.46544 392.08914,191.9871 C 375.46078,193.03744 356.3091,195.38619 343.52999,197.94237 C 333.09176,200.03031 322.63715,202.53718 316.70807,204.18341 C 313.23575,205.1475 312.22,204.96792 307.42593,202.54235 C 302.97238,200.28905 301.20434,199.91802 297.18746,200.39376 C 294.51703,200.71003 290.70649,201.64804 288.71959,202.47822 C 285.59074,203.78554 284.03009,205.69103 284.05763,208.55008 C 284.11214,214.20713 289.08803,216.08969 296.04131,216.08969 C 301.34325,216.08969 301.28475,214.30165 295.95491,213.44937 C 289.54264,212.42401 285.30186,208.83549 288.58624,205.55111 C 290.07346,204.06389 296.34822,202.75132 301.48478,204.17754 C 305.57249,205.31254 306.46684,206.09335 314.86376,215.85801 C 318.657,220.26912 321.93719,222.86534 326.64604,225.1835 C 330.2351,226.95039 333.01254,228.87323 332.81812,229.45648 C 332.6237,230.03974 330.24668,231.65831 327.53584,233.05332 C 323.57645,235.09083 320.98624,235.62613 314.36625,235.77499 C 309.83381,235.8769 305.67131,236.24096 305.11625,236.584 C 304.50396,236.96242 304.10705,243.63236 304.10705,253.54337 C 304.10705,274.67189 305.71677,280.71407 313.42567,288.5214 C 317.80055,292.95213 319.86053,294.17469 326.6601,296.37575 C 342.88524,301.62794 356.59588,302.33158 380.49177,299.13844 C 408.28349,295.42471 422.00524,294.71205 443.10705,295.88645 C 464.57816,297.08139 472.72258,298.84273 489.10706,305.83452 C 494.52311,308.14573 499.05833,309.42588 501.60706,309.36287 C 503.80706,309.30848 508.98206,309.13126 513.10706,308.96904 C 520.14964,308.6921 521.05074,308.9086 527.88181,312.51878 C 536.52679,317.0876 542.1858,322.95025 551.31594,336.79624 C 557.12092,345.59962 565.90472,355.08969 568.24782,355.08969 C 570.49622,355.08969 568.69732,357.95169 565.22092,359.90555 C 559.47602,363.13436 551.08032,362.90993 544.05237,359.33969 C 539.15524,356.85192 538.23657,355.82684 534.41836,348.58969 C 530.16941,340.53613 527.1606,337.08969 524.37863,337.08969 C 523.54985,337.08969 521.16927,338.79219 519.08844,340.87301 C 515.89075,344.07071 515.19247,345.55796 514.57737,350.48101 C 512.42471,367.71031 523.40766,393.42302 532.91966,393.42302 C 537.20074,393.42302 536.93386,394.62724 532.10706,397.08969 C 529.90706,398.21205 528.10706,399.71775 528.10706,400.4357 C 528.10706,402.45693 532.48543,406.08969 534.92151,406.08969 C 537.43507,406.08969 537.80761,408.26339 535.60706,410.08969 C 531.61153,413.40568 536.19682,420.7057 545.685,426.13428 C 552.02384,429.761 552.65078,431.32961 551.72833,441.25481 C 551.12044,447.79546 550.17266,450.72227 546.52611,457.31958 C 542.42503,464.7392 539.6007,502.50705 542.37974,512.76603 C 543.2474,515.96904 544.25822,520.95219 544.62602,523.83969 C 545.36307,529.62615 544.67227,530.1994 540.10706,527.58969 C 538.73206,526.80367 536.673,526.14461 535.53137,526.12513 C 532.77097,526.078 529.29138,529.91807 528.49745,533.88776 C 528.14523,535.64882 527.74327,537.08969 527.60418,537.08969 C 527.4651,537.08969 525.73581,536.41469 523.7613,535.58969 C 521.7868,534.76469 517.42652,534.08969 514.07179,534.08969 C 508.21114,534.08969 507.41183,534.58872 508.65369,531.83969 C 509.77015,529.36825 512.45983,523.92103 515.60373,519.58969 C 519.24895,514.56768 521.06036,507.3553 522.29401,492.95139 C 524.09692,471.90084 521.62541,461.88405 512.88083,454.80064 C 506.27687,449.45121 502.92782,448.15828 493.02013,447.13324 C 480.49243,445.83714 477.62733,443.82844 466.57317,428.5915 C 464.80514,426.15446 464.25754,425.93879 462.38386,426.94155 C 459.76215,428.34465 459.65878,428.21012 455.60706,418.12233 C 452.05091,409.26839 449.15908,406.87973 439.8715,405.12474 C 412.72959,399.99596 393.02659,404.8731 374.29508,421.35707 C 366.14021,428.53347 351.78067,437.62404 350.17104,436.62924 C 349.57057,436.25813 349.10705,432.6718 349.10705,428.39706 L 349.10705,420.82246 L 354.11306,415.89478 C 361.62571,408.4997 362.56057,406.19557 362.55434,395.08969 C 362.54964,386.69697 362.23126,384.98045 359.82284,380.36268 C 357.51948,375.94637 353.24645,372.08969 350.65671,372.08969 C 349.19315,372.08969 350.34607,375.03078 352.01759,375.5613 C 356.47124,376.97483 360.65668,388.55702 359.77211,397.02008 C 358.94591,404.92481 356.78806,409.44823 352.01314,413.28498 C 349.75111,415.10257 347.27187,417.80484 346.50371,419.29003 C 344.84058,422.50557 344.69991,432.2589 346.19652,440.58969 C 346.78935,443.88969 347.42735,453.33969 347.61428,461.58969 C 348.14046,484.81142 353.0507,498.87096 364.54307,510.06201 C 369.23206,514.62806 371.09134,518.8478 371.10147,524.94668 C 371.10617,527.77095 371.12291,529.35595 369.65062,528.70913 C 368.68812,528.28627 365.9311,526.56767 363.88271,526.32526 C 360.75611,525.95525 359.67278,526.37011 357.13271,528.91018 C 355.07628,530.96661 354.10705,532.9215 354.10705,535.01277 C 354.10705,536.70507 354.35669,540.70916 353.94419,540.68145 C 353.53169,540.65374 350.35705,536.66527 347.60705,535.04747 C 344.85705,533.42967 341.32141,532.10234 339.75006,532.09785 C 337.4343,532.09124 337.02381,531.75817 337.58322,530.33969 C 341.35655,520.77167 338.30113,495.69044 331.47702,480.21526 C 328.61925,473.73463 328.51705,472.08969 330.97219,472.08969 C 333.72162,472.08969 338.15214,468.22601 339.72823,464.45391 C 341.42633,460.38979 341.51431,454.89695 339.90705,453.28969 C 337.9129,451.29554 337.60705,451.85862 337.60705,457.52403 C 337.60705,462.1738 337.18302,463.40096 334.66996,466.02403 C 331.55224,469.27822 327.67137,469.99725 323.95629,468.00901 C 320.26995,466.03614 318.15308,459.43044 318.12901,449.82499 L 318.10705,441.06029 L 314.85705,439.03618 C 306.96323,434.11988 298.16618,441.33344 292.51201,457.35906 C 290.30868,463.60395 288.13742,479.1157 287.46835,493.39149 C 286.96946,504.03643 287.16486,507.64044 288.47842,512.02119 C 290.24695,517.91925 290.61213,526.7434 289.18124,529.00389 C 288.44835,530.1617 287.72691,529.94761 285.20195,527.82299 C 283.50569,526.39569 281.16179,524.92445 279.99329,524.55358 C 275.59062,523.15623 270.10705,528.69538 270.10705,534.54003 C 270.10705,535.94234 270.81035,538.85112 270.59352,538.85112 C 270.37668,538.85112 267.90879,535.77277 266.18574,534.1632 C 264.4627,532.55363 261.74767,530.73019 260.07999,530.58375 C 251.27563,529.81061 256.40982,528.8776 259.17971,524.98764 C 264.51429,517.49592 269.39691,500.01071 270.6913,483.76338 C 271.34911,475.50649 271.5852,474.79683 274.35076,472.76338 C 277.99195,470.08609 280.76718,464.82782 282.2098,457.87272 C 282.81249,454.96705 284.38592,450.70956 285.70632,448.41162 C 287.53788,445.22409 288.10705,442.75391 288.10705,437.99248 C 288.10705,432.91513 288.66273,430.76679 291.08718,426.4709 C 292.72625,423.56663 294.32959,419.25524 294.65015,416.89005 C 295.70285,409.12301 296.0774,408.24379 299.8613,404.65733 C 305.0185,399.76924 301.54262,399.79794 296.12975,404.68815 C 292.04861,408.37521 290.12288,412.89318 290.11263,418.80496 C 290.10942,420.65168 288.83013,424.03373 287.10705,426.75074 C 284.48678,430.88248 284.10705,432.39609 284.10705,438.70875 C 284.10705,444.95912 283.76906,446.33792 281.60705,448.90732 C 280.1028,450.69502 279.10705,453.12817 279.10705,455.01616 C 279.10705,461.76815 273.2115,470.56114 266.9437,473.15735 C 263.05269,474.76906 260.28122,475.48077 265.09007,469.84304 C 267.21443,467.35251 266.95559,465.82151 266.13071,463.65191 C 265.5677,462.17108 265.10705,459.17295 265.10705,456.98941 C 265.10705,454.80586 264.38999,451.92496 263.51359,450.5874 C 262.35814,448.82395 262.10754,447.04626 262.60192,444.12008 C 263.13501,440.96472 262.99183,440.19716 261.94537,440.60047 C 260.05361,441.32957 252.10705,458.56527 252.10705,461.93932 C 252.10705,463.58862 251.18156,465.55948 249.85705,466.73076 C 246.45221,469.7417 242.00582,472.32178 241.35072,471.66668 C 241.03017,471.34614 241.79263,468.89605 243.04506,466.22205 C 244.94748,462.16032 245.12445,460.99069 244.12043,459.11467 C 243.45944,457.8796 242.73544,452.98123 242.51153,448.22939 C 242.28761,443.47756 241.76751,436.66469 241.35574,433.08969 L 240.60706,426.58969 L 238.41305,428.7837 C 236.86465,430.3321 236.01575,432.77455 235.52819,437.08402 C 235.0473,441.33456 233.97212,444.46666 231.9904,447.39001 C 230.42458,449.69983 229.13527,452.87165 229.12526,454.43848 C 229.10605,457.44517 223.7462,461.71864 221.5013,463.08969 C 216.69448,466.0254 219.68696,461.95187 220.97058,460.53969 C 223.37378,457.89581 224.0874,452.7136 222.92042,446.38018 C 221.88492,440.76031 221.96564,439.28728 223.56726,434.57538 C 225.38226,429.23573 225.37921,429.1498 223.19331,424.06854 C 221.69782,420.59218 220.70552,415.45285 220.10629,408.08016 C 219.6022,401.87812 218.55449,395.92182 217.66512,394.20197 C 214.63994,388.35192 215.14031,387.70626 218.68292,393.17541 C 219.9205,395.08601 221.77484,396.93743 223.32556,400.61683 C 224.81242,404.14469 224.92574,405.11686 226.57541,404.88063 C 229.11777,404.51656 232.77748,397.13181 234.30366,389.28619 C 234.91312,386.15311 234.30824,382.90073 234.39473,382.77628 C 234.48122,382.65183 238.17445,384.0703 241.16666,385.21082 C 245.05145,386.69155 249.41555,388.53699 253.15366,387.93312 z"
       id="path2424" />
    <path
       style="fill:#000000;fill-opacity:1;stroke:#000000;stroke-width:1.70000005;stroke-miterlimit:4;stroke-dasharray:none;stroke-opacity:1"
       d="M 327.52732,567.74252 C 327.24299,567.00157 328.59258,563.73907 330.5264,560.49252 C 334.25887,554.22632 335.35241,550.07593 333.4497,549.39747 C 332.81316,549.1705 329.38082,551.70839 325.82227,555.03724 C 322.26372,558.36609 319.07203,561.08969 318.72962,561.08969 C 317.33034,561.08969 318.25061,555.5169 320.35705,551.23462 C 325.28352,541.21936 334.50957,534.96697 341.81958,536.68969 C 349.35778,538.46619 353.10705,542.97663 353.10705,550.26871 C 353.10705,557.97276 346.1587,564.92447 335.66527,567.71892 C 329.30328,569.41315 328.16967,569.41644 327.52732,567.74252 z"
       id="path2418" />
    <path
       style="fill:#000000;fill-opacity:1;stroke:#000000;stroke-width:1.70000005;stroke-miterlimit:4;stroke-dasharray:none;stroke-opacity:1"
       d="M 502.75481,564.33969 C 503.13203,562.82719 504.48621,559.33969 505.76409,556.58969 C 508.38844,550.94212 508.72982,548.08969 506.78137,548.08969 C 505.02463,548.08969 502.16962,551.33153 497.75444,558.33969 C 495.76204,561.50219 493.08917,565.26398 492.53234,565.26398 C 491.03274,565.26398 491.88438,552.5584 493.47109,548.76088 C 495.44828,544.0288 500.18959,540.50052 507.91491,538.01241 C 514.46822,535.90177 514.88725,535.88387 520.37768,537.47998 C 529.16865,540.03559 530.17021,544.53044 523.86052,553.1103 C 520.50303,557.67577 507.10154,567.08969 503.9597,567.08969 C 502.39747,567.08969 502.18812,566.61188 502.75481,564.33969 z"
       id="path2416" />
    <path
       style="fill:#000000;fill-opacity:1;stroke:#000000;stroke-width:1.70000005;stroke-miterlimit:4;stroke-dasharray:none;stroke-opacity:1"
       d="M 241.75781,564.33361 C 241.5008,563.91776 242.87725,560.88264 244.81658,557.58889 C 249.62269,549.42623 250.28283,547.48047 248.6936,546.16152 C 247.70796,545.3435 245.35875,546.42924 239.09488,550.5978 C 234.53336,553.63345 229.68863,557.0596 229.40525,556.77621 C 227.79814,555.1691 242.88351,537.29089 248.19142,534.54606 C 253.45208,531.82567 261.44007,533.38086 265.47531,537.91109 C 267.87832,540.60887 268.73942,548.1488 267.09728,552.11328 C 265.28962,556.47736 258.52364,561.8885 252.71923,563.61222 C 247.31708,565.21649 242.49941,565.53355 241.75781,564.33361 z"
       id="path2414" />
    <path
       style="fill:#000000;fill-opacity:1;stroke:#000000;stroke-width:1.70000005;stroke-miterlimit:4;stroke-dasharray:none;stroke-opacity:1"
       d="M 422.10705,562.77655 C 422.10705,562.05433 423.94225,558.42061 426.18528,554.70162 C 429.91856,548.51176 430.64571,545.08969 428.22769,545.08969 C 427.70953,545.08969 423.9829,547.79284 419.94631,551.09668 C 414.87287,555.24915 410.74818,558.99935 410.53001,557.98528 C 410.02455,555.63596 417.14024,544.99326 422.48917,539.83969 C 427.27473,535.22892 427.59838,535.08969 433.53101,535.08969 C 438.42044,535.08969 440.38679,535.59526 443.36285,537.61755 C 452.22864,543.64199 447.91719,553.90412 433.64722,560.74282 C 426.33215,564.24847 422.10705,564.99307 422.10705,562.77655 z"
       id="path2412" />
    <path
       style="fill:#000000;fill-opacity:1;stroke:#000000;stroke-width:1.70000005;stroke-miterlimit:4;stroke-dasharray:none;stroke-opacity:1"
       d="M 447.57491,536.55893 C 444.47054,533.18987 442.57227,532.02781 439.32491,531.50854 C 437.00509,531.13758 433.87885,531.21706 433.63919,531.26894 C 430.70348,531.90444 437.5029,527.75271 440.43117,525.07644 C 447.00948,519.06423 451.00598,510.82127 455.31073,494.3866 C 457.84058,484.72815 458.41941,480.50505 458.50388,471.08969 C 458.6198,458.16934 457.95729,456.17012 451.20886,449.07605 C 447.97887,445.68063 446.39585,444.16822 444.71741,445.65135 C 442.39724,447.70153 442.10705,446.01297 442.10705,443.66598 C 442.10705,440.05745 439.53882,434.19261 437.63947,433.46376 C 436.78263,433.13496 435.1505,433.24219 434.5181,434.16351 C 431.38993,438.7208 431.49649,434.35427 430.57052,428.87349 C 430.22141,426.80708 428.81777,423.46892 427.45133,421.45536 C 424.48763,417.08811 424.88697,416.68161 433.63795,415.15769 C 441.72862,413.74876 444.5016,413.80988 448.51194,415.4855 C 451.33523,416.66515 452.26867,417.97019 454.53933,423.91244 C 457.57882,431.86671 459.08666,433.56261 462.38362,432.73513 C 464.2877,432.25723 465.43621,433.1176 469.02057,437.70698 C 474.19298,444.3297 480.07642,448.80571 484.76543,449.68538 C 487.46818,450.19242 488.61794,451.17078 490.2342,454.33891 C 493.13456,460.02408 492.16143,464.39417 487.30833,467.4782 C 482.04484,470.82303 480.42218,472.92691 477.50991,480.18245 C 471.35929,495.50589 470.6072,501.38399 470.87378,515.48197 C 471.22016,533.50646 471.14801,531.14338 467.02827,527.67685 C 463.01754,524.30204 461.58487,524.41188 457.59678,528.39997 C 455.19214,530.80461 454.09411,532.99327 453.58324,536.39997 C 453.19644,538.97931 452.59357,543.99056 452.24352,543.94798 C 451.89347,543.9054 449.7926,538.96569 447.57491,536.55893 z"
       id="path2410" />
    <path
       style="fill:#ffffff;fill-opacity:1;stroke:#000000;stroke-width:1.70000005000000010;stroke-miterlimit:4;stroke-dasharray:none;stroke-opacity:1"
       d="M 539.71024,450.26502 C 542.83868,447.64982 544.10706,444.70459 544.10706,440.05543 C 544.10706,436.65125 543.48549,435.26812 540.70706,432.48969 C 538.30276,430.08539 536.39922,429.08969 534.20706,429.08969 C 530.53837,429.08969 530.07705,430.79307 533.51223,431.65525 C 537.52219,432.66168 540.56161,436.71931 540.56161,441.06619 C 540.56161,445.79151 538.073,448.81785 533.47852,449.67978 C 531.63384,450.02585 530.37218,450.70965 530.67483,451.19934 C 531.61515,452.72081 537.50051,452.11222 539.71024,450.26502 z"
       id="path2408" />
    <path
       style="fill:#ffffff;fill-opacity:1;stroke:#000000;stroke-width:1.70000005000000010;stroke-miterlimit:4;stroke-dasharray:none;stroke-opacity:1"
       d="M 187.10706,204.28969 C 187.10706,203.84969 186.5973,202.97994 185.97427,202.35691 C 184.25625,200.63888 185.73715,198.08969 188.45323,198.08969 C 189.77814,198.08969 191.42237,198.76469 192.10706,199.58969 C 193.35768,201.0966 203.86155,201.32649 202.44863,200.46227 C 193.56221,195.02682 193.86539,196.92915 187.85706,194.10789 C 185.09087,192.809 181.10706,197.18144 181.10706,199.76095 C 181.10706,200.68014 181.8518,202.25514 182.76204,203.26095 C 184.44266,205.11801 187.10706,205.74884 187.10706,204.28969 z"
       id="path2406" />
    <path
       style="fill:#ffffff;fill-opacity:1;stroke:#000000;stroke-width:1.70000005000000010;stroke-miterlimit:4;stroke-dasharray:none;stroke-opacity:1"
       d="M 242.66745,201.68826 C 244.6018,198.026 242.58535,183.08969 234.85472,182.50255 C 232.80413,182.3468 235.73648,183.73231 235.66847,188.42347 C 235.61939,191.80916 235.07544,193.63964 233.85273,194.53371 C 231.11648,196.53451 231.17796,197.50841 235.76992,199.13384 C 241.29956,201.09118 241.58723,203.7334 242.66745,201.68826 z"
       id="path2404" />
    <path
       style="fill:#ffffff;fill-opacity:1;stroke:#000000;stroke-width:1.70000005000000010;stroke-miterlimit:4;stroke-dasharray:none;stroke-opacity:1"
       d="M 229.45556,189.07826 C 229.69239,186.74076 230.7241,185.50068 231.54395,184.83969 C 236.82991,180.57796 231.87114,183.1074 230.46405,183.16278 C 228.2059,183.25166 223.73023,187.8019 220.5225,188.05051 C 215.61747,188.43066 228.88101,195.9704 230.37544,195.9704 C 230.92439,195.9704 229.21873,191.41576 229.45556,189.07826 z"
       id="path2402" />
    <path
       style="fill:#000000;fill-opacity:1;stroke:#000000;stroke-width:1.70000005;stroke-miterlimit:4;stroke-dasharray:none;stroke-opacity:1"
       d="M 404.10705,417.69336 C 404.10705,416.80769 406.27432,413.83455 408.92321,411.08637 L 413.73937,406.08969 L 424.24507,406.08969 C 434.8001,406.08969 442.94809,407.79605 445.99933,410.64548 C 447.67813,412.21325 445.15749,412.72344 432.00529,413.47795 C 424.69696,413.89721 411.24206,416.56571 405.68566,418.6979 C 404.65027,419.09521 402.05205,420.80454 404.10705,417.69336 z"
       id="path2246" />
    <path
       style="fill:#167a00;fill-opacity:1;fill-rule:evenodd;stroke:#000000;stroke-width:1.70000005;stroke-linecap:butt;stroke-linejoin:miter;stroke-miterlimit:4;stroke-dasharray:none;stroke-opacity:1"
       d="M 295.61271,146.38358 C 295.63586,145.87032 291.76064,144.36778 290.3998,145.2069 C 289.03897,146.04602 290.19253,149.22681 288.77393,149.64734 C 291.08191,169.73047 300.9911,182.01293 300.9911,182.01293 L 309.84361,180.02367 C 309.84361,180.02367 294.77117,164.86646 295.61271,146.38358 z "
       id="path5193"
       sodipodi:nodetypes="cscccs" />
    <path
       style="fill:none;fill-opacity:1;fill-rule:evenodd;stroke:#000000;stroke-width:1.79999995;stroke-linecap:butt;stroke-linejoin:miter;stroke-miterlimit:4;stroke-dasharray:none;stroke-opacity:1"
       d="M 300.45558,112.79863 C 300.64207,109.51205 295.43235,112.34859 295.44628,102.95687 C 295.4565,96.214917 287.26293,104.33227 286.81498,104.17137 C 281.85428,102.38959 278.72695,98.993899 278.45912,104.74634 C 278.21302,110.03208 283.35135,109.48789 280.97724,111.08749 C 272.35984,116.89361 275.12753,119.33197 278.51045,119.90457 C 280.70151,120.27544 285.07984,118.34542 285.39722,119.93301 C 286.34173,124.65773 288.73189,125.63554 290.11981,125.98252 C 291.28275,126.27326 293.66976,120.41815 293.58337,116.39789 C 293.53029,113.92802 297.24955,119.71183 300.44081,112.91142 C 300.74824,112.25631 299.91658,118.2871 302.30664,122.10908 C 303.50167,124.02007 305.40901,125.39037 307.76004,125.49913 C 311.11286,125.65424 311.77767,125.87297 314.75077,130.298"
       id="path2163"
       sodipodi:nodetypes="cssssssssssss" />
    <path
       style="fill:#ff0000;fill-opacity:1;fill-rule:evenodd;stroke:#000000;stroke-width:1.79999995;stroke-linecap:butt;stroke-linejoin:miter;stroke-miterlimit:4;stroke-dasharray:none;stroke-opacity:1"
       d="M 257.58556,112.19543 C 257.65403,112.2639 257.51709,112.33237 257.58556,112.40084 C 258.10995,112.92522 263.54532,114.45495 264.36413,114.45495"
       id="path2167"
       sodipodi:nodetypes="csc" />
    <path
       style="fill:#ff0000;fill-opacity:1;fill-rule:evenodd;stroke:#000000;stroke-width:1.79999995;stroke-linecap:butt;stroke-linejoin:miter;stroke-miterlimit:4;stroke-dasharray:none;stroke-opacity:1"
       d="M 257.99638,122.87681 C 261.26341,121.48539 262.10461,121.0281 265.18577,120.20646"
       id="path2169"
       sodipodi:nodetypes="cc" />
    <path
       style="fill:#ff0000;fill-opacity:1;fill-rule:evenodd;stroke:#000000;stroke-width:1.79999995;stroke-linecap:butt;stroke-linejoin:miter;stroke-miterlimit:4;stroke-dasharray:none;stroke-opacity:1"
       d="M 308.93835,107.06015 C 309.58394,107.06015 314.39118,105.70166 320.03055,105.41686"
       id="path2173"
       sodipodi:nodetypes="cc" />
    <path
       style="fill:none;fill-opacity:1;fill-rule:evenodd;stroke:#000000;stroke-width:1.79999995;stroke-linecap:butt;stroke-linejoin:miter;stroke-miterlimit:4;stroke-dasharray:none;stroke-opacity:1"
       d="M 304.21389,105.00604 C 313.03153,103.77357 311.60869,99.117584 313.04656,97.200414"
       id="path2175"
       sodipodi:nodetypes="cc" />
    <path
       style="fill:#ff0000;fill-opacity:1;fill-rule:evenodd;stroke:#000000;stroke-width:1.79999995;stroke-linecap:butt;stroke-linejoin:miter;stroke-miterlimit:4;stroke-dasharray:none;stroke-opacity:1"
       d="M 303.18683,94.119246 C 305.18453,91.356323 306.01091,91.055307 309.76,89.600201"
       id="path2177"
       sodipodi:nodetypes="cc" />
    <path
       style="fill:#ff0000;fill-opacity:1;fill-rule:evenodd;stroke:#000000;stroke-width:1.79999995;stroke-linecap:butt;stroke-linejoin:miter;stroke-miterlimit:4;stroke-dasharray:none;stroke-opacity:1"
       d="M 297.22991,93.092191 C 297.47342,89.76752 297.84614,88.714532 297.43532,84.875745"
       id="path2179"
       sodipodi:nodetypes="cc" />
    <path
       style="fill:#ff0000;fill-opacity:1;fill-rule:evenodd;stroke:#000000;stroke-width:1.79999995;stroke-linecap:butt;stroke-linejoin:miter;stroke-miterlimit:4;stroke-dasharray:none;stroke-opacity:1"
       d="M 285.31607,93.708425 C 285.31607,93.034272 283.72444,88.726892 285.72688,84.875745"
       id="path2181"
       sodipodi:nodetypes="cc" />
    <path
       style="fill:#ff0000;fill-opacity:1;fill-rule:evenodd;stroke:#000000;stroke-width:1.79999995;stroke-linecap:butt;stroke-linejoin:miter;stroke-miterlimit:4;stroke-dasharray:none;stroke-opacity:1"
       d="M 280.79702,135.81771 C 280.4867,136.54717 280.18078,141.02146 280.5916,143.41792"
       id="path3144"
       sodipodi:nodetypes="cc" />
    <path
       style="fill:none;fill-rule:evenodd;stroke:#000000;stroke-width:1.79999995;stroke-linecap:butt;stroke-linejoin:miter;stroke-miterlimit:4;stroke-dasharray:none;stroke-opacity:1"
       d="M 363.03429,247.32075 C 359.86469,256.18364 354.95727,260.99429 348.06558,269.17162"
       id="path6054"
       sodipodi:nodetypes="cc" />
    <path
       style="fill:none;fill-rule:evenodd;stroke:#000000;stroke-width:1.79999995;stroke-linecap:butt;stroke-linejoin:miter;stroke-miterlimit:4;stroke-dasharray:none;stroke-opacity:1"
       d="M 378.86327,241.64296 C 380.92324,249.56525 390.49169,254.63797 391.25118,254.89113"
       id="path6056"
       sodipodi:nodetypes="cc" />
    <path
       style="fill:none;fill-rule:evenodd;stroke:#000000;stroke-width:1.79999995;stroke-linecap:butt;stroke-linejoin:miter;stroke-miterlimit:4;stroke-dasharray:none;stroke-opacity:1"
       d="M 413.44616,223.74932 C 408.2283,218.91967 418.31755,212.31844 418.60778,212.22169"
       id="path7027"
       sodipodi:nodetypes="cc" />
    <path
       style="fill:none;fill-rule:evenodd;stroke:#000000;stroke-width:1px;stroke-linecap:butt;stroke-linejoin:miter;stroke-opacity:1"
       d="M 419.29601,215.83484 C 417.84466,216.55437 416.09432,219.07019 416.02698,219.10386"
       id="path7998"
       sodipodi:nodetypes="cc" />
    <path
       sodipodi:nodetypes="cssssscsssssssssss"
       id="path2165"
       d="M 310.42709,113.72755 C 312.66007,118.55225 320.40625,117.65812 318.93013,117.62422 C 313.73107,117.50955 314.45907,118.09356 315.36977,120.7831 C 318.73632,130.72539 302.58693,121.77909 304.97699,125.60107 C 306.17202,127.51206 303.97113,134.22305 290.71092,126.11537 C 287.84736,124.36451 291.85279,127.10544 286.40403,134.20082 M 301.21117,117.45704 C 314.99703,115.40293 312.80799,108.8213 306.3923,105.70337 C 301.64611,103.3968 294.02832,108.79525 296.13926,107.66005 C 308.60048,100.95879 304.54039,89.896418 297.01426,93.37482 C 288.48647,97.316169 290.05469,103.6766 289.75354,100.82944 C 289.04438,94.124882 283.77094,93.240069 281.88511,91.846702 C 279.76544,90.28056 276.4582,93.577813 275.55011,97.663796 C 273.11481,108.62144 280.91591,106.74638 278.04829,107.00586 C 271.84527,107.56715 266.73312,111.77654 265.16058,114.16866 C 261.88387,119.15314 266.87381,122.09708 270.0886,122.78033 C 274.65729,123.75133 277.6213,118.98191 277.59886,120.60075 C 277.51632,126.76335 276.40722,127.68966 277.58973,131.93945"
       style="fill:none;fill-opacity:1;fill-rule:evenodd;stroke:#000000;stroke-width:1.79999995;stroke-linecap:butt;stroke-linejoin:miter;stroke-miterlimit:4;stroke-dasharray:none;stroke-opacity:1" />
    <path
       style="fill:none;fill-opacity:1;fill-rule:evenodd;stroke:#000000;stroke-width:1.79999995;stroke-linecap:butt;stroke-linejoin:miter;stroke-miterlimit:4;stroke-dasharray:none;stroke-opacity:1"
       d="M 257.38015,101.71946 C 260.94329,101.51405 263.16348,100.64615 266.21283,102.74652 C 272.51648,107.0884 278.92397,109.09972 273.25558,106.8402 C 272.20613,106.42187 264.26142,100.6924 264.21007,91.448902 C 264.20023,89.795842 269.8988,90.566433 276.36046,94.52274 C 276.60619,94.673193 272.94004,93.503013 274.22386,83.232456"
       id="path2171"
       sodipodi:nodetypes="cssssc" />
    <path
       style="fill:none;fill-opacity:1;fill-rule:evenodd;stroke:#000000;stroke-width:1.79999995;stroke-linecap:butt;stroke-linejoin:miter;stroke-miterlimit:4;stroke-dasharray:none;stroke-opacity:1"
       d="M 268.67609,123.09039 C 263.93271,138.0854 258.62377,135.02654 262.39347,133.41616 C 268.48658,130.81324 261.15118,137.98289 268.38721,136.2367 C 269.5806,135.94871 267.99972,141.17219 268.04239,141.1253 C 270.29791,138.64657 264.10764,138.01677 277.13366,131.64981 C 277.36981,131.53438 279.31788,135.15533 282.88332,137.59113 C 284.2255,138.50806 286.80276,132.74146 287.09974,134.33299 C 288.24967,140.49559 291.46147,144.14374 292.84939,144.49072 C 294.01233,144.78146 295.5777,143.4454 296.10754,140.65761 C 296.56881,138.23061 296.6265,135.41033 298.79071,131.07485 C 299.43712,129.77992 301.27434,134.18726 307.4152,138.74106"
       id="path3134"
       sodipodi:nodetypes="cssssssssss" />
  </g>
</svg>
