<?xml version="1.0" encoding="UTF-8" standalone="no"?>
<!-- Created with Inkscape (http://www.inkscape.org/) -->

<svg
   xmlns:dc="http://purl.org/dc/elements/1.1/"
   xmlns:cc="http://creativecommons.org/ns#"
   xmlns:rdf="http://www.w3.org/1999/02/22-rdf-syntax-ns#"
   xmlns:svg="http://www.w3.org/2000/svg"
   xmlns="http://www.w3.org/2000/svg"
   xmlns:xlink="http://www.w3.org/1999/xlink"
   xmlns:sodipodi="http://sodipodi.sourceforge.net/DTD/sodipodi-0.dtd"
   xmlns:inkscape="http://www.inkscape.org/namespaces/inkscape"
   width="664.28571"
   height="810"
   id="svg2"
   version="1.1"
   inkscape:version="0.48.5 r10040"
   sodipodi:docname="Kaisiadorys.svg">
  <defs
     id="defs4" />
  <sodipodi:namedview
     id="base"
     pagecolor="#f6f3f1"
     bordercolor="#666666"
     borderopacity="1.0"
     inkscape:pageopacity="0"
     inkscape:pageshadow="2"
     inkscape:zoom="0.5"
     inkscape:cx="173.91936"
     inkscape:cy="423.69775"
     inkscape:document-units="px"
     inkscape:current-layer="layer1"
     showgrid="false"
     showborder="true"
     inkscape:window-width="1920"
     inkscape:window-height="1017"
     inkscape:window-x="-8"
     inkscape:window-y="-8"
     inkscape:window-maximized="1"
     inkscape:snap-global="true"
     inkscape:object-nodes="true"
     inkscape:snap-smooth-nodes="true"
     fit-margin-top="0"
     fit-margin-left="0"
     fit-margin-right="0"
     fit-margin-bottom="0"
     inkscape:showpageshadow="false" />
  <metadata
     id="metadata7">
    <rdf:RDF>
      <cc:Work
         rdf:about="">
        <dc:format>image/svg+xml</dc:format>
        <dc:type
           rdf:resource="http://purl.org/dc/dcmitype/StillImage" />
        <dc:title></dc:title>
      </cc:Work>
    </rdf:RDF>
  </metadata>
  <g
     inkscape:label="Layer 1"
     inkscape:groupmode="layer"
     id="layer1"
     transform="translate(-29.46429,-12.71933)">
    <g
       id="g3914"
       transform="matrix(2,0,0,2,-361.60715,-417.71933)">
      <path
         sodipodi:nodetypes="cszscc"
         inkscape:connector-curvature="0"
         id="path3761"
         d="m 195.53572,215.21933 c 0,0 0,139.28571 0,236.78571 0,99.64286 78.21428,168.21429 166.07143,168.21429 87.85715,0 166.07143,-68.57143 166.07143,-168.21429 0,-97.5 0,-236.78571 0,-236.78571 z"
         style="color:#000000;fill:#000000;stroke:none;stroke-width:1;marker:none;visibility:visible;display:inline;overflow:visible;enable-background:accumulate" />
      <path
         style="color:#000000;fill:none;stroke:#d9dadc;stroke-width:2;stroke-linecap:butt;stroke-linejoin:miter;stroke-miterlimit:4;stroke-opacity:1;stroke-dasharray:none;stroke-dashoffset:0;marker:none;visibility:visible;display:inline;overflow:visible;enable-background:accumulate"
         d="m 199.32379,219.0074 c 0,0 0,136.54988 0,232.1348 0,97.68569 76.43022,164.91025 162.28336,164.91025 85.85314,0 162.28336,-67.22456 162.28336,-164.91025 0,-95.58492 0,-232.1348 0,-232.1348 z"
         id="path3765"
         inkscape:connector-curvature="0"
         sodipodi:nodetypes="cszscc" />
      <g
         transform="translate(1.516494,0)"
         id="g3828">
        <g
           id="g3795"
           transform="translate(0,-8.6537279e-5)">
          <g
             id="g3806"
             transform="matrix(0.99994495,0.01049273,-0.01049273,0.99994495,2.4742056,-3.3910365)">
            <path
               style="color:#000000;fill:#d9dadc;fill-opacity:1;stroke:#000000;stroke-width:1;stroke-linecap:butt;stroke-linejoin:miter;stroke-miterlimit:4;stroke-opacity:1;stroke-dasharray:none;stroke-dashoffset:0;marker:none;visibility:visible;display:inline;overflow:visible;enable-background:accumulate"
               d="m 243.66071,312.80861 0.53572,-34.55357 c 0,0 2.94643,1.60714 3.21428,6.96428 0,0 11.25,-2.14285 19.28572,4.01786 8.03571,6.16071 10.44176,14.28728 10.44176,14.28728 l 221.5272,-2.32456 c 0,0 -2.16127,6.08621 -13.63654,6.08621 -11.47528,0 -17.43956,-4.12036 -17.43956,-4.12036 l 0.24382,12.75129 29.82634,-0.31298 c -3.13235,4.8052 -21.96358,6.04993 -29.69249,7.38953 9.25663,1.57165 18.56713,3.53651 29.62566,7.811 l -271.34595,2.84732 c 0,0 8.05808,-4.1902 27.61166,-7.60735 0,0 -17.86105,-1.57453 -30.74512,-7.19953 l 30.45918,-0.31962 -0.26882,-16.69894 c 0,0 -2.06662,3.33305 -5.08928,11.51785 -2.67857,0.53571 -4.55358,-0.53571 -4.55358,-0.53571 z"
               id="path3778"
               inkscape:connector-curvature="0"
               sodipodi:nodetypes="cccsccscccccccccccc" />
            <path
               style="color:#000000;fill:none;stroke:#000000;stroke-width:1;stroke-linecap:butt;stroke-linejoin:bevel;stroke-miterlimit:4;stroke-opacity:1;stroke-dasharray:none;stroke-dashoffset:0;marker:none;visibility:visible;display:inline;overflow:visible;enable-background:accumulate"
               d="m 277.13819,303.52446 c 0,0 -22.40605,29.81986 -23.20962,30.08772 l -0.35714,-15.17857 m 0.29253,-25.32734 c 0,0 11.74739,1.92581 12.31571,24.86352 l 189.5841,-1.98937 11.93686,-14.72979 m -11.93686,14.72979 12.22096,14.81717 -0.15047,-14.77086"
               id="path3782"
               inkscape:connector-curvature="0"
               sodipodi:nodetypes="cccccccccc" />
            <path
               sodipodi:type="arc"
               style="color:#000000;fill:#d1261b;fill-opacity:1;stroke:#000000;stroke-width:1;stroke-linecap:square;stroke-linejoin:miter;stroke-miterlimit:4;stroke-opacity:1;stroke-dasharray:none;stroke-dashoffset:0;marker:none;visibility:visible;display:inline;overflow:visible;enable-background:accumulate"
               id="path3780"
               sodipodi:cx="251.20535"
               sodipodi:cy="293.38898"
               sodipodi:rx="4.6875"
               sodipodi:ry="4.6875"
               d="m 255.89285,293.38898 c 0,2.58883 -2.09866,4.6875 -4.6875,4.6875 -2.58883,0 -4.6875,-2.09867 -4.6875,-4.6875 0,-2.58884 2.09867,-4.6875 4.6875,-4.6875 2.58884,0 4.6875,2.09866 4.6875,4.6875 z"
               transform="translate(-0.53571429,-0.80357143)" />
          </g>
          <g
             id="g3789"
             transform="translate(1.097621,0)">
            <path
               style="color:#000000;fill:#d9dadc;fill-opacity:1;stroke:none;stroke-width:1;marker:none;visibility:visible;display:inline;overflow:visible;enable-background:accumulate"
               d="m 253.6085,274.71884 0,8.5625 c 9.13456,0 14.2717,8 23.40625,8 9.13455,0 14.30294,-8 23.4375,-8 9.13456,0 14.2717,8 23.40625,8 9.13456,0 14.30296,-8 23.4375,-8 9.13456,0 14.27168,8 23.40625,8 9.13455,0 14.27169,-8 23.40625,-8 9.13457,0 14.30295,8 23.4375,8 9.13456,0 14.27169,-8 23.40625,-8 9.13455,0 14.30294,8 23.4375,8 l 0,-8.5625 c -9.13456,0 -14.30295,-8 -23.4375,-8 -9.13456,0 -14.27169,8 -23.40625,8 -9.13455,0 -14.30293,-8 -23.4375,-8 -9.13456,0 -14.2717,8 -23.40625,8 -9.13457,0 -14.27169,-8 -23.40625,-8 -9.13454,0 -14.30294,8 -23.4375,8 -9.13455,0 -14.27169,-8 -23.40625,-8 -9.13456,0 -14.30295,8 -23.4375,8 -9.13455,0 -14.27169,-8 -23.40625,-8 z"
               id="path3866"
               inkscape:connector-curvature="0" />
            <g
               id="g3864"
               style="stroke:#000000;stroke-width:1;stroke-linecap:square;stroke-miterlimit:4;stroke-dasharray:none"
               transform="translate(-5e-6,2.6876)">
              <path
                 style="color:#000000;fill:none;stroke:#000000;stroke-width:1;stroke-linecap:square;stroke-linejoin:miter;stroke-miterlimit:4;stroke-opacity:1;stroke-dasharray:none;stroke-dashoffset:0;marker:none;visibility:visible;display:inline;overflow:visible;enable-background:accumulate"
                 d="m 253.61145,276.31249 c 9.13456,0 14.28358,8 23.41813,8 9.13455,0 14.28358,-8 23.41814,-8 9.13456,0 14.28357,8 23.41812,8 9.13456,0 14.28359,-8 23.41813,-8 9.13456,0 14.28357,8 23.41814,8 9.13455,0 14.28356,-8 23.41812,-8 9.13457,0 14.28358,8 23.41813,8 9.13456,0 14.28358,-8 23.41814,-8 9.13455,0 14.28357,8 23.41813,8"
                 id="path3866-1"
                 inkscape:connector-curvature="0"
                 sodipodi:nodetypes="czzzzzzzzc" />
            </g>
          </g>
        </g>
        <use
           x="0"
           y="0"
           xlink:href="#g3795"
           id="use3822"
           transform="matrix(-1,0,0,1,720.18131,67.142884)"
           width="744.09448"
           height="1052.3622" />
        <use
           height="1052.3622"
           width="744.09448"
           transform="translate(1.9827995e-6,134.28577)"
           id="use3824"
           xlink:href="#g3795"
           y="0"
           x="0" />
        <use
           height="1052.3622"
           width="744.09448"
           transform="matrix(-1,0,0,1,720.18131,201.42864)"
           id="use3826"
           xlink:href="#g3795"
           y="0"
           x="0" />
      </g>
    </g>
  </g>
</svg>
