<?xml version="1.0" encoding="UTF-8" standalone="no"?>
<svg
   xmlns:dc="http://purl.org/dc/elements/1.1/"
   xmlns:cc="http://creativecommons.org/ns#"
   xmlns:rdf="http://www.w3.org/1999/02/22-rdf-syntax-ns#"
   xmlns:svg="http://www.w3.org/2000/svg"
   xmlns="http://www.w3.org/2000/svg"
   xmlns:xlink="http://www.w3.org/1999/xlink"
   xmlns:sodipodi="http://sodipodi.sourceforge.net/DTD/sodipodi-0.dtd"
   xmlns:inkscape="http://www.inkscape.org/namespaces/inkscape"
   height="763"
   width="603"
   version="1.0"
   id="svg20"
   sodipodi:version="0.32"
   inkscape:version="1.0.1 (3bc2e813f5, 2020-09-07)"
   sodipodi:docname="Blason de Dubičių (Lituanie).svg"
   inkscape:output_extension="org.inkscape.output.svg.inkscape"
   sodipodi:modified="true">
  <metadata
     id="metadata31">
    <rdf:RDF>
      <cc:Work
         rdf:about="">
        <dc:format>image/svg+xml</dc:format>
        <dc:type
           rdf:resource="http://purl.org/dc/dcmitype/StillImage" />
        <dc:date>07-AUG-2006</dc:date>
        <dc:creator>
          <cc:Agent>
            <dc:title>Jérôme BLUM (wagner51)</dc:title>
          </cc:Agent>
        </dc:creator>
        <cc:license
           rdf:resource="http://creativecommons.org/licenses/GPL/2.0/" />
        <dc:coverage />
        <dc:description>Gabarit pour le Projet:Blasons de WIkipédia</dc:description>
        <dc:subject>
          <rdf:Bag>
            <rdf:li>blason suisse modèle gabarit projet blasons</rdf:li>
          </rdf:Bag>
        </dc:subject>
        <dc:language>fr</dc:language>
        <dc:title>Gabrit d'un blason suisse</dc:title>
      </cc:Work>
      <cc:License
         rdf:about="http://creativecommons.org/licenses/GPL/2.0/">
        <cc:permits
           rdf:resource="http://web.resource.org/cc/Reproduction" />
        <cc:permits
           rdf:resource="http://web.resource.org/cc/Distribution" />
        <cc:requires
           rdf:resource="http://web.resource.org/cc/Notice" />
        <cc:permits
           rdf:resource="http://web.resource.org/cc/DerivativeWorks" />
        <cc:requires
           rdf:resource="http://web.resource.org/cc/ShareAlike" />
        <cc:requires
           rdf:resource="http://web.resource.org/cc/SourceCode" />
      </cc:License>
    </rdf:RDF>
  </metadata>
  <defs
     id="defs29">
    <linearGradient
       id="linearGradient2893">
      <stop
         style="stop-color:#ffffff;stop-opacity:0.3137255;"
         offset="0"
         id="stop2895" />
      <stop
         id="stop2897"
         offset="0.19"
         style="stop-color:#ffffff;stop-opacity:0.25098041;" />
      <stop
         style="stop-color:#6b6b6b;stop-opacity:0.1254902;"
         offset="0.60000002"
         id="stop2901" />
      <stop
         style="stop-color:#000000;stop-opacity:0.1254902;"
         offset="1"
         id="stop2899" />
    </linearGradient>
    <radialGradient
       inkscape:collect="always"
       xlink:href="#linearGradient2893"
       id="radialGradient3236"
       gradientUnits="userSpaceOnUse"
       gradientTransform="matrix(1.215027,1.531577e-24,1.464684e-23,1.266667,-839.1924,-490.4894)"
       cx="858.04236"
       cy="579.93323"
       fx="858.04236"
       fy="579.93323"
       r="300" />
  </defs>
  <sodipodi:namedview
     inkscape:window-height="1057"
     inkscape:window-width="1858"
     inkscape:pageshadow="2"
     inkscape:pageopacity="0.0"
     guidetolerance="10.0"
     gridtolerance="10.0"
     objecttolerance="10.0"
     borderopacity="1.0"
     bordercolor="#666666"
     pagecolor="#ffffff"
     id="base"
     inkscape:zoom="0.94898735"
     inkscape:cx="622.24715"
     inkscape:cy="312.45301"
     inkscape:window-x="1974"
     inkscape:window-y="-8"
     inkscape:current-layer="layer2"
     showgrid="false"
     inkscape:window-maximized="1"
     inkscape:document-rotation="0" />
  <desc
     id="desc22">Coat of Arms of Canton of Freiburg (Fribourg)</desc>
  <g
     inkscape:groupmode="layer"
     id="layer1"
     inkscape:label="Fond écu"
     style="display:inline"
     sodipodi:insensitive="true">
    <path
       id="path1899"
       d="M 1.5,1.49998 V 460.3679 C 1.5,626.6785 135.81456,761.5 301.49999,761.5 467.18543,761.5 601.5,626.6785 601.5,460.3679 V 1.49998 Z"
       style="fill:#e20909;fill-opacity:1" />
  </g>
  <g
     inkscape:groupmode="layer"
     id="layer2"
     inkscape:label="Meubles"
     style="display:inline">
    <path
       style="display:inline;fill:#ffffff;stroke:#000000;stroke-width:3;stroke-linecap:butt;stroke-linejoin:miter;stroke-miterlimit:4;stroke-dasharray:none;stroke-opacity:1"
       d="m 226.3834,153.36793 c 9.49389,2.39582 13.09107,-4.15891 19.58282,-4.50378 21.91383,-1.16414 25.14429,4.08093 38.32787,5.23696 1.06556,0.0934 0.80004,8.42955 -3.4558,8.16963 -12.16712,-0.74307 -20.90264,-5.0525 -31.521,-4.71325 -4.14007,0.13227 -7.90379,2.88257 -12.0429,2.72322 -5.86314,-0.22573 -12.86842,-7.41179 -10.89099,-6.91278 z"
       id="path858" />
    <path
       id="path864-2"
       style="display:inline;fill:#ffffff;stroke:#000000;stroke-width:3;stroke-linecap:butt;stroke-linejoin:miter;stroke-miterlimit:4;stroke-dasharray:none;stroke-opacity:1"
       d="m 47.821873,193.31729 c -1.378158,12.80285 4.166398,21.2803 14.676239,25.97603 -3.625718,8.02324 -34.012919,18.20652 -42.653487,2.05379 4.765908,-1.92939 7.689765,-3.5317 10.552204,-5.1231 -13.228345,4.16095 -14.338591,0.83199 -16.727511,-2.59187 10.041993,-4.03666 24.194996,-16.2143 34.152555,-20.31485 z m 68.873247,267.64999 c 9.9833,0.44255 22.11844,-5.41934 27.20131,-14.37219 12.64865,7.79899 20.88949,36.32407 2.61082,40.20445 -2.12545,-4.21866 -3.07175,-6.92314 -4.74391,-9.42406 2.46137,8.17063 -0.0182,11.49413 -2.96798,13.9419 -5.33116,-9.32172 -17.6339,-21.49374 -22.10024,-30.3501 z m 9.48968,164.28716 c 3.64055,10.26404 13.24626,16.98264 24.35501,18.45588 0.82005,10.88466 -19.43802,33.6659 -38.83448,21.07998 3.384,-3.87154 5.2713,-6.62038 7.10871,-9.33179 -7.23163,5.82661 -12.17182,3.69473 -15.84773,1.71614 9.52591,-8.50626 16.17952,-23.76928 23.21849,-31.92021 z m 289.02982,51.5316 c 16.70498,-2.22619 23.12377,4.39864 30.95245,12.59049 2.80974,9.10409 -21.32301,28.21947 -39.98642,19.40415 3.38399,-3.87154 5.2713,-6.62038 7.1087,-9.33179 -10.26854,8.02612 -14.78983,4.11367 -20.14128,1.92563 9.52591,-8.50626 15.02759,-16.43755 22.06655,-24.58848 z" />
    <path
       style="display:inline;fill:#fcef3c;stroke:#000000;stroke-width:3;stroke-linecap:butt;stroke-linejoin:miter;stroke-miterlimit:4;stroke-dasharray:none;stroke-opacity:1"
       d="m 62.498112,219.29332 c -9.043514,-4.50653 -15.825431,-11.27505 -14.676239,-25.97603 10.943219,-5.69555 39.815555,-17.68482 51.011412,-8.94662 15.256165,2.54478 31.434235,-1.15812 49.847165,-1.25686 15.46411,-5.3751 31.55052,-10.19142 47.01227,21.21861 4.47406,9.08892 8.39896,28.72403 9.74803,41.42582 6.38814,-1.56767 19.03154,-6.21765 25.2647,-12.02699 -2.14543,-3.86295 -2.38103,-6.16198 -2.55976,-9.23808 8.62515,0.80575 24.94881,0.74583 31.95785,-2.41646 -3.88506,-3.42304 -4.90815,-6.52803 -5.27198,-9.55975 27.97609,6.33908 49.02481,-16.65351 44.44813,-36.97196 -13.34336,-0.46182 -19.2996,2.85315 -22.96236,-5.61778 -16.08253,7.77797 -21.36629,-3.65944 -21.31225,-11.67994 23.76638,6.80946 28.39067,0.44401 26.17091,-8.35223 -2.32156,-9.19974 -7.85014,-14.2514 -28.61235,-9.51475 -7.69806,-7.22142 -8.92796,-17.74741 -4.503,-23.98523 15.03794,-3.96688 31.17606,-1.18337 52.25574,1.3616 9.23038,-1.98312 17.24452,-5.66925 27.75108,-5.86538 -4.3086,-13.180121 3.39257,-19.497093 1.46608,-27.6511 8.43584,-0.258989 11.56405,14.824738 15.13285,17.74487 7.55356,7.9725 23.27056,14.83507 31.91303,23.48581 5.30511,-7.79123 30.53442,-5.38216 67.3094,13.12886 -8.57683,7.94146 -34.57961,15.90853 -47.69883,14.19894 12.64098,23.78005 18.97736,69.09783 -31.26079,133.06411 20.30506,16.43658 16.05205,36.83186 15.81289,53.94059 1.55743,11.22459 30.89451,47.30093 40.21285,51.95054 26.23157,12.50807 45.579,45.07396 45.78102,59.93613 8.60329,1.37457 4.34695,15.34149 31.88162,5.24747 24.08704,-2.52271 24.7195,33.11697 10.32835,44.46014 -2.79429,2.20249 -4.19637,-17.55201 -10.84618,-17.53621 -5.37533,0.0125 -4.19088,6.4598 -9.70454,7.18504 -1.34582,-5.1374 -4.5964,-8.8657 -16.33645,-11.31181 -8.82753,-1.83926 -11.37087,-9.87385 -14.66094,-18.0151 7.39143,19.65161 -26.78912,57.22504 -23.33479,77.15977 1.73641,10.02082 31.80927,11.08663 42.8742,14.54077 9.62998,-3.99589 24.03517,6.91392 29.88887,19.74174 1.79045,3.92358 -23.81578,42.71568 -26.38968,74.57417 5.70737,13.12323 0.26142,23.99125 -9.94847,32.25962 -5.10523,-11.60504 -11.81691,-11.90033 -15.09311,-10.50331 -11.00597,4.69316 -5.39125,24.8312 -8.18056,21.35054 -6.10724,-7.62095 -13.37459,-16.61108 -31.99966,-14.05683 9.74059,-29.50458 24.35154,-25.97971 30.45446,-35.7533 3.94307,-4.04316 10.77289,-20.80149 12.4815,-34.39141 1.01167,-8.04654 -0.52012,-14.91425 -3.47552,-17.55913 -8.00208,-7.16131 -58.35104,-2.87725 -76.55097,-7.64596 -19.0279,-4.98566 -34.56284,-36.23134 -36.9665,-40.21976 -23.26935,-1.3014 -41.59996,13.78951 -56.23518,24.40418 -7.91328,16.23916 -15.96785,24.50722 -10.89098,41.79086 -20.09455,22.97903 -55.31763,13.28153 -74.87547,19.90038 -5.72159,1.93635 0.15328,15.27293 -23.24806,20.42412 -1.01802,-7.09087 -0.27478,-14.14041 -9.56626,-17.75683 -9.22847,-3.59192 -14.91184,5.40645 -12.66019,13.4169 -6.40988,0.53833 -23.13361,-4.77896 -27.49665,-18.14165 6.02419,-11.83077 10.52115,-24.41079 28.77891,-29.17273 9.74198,-2.54086 19.6552,-2.49314 26.65049,0.53184 9.69018,-1.14365 20.97186,1.67046 34.92544,-2.92284 19.29703,-6.35227 28.0346,-27.84687 22.82916,-38.9629 -9.97903,-21.30984 -19.17941,-45.06301 -7.12103,-57.60648 -5.68072,-16.96606 17.19436,-25.52593 30.15963,-26.39423 24.94348,-1.67046 53.97896,10.47146 58.4343,-13.61607 -19.35234,-14.12144 -50.2295,-19.06873 -75.09774,-39.01851 -13.12395,-10.5283 -44.69932,-45.84716 -45.5408,-59.01718 -8.90323,-2.59995 -35.95383,-2.25202 -54.036,-0.62845 -13.50619,1.21271 -13.10922,39.87831 -10.05322,48.38943 3.37557,9.40114 19.69752,15.44981 11.30986,27.65111 -5.89131,-3.12853 -10.4014,1.71552 -9.44986,6.78122 0.99373,5.29039 3.85943,3.89079 5.92248,5.32644 -3.05131,5.72384 -13.12791,14.23976 -27.20131,14.37219 -5.06964,-5.10263 -13.3154,-15.44129 -14.85341,-19.75115 -1.18085,-3.30901 -2.142359,-10.37351 -0.38054,-13.28086 -0.91674,-5.27923 0.015,-61.74802 -5.245901,-75.35375 -1.907597,-4.93346 1.385515,-11.45092 5.581171,-17.30515 3.84191,-5.36065 8.4703,-10.31994 12.33355,-10.66018 24.34044,-2.14355 47.543,-2.84574 70.27829,-5.65901 -0.56123,-2.01297 -0.98734,-5.72936 -1.05556,-7.81639 -2.67725,-0.0219 -7.64725,-2.29196 -10.4975,-4.83069 -12.06367,-30.2036 -6.60443,-75.39387 -14.54043,-84.23339 -7.26021,-8.08679 -35.16706,-3.02811 -51.94159,-3.35166 -1.70408,7.11626 -15.688338,13.02668 -24.295261,7.96017 1.762186,-2.80048 6.604273,-6.53674 -2.15139,-13.38254 -5.757724,-4.50179 -13.449655,-0.73925 -17.428427,5.99064 z"
       id="path903" />
    <path
       id="path848"
       style="display:inline;fill:#ffffff;stroke:#000000;stroke-width:3;stroke-linecap:butt;stroke-linejoin:miter;stroke-miterlimit:4;stroke-dasharray:none;stroke-opacity:1"
       d="m 503.48091,12.601789 c -3.59999,0.80998 -2.92487,10.811454 -7.61715,17.356117 -4.11077,5.733614 -19.4005,12.764071 -24.96368,9.601397 -9.55691,-5.433132 -8.59106,-18.071474 -4.74053,-25.773227 -10.3858,1.19125 -15.831,7.495941 -14.51359,21.330216 0.65719,6.90089 9.03682,15.515074 0.29684,20.441023 -15.08081,8.499772 -49.17093,11.304031 -55.38858,8.294672 -9.26921,-4.486341 -31.75466,-20.1968 -13.92072,-38.80784 -27.8252,-6.230014 -20.94871,33.84893 -5.92366,41.76938 -8.6339,14.349106 -29.88876,5.490752 -33.6557,44.956353 0.13384,2.05847 14.00752,5.79622 18.19019,3.15628 -0.31477,5.1065 12.32216,11.44851 15.33502,10.54471 0.89006,-1.51148 3.92664,-3.6212 7.48225,-4.3513 10.5914,-2.17475 28.66633,-3.74887 46.55582,-5.12795 24.10695,-4.57933 39.84902,5.37893 55.98051,0.88828 12.43391,-3.16487 18.77195,-10.14081 38.20875,-7.70241 20.66155,21.23405 73.47344,13.45716 64.27444,-5.9247 -9.11136,5.08653 -26.33708,13.17001 -41.76379,0.29648 35.33096,-11.970464 26.5796,-44.27767 19.84601,-43.844727 -8.65278,2.236922 11.36334,30.074193 -45.31768,32.290195 -15.2035,-5.277595 -18.39189,-13.225665 -19.5496,-21.625087 -21.22139,4.153451 0.62797,19.987191 -4.73959,24.291763 -3.15723,6.343036 -64.91953,12.722806 -67.82832,-16.886285 20.36421,-3.974513 32.62989,-10.649009 46.20697,-16.886287 18.90446,8.771638 63.94952,6.975872 59.23843,-14.516087 -6.41168,3.806758 -19.32549,13.073228 -39.98663,5.037115 -0.3948,-11.454791 25.08505,-4.542289 8.29393,-38.808072 z M 417.288,79.255885 c -0.69189,6.254233 1.07728,17.164006 -5.33152,19.84968 -14.12995,5.921275 -25.72415,0.638933 -44.13291,9.775445 2.535,-21.969834 23.40989,-28.042385 49.46443,-29.625125 z" />
    <path
       style="display:inline;fill:#fcef3c;stroke:#000000;stroke-width:3;stroke-linecap:butt;stroke-linejoin:miter;stroke-miterlimit:4;stroke-dasharray:none;stroke-opacity:1"
       d="m 337.59706,518.90705 c 5.73499,-18.40557 -0.95785,-47.79424 -16.75536,-61.79602 -5.41294,-1.06956 -12.91277,-1.00517 -15.83084,-0.39354 13.55695,14.63538 22.01583,27.92584 22.95187,40.19439 -11.85895,10.17569 1.18401,20.13212 9.63433,21.99517 z"
       id="path953" />
    <path
       id="path955"
       style="display:inline;fill:#000000;stroke:none;stroke-width:3;stroke-linecap:butt;stroke-linejoin:miter;stroke-miterlimit:4;stroke-dasharray:none;stroke-opacity:1"
       d="m 248.06128,116.39584 c -2.4964,4.3425 -4.35425,9.15865 -0.0486,18.55499 11.02023,-2.87138 14.35267,-10.46501 14.66098,-13.62665 -1.18458,-1.15785 -8.40297,-4.87094 -14.61239,-4.92834 z m 2.11387,1.96842 c 0.14792,0.009 0.29891,0.0318 0.45193,0.0729 2.00578,1.16568 4.39236,3.14105 6.91015,2.51439 3.13282,2.17331 -0.3215,3.7038 -1.62306,2.93238 -0.32204,-0.37514 -2.51406,0.0856 -3.77094,-0.45524 -0.96999,-0.41739 -2.30269,-0.69839 -3.71586,-0.80195 -2.01873,-1.06183 -0.47094,-4.3921 1.74778,-4.26248 z" />
    <path
       id="path968"
       style="display:inline;fill:#fcef3c;stroke:#000000;stroke-width:3;stroke-linecap:butt;stroke-linejoin:miter;stroke-miterlimit:4;stroke-dasharray:none;stroke-opacity:1"
       d="m 326.60372,129.53247 c 11.2888,0.58263 12.13419,3.85128 24.80833,1.88675 -3.8269,-1.23842 -6.1753,-8.44975 -11.7645,-10.84874 -5.91899,-2.54054 -13.73685,-1.39717 -13.04383,8.96199 z m -26.28734,-11.7758 c 8.84517,1.39731 16.50304,1.55537 17.69962,-4.18631 -5.13519,-3.76985 -13.92529,1.13672 -17.69962,4.18631 z" />
    <path
       id="ellipse963"
       style="display:inline;fill:#000000;stroke:none;stroke-width:2.99999;stroke-linecap:round;stroke-miterlimit:4;stroke-dasharray:none"
       d="m 330.88867,129.3367 a 4.3650654,6.7592562 66.084391 0 1 -3.71544,-5.03713 4.3650654,6.7592562 66.084391 0 1 8.2956,-4.63562 4.3650654,6.7592562 66.084391 0 1 3.7154,5.03712 4.3650654,6.7592562 66.084391 0 1 -8.29556,4.63563 z m -25.00658,-10.68182 a 2.7306502,4.2283822 66.084393 0 1 -2.32427,-3.15107 2.7306502,4.2283822 66.084393 0 1 5.18947,-2.89991 2.7306502,4.2283822 66.084393 0 1 2.32425,3.15107 2.7306502,4.2283822 66.084393 0 1 -5.18945,2.89991 z" />
    <path
       id="path970"
       style="display:inline;fill:none;stroke:#000000;stroke-width:3;stroke-linecap:round;stroke-linejoin:miter;stroke-miterlimit:4;stroke-dasharray:none;stroke-opacity:1"
       d="m 319.58503,128.23057 c 7.01869,1.3019 14.1388,2.15465 18.77325,3.27644 5.55476,1.34454 10.38352,-0.12105 16.3083,0.38943 M 329.53354,84.240183 c 4.97844,8.016977 2.89303,19.645267 7.0163,27.651107 m -8.48238,-1e-5 c 6.26544,0.3996 11.69268,-0.52083 14.98674,-0.12139 m 142.65499,483.25207 c 5.62606,-2.31761 9.362,-5.33274 9.4423,-14.30657 m -255.28464,22.6015 c -0.3641,6.49391 3.29877,13.43235 10.36684,13.03482 m 44.84822,-77.02411 c 7.0262,-4.30177 28.82729,-11.22843 42.65216,-9.77613 m 3.42352,11.66501 c -3.51916,-7.45782 -4.18612,-19.53297 -3.0417,-24.21368 6.12248,-25.04141 -7.5334,-52.82413 -17.27419,-59.89177 m 118.66098,13.19111 C 439,492.41291 414.67162,520.41722 422.91572,538.14263 M 383.34974,392.96537 c 5.45332,-6.64911 27.20654,-6.71193 37.75751,-1.14083 M 378.48638,139.0984 c 20.37985,8.81966 42.79672,-12.33874 65.40244,-0.49867 m -145.77619,22.28025 c -16.79025,6.28849 -13.50183,-11.30446 -19.32764,-16.76081 m 85.7802,34.08379 c -3.84791,12.45523 -20.63877,14.75991 -35.01343,12.44058 -17.52119,-2.82701 -23.89478,-15.87851 -30.27207,-15.09854 m 39.88818,95.34008 c 26.17058,-4.92123 53.94594,-74.05425 42.57668,-116.97435 5.37715,-3.93924 9.64627,-2.40122 14.44544,-1.11206 M 364.9292,285.86278 c -1.78023,-1.15214 -14.13732,-4.5038 -14.13732,-4.5038 m -150.58872,77.71636 c 7.19527,2.3015 12.18088,6.30556 22.3793,6.21208 17.08949,-0.15676 29.37243,-10.69446 40.53574,-24.74129 m -155.65077,18.21916 c 8.31157,3.96729 14.23226,-2.85531 17.77173,-7.99867 m 85.75027,-42.59446 c -4.69951,-25.63765 23.24551,-42.28268 48.91724,-58.1139 17.64809,-10.88322 38.33163,-18.14654 41.45692,-34.26589 M 199.99372,317.80814 c 9.1983,-5.30675 2.26473,-2.44286 31.62572,-31.63116 m -47.21117,32.7802 c 13.40554,-1.63611 29.20284,-1.43041 36.3202,-5.54806 m -15.28772,-67.65088 c -4.72541,1.39665 -12.87416,1.41113 -17.70431,0.2853 1.59085,9.60312 9.76596,11.79768 17.47552,14.51608 -16.87874,21.6574 -22.44682,41.41247 -21.85925,50.58126 M 157.26758,197.56779 c 2.83576,12.69837 14.32177,14.38524 24.29526,9.00757 m -151.166011,9.64865 c 4.894443,-2.24378 8.688885,-5.84056 10.119371,-7.43027 m 101.24714,268.58174 c -2.58898,-4.43915 -5.86158,-8.11337 -8.98056,-11.87014 m -13.96874,189.95317 c 3.41656,-4.42984 5.78196,-9.23739 8.29346,-13.92356 m 286.18185,57.91394 c 2.99399,-4.64118 5.69199,-9.28238 8.29347,-13.92356 M 417.288,79.255882 c 0.27552,-4.605373 4.87778,-10.668422 10.16497,-10.855552 7.92591,-0.280527 1.10828,5.130381 2.27524,9.374787 m -68.48382,37.151043 c 1.44101,-1.58523 2.48425,-2.94313 6.57918,-6.04515" />
  </g>
  <g
     inkscape:groupmode="layer"
     id="layer3"
     inkscape:label="Reflet final"
     style="display:inline"
     sodipodi:insensitive="true">
    <path
       style="fill:url(#radialGradient3236);fill-opacity:1"
       d="M 1.5,1.5 L 1.5,460.3679 C 1.5,626.67854 135.81454,761.5 301.49993,761.5 C 467.1854,761.5 601.5,626.67854 601.5,460.3679 L 601.5,1.5 L 1.5,1.5 z "
       id="path2346" />
  </g>
  <g
     inkscape:groupmode="layer"
     id="layer4"
     inkscape:label="Contour final"
     style="display:inline"
     sodipodi:insensitive="true">
    <path
       style="fill:none;fill-opacity:1;stroke:#000000;stroke-width:3;stroke-miterlimit:4;stroke-dasharray:none;stroke-opacity:1"
       d="M 1.5,1.5 L 1.5,460.36794 C 1.5,626.67854 135.81454,761.5 301.49993,761.5 C 467.1854,761.5 601.5,626.67854 601.5,460.36794 L 601.5,1.5 L 1.5,1.5 z "
       id="path3239" />
  </g>
</svg>
