<?xml version="1.0" encoding="UTF-8" standalone="no"?>
<!-- Created with Inkscape (http://www.inkscape.org/) -->

<svg
   xmlns:dc="http://purl.org/dc/elements/1.1/"
   xmlns:cc="http://creativecommons.org/ns#"
   xmlns:rdf="http://www.w3.org/1999/02/22-rdf-syntax-ns#"
   xmlns:svg="http://www.w3.org/2000/svg"
   xmlns="http://www.w3.org/2000/svg"
   xmlns:sodipodi="http://sodipodi.sourceforge.net/DTD/sodipodi-0.dtd"
   xmlns:inkscape="http://www.inkscape.org/namespaces/inkscape"
   width="389.3732"
   height="477.76154"
   id="svg2"
   version="1.1"
   inkscape:version="0.48.5 r10040"
   sodipodi:docname="Kaunas district.svg">
  <defs
     id="defs4" />
  <sodipodi:namedview
     id="base"
     pagecolor="#f6f3f1"
     bordercolor="#666666"
     borderopacity="1.0"
     inkscape:pageopacity="0"
     inkscape:pageshadow="2"
     inkscape:zoom="1"
     inkscape:cx="192.88603"
     inkscape:cy="266.26723"
     inkscape:document-units="px"
     inkscape:current-layer="layer1"
     showgrid="false"
     showborder="true"
     inkscape:window-width="1920"
     inkscape:window-height="1017"
     inkscape:window-x="-8"
     inkscape:window-y="-8"
     inkscape:window-maximized="1"
     inkscape:object-nodes="false"
     inkscape:snap-smooth-nodes="false"
     fit-margin-top="0"
     fit-margin-left="0"
     fit-margin-right="0"
     fit-margin-bottom="0"
     inkscape:showpageshadow="false" />
  <metadata
     id="metadata7">
    <rdf:RDF>
      <cc:Work
         rdf:about="">
        <dc:format>image/svg+xml</dc:format>
        <dc:type
           rdf:resource="http://purl.org/dc/dcmitype/StillImage" />
        <dc:title></dc:title>
      </cc:Work>
    </rdf:RDF>
  </metadata>
  <g
     inkscape:label="Layer 1"
     inkscape:groupmode="layer"
     id="layer1"
     transform="translate(-19.213203,-117.99139)">
    <g
       id="g3880">
      <path
         style="color:#000000;fill:#0646ba;fill-opacity:1;stroke:none;stroke-width:4;marker:none;visibility:visible;display:inline;overflow:visible;enable-background:accumulate"
         d="m 21.213203,404.34932 c 0,-95.45941 0,-284.35793 0,-284.35793 l 385.373197,0 c 0,0 0,188.89852 0,284.35793 0,95.45942 -82.32744,189.40361 -192.6866,189.40361 -110.35916,0 -192.686597,-93.94419 -192.686597,-189.40361 z"
         id="path3867"
         inkscape:connector-curvature="0"
         sodipodi:nodetypes="sccszs" />
      <path
         id="rect3767"
         d="m 21.212302,120 0,73.78125 124.406248,124.375 L 188.4623,275.3125 33.149802,120 l -11.9375,0 z m 373.406248,0 -155.28125,155.3125 42.84375,42.84375 124.40625,-124.375 0,-73.78125 -11.96875,0 z m -211.03125,320.1875 0,151.15625 c 9.82771,1.58155 19.94499,2.40625 30.3125,2.40625 10.36764,0 20.48467,-0.82466 30.3125,-2.40625 l 0,-151.15625 -60.625,0 z"
         style="color:#000000;fill:#d4d0d0;fill-opacity:1;fill-rule:evenodd;stroke:#000000;stroke-width:1.99999988;marker:none;visibility:visible;display:inline;overflow:visible;enable-background:accumulate"
         inkscape:connector-curvature="0" />
      <path
         sodipodi:nodetypes="sccszs"
         inkscape:connector-curvature="0"
         id="path2993"
         d="m 21.213203,404.34932 c 0,-95.45941 0,-284.35793 0,-284.35793 l 385.373197,0 c 0,0 0,188.89852 0,284.35793 0,95.45942 -82.32744,189.40361 -192.6866,189.40361 -110.35916,0 -192.686597,-93.94419 -192.686597,-189.40361 z"
         style="color:#000000;fill:none;stroke:#000000;stroke-width:4;stroke-linecap:butt;stroke-linejoin:miter;stroke-miterlimit:4;stroke-opacity:1;stroke-dasharray:none;stroke-dashoffset:0;marker:none;visibility:visible;display:inline;overflow:visible;enable-background:accumulate" />
      <path
         style="color:#000000;fill:#e0042c;fill-opacity:1;stroke:#000000;stroke-width:2;stroke-linecap:butt;stroke-linejoin:miter;stroke-miterlimit:4;stroke-opacity:1;stroke-dasharray:none;stroke-dashoffset:0;marker:none;visibility:visible;display:inline;overflow:visible;enable-background:accumulate"
         d="m 136.89758,375.84521 c 0,-38.14793 0,-113.63634 0,-113.63634 l 154.00445,0 c 0,0 0,75.48841 0,113.63634 0,38.14789 -32.9,75.69026 -77.00223,75.69026 -44.10221,0 -77.00222,-37.54237 -77.00222,-75.69026 z"
         id="path3765"
         inkscape:connector-curvature="0"
         sodipodi:nodetypes="sccszs" />
      <path
         style="color:#000000;fill:#d7a73b;fill-opacity:1;stroke:#000000;stroke-width:1.5;stroke-linecap:butt;stroke-linejoin:miter;stroke-miterlimit:4;stroke-opacity:1;stroke-dasharray:none;stroke-dashoffset:0;marker:none;visibility:visible;display:inline;overflow:visible;enable-background:accumulate"
         d="m 209.00068,346.96004 0,-40.5139 c 0,0 -13.5,0 -20.42264,0 -6.92265,0 -9.41664,2.52318 -9.41664,2.52318 l 0,-14.84461 c 0,0 2.49399,2.52318 9.41664,2.52318 6.92264,0 20.42264,0 20.42264,0 0,0 0,-7.5 0,-14.42264 0,-6.92265 -2.52318,-9.41664 -2.52318,-9.41664 l 14.84461,0 c 0,0 -2.52318,2.49399 -2.52318,9.41664 0,6.92264 0,14.42264 0,14.42264 0,0 13.5,0 20.42264,0 6.92265,0 9.41664,-2.52318 9.41664,-2.52318 l 0,14.84461 c 0,0 -2.49399,-2.52318 -9.41664,-2.52318 -6.92264,0 -20.42264,0 -20.42264,0 l 0,40.5139 z"
         id="path3863"
         inkscape:connector-curvature="0"
         sodipodi:nodetypes="csccscsccscsccscccc" />
      <g
         transform="translate(-1.3601935,0)"
         id="g3804">
        <path
           style="color:#000000;fill:#d4d0d0;fill-opacity:1;stroke:#000000;stroke-width:1.5;stroke-linecap:butt;stroke-linejoin:miter;stroke-miterlimit:4;stroke-opacity:1;stroke-dasharray:none;stroke-dashoffset:0;marker:none;visibility:visible;display:inline;overflow:visible;enable-background:accumulate"
           d="m 208.66071,428.25504 c -6.16071,1.33929 -10.54642,-0.73214 -12.05356,-4.82143 -1.50715,-4.08928 1.07142,-7.23214 1.07142,-7.23214 -0.26786,-5.625 -2.67857,-9.10715 -2.67857,-9.10715 -1.875,2.14286 -6.16071,2.67858 -6.16071,2.67858 0,0 -0.91149,-7.57143 -5.89286,-14.73215 -4.98137,-7.16072 -2.94643,-15.625 -2.94643,-15.625 -15,2.67857 -21.96429,-8.57143 -21.96429,-8.57143 8.03572,-1.07142 12.17499,-1.9766 12.17499,-1.9766 0,0 -14.01587,-2.27284 -18.18275,-16.66752 -4.16687,-14.39467 -0.2258,-20.59202 2.65166,-33.33504 2.87746,-12.74302 -9.47018,-13.63705 -9.47018,-13.63705 0,0 4.5495,-6.06317 12.50064,1.13641 7.71256,6.98356 3.93338,18.99609 3.40926,31.0622 -0.54378,12.51906 10.6066,18.18274 18.56155,17.04632 0,0 2.65165,-7.95495 15.5311,-4.16688 0,0 7.51861,-6.06091 20.04801,-6.06091 12.52939,0 20.04802,6.06091 20.04802,6.06091 12.87945,-3.78807 15.5311,4.16688 15.5311,4.16688 7.95495,1.13642 19.10533,-4.52726 18.56155,-17.04632 -0.52412,-12.06611 -4.3033,-24.07864 3.40926,-31.0622 7.95114,-7.19958 12.50064,-1.13641 12.50064,-1.13641 0,0 -12.34764,0.89403 -9.47018,13.63705 2.87746,12.74302 6.81853,18.94037 2.65166,33.33504 -4.16688,14.39468 -18.18275,16.66752 -18.18275,16.66752 0,0 4.13927,0.90518 12.17499,1.9766 0,0 -6.96429,11.25 -21.96429,8.57143 0,0 2.03494,8.46428 -2.94643,15.625 -4.98137,7.16072 -5.89286,14.73215 -5.89286,14.73215 0,0 -4.28571,-0.53572 -6.16071,-2.67858 0,0 -2.41071,3.48215 -2.67857,9.10715 0,0 2.57857,3.14286 1.07142,7.23214 -1.50714,4.08929 -5.89285,6.16072 -12.05356,4.82143 0,0 -2.1279,4.01786 -6.59929,4.01786 -4.4714,0 -6.59928,-4.01786 -6.59928,-4.01786 z"
           id="path3798"
           inkscape:connector-curvature="0"
           sodipodi:nodetypes="czccczcccccsscszzzscssccccczccczczc" />
        <path
           sodipodi:nodetypes="cscsccccccsscscccssssccccsccscccsscccsccccsssccscccsscccccccccsccscssccscsccsssscccssssscccccccccsssscccsssssccc"
           inkscape:connector-curvature="0"
           id="path3828"
           d="m 214.71875,361.9375 c 0.37799,2.18103 0.17788,4.15961 0.0625,6.0625 -0.12111,1.99727 -0.10688,3.95281 1.46875,5.6875 -0.56316,-1.99497 -0.58702,-3.67441 -0.46875,-5.625 0.10665,-1.75886 0.25781,-3.74512 -0.0625,-5.9531 1.81795,-2.98335 4.54813,-3.22004 7.71875,-2.71873 -2.90025,-1.51 -6.37636,-1.6274 -8.1875,1.60938 -2.33461,-2.94418 -5.08718,-3.14857 -8.17188,-1.60943 3.10693,-0.50032 6.34762,0.27712 7.64063,2.54688 z m 15.79464,6.16071 c -1.87346,0.57645 -3.74537,2.23089 -4.41964,3.71429 -0.67427,1.4834 -0.84697,3.19247 -0.8125,4.8125 0.0557,2.61746 0.56967,4.60577 0.8125,5.4375 -0.32305,0.0307 -0.6464,0.13765 -1.5,-0.125 -1.19214,-0.36681 -2.6618,-1.2611 -3.8125,-3.5625 l -0.21875,-0.40625 -0.40625,0.1875 c -0.4608,0.1989 -0.80669,0.58838 -1.03125,1.03125 -0.22456,0.44287 -0.35551,0.96364 -0.46875,1.53125 -0.22648,1.13522 -0.32845,2.45913 -0.53125,3.78125 -0.2028,1.32212 -0.52859,2.63148 -1.09375,3.59375 -0.49451,0.84198 -1.20692,1.38153 -2.25,1.65625 -1.62722,-6.45311 -4.15625,-11.375 -4.15625,-11.375 l -0.46875,-0.84375 -0.4375,0.84375 c -1.1507,2.3014 -2.62036,3.19569 -3.8125,3.5625 -0.86642,0.26659 -1.18333,0.15657 -1.5,0.125 0.24231,-0.82951 0.78801,-2.81755 0.84375,-5.4375 0.0345,-1.62003 -0.13823,-3.3291 -0.8125,-4.8125 -0.67427,-1.4834 -1.87654,-2.73605 -3.75,-3.3125 -3.94205,-1.10279 -7.80517,-1.01421 -10.875,1.8125 3.29087,-1.68356 7.62513,-1.74238 10.5625,-0.875 1.60868,0.49498 2.57494,1.50237 3.15625,2.78125 0.58131,1.27888 0.75125,2.84771 0.71875,4.375 -0.065,3.05458 -0.96875,5.875 -0.96875,5.875 l -0.1875,0.53125 0.5625,0.125 c 0,0 1.14304,0.21801 2.5625,-0.21875 1.23669,-0.38052 2.65005,-1.45305 3.84375,-3.34375 0.46827,0.92723 2.49226,5.01692 3.90625,10.9375 l 0.0937,0.46875 0.46875,-0.0625 c 1.60272,-0.24602 2.69632,-1.15694 3.375,-2.3125 0.67868,-1.15556 0.97719,-2.56645 1.1875,-3.9375 0.21031,-1.37105 0.32377,-2.71003 0.53125,-3.75 0.10374,-0.51998 0.24894,-0.97102 0.40625,-1.28125 0.0787,-0.15512 0.16491,-0.1903 0.25,-0.28125 1.21999,2.07472 2.73762,3.16446 4.03125,3.5625 1.41946,0.43676 2.5625,0.21875 2.5625,0.21875 L 227.40625,383 227.25,382.46875 c 0,0 -0.93501,-2.82042 -1,-5.875 -0.0325,-1.52729 0.16869,-3.09612 0.75,-4.375 0.58131,-1.27888 2.18596,-2.68806 3.79464,-3.18304 3.58951,-0.90693 6.54972,-0.57579 9.89286,1.27679 -2.88971,-2.64842 -6.91557,-3.17599 -10.17411,-2.21429 z M 199.1875,386.9062 c 2.19665,0.35242 4.0984,-0.75185 3.21875,-3.20313 -0.55084,1.93461 -1.55985,2.47544 -3.21875,3.20313 z m 32.125,5e-5 c -1.68289,-0.64529 -2.80266,-1.86162 -3.20313,-3.20313 -0.60587,2.39109 0.94319,3.47012 3.20313,3.20313 z m -43.625,6.25 c -1.41842,-1.78602 -2.2151,-3.61863 -1.40625,-7.75 l -0.96875,-0.1875 c -0.84571,4.31963 0.0673,6.6405 1.59375,8.5625 1.52641,1.922 3.56754,3.48472 5.59375,6.53125 -1.24187,-3.67039 -3.39408,-5.37023 -4.8125,-7.15625 z m 55.90625,0.625 c 1.52641,-1.922 2.47071,-4.24287 1.625,-8.5625 l -1,0.1875 c 0.80885,4.13137 0.0122,5.96398 -1.40625,7.75 -1.41842,1.78602 -3.57063,3.48586 -4.79688,7.15625 2.04184,-3.04653 4.05172,-4.60925 5.57813,-6.53125 z M 202.1562,413.5625 c -0.0493,0.40255 -0.1476,0.51198 -0.0312,1.09375 0.22939,1.14694 1.11296,2.4581 3.15625,2.75 2.09279,0.29897 3.73594,-0.95205 4.125,-2.625 0.38906,-1.67295 -0.42847,-3.71172 -2.71875,-5 -2.02302,-1.13795 -3.71104,-3.19194 -4.375,-5.5 -0.66396,-2.30806 -0.34439,-4.83672 1.5625,-7.125 2.1051,-2.78544 3.58726,-5.8408 2.54687,-9.17188 -0.11226,3.13575 -1.67844,6.49564 -3.32817,8.51563 -2.11096,2.53315 -2.46104,5.48217 -1.71875,8.0625 0.74229,2.58033 2.54981,4.82099 4.8125,6.09375 1.99544,1.12244 2.49934,2.69973 2.21875,3.90625 -0.28059,1.20652 -1.31154,2.0805 -2.96875,1.84375 -1.70671,-0.24381 -2.17135,-1.07551 -2.34375,-1.9375 -0.1724,-0.86199 0.0625,-1.6875 0.0625,-1.6875 l 0.28125,-1 -0.9375,0.375 c -1.34864,0.65714 -2.30828,1.51482 -3.03125,2.89062 1.06488,-0.39647 1.83748,-0.94839 2.6875,-1.48437 z m 25.8751,-1.40625 -0.9375,-0.375 0.28125,1 c 0,0 0.20365,0.82551 0.0312,1.6875 -0.1724,0.86199 -0.60579,1.69369 -2.3125,1.9375 -1.65721,0.23675 -2.71941,-0.63723 -3,-1.84375 -0.28059,-1.20652 0.25456,-2.78381 2.25,-3.90625 2.26269,-1.27276 4.07021,-3.51342 4.8125,-6.09375 0.74229,-2.58033 0.39221,-5.52935 -1.71875,-8.0625 -1.95009,-2.52383 -3.21037,-5.22776 -3.35938,-8.51563 -0.8938,3.2081 0.72733,6.90373 2.57818,9.17188 1.90689,2.28828 2.19521,4.81694 1.53125,7.125 -0.66396,2.30806 -2.32073,4.36205 -4.34375,5.5 -2.29028,1.28828 -3.10781,3.32705 -2.71875,5 0.38906,1.67295 2.00096,2.92397 4.09375,2.625 2.04329,-0.2919 2.95811,-1.60306 3.1875,-2.75 0.11643,-0.58213 -0.0131,-0.69114 -0.0625,-1.09375 0.93499,0.50642 1.5795,1.08757 2.70312,1.48437 -0.63033,-1.34439 -1.7826,-2.25078 -3.01562,-2.89062 z"
           style="font-size:medium;font-style:normal;font-variant:normal;font-weight:normal;font-stretch:normal;text-indent:0;text-align:start;text-decoration:none;line-height:normal;letter-spacing:normal;word-spacing:normal;text-transform:none;direction:ltr;block-progression:tb;writing-mode:lr-tb;text-anchor:start;baseline-shift:baseline;color:#000000;fill:#000000;fill-opacity:1;stroke:none;stroke-width:1;marker:none;visibility:visible;display:inline;overflow:visible;enable-background:accumulate;font-family:Sans;-inkscape-font-specification:Sans" />
        <path
           inkscape:connector-curvature="0"
           d="m 261.85927,368.61218 c 0,0 -9.10714,1.60714 -14.19642,-0.26786 0,0 -3.61607,-2.14285 -3.08036,-8.03571 0.53572,-5.89286 6.29464,-5.89286 6.29464,-5.89286 m -28.5117,73.95627 c -3.47725,-0.79144 -3.89533,-2.17815 -7.10544,-2.17815 -3.2101,0 -3.62818,1.38671 -7.10543,2.17815 m 45.5256,-58.99923 c 0,0 -1.32583,6.06092 -6.06092,6.62913 -4.73509,0.56821 -12.18854,2.43169 -13.25996,10.4674 0,0 6.69642,3.21429 9.91071,-0.80357 3.21429,-4.01785 0.53571,-8.97321 0.53571,-8.97321 m 5.90713,3.16059 c 0,0 -0.5682,-2.65165 -2.27284,-4.16689 m -79.77927,-7.07406 c 0,0 9.10714,1.60714 14.19642,-0.26786 0,0 3.61607,-2.14285 3.08036,-8.03571 -0.53572,-5.89286 -6.29464,-5.89286 -6.29464,-5.89286 m -2.80303,14.95704 c 0,0 1.32583,6.06092 6.06092,6.62913 4.73509,0.56821 12.18854,2.43169 13.25996,10.4674 0,0 -6.69642,3.21429 -9.91071,-0.80357 -3.21429,-4.01785 -0.53571,-8.97321 -0.53571,-8.97321 m -5.90713,3.16059 c 0,0 0.5682,-2.65165 2.27284,-4.16689"
           style="color:#000000;fill:none;stroke:#000000;stroke-width:1.5;stroke-linecap:butt;stroke-linejoin:miter;stroke-miterlimit:4;stroke-opacity:1;stroke-dasharray:none;stroke-dashoffset:0;marker:none;visibility:visible;display:inline;overflow:visible;enable-background:accumulate"
           id="path3830" />
        <path
           inkscape:connector-curvature="0"
           id="path3836"
           d="m 192.61937,379.78125 c 0,0 -3.23017,2.29425 -2.09375,7.21875 l 2.28125,0.375 c 0,0 2.66196,-1.35025 2.09375,-3.8125 -0.56821,-2.46225 -2.28125,-3.78125 -2.28125,-3.78125 z m 45.28125,0 c 0,0 -1.68179,1.319 -2.25,3.78125 -0.56821,2.46225 2.0625,3.8125 2.0625,3.8125 L 239.99437,387 c 1.13642,-4.9245 -2.09375,-7.21875 -2.09375,-7.21875 z"
           style="color:#000000;fill:#000000;stroke:none;stroke-width:1;marker:none;visibility:visible;display:inline;overflow:visible;enable-background:accumulate" />
      </g>
    </g>
  </g>
</svg>
