<?xml version="1.0" encoding="UTF-8" standalone="no"?>
<svg
   xmlns:dc="http://purl.org/dc/elements/1.1/"
   xmlns:cc="http://creativecommons.org/ns#"
   xmlns:rdf="http://www.w3.org/1999/02/22-rdf-syntax-ns#"
   xmlns:svg="http://www.w3.org/2000/svg"
   xmlns="http://www.w3.org/2000/svg"
   xmlns:sodipodi="http://sodipodi.sourceforge.net/DTD/sodipodi-0.dtd"
   xmlns:inkscape="http://www.inkscape.org/namespaces/inkscape"
   width="482pt"
   height="581pt"
   viewBox="0 0 482 581"
   version="1.1"
   id="svg7250"
   sodipodi:version="0.32"
   inkscape:version="0.46"
   sodipodi:docname="Coat_of_arms_of_Kazlu_Ruda_(Lithuania).svg"
   inkscape:output_extension="org.inkscape.output.svg.inkscape">
  <metadata
     id="metadata7277">
    <rdf:RDF>
      <cc:Work
         rdf:about="">
        <dc:format>image/svg+xml</dc:format>
        <dc:type
           rdf:resource="http://purl.org/dc/dcmitype/StillImage" />
      </cc:Work>
    </rdf:RDF>
  </metadata>
  <defs
     id="defs7275">
    <inkscape:perspective
       sodipodi:type="inkscape:persp3d"
       inkscape:vp_x="0 : 363.125 : 1"
       inkscape:vp_y="0 : 1000 : 0"
       inkscape:vp_z="602.5 : 363.125 : 1"
       inkscape:persp3d-origin="301.25 : 242.08333 : 1"
       id="perspective7279" />
  </defs>
  <sodipodi:namedview
     inkscape:window-height="669"
     inkscape:window-width="640"
     inkscape:pageshadow="2"
     inkscape:pageopacity="0.0"
     guidetolerance="10.0"
     gridtolerance="10.0"
     objecttolerance="10.0"
     borderopacity="1.0"
     bordercolor="#666666"
     pagecolor="#ffffff"
     id="base"
     showgrid="false"
     inkscape:zoom="0.63614458"
     inkscape:cx="301.25"
     inkscape:cy="363.125"
     inkscape:window-x="75"
     inkscape:window-y="75"
     inkscape:current-layer="svg7250" />
  <path
     fill="#000000"
     stroke="#000000"
     stroke-width="0.09375"
     opacity="1.00"
     d=" M 5.0 4.6 C 160.3 4.4 315.7 4.6 471.0 4.5 C 473.6 4.5 476.2 4.6 478.8 4.7 C 478.7 107.8 478.8 210.9 478.7 314.0 C 477.6 341.8 480.4 369.8 475.4 397.3 C 469.4 432.4 453.5 465.5 430.8 492.8 C 407.7 520.8 377.6 542.9 344.4 557.5 C 270.1 590.4 179.8 585.1 110.4 542.6 C 71.9 519.3 39.9 484.5 21.8 443.1 C 10.8 418.3 5.2 391.2 5.0 364.0 C 5.0 244.2 5.0 124.4 5.0 4.6 M 11.8 11.2 C 11.7 125.5 11.8 239.7 11.8 354.0 C 11.8 360.3 11.6 366.7 12.0 373.0 C 13.4 402.4 21.9 431.3 36.1 456.9 C 48.1 478.6 64.1 498.0 82.8 514.2 C 109.1 537.0 140.6 553.5 174.1 562.9 C 219.5 575.7 268.6 575.3 313.8 561.7 C 351.2 550.5 386.0 530.2 413.3 502.3 C 440.1 475.2 459.6 440.7 467.5 403.3 C 471.5 385.8 471.9 367.8 472.0 350.0 C 472.0 237.1 472.1 124.2 472.0 11.2 C 318.6 11.3 165.2 11.2 11.8 11.2 Z"
     id="path7252" />
  <path
     fill="#e7e8e9"
     stroke="#e7e8e9"
     stroke-width="0.09375"
     opacity="1.00"
     d=" M 11.8 11.2 C 165.2 11.2 318.6 11.3 472.0 11.2 C 472.1 124.2 472.0 237.1 472.0 350.0 C 471.9 367.8 471.5 385.8 467.5 403.3 C 459.6 440.7 440.1 475.2 413.3 502.3 C 386.0 530.2 351.2 550.5 313.8 561.7 C 268.6 575.3 219.5 575.7 174.1 562.9 C 140.6 553.5 109.1 537.0 82.8 514.2 C 64.1 498.0 48.1 478.6 36.1 456.9 C 21.9 431.3 13.4 402.4 12.0 373.0 C 11.6 366.7 11.8 360.3 11.8 354.0 C 11.8 239.7 11.7 125.5 11.8 11.2 M 15.1 14.5 C 14.9 131.0 15.1 247.5 15.0 364.0 C 15.1 392.0 21.6 420.0 33.8 445.3 C 45.6 469.9 62.7 491.8 83.0 510.0 C 112.6 536.3 149.3 554.4 187.9 563.0 C 230.3 572.5 275.2 570.6 316.5 557.4 C 352.4 546.0 385.7 526.0 411.9 498.9 C 439.4 470.9 458.9 434.7 465.6 395.9 C 468.7 379.8 468.5 363.3 468.8 347.0 C 468.7 236.2 468.8 125.3 468.7 14.5 C 317.5 14.5 166.3 14.5 15.1 14.5 Z"
     id="path7254" />
  <path
     fill="#000000"
     stroke="#000000"
     stroke-width="0.09375"
     opacity="1.00"
     d=" M 15.1 14.5 C 166.3 14.5 317.5 14.5 468.7 14.5 C 468.8 125.3 468.7 236.2 468.8 347.0 C 468.5 363.3 468.7 379.8 465.6 395.9 C 458.9 434.7 439.4 470.9 411.9 498.9 C 385.7 526.0 352.4 546.0 316.5 557.4 C 275.2 570.6 230.3 572.5 187.9 563.0 C 149.3 554.4 112.6 536.3 83.0 510.0 C 62.7 491.8 45.6 469.9 33.8 445.3 C 21.6 420.0 15.1 392.0 15.0 364.0 C 15.1 247.5 14.9 131.0 15.1 14.5 M 331.5 52.5 C 326.6 59.6 323.8 67.9 320.9 75.9 C 315.8 85.2 314.6 95.9 310.5 105.6 C 304.3 121.4 296.5 136.7 286.3 150.4 C 282.5 156.1 279.1 162.2 273.9 166.9 C 272.0 168.4 269.0 170.1 266.8 168.2 C 261.2 164.4 258.4 157.6 258.0 151.0 C 256.5 136.1 255.7 120.9 258.2 106.0 C 258.8 102.9 259.7 99.8 259.3 96.6 C 258.0 97.1 256.6 97.7 255.9 99.0 C 252.3 104.2 249.8 110.2 248.1 116.2 C 245.9 124.0 243.8 131.8 243.5 139.9 C 243.2 144.3 242.1 148.6 241.9 153.0 C 241.4 163.6 238.5 173.8 235.9 183.9 C 232.7 195.7 224.5 205.6 215.0 213.0 C 200.1 225.3 184.1 236.1 168.4 247.4 C 161.9 251.8 154.8 255.5 147.0 257.1 C 142.9 258.0 139.0 255.6 136.1 252.9 C 132.5 245.7 133.9 237.4 135.0 229.8 C 139.7 211.1 147.9 193.5 156.0 176.0 C 163.6 163.0 171.7 150.1 181.9 138.9 C 184.3 135.9 186.4 132.5 187.3 128.8 C 186.1 128.9 185.0 129.3 184.0 129.9 C 176.6 135.9 169.1 141.6 162.4 148.4 C 149.4 160.8 136.8 174.2 128.0 190.0 C 122.9 200.5 119.4 211.8 116.2 223.0 C 111.0 246.4 109.6 270.4 106.4 294.1 C 105.6 299.3 104.4 304.8 100.8 308.8 C 96.4 313.8 91.4 318.1 87.3 323.3 C 83.2 329.4 80.0 336.1 76.6 342.6 C 73.0 349.5 66.5 355.2 58.8 356.6 C 55.4 357.4 51.8 357.3 48.6 358.5 C 46.9 360.4 45.8 362.8 45.3 365.2 C 44.6 367.8 47.4 369.3 48.6 371.1 C 47.0 372.3 45.4 373.4 43.7 374.5 C 42.7 382.9 44.1 391.5 46.6 399.6 C 47.2 401.6 49.7 401.8 50.8 403.3 C 51.2 405.1 50.0 406.9 50.1 408.7 C 54.5 416.3 61.7 422.0 69.8 425.3 C 71.1 424.3 72.2 422.8 74.0 422.6 C 75.5 423.4 76.2 425.5 78.1 425.7 C 80.1 425.8 82.1 425.3 84.1 425.1 C 86.3 419.7 86.2 413.8 87.3 408.1 C 88.4 402.1 89.2 396.0 91.1 390.1 C 93.7 380.7 98.2 372.1 102.3 363.3 C 104.9 358.0 106.9 352.3 110.7 347.6 C 129.0 321.5 149.7 296.8 174.5 276.5 C 202.2 253.8 232.2 234.2 261.2 213.3 C 263.2 211.9 264.6 209.9 266.2 208.1 C 273.7 199.7 283.0 192.9 290.2 184.2 C 301.0 171.9 309.5 157.6 315.2 142.3 C 322.5 123.2 327.1 103.2 330.3 83.1 C 333.6 72.3 334.3 60.7 339.5 50.6 C 340.9 47.6 343.4 45.0 343.6 41.5 C 337.7 42.5 334.4 47.9 331.5 52.5 M 410.5 127.6 C 408.4 134.4 406.2 141.2 403.6 147.8 C 390.7 179.6 366.6 205.6 355.0 238.0 C 353.9 241.3 350.8 243.3 349.1 246.2 C 343.2 259.1 331.7 268.1 321.0 276.9 C 292.4 299.3 260.6 317.1 231.0 338.0 C 227.4 340.3 224.9 343.9 221.4 346.5 C 215.9 350.6 209.7 353.8 204.7 358.7 C 202.4 360.8 200.9 363.6 198.5 365.6 C 191.8 371.3 186.7 378.7 182.2 386.3 C 173.8 400.7 167.3 416.1 162.2 431.9 C 160.9 435.9 159.6 439.9 159.0 444.0 C 156.5 461.4 156.8 479.3 152.6 496.4 C 151.7 500.5 149.6 504.3 148.9 508.4 C 149.6 508.3 151.1 508.3 151.9 508.2 C 155.7 504.5 157.6 499.5 159.9 494.9 C 166.7 479.4 170.4 462.9 174.4 446.6 C 178.8 431.7 187.3 418.5 195.7 405.7 C 198.9 400.4 203.6 396.3 207.5 391.5 C 212.2 387.5 217.3 382.5 223.9 383.1 C 227.4 383.5 229.2 386.7 230.2 389.7 C 231.4 393.5 233.7 396.9 233.9 400.9 C 234.5 413.5 233.3 426.1 231.7 438.6 C 231.2 443.6 229.9 448.5 229.9 453.5 C 231.5 453.6 233.2 453.3 233.8 451.7 C 236.3 447.5 237.9 443.0 239.7 438.5 C 241.9 432.3 244.6 426.1 245.5 419.6 C 249.0 405.6 250.5 391.3 251.7 377.1 C 252.1 371.2 253.9 365.6 256.3 360.2 C 260.3 352.9 266.4 347.1 272.4 341.4 C 285.2 329.8 299.7 320.3 314.5 311.5 C 325.2 305.2 336.3 298.3 349.0 296.9 C 356.2 298.9 357.5 307.7 356.0 314.0 C 348.9 346.4 333.0 376.3 314.5 403.6 C 310.3 409.9 305.4 415.7 301.4 422.1 C 301.7 422.4 302.5 423.2 302.9 423.5 C 313.1 418.0 321.4 409.6 329.2 401.1 C 343.0 385.4 353.4 367.1 364.5 349.5 C 366.0 347.1 366.7 344.2 367.5 341.5 C 371.9 327.3 376.1 312.9 379.2 298.4 C 380.5 291.6 382.2 284.6 380.6 277.8 C 380.6 268.0 382.0 258.0 385.9 248.9 C 389.5 241.9 395.0 236.1 400.7 230.7 C 409.5 221.7 414.0 209.8 420.3 199.2 C 421.4 196.8 424.2 196.4 426.4 195.5 C 430.3 194.0 434.5 194.6 438.5 194.7 C 439.6 191.7 440.9 188.8 441.6 185.8 C 441.6 183.6 440.8 181.4 440.7 179.2 C 442.5 178.2 445.4 178.1 445.7 175.5 C 447.4 168.0 447.1 160.2 445.4 152.8 C 443.9 152.2 441.8 152.3 440.8 150.9 C 440.6 149.1 442.2 147.6 442.8 146.0 C 438.9 139.2 433.0 133.7 426.9 129.0 C 424.8 129.1 422.9 129.8 420.9 130.3 C 420.7 128.7 420.5 127.2 420.3 125.6 C 417.1 124.9 411.7 123.2 410.5 127.6 M 342.9 169.4 C 338.2 168.3 333.6 166.7 328.9 165.8 C 332.0 169.3 335.7 172.3 339.0 175.8 C 335.6 179.1 332.0 182.3 328.8 186.0 C 333.5 184.8 338.1 183.2 342.7 182.0 C 343.9 186.7 344.9 191.5 346.5 196.1 C 347.6 191.4 348.7 186.7 349.9 182.1 C 354.6 183.4 359.3 184.9 364.1 186.0 C 360.9 182.5 357.2 179.4 353.8 175.9 C 356.9 172.4 360.7 169.6 363.5 165.9 C 359.0 166.8 354.6 168.4 350.0 169.5 C 348.8 164.9 347.8 160.3 346.5 155.8 C 344.7 160.1 344.1 164.9 342.9 169.4 M 307.8 216.1 C 302.9 215.0 298.1 213.4 293.2 212.1 C 296.7 215.5 300.3 218.9 303.9 222.3 C 300.6 226.1 296.7 229.3 293.2 232.9 C 298.1 231.6 302.8 230.0 307.7 228.8 C 309.0 233.3 309.7 238.0 311.5 242.3 C 312.7 237.8 313.6 233.3 314.9 228.8 C 319.7 230.1 324.3 231.5 329.1 232.9 C 325.8 229.1 321.9 226.1 318.8 222.3 C 322.3 219.1 325.8 215.7 329.1 212.2 C 324.4 213.5 319.7 215.0 315.0 216.2 C 313.7 211.7 312.8 207.2 311.5 202.7 C 309.7 207.0 309.0 211.7 307.8 216.1 M 265.7 238.0 C 264.7 242.9 263.6 247.7 262.2 252.5 C 257.7 251.2 253.2 249.8 248.6 248.8 C 251.6 252.4 255.3 255.3 258.4 258.8 C 255.0 262.2 251.4 265.6 248.0 269.0 C 252.7 267.9 257.4 266.3 262.1 265.0 C 263.5 269.6 264.6 274.4 265.7 279.1 C 267.3 274.5 268.2 269.8 269.3 265.1 C 274.2 266.3 279.0 267.9 283.9 269.0 C 280.4 265.6 276.7 262.4 273.3 258.9 C 276.5 255.4 280.1 252.4 283.3 248.8 C 278.7 249.7 274.2 251.2 269.7 252.6 C 268.1 247.8 267.2 242.8 265.7 238.0 M 217.3 270.6 C 216.0 275.1 215.1 279.7 213.9 284.3 C 209.4 283.1 205.0 281.6 200.4 280.8 C 203.3 284.3 206.7 287.3 210.1 290.3 C 206.9 294.1 202.9 297.0 199.9 300.9 C 204.5 299.6 209.1 298.0 213.8 296.9 C 215.0 301.4 215.9 305.9 217.3 310.4 C 219.1 306.1 219.6 301.4 221.0 296.9 C 225.7 298.1 230.4 299.6 235.1 300.9 C 232.0 297.3 228.3 294.4 225.1 290.9 C 227.4 287.0 231.9 284.6 234.4 280.7 C 229.9 281.7 225.6 283.1 221.1 284.4 C 219.8 279.8 219.1 275.1 217.3 270.6 M 171.9 324.4 C 167.1 323.7 162.6 321.7 157.8 320.9 C 160.9 324.4 164.5 327.5 167.9 330.8 C 164.6 334.3 160.9 337.4 157.7 341.0 C 162.4 339.9 167.0 338.3 171.7 337.1 C 172.8 341.8 173.8 346.6 175.4 351.1 C 176.5 346.5 177.5 341.8 178.9 337.2 C 183.5 338.5 188.2 340.0 193.0 341.1 C 189.7 337.6 186.0 334.5 182.7 331.0 C 186.1 327.3 189.9 324.1 193.2 320.5 C 188.5 321.9 183.7 323.3 178.9 324.8 C 177.6 320.2 176.6 315.5 175.4 310.9 C 173.8 315.2 172.8 319.9 171.9 324.4 M 131.8 376.2 C 126.8 375.1 122.0 373.5 117.1 372.1 C 120.7 375.5 124.2 379.0 127.8 382.4 C 124.5 386.1 120.6 389.3 117.2 393.0 C 122.0 391.7 126.8 390.0 131.7 389.0 C 132.9 393.4 133.4 398.1 135.5 402.3 C 136.7 397.9 137.5 393.4 138.8 389.0 C 143.6 390.2 148.3 391.7 153.1 392.9 C 149.8 389.4 146.2 386.1 142.7 382.8 C 145.8 379.3 149.4 376.3 152.5 372.7 C 147.9 373.6 143.5 375.1 139.0 376.4 C 137.7 371.8 136.7 367.2 135.4 362.7 C 133.6 367.0 132.9 371.7 131.8 376.2 Z"
     id="path7256" />
  <path
     fill="#e7e7e8"
     stroke="#e7e7e8"
     stroke-width="0.09375"
     opacity="1.00"
     d=" M 331.5 52.5 C 334.4 47.9 337.7 42.5 343.6 41.5 C 343.4 45.0 340.9 47.6 339.5 50.6 C 334.3 60.7 333.6 72.3 330.3 83.1 C 327.1 103.2 322.5 123.2 315.2 142.3 C 309.5 157.6 301.0 171.9 290.2 184.2 C 283.0 192.9 273.7 199.7 266.2 208.1 C 264.6 209.9 263.2 211.9 261.2 213.3 C 232.2 234.2 202.2 253.8 174.5 276.5 C 149.7 296.8 129.0 321.5 110.7 347.6 C 106.9 352.3 104.9 358.0 102.3 363.3 C 98.2 372.1 93.7 380.7 91.1 390.1 C 89.2 396.0 88.4 402.1 87.3 408.1 C 86.2 413.8 86.3 419.7 84.1 425.1 C 82.1 425.3 80.1 425.8 78.1 425.7 C 76.2 425.5 75.5 423.4 74.0 422.6 C 72.2 422.8 71.1 424.3 69.8 425.3 C 61.7 422.0 54.5 416.3 50.1 408.7 C 50.0 406.9 51.2 405.1 50.8 403.3 C 49.7 401.8 47.2 401.6 46.6 399.6 C 44.1 391.5 42.7 382.9 43.7 374.5 C 45.4 373.4 47.0 372.3 48.6 371.1 C 47.4 369.3 44.6 367.8 45.3 365.2 C 45.8 362.8 46.9 360.4 48.6 358.5 C 51.8 357.3 55.4 357.4 58.8 356.6 C 66.5 355.2 73.0 349.5 76.6 342.6 C 80.0 336.1 83.2 329.4 87.3 323.3 C 91.4 318.1 96.4 313.8 100.8 308.8 C 104.4 304.8 105.6 299.3 106.4 294.1 C 109.6 270.4 111.0 246.4 116.2 223.0 C 119.4 211.8 122.9 200.5 128.0 190.0 C 136.8 174.2 149.4 160.8 162.4 148.4 C 169.1 141.6 176.6 135.9 184.0 129.9 C 185.0 129.3 186.1 128.9 187.3 128.8 C 186.4 132.5 184.3 135.9 181.9 138.9 C 171.7 150.1 163.6 163.0 156.0 176.0 C 147.9 193.5 139.7 211.1 135.0 229.8 C 133.9 237.4 132.5 245.7 136.1 252.9 C 139.0 255.6 142.9 258.0 147.0 257.1 C 154.8 255.5 161.9 251.8 168.4 247.4 C 184.1 236.1 200.1 225.3 215.0 213.0 C 224.5 205.6 232.7 195.7 235.9 183.9 C 238.5 173.8 241.4 163.6 241.9 153.0 C 242.1 148.6 243.2 144.3 243.5 139.9 C 243.8 131.8 245.9 124.0 248.1 116.2 C 249.8 110.2 252.3 104.2 255.9 99.0 C 256.6 97.7 258.0 97.1 259.3 96.6 C 259.7 99.8 258.8 102.9 258.2 106.0 C 255.7 120.9 256.5 136.1 258.0 151.0 C 258.4 157.6 261.2 164.4 266.8 168.2 C 269.0 170.1 272.0 168.4 273.9 166.9 C 279.1 162.2 282.5 156.1 286.3 150.4 C 296.5 136.7 304.3 121.4 310.5 105.6 C 314.6 95.9 315.8 85.2 320.9 75.9 C 323.8 67.9 326.6 59.6 331.5 52.5 Z"
     id="path7258" />
  <path
     fill="#e7e7e8"
     stroke="#e7e7e8"
     stroke-width="0.09375"
     opacity="1.00"
     d=" M 410.5 127.6 C 411.7 123.2 417.1 124.9 420.3 125.6 C 420.5 127.2 420.7 128.7 420.9 130.3 C 422.9 129.8 424.8 129.1 426.9 129.0 C 433.0 133.7 438.9 139.2 442.8 146.0 C 442.2 147.6 440.6 149.1 440.8 150.9 C 441.8 152.3 443.9 152.2 445.4 152.8 C 447.1 160.2 447.4 168.0 445.7 175.5 C 445.4 178.1 442.5 178.2 440.7 179.2 C 440.8 181.4 441.6 183.6 441.6 185.8 C 440.9 188.8 439.6 191.7 438.5 194.7 C 434.5 194.6 430.3 194.0 426.4 195.5 C 424.2 196.4 421.4 196.8 420.3 199.2 C 414.0 209.8 409.5 221.7 400.7 230.7 C 395.0 236.1 389.5 241.9 385.9 248.9 C 382.0 258.0 380.6 268.0 380.6 277.8 C 382.2 284.6 380.5 291.6 379.2 298.4 C 376.1 312.9 371.9 327.3 367.5 341.5 C 366.7 344.2 366.0 347.1 364.5 349.5 C 353.4 367.1 343.0 385.4 329.2 401.1 C 321.4 409.6 313.1 418.0 302.9 423.5 C 302.5 423.2 301.7 422.4 301.4 422.1 C 305.4 415.7 310.3 409.9 314.5 403.6 C 333.0 376.3 348.9 346.4 356.0 314.0 C 357.5 307.7 356.2 298.9 349.0 296.9 C 336.3 298.3 325.2 305.2 314.5 311.5 C 299.7 320.3 285.2 329.8 272.4 341.4 C 266.4 347.1 260.3 352.9 256.3 360.2 C 253.9 365.6 252.1 371.2 251.7 377.1 C 250.5 391.3 249.0 405.6 245.5 419.6 C 244.6 426.1 241.9 432.3 239.7 438.5 C 237.9 443.0 236.3 447.5 233.8 451.7 C 233.2 453.3 231.5 453.6 229.9 453.5 C 229.9 448.5 231.2 443.6 231.7 438.6 C 233.3 426.1 234.5 413.5 233.9 400.9 C 233.7 396.9 231.4 393.5 230.2 389.7 C 229.2 386.7 227.4 383.5 223.9 383.1 C 217.3 382.5 212.2 387.5 207.5 391.5 C 203.6 396.3 198.9 400.4 195.7 405.7 C 187.3 418.5 178.8 431.7 174.4 446.6 C 170.4 462.9 166.7 479.4 159.9 494.9 C 157.6 499.5 155.7 504.5 151.9 508.2 C 151.1 508.3 149.6 508.3 148.9 508.4 C 149.6 504.3 151.7 500.5 152.6 496.4 C 156.8 479.3 156.5 461.4 159.0 444.0 C 159.6 439.9 160.9 435.9 162.2 431.9 C 167.3 416.1 173.8 400.7 182.2 386.3 C 186.7 378.7 191.8 371.3 198.5 365.6 C 200.9 363.6 202.4 360.8 204.7 358.7 C 209.7 353.8 215.9 350.6 221.4 346.5 C 224.9 343.9 227.4 340.3 231.0 338.0 C 260.6 317.1 292.4 299.3 321.0 276.9 C 331.7 268.1 343.2 259.1 349.1 246.2 C 350.8 243.3 353.9 241.3 355.0 238.0 C 366.6 205.6 390.7 179.6 403.6 147.8 C 406.2 141.2 408.4 134.4 410.5 127.6 Z"
     id="path7260" />
  <path
     fill="#d2ab67"
     stroke="#d2ab67"
     stroke-width="0.09375"
     opacity="1.00"
     d=" M 342.9 169.4 C 344.1 164.9 344.7 160.1 346.5 155.8 C 347.8 160.3 348.8 164.9 350.0 169.5 C 354.6 168.4 359.0 166.8 363.5 165.9 C 360.7 169.6 356.9 172.4 353.8 175.9 C 357.2 179.4 360.9 182.5 364.1 186.0 C 359.3 184.9 354.6 183.4 349.9 182.1 C 348.7 186.7 347.6 191.4 346.5 196.1 C 344.9 191.5 343.9 186.7 342.7 182.0 C 338.1 183.2 333.5 184.8 328.8 186.0 C 332.0 182.3 335.6 179.1 339.0 175.8 C 335.7 172.3 332.0 169.3 328.9 165.8 C 333.6 166.7 338.2 168.3 342.9 169.4 Z"
     id="path7262" />
  <path
     fill="#d2ab67"
     stroke="#d2ab67"
     stroke-width="0.09375"
     opacity="1.00"
     d=" M 307.8 216.1 C 309.0 211.7 309.7 207.0 311.5 202.7 C 312.8 207.2 313.7 211.7 315.0 216.2 C 319.7 215.0 324.4 213.5 329.1 212.2 C 325.8 215.7 322.3 219.1 318.8 222.3 C 321.9 226.1 325.8 229.1 329.1 232.9 C 324.3 231.5 319.7 230.1 314.9 228.8 C 313.6 233.3 312.7 237.8 311.5 242.3 C 309.7 238.0 309.0 233.3 307.7 228.8 C 302.8 230.0 298.1 231.6 293.2 232.9 C 296.7 229.3 300.6 226.1 303.9 222.3 C 300.3 218.9 296.7 215.5 293.2 212.1 C 298.1 213.4 302.9 215.0 307.8 216.1 Z"
     id="path7264" />
  <path
     fill="#d2ab67"
     stroke="#d2ab67"
     stroke-width="0.09375"
     opacity="1.00"
     d=" M 265.7 238.0 C 267.2 242.8 268.1 247.8 269.7 252.6 C 274.2 251.2 278.7 249.7 283.3 248.8 C 280.1 252.4 276.5 255.4 273.3 258.9 C 276.7 262.4 280.4 265.6 283.9 269.0 C 279.0 267.9 274.2 266.3 269.3 265.1 C 268.2 269.8 267.3 274.5 265.7 279.1 C 264.6 274.4 263.5 269.6 262.1 265.0 C 257.4 266.3 252.7 267.9 248.0 269.0 C 251.4 265.6 255.0 262.2 258.4 258.8 C 255.3 255.3 251.6 252.4 248.6 248.8 C 253.2 249.8 257.7 251.2 262.2 252.5 C 263.6 247.7 264.7 242.9 265.7 238.0 Z"
     id="path7266" />
  <path
     fill="#d2ab67"
     stroke="#d2ab67"
     stroke-width="0.09375"
     opacity="1.00"
     d=" M 217.3 270.6 C 219.1 275.1 219.8 279.8 221.1 284.4 C 225.6 283.1 229.9 281.7 234.4 280.7 C 231.9 284.6 227.4 287.0 225.1 290.9 C 228.3 294.4 232.0 297.3 235.1 300.9 C 230.4 299.6 225.7 298.1 221.0 296.9 C 219.6 301.4 219.1 306.1 217.3 310.4 C 215.9 305.9 215.0 301.4 213.8 296.9 C 209.1 298.0 204.5 299.6 199.9 300.9 C 202.9 297.0 206.9 294.1 210.1 290.3 C 206.7 287.3 203.3 284.3 200.4 280.8 C 205.0 281.6 209.4 283.1 213.9 284.3 C 215.1 279.7 216.0 275.1 217.3 270.6 Z"
     id="path7268" />
  <path
     fill="#d2ab67"
     stroke="#d2ab67"
     stroke-width="0.09375"
     opacity="1.00"
     d=" M 171.9 324.4 C 172.8 319.9 173.8 315.2 175.4 310.9 C 176.6 315.5 177.6 320.2 178.9 324.8 C 183.7 323.3 188.5 321.9 193.2 320.5 C 189.9 324.1 186.1 327.3 182.7 331.0 C 186.0 334.5 189.7 337.6 193.0 341.1 C 188.2 340.0 183.5 338.5 178.9 337.2 C 177.5 341.8 176.5 346.5 175.4 351.1 C 173.8 346.6 172.8 341.8 171.7 337.1 C 167.0 338.3 162.4 339.9 157.7 341.0 C 160.9 337.4 164.6 334.3 167.9 330.8 C 164.5 327.5 160.9 324.4 157.8 320.9 C 162.6 321.7 167.1 323.7 171.9 324.4 Z"
     id="path7270" />
  <path
     fill="#d2ab67"
     stroke="#d2ab67"
     stroke-width="0.09375"
     opacity="1.00"
     d=" M 131.8 376.2 C 132.9 371.7 133.6 367.0 135.4 362.7 C 136.7 367.2 137.7 371.8 139.0 376.4 C 143.5 375.1 147.9 373.6 152.5 372.7 C 149.4 376.3 145.8 379.3 142.7 382.8 C 146.2 386.1 149.8 389.4 153.1 392.9 C 148.3 391.7 143.6 390.2 138.8 389.0 C 137.5 393.4 136.7 397.9 135.5 402.3 C 133.4 398.1 132.9 393.4 131.7 389.0 C 126.8 390.0 122.0 391.7 117.2 393.0 C 120.6 389.3 124.5 386.1 127.8 382.4 C 124.2 379.0 120.7 375.5 117.1 372.1 C 122.0 373.5 126.8 375.1 131.8 376.2 Z"
     id="path7272" />
</svg>
