<?xml version="1.0" encoding="utf-8"?>
<!-- Generator: Adobe Illustrator 15.0.1, SVG Export Plug-In . SVG Version: 6.00 Build 0)  -->
<!DOCTYPE svg PUBLIC "-//W3C//DTD SVG 1.1//EN" "http://www.w3.org/Graphics/SVG/1.1/DTD/svg11.dtd">
<svg version="1.1" id="Layer_1" xmlns="http://www.w3.org/2000/svg" xmlns:xlink="http://www.w3.org/1999/xlink" x="0px" y="0px"
	 width="493px" height="586px" viewBox="0 0 493 586" enable-background="new 0 0 493 586" xml:space="preserve">
<path d="M247.204,582.699c-64.644,0-125.42-25.172-171.133-70.878S5.178,405.344,5.167,340.702V5.508h484.074v335.154
	c0,39.41-9.688,78.528-28.015,113.127c-17.74,33.49-43.514,62.774-74.533,84.687c-1.406,0.994-2.821,1.979-4.251,2.943
	C342.434,568.424,295.668,582.699,247.204,582.699z"/>
<g>
	<path fill="#006BB7" d="M10.667,340.623v0.078c0.021,130.617,105.914,236.498,236.537,236.498
		c48.952,0,94.43-14.871,132.164-40.341L10.667,14.138V340.623z"/>
	<path d="M14.639,11.008h-3.972v3.13l368.701,522.721c1.396-0.941,2.777-1.903,4.152-2.875L14.639,11.008z"/>
	<path fill="#D2AB67" d="M483.741,340.662V11.008H14.639l368.881,522.976C444.147,491.156,483.741,420.535,483.741,340.662z"/>
</g>
<path fill="#D2AB67" d="M175.84,305.9c9.35-0.32,18.71-0.27,28.05-0.02c-2.42,6.159-5.74,11.92-8.02,18.14
	c5.39-1.34,10.6-3.31,15.97-4.75c0.29,7.63,0.25,15.27,0.05,22.9c-6.48-2.96-12.36-7.07-18.82-10.07c-0.77,7,1.39,13.78,4.77,19.82
	c-6.18-0.61-12.39-0.67-18.57-0.25c2.81-5.95,5.23-12.271,4.79-18.98c-6.78,2.55-12.89,6.53-19.6,9.23
	c-0.14-8.601-0.27-17.2-0.21-25.801c6,2.42,11.88,5.181,18.11,7C180.55,317.24,177.67,311.77,175.84,305.9z M97.25,445.17
	c5.83,4.63,11.86,9.09,17.04,14.47c-4.83,2.49-10.25,3.87-14.6,7.229c6.07,3.101,13.99,2.221,18.8,7.641
	c6.27,6.5,13.4,12.24,18.91,19.42c-7.95-1.69-15.47-4.86-23.27-7.08c-2.98-1.11-6.6-1.63-8.57-4.41c-3.02-4.18-5.36-8.84-8.71-12.8
	c-2.01,5.67-2.6,11.689-4.03,17.51c-5.38-3.66-10.41-7.82-15.19-12.24c3.85-2.93,8.41-4.949,11.76-8.52
	c-5.62-1.29-11.4-1.771-16.99-3.21c4.3-5.98,8.95-11.71,13.81-17.24c2.95,3.85,5.6,7.92,8.75,11.61
	C95.91,453.46,96.57,449.31,97.25,445.17z M257,464.89c6.529-4.851,13.13-9.62,20.01-13.95c0.85,4.7,1.37,9.46,2.301,14.16
	c3.279-3.79,5.799-8.13,8.67-12.21c4.229,5.8,8.189,11.79,11.949,17.899c-5.119,0.62-10.27,0.94-15.34,1.86
	c3.811,3.54,8.811,5.26,13.28,7.771c-6.29,4.97-13.04,9.319-19.78,13.64c-1.42-5.75-2.16-11.66-4-17.29
	c-3.061,3.09-5.47,6.72-8.38,9.94c-2.16,2.399-5.569,2.729-8.5,3.569c-7.83,1.73-15.46,4.33-23.39,5.62
	c4.94-5.49,11.11-9.62,16.55-14.56c2.81-2.29,5.5-5.33,9.351-5.62c4.299-0.55,8.659-0.76,12.899-1.76
	C268.05,469.909,262.13,468.039,257,464.89z"/>
<path fill="#E7E7E7" d="M136.8,379.829c11.36-14.829,29.44-24.27,48.14-24.84c13.26-0.29,26.76,2.91,38.02,10.03
	c10.71,6.9,18.89,17.31,23.92,28.94c-12.32-0.271-24.65-0.091-36.96-0.36c-4.95,0.16-8.31-4.08-12.68-5.67
	c-16.57-7.141-37.73,2.82-43.36,19.83c-3.26,8.14-1.74,17.029-0.16,25.35c5.19,27.05,11.73,53.84,16.05,81.05
	c-14.61,0.17-29.22,0.141-43.83,0.021c-1.1-5.24-1.88-10.54-2.61-15.84c7.7-0.181,15.41-0.28,23.12-0.44
	c-4.34-14.81-9.56-29.35-14.22-44.06c-3.36-10.771-7.81-21.41-8.39-32.811C122.74,406.28,127.99,391.539,136.8,379.829
	 M227.04,417.1c4.33-2.08,9.29-1.521,13.94-1.85c3.51,0.039,7.79-0.601,10.45,2.27c2.78,3.1,1.541,7.64,0.33,11.16
	c-8.61,23.24-17.63,46.32-26.26,69.55c7.11,1.28,14.38,1.01,21.55,1.85c-1.21,4.71-2.73,9.341-4.35,13.931
	c-13.9,0.47-27.81,0.149-41.72,0.52c2.45-13.27,6.13-26.29,9.1-39.46c3.89-16.38,7.88-32.75,11.95-49.08
	C222.95,422.73,223.69,418.75,227.04,417.1z"/>
<path d="M225.7,377.78c1.02-0.38,2.07-0.6,3.14-0.68c2.73,1.939,4.81,4.67,6.68,7.42c0.78,1.32,2.11,3.32,0.27,4.41
	C231.3,386.55,228.75,381.69,225.7,377.78z M137.44,388.09c0.78,0.6,1.56,1.199,2.35,1.81c3.53-4.22,7.55-8.05,10.62-12.64
	c-0.64-0.311-1.91-0.931-2.54-1.23C143.76,379.449,140.16,383.47,137.44,388.09z M128.66,413.15c0.73-0.17,2.18-0.5,2.9-0.67
	c1.24-4.86,2.82-9.64,3.66-14.59c-0.79,0-2.37-0.01-3.15-0.021C129.96,402.68,128.29,407.82,128.66,413.15z M457.57,288.54
	c4.229-2.311,7.16-6.32,11.21-8.891c-0.05,5.021-0.78,9.99-1.141,14.99c-0.5,6.3-0.93,12.76-3.439,18.64
	c-2.82,6.73-8.72,12.03-15.641,14.26c-5.89,1.9-12.029,2.841-18.119,3.841c-14.851,2.25-29.78,3.96-44.61,6.35
	c-2.77,0.45-5.5,1.14-8.141,2.08c7.221,0.3,14.381-0.93,21.551-1.6c14.85-1.561,29.7-3.091,44.58-4.431
	c6.3-0.45,11.71-3.89,17.439-6.17c-2.64,5.49-7.859,9.37-13.689,10.88c-7.931,2.09-16.181,2.21-24.29,3.05
	c-15.44,1.48-30.91,2.591-46.33,4.24c-0.271,0.45-0.81,1.36-1.08,1.811c20.739,0.41,41.36-2.63,62.07-3.16
	c7.04-0.01,13.84-1.88,20.439-4.17c-0.68,8.43-3.43,16.84-8.35,23.75c-4.69,6.62-13.24,9.08-21.021,8.72
	c-10.07-0.28-18.91-5.69-28.449-8.229c-8.33-2.28-16.23-6.181-24.83-7.431c4.16,3.03,9.149,4.47,13.89,6.32
	c10.819,4.18,21.59,8.51,32.5,12.45c5.96,2.25,12.39,1.33,18.6,1.239c-6.83,7.45-18.43,6.551-27.14,3.36
	c-9.93-4.06-19.54-8.93-29.7-12.439c-1.81-0.58-3.96-1.11-5.64,0.1c-3.5,2.24-4.23,6.689-4.61,10.5
	c-1.399,16.11,0.8,32.2,2.841,48.15c0.299,4.319,1.489,9.43-1.631,13.029c-2.67,3.08-7.17,2.9-10.859,2.48
	c-9.78-1.46-19.58-2.88-29.24-5.01c-7.239-1.458-24.051-6.555-24.051-6.555c-0.041-0.013-18.705-5.744-21.58-6.796
	c-7.01-2.09-13.719-5.35-21.049-6.22c1.39,7.59,5.469,14.27,7.64,21.6c1.2,4.51-3.28,7.681-6.53,9.851
	c-6.18,4.17-13.92,3.229-20.97,3.08c-3.01,5.88-5.13,12.159-7.7,18.229c-2.83,7.16-6.07,14.15-8.55,21.44
	c7.16-5.431,13.82-11.471,20.7-17.23c2.82-2.649,6.89-2.43,10.459-2.89c-4.199-2.021-8.469-3.931-12.379-6.471
	c3.81-3.069,7.89-5.81,11.91-8.6c5.789-3.92,11.209-8.39,17.33-11.8c0.559,4.12,0.909,8.26,1.309,12.399
	c2.201-3.88,4.281-7.81,6.57-11.64c4.45,5.82,8.11,12.18,12.291,18.17c2.17,3.11,4.159,6.36,5.909,9.73
	c-3.76,0.33-7.521,0.609-11.271,0.95c3.4,2.159,6.891,4.18,10.351,6.26c-6.46,4.74-13.36,8.84-19.95,13.39
	c-3.189,2.23-6.5,4.3-9.959,6.08c-1.16-4.34-2.16-8.72-3.201-13.08c-2.34,2.36-4.709,5.09-8.17,5.68
	c-6.359,1.431-12.81,2.48-19.02,4.49c2.42,0.33,4.85,0.641,7.279,0.97c-1.67,6.7-3.959,13.23-6.35,19.7
	c-6.91,0.641-13.84,0.23-20.76,0.3c-9.66-0.13-19.32,0.32-28.97-0.229c3.72-19.021,8.81-37.76,12.79-56.73
	c-3.6-0.54-7.46-0.609-10.68-2.479c-3.6-2.2-4.69-6.6-7.43-9.58c-3.66-2.78-8.66-3.65-11.62-7.37c-3.21-3.92-2.48-10.07-6.79-13.189
	c-4.32-3.351-9.14-7.181-9.96-12.96c-0.24-1.471-0.03-3.301,1.59-3.86c11.6-6.3,24.13-10.88,35.42-17.74
	c-14.32-9.39-36.04-1.17-41.25,14.95c-3.56,10.1,0.4,20.61,2.07,30.66c5.08,26.06,10.3,52.109,14.72,78.29
	c-9.29,0.569-18.6,0.1-27.89,0.239c-8.19-0.189-16.4,0.511-24.56-0.42c-1.23-7.449-2.86-14.85-3.47-22.39
	c2.75-0.22,5.5-0.42,8.24-0.65c-6.44-2.609-13.25-4.079-19.83-6.26c-4.65-1.31-6.16-6.439-8.83-9.91
	c-1.48,5.051-2.18,10.28-3.42,15.391c-8.19-6.351-16.17-12.971-23.97-19.78c3.36-2.19,6.73-4.36,10-6.69
	c-5.05-0.71-10.11-1.359-15.09-2.479c4.49-6.14,9.5-11.88,14.03-18c1.89-2.59,4.01-5.01,6.38-7.17c2.03,3.109,4.09,6.189,6.27,9.2
	c0.69-3.61,1.35-7.221,2.11-10.801c9.27,7.261,18.39,14.771,27.22,22.561c-4.11,1.61-8.24,3.17-12.33,4.84
	c3.53,1.021,7.51,1.53,10.2,4.3c6.36,6.12,12.06,12.99,19.21,18.25c-4.67-18.68-11.27-36.83-17.43-55.05
	c-4.58-14.58-3.25-31.05,4.03-44.54c6.69-13.64,18.84-23.92,32.25-30.65c5.04-2.569,10.67-3.729,15.67-6.399
	c4.42-2.74,5.96-8.15,6.78-12.97c-6.7,2.06-12.41,6.319-19.05,8.52c-0.2-12.4-1.08-24.81-0.63-37.21
	c5.27,2.14,10.21,4.99,15.53,7.03c-2.02-5.12-4.76-9.92-6.59-15.11c13.45,0.101,26.91,0,40.36,0.21
	c-2.26,5.311-5.18,10.311-7.31,15.68c4.4-1.5,8.73-3.189,13.15-4.63c0.02,12.04,0.32,24.091,0.19,36.13
	c-6.75-2.88-12.35-7.819-19.17-10.56c0.64,4.6,1.8,9.61,5.49,12.76c2.59,1.79,5.75,2.42,8.67,3.48
	c14.92,4.96,27.91,15.6,35.59,29.35c1.77,3.21,3.57,6.42,5.55,9.521c7.673,0.33,60.747-0.022,67.77,0.22
	c3.77-0.11,8.52,0.43,11.07-3.03c3.27-4.399,1.93-10.37-0.1-15c-5.601-12.55-10.78-25.29-15.94-38.029
	c-5.479-12.811-4.38-27.45-0.54-40.55c2.37-8.681,8.46-15.551,12.529-23.41c4.771-8.811,8.811-18.811,7.101-29.011
	c-1.43-10.22-8.71-18.68-17.3-23.899c-14.08-8.43-34.41-0.601-40.141,14.54c-3.6,8.77-2.85,18.7,0.9,27.28
	c-8.6,6.96-19.4,11.409-30.51,11.8c-13.69,0.649-27.65-3.8-38.18-12.63c-10.46-8.7-18.46-19.9-25.63-31.351
	c-9.65-15.609-16.67-32.609-25.21-48.81c-11.5-23.62-25.31-46.061-40.68-67.351c-7.36-9.859-15.59-19.04-23.99-28.029
	C84.86,77.54,74.53,70.48,63.99,64C73.76,56.03,82.91,46.98,94.32,41.32c7.92-4.02,16.9-5.64,25.74-5.439
	c8.83,0.25,17.43,4.12,23.6,10.439c5.48,4.95,8.59,11.771,11.76,18.29c5.25,10.99,10.91,21.78,16.18,32.771
	c8.59,17.14,16.61,34.58,25.53,51.56c0.45-0.26,1.35-0.77,1.81-1.029c-11.53-26.71-24.1-52.971-36.48-79.301
	c-4.99-10.479-9.08-22.21-18.32-29.8c-3.46-3.12-8.54-3.87-11.49-7.6c8.04-0.74,15.32,3.899,20.6,9.55
	c4.29,4.45,6.55,10.32,9.2,15.8c9.23,20.15,17.99,40.51,27.35,60.59c3.1,6.91,6.44,13.721,9.33,20.73
	c1.21,2.97,2.76,5.81,4.73,8.359c-0.72-3.119-1.78-6.149-3-9.1c-12.81-31.65-25.32-63.439-39.41-94.54
	c-2.32-5.34-6.91-9.04-11.04-12.92c2.92-1.62,6.21-2.31,9.5-2.75c7.68-1.09,15.32-2.89,23.13-2.72
	c11.29,0.21,22.98,3.62,31.55,11.22c6.83,5.82,9.73,14.72,11.69,23.18c4.39,19.86,8.91,39.681,13.58,59.48
	c1.48,6.09,2.46,12.34,4.68,18.24c0.89-1.471,1.52-3.11,1.02-4.841c-4.16-22.869-8.28-45.75-12.37-68.63
	c-1.51-7.84-2.42-15.949-5.71-23.29c-2.4-5.479-7.72-8.54-12.1-12.229c7.41-0.79,13.93,5,16.81,11.399
	c4.4,10.721,5.55,22.36,7.36,33.711c2.58,14.76,5.15,29.52,7.75,44.27c1.16,5.97,1.81,12.08,3.851,17.84
	c1.56-0.83,1.51-2.57,1.27-4.08c-4.359-28.6-9.01-57.149-13.09-85.779c-0.74-3.921-1.56-7.95-3.66-11.4
	c-2-2.97-4.76-5.311-7.01-8.07c6.78-0.29,13.54,0.49,20.32,0.78c7.47,0.42,15.14,0.26,22.31,2.74c5.76,1.87,10.87,5.63,14.45,10.51
	c2.39,3.4,2.83,7.69,3.189,11.729C289.67,61.64,289.15,72.33,289,83c-0.02,12.67,0.02,25.34-0.01,38c0,5.17-0.24,10.359,0.49,15.489
	c2.41-4.449,1.699-9.659,2.049-14.51c1.041-22.31,2.111-44.62,3.221-66.92c0.21-5.03-0.1-10.189-1.87-14.95
	c-1.56-4.29-4.601-7.77-6.86-11.67c5.75,1.3,10,6.021,12.391,11.19c2.4,5.43,2.199,11.52,1.82,17.32
	c-1.381,21.989-2.42,44-3.891,65.989c-0.21,4.641-1.199,9.431,0.391,13.95c0.549-1.939,1.039-3.89,1.279-5.89
	c2.68-26.971,5.02-53.971,7.85-80.931c0.281-3.93,0.33-8.02-1.149-11.739c-1.47-3.62-4.21-6.471-6.46-9.601
	c8.93-1.149,17.98-0.13,26.83,1.21c7.4,1.16,15.061,4.13,19.359,10.63c4.67,6.19,6.16,14.44,4.061,21.91
	c-5.45,22.05-10.529,44.2-15.76,66.311c-1.221,5.47-3.16,10.89-2.83,16.58c2.79-2.41,3.189-6.2,4.05-9.551
	c5.771-23.31,11.89-46.529,18.17-69.71c1.5-5.52,2.97-11.199,2.46-16.97c-0.33-4.46-2.29-8.53-3.63-12.72
	c3.63,2.21,6.74,5.38,8.22,9.43c2.74,6.33,1.381,13.4-0.59,19.74c-6.99,24.07-13.75,48.21-20.73,72.29
	c-0.83,2.81-1.409,5.7-1.68,8.62c2.86-2.851,3.48-6.96,4.66-10.641c6.631-21.83,13.67-43.54,20.801-65.22
	c1.83-5.729,4.35-11.45,4.219-17.58c-0.039-5.32-2.51-10.149-4.1-15.109c9.35,2.409,18.45,5.71,27.67,8.579
	c7.75,2.32,13.42,9.58,14.36,17.54c0.91,5.971-1.069,11.86-3.42,17.271c-7.899,17.46-14.58,35.42-21.99,53.08
	c-4.37,10.59-9.17,20.99-13.351,31.649c0.9,0.29,1.801,0.57,2.711,0.86c11.439-25.69,22.529-51.54,33.89-77.28
	c2.97-6.859,6.67-13.56,7.97-21.01c0.93-4.75-0.82-9.39-1.66-14c2.771,2.49,5.16,5.54,6.061,9.22
	c1.859,6.23,0.05,12.801-2.68,18.471c-9.66,20.449-18.75,41.159-28.15,61.739c-4.32,9.601-9.141,18.971-13.199,28.681
	c0.469,0.35,1.42,1.029,1.889,1.37c15.391-30.48,31-60.87,45.49-91.79c2.641-5.551,2.211-11.801,2.57-17.771
	c4.76,4.18,8.05,9.65,11.95,14.57c3.54,4.79,7.59,9.26,10.46,14.52c3.87,7.051,4.229,15.53,2.56,23.261
	c-1.68,6.55-5.62,12.189-9.029,17.93c-12.521,19.479-24.24,39.479-37.71,58.34c-3.67,6.05-8.82,11.44-10.601,18.44
	c4.04-1.98,5.82-6.32,8.33-9.78c14.42-21.25,28.87-42.48,43.22-63.79c3.23-4.86,7.07-9.48,8.87-15.12
	c1.59-4.71,1.391-9.76,2.19-14.62c2.42,2.601,2.859,6.26,3.07,9.66c0.31,6.87-1.801,13.81-5.9,19.34
	c-18.87,25.87-37.561,51.88-55.91,78.12c-0.97,1.53-1.73,3.18-2.43,4.85c3.779-1.88,5.97-5.6,8.42-8.85
	c10.13-13.53,20.38-26.96,30.59-40.42c7.65-10.06,16.13-19.51,22.8-30.29c2.351-3.74,3.391-8.08,5.101-12.12
	c2.83,8.46,3.59,17.41,5.319,26.13c1.48,10.74,4.67,21.71,2.061,32.54c-1.721,8.03-6.67,14.91-12.58,20.431
	c-19.01,18.539-40.89,33.859-59.81,52.47c5.93-3.7,11.209-8.311,16.84-12.431c10.51-7.779,20.329-16.46,31.06-23.949
	c4.61-3.351,9.34-6.59,13.479-10.521c4.66-4.359,7.381-10.33,12.07-14.66c-0.56,10.87-7.37,20.551-16.149,26.58
	c-18.24,13.08-36.411,26.25-54.641,39.34c-2.61,1.82-4.97,4.021-6.771,6.66c2.181-0.84,4.311-1.84,6.23-3.18
	c16.12-11.57,32.32-23.05,48.51-34.54c5.78-4.21,12.33-7.42,17.49-12.46c3.681-3.521,5.86-8.2,8.87-12.24
	c0.79,8.05,0.26,16.15,0.39,24.23c-0.06,8.26,0.86,16.91-2.56,24.689c-3.75,9.84-12.16,17.15-21.55,21.49
	c-12.33,5.9-24.68,11.78-36.891,17.95c-8.449,4.25-17.199,7.97-25.27,12.93c5.41-1.67,10.529-4.11,15.74-6.3
	c15.449-6.53,30.859-13.14,46.31-19.68c5.95-2.71,12.01-5.69,16.61-10.45c3.81-3.92,4.96-9.8,9.41-13.19
	c0.699,4.431-1.36,8.62-3.271,12.471c-3.88,7.51-10.67,13.25-18.43,16.449c-16.93,7.07-33.92,13.98-50.8,21.15
	c-5.74,2.49-11.791,4.42-17.041,7.91c5.33-1.41,10.391-3.601,15.541-5.521c14.01-5.27,28.02-10.57,42.029-15.84
	C444.72,294.56,451.38,292.03,457.57,288.54z M179.27,351.67c6.18-0.42,12.39-0.36,18.57,0.25c-3.38-6.04-5.54-12.82-4.77-19.82
	c6.46,3,12.34,7.11,18.82,10.07c0.2-7.631,0.24-15.271-0.05-22.9c-5.37,1.44-10.58,3.41-15.97,4.75c2.28-6.22,5.6-11.98,8.02-18.14
	c-9.34-0.25-18.7-0.301-28.05,0.02c1.83,5.87,4.71,11.34,6.52,17.22c-6.23-1.819-12.11-4.58-18.11-7
	c-0.06,8.601,0.07,17.2,0.21,25.801c6.71-2.7,12.82-6.681,19.6-9.23C184.5,339.4,182.08,345.72,179.27,351.67z M137.4,493.93
	c-5.51-7.18-12.64-12.92-18.91-19.42c-4.81-5.42-12.73-4.54-18.8-7.641c4.35-3.359,9.77-4.739,14.6-7.229
	c-5.18-5.38-11.21-9.84-17.04-14.47c-0.68,4.14-1.34,8.29-2.29,12.38c-3.15-3.69-5.8-7.761-8.75-11.61
	c-4.86,5.53-9.51,11.26-13.81,17.24c5.59,1.439,11.37,1.92,16.99,3.21c-3.35,3.57-7.91,5.59-11.76,8.52
	c4.78,4.42,9.81,8.58,15.19,12.24c1.43-5.82,2.02-11.84,4.03-17.51c3.35,3.96,5.69,8.62,8.71,12.8c1.97,2.78,5.59,3.3,8.57,4.41
	C121.93,489.07,129.45,492.24,137.4,493.93z M209.92,393.6c12.31,0.27,24.64,0.09,36.96,0.36c-5.03-11.631-13.21-22.04-23.92-28.94
	c-11.26-7.12-24.76-10.32-38.02-10.03c-18.7,0.57-36.78,10.011-48.14,24.84c-8.81,11.71-14.06,26.45-12.96,41.2
	c0.58,11.4,5.03,22.04,8.39,32.811c4.66,14.71,9.88,29.25,14.22,44.06c-7.71,0.16-15.42,0.26-23.12,0.44
	c0.73,5.3,1.51,10.6,2.61,15.84c14.61,0.12,29.22,0.149,43.83-0.021c-4.32-27.21-10.86-54-16.05-81.05
	c-1.58-8.32-3.1-17.21,0.16-25.35c5.63-17.01,26.79-26.971,43.36-19.83C201.61,389.52,204.97,393.76,209.92,393.6z M180.43,426.47
	c4.37-2.46,7.81-6.21,11.73-9.28c2.94-2.65,6.94-4.82,7.78-9.03c-7.79,1.811-12.59,9.11-19.66,12.46
	c-2.56-1.55-5.34-2.729-8.36-2.85c0.31,2.15,0.47,4.55,2.16,6.15C175.63,425.56,178.03,427.94,180.43,426.47z M202.84,432.9
	c3.01-4.939,7.15-9.399,8.36-15.22c-1.68,0.689-3.56,1.28-4.59,2.91c-4.33,5.76-7.51,12.38-12.6,17.58
	c-3.04-0.87-6.11-1.65-9.23-2.181c-0.01,4.98,5.33,8.21,9.87,7.9C198.16,440.89,200.27,436.67,202.84,432.9z M208.85,455.9
	c3.01-0.229,3.42-3.689,4.31-5.91c-3.84-0.42-7.78-0.46-11.41,1C203.33,453.449,205.48,456.46,208.85,455.9z M233.82,495.9
	c7.93-1.29,15.56-3.89,23.39-5.62c2.931-0.84,6.34-1.17,8.5-3.569c2.91-3.221,5.319-6.851,8.38-9.94c1.84,5.63,2.58,11.54,4,17.29
	c6.74-4.32,13.49-8.67,19.78-13.64c-4.47-2.511-9.47-4.23-13.28-7.771c5.07-0.92,10.221-1.24,15.34-1.86
	c-3.76-6.109-7.72-12.1-11.949-17.899c-2.871,4.08-5.391,8.42-8.67,12.21c-0.931-4.7-1.451-9.46-2.301-14.16
	c-6.88,4.33-13.48,9.1-20.01,13.95c5.13,3.149,11.05,5.02,15.62,9.07c-4.24,1-8.601,1.21-12.899,1.76
	c-3.851,0.29-6.541,3.33-9.351,5.62C244.93,486.28,238.76,490.409,233.82,495.9z M251.76,428.68c1.211-3.521,2.45-8.061-0.33-11.16
	c-2.66-2.87-6.939-2.23-10.45-2.27c-4.65,0.329-9.61-0.23-13.94,1.85c-3.35,1.65-4.09,5.63-5.01,8.89
	c-4.07,16.33-8.06,32.7-11.95,49.08c-2.97,13.17-6.65,26.19-9.1,39.46c13.91-0.37,27.82-0.05,41.72-0.52
	c1.62-4.59,3.14-9.221,4.35-13.931c-7.17-0.84-14.44-0.569-21.55-1.85C234.13,475,243.15,451.92,251.76,428.68z M260.4,445.86
	c-0.211-1.14-0.471-2.26-0.76-3.37c-1.94-1.35-4.4-1.35-6.631-1.779c-0.869,2.029-2.52,4.3-1.31,6.569
	C254.58,448.86,257.7,446.92,260.4,445.86z M218.97,370c-4.03-3.171-8.94-4.971-13.81-6.37c-4.84,3.96-10.74,7-17.16,6.64
	c-6.76,0.23-12.89-3.07-18.06-7.1c-5.14,1.76-10.74,3.489-14.25,7.93c5.09,1.68,9.12-3.85,14.18-3.9c2.8,1.011,5.26,2.75,8.01,3.88
	c6.63,2.94,14.48,2.801,21.06-0.199c2.42-1.021,4.64-2.5,7.15-3.33c4.62,0.689,8.24,4.149,12.72,5.319
	C219.97,372.23,220.01,370.76,218.97,370z"/>
</svg>
