<?xml version="1.0" encoding="utf-8"?>
<!-- Generator: Adobe Illustrator 14.0.0, SVG Export Plug-In . SVG Version: 6.00 Build 43363)  -->
<!DOCTYPE svg PUBLIC "-//W3C//DTD SVG 1.1//EN" "http://www.w3.org/Graphics/SVG/1.1/DTD/svg11.dtd">
<svg version="1.1" id="Layer_1" xmlns="http://www.w3.org/2000/svg" xmlns:xlink="http://www.w3.org/1999/xlink" x="0px" y="0px"
	 width="402.52px" height="487.559px" viewBox="0 0 402.52 487.559" enable-background="new 0 0 402.52 487.559"
	 xml:space="preserve">
<g id="Layer_x0020_1">
	<circle fill="#FFFFFF" cx="200.569" cy="138.71" r="130.833"/>
	<rect x="66.09" y="287.651" fill="#FFFFFF" width="76.167" height="140.949"/>
	<rect x="168.332" y="301.129" fill="#FFFFFF" width="76.167" height="140.949"/>
	<rect x="264.385" y="287.651" fill="#FFFFFF" width="76.167" height="140.949"/>
	<g id="__x0023_010b00ff">
		<path id="_92065416" fill="#010B00" d="M1.26-0.221h0.07c-0.02,0.01-0.05,0.04-0.07,0.05V-0.221z"/>
		<path id="_92065176" fill="#010B00" d="M92.44,288.721c6.54-1.351,13.41-1.99,19.95-0.251c2.87,0.99,6.57,2.751,6.64,6.271
			c0.95,4.66-2.42,8.391-4.41,12.22c2.72,3.38,6.29-0.67,9.58-0.569c4.2-1.03,7.96,1.8,10.45,4.89c1.83,4.45,2.65,9.76,0.25,14.18
			c-2.21,6.6-8.58,10.34-11.6,16.42c3.4-0.3,6.68-2.319,10.15-1.479c2.62,0.97,3.96,3.869,4.35,6.479
			c0.33,4.54,0.52,9.271-1.14,13.601c-1.15,3.67-4.34,6.039-6.701,8.89c-3.91,5.01-8.58,9.37-12.17,14.64
			c2.45,0.28,5.43-0.649,7.58,0.71c1.5,3.86,0.94,8.44-0.97,12.091c-4.08,8.279-9.59,15.729-14.9,23.239
			c-1.99,2.4-1.85,5.61-2.17,8.521c-3.87,0.05-7.74,0.06-11.6-0.15c-0.24-2.56,0.5-5.62-1.54-7.61
			c-7.3-7.629-13.56-16.289-18.3-25.739c-1.22-3.391-0.38-7.17,1.85-9.94c2.34-0.27,4.7-0.45,7.06-0.529
			c-2.52-5.03-6.94-8.73-10.13-13.32c-3.16-4.63-8.57-8.29-8.58-14.45c0.12-4.72-0.23-10.14,3.23-13.87
			c2.74-3.59,7.74-1.14,11.43-1.11c-3.41-5.619-7.87-10.52-11.3-16.1c-2.72-6.87-0.46-16.94,7.18-19.52
			c4.14-0.16,7.75,2.949,12.07,1.85c0.01-3.46-4.14-5.34-4.03-8.891C85.43,294.76,88.15,290.43,92.44,288.721 M88.14,299.65
			c1.59,2,3.33,3.939,4.49,6.24c1.11,2.189-1.28,3.689-2.29,5.329c-3.8,0.78-7.79,0.67-11.29-1.16c-2.77-1.699-4.64,1.61-5.82,3.601
			c8.88,5.67,17.66,11.51,26.5,17.25c0.64-13.26,1.06-26.52,1.36-39.78C95.63,291.221,88.61,293.109,88.14,299.65 M103.51,290.859
			c-0.27,13.41,0.51,26.831,0.96,40.23c8.71-6.649,18.06-12.43,26.71-19.16c-1.37-1.28-3.07-2.01-4.84-2.52
			c-2.81,0.51-5.42,1.65-8.08,2.65c-4.22,1.289-8.08-3.91-6.35-7.721c1.39-3.07,4.13-5.59,4.11-9.18
			c-0.33-0.45-0.99-1.35-1.32-1.811C111.13,291.88,107.38,290.96,103.51,290.859 M104.49,333.03c0.2,12.16,0.66,24.31,0.94,36.47
			c7.72-6.21,15.92-11.78,23.75-17.84c1.61-1.34,3.72-2.17,4.94-3.931c0.271-1.81-0.82-3.34-1.76-4.76c-0.38,0.25-1.14,0.75-1.52,1
			c-3.48,1.13-7.61,2.84-10.9,0.3c-1.19-6.109,4.64-9.749,7.91-13.939c3.91-4.351,6.55-10.85,3.82-16.48
			C122.79,320.48,113.6,326.7,104.49,333.03 M71.95,316.36c-0.05,2.84-0.63,6.02,1.16,8.51c3.58,5.45,7.81,10.479,11.4,15.93
			c1.14,1.41-0.12,3.23-1.05,4.38c-3.69,1.29-7.6-0.399-11.35-0.66c-0.38,0.601-1.14,1.79-1.53,2.38
			c0.11,0.351,0.33,1.04,0.44,1.381c9.07,6.8,18.48,13.159,27.58,19.93c0.38-11.729,0.91-23.47,1.15-35.21
			c-8.74-5.69-17.58-11.22-26.189-17.11C73.16,316.01,72.36,316.24,71.95,316.36 M101.63,324.57c0.36,14.06-0.92,28.119-1.02,42.18
			c-0.74,17-0.97,34.02-1.78,51.02c0.16,2.42,0.97,4.761,0.78,7.221c1.07,0.06,3.22,0.18,4.29,0.239
			c1.63-6.35,0.68-12.899,0.73-19.359c-0.72-22.021-1.36-44.04-1.96-66.061C102.56,334.71,102.89,329.56,101.63,324.57
			 M69.83,349.79c0.01,4.17-1.18,9.17,2,12.54c5.39,5.939,9.919,12.6,15.4,18.46c1.35,1.319,1.32,3.3,1.61,5.04
			c-0.39,0.61-1.17,1.819-1.56,2.43c-2.68,0.36-5.39,0.24-8.09,0.14c-0.16,1.07-0.33,2.15-0.51,3.23
			c6.22,4.44,12.34,9.04,18.75,13.22c0.32-11.489,0.62-22.989,1.07-34.479C89.08,363.32,79.37,356.67,69.83,349.79 M105.47,371.57
			c0.34,11.079,0.62,22.159,1.07,33.229c4.81-3.83,9.82-7.41,14.72-11.11c2.04-1.58,1.36-4.42,1.49-6.62
			c-1.83,1.021-3.92,1.08-5.96,1.221c-1.09-0.99-2.1-2.061-2.96-3.25c0.44-1.391,0.87-2.76,1.31-4.15
			c5.36-5.72,10.32-11.83,15.57-17.66c3.36-3.52,3.75-8.609,3.82-13.22C124.82,357.17,115.08,364.29,105.47,371.57 M79.5,394.49
			c4.61,8.88,10.64,16.93,17.49,24.2c-0.07-3.921,0.21-7.841,0.08-11.761C91.19,402.83,85.37,398.63,79.5,394.49 M106.53,407.07
			c0.12,3.569,0.12,7.14,0.34,10.71c4.79-6.98,9.87-13.79,13.89-21.25C115.79,399.71,111.24,403.52,106.53,407.07z"/>
	</g>
	<g id="__x0023_020204ff">
		<path id="_92065608" fill="#020204" d="M1.33-0.221h399.53l0.02,0.36c0.42,25.21,0.061,50.43,0.18,75.65
			c-0.09,68.32,0.19,136.64-0.149,204.96c-1.49,45.81-14.761,92.17-42.761,128.949c-22.67,29.97-54.31,53.021-89.779,65.4
			c-40.11,14.33-84.7,15.59-125.61,3.88c-40.95-11.63-78.04-37.16-102.57-72.06c-19.85-27.7-31.62-60.69-36.22-94.33
			c-1.72-11.051-2.16-22.221-2.71-33.371V-0.17C1.279-0.181,1.309-0.21,1.33-0.221 M9.859,8.229c0.03,87.07-0.05,174.13,0.02,261.2
			c25.46,0.22,50.93,0.04,76.4,0.1c102.13-0.05,204.27,0.11,306.4-0.09c-0.08-87.04-0.01-174.09-0.04-261.14
			c-4.13-0.18-8.27-0.17-12.4-0.17C256.779,8.2,133.319,8.01,9.859,8.229 M9.708,278.17c0.35,28.939,5.24,58.039,16.07,84.97
			c15.05,38.72,43.92,71.91,80.43,91.82c44.64,24.659,99.16,30.12,148.02,15.88c38.609-10.74,73.63-34.33,97.59-66.5
			c22.17-29.32,34.85-65.101,38.939-101.45c1.141-8.181,1.44-16.45,2.091-24.67c-12.851-0.58-25.73,0.09-38.58-0.44
			c-12.03,0.641-24.06-0.32-36.08,0.26c-10.63-0.879-21.28,0.601-31.91-0.27c-16.33,0.6-32.67-0.18-49,0.2
			c-17.69-0.171-35.38,0.12-53.08-0.091c-11,0.591-21.99-0.67-32.98,0.11c-41.67-0.069-83.3-0.05-124.96,0
			C20.749,278.08,15.118,276.68,9.708,278.17L9.708,278.17z"/>
	</g>
	<g id="__x0023_7e7e74ff">
		<polygon id="_92067120" fill="#7E7E74" points="400.858,-0.221 401.261,-0.221 401.261,0.319 400.881,0.14 		"/>
	</g>
	<g id="__x0023_fdfdfdff">
	</g>
	<g id="__x0023_1291f0ff">
		<path id="_92067264" fill="#1291F0" d="M9.86,8.229c123.46-0.22,246.919-0.03,370.38-0.1c4.13,0,8.27-0.01,12.4,0.17
			c0.029,87.05-0.041,174.1,0.039,261.14c-102.129,0.2-204.27,0.04-306.399,0.09c-25.47-0.06-50.94,0.12-76.4-0.1
			C9.811,182.359,9.891,95.3,9.86,8.229 M186.17,14.81c-26.11,3.05-51.05,14.81-70.23,32.73c-23.79,22.05-38.62,53.71-39.61,86.2
			c-1.06,4.66,0.11,9.331,0.35,13.99c-0.06,6.11,1.41,12.08,2.37,18.07c2.24,8.42,4.63,16.84,8.47,24.7
			c15.99,35.6,49.63,62.379,87.79,70.43c7.29,1.05,14.55,2.609,21.96,2.43c18.5,0.7,37.02-3.189,53.97-10.54
			c14.45-6.979,28.51-15.77,39.051-28c2.779-2.56,5.6-5.15,7.699-8.33c19.03-23.6,29.15-54.42,27.07-84.72
			c-1.9-48.1-35.12-93.01-80.21-109.63C226.32,14.729,205.931,12.6,186.17,14.81z"/>
		<path id="_92069136" fill="#1291F0" d="M206.54,44.36c15.149,0.74,30.04,5.51,42.989,13.379c0.801,0.811-0.67,1.851-0.979,2.56
			c-7.021,9.61-13.63,19.51-20.729,29.05c-1.771,2.33-4.94,3.02-6.601,5.45c-2.93,4.18-5.84,8.36-8.88,12.46
			c-1.17-0.38-2.35-0.76-3.51-1.14c-0.221-5.47-0.051-10.95-0.19-16.43c0.22-1.81-1.069-3.14-2.02-4.5
			C206.38,71.589,206.56,57.97,206.54,44.36z"/>
		<path id="_92069496" fill="#1291F0" d="M140.89,65.439c0.96-0.76,2.09-1.25,3.19-1.78c6.76,10.92,13.94,21.58,20.9,32.37
			c1.01,1.62,0.51,3.65,0.87,5.44c3.13,5.4,7.85,10.13,9.47,16.28c-8.13-0.39-14.51-7.91-22.92-6.3
			c-12.02-5.04-24.03-10.18-35.91-15.56C122.48,84.239,130.9,73.89,140.89,65.439L140.89,65.439z"/>
		<path id="_92069832" fill="#1291F0" d="M111.29,107.239c12,5.16,23.99,10.34,35.979,15.53c0.851,0.62,1.66,1.29,2.45,2.01
			c0.04,0.51,0.12,1.54,0.16,2.061c5.98,1.12,11.06,4.76,16.83,6.55c1,1.9,0.64,3.98,0.17,5.98c-2.15,0.53-4.29,1.07-6.38,1.79
			c-3.66,0.8-7.26,1.83-10.84,2.93c-1.08,1.63-2.43,3.2-4.46,3.58c-12.39,3.28-24.81,6.51-37.2,9.8c-0.16-1.87-0.419-3.74-0.89-5.56
			c-0.92-9.67-1.14-19.52,0.58-29.12C108.37,117.49,110.2,112.45,111.29,107.239z"/>
		<path id="_92070168" fill="#1291F0" d="M275.22,119.879c5.73-1.45,11.171-3.92,17.03-4.89c4.23,16.59,3.689,34.3-0.82,50.76
			c-3.77-0.38-7.1-2.26-10.54-3.68c-8.17-3.53-16.34-7.08-24.55-10.52c-2.61-0.82-3.29-4.08-5.88-4.92
			c-5.23-2.35-10.591-4.42-15.78-6.88c-0.35-1.4-0.699-2.79-1.05-4.18c5.46-2.22,11.13-3.89,16.84-5.35c1-1.33,1.729-3.14,3.45-3.69
			C260.97,124.16,268.15,122.18,275.22,119.879z"/>
		<path id="_92070504" fill="#1291F0" d="M227.369,158.64c0.871-0.84,1.74-1.68,2.621-2.52c4.25,2.22,8.83,3.72,13.16,5.81
			c2.229,1.11,4.789,0.411,7.17,0.48c12,4.9,23.72,10.5,35.81,15.18c-0.229,1.37-0.37,2.79-1.05,4.041
			c-6.51,11.85-14.811,22.99-25.75,31.11c-6.811-10.85-13.92-21.51-20.811-32.31c-1.41-2.11-0.6-4.95-2.02-7.07
			C233.42,168.479,230.22,163.669,227.369,158.64z"/>
	</g>
	<g id="__x0023_000715ff">
		<path id="_92071080" fill="#000715" d="M186.17,14.81c19.76-2.21,40.15-0.08,58.68,7.33c45.09,16.62,78.311,61.53,80.211,109.63
			c2.08,30.3-8.041,61.12-27.07,84.72c-2.1,3.18-4.92,5.77-7.7,8.33c-10.54,12.23-24.601,21.021-39.05,28
			c-16.951,7.351-35.471,11.24-53.97,10.54c-7.41,0.18-14.67-1.38-21.96-2.43c-38.16-8.051-71.8-34.83-87.79-70.43
			c-3.84-7.86-6.23-16.28-8.47-24.7c-0.96-5.99-2.43-11.96-2.37-18.07c-0.24-4.66-1.41-9.33-0.35-13.99
			c0.99-32.49,15.82-64.15,39.61-86.2C135.12,29.62,160.06,17.86,186.17,14.81 M183.74,18.649c-34.49,4.69-66.35,25.24-84.92,54.65
			c-11.12,17.13-17.57,37.22-18.96,57.55c-2.08,31.15,8.39,63.01,28.84,86.64c16.44,19.31,39.08,33.36,63.8,39.15
			c26.42,6.489,54.99,3.569,79.56-8.08c28.36-13.12,51.15-37.75,62.04-67.03c11.76-30.831,10.16-66.53-4.529-96.09
			c-11.76-24.19-31.78-44.29-56.08-55.87C232.04,18.99,207.38,15.299,183.74,18.649z"/>
	</g>
	<g id="__x0023_010101ff">
		<path id="_91868264" fill="#010101" d="M183.78,21.589c29.39-4.31,60.31,2.93,84.53,20.17c20.44,14.36,36.29,35.23,44.351,58.9
			c9.619,28.17,8.209,60.07-4.41,87.09c-9.28,20.5-24.7,38.07-43.53,50.33c-24.38,15.95-54.86,22.41-83.59,17.31
			c-25.56-4.24-49.58-17.37-67.02-36.51c-23.83-25.27-35.37-61.57-30.44-95.96c3.06-23.89,13.92-46.62,30.32-64.24
			C132.04,38.77,157.18,25.459,183.78,21.589 M185.7,23.37c-38.13,4.68-72.92,29.81-89.39,64.5c-17.11,34.4-15.37,77.42,4.62,110.25
			c17.07,29.31,47.78,50.2,81.3,55.38c20.271,3.49,41.421,1.039,60.58-6.32c24.24-9.41,45.16-27.2,58.181-49.72
			c17.26-28.82,20.619-65.3,9.529-96.96c-6.57-18.76-17.97-35.93-32.97-49C252.93,29.399,218.479,18.899,185.7,23.37z"/>
	</g>
	<g id="__x0023_000613ff">
		<path id="_91878344" fill="#000613" d="M187.85,41.59c18.38-2.55,37.429,0.459,54.22,8.33c18.239,8.6,33.76,22.89,43.74,40.43
			c15.84,27.14,17.029,62.05,3.399,90.33c-13.71,28.84-42.06,50.45-73.82,54.89c-28.21,4.64-58.14-4.45-79.35-23.54
			c-17.02-14.85-28.53-35.9-31.99-58.22c-2.53-14.7-1.03-29.87,3.16-44.12C118.09,74.089,150.77,46.1,187.85,41.59 M195.8,44.379
			c0,13.81,0.07,27.62-0.04,41.42c-1.03,1.09-2.21,2.27-2.06,3.9c-0.14,5.3,0.03,10.61-0.04,15.92c4.37-1.18,8.9-0.99,13.279-0.01
			c-0.149-5.22,0.15-10.45-0.109-15.66c-0.01-1.75-1.2-3.04-2.34-4.22c0.22-13.82,0.05-27.64,0.09-41.46
			C201.65,44.18,198.73,44.25,195.8,44.379 M154.43,56.169c0.63,2.54,2.3,4.61,3.68,6.78c4.51,6.83,8.93,13.7,13.39,20.56
			c2.11,3.14,3.8,7.23,7.84,8.25c3.84,5.13,7.03,10.72,10.89,15.84c0.73-1.17,1.82-2.31,1.6-3.81c0.04-5.36-0.18-10.71,0.11-16.06
			c1.17-1.4,2.16-3.06,1.98-4.96c0.08-12.62-0.1-25.24,0.07-37.85C180.04,44.77,166.63,49.79,154.43,56.169 M206.54,44.359
			c0.02,13.61-0.16,27.23,0.08,40.83c0.95,1.36,2.239,2.69,2.02,4.5c0.14,5.48-0.03,10.96,0.19,16.43c1.16,0.38,2.34,0.76,3.51,1.14
			c3.04-4.1,5.95-8.28,8.88-12.46c1.66-2.43,4.83-3.12,6.601-5.45c7.1-9.54,13.709-19.44,20.729-29.05
			c0.31-0.709,1.78-1.75,0.979-2.56C236.58,49.87,221.689,45.1,206.54,44.359 M145.22,62.33c7.38,11.49,14.85,22.94,22.28,34.42
			c0.01,1.69-0.33,3.55,0.72,5.03c2.68,4.33,5.55,8.55,8.28,12.86c3.45-2.83,6.99-5.65,11.31-7.02c-2.75-4.38-5.51-8.76-8.5-12.98
			c-1.05-1.59-2.84-2.34-4.66-2.58c-6.26-10.78-13.55-20.94-20.09-31.56c-0.79-0.86-1.13-2.5-2.45-2.64
			C149.56,58.919,147.41,60.699,145.22,62.33 M251.66,59c-8.2,11.26-16.141,22.7-24.301,33.98c-1.6,0.53-3.469,0.85-4.379,2.43
			c-2.91,4.19-6.011,8.23-8.771,12.52c4.14,1.71,7.659,4.541,10.78,7.7c2.97-4.05,5.83-8.18,8.72-12.29
			c1.28-1.56,0.92-3.63,0.91-5.48c8.21-11.1,16.14-22.41,24.05-33.74C256.34,62.399,254.02,60.68,251.66,59 M140.89,65.439
			c-9.99,8.45-18.41,18.8-24.4,30.45c11.88,5.38,23.89,10.52,35.91,15.56c8.41-1.61,14.79,5.91,22.92,6.3
			c-1.62-6.15-6.34-10.88-9.47-16.28c-0.36-1.79,0.14-3.82-0.87-5.44c-6.96-10.791-14.14-21.45-20.9-32.37
			C142.98,64.189,141.85,64.68,140.89,65.439 M259.199,66.54c-7.27,10.17-14.569,20.34-21.75,30.58
			c-1.299,1.39-0.76,3.36-0.869,5.06c-3.271,4.92-6.92,9.57-10.08,14.55c0.51,0.9,1.02,1.8,1.54,2.7
			c4.899-1.97,10.1-3.03,15.04-4.88c2.68-1.07,5.56,0.44,8.3-0.27c12.29-3.57,24.431-7.73,36.75-11.2
			c-5.21-13.85-14.42-25.98-25.42-35.78C261.88,66.459,260.17,65.189,259.199,66.54 M115.69,97.699c-1.29,2.59-2.42,5.271-3.36,8.01
			c12.15,5.19,24.19,10.64,36.43,15.64c1.54,2.12,3.25,4.27,5.89,5.03c4.32,1.48,8.27,4.21,12.75,5.07
			c1.28-4.12,3.15-8.03,5.35-11.74c-4.82-2.15-9.64-4.33-14.59-6.19c-1.68-0.83-3.44-0.02-5.08,0.43
			C140.75,108.239,128.19,103.01,115.69,97.699 M249.67,116.989c-1.91-0.72-3.98-1.29-6-0.64c-4.721,1.38-9.359,3.02-14.12,4.28
			c1.92,4.04,3.64,8.16,4.38,12.6c5.07-1.46,10.11-3.04,15.12-4.72c1.51-0.53,2.01-2.29,2.931-3.439
			c13.299-3.791,26.409-8.2,39.66-12.16c-0.831-2.75-1.791-5.46-2.73-8.17C275.77,108.6,262.63,112.54,249.67,116.989 M194,108.08
			c-9.53,1.92-17.87,8.79-21.77,17.67c-3.98,8.33-3.63,18.43,0.3,26.71c6.15,13.1,22.13,20.42,36.1,16.58
			c-1.149,0.84-2.13,1.86-3.12,2.86c-3.93,0.83-7.91,0.55-11.82-0.18c-0.02,5.63-0.04,11.26-0.04,16.891
			c0.81,1.28,2.24,2.399,2.15,4.06c0.03,13.41,0,26.83-0.01,40.24c2.92,0.27,5.86,0.33,8.79,0.39c0.49-0.23,1.479-0.68,1.97-0.9
			l-0.01,0.76c14.96-1.09,29.93-5.37,42.67-13.36l-0.56-0.89c0.369-0.31,1.109-0.92,1.479-1.23c0.229,0.31,0.68,0.91,0.899,1.22
			c2.311-1.72,4.641-3.41,7.031-5c-5.65-8.96-11.511-17.79-17.221-26.71c-1.609-2.48-3.061-5.1-5.109-7.26
			c-0.121-1.97,0.22-4.11-0.881-5.87c-2.75-4.62-5.84-9.04-8.57-13.68c-2.09,2.47-4.709,4.39-6.92,6.73
			c-1.279,0.51-2.56,1.01-3.84,1.521c-0.56-0.521-1.14-1-1.75-1.44c5.521-2.27,9.45-6.96,13.181-11.41
			c3.18-6.67,6.329-14.41,4.26-21.82c-0.16-7.59-4.8-14.08-10.11-19.06C213.779,108.589,203.439,106.009,194,108.08 M111.29,107.239
			c-1.09,5.21-2.92,10.25-3.6,15.55c-1.72,9.6-1.5,19.45-0.58,29.12c0.47,1.82,0.73,3.69,0.89,5.56c12.39-3.29,24.81-6.521,37.2-9.8
			c2.03-0.38,3.38-1.95,4.46-3.58c3.58-1.1,7.18-2.13,10.84-2.93c2.09-0.72,4.23-1.26,6.38-1.79c0.47-2,0.83-4.08-0.17-5.98
			c-5.77-1.79-10.85-5.43-16.83-6.55c-0.04-0.521-0.12-1.55-0.16-2.061c-0.79-0.72-1.6-1.39-2.45-2.01
			C135.28,117.58,123.29,112.399,111.29,107.239 M275.22,119.879c-7.069,2.3-14.249,4.28-21.3,6.65c-1.721,0.55-2.45,2.36-3.45,3.69
			c-5.71,1.46-11.38,3.13-16.84,5.35c0.351,1.39,0.7,2.78,1.05,4.18c5.189,2.46,10.551,4.53,15.78,6.88
			c2.59,0.84,3.271,4.1,5.88,4.92c8.21,3.44,16.38,6.99,24.55,10.52c3.44,1.42,6.771,3.3,10.54,3.68
			c4.51-16.46,5.051-34.17,0.82-50.76C286.391,115.959,280.95,118.43,275.22,119.879 M152.32,145.2c-2.04,0.459-2.89,2.61-4.49,3.73
			c-13.12,3.26-26.19,6.76-39.23,10.38c0.771,2.77,1.47,5.56,2.11,8.35c13.09-3.45,26.19-6.89,39.27-10.42
			c1.43-0.189,2.75,0.7,4.1,1.07c5.6-1.25,11.12-2.8,16.65-4.34c-1.96-4-3.69-8.29-3.28-12.85
			C162.4,142.459,157.34,143.75,152.32,145.2 M234.09,141.709c-0.37,4.46-1.74,8.79-3.72,12.79c5.249,2.08,10.33,4.6,15.67,6.47
			c1.649-0.271,3.44-1.32,5.03-0.25c12.07,5.38,24.279,10.41,36.379,15.72c0.99-2.8,2.021-5.58,2.98-8.38
			c-12.529-5.24-24.88-10.92-37.54-15.82c-0.399-0.9-0.8-1.8-1.19-2.7C246.1,146.39,240.08,144,234.09,141.709 M154.28,160.14
			c-2.27-0.47-4.58-1.18-6.85-0.28c-11.98,3.14-23.951,6.31-35.89,9.61c5.2,15.22,14.33,29.24,26.45,39.87
			c0.45,0.06,1.35,0.17,1.8,0.23c7.52-9.96,14.65-20.2,21.91-30.34c1.55-1.61,1.24-3.9,1.29-5.93c3.19-3.76,5.66-8.05,8.72-11.91
			c1.33-1.49,1.54-3.47,0.96-5.32C166.29,155.979,160.51,159.259,154.28,160.14 M227.369,158.64c2.851,5.03,6.051,9.84,9.131,14.72
			c1.42,2.12,0.609,4.96,2.02,7.07c6.891,10.8,14,21.46,20.811,32.31c10.939-8.12,19.24-19.26,25.75-31.11
			c0.68-1.25,0.82-2.67,1.05-4.04c-12.09-4.68-23.81-10.28-35.81-15.18c-2.381-0.07-4.94,0.63-7.17-0.48
			c-4.33-2.09-8.91-3.589-13.16-5.81C229.109,156.959,228.24,157.8,227.369,158.64 M164.7,173.79c0.05,1.47,0.1,2.94,0.15,4.42
			c-8.4,10.9-16.14,22.3-24.22,33.44c2.34,1.77,4.69,3.53,7.08,5.23c7.97-11,15.85-22.07,23.74-33.13c1.54-1.45,4.13-1.55,5.26-3.5
			c2.76-4.02,5.68-7.92,8.49-11.9c-4.16-1.78-7.47-4.96-10.43-8.29C171.38,164.609,168.25,169.35,164.7,173.79 M176.3,183.87
			c-1.84,0.13-3.64,0.74-4.59,2.45c-7.37,10.56-15.09,20.89-22.47,31.45c6.65,4.91,14.34,8.09,22.07,10.89
			c7.33,2.25,14.85,4.15,22.59,4.01c0.09-11.28-0.01-22.57,0.02-33.86c-0.08-3.33,0.72-7.17-2.07-9.69
			c-0.22-5.96,0.23-11.94-0.16-17.89c-1.34-1.08-3.13-1.38-4.67-2.07C183.08,173.78,179.8,178.91,176.3,183.87z"/>
	</g>
	<g id="__x0023_1490eeff">
		<path id="_91880600" fill="#1490EE" d="M154.43,56.169c12.2-6.38,25.61-11.4,39.56-11.25c-0.17,12.61,0.01,25.23-0.07,37.85
			c0.18,1.9-0.81,3.56-1.98,4.96c-0.29,5.35-0.07,10.7-0.11,16.06c0.22,1.5-0.87,2.64-1.6,3.81c-3.86-5.12-7.05-10.71-10.89-15.84
			c-4.04-1.02-5.73-5.11-7.84-8.25c-4.46-6.86-8.88-13.73-13.39-20.56C156.73,60.78,155.06,58.709,154.43,56.169z"/>
		<path id="_91880960" fill="#1490EE" d="M176.3,183.87c3.5-4.96,6.78-10.09,10.72-14.71c1.54,0.69,3.33,0.99,4.67,2.07
			c0.39,5.95-0.06,11.93,0.16,17.89c2.79,2.52,1.99,6.36,2.07,9.69c-0.03,11.29,0.07,22.58-0.02,33.86
			c-7.74,0.14-15.26-1.76-22.59-4.01c-7.73-2.8-15.419-5.98-22.07-10.89c7.38-10.56,15.1-20.89,22.47-31.45
			C172.66,184.609,174.46,184,176.3,183.87L176.3,183.87z"/>
	</g>
	<g id="__x0023_1291efff">
		<path id="_97042264" fill="#1291EF" d="M259.199,66.54c0.971-1.35,2.681-0.08,3.511,0.76c11,9.8,20.21,21.93,25.42,35.78
			c-12.319,3.47-24.46,7.63-36.75,11.2c-2.74,0.71-5.62-0.8-8.3,0.27c-4.94,1.85-10.141,2.91-15.04,4.88
			c-0.521-0.9-1.03-1.8-1.54-2.7c3.16-4.98,6.81-9.63,10.08-14.55c0.109-1.7-0.43-3.67,0.869-5.06
			C244.63,86.88,251.93,76.709,259.199,66.54L259.199,66.54z"/>
		<path id="_97042624" fill="#1291EF" d="M154.28,160.14c6.23-0.88,12.01-4.16,18.39-4.07c0.58,1.85,0.37,3.83-0.96,5.32
			c-3.06,3.86-5.53,8.15-8.72,11.91c-0.05,2.03,0.26,4.32-1.29,5.93c-7.26,10.14-14.39,20.38-21.91,30.34
			c-0.45-0.06-1.35-0.17-1.8-0.23c-12.12-10.63-21.25-24.65-26.45-39.87c11.939-3.3,23.91-6.47,35.89-9.61
			C149.7,158.959,152.01,159.669,154.28,160.14z"/>
		<path id="_97042960" fill="#1291EF" d="M208.7,171.39c1.819-0.53,3.64-1.06,5.47-1.57c3.061,4.61,6.04,9.28,8.949,13.99
			c1.98,0.92,4.221,1.73,5.341,3.78c6.8,10.39,13.56,20.81,20.19,31.32l0.56,0.89c-12.74,7.99-27.71,12.27-42.67,13.36l0.01-0.76
			c-0.08-10.88,0.01-21.76-0.06-32.64c0.039-3.729-0.76-7.91,2.08-10.89C208.729,183.04,208.74,177.209,208.7,171.39L208.7,171.39z"
			/>
	</g>
	<g id="__x0023_020202ff">
		<path id="_97045264" fill="#020202" d="M182.229,115.64c6-5.12,14.2-7.28,21.98-6.46c9.92,1.02,18.71,7.73,23.25,16.47
			c3.56,7.46,4.149,16.5,0.771,24.14c-3.511,9.03-11.691,15.75-21,18.13c-8.96,1.64-18.69-0.44-25.601-6.53
			c-6.11-5.06-9.88-12.67-10.48-20.57C170.41,131.33,174.69,121.52,182.229,115.64 M192.62,112.279c-3.72,1.2-7.2,3.14-10.18,5.67
			c-8.63,7.41-11.56,20.41-7.35,30.91c3.43,9.26,12.43,16.17,22.23,17.21c10.59,1.62,21.69-3.93,27.14-13.09
			c7.06-11.4,4.239-27.95-6.591-36.02C210.88,111.379,201.14,109.709,192.62,112.279z"/>
		<path id="_97045624" fill="#020202" d="M201.6,304.561c0.75,0.01,1.5,0.02,2.25,0.02c0.2,13.34,0.83,26.67,1.08,40.01
			c8.33-5.989,16.71-11.93,25.23-17.66c0.369,0.28,1.1,0.83,1.47,1.101c-8.91,6.13-17.67,12.49-26.59,18.6
			c0.149,12.08,0.76,24.15,0.909,36.23c9.15-6.76,18.33-13.49,27.41-20.351l0.5,1.94c-9.319,6.819-18.629,13.66-27.859,20.62
			c0.63,11.06,0.57,22.14,1.08,33.2c3.39-2.54,6.779-5.09,10.18-7.63l0.45,1.819c-3.53,2.74-7.181,5.33-10.71,8.09
			c0.06,0.78,0.17,2.34,0.22,3.11c-0.5,0.33-1.5,0.97-1.99,1.3c-0.529-23.729-1.249-47.46-2.02-71.18
			c-0.3-5.44-0.41-10.89-0.261-16.34c-1.35,7.689-0.56,15.529-1.17,23.279C201.1,384.11,200.11,407.5,199.5,430.9l-1.98,0.01
			c0.021-3.43,0.19-6.86,0.34-10.28c-3.62-2.58-7.24-5.16-10.85-7.74c0.42-0.229,1.28-0.699,1.7-0.939
			c3.12,2.16,6.11,4.49,9.29,6.56c0.041-11.58,0.99-23.14,1.09-34.72c-9.56-6.83-19.08-13.7-28.7-20.43c0-0.551,0.01-1.65,0.01-2.2
			l0.42,0.28c9.56,6.58,18.78,13.68,28.47,20.069c0.36-11.659,0.61-23.31,0.96-34.97c-8.8-5.83-17.7-11.5-26.52-17.29l0.33-1.979
			c8.75,5.81,17.62,11.449,26.36,17.279C200.67,331.21,201.55,317.891,201.6,304.561L201.6,304.561z"/>
	</g>
	<g id="__x0023_000c1cff">
		<path id="_97046560" fill="#000C1C" d="M197.81,126.629c7.421-2.1,15.79,4.39,15.341,12.15c0.479,8.56-9.82,15.36-17.46,11.29
			c-4.61-1.88-6.96-6.67-7.72-11.34C188.61,133.25,192.24,127.93,197.81,126.629 M194.06,130.529c-5.98,4.48-4.53,15.32,2.58,17.91
			c2.3,0.84,6.5,2.13,7.709-0.82c4.86,0.12,7.49-5.58,6.67-9.86C211.37,129.45,199.91,125.16,194.06,130.529z"/>
		<path id="_97046920" fill="#000C1C" d="M208.63,169.04c1.739-0.53,3.479-1.09,5.14-1.85c0.61,0.44,1.19,0.92,1.75,1.44
			c2.86,4.16,5.291,8.61,8.26,12.7c0.98,1.51,2.83,1.9,4.361,2.63c7.489,11.13,14.549,22.55,21.989,33.72
			c-0.37,0.31-1.11,0.92-1.479,1.23c-6.631-10.51-13.391-20.93-20.19-31.32c-1.12-2.05-3.36-2.86-5.341-3.78
			c-2.909-4.71-5.889-9.38-8.949-13.99c-1.83,0.51-3.65,1.04-5.471,1.57c0.041,5.82,0.03,11.65-0.129,17.48
			c-2.84,2.98-2.041,7.16-2.08,10.89c0.069,10.88-0.021,21.76,0.06,32.64c-0.49,0.22-1.479,0.67-1.97,0.9
			c-0.01-13.96-0.02-27.92-0.01-41.88c0.92-1.42,2.33-2.75,2.289-4.58c0.131-4.93,0.041-9.87,0-14.8c-0.34-0.03-1.01-0.1-1.35-0.14
			C206.5,170.899,207.48,169.879,208.63,169.04z"/>
	</g>
	<g id="__x0023_1690edff">
		<path id="_97047592" fill="#1690ED" d="M194.06,130.529c5.85-5.37,17.31-1.08,16.959,7.23c0.82,4.28-1.81,9.979-6.67,9.86
			c-1.21,2.95-5.41,1.66-7.709,0.82C189.53,145.85,188.08,135.01,194.06,130.529L194.06,130.529z"/>
	</g>
	<g id="__x0023_157700ff">
		<path id="_97051552" fill="#157700" d="M9.71,278.17c5.41-1.49,11.04-0.09,16.55-0.181c41.66-0.05,83.29-0.069,124.96,0
			c10.99-0.78,21.98,0.48,32.98-0.11c17.701,0.211,35.39-0.08,53.08,0.091c16.33-0.38,32.67,0.399,49-0.2
			c10.631,0.87,21.281-0.609,31.91,0.27c12.021-0.58,24.051,0.381,36.08-0.26c12.85,0.53,25.73-0.14,38.58,0.44
			c-0.649,8.22-0.949,16.489-2.09,24.67c-4.09,36.35-16.77,72.13-38.939,101.45c-23.961,32.17-58.98,55.76-97.59,66.5
			c-48.861,14.24-103.38,8.779-148.021-15.88c-36.51-19.91-65.38-53.101-80.43-91.82C14.95,336.209,10.06,307.109,9.71,278.17
			 M92.44,288.719c-4.29,1.711-7.01,6.041-7.77,10.471c-0.11,3.551,4.04,5.43,4.03,8.89c-4.32,1.101-7.93-2.01-12.07-1.85
			c-7.64,2.58-9.9,12.65-7.18,19.521c3.43,5.579,7.89,10.479,11.3,16.1c-3.69-0.03-8.69-2.48-11.43,1.11
			c-3.46,3.729-3.11,9.149-3.23,13.869c0.01,6.16,5.42,9.82,8.58,14.45c3.19,4.59,7.61,8.29,10.13,13.32
			c-2.36,0.08-4.72,0.26-7.06,0.53c-2.23,2.77-3.07,6.55-1.85,9.939c4.74,9.45,11,18.11,18.3,25.74c2.04,1.99,1.3,5.05,1.54,7.61
			c3.86,0.21,7.73,0.199,11.6,0.149c0.32-2.91,0.18-6.12,2.17-8.52c5.31-7.51,10.82-14.96,14.9-23.24
			c1.91-3.65,2.47-8.23,0.97-12.09c-2.15-1.36-5.13-0.43-7.58-0.71c3.59-5.271,8.26-9.63,12.17-14.64
			c2.36-2.851,5.55-5.221,6.7-8.891c1.66-4.33,1.47-9.06,1.14-13.6c-0.39-2.61-1.73-5.51-4.35-6.48
			c-3.47-0.84-6.75,1.181-10.15,1.48c3.02-6.08,9.39-9.82,11.6-16.42c2.4-4.421,1.58-9.73-0.25-14.181
			c-2.49-3.09-6.25-5.92-10.45-4.89c-3.29-0.101-6.86,3.95-9.58,0.57c1.99-3.83,5.36-7.561,4.41-12.22
			c-0.07-3.521-3.77-5.281-6.64-6.271C105.85,286.729,98.98,287.369,92.44,288.719 M297.279,288.72
			c-5.77,0.81-10.779,6.28-10.33,12.19c0.91,2.75,3.451,4.6,4.32,7.399c-4.189,0.86-8.229-0.58-12.08-2.08
			c-7.42,2.521-10.049,11.9-8.209,18.87c3.64,5.94,8.64,11.08,11.569,17.45c-3.399-0.21-7.2-1.98-10.3,0.16
			c-2.54,1.489-2.891,4.779-3.57,7.37c-0.66,5.419-0.88,11.819,3.37,15.93c5,6.56,11.021,12.41,15.271,19.51
			c-2.471,0.05-5.461-1.13-7.51,0.82c-3.601,2.939-2.631,8.64-0.271,12.09c4.56,9.09,11.19,16.92,18.1,24.31
			c0.021,1.971,0.061,3.95,0.091,5.931c3.939,0.38,7.899,1.02,11.869,0.609c0.23-2.63-0.209-5.56,1.391-7.84
			c5.89-8.89,13.23-17.1,16.859-27.28c1.37-3.34,0.48-6.949-1.08-10.04c-2.369,0.2-4.739,0.431-7.1,0.7
			c2.77-4.37,6.66-7.84,9.82-11.899c4.13-4.9,9.81-9.37,10.41-16.24c0.27-4.99,1.189-10.971-2.5-15
			c-3.48-3.24-7.791,0.359-11.541,1.13c0.121-3.02,2.48-5.09,4.49-7.04c4.42-4.2,7.69-9.87,8.211-16.03
			c0.26-5.05-2.23-10.67-7.23-12.51c-4.16-1.92-8.46,0.75-12.381,2.07c-0.709-0.83-1.409-1.66-2.109-2.48
			c2.86-3.829,6.27-8.68,3.939-13.63c-2.739-3.99-8.01-4.74-12.459-5.27C304.62,287.1,300.949,288.39,297.279,288.72 M195.25,301.81
			c-4.97,0.84-8.9,5.101-9.79,9.99c-0.65,3.87,3.3,6.149,3.87,9.71c-3.91,0.51-7.56-0.92-11.19-2.12
			c-5.51,0.74-8.26,6.439-9.1,11.36c-0.34,3.22-0.4,6.85,1.65,9.56c3.56,4.99,7.29,9.87,10.53,15.09c-3.82-0.09-8.3-1.99-11.58,0.8
			c-3.7,5.601-3.51,12.961-1.97,19.24c2.85,3.99,6.53,7.4,9.35,11.46c2.66,3.98,6.66,7,8.54,11.5c-2.53,0.271-5.53-0.71-7.7,1
			c-1.38,1.62-2.02,3.83-2.18,5.94c1.11,5.96,4.98,10.859,8.26,15.779c3.41,5.131,7.61,9.631,11.78,14.131
			c1.73,1.84-0.69,6.329,2.41,6.76c-0.27,0.5-0.81,1.51-1.08,2.01c4.11-0.05,9.47,1.68,12.71-1.45l-1.529-0.04
			c0.25-2.84-0.33-6.01,1.43-8.47c5.34-7.63,11.33-14.939,15.3-23.42c1.74-4.17,3.87-10-0.181-13.521
			c-2.229,0.21-4.449,0.381-6.67,0.561c4.61-6.67,10.601-12.21,15.771-18.43c4.71-4.391,4.96-11.45,4.69-17.46
			c0-3.7-2.01-7.41-5.67-8.591c-2.95,0.62-5.721,1.931-8.711,2.44c0.84-3.93,4.49-6.11,6.761-9.15
			c4.11-5.149,7.68-12.029,5.239-18.699c-1.209-5.591-7.26-9.591-12.84-7.65c-2.59,0.38-5.99,3.57-7.879,0.439
			c1.229-4.359,5.709-7.829,4.35-12.76c-0.91-4.579-6.34-5.51-10.141-6.489C204.91,299.879,200.03,301.209,195.25,301.81
			L195.25,301.81z"/>
	</g>
	<g id="__x0023_000a00ff">
		<path id="_97052224" fill="#000A00" d="M297.281,288.721c3.67-0.33,7.34-1.621,11.039-0.801c4.45,0.53,9.721,1.28,12.461,5.27
			c2.33,4.951-1.08,9.801-3.94,13.631c0.7,0.819,1.399,1.649,2.11,2.479c3.92-1.319,8.219-3.989,12.379-2.07
			c5,1.841,7.49,7.461,7.23,12.511c-0.52,6.16-3.789,11.83-8.21,16.029c-2.01,1.95-4.37,4.021-4.489,7.041
			c3.75-0.771,8.06-4.371,11.539-1.131c3.69,4.03,2.771,10.011,2.5,15c-0.6,6.87-6.279,11.341-10.41,16.24
			c-3.16,4.061-7.05,7.53-9.82,11.9c2.361-0.271,4.73-0.5,7.101-0.7c1.56,3.09,2.45,6.7,1.08,10.04
			c-3.63,10.18-10.97,18.39-16.86,27.28c-1.6,2.279-1.16,5.21-1.39,7.84c-3.97,0.41-7.931-0.23-11.87-0.61
			c-0.029-1.979-0.07-3.96-0.09-5.93c-6.91-7.39-13.54-15.22-18.1-24.311c-2.36-3.449-3.33-9.149,0.27-12.09
			c2.051-1.949,5.04-0.77,7.51-0.82c-4.25-7.1-10.27-12.949-15.27-19.51c-4.25-4.109-4.03-10.51-3.37-15.93
			c0.681-2.59,1.03-5.88,3.569-7.37c3.101-2.14,6.9-0.37,10.301-0.16c-2.93-6.37-7.93-11.51-11.57-17.45
			c-1.84-6.97,0.79-16.35,8.211-18.869c3.85,1.499,7.889,2.939,12.079,2.079c-0.87-2.8-3.409-4.649-4.319-7.399
			C286.5,295,291.511,289.53,297.281,288.721 M293,294.53c-1.289,1.409-1.939,3.26-2.76,4.96c1.28,2.18,2.75,4.24,4.36,6.189
			c0.09,0.841,0.271,2.521,0.36,3.36c-1.37,1.3-2.631,3.07-4.711,3.16c-3.829,0.859-7.279-1.29-10.899-2.061
			c-1.979,0.471-2.979,2.37-3.87,4.021c8.711,5.93,17.73,11.39,26.43,17.34c0.721-11.56,0.76-23.149,1.23-34.73
			c0.109-1.799,0.33-3.639-0.29-5.369C299.511,292.141,295.75,292.221,293,294.53 M305.471,291.37c0.09,13.37,0.64,26.74,1.02,40.1
			c8.951-6.27,18-12.409,26.791-18.899c-2.61-3.061-6.99-2.86-10.221-0.94c-2.561,1.59-5.66,0.96-8.15-0.43
			c-0.93-2.23-1.97-4.899-0.459-7.14c1.809-3.17,5.039-6.74,2.639-10.49C313.301,292.47,309.461,291.38,305.471,291.37
			 M306.631,333.51c0.1,12.141,0.779,24.26,1.01,36.4c9.4-7.25,18.98-14.28,28.6-21.24c-0.1-1.689-0.529-3.32-1.1-4.9
			c-3.391,0.581-6.449,2.4-9.939,2.521c-0.621-0.28-1.881-0.85-2.5-1.13c-2.341-4.46,1.709-8.4,4.619-11.33
			c5.12-4.82,9.291-11.91,7.01-19.14C324.631,320.19,316.061,327.53,306.631,333.51 M274.221,316.13
			c-0.109,3.07-0.971,6.57,0.96,9.28c3,4.13,6,8.25,9.05,12.34c1.26,1.77,3.131,3.55,2.74,5.94c-2.38,4.84-8.44,1.45-12.45,1.18
			c-0.8,1.17-1.46,2.43-2.01,3.74c9.579,6.52,18.93,13.38,28.351,20.12c0.01-11.761,0.959-23.48,0.999-35.24
			c-6.53-4.21-13-8.53-19.569-12.69C279.641,319.17,277.271,316.98,274.221,316.13 M303.101,353.78
			c-0.53,21.739-1.36,43.47-2.13,65.2c0.279,2.13,0.9,4.239,0.52,6.42c1.631,0.01,3.28,0.01,4.92,0c0.101-2.91,0.721-5.8,0.61-8.721
			c-0.43-17.63-1.101-35.249-1.54-52.88c-0.26-14.09-1.279-28.199-0.52-42.29C303.33,332.19,303.671,343.01,303.101,353.78
			 M272.051,350.25c-0.12,4.2-1.301,9.25,1.979,12.63c5.23,5.82,9.681,12.3,15.021,18.04c1.779,1.5,1.49,3.94,1.77,6.021
			c-2.24,3.01-6.05,2.22-9.27,2c-0.23,0.75-0.7,2.239-0.94,2.979c6.11,4.84,12.74,8.96,18.931,13.69
			c0.209-11.65,0.89-23.29,1.01-34.95C290.99,363.94,281.531,357.08,272.051,350.25 M307.75,372c0.041,11.1,0.561,22.19,0.91,33.28
			c5.061-3.79,9.99-7.771,15.211-11.32c1.01-1.979,1.049-4.21,1.06-6.37c-1.011,0.391-2.03,0.8-3.03,1.221
			c-1.75-0.421-3.88-0.271-5.07-1.881c-1.189-2.12-0.209-4.569,1.24-6.27c4.881-5.82,10.141-11.32,15-17.15
			c3.051-3.489,3.71-8.399,3.25-12.859C326.931,357.94,317.121,364.68,307.75,372 M281.811,394.86
			c4.18,9.029,10.42,16.93,17.2,24.14c0.19-3.72,0.45-7.43,0.521-11.14C293.701,403.41,287.57,399.39,281.811,394.86
			 M322.351,397.01c-4.399,3.561-9.021,6.84-13.47,10.341c-0.45,3.529,0,7.119,0.1,10.67
			C313.761,411.27,319.431,404.84,322.351,397.01z"/>
	</g>
	<g id="__x0023_010c00ff">
		<path id="_97053568" fill="#010C00" d="M195.25,301.811c4.78-0.6,9.66-1.93,14.43-0.48c3.8,0.98,9.23,1.91,10.141,6.49
			c1.359,4.93-3.121,8.4-4.351,12.76c1.89,3.13,5.29-0.06,7.88-0.439c5.58-1.94,11.631,2.06,12.84,7.649
			c2.44,6.67-1.129,13.551-5.24,18.7c-2.27,3.04-5.92,5.22-6.76,9.15c2.99-0.511,5.76-1.82,8.711-2.44
			c3.66,1.18,5.67,4.89,5.67,8.59c0.27,6.011,0.02,13.07-4.69,17.46c-5.17,6.221-11.16,11.761-15.771,18.431
			c2.221-0.181,4.44-0.351,6.67-0.561c4.051,3.521,1.92,9.351,0.181,13.521c-3.97,8.479-9.96,15.79-15.3,23.42
			c-1.76,2.46-1.18,5.63-1.43,8.47c-3.371-0.09-6.75-0.09-10.101-0.52c-3.1-0.431-0.68-4.92-2.41-6.76
			c-4.17-4.5-8.37-9-11.78-14.131c-3.28-4.92-7.15-9.819-8.26-15.779c0.16-2.11,0.8-4.32,2.18-5.94c2.17-1.71,5.17-0.73,7.7-1
			c-1.88-4.5-5.88-7.52-8.54-11.5c-2.82-4.06-6.5-7.47-9.35-11.46c-1.54-6.28-1.73-13.641,1.97-19.24c3.28-2.79,7.76-0.89,11.58-0.8
			c-3.24-5.22-6.97-10.1-10.53-15.09c-2.05-2.71-1.99-6.34-1.65-9.561c0.84-4.92,3.59-10.619,9.1-11.359
			c3.63,1.2,7.28,2.63,11.19,2.12c-0.57-3.561-4.521-5.841-3.87-9.711C186.35,306.91,190.28,302.65,195.25,301.811 M189.99,309.48
			c-3.1,4.21,2.54,7.33,3.73,11.08c-0.27,0.7-0.81,2.09-1.08,2.78c-4.581,3.569-10.47,1.659-15.22-0.421
			c-1.4,1.221-2.68,2.57-3.81,4.041l0.45,0.31l-0.33,1.979l-0.7-0.489c-0.44,2.79-1.16,5.8-0.09,8.54
			c3.93,6.35,9.27,11.819,12.74,18.449c-0.27,0.57-0.81,1.71-1.08,2.28c-0.54,0.34-1.6,1.021-2.13,1.36
			c-3.18-0.181-6.29-0.851-9.38-1.57c-0.78,1.19-1.53,2.39-2.27,3.62l-0.42-0.28c0,0.55-0.01,1.65-0.01,2.2
			c-0.121,4.101-1,8.92,1.95,12.3c5.59,6.55,10.71,13.48,16.5,19.851c0.03,1.779,0.96,3.949-0.6,5.359
			c-2.25,2.11-5.61,1.021-8.36,1.07c-0.14,0.71-0.41,2.13-0.55,2.84l0.29,0.7c3.06,2.12,6.05,4.33,9.09,6.47
			c-0.42,0.24-1.28,0.71-1.7,0.94c-2.24-1.58-4.44-3.2-6.73-4.69c4.35,8.9,10.53,16.71,17.23,23.95l0.01-1.24l1.98-0.01
			c0.08,2.5,0.6,4.98,0.53,7.51c1.54,0.04,3.09,0.09,4.65,0.13c0.3-4.54,1.311-9.02,0.551-13.579
			c0.489-0.33,1.489-0.971,1.989-1.301c0.2,2.49,0.21,4.98,0.17,7.48c5.08-6.79,9.979-13.74,14-21.221
			c-1.25,0.811-2.489,1.641-3.68,2.541l-0.45-1.82c1.881-1.44,3.74-2.891,5.66-4.25c0.279-1.82,0.471-3.66,0.63-5.48
			c-3.01,0.931-7.14,1.471-8.84-1.909c-0.19-2.041,0.7-4.07,2.021-5.591c5.039-5.66,9.969-11.42,14.999-17.1
			c3.021-3.44,3.3-8.3,3.32-12.66c-0.3,0.2-0.89,0.6-1.19,0.8l-0.5-1.939c0.601-0.511,1.18-1.021,1.761-1.551
			c-0.61-1.419-1.22-2.83-1.83-4.229c-4.04,0.83-8.97,4.45-12.591,0.85c-1.26-3.34,1.511-5.979,2.42-8.95
			c2.011-0.27,3.001-2.249,4.341-3.529c4.271-4.65,7.569-11.341,5.09-17.66c-0.229,0.15-0.69,0.45-0.92,0.59
			c-0.37-0.27-1.101-0.82-1.47-1.1l1.1-0.7c-0.35-0.771-0.699-1.55-1.04-2.311c-3.01-1.08-6.18-0.63-8.95,0.87
			c-3.05,1.75-7.93,0.91-8.899-2.869c-2.15-5.25,5.85-8.9,3.659-14.091c-3.14-2.96-8.049-3.3-12.18-3.25c-0.75,0-1.5-0.01-2.25-0.02
			C197.5,305.28,192.07,305.061,189.99,309.48L189.99,309.48z"/>
	</g>
	<g id="__x0023_316529ff">
		<path id="_97062280" fill="#316529" d="M198.13,442.009c3.35,0.431,6.729,0.431,10.101,0.521l1.529,0.04
			c-3.24,3.13-8.6,1.4-12.71,1.45C197.32,443.52,197.86,442.509,198.13,442.009z"/>
	</g>
</g>
</svg>
