<?xml version="1.0" encoding="UTF-8" standalone="no"?>
<!-- Created with Inkscape (http://www.inkscape.org/) -->

<svg
   xmlns:dc="http://purl.org/dc/elements/1.1/"
   xmlns:cc="http://creativecommons.org/ns#"
   xmlns:rdf="http://www.w3.org/1999/02/22-rdf-syntax-ns#"
   xmlns:svg="http://www.w3.org/2000/svg"
   xmlns="http://www.w3.org/2000/svg"
   xmlns:xlink="http://www.w3.org/1999/xlink"
   xmlns:sodipodi="http://sodipodi.sourceforge.net/DTD/sodipodi-0.dtd"
   xmlns:inkscape="http://www.inkscape.org/namespaces/inkscape"
   width="436.6467"
   height="526.89685"
   id="svg2"
   version="1.1"
   inkscape:version="0.48.5 r10040"
   sodipodi:docname="Kretinga.svg">
  <defs
     id="defs4" />
  <sodipodi:namedview
     id="base"
     pagecolor="#f6f3f1"
     bordercolor="#666666"
     borderopacity="1.0"
     inkscape:pageopacity="0"
     inkscape:pageshadow="2"
     inkscape:zoom="1.4142136"
     inkscape:cx="215.98213"
     inkscape:cy="272.75607"
     inkscape:document-units="px"
     inkscape:current-layer="layer1"
     showgrid="false"
     showborder="true"
     inkscape:window-width="1920"
     inkscape:window-height="1017"
     inkscape:window-x="-8"
     inkscape:window-y="-8"
     inkscape:window-maximized="1"
     inkscape:object-nodes="true"
     inkscape:snap-smooth-nodes="true"
     inkscape:snap-global="false"
     showguides="true"
     inkscape:guide-bbox="true"
     fit-margin-top="0"
     fit-margin-left="0"
     fit-margin-right="0"
     fit-margin-bottom="0"
     inkscape:showpageshadow="false" />
  <metadata
     id="metadata7">
    <rdf:RDF>
      <cc:Work
         rdf:about="">
        <dc:format>image/svg+xml</dc:format>
        <dc:type
           rdf:resource="http://purl.org/dc/dcmitype/StillImage" />
        <dc:title />
      </cc:Work>
    </rdf:RDF>
  </metadata>
  <g
     inkscape:label="Layer 1"
     inkscape:groupmode="layer"
     id="layer1"
     transform="translate(-74.502833,-222.38569)">
    <path
       sodipodi:nodetypes="cszscc"
       inkscape:connector-curvature="0"
       id="path3767"
       d="m 508.64952,224.88569 c 0,0 0,211.66496 0,310.34167 0,98.67674 -75.38172,211.55516 -215.82334,211.55516 -140.44163,0 -215.823347,-112.87842 -215.823347,-211.55516 0,-98.67671 0,-310.34167 0,-310.34167 z"
       style="color:#000000;fill:#d9dadc;stroke:#000000;stroke-width:5;stroke-linecap:butt;stroke-linejoin:miter;stroke-miterlimit:4;stroke-opacity:1;stroke-dasharray:none;stroke-dashoffset:0;marker:none;visibility:visible;display:inline;overflow:visible;enable-background:accumulate;fill-opacity:1" />
    <g
       id="g3995">
      <g
         id="g3778">
        <path
           style="color:#000000;fill:#dcb164;stroke:#000000;stroke-width:1.75;stroke-linecap:butt;stroke-linejoin:miter;stroke-miterlimit:4;stroke-opacity:1;stroke-dasharray:none;stroke-dashoffset:0;marker:none;visibility:visible;display:inline;overflow:visible;enable-background:accumulate;fill-opacity:1"
           d="m 312.49801,306.79024 c 1.25221,-1.7327 1.99571,-6.18667 1.99571,-6.18667 L 331.2062,283.9918 c -1.67741,-1.40589 -3.05571,0.18791 -4.52579,0.002 -1.47008,-0.18554 -3.25911,-0.24272 -4.16813,3.40331 0,0 -2.87,-3.13582 -4.8473,-0.51893 -1.97729,2.61689 0.91267,5.56628 0.91267,5.56628 -3.73429,2.96907 -7.71913,3.68491 -9.36055,-2.09596 0,0 -3.98804,1.37154 -7.36304,-0.50346 -3.375,-1.875 -2.25,-5.4375 -2.25,-5.4375 0,0 4.42233,3.10984 5.73483,-1.01516 1.3125,-4.125 -1.42233,-4.69693 -3.64958,-4.25759 0.36372,-1.4279 0.9953,-2.52845 0.0336,-4.71865 -0.67796,-1.54397 -2.65166,-1.44753 -3.54446,-2.91682 -0.89281,1.46929 -2.86651,1.37285 -3.54447,2.91682 -0.9617,2.1902 -0.33012,3.29075 0.0336,4.71865 -2.22725,-0.43934 -4.96208,0.13259 -3.64958,4.25759 1.3125,4.125 5.73483,1.01516 5.73483,1.01516 0,0 1.125,3.5625 -2.25,5.4375 -3.375,1.875 -7.3125,0.375 -7.3125,0.375 0,0 -1.03791,2.86742 -4.97541,3.05492 -3.9375,0.1875 -6.46209,-3.05492 -6.46209,-3.05492 0,0 3.1875,-2.625 1.5,-5.4375 -1.6875,-2.8125 -4.875,0 -4.875,0 -0.51574,-3.72208 -2.30069,-3.85564 -3.78217,-3.82766 -1.48148,0.028 -2.68229,-1.70348 -4.49982,-0.48414 l 14.84924,18.29639 c 0,0 0.26516,4.50781 1.32582,6.36396 z"
           id="path3774"
           inkscape:connector-curvature="0"
           sodipodi:nodetypes="cccccsccscscscscscscscsczcccc" />
        <path
           sodipodi:type="arc"
           style="color:#000000;fill:#dcb164;stroke:#000000;stroke-width:2.06779671000000010;stroke-linecap:square;stroke-linejoin:miter;stroke-miterlimit:4;stroke-opacity:1;stroke-dasharray:none;stroke-dashoffset:0;marker:none;visibility:visible;display:inline;overflow:visible;enable-background:accumulate;fill-opacity:1"
           id="path2992"
           sodipodi:cx="212.37511"
           sodipodi:cy="63.984974"
           sodipodi:rx="4.043767"
           sodipodi:ry="4.043767"
           d="m 216.41887,63.984974 a 4.043767,4.043767 0 1 1 -8.08753,0 4.043767,4.043767 0 1 1 8.08753,0 z"
           transform="matrix(0.96721311,0,0,0.96721311,79.874961,224.21839)" />
        <path
           transform="matrix(0.59936398,0,0,0.59936398,160.43446,259.94271)"
           d="m 216.41887,63.984974 a 4.043767,4.043767 0 1 1 -8.08753,0 4.043767,4.043767 0 1 1 8.08753,0 z"
           sodipodi:ry="4.043767"
           sodipodi:rx="4.043767"
           sodipodi:cy="63.984974"
           sodipodi:cx="212.37511"
           id="path2994"
           style="color:#000000;fill:#d9dadc;stroke:#000000;stroke-width:2.50265290000000020;stroke-linecap:square;stroke-linejoin:miter;stroke-miterlimit:4;stroke-opacity:1;stroke-dasharray:none;stroke-dashoffset:0;marker:none;visibility:visible;display:inline;overflow:visible;enable-background:accumulate;fill-opacity:1"
           sodipodi:type="arc" />
        <use
           x="0"
           y="0"
           xlink:href="#path2992"
           id="use3764"
           transform="matrix(-1,0,0,1,596.3569,0)"
           width="436.6467"
           height="526.89685" />
        <use
           x="0"
           y="0"
           xlink:href="#path2994"
           id="use3766"
           transform="matrix(-0.99431833,-0.10644745,-0.10644745,0.99431833,623.65694,33.226931)"
           width="436.6467"
           height="526.89685" />
        <path
           inkscape:connector-curvature="0"
           id="path3770"
           d="m 314.10171,300.19996 c 0,0 -5.66394,-6.53609 -17.03031,-7.10929 -11.36638,-0.5732 -17.69357,5.31687 -17.69357,5.31687"
           style="color:#000000;fill:none;stroke:#000000;stroke-width:1;stroke-linecap:butt;stroke-linejoin:miter;stroke-miterlimit:4;stroke-opacity:1;stroke-dasharray:none;stroke-dashoffset:0;marker:none;visibility:visible;display:inline;overflow:visible;enable-background:accumulate"
           sodipodi:nodetypes="czc" />
        <use
           height="526.89685"
           width="436.6467"
           transform="matrix(-0.99431833,-0.10644745,-0.10644745,0.99431833,614.61171,30.976931)"
           id="use3776"
           xlink:href="#path2994"
           y="0"
           x="0" />
      </g>
      <g
         id="g3914">
        <path
           style="color:#000000;fill:#00418f;stroke:#000000;stroke-width:2;stroke-linecap:butt;stroke-linejoin:miter;stroke-miterlimit:4;stroke-opacity:1;stroke-dasharray:none;stroke-dashoffset:0;marker:none;visibility:visible;display:inline;overflow:visible;enable-background:accumulate;fill-opacity:1"
           d="m 144.33817,430.9071 c -7.15945,-5.3033 -6.89429,-15.1144 -4.5078,-24.13002 2.38648,-9.01561 8.48528,-26.25133 8.48528,-26.25133 -13.78858,-26.51651 7.42462,-47.72971 7.42462,-47.72971 l 10.07627,-45.07806 c -18.56155,-10.07627 -22.27386,-31.81981 -22.27386,-31.81981 0,0 -7.95495,-18.03122 -14.31891,-24.92551 -6.36397,-6.89429 -13.78859,-26.16295 -13.78859,-26.16295 0,0 1.59099,-32.88047 23.86486,-66.82159 22.27386,-33.94113 55.59627,-45.873556 55.59627,-45.873556 2.36406,-1.773048 8.36369,-13.365936 26.78167,-13.258252 18.56123,0.108521 23.59969,19.091883 23.59969,19.091883 0,0 26.94465,4.359765 50.46974,44.459335 23.33453,39.77476 31.81981,89.09546 31.81981,97.58074 0,8.48528 -24.10968,25.75915 -29.16816,44.54773 -5.05846,18.78858 10.07628,35.00179 -7.42462,50.91169 0,0 9.01561,34.47145 11.13694,47.72971 2.12132,13.25825 -0.53034,21.2132 -5.30331,28.10749 z"
           id="path3787"
           inkscape:connector-curvature="0"
           transform="translate(74.502833,222.38569)"
           sodipodi:nodetypes="cscscsccccscssscscc" />
        <path
           sodipodi:nodetypes="csssccccsccccsccccsccccccsccsccccccc"
           transform="translate(74.502833,222.38569)"
           inkscape:connector-curvature="0"
           id="path3917"
           d="m 180.13545,183.06618 c 0,0 -9.92094,-27.22882 -3.02665,-54.80598 6.89429,-27.57717 31.07349,-41.183768 47.57438,-41.183768 16.50089,0 20.70186,10.292262 20.0882,17.656228 -0.61366,7.36396 -12.66358,18.40622 -12.66358,18.40622 M 195.9375,91.02185 c -0.1875,0.375 -1.875,4.6875 -1.5,8.8125 m -74.3125,115.9375 c 0,0 10.5,-0.375 19.5,-6.375 9,-6 18,-5.625 18,-5.625 m -0.76884,23.64384 c 0,0 -13.85616,14.98116 -12.73116,29.23116 m 2.77643,-13.29982 c 0,0 12.72793,12.19759 25.45585,16.97056 12.72792,4.77297 35.53211,-14.84924 38.71409,-37.1231 m -50.38135,4.24264 c 0,0 0,23.86485 12.19759,32.35013 m 32.35013,-19.62221 c 0,0 2.12132,27.57716 -14.84924,51.44202 -16.97056,23.86485 -33.94112,41.36575 -33.94112,41.36575 m 9.54594,-45.07806 c 0,0 11.66726,6.89429 21.2132,7.42462 m -39.24443,86.4438 12.72793,-31.28947 m -7.95496,10.6066 c 0,0 3.18199,-14.84924 25.98618,-22.27386 22.80419,-7.42462 76.87121,-33.28212 84.76182,-67.32527 M 258.25,329.64685 c 0,0 4.875,-19.125 21.375,-31.875 16.5,-12.75 27,-43.875 14.25,-63.75 m -11.625,61.125 c 0,0 4.5,31.125 8.625,40.875 m -12.375,23.25 c 0.75,0.375 17.625,9.75 24,27.75 M 151.93957,400.5899 c 0,0 -8.48528,4.24265 -13.25825,11.93243"
           style="color:#000000;fill:none;stroke:#000000;stroke-width:1.5;stroke-linecap:round;stroke-linejoin:miter;stroke-miterlimit:4;stroke-opacity:1;stroke-dasharray:none;stroke-dashoffset:0;marker:none;visibility:visible;display:inline;overflow:visible;enable-background:accumulate" />
        <path
           sodipodi:nodetypes="csc"
           transform="translate(74.502833,222.38569)"
           inkscape:connector-curvature="0"
           id="path3919"
           d="m 258.27075,313.51145 c 0,0 5.21231,-27.07532 5.21231,-41.8639 0,-14.78859 -3.62132,-28.30052 -3.62132,-28.30052"
           style="color:#000000;fill:none;stroke:#000000;stroke-width:2;stroke-linecap:butt;stroke-linejoin:miter;stroke-miterlimit:4;stroke-opacity:1;stroke-dasharray:none;stroke-dashoffset:0;marker:none;visibility:visible;display:inline;overflow:visible;enable-background:accumulate" />
        <path
           transform="translate(74.502833,222.38569)"
           inkscape:connector-curvature="0"
           id="path3921"
           d="m 202.25,93.52185 c 0,0 -6.75,26.625 -10.5,39 -3.75,12.375 -3,17.625 -3,17.625 l 53.625,-1.125 c 0,0 -8.25,-7.5 -9.375,-15.75 -1.125,-8.25 3.375,-16.125 6,-26.625 2.625,-10.5 -3,-17.25 -3,-17.25 0,0 -12.75,-7.5 -33.75,4.125 z"
           style="color:#000000;fill:#000000;stroke:none;stroke-width:1;stroke-linecap:butt;stroke-linejoin:miter;stroke-miterlimit:4;stroke-opacity:1;stroke-dasharray:none;stroke-dashoffset:0;marker:none;visibility:visible;display:inline;overflow:visible;enable-background:accumulate" />
        <path
           sodipodi:nodetypes="csc"
           inkscape:connector-curvature="0"
           id="path3845"
           d="m 266.21716,364.35129 c 0,0 4.53303,-0.93934 6.62913,-8.48528 2.09609,-7.54594 6.62912,-9.81111 6.62912,-9.81111 m -10.07627,3.18198 c 0,0 2.91681,-3.18198 5.56846,-5.56847 2.65165,-2.38648 2.91682,-9.8111 2.38649,-11.93242 m -3.44715,1.85615 c 0,0 0.26517,-5.56847 4.24264,-8.48528 3.97748,-2.91681 3.18198,-5.3033 3.18198,-5.3033 m -6.36396,46.13872 c 0,0 0,-7.68979 4.50781,-10.34144 m 22.80419,9.28078 c 0,0 -5.56846,-7.15946 2.12132,-11.66727 m 0.53033,5.03814 c 0,0.53033 -0.79549,6.0988 3.97748,6.89429"
           style="color:#000000;fill:none;stroke:#fcd7ab;stroke-width:1;stroke-linecap:round;stroke-linejoin:miter;stroke-miterlimit:4;stroke-opacity:1;stroke-dasharray:none;stroke-dashoffset:0;marker:none;visibility:visible;display:inline;overflow:visible;enable-background:accumulate" />
      </g>
      <g
         id="g3803">
        <path
           style="color:#000000;fill:#fcd7ab;stroke:#000000;stroke-width:2;stroke-linecap:butt;stroke-linejoin:miter;stroke-miterlimit:4;stroke-opacity:1;stroke-dasharray:none;stroke-dashoffset:0;marker:none;visibility:visible;display:inline;overflow:visible;enable-background:accumulate;fill-opacity:1"
           d="m 184.99681,452.82741 c 0,0 -1.74681,3.13194 -2.87181,3.88194 -1.125,0.75 -0.75,4.875 -0.1875,5.25 0,0 -0.9375,3.1875 0.5625,5.0625 0,0 -0.9375,4.3125 2.0625,5.25 3,0.9375 6.5625,-5.8125 6.5625,-5.8125 0,0 7.125,-1.3125 9,-6.5625 1.875,-5.25 -6.44388,-9.82638 -15.12819,-7.06944 z m 57.12819,6.31944 c 0.375,0 5.25,3.5625 6.75,8.25 1.5,4.6875 5.4375,7.875 8.4375,8.25 3,0.375 6.375,2.625 8.8125,2.8125 2.4375,0.1875 4.5,-2.625 2.0625,-5.25 0,0 -0.375,-2.625 -2.625,-3.75 0,0 0.35225,-1.96209 -0.39775,-3.46209 l 1.17992,-2.37316 -3.96967,-8.97725 -15.5625,0.9375 z"
           id="path3799"
           inkscape:connector-curvature="0"
           transform="translate(74.502833,222.38569)"
           sodipodi:nodetypes="csccscsccsssccccccc" />
        <path
           style="color:#000000;fill:none;stroke:#000000;stroke-width:1;stroke-linecap:round;stroke-linejoin:miter;stroke-miterlimit:4;stroke-opacity:1;stroke-dasharray:none;stroke-dashoffset:0;marker:none;visibility:visible;display:inline;overflow:visible;enable-background:accumulate"
           d="m 255.25,465.14685 c 4.22079,3.43065 6.72343,7.66074 12.5625,8.25 m -10.38143,-10.40478 c 0,0 3.97747,5.43589 7.95495,6.76171 m -6.49655,-8.48528 c 0,0 3.57973,4.11006 6.23138,4.77297 m -4.77297,-5.96621 c 0,0 2.78423,2.78423 5.56847,4.11006 m -82.64311,3.27037 c 0,0 3.97748,-1.85616 5.17072,-4.50781 1.19324,-2.65165 3.71231,-3.71231 4.90555,-3.84489 m -10.20885,7.68978 c 0,0 0.53033,-2.65165 3.0494,-5.17071 2.51906,-2.51907 2.2539,-4.90556 2.2539,-4.90556 m -6.0988,5.83363 c 0.93754,-3.13659 4.2726,-4.02313 4.11006,-7.29204"
           id="path3801"
           inkscape:connector-curvature="0"
           transform="translate(74.502833,222.38569)"
           sodipodi:nodetypes="cccccccccsccsccc" />
      </g>
      <g
         id="g3795">
        <path
           style="color:#000000;fill:#92213f;stroke:#000000;stroke-width:2;stroke-linecap:butt;stroke-linejoin:miter;stroke-miterlimit:4;stroke-opacity:1;stroke-dasharray:none;stroke-dashoffset:0;marker:none;visibility:visible;display:inline;overflow:visible;enable-background:accumulate;fill-opacity:1"
           d="m 281.87044,447.34734 c 0,0 16.17507,-1.59099 20.68288,-7.68979 4.5078,-6.0988 -0.7955,-15.9099 -6.0988,-29.43332 -5.3033,-13.52342 -18.03122,-50.64652 -18.03122,-50.64652 0,0 -11.93243,-5.56847 -17.23573,-15.11441 -5.3033,-9.54594 -2.12132,-35.53212 -2.12132,-35.53212 0,0 -10.56625,37.59067 -29.69125,49.59067 -19.125,12 -41.375,15.74564 -50.4375,19.75 -9.0625,4.00436 -9.71591,9.5 -11.8125,14.625 -2.09659,5.125 -8.4375,3.375 -15.1875,8.0625 0,0 -7.24577,23.23024 -10.69292,35.95816 -3.44714,12.72792 -1.14481,20.58626 10.87177,24.39519 10.91726,3.46047 18.88554,-0.73116 22.27386,-6.8943 0,0 14.58408,-2.12132 20.41771,-0.26516 5.83363,1.85616 6.36396,7.68979 6.36396,7.68979 0,0 -1.06066,6.62912 4.50781,9.01561 5.56846,2.38648 10.87176,-3.97748 10.87176,-3.97748 0,0 11.66727,2.65165 20.94804,-3.71231 9.28078,-6.36396 21.74354,-8.22012 21.74354,-8.22012 l 7.68978,9.01562 c 0,0 15.29118,-5.12652 14.93763,-16.61701 z"
           id="path3789"
           inkscape:connector-curvature="0"
           transform="translate(74.502833,222.38569)"
           sodipodi:nodetypes="csscscssscsscscscsccc" />
        <path
           style="color:#000000;fill:none;stroke:#000000;stroke-width:1.5;stroke-linecap:butt;stroke-linejoin:miter;stroke-miterlimit:4;stroke-opacity:1;stroke-dasharray:none;stroke-dashoffset:0;marker:none;visibility:visible;display:inline;overflow:visible;enable-background:accumulate"
           d="m 140.09553,442.83953 c 0,0 52.15447,-43.31768 59.65447,-71.44268 m -26.25,84 c 0,0 4.5,-9 16.125,-15.375 11.625,-6.375 19.5,-19.125 21.375,-24.375 m -22.29088,24.71781 c 0,0 23.06936,-68.3242 26.25134,-74.15783 m -13.56891,96.17725 c 0,0 15.75457,-14.66174 22.05419,-50.03853 6.27285,-35.22644 5.98897,-53.93834 5.98897,-53.93834 m -12.69576,108.62668 c 0,0 -1.38637,-17.67133 15.72241,-37.71778 20.25089,-23.72808 30.22881,-59.9273 29.16815,-84.32248 m -11.56701,94.77822 c 0,0 8.14017,13.09283 10.39017,16.28033 m 21.10983,-8.96783 c 0,0 -10.09283,-9.36558 -21.53033,-36.92808 M 257,424.77185 c 0,0 3.48046,-16.05022 7.19277,-36.73309 3.71231,-20.68288 4.11973,-35.51691 4.11973,-35.51691"
           id="path3791"
           inkscape:connector-curvature="0"
           transform="translate(74.502833,222.38569)"
           sodipodi:nodetypes="cccsccccsccsccccccsc" />
      </g>
      <g
         id="g3875">
        <path
           style="color:#000000;fill:#92213f;stroke:#000000;stroke-width:1.50000000000000000;stroke-linecap:butt;stroke-linejoin:miter;stroke-miterlimit:4;stroke-opacity:1;stroke-dasharray:none;stroke-dashoffset:0;marker:none;visibility:visible;display:inline;overflow:visible;enable-background:accumulate;fill-opacity:1"
           d="m 263.83067,370.71525 c 0,0 5.83363,-3.97748 13.25825,-3.71231 7.42462,0.26516 26.25134,0.53033 26.25134,0.53033 0,0 7.42462,-1.59099 11.66726,2.65165 4.24265,4.24264 9.54595,2.56326 9.54595,2.56326 l 16.17506,24.39518 3.71231,29.16816 13.93699,10.65852 c 0,0 7.13269,3.39522 27.0752,2.86489 0,0 -0.46739,12.82599 -13.2002,18.82261 -11.23909,5.29315 -19.125,13.5 -19.125,13.5 0,0 -1.65533,-6.90533 -1.65533,-11.03033 0,-4.125 -47.09467,-20.09467 -47.09467,-20.09467 l -33,4.5 1.375,6.1875 c 0,0 -10.3125,-1.125 -19.6875,0.9375 -9.375,2.0625 -23.625,0.5625 -24.1875,0.375 0.375,-0.1875 7.02699,-11.60554 16.5,-26 9.47301,-14.39446 17.40568,-44.00958 18.45284,-56.31729 z"
           id="path3847"
           inkscape:connector-curvature="0"
           sodipodi:nodetypes="cscscccccscscccsczc" />
        <path
           inkscape:connector-curvature="0"
           id="path3873"
           d="m 241.69033,433.65754 c 0,0 8.625,1.125 13.125,2.4375 4.5,1.3125 15.9375,1.125 15.9375,1.125 m -21.875,-15.9375 c 0,0 9.375,9 12,11.25 m 15,-9.375 c 0,0 -11.625,-11.625 -17.625,-26.25"
           style="color:#000000;fill:none;stroke:#000000;stroke-width:1.5;stroke-linecap:butt;stroke-linejoin:miter;stroke-miterlimit:4;stroke-opacity:1;stroke-dasharray:none;stroke-dashoffset:0;marker:none;visibility:visible;display:inline;overflow:visible;enable-background:accumulate" />
      </g>
      <g
         id="g3860">
        <path
           style="color:#000000;fill:#fcd7ab;stroke:#000000;stroke-width:1.50000000000000000;stroke-linecap:butt;stroke-linejoin:miter;stroke-miterlimit:4;stroke-opacity:1;stroke-dasharray:none;stroke-dashoffset:0;marker:none;visibility:visible;display:inline;overflow:visible;enable-background:accumulate;fill-opacity:1"
           d="m 273.4375,125.45935 c 0,0 4.6875,-0.375 5.0625,6.1875 0,0 1.5,0.75 1.5,2.625 0,0 4.5,0.9375 3.375,4.3125 -0.96522,2.89565 -0.375,5.4375 -0.375,5.4375 0,0 1.6875,2.0625 0,4.125 0,0 0.75,5.25 -3.1875,6 0,0 0,2.25 0.5625,4.3125 0,0 -2.25,0.75 -3.9375,0 0,0 -0.75,5.4375 -4.875,8.25 0,0 0.1875,5.8125 4.125,7.3125 3.9375,1.5 6.75,-2.0625 10.6875,2.625 3.9375,4.6875 -1.875,20.625 -5.25,26.8125 0,0 4.54614,9.65886 3.75065,16.55315 -0.7955,6.8943 -9.01561,12.1976 -9.01561,12.1976 0,0 0.44488,0.46134 1.13996,1.60908 l 0,7.39017 c 0,0 -3.375,5.0625 -9.75,6 -4.77519,0.70223 -12.86639,1.24883 -18.6212,0.006 0,0 0.9337,6.36876 -0.3788,10.30626 -1.3125,3.9375 -3,6.375 -3,6.375 0,0 2.4375,3.5625 -0.1875,5.8125 -2.625,2.25 -2.625,3.5625 -2.625,3.5625 0,0 -2.0625,5.4375 -6,4.875 0,0 -0.9375,0.9375 -2.625,0.5625 0,0 -1.17437,1.58401 -3.69343,0.9211 0,0 -0.7955,0.26516 -2.12132,-0.13259 0,0 -2.91682,-0.26516 -2.51907,-2.51906 0.39774,-2.25391 3.97747,-4.50781 3.97747,-4.50781 0,0 0.7955,-3.44715 3.97748,-5.3033 L 232.75,247.39685 c 0,0 -2.0625,4.3125 -4.3125,5.8125 0,0 0.1875,4.3125 -2.625,5.0625 -2.8125,0.75 -3,5.625 -5.0625,6.1875 -2.0625,0.5625 -2.4375,0.75 -2.4375,0.75 0,0 -3.1875,4.5 -6,3.9375 -2.8125,-0.5625 -2.0625,-2.25 -2.0625,-2.25 0,0 -1.125,-3.75 0.5625,-5.8125 0,0 -0.1875,-2.8125 1.125,-3.1875 0,0 1.125,-2.625 2.8125,-2.625 0,0 2.0625,-2.625 3.9375,-3.1875 0,0 0.33883,-20.40458 2.99048,-29.68536 0,0 -11.61548,4.93536 -24.17798,3.43536 0,0 -2.8125,-3.375 -1.125,-10.6875 0,0 10.125,-5.8125 12.9375,-6.5625 2.8125,-0.75 9.75,-1.6875 15,-2.25 5.25,-0.5625 12.1875,-0.5625 13.6875,-0.375 1.5,0.1875 1.74242,2.32767 1.74242,2.32767 0,0 1.39958,-0.0228 2.14958,0.91475 0.75,0.9375 -1.0795,3.32008 -1.0795,3.32008 0,0 5.625,0.375 7.6875,2.625 0,0 -1.6875,-6.75 -0.75,-10.125 0.9375,-3.375 -0.46209,-9.21025 -0.46209,-9.21025 0,0 -5.35041,5.08525 -12.85041,4.89775 -7.5,-0.1875 -12.5625,-6.375 -12.5625,-6.375 0,0 -3.9375,1.3125 -7.125,-1.6875 0,0 -5.4375,-1.3125 -7.125,-3.9375 -1.6875,-2.625 -1.125,-7.125 -0.75,-7.5 0.375,-0.375 1.5,0 1.5,0 0,0 0.75,-1.3125 1.6875,-1.125 0.9375,0.1875 5.25,1.6875 5.25,1.6875 0,0 -0.5625,-1.875 0.9375,-2.4375 1.5,-0.5625 1.6875,1.3125 3.75,1.875 2.0625,0.5625 3.9375,2.0625 4.5,5.0625 0,0 4.6875,1.125 7.125,1.125 2.4375,0 5.0625,1.3125 5.0625,1.3125 0,0 4.125,-2.8125 7.125,-7.5 3,-4.6875 7.3125,-7.5 13.875,-3.9375 0,0 1.17992,-4.09283 0.99242,-6.53033 -0.1875,0 -6.61742,-4.53217 -8.67992,-7.15717 -2.0625,-2.625 -2.0625,-7.875 -2.0625,-7.875 l -1.125,-0.1875 c 0,0 0,-4.125 -1.6875,-5.25 -1.6875,-1.125 -3,-4.6875 -2.625,-7.6875 0.375,-3 2.25,-3.75 2.25,-3.75 0,0 -0.5625,-5.4375 3.75,-5.625 0,0 -0.375,-6.5625 7.875,-5.625 0,0 1.5,-3.75 5.25,-4.125 3.75,-0.375 5.625,1.875 5.625,1.875 0,0 3.1875,-2 6.1875,0.125 z m -71.02818,18.89273 c 0,0 4.5078,9.01561 12.72792,9.54594 8.22011,0.53033 12.99309,-9.01561 12.99309,-9.01561 0,0 -4.77298,-1.32582 -4.24264,-10.87177 0,0 1.85615,-2.38648 2.38648,-4.24264 0,0 7.68979,-9.28077 8.75045,-14.05374 1.06066,-4.77297 0.53033,-11.66727 0.53033,-11.66727 0,0 2.50755,-2.58764 0.44505,-6.33764 0,0 -0.1875,-3.9375 -4.5,-5.0625 -4.3125,-1.125 -5.8125,-4.6875 -5.8125,-4.6875 0,0 -3.1875,4.5 -8.25,4.3125 -5.0625,-0.1875 -8.4375,3.1875 -11.0625,10.125 -2.625,6.9375 -1.3125,17.25 0.75,24.1875 0,0 0.50614,13.97296 -4.71568,17.76773 z"
           id="path3807"
           inkscape:connector-curvature="0"
           sodipodi:nodetypes="cccsccccccsscscccscscscccccsccccsscsccccccccssscsccscsccsscscsscscsccsccsscccscc"
           transform="translate(74.502833,222.38569)" />
        <path
           style="color:#000000;fill:none;stroke:#000000;stroke-width:1;stroke-linecap:round;stroke-linejoin:miter;stroke-miterlimit:4;stroke-opacity:1;stroke-dasharray:none;stroke-dashoffset:0;marker:none;visibility:visible;display:inline;overflow:visible;enable-background:accumulate"
           d="m 221.76637,222.26641 c 0,0 1.19323,-1.19325 4.90554,-2.12133 3.71232,-0.92807 5.70106,-3.44714 5.70106,-3.44714 0,0 7.02687,-2.2539 9.14819,-5.03813 m -25.45584,8.22011 c 0,0 10.34143,-4.77297 16.30765,-3.18198 m -16.44024,-0.7955 c 0,0 7.55721,-2.65164 13.65601,-3.04939 6.09879,-0.39775 10.87176,-0.39775 10.87176,-0.39775 m -22.40644,-1.19325 c 0,0 14.45149,-3.31456 21.87611,-2.65164 m -6.23138,13.78858 c 0,0 2.6744,0.19416 4.00023,4.03906 m 10.9816,-11.06593 c 0,0.26516 1.59099,2.91681 1.59099,2.91681 0,0 -7.83411,4.10792 -11.20911,6.92042 -3.375,2.8125 -5.0625,9.75 -4.125,13.5 0,0 -2.4375,5.8125 -1.875,10.6875 m -14.25714,2.9216 c 0,0 0.92807,3.04939 4.11006,3.31456 m -12.33018,11.4021 c 0,0 3.0494,-2.25391 3.84489,-3.57973 0.7955,-1.32583 -0.92807,-5.03814 0.7955,-8.48528 m -5.17072,9.8111 4.37522,-3.31456 m -3.31456,-0.39775 c 0.26517,0 3.0494,-1.72357 3.0494,-1.72357 m -2.2539,-1.19324 c 0.26516,0 2.38648,-0.66292 2.38648,-0.66292 m 13.39084,21.87612 c 0,0 0.26516,-2.38648 2.65165,-3.97748 m -0.26517,4.24265 c 0,0 1.06066,-2.25391 2.51907,-3.44715 m 1.06066,2.2539 c 0,0 0.26516,-1.32582 1.32582,-2.2539 m 0.92808,1.72357 c 0,0 0.66291,-1.98874 1.59099,-2.51907 m -3.97747,-8.35269 c 0,0 2.12132,2.51906 4.24264,1.98873 m 11.22532,-21.83192 c 0,0 -2.38648,-0.79549 -4.24264,-2.38648 0,0 -4.24264,0.92807 -7.15946,-2.91682 0,0 -1.98874,-0.26516 -2.12132,-2.65165 -0.13258,-2.38649 3.0494,-1.72357 3.0494,-1.72357 0,0 0.26516,-2.38649 3.18198,-2.65165 2.91681,-0.26517 12.8605,-1.45841 16.97056,-3.18198 4.11006,-1.72358 7.15946,-1.72358 10.34144,-1.32583 3.18198,0.39775 7.02687,2.12132 7.02687,2.12132 m -12.59534,-2.2539 c 0,0 -4.5078,-1.32583 -8.61786,0 -4.11006,1.32582 -6.49654,1.98874 -6.49654,1.98874 0,0 -0.26517,1.06066 0.26516,1.72357 m -11.00435,3.57972 c 0.53033,0.13259 15.9099,0.53034 20.15254,-0.39774 m -20.28512,4.77297 c 0,0 18.03122,-0.79549 21.74353,-1.45841 m -14.31891,4.37523 15.51215,-0.7955 m 4.37523,-29.96365 c 0,0 -1.72357,-1.98874 -4.77297,-2.12132 -3.0494,-0.13258 -6.62913,2.65165 -8.48528,4.90555 -1.85616,2.25391 -1.32583,5.56847 -1.32583,5.56847 0,0 -0.39775,1.32583 0.92808,1.98874 1.32582,0.66291 2.38648,-0.7955 2.38648,-0.7955 0,0 2.12132,0.39775 3.31457,-0.66291 0,0 2.38648,0.13258 4.64039,-1.59099 2.2539,-1.72357 5.17071,-5.43588 5.17071,-5.43588 0,0 5.96622,-3.44715 9.41336,-6.49655 3.44715,-3.0494 5.83364,-7.68979 5.83364,-7.68979 m -31.68723,21.08063 c 0,0 2.91682,-3.8449 4.24264,-4.77297 m -1.19324,5.56846 c 0,0 2.38648,-3.84489 3.71231,-5.03813 m -0.13258,4.37522 c 0,0 2.12132,-3.44715 3.18198,-3.97748 m 9.54594,-4.64038 c 0,0 5.96621,0 7.82237,5.43588 m -16.97057,-7.95495 c 0,0 1.32583,-4.64039 5.43589,-6.89429 0,0 1.59099,-4.24264 3.84489,-5.83363 2.2539,-1.59099 4.64039,-1.98874 5.3033,-2.91682 m -3.57973,1.59099 c 0,0 -0.26516,-5.83363 2.25391,-8.75045 2.51907,-2.91681 0.66291,-6.7617 0.66291,-6.7617 m -22.14128,14.84924 c 0,0 5.03813,0.53033 6.23138,-5.17072 0,0 0.13258,4.77297 4.5078,5.03814 m -15.1144,-0.13259 c 0,0 0.13258,-4.37522 0.66291,-6.89429 0.53033,-2.51907 0,-6.62912 0,-6.62912 m -11.93243,5.48007 c 0,0 1.85616,1.59099 2.38649,4.11006 m -17.10315,1.32583 c 0,0 -0.39775,-5.3033 2.65165,-7.55721 m -2.2539,3.0494 c 0,0 -4.90556,0.53033 -4.11006,-5.3033 0,0 -1.98874,-0.7955 -2.2539,-2.91682 m 0.13258,0.7955 c 0,0 -3.84489,4.77297 -1.06066,10.07627 m -6.23138,-11.00435 c 0,0 2.12132,3.57973 5.43588,3.97748 m -7.29203,-0.7955 c 0,0 3.57972,2.91682 7.15945,2.91682 m -5.96621,0.92808 c 0,0 2.91681,1.4584 5.83363,1.85615 m 43.48707,-12.8605 c 0.26516,0.39774 2.2539,1.98873 2.2539,1.98873 0,0 6.23138,-4.11005 13.52342,-3.18198 m -15.77732,-6.0988 c 0.26516,0 2.91681,1.06067 5.17072,0.92809 2.2539,-0.13259 9.8111,-5.17073 9.8111,-5.17073 m -27.35619,-26.56069 c 0,0 3.84489,-0.79549 7.29203,0 3.44715,0.7955 8.3527,-1.72357 7.42463,-8.61786 m -10.30537,2.70657 c 0.26517,0 6.72564,-1.64591 7.25597,-5.88855 m -7.68979,5.96621 c 0.26517,0 2.65165,0.53033 4.50781,1.72357 1.85615,1.19325 6.62912,-3.97747 7.29204,-6.09879 0.66291,-2.12132 5.56846,-2.25391 5.56846,-2.25391 m 1.19324,-1.72357 c 0,0.26517 -1.72357,1.98874 -1.59099,7.15946 0.13259,5.17072 -1.72357,7.15945 -5.43588,7.68978 -3.71231,0.53033 -4.24264,1.85616 -4.24264,1.85616 m 9.81111,-7.15946 c 0,0 3.0494,1.32583 4.5078,-0.13258 1.45841,-1.45841 1.72358,-3.18198 1.72358,-3.18198 0,0 -1.32583,-4.24264 1.32582,-5.70105 m -1.06066,5.70105 c 0,0 3.84489,1.72357 5.96621,0.39775 m -8.35269,3.57973 c 0,0 1.59099,1.98873 4.5078,1.19324 2.91682,-0.7955 5.3033,-1.98874 5.3033,-1.98874 m -3.0494,1.32583 c 0,0 1.59099,2.78423 2.25391,5.03813 0.66291,2.2539 3.84489,3.0494 3.84489,3.0494 m -0.26517,4.90555 c 0,0 -1.85615,-2.78423 -4.24264,-3.18198 -2.38648,-0.39775 -2.38648,-1.72357 -2.38648,-1.72357 0,0 0.39775,-4.64039 -3.44715,-4.77297 -3.84489,-0.13258 -5.70105,0.92808 -6.89429,-2.38649 m 10.34144,7.02688 c 0,0 -3.18198,2.38648 -1.59099,4.11005 1.59099,1.72358 2.78423,3.71232 1.72357,5.03814 -1.06066,1.32583 -1.85615,4.11006 0.26517,5.17072 m -0.26517,-5.03814 c 0,0 1.72357,1.59099 3.97748,0.92808 m -32.21756,1.98874 c 0,0 0.39775,-4.24264 1.59099,-6.0988 0,0 -1.72357,-2.12132 -1.98873,-4.11006 -0.26517,-1.98873 1.06066,-3.97747 1.06066,-3.97747 m -3.18198,8.3527 c 0.13258,-0.26517 2.00482,-2.94899 2.1374,-5.20289 m 3.43106,-1.42624 c 0,0 4.50781,2.2539 5.96622,3.97748 1.4584,1.72357 0.26516,5.03813 -0.26517,6.49654 -0.53033,1.45841 -0.66291,2.65165 0.53033,3.18198 m 2.51907,0.13258 c 0,0 1.19324,-0.13258 2.38648,0.13259 1.19325,0.26516 1.06066,-1.45841 0.26517,-1.72358 m -1.06066,-5.96621 c 0,0 -0.39775,-7.02687 5.3033,-7.02687 m -10.20885,19.35704 c 0,0 0.39774,-2.65165 3.31456,-2.38648 2.91681,0.26516 3.18198,1.98874 3.18198,1.98874 0,0 -2.51907,0.79549 -6.49654,0.39774 z m 1.72357,1.85616 c 0,0 2.78423,0.39775 3.57973,-0.13258 M 207.3125,126.02185 c 0,0 4.3125,7.6875 10.3125,9 6,1.3125 7.3125,-2.625 7.3125,-2.625 m -6.84375,-6.15625 c 0,0 1.78125,1.78125 4.21875,0.65625 2.4375,-1.125 2.625,-3.84375 -0.9375,-4.5 -3.5625,-0.65625 -5.625,1.96875 -5.625,1.96875 0.0937,0.0937 8.15625,0.0937 8.15625,0.0937 m -5.25,-10.7812 c 0,0 -2.90625,0.9375 -1.59375,3.28125 1.3125,2.34375 4.125,0.84375 4.125,0.84375 0,0 0,1.6875 2.0625,1.6875 2.0625,0 2.15625,-1.6875 2.15625,-1.6875 0,0 3.09375,-0.0937 1.6875,-3 m -1.875,2.90625 c 0,0 0,-9.9375 0,-13.3125 0,-3.375 2.34375,-5.812501 5.4375,-6.468751 3.09375,-0.65625 5.4375,0.09375 5.4375,0.09375 M 221.375,117.70935 c 0,0 1.03125,-10.59375 0.46875,-14.34375 -0.5625,-3.750001 -3.75,-8.531251 -11.25,-7.875001 m 17.8125,6.656251 c 0,0 2.0625,-2.718751 4.5,-1.875 2.4375,0.84375 2.4375,3.84375 2.4375,3.84375 M 211.25,99.521849 c 0,0 3.84375,-0.65625 5.90625,0.562501 2.0625,1.21875 1.3125,4.40625 1.3125,4.40625"
           id="path3809"
           inkscape:connector-curvature="0"
           sodipodi:nodetypes="cscccccscccccccscccccsccccccccccccccccccccscsssccscccccccccsscsccscscccccccccccsccscccccsccccccccccccccccccccsccsccccssccssccscccccsccsccscsccsscccccsccccssccsccccscccccsccsscccscscccssccsccsccsc"
           transform="translate(74.502833,222.38569)" />
        <path
           style="color:#000000;fill:#000000;stroke:none;stroke-width:1;marker:none;visibility:visible;display:inline;overflow:visible;enable-background:accumulate"
           d="m 266.34375,146.0625 c -2.12546,0 -4.125,0.90625 -4.125,0.90625 l -0.15625,0.25 -0.53125,2 c 0,0 1.74036,1.30492 5.1875,1.4375 3.44715,0.13259 4.25,-1.71875 4.25,-1.71875 0,0 0.1204,-1.43934 -2.53125,-2.5 -0.66291,-0.26516 -1.38526,-0.375 -2.09375,-0.375 z m -13.6875,0.5 c -2.38648,0 -3.3125,2.53125 -3.3125,2.53125 0,0 0.93452,2.10984 3.71875,2.375 2.78423,0.26517 2.51701,-1.1875 3.3125,-1.1875 0.7955,0 1.0625,0.65625 1.0625,0.65625 0,0 0.38924,-1.86834 -0.40625,-2.53125 0.13258,-0.26517 -1.98851,-1.84375 -4.375,-1.84375 z m 13.09375,0.75 c 0.9375,0 1.875,0.28125 1.59375,1.3125 -0.28125,1.03125 -1.96875,0.9375 -1.6875,0.5625 0.28125,-0.375 0.0937,-1.875 0.0937,-1.875 z m 2.71875,0.5625 c 0,0 1.03125,0.5625 1.03125,0.84375 0,0.28125 -0.9375,0.74995 -1.3125,0.65625 -0.375,-0.0937 0.28125,-1.5 0.28125,-1.5 z m -13.3125,2.0624 c -0.1875,0.65625 -0.94887,1.01517 -1.13637,0.26517 -0.1875,-0.75 0.13257,-1.30114 0.43796,-2.46692 0.70312,0.0937 0.88591,1.5455 0.69841,2.20175 z m -2.25,-1.1249 c 0.46875,0.28125 0.1875,1.03125 -0.1875,1.21875 -0.37495,0.1875 -0.65625,-0.46875 -0.28125,-0.65625 0.37505,-0.1875 0.46875,-0.5625 0.46875,-0.5625 z"
           transform="translate(74.502833,222.38569)"
           id="path3835"
           inkscape:connector-curvature="0"
           sodipodi:nodetypes="scccscssscssccscssccccccsccscccc" />
        <path
           sodipodi:nodetypes="ssccscssscccccsccsssccccccsssccscccsc"
           inkscape:connector-curvature="0"
           style="color:#000000;fill:#000000;stroke:none;stroke-width:1;marker:none;visibility:visible;display:inline;overflow:visible;enable-background:accumulate"
           d="m 214.5,101.5 c -0.31989,0.0289 -0.66016,0.10547 -1,0.1875 -2.71875,0.65625 -5.0625,3.6563 -5.25,3.75 l -0.0937,0.65625 c 0,0 1.78125,-0.65625 4.59375,0.84375 2.8125,1.5 6.1875,-0.84375 6.1875,-0.84375 0,0 0.1875,-3.28125 -0.1875,-3.5625 -0.32812,-0.24609 -2.0108,-1.23376 -4.25,-1.03125 z m 16.8125,1.375 c -0.30505,-0.0167 -0.60938,-0.004 -0.9375,0.0312 -2.625,0.28125 -3.65625,3.375 -3.65625,3.375 0.84375,1.49995 4.6875,2.15625 6.46875,1.40625 1.78125,-0.74995 2.0625,-0.65625 2.0625,-0.65625 l -0.28125,-2.8125 c 0,0 -1.52087,-1.22711 -3.65625,-1.34375 z m -17.25,0.3125 c 0,0 0.1875,1.7812 1.3125,1.6875 1.12495,-0.0937 1.03125,-1.125 1.03125,-1.3125 0,-0.1875 0.65625,0.375 0.1875,1.59375 -0.46875,1.21875 -2.0625,1.21875 -2.8125,0.375 -0.75,-0.84375 0.0937,-2.25005 0.28125,-2.34375 z m -1.875,0.84375 c 0.375,-0.0937 0.5625,0.28125 0.5625,0.28125 0,0 -0.37505,1.125 -0.0937,1.40625 0.28125,0.28125 -0.9375,0.46875 -1.875,-0.46875 0.28125,-0.1875 1.03125,-1.125 1.40625,-1.21875 z m 20.09375,0.4375 c 0.0937,0.0352 0.20313,0.26563 0.34375,0.59375 0.28125,0.65625 -0.375,1.875 -1.59375,1.59375 -1.21875,-0.28125 -0.5625,-1.78125 -0.5625,-1.78125 0.1875,0.8437 1.50005,0.84375 1.59375,0.0937 0.0469,-0.37502 0.125,-0.53515 0.21875,-0.5 z m -3.125,0.78125 c -0.0937,0.5625 0.6563,1.3125 0.75,1.5 0.0937,0.1874 -1.40625,5e-5 -1.59375,0.0937 -0.1874,0.0937 -0.28125,-0.375 -0.0937,-0.5625 0.1875,-0.1875 0.65625,-0.93755 0.9375,-1.03125 z"
           transform="translate(74.502833,222.38569)"
           id="path3840" />
      </g>
    </g>
  </g>
</svg>
