<?xml version="1.0" encoding="UTF-8"?>
<svg xmlns="http://www.w3.org/2000/svg" xmlns:xlink="http://www.w3.org/1999/xlink" width="250" height="300">
<path d="M248,2 H2 V175 a123 123 0 0 0 21.856 69.996 L130,95 V180 Z" fill="#c51800"/>
<path d="M248,2 V175 a123 123 0 0 1 -224.144 69.996 L130,95 V180 Z" fill="#191919"/>
<g fill="#eee"><g id="z">
<polygon points="227.128,2 248,2 248,37.819 115,235 119.793,139.133 37.381,261.314 14.329,228.73 145,35 140.207,130.867"/></g></g>
<g fill="#aaa">
<polygon points="248,37.819 115,235 119.712,220.861 248,30.666"/>
<polygon points="119.793,139.133 37.381,261.314 34.556,258.35 124.505,124.994"/>
<polygon points="145,35 140.207,130.867 135.495,145.006 140.288,49.139"/></g>
<g fill="#fff">
<polygon points="115,235 119.793,139.133 124.505,124.994 119.712,220.861"/>
<polygon points="14.329,228.73 145,35 140.288,49.139 16.408,232.799"/>
<polygon points="140.207,130.867 227.128,2 231.953,2 135.495,145.006"/></g>
<use xlink:href="#z" fill="none" stroke="#444" stroke-width="2"/>
<path d="M0,0 V175 a125 125 0 0 0 250 0 V0 Z M245,5 V175 a120 120 0 0 1 -240 0 V5 Z" fill-rule="nonzero"/>
</svg>