<?xml version="1.0" encoding="UTF-8" standalone="no"?>
<!-- Created with Inkscape (http://www.inkscape.org/) -->

<svg
   xmlns:dc="http://purl.org/dc/elements/1.1/"
   xmlns:cc="http://creativecommons.org/ns#"
   xmlns:rdf="http://www.w3.org/1999/02/22-rdf-syntax-ns#"
   xmlns:svg="http://www.w3.org/2000/svg"
   xmlns="http://www.w3.org/2000/svg"
   xmlns:sodipodi="http://sodipodi.sourceforge.net/DTD/sodipodi-0.dtd"
   xmlns:inkscape="http://www.inkscape.org/namespaces/inkscape"
   width="793.6701"
   height="956.59424"
   id="svg2"
   version="1.1"
   inkscape:version="0.48.5 r10040"
   sodipodi:docname="svg.svg">
  <defs
     id="defs4">
    <style
       type="text/css"
       id="style6" />
    <style
       type="text/css"
       id="style4326" />
  </defs>
  <sodipodi:namedview
     id="base"
     pagecolor="#f6f3f1"
     bordercolor="#666666"
     borderopacity="1.0"
     inkscape:pageopacity="0"
     inkscape:pageshadow="2"
     inkscape:zoom="0.70710678"
     inkscape:cx="384.83523"
     inkscape:cy="485.64164"
     inkscape:document-units="px"
     inkscape:current-layer="layer1"
     showgrid="false"
     showborder="true"
     inkscape:window-width="1920"
     inkscape:window-height="1017"
     inkscape:window-x="-8"
     inkscape:window-y="-8"
     inkscape:window-maximized="1"
     inkscape:showpageshadow="false"
     fit-margin-top="0"
     fit-margin-left="0"
     fit-margin-right="0.4"
     fit-margin-bottom="0"
     inkscape:snap-smooth-nodes="true"
     inkscape:object-nodes="true"
     inkscape:snap-global="false"
     showguides="true"
     inkscape:guide-bbox="true" />
  <metadata
     id="metadata7">
    <rdf:RDF>
      <cc:Work
         rdf:about="">
        <dc:format>image/svg+xml</dc:format>
        <dc:type
           rdf:resource="http://purl.org/dc/dcmitype/StillImage" />
        <dc:title />
      </cc:Work>
    </rdf:RDF>
  </metadata>
  <g
     inkscape:label="Layer 1"
     inkscape:groupmode="layer"
     id="layer1"
     transform="translate(-936.30058,-58.66918)">
    <g
       id="g8239">
      <path
         style="color:#000000;fill:#da2c27;fill-opacity:1;stroke:#000000;stroke-width:8;stroke-linecap:butt;stroke-linejoin:miter;stroke-miterlimit:4;stroke-opacity:1;stroke-dasharray:none;stroke-dashoffset:0;marker:none;visibility:visible;display:inline;overflow:visible;enable-background:accumulate"
         d="m 1725.5707,620.3343 c 0,226.16249 -186.8692,390.9291 -392.3857,390.9291 -205.5165,0 -392.88442,-164.76661 -392.88442,-390.9291 0,-201.91884 0,-557.66512 0,-557.66512 l 785.27012,0 c 0,0 0,355.74628 0,557.66512 z"
         id="path2995"
         inkscape:connector-curvature="0"
         sodipodi:nodetypes="szsccs" />
      <path
         transform="translate(935.8125,58.65625)"
         inkscape:connector-curvature="0"
         id="path6921"
         d="m 393.20628,888.09429 c -3.7174,-3.95699 -11.65938,-7.94535 -22.51499,-11.30672 -12.36817,-3.82973 -17.00947,-7.45626 -21.67714,-16.93765 -2.97184,-6.03665 -3.28292,-7.52102 -3.292,-15.70803 -0.0145,-13.09368 2.08024,-19.05471 9.26918,-26.37718 6.40176,-6.52068 12.30505,-9.16421 20.46467,-9.16421 4.83673,0 8.56872,-1.26993 9.99081,-3.3997 0.40408,-0.60517 0.74158,-3.47692 0.75,-6.38168 0.0158,-5.44934 -0.0364,-5.51593 -5.20583,-6.6469 -6.42161,-1.40493 -5.78638,-8.66247 0.89638,-10.2413 l 3.82476,-0.90361 0.3042,-17.21341 c 0.1673,-9.46737 0.09,-17.2134 -0.17174,-17.2134 -0.66253,0 -11.96315,7.65802 -18.90527,12.81141 -5.53652,4.10997 -5.71048,4.37436 -4.25,6.45949 0.83755,1.19576 1.52281,3.33398 1.52281,4.75161 0,5.40723 -4.91327,6.60424 -9.89656,2.41107 l -3.05002,-2.56642 -4.5944,3.16104 c -5.53615,3.80897 -6.31176,5.47224 -4.14024,8.87862 5.05896,7.93581 6.96236,13.59696 6.8712,20.43647 -0.0502,3.7638 -0.80533,8.99329 -1.67814,11.62107 -2.19205,6.59965 -10.7522,15.80702 -18.68036,20.09275 -6.00112,3.24403 -6.85325,3.42303 -16.33148,3.4307 -10.95424,0.009 -13.89873,-1.08586 -21.5,-7.99348 -6.34902,-5.76965 -15.09185,-10.28744 -23.05292,-11.91242 -2.52034,-0.51444 -2.55401,-0.64592 -2.63787,-10.3015 -0.0734,-8.44779 -0.52161,-10.93857 -3.28981,-18.28041 -4.14398,-10.99071 -3.96945,-19.60277 0.56868,-28.0627 8.36285,-15.58988 28.15348,-24.62071 42.9251,-19.58751 5.80065,1.97648 13.93846,8.04546 16.64424,12.41286 3.48757,5.62929 5.2404,5.89565 11.30611,1.71803 5.20296,-3.58341 5.291,-3.72488 3.93541,-6.32305 -3.95104,-7.57269 1.04886,-12.37882 7.98273,-7.67337 2.03894,1.38366 3.88482,2.51574 4.10198,2.51574 0.37053,0 8.5532,-5.75072 21.76635,-15.29723 3.1625,-2.28491 5.74506,-4.39026 5.73903,-4.67857 -0.0118,-0.56353 -4.7992,-4.03127 -20.34503,-14.73688 -5.4208,-3.73303 -11.81738,-8.25828 -14.21463,-10.05612 l -4.35863,-3.2688 -1.7724,2.7688 c -0.97482,1.52284 -2.22824,3.29683 -2.78537,3.9422 -0.55713,0.64538 -4.16297,5.69486 -8.01297,11.22108 -3.85,5.52622 -7.48447,10.24162 -8.0766,10.47867 -1.49753,0.59951 -14.4234,-8.44112 -14.4234,-10.08804 0,-2.04533 10.73417,-17.44185 14.19557,-20.36137 4.75334,-4.0092 3.70068,-10.92374 -1.66302,-10.92374 -2.57915,0 -5.53255,2.8797 -5.53255,5.39448 0,2.37559 -1.38088,4.77395 -7.80884,13.56268 -3.03421,4.14856 -5.61177,7.67363 -5.72792,7.83348 -0.30201,0.41564 -7.70826,-3.98146 -9.29121,-5.5162 -0.73039,-0.70815 -2.19289,-1.75042 -3.25,-2.31617 -1.05712,-0.56575 -1.91614,-1.8003 -1.90895,-2.74345 0.0229,-3.00409 9.78928,-16.59932 14.2182,-19.7924 5.20707,-3.7541 5.83774,-6.43637 2.18829,-9.30703 -1.47911,-1.16346 -3.27296,-2.11539 -3.98633,-2.11539 -1.75178,0 -5.43324,5.31586 -5.43324,7.84535 0,1.12014 -0.45722,2.31919 -1.01604,2.66456 -0.55882,0.34537 -3.32649,4.08443 -6.15038,8.30902 -2.82389,4.22459 -5.28977,7.86667 -5.47973,8.09351 -1.29067,1.54122 -16.35385,-9.55881 -16.35385,-12.05113 0,-1.57371 13.31546,-21.13927 17.83167,-26.20163 1.79937,-2.01697 2.21592,-1.43507 -4.68329,-6.54233 -1.69222,-1.25271 -2.50002,-3.05748 -2.88088,-6.43647 -0.44763,-3.97133 -0.1146,-5.29401 2.15894,-8.57473 2.97119,-4.28743 7.26652,-5.84992 10.90542,-3.96702 1.19248,0.61703 6.44314,4.1406 11.66814,7.83016 5.225,3.68955 11.39962,8.01833 13.72137,9.6195 9.36542,6.45875 33.9995,23.88175 37.27863,26.36613 4.86811,3.68825 29.21883,20.96517 34.19594,24.26213 2.25591,1.49438 4.46513,2.49242 4.90936,2.21787 0.44424,-0.27455 0.83623,-27.12738 0.8711,-59.67295 0.0701,-65.46945 -0.22794,-62.53376 6.5777,-64.77983 4.02437,-1.32816 8.64618,-0.73616 12.14363,1.55546 1.91281,1.25332 2.30486,2.39271 2.31758,6.73545 0.008,2.87482 0.39666,5.82857 0.86274,6.56388 0.65873,1.03922 4.66355,1.30911 17.98469,1.21202 9.42549,-0.0687 17.16227,0.22968 17.19283,0.66307 0.49461,7.01286 0.45435,18.46291 -0.0679,19.30791 -0.74288,1.20199 -21.88938,0.81109 -27.74685,-0.51292 -2.12205,-0.47967 -3.77931,-0.30501 -4.75,0.50059 -1.61612,1.34126 -1.9663,5.69436 -0.62785,7.80495 1.04461,1.64725 6.84146,1.883 8.38351,0.34095 0.74101,-0.741 5.37333,-1.1535 12.95352,-1.1535 9.76667,0 11.82154,0.25847 11.925,1.5 0.48567,5.82802 0.54505,12.49802 0.13577,15.25 l -0.48335,3.25 -12.05997,0 c -9.9936,0 -12.38502,-0.29416 -13.95705,-1.71683 -1.71468,-1.55177 -2.15491,-1.57277 -4.57874,-0.21846 -2.98236,1.66639 -4.10052,6.12321 -2.13147,8.49576 1.39932,1.68608 6.07732,1.91202 7.62124,0.3681 1.06432,-1.06432 23.47143,-1.57634 25.09419,-0.57343 0.8635,0.53368 0.7059,17.50667 -0.1707,18.38327 -0.28829,0.2883 -8.1351,0.43893 -17.43735,0.33475 l -16.91318,-0.18943 -0.63961,3.40945 c -0.97824,5.21445 -0.44065,33.70682 0.63597,33.70682 0.93927,0 20.93105,-13.7845 37.70803,-26 4.90996,-3.575 12.66761,-9.12802 17.23921,-12.34005 4.57161,-3.21203 16.63549,-11.76203 26.80864,-19 16.93382,-12.04804 18.86567,-13.15995 22.86436,-13.15995 3.83723,0 4.77894,0.47571 7.75337,3.91661 5.0271,5.8155 4.72299,9.69822 -1.19097,15.20556 l -4.57661,4.26194 4.27577,6.30794 c 2.35168,3.46937 6.61741,9.57662 9.47941,13.57166 3.51203,4.90242 5.03477,7.90942 4.6842,9.25 -0.28568,1.09246 -0.8269,1.98629 -1.20271,1.98629 -0.37581,0 -3.46623,2.025 -6.86761,4.5 -3.40137,2.475 -6.57011,4.5 -7.04164,4.5 -1.37112,0 -14.1742,-18.72994 -14.1742,-20.7358 0,-5.24034 -6.02755,-8.10122 -9.34501,-4.43546 -2.64428,2.9219 -2.00389,5.80336 1.96208,8.82835 1.98939,1.51738 4.57689,4.18842 5.75,5.93564 1.17311,1.74722 3.86923,5.71122 5.99137,8.80889 2.9823,4.35324 3.60303,5.93988 2.73364,6.98743 -1.72182,2.07467 -12.99501,9.61118 -14.37347,9.60916 -0.67024,-9.8e-4 -2.5367,-2.08805 -4.14769,-4.63792 -1.611,-2.54988 -4.6485,-6.92446 -6.75,-9.7213 -2.49823,-3.32484 -3.82092,-6.1503 -3.82092,-8.16208 0,-3.9588 -1.58589,-5.47691 -5.72144,-5.47691 -2.57245,0 -3.5783,0.56375 -4.46051,2.5 -1.59467,3.49991 0.29666,7.37294 3.95804,8.10522 1.7377,0.34754 3.73161,1.94877 5.26105,4.22494 1.35458,2.01592 4.14842,5.91633 6.20856,8.66757 5.682,7.58814 5.37555,8.41222 -6.04011,16.24254 -1.81192,1.24285 -3.9111,2.25973 -4.66483,2.25973 -1.57421,0 -6.12091,-5.86732 -15.70778,-20.27023 -2.01686,-3.03004 -4.14506,-5.80461 -4.72933,-6.16571 -1.38147,-0.8538 -3.93404,0.55483 -13.31857,7.34984 -4.24321,3.07235 -11.78071,8.48173 -16.75,12.02084 -4.9693,3.53911 -9.03201,6.91411 -9.02825,7.5 0.004,0.58589 1.69126,2.18156 3.75,3.54592 2.05874,1.36436 6.03406,4.17686 8.83404,6.25 2.79998,2.07314 5.52829,3.76934 6.06291,3.76934 0.53462,0 2.26542,1.35 3.84622,3 3.37305,3.5207 5.49197,3.77134 8.0439,0.95149 1.34216,-1.48307 2.83407,-1.96611 5.40499,-1.75 3.24294,0.27261 3.57942,0.59558 3.87739,3.72173 0.17945,1.88276 -0.27055,4.5439 -1,5.91363 -1.00551,1.88809 -1.03755,2.5874 -0.13251,2.89138 0.65658,0.22052 2.87731,1.73885 4.93495,3.37407 2.05765,1.63521 4.42847,2.84075 5.26848,2.67898 0.84001,-0.16177 2.89428,-2.12939 4.56505,-4.37249 3.85761,-5.17907 12.49157,-11.52191 17.8776,-13.13358 8.47929,-2.53727 20.02702,-0.70148 28.66015,4.55624 8.50605,5.18033 14.74555,14.10229 17.02201,24.34005 1.3874,6.23944 1.11008,7.85849 -3.56767,20.8285 -2.03728,5.64878 -2.74891,9.60483 -2.88308,16.02745 -0.20126,9.634 -0.69932,10.97255 -4.08277,10.97255 -3.48929,0 -17.33956,7.54007 -21.98849,11.97051 -6.73344,6.41698 -9.76238,7.52949 -20.5,7.52949 -8.16869,0 -10.27076,-0.36577 -15,-2.61007 -11.7577,-5.57972 -19.6064,-15.43368 -21.64344,-27.1731 -1.43534,-8.27182 0.45212,-17.25738 4.66676,-22.21683 0.9348,-1.1 2.18997,-3.46654 2.78927,-5.25898 1.0045,-3.00436 0.8786,-3.3932 -1.61148,-4.9769 -1.48561,-0.94486 -2.92611,-1.95332 -3.20111,-2.24102 -0.275,-0.28771 -1.56329,-1.12113 -2.86287,-1.85206 -2.12356,-1.19437 -2.63548,-1.06777 -5.05471,1.25 -3.06052,2.93216 -6.21315,3.30537 -8.51099,1.00753 -1.96747,-1.96747 -1.9805,-4.12053 -0.0474,-7.82735 0.83144,-1.59433 1.39117,-2.96282 1.24384,-3.04108 -0.39372,-0.20915 -8.27555,-5.89818 -16.16297,-11.66629 -4.53195,-3.31424 -7.1351,-4.65403 -7.59542,-3.90922 -0.6001,0.97098 -0.62279,7.34998 -0.10549,29.65408 0.0908,3.9147 0.28584,4.17432 3.60356,4.79673 3.78609,0.71028 6.92191,4.28179 5.9601,6.78821 -0.66594,1.73542 -4.69085,3.77635 -7.44734,3.77635 -1.03705,0 -2.10754,0.7875 -2.37885,1.75 -0.80593,2.85904 -0.067,11.22448 1.09402,12.3855 0.59181,0.59181 4.02263,1.22051 7.62405,1.39712 10.04965,0.49283 18.49984,4.91235 24.20161,12.65766 2.44136,3.31636 4.43884,6.79023 4.43884,7.71973 0,0.92949 0.49321,2.1832 1.09602,2.78601 0.62288,0.62288 1.1625,5.34994 1.25,10.95 0.15076,9.64819 0.0704,10.01904 -3.84941,17.75768 -4.92169,9.71666 -9.65454,13.34198 -22.28497,17.07006 -4.7914,1.41426 -9.38664,2.99879 -10.21164,3.52117 -0.825,0.52238 -2.91209,1.66457 -4.63797,2.5382 -1.72588,0.87364 -4.61943,2.91108 -6.43011,4.52765 -1.81067,1.61657 -3.58265,2.93922 -3.93771,2.93922 -0.35507,0 -1.70509,-1.1278 -3.00005,-2.50621 l 2e-5,0 z m 22.13094,-25.87367 c 15.24821,-7.25304 15.9585,-29.97652 1.1479,-36.72353 -5.90723,-2.69106 -9.14955,-2.02343 -15.33867,3.15839 l -4.85187,4.06222 -4.45632,-4.10769 c -5.55049,-5.11627 -9.76171,-6.0052 -15.21179,-3.211 -5.10904,2.61936 -7.68331,5.62214 -9.8408,11.47888 -1.53306,4.16165 -1.59887,5.45052 -0.51059,10 2.3354,9.76297 8.2401,15.79574 17.39184,17.76906 2.22486,0.47973 9.0515,0.7053 15.1703,0.50127 9.38567,-0.31296 11.96548,-0.77069 16.5,-2.9276 l 0,0 z M 321.3296,815.01909 c 8.3472,-5.78462 11.7782,-14.88833 8.41878,-22.33819 -1.88923,-4.18955 -3.33401,-5.09975 -11.32008,-7.13154 l -5.28383,-1.3443 0.27312,-7.1126 c 0.32328,-8.41906 -1.15845,-11.407 -7.18025,-14.4791 -9.53061,-4.86215 -19.97309,-0.60007 -26.91952,10.98714 -6.09401,10.16529 2.80524,29.81415 18.96069,41.86374 4.24784,3.16827 4.73645,3.28866 11.66105,2.87318 5.9152,-0.35492 7.98322,-0.95741 11.39004,-3.31833 z m 171.19826,2.42594 c 10.06596,-5.32485 21.14651,-20.5758 23.74189,-32.67763 0.92598,-4.3177 0.77209,-5.4949 -1.3437,-10.27908 -2.28496,-5.16671 -6.57766,-9.483 -12.56876,-12.63782 -5.26021,-2.76995 -14.00394,-0.86623 -19.38358,4.22025 -3.43119,3.24423 -4.34156,6.71537 -2.76159,10.52975 2.19145,5.29063 0.78868,7.50524 -5.66936,8.95049 -3.7621,0.84192 -6.67289,2.23792 -8.52213,4.08716 -2.44732,2.44731 -2.80851,3.57209 -2.80851,8.74588 0,4.72349 0.53017,6.73259 2.59318,9.82692 4.96841,7.45217 10.10605,10.29242 18.72256,10.35041 3.19866,0.0215 6.79866,-0.48082 8,-1.11633 l 0,0 z"
         style="color:#000000;fill:#000000;fill-opacity:1;fill-rule:evenodd;stroke:none;stroke-width:3;marker:none;visibility:visible;display:inline;overflow:visible;enable-background:accumulate" />
      <g
         id="g8235">
        <path
           style="font-size:medium;font-style:normal;font-variant:normal;font-weight:normal;font-stretch:normal;text-indent:0;text-align:start;text-decoration:none;line-height:normal;letter-spacing:normal;word-spacing:normal;text-transform:none;direction:ltr;block-progression:tb;writing-mode:lr-tb;text-anchor:start;baseline-shift:baseline;color:#000000;fill:#ddb36e;fill-opacity:1;stroke:none;stroke-width:5;marker:none;visibility:visible;display:inline;overflow:visible;enable-background:accumulate;font-family:Sans;-inkscape-font-specification:Sans"
           d="m 442.59375,38.6875 c -1.9715,7.04721 -4.8886,14.02659 -9.6875,19.625 C 415.46615,44.66749 417.6102,65.73257 412.75,85.25 c -24.6966,29.42519 -0.1049,-20.89122 -10.0625,-32.28125 -9.3893,-16.354299 -16.1637,-9.40479 -13.5625,7.4375 0.916,21.66519 -21.04265,-5.5616 -14.71875,17.125 -9.3797,36.58431 -10.5131,-16.38211 -18.875,-25.34375 -24.8785,-22.361248 -13.8625,5.81632 -12.875,21.5625 -7.9074,4.13448 -18.21315,-2.72428 -9.53125,14.53125 -1.64,32.95587 -14.99165,-4.6121 -15.34375,-16.40625 -14.4688,-18.04835 -18.77765,-2.23201 -12.96875,12.4375 -15.6475,1.68037 -20.53635,-0.88037 -12.65625,18.25 -0.60712,10.84144 -6.25102,17.38709 -7.46907,15.41547 C 279.44792,109.49741 270.8245,88.300212 259.65625,99 c 5.4817,33.13589 -40.1593,64.58611 -60.4375,29.1875 -14.4903,-11.01138 1.5356,-54.27632 -17.875,-42.03125 -6.8995,9.62589 -5.373,19.16581 -11.4375,22.84375 -8.1656,4.95218 -18.67965,13.03326 -16.40625,28.71875 -17.8548,8.2288 -48.07835,-16.88924 -60.84375,-32.90625 -10.5075,8.83325 12.8482,41.2744 30.3125,48.1875 2.5951,3.74972 7.35335,6.58938 6.03125,7.53125 -5.1791,3.68964 -38.936,-11.36616 -45.3125,-16.125 0.7328,17.30096 34.48555,34.62679 55.84375,37.15625 19.6271,10.38567 59.85355,-16.85718 63.34375,14.1875 -12.5506,4.42785 -40.10425,12.67869 -58.40625,14.0625 -17.4201,-2.85023 -31.0671,-10.97093 -47.9375,6.0625 -12.7219,6.33761 -22.5982,13.22006 -27.75,26.40625 13.9714,7.06081 41.60025,0.30112 41.53125,13.5625 -0.0106,2.04479 -2.20845,5.93193 -3.78125,8.75 l -15.3125,8.375 c 0.759,1.77605 -2.5446,7.12191 4.9375,8.25 2.8495,0.42961 7.90355,2.18871 14.40625,0.0625 16.5796,0.0341 41.1896,-22.82105 46.625,6.25 -1.6309,2.55876 -1.1378,6.94793 -1.6875,8.8125 -1.8743,6.3577 0.522,4.91432 3.625,8.34375 2.6291,2.9056 5.9772,10.35679 5.4375,18 6.2458,25.93129 13.4643,-8.96944 17.625,13.0625 -5.3025,28.82673 20.92595,1.19126 35.15625,8.96875 -20.6565,-13.95637 13.68565,-13.42135 3.46875,-22.3125 -2.5413,-35.81339 39.90295,6.35416 58.65625,-2.4375 30.4358,-11.99622 22.34,13.37947 31.1875,32.65625 1.0466,2.2803 4.55215,13.36923 6.09375,15.125 1.2714,12.37371 -4.89015,16.50219 -5.78125,19.9375 -6.5689,25.32142 -7.86895,42.45002 -11.46875,69.15625 -10.236,31.38887 -23.33425,51.87397 -25.46875,74.5625 -0.52,5.52764 -7.20305,10.25643 -9.46875,15.25 -20.09,21.44306 2.91275,18.26553 18.90625,16.6875 27.4689,6.49564 8.9588,-37.32321 22.9375,-20.125 24.1833,-3.99087 2.8801,-44.09299 14.375,-62.65625 5.6499,-21.87088 12.59155,-43.62182 31.84375,-56.3125 5.4728,-12.45181 15.25,-16.34375 15.25,-16.34375 2.4671,1.64472 16.9126,42.54432 13.1875,52.09375 1.9995,29.04567 -3.8268,58.30599 -11.875,85.875 -5.8297,7.21331 -4.78125,15.625 -4.78125,15.625 0,0 34.1378,4.69213 36.6875,-6.53125 -6.9638,-14.94874 5.06115,-36.9037 12.40625,-11.15625 12.0225,-23.7284 6.21905,-50.91729 0.0312,-75.34375 -5.6785,-23.02341 5.4699,-47.1778 6.4375,-68.375 19.5043,1.23282 8.3662,-28.90538 1.625,-39.46875 9.791,-15.02687 45.35205,-4.41792 63.28125,-14.1875 11.9138,-3.11401 44.8298,-22.77655 37.9375,2.96875 17.0453,-1.20899 36.12485,-2.86818 54.09375,-3.75 32.196,27.70525 42.86895,71.44742 37.28125,113.125 -5.7644,31.93055 -22.98955,61.2745 -40.15625,88.40625 -11.8009,18.70402 11.78905,11.00582 21.71875,12.75 20.4911,11.93957 12.20085,-33.60482 23.34375,-14.34375 16.302,4.05603 16.51445,-34.58315 18.03125,-48.78125 4.1797,-26.44937 6.05455,-61.89175 27.21875,-79.09375 27.1384,28.07594 23.3613,69.8588 22.9375,106.125 -2.5171,11.19301 -29.5454,38.33228 -4.75,38.15625 11.984,-2.01413 36.61755,7.86091 30.65625,-14.53125 -3.004,-13.54137 1.2222,-15.97391 6.3125,-15.78125 5.1759,0.19591 11.24515,3.05439 11.53125,-6.59375 -8.1496,-33.99518 -16.09095,-67.02734 -20.59375,-101.53125 1.6068,-13.41037 -3.36755,-26.53299 -10.46875,-38.8125 -7.0402,-12.17421 -22.16325,-13.0203 -24.46875,-35.84375 13.8453,-4.0092 0.58705,-36.17207 -5.46875,-57.09375 C 659.94565,283.87615 664.7688,255.48743 668.5,253 c 0,0 9.3378,4.85128 14.3125,11.21875 19.6764,27.31 2.10645,-12.73865 -5.21875,-22.4375 -8.1738,-13.11142 -29.3923,-35.61427 -48.25,-44.5625 C 601.80715,177.19718 566.74,191.88713 536.75,180.875 494.9596,163.60896 453.2567,140.59535 406.5625,142.15625 c -9.2791,1.6387 -18.71875,-3.84375 -18.71875,-3.84375 0,0 8.34715,-7.47804 17.71875,-9.875 25.8286,-20.05391 50.57895,-56.02972 37.03125,-89.75 z M 363.5,147.59375 c 0,0 -28.5,22.5 -34.5,26.25 -6,3.75 -30,6 -30,6 l 0,-8.25 c 0,0 -28.5,0 -59.25,12.75 0,0 -3,-13.5 27,-18 30,-4.5 96.75,-18.75 96.75,-18.75 z"
           transform="translate(935.80193,58.66918)"
           id="path6983"
           inkscape:connector-curvature="0"
           sodipodi:nodetypes="ccccccccccccscccscccscccccccccsccsscccccscccsccccccccccccccccccccccccccsccsccccccccccccscccsc" />
        <path
           style="color:#000000;fill:#000000;fill-opacity:1;fill-rule:evenodd;stroke:none;stroke-width:3;marker:none;visibility:visible;display:inline;overflow:visible;enable-background:accumulate"
           d="m 253.76975,564.78208 c -0.62507,-1.96942 0.0286,-3.43325 8.6185,-19.29946 0.92187,-1.70277 2.54529,-4.06034 3.60761,-5.23904 5.76948,-6.40153 6.99901,-9.48045 6.46125,-16.17984 -0.76568,-9.53869 2.4078,-19.32552 10.61393,-32.73274 6.29274,-10.28112 12.46814,-26.71003 15.1221,-40.2305 0.64776,-3.3 1.57014,-7.8 2.04973,-10 0.47959,-2.2 1.1575,-9.80984 1.50648,-16.91076 0.84611,-17.21662 4.47904,-34.029 8.24931,-38.17586 0.95678,-1.05236 2.55564,-3.75064 3.55301,-5.99617 1.59849,-3.59893 1.68433,-5.01074 0.72436,-11.91268 -0.94476,-6.79262 -1.8147,-9.25532 -4.06391,-11.50453 -5.05059,-5.05059 -9.47548,-19.37834 -8.56133,-27.72153 0.55556,-5.07047 0.48128,-5.2685 -2.56724,-6.84496 -3.43607,-1.77686 -11.00858,-2.09 -14.90124,-0.6162 -4.67574,1.77028 -14.69689,2.38122 -20.22712,1.23315 -2.98405,-0.61949 -10.33449,-3.62419 -16.33431,-6.67711 -8.51636,-4.33343 -12.2368,-5.66757 -16.96427,-6.08336 -5.76034,-0.50663 -6.14304,-0.399 -7.85116,2.20792 -2.39412,3.65388 -1.45958,8.01313 2.62025,12.22245 3.09556,3.19381 3.12619,3.31357 1.2305,4.81167 -2.83541,2.24073 -6.17961,3.46797 -9.45016,3.46797 -1.58174,0 -3.16623,0.46979 -3.5211,1.04398 -0.73555,1.19014 1.57037,5.14954 5.38907,9.25335 2.09243,2.24866 2.33008,2.96599 1.21162,3.65724 -1.81734,1.12317 -9.42007,1.07244 -14.96968,-0.0999 -3.88725,-0.82116 -4.66956,-0.67183 -6.75773,1.2899 -2.93206,2.75452 -8.68959,4.82053 -13.48911,4.84036 -4.11267,0.017 -5.12287,-1.40556 -4.21646,-5.93761 0.71332,-3.56659 -2.41263,-18.30621 -3.71204,-17.50314 -0.51067,0.31563 -0.92849,2.13642 -0.92849,4.04622 0,5.81177 -2.62697,5.61012 -8.21664,-0.63071 -5.10076,-5.69496 -7.31522,-11.1287 -8.44217,-20.71504 -0.58922,-5.01218 -0.74749,-5.24546 -3.42067,-5.04177 -1.57489,0.12 -3.69094,-0.59012 -4.82989,-1.62086 l -2.02702,-1.83443 2.3492,-4.12379 c 6.09074,-10.69172 2.99005,-21.03385 -7.34433,-24.49654 -5.02284,-1.68297 -9.70384,-0.44473 -17.48121,4.62423 l -6.91273,4.50543 -14.47611,-0.10442 c -17.621346,-0.12712 -19.582852,-0.89624 -18.562294,-7.27846 0.60336,-3.77321 0.512686,-3.99573 -1.24264,-3.04949 -2.95194,1.5913 -15.56055,5.16295 -18.893493,5.35197 -4.982346,0.28257 -11.003778,-3.52001 -13.394603,-8.4588 -1.941371,-4.01033 -2.891715,-12.59807 -1.543354,-13.94643 0.309124,-0.30912 3.121624,0.0499 6.25,0.79771 8.981387,2.14708 12.069203,1.82456 17.415214,-1.819 2.622708,-1.7875 4.622216,-3.7 4.443352,-4.25 -0.178865,-0.55 -2.066523,-1.14495 -4.194798,-1.3221 -2.128274,-0.17716 -5.130989,-1.2203 -6.6727,-2.3181 -3.848391,-2.74029 -3.648328,-6.45888 0.803258,-14.93027 4.754575,-9.04797 12.700535,-15.52021 21.399921,-17.43091 1.664531,-0.36559 5.606561,-2.88551 8.760065,-5.59981 9.387432,-8.08001 19.782002,-9.80328 29.424082,-4.87809 8.51389,4.34891 34.94548,3.26013 40.81815,-1.6814 5.58464,-4.69916 11.80156,-6.6571 21.33428,-6.71895 l 8.84287,-0.0574 -0.59949,-3.74897 c -0.89271,-5.58272 -2.65768,-8.79385 -5.18164,-9.42733 -1.23887,-0.31093 -6.41602,0.14985 -11.50477,1.02398 -12.01323,2.06359 -33.14412,2.06824 -44.03937,0.01 -31.86098,-6.01979 -55.534175,-22.04692 -60.236076,-40.78079 -0.941744,-3.75221 0.785853,-4.039 6.102755,-1.0131 18.592671,10.58127 34.894441,17.20393 39.860751,16.1936 1.46299,-0.29789 0.73771,-1.06779 -3.0879,-3.27811 -10.18651,-5.88545 -20.2195,-14.98103 -28.287075,-25.64414 -3.079224,-4.06988 -6.212922,-15.50687 -6.212922,-22.67516 0,-9.622139 1.601201,-10.413585 7.355325,-3.63561 9.662902,11.38226 23.636202,23.32229 32.619502,27.87301 4.37575,2.21666 14.34258,5.33384 19.16512,5.99401 l 4.63994,0.63518 0.0994,-6.6265 c 0.17303,-11.53376 5.25918,-19.33584 14.64572,-22.46635 3.96088,-1.32099 5.03106,-2.15224 5.25011,-4.07795 0.47801,-4.20229 3.19234,-12.272118 5.50007,-16.351971 3.00731,-5.316637 11.25594,-10.188978 16.391,-9.681924 0.82781,0.08174 1.05027,2.799163 0.76668,9.365154 -1.15344,26.705311 6.15127,44.151731 21.56712,51.510541 7.42032,3.54211 12.92538,3.51266 20.30013,-0.10861 12.92011,-6.34425 19.10641,-16.29923 20.92251,-33.66845 l 1.14843,-10.983481 7.77583,0 c 7.70505,0 7.81079,0.03531 11.61736,3.880119 2.65216,2.678802 4.58796,6.072592 6.25239,10.961542 2.2443,6.59219 2.53018,6.97345 4.13782,5.51856 3.83888,-3.47414 2.81415,-20.180602 -1.65631,-27.003393 -2.92677,-4.466805 -1.37467,-5.721323 6.27536,-5.072214 3.69957,0.31391 7.45592,0.854151 8.34745,1.200536 0.92342,0.358779 1.83922,0.061 2.12817,-0.691987 0.55987,-1.459005 -1.61686,-12.99997 -3.27398,-17.35852 -1.344,-3.534998 -0.1078,-4.398809 6.32451,-4.41933 11.05043,-0.03525 16.05492,6.785167 18.69939,25.484687 1.947,13.767571 5.27317,17.484101 6.4744,7.234237 0.47068,-4.016174 0.0532,-7.017047 -1.79399,-12.895297 -1.32409,-4.213583 -2.07684,-8.195963 -1.67279,-8.849734 0.89605,-1.449839 9.70294,-0.471878 11.87158,1.318279 1.24773,1.029972 1.35032,0.102096 0.75266,-6.807485 -0.38059,-4.4 -1.61078,-11.15 -2.73375,-15 -3.15232,-10.807381 -3.11926,-11.013704 1.74993,-10.921295 5.37937,0.102092 14.76016,4.849703 18.58507,9.4059 5.14693,6.130968 7.76574,14.247993 8.45208,26.19729 0.65778,11.452093 1.41278,14.121089 3.42524,12.108629 1.55678,-1.556785 2.75246,-9.030451 2.84622,-17.790524 0.0955,-8.917198 1.06378,-10.722627 4.24163,-7.908413 3.52208,3.119053 7.64654,5.471137 8.14919,4.647298 1.72489,-2.827083 2.90136,-11.272975 2.78434,-19.988885 -0.0757,-5.6375 0.24414,-10.25 0.71073,-10.25 1.89239,0 12.98243,7.950686 14.82459,10.628061 2.97479,4.323511 5.33382,11.434953 5.33382,16.079082 0,4.430766 -1.66673,13.50859 -3.08325,16.792857 -3.74013,8.671679 -4.18926,15.02411 -0.78373,11.084808 0.75184,-0.869678 2.52155,-2.841164 3.93269,-4.38108 3.06159,-3.340968 5.28019,-12.040988 7.06478,-27.703728 0.68933,-6.05 1.68802,-11.295475 2.21933,-11.656612 1.47372,-1.001712 5.74563,1.14833 9.76884,4.916627 l 3.61866,3.389383 1.88134,-2.396267 c 2.45928,-3.132389 6.03835,-11.138861 7.40617,-16.567811 0.62552,-2.482696 1.58026,-4.150289 2.24861,-3.927507 0.63883,0.212944 2.24922,3.05455 3.57864,6.31468 3.55791,8.725008 4.05463,22.261454 1.20829,32.927507 -2.98555,11.187704 -8.79315,22.706754 -16.96558,33.650251 -11.30434,15.13736 -19.32699,22.31385 -32.33483,28.92445 l -6.74004,3.4253 18.24004,0.66561 c 10.03202,0.36609 21.16504,1.11339 24.74004,1.66066 7.7489,1.18622 23.79895,4.928 25.37988,5.91687 0.61607,0.38534 1.79512,0.80107 2.62012,0.92383 7.30553,1.08714 29.07557,9.66171 51,20.08738 13.59387,6.46426 21.29935,9.47591 31.78382,12.42253 6.85533,1.92666 10.39372,2.18399 31.71618,2.30655 15.75819,0.0906 25.71704,0.57653 29,1.41511 11.36973,2.90421 27.5236,11.04546 40,20.15925 6.5608,4.79255 18.47196,15.59103 21,19.03829 1.1,1.49996 4.1375,5.17799 6.75,8.17338 2.6125,2.99539 4.75,5.92265 4.75,6.50502 0,0.58237 0.40096,1.20885 0.89103,1.39219 0.74912,0.28024 4.04278,5.88683 7.95353,13.53877 2.62201,5.13035 5.1714,11.37921 6.64778,16.29456 0.9086,3.025 2.06952,6.28139 2.57983,7.23643 1.17538,2.19973 1.20521,5.76357 0.0482,5.76357 -0.48377,0 -2.49159,-1.9125 -4.46182,-4.25 -7.17515,-8.51268 -15.23988,-17.32295 -18.69429,-20.42246 -2.78358,-2.49759 -3.56129,-2.81668 -3.65594,-1.5 -0.0661,0.91985 -0.4513,6.2155 -0.85594,11.7681 -0.76869,10.54803 -0.30737,12.96207 4.56812,23.90436 3.07947,6.91141 4.956,13.77236 5.60693,20.5 0.3459,3.575 1.45775,7.88132 2.47078,9.56959 1.01304,1.68828 2.14169,5.73828 2.50811,9 0.36643,3.26173 1.00775,6.38041 1.42516,6.93041 0.41741,0.55 0.46691,2.8 0.10999,5 -0.52979,3.2656 -1.24202,4.26138 -3.87927,5.42362 -3.04867,1.34355 -3.19855,1.65286 -2.66511,5.5 1.29215,9.31887 4.9044,14.91667 12.94471,20.05999 6.68942,4.27917 10.69661,8.07285 12.73702,12.05835 3.44842,6.73579 5.74099,15.32215 6.75645,25.30504 0.58818,5.78239 1.283,10.859 1.54403,11.28137 0.26104,0.42236 1.5997,8.72901 2.9748,18.45922 1.37511,9.73021 2.7126,18.03498 2.97222,18.45504 0.25961,0.42006 1.8273,7.55057 3.48375,15.84559 4.21741,21.11945 5.71119,27.46346 8.59778,36.51414 1.38619,4.3463 2.604,10.19961 2.70623,13.00737 0.16786,4.60993 -0.19832,5.56494 -3.77587,9.84764 -3.88111,4.64608 -6.53824,6.04051 -6.53824,3.43119 0,-0.72129 -0.95558,-2.33714 -2.12352,-3.59077 -1.96095,-2.10484 -2.24803,-2.15481 -3.75,-0.65286 -1.31529,1.31527 -1.63059,3.88244 -1.64794,13.41749 -0.0173,9.52414 -0.35821,12.30499 -1.77305,14.46431 l -1.7516,2.67327 -20.41793,0 c -14.33341,0 -20.63017,-0.34341 -21.13015,-1.1524 -1.18271,-1.91367 -0.49132,-11.02661 1.24029,-16.3476 2.48652,-7.64075 3.489,-9.42125 8.3539,-14.83737 l 4.5,-5.00987 0.34026,-25.50376 c 0.27862,-20.88347 0.035,-27.05679 -1.34502,-34.07638 -2.37417,-12.07679 -4.52423,-21.09524 -5.47627,-22.97019 -0.44751,-0.88134 -1.6348,-3.62743 -2.63843,-6.10243 -1.99807,-4.92738 -7.71473,-14.36896 -10.52922,-17.38996 -2.16413,-2.32293 -3.52272,-1.43698 -6.23632,4.06678 -1.03675,2.10275 -2.91333,5.84818 -4.17018,8.32318 -2.88773,5.68652 -5.66168,13.89344 -8.78806,26 -3.53223,13.67815 -4.40497,19.13019 -6.64318,41.5 -3.04614,30.44463 -3.09202,30.79206 -4.48966,34 -4.02229,9.2321 -5.2494,10.96946 -9.66407,13.68249 -5.77585,3.54955 -7.56723,2.95162 -8.4319,-2.81438 -1.03072,-6.87333 -2.89131,-4.81484 -2.98418,3.30157 -0.064,5.59711 -0.53688,7.65234 -2.34464,10.19111 l -2.26443,3.18009 -20.16735,-0.27044 -20.16732,-0.27044 0.2483,-5.21764 c 0.32729,-6.87755 3.75853,-14.38547 10.00371,-21.88917 3.09115,-3.71407 6.45752,-9.3954 8.59172,-14.5 1.93002,-4.61626 6.40762,-14.24319 9.95023,-21.39319 12.65011,-25.5316 13.0193,-26.71721 14.80406,-47.54183 0.96911,-11.30765 0.98707,-17.35954 0.0807,-27.21106 -1.34577,-14.62779 -2.34774,-19.36613 -6.30835,-29.83221 -1.5787,-4.17181 -2.87037,-7.94114 -2.87037,-8.3763 0,-1.01592 -6.0081,-12.87737 -6.85762,-13.5386 -0.35331,-0.275 -2.77119,-3.67972 -5.37306,-7.56604 -2.60187,-3.88632 -7.04397,-9.25626 -9.87132,-11.9332 l -5.14064,-4.86716 -20.12868,1.19435 c -11.07077,0.6569 -23.01152,1.66049 -26.53498,2.23021 -8.96934,1.45029 -9.36432,1.1714 -8.9441,-6.3153 l 0.3504,-6.24286 -6.5,0.0372 c -5.30552,0.0304 -7.16917,0.50479 -10.14144,2.58163 -9.73135,6.79966 -39.15359,12.77663 -75.6745,15.37287 -2.37376,0.16875 -4.56593,0.55682 -4.87149,0.86238 -0.30556,0.30555 0.62411,2.56851 2.06594,5.0288 1.44182,2.46028 2.62149,4.97383 2.62149,5.58566 0,0.61183 0.94495,2.39053 2.09988,3.95267 1.87463,2.53556 2.09425,4.16483 2.04733,15.18832 -0.059,13.86905 -0.54569,14.89047 -7.09456,14.89047 l -3.56508,0 0.0766,6.75 c 0.0564,4.97464 -0.68519,8.98564 -2.81965,15.25 -4.44711,13.05163 -4.64053,14.39568 -4.088,28.40632 0.55594,14.09689 0.83064,15.90098 4.73446,31.09368 5.48278,21.33765 4.39607,42.93332 -2.98036,59.2271 -2.84376,6.28157 -4.89748,6.18019 -5.86769,-0.28964 -0.87759,-5.85218 -4.92489,-10.83857 -7.62459,-9.39373 -2.28264,1.22162 -2.3813,3.08752 -0.44714,8.45627 1.88265,5.22575 1.77277,11.78949 -0.30133,18 -1.57763,4.72393 -1.89069,5.02761 -5.66983,5.5 -5.57252,0.69657 -37.17507,-0.33572 -38.07991,-1.24387 -0.40764,-0.40913 -0.053,-1.53413 0.78815,-2.5 0.84112,-0.96587 2.93934,-5.45665 4.66271,-9.97951 1.72337,-4.52285 3.98917,-9.92285 5.03511,-12 1.1762,-2.33582 2.31126,-7.85147 2.9752,-14.45762 0.59042,-5.87456 2.04919,-13.97456 3.24173,-18 3.31898,-11.2034 4.45673,-30.81363 2.96183,-51.05017 -1.11851,-15.14132 -1.55404,-17.50824 -4.58344,-24.90891 -1.84111,-4.49776 -3.91544,-11.03511 -4.6096,-14.52745 -1.13381,-5.70415 -1.47205,-6.28717 -3.32695,-5.73459 -2.69838,0.80386 -5.0342,3.70595 -8.14992,10.12573 -2.48252,5.11501 -12.4771,15.27639 -15.02567,15.27639 -1.74777,0 -6.27976,5.69255 -7.02746,8.82707 -0.35068,1.47011 -0.94907,3.12293 -1.32977,3.67293 -1.37775,1.99046 -9.05987,24.35521 -11.02055,32.08383 -1.10455,4.35389 -2.54857,13.19155 -3.20894,19.63924 -1.03623,10.11756 -0.97714,12.92509 0.43147,20.5 2.46035,13.23063 0.23287,20.1794 -7.79165,24.30657 -5.39257,2.77349 -7.59498,2.32039 -8.6578,-1.78117 -0.46297,-1.78666 -1.32704,-3.24847 -1.92016,-3.24847 -0.63552,0 -0.78179,0.7187 -0.35616,1.75 2.15874,5.23065 2.36206,8.91786 0.77179,13.99609 -2.82552,9.02278 -2.70535,8.97903 -26.92047,9.80162 -20.85582,0.70847 -21.14933,0.69008 -21.80195,-1.36613 z m 20.48859,-11.76531 c 2.78199,-5.03973 4.52071,-7.24934 5.18314,-6.58691 0.66244,0.66244 0.12025,2.91152 -1.61627,6.70458 -1.4372,3.13926 -2.61309,6.10337 -2.61309,6.5869 0,0.48354 4.23486,0.87916 9.41079,0.87916 l 9.4108,0 2.0892,-4.31572 c 2.50688,-5.17852 2.52461,-5.55563 0.49924,-10.61753 -1.88397,-4.70851 -8.81096,-9.62995 -14.91913,-10.59964 -3.98512,-0.63265 -3.99835,-0.62366 -9.13005,6.19966 -4.80728,6.39196 -11.36085,17.15844 -11.36085,18.66409 0,0.36803 1.99348,0.66914 4.42995,0.66914 l 4.42996,0 z m 98.92589,0.65239 c 1.43877,-3.53724 3.15863,-6.61224 3.82192,-6.83334 1.75836,-0.58612 1.48016,1.95921 -0.79403,7.26468 -1.1,2.5662 -2,5.0785 -2,5.58291 0,1.27975 21.72259,1.17496 22.51589,-0.10862 1.30351,-2.10913 1.66482,-11.61582 0.58811,-15.47429 -1.9479,-6.98042 -3.62484,-8.18909 -12.19514,-8.78973 l -7.59114,-0.53201 -5.16404,12.16087 c -2.84022,6.68848 -5.1617,12.53137 -5.15886,12.98419 0.003,0.45283 0.76032,0.67783 1.68326,0.5 0.99475,-0.19166 2.74331,-2.94222 4.29403,-6.75466 z m 312.5416,2.68134 c 1.86187,-6.46002 3.90596,-10.75 5.12215,-10.75 1.70114,0 1.74114,-0.40887 -0.63586,6.5 -1.1,3.19721 -2,5.96765 -2,6.15655 0,0.1889 4.67252,0.34345 10.38337,0.34345 12.10517,0 11.5803,0.54944 11.60298,-12.14641 0.0134,-7.48771 -0.0587,-7.70993 -3.47226,-10.70707 -3.05487,-2.68222 -11.56719,-6.14652 -15.10292,-6.14652 -1.67029,0 -10.14502,9.55798 -12.40825,13.99428 -1.00977,1.97931 -2.13781,5.37782 -2.50675,7.55223 -0.36894,2.17442 -0.88684,4.74099 -1.15088,5.70349 -0.41076,1.49734 0.24181,1.75 4.51993,1.75 4.32638,0 5.08737,-0.30313 5.64849,-2.25 z m -104.80818,-3.25 c 1.24277,-2.2 2.43619,-4.45 2.65203,-5 0.25026,-0.63771 0.8241,-0.59551 1.58393,0.11649 0.91512,0.85751 0.71302,1.90134 -0.87126,4.5 -1.13451,1.86093 -2.06444,3.72101 -2.06649,4.13351 -0.002,0.4125 5.34167,0.75 11.87494,0.75 l 11.87868,0 1.2495,-3.01657 c 1.47358,-3.55753 0.83298,-11.26421 -1.13396,-13.64202 -2.13686,-2.58323 -10.98318,-6.32082 -14.98606,-6.33164 -6.00769,-0.0162 -14.17647,9.9265 -16.37342,19.92912 -0.65114,2.96461 -0.52062,3.19887 1.61201,2.89344 1.47785,-0.21165 3.14104,-1.78486 4.5801,-4.33233 z m 46.43073,-15.37164 c 1.19631,-3.12906 -0.50734,-5.12836 -4.37,-5.12836 -2.90526,0 -2.97026,0.10487 -2.32423,3.75 1.32123,7.45496 1.45452,7.65235 3.7633,5.57303 1.11331,-1.00267 2.43223,-2.89027 2.93093,-4.19467 z m -312.64661,-2.10834 c 0.83069,-1.60639 1.51035,-4.12556 1.51035,-5.59817 0,-2.55999 -0.17408,-2.64963 -3.96747,-2.04304 -2.1821,0.34893 -5.05763,1.13113 -6.39005,1.73823 l -2.42259,1.1038 3.01863,4.85595 c 2.56453,4.12547 3.29859,4.70612 4.8797,3.85994 1.02359,-0.54781 2.54074,-2.31033 3.37143,-3.91671 z m 299.85086,-1.39453 c 6.30568,-5.34631 8.32607,-6.03239 12.05827,-4.09471 1.59433,0.82775 3.02617,1.3776 3.18186,1.22191 0.24982,-0.24982 1.07356,-7.3292 5.4203,-46.58315 2.51482,-22.71052 11.80087,-51.84431 21.32348,-66.89967 1.47157,-2.32657 2.67558,-4.65565 2.67558,-5.17573 0,-0.52008 -10.66855,-11.82262 -23.70789,-25.11676 -13.03934,-13.29414 -26.42684,-27.71046 -29.75,-32.03625 l -6.04211,-7.86508 -7.95295,-0.038 -7.95295,-0.038 3.53749,3.75 c 14.97824,15.87805 25.47076,37.88798 29.46083,61.79935 2.06949,12.40189 2.09208,38.38677 0.044,50.59391 -1.6761,9.99 -6.29773,22.13742 -15.19791,39.94603 -6.56822,13.14242 -11.43851,24.40659 -11.43851,26.45526 0,0.65988 1.84129,1.49422 4.09177,1.85408 4.29357,0.68657 11.33034,3.85726 12.3994,5.58703 1.0878,1.7601 2.54692,1.13547 7.84934,-3.36022 z M 406.70171,523.59106 c 1.64428,-0.61779 4.42699,-0.85359 6.1838,-0.52401 3.15622,0.59211 3.2026,0.5432 3.9009,-4.11337 1.29387,-8.62818 -0.2385,-24.18913 -3.63334,-36.89578 -2.88356,-10.79297 -3.24303,-13.74092 -3.69144,-30.27225 -0.49241,-18.15378 -0.47446,-18.35606 2.04028,-23 3.15069,-5.81836 4.71021,-14.05225 4.71021,-24.86881 0,-9.17877 0.10497,-9.29381 6.74312,-7.39001 3.97383,1.13968 5.02204,-0.1096 2.86025,-3.40892 -1.09394,-1.66955 -2.6863,-2.48892 -5.2589,-2.70602 -6.23587,-0.52625 -5.36437,-2.81139 1.0722,-2.81139 3.28516,0 5.58333,-0.43867 5.58333,-1.06574 0,-2.65235 -2.23866,-4.75344 -5.7229,-5.3712 -6.08878,-1.07956 -7.2771,-1.60822 -7.2771,-3.23744 0,-0.89393 0.57544,-1.31878 1.37215,-1.01305 0.75468,0.2896 3.45468,0.83883 6,1.22053 5.48665,0.82277 6.43642,-1.63249 2.45125,-5.93032 -1.40338,-1.51348 -7.89543,-0.58172 -7.55178,-1.13776 0.34365,-0.55603 3.6095,-2.41744 6.07236,-2.86335 l -7.30245,-12.35237 -7.77076,-1.24517 c -4.27392,-0.68485 -8.89577,-1.40652 -10.27077,-1.60372 -2.02507,-0.29044 -3.26432,0.63483 -6.52333,4.87052 -2.21283,2.87599 -6.79719,7.02907 -10.18747,9.22907 -3.39028,2.2 -6.19228,4.35899 -6.22667,4.79775 -0.11968,1.52685 5.39722,5.8442 8.17889,6.40053 1.54011,0.30803 3.03297,0.93668 3.31748,1.39702 0.76836,1.24324 -7.23496,6.7074 -12.6318,8.62419 l -4.70694,1.67175 3.13992,3.90723 c 3.06905,3.81904 3.14104,4.14754 3.18954,14.55438 0.0433,9.29407 0.40113,11.49203 2.81561,17.2954 2.53083,6.08304 3.04657,6.68101 6.06625,7.03354 9.29677,1.08535 12.75524,-2.77351 13.53556,-15.1026 0.34461,-5.44493 0.9747,-8.56659 1.78296,-8.83333 0.92991,-0.30689 1.24438,1.59335 1.22804,7.42081 -0.0374,13.33098 -4.39788,19.33333 -14.04501,19.33333 -3.85515,0 -4.11558,0.16803 -3.48718,2.25 0.37352,1.2375 0.93787,14.85921 1.25411,30.27046 l 0.575,28.02046 -2.66206,9.25313 c -2.84306,9.88231 -5.25294,24.89925 -4.16961,25.98257 0.3606,0.3606 4.34588,0.91076 8.85617,1.22258 l 8.20054,0.56694 4.5,-4.22617 c 2.475,-2.3244 5.84532,-4.73163 7.48959,-5.34941 z m 8.51041,5.45042 c 0,-3.32288 -0.13157,-3.44098 -3.83333,-3.44098 -2.10834,0 -4.09104,0.2577 -4.40601,0.57268 -0.77241,0.77241 6.51129,7.37728 7.47718,6.78032 0.41919,-0.25907 0.76216,-2.01948 0.76216,-3.91202 z m 313,-2.56342 c 0,-2.59031 -0.3303,-2.87756 -3.30887,-2.87756 -1.81988,0 -4.154,0.61798 -5.18694,1.37328 -1.82271,1.3328 -1.8175,1.3925 0.17698,2.02553 1.13029,0.35874 2.85772,1.53917 3.83874,2.62319 2.2786,2.51782 4.48009,0.97266 4.48009,-3.14444 z m -185,-181.909 c 5.775,-0.53026 18.6,-1.00565 28.5,-1.05643 l 18,-0.0923 -4.45628,-1.95651 c -11.3353,-4.97672 -19.55022,-6.31012 -39.04372,-6.33742 l -18.5,-0.0259 -0.52776,5.25 -0.52776,5.25 3.02776,-0.0337 c 1.66527,-0.0185 7.75276,-0.46749 13.52776,-0.99774 z M 83.712123,267.0034 c 7.22023,-2.98668 10.317616,-3.73196 15.662966,-3.76878 6.448641,-0.0444 6.710521,-0.1456 8.141281,-3.14594 1.2451,-2.611 1.27166,-3.59151 0.16841,-6.21538 -2.6853,-6.38644 -8.604416,-6.55286 -17.28669,-0.48603 -14.634648,10.2261 -19.357918,12.45183 -25.568127,12.04837 -5.705222,-0.37066 -6.420876,-0.0518 -5.057437,2.25354 2.965267,5.0137 10.696646,4.79223 23.939597,-0.68578 z M 195.60211,216.35877 c 1.75628,-0.90926 1.68554,-1.10705 -1,-2.79594 -1.5895,-0.99961 -4.12749,-2.12384 -5.63999,-2.49831 -2.6679,-0.66051 -2.75,-0.55683 -2.75,3.47289 l 0,4.15372 3.75,-0.67694 c 2.0625,-0.37232 4.60049,-1.11726 5.63999,-1.65542 z m 30.81279,-16.73682 c 3.90412,-4.08993 6.06224,-7.3221 6.84248,-10.24782 3.54664,-13.2991 10.94875,-20.78284 25.51196,-25.79332 6.2777,-2.15984 22.34373,-5.46932 31.44278,-6.47696 52.99162,-5.86839 93.87213,-17.55863 115.5,-33.02852 11.46343,-8.19952 23.01371,-22.59489 30.46951,-37.974831 5.62797,-11.609449 7.41295,-18.346919 7.35792,-27.772722 -0.0368,-6.303239 -1.04102,-9.790469 -2.02706,-7.039106 -2.16825,6.050129 -19.61802,30.876527 -28.01617,39.859594 -8.3212,8.900765 -14.17205,10.987235 -16.4976,5.883221 -1.26077,-2.767092 -0.77936,-5.845777 3.18422,-20.363358 3.44761,-12.627728 2.41548,-20.192837 -3.62614,-26.578094 l -2.82864,-2.989535 -0.68314,8 c -1.40965,16.507841 -7.99174,30.626779 -17.94602,38.495182 -9.80841,7.753109 -13.25144,4.793759 -14.22347,-12.225338 -0.75465,-13.213034 -2.47059,-19.823125 -6.64015,-25.579036 -2.75684,-3.805707 -10.54235,-9.005049 -11.72031,-7.82709 -0.27678,0.276782 0.18878,3.345674 1.03459,6.819761 3.30124,13.559569 2.9524,29.188577 -0.82936,37.158047 -2.40858,5.075692 -8.87887,12.155165 -12.46796,13.641815 -2.54845,1.0556 -3.41143,1.00345 -5.44508,-0.32904 -2.98609,-1.95657 -4.05366,-5.14211 -6.4463,-19.235289 -1.03469,-6.094544 -2.68328,-12.305044 -3.66355,-13.801112 -1.78341,-2.721834 -7.22103,-6.215496 -8.18054,-5.255986 -0.28016,0.280162 0.0464,3.619607 0.72579,7.420987 1.5056,8.424821 0.56644,20.217099 -1.61013,20.217099 -0.80346,0 -1.42465,0.977288 -1.43018,2.25 -0.0355,8.172901 -15.96842,28.750001 -22.26125,28.750001 -0.25783,0 -1.00996,-2.8125 -1.67142,-6.25 -2.57996,-13.40767 -7.39945,-19.750001 -15.0079,-19.750001 -2.96945,0 -3.05005,0.124932 -3.06444,4.750001 -0.0202,6.4734 -2.44026,16.24106 -5.53927,22.35666 -3.85369,7.60489 -10.31073,13.44079 -20.03293,18.10582 -8.50487,4.08093 -8.51507,4.08295 -14.212,2.82457 -22.897,-5.05769 -34.05111,-22.2909 -34.16613,-52.787051 -0.0192,-5.0875 -0.39661,-9.25 -0.83872,-9.25 -1.80712,0 -7.21306,6.796405 -8.65364,10.879452 -1.99453,5.653109 -1.96608,16.363509 0.0672,25.303209 1.88687,8.29597 1.35225,13.15888 -1.82014,16.55575 -5.42486,5.80874 -12.74216,7.09166 -27.53761,4.82807 -20.95264,-3.20558 -33.39756,-9.71481 -49.40354,-25.84018 l -7.172797,-7.2263 0.626348,3.91662 c 1.609495,10.06434 12.066439,23.43922 25.281499,32.33611 13.22119,8.90102 24.28848,13.91801 36.91651,16.73489 24.76632,5.5245 42.1213,12.35752 46.29282,18.22643 2.43247,3.42224 4.19417,9.53054 4.2016,14.56807 0.003,2.08016 0.66059,5.34977 1.46115,7.26579 3.04501,7.28772 9.60165,6.05438 18.74721,-3.52646 z m -43.45278,-21.17098 c 3.4375,-0.58068 6.25,-1.40745 6.25,-1.83726 0,-1.1996 -12.41051,-5.51931 -23,-8.0056 -5.225,-1.22677 -13.6028,-3.24223 -18.61733,-4.47882 -8.69217,-2.14349 -9.41256,-2.1762 -15.44847,-0.70164 -5.76988,1.40957 -7.037,1.40073 -14.29338,-0.0997 -4.94779,-1.02309 -11.57681,-3.46006 -17.50962,-6.43691 -5.251068,-2.63478 -9.973875,-4.96389 -10.495131,-5.17579 -2.989889,-1.21546 6.776102,8.63667 12.295521,12.40397 19.45473,13.27891 52.43228,19.12693 80.81841,14.33178 z m 65.78486,0.0504 c 1.56823,-1.19514 14.31128,-5.54666 19.96514,-6.81774 11.7617,-2.64423 31.78712,-3.12935 34.09061,-0.82586 0.31429,0.31429 0.0656,1.51665 -0.55271,2.67192 -0.90353,1.68825 -0.8188,2.21765 0.43171,2.69752 0.85572,0.32837 2.11263,0.15071 2.79312,-0.39482 0.6805,-0.54552 4.83727,-1.313 9.23727,-1.70551 8.15866,-0.72782 12.28573,-2.42216 16.06093,-6.5937 1.63262,-1.80403 13.06502,-9.75027 19.93907,-13.85893 2.33919,-1.39814 2.78937,-1.46251 -12.5,1.78718 -9.53314,2.02622 -25.02779,4.64429 -32.5,5.49139 -2.2,0.2494 -7.375,0.96158 -11.5,1.58261 -4.125,0.62103 -10.875,1.59656 -15,2.16785 -8.30397,1.15005 -19.87595,4.29036 -24.5,6.64861 -5.72314,2.91879 -13.09963,10.11637 -8.79091,8.57769 0.985,-0.35175 2.2566,-0.99444 2.82577,-1.42821 z m -79.33489,-38.70084 c 0.47083,-0.47083 -0.37862,-3.05696 -1.89564,-5.77121 -2.29053,-4.09819 -2.74877,-6.12188 -2.74877,-12.139 l 0,-7.22091 -2.40666,2.21554 c -1.32366,1.21855 -3.02366,3.6636 -3.77778,5.43343 -1.44161,3.3833 -1.90679,17.40063 -0.62112,18.71627 0.92538,0.94696 10.27683,-0.061 11.44997,-1.23412 z m 5.2633,-9.78336 c -0.12623,-3.15018 -2.76376,-12.41667 -3.53417,-12.41667 -1.2422,0 -1.1874,8.19042 0.077,11.51618 0.91514,2.407 3.54493,3.09198 3.45712,0.90049 z M 298.99971,103.8505 c 1.11863,-2.6125 2.18654,-6.31511 2.37314,-8.228021 0.30462,-3.122766 -0.0377,-3.682108 -3.35131,-5.476089 -4.49467,-2.433404 -5.37021,-1.775131 -3.83322,2.882001 0.64654,1.959043 1.25389,6.263011 1.34967,9.564379 0.0958,3.30136 0.45622,6.00366 0.80099,6.0051 0.34477,0.001 1.54209,-2.13487 2.66073,-4.74737 z m 41.85841,-15.993124 1.68667,-4.416485 -2.91633,-2.384233 c -3.52159,-2.879054 -5.94678,-3.22767 -4.91248,-0.706159 0.39481,0.9625 0.95859,4.859839 1.25286,8.660754 0.46998,6.070638 0.69716,6.689008 1.86881,5.086682 0.73359,-1.003241 2.0928,-3.811492 3.02047,-6.240559 z m 42.31509,-8.283233 1.85137,-3.526356 -3.28658,-2.154407 -3.28659,-2.154408 -0.65452,5.180764 c -0.35999,2.84942 -0.8909,6.755763 -1.17979,8.680763 l -0.52527,3.5 2.61501,-3 c 1.43825,-1.65 3.44812,-4.58686 4.46637,-6.526356 z m 41.90817,-9.419425 c 1.72191,-2.720179 3.13074,-5.498153 3.13074,-6.173274 0,-1.365754 -4.78323,-7.380945 -5.86926,-7.380945 -0.38032,0 -1.21839,4.406057 -1.86239,9.791237 -0.64399,5.38518 -1.48817,10.67268 -1.87595,11.75 -0.94704,2.631065 2.25505,-1.317632 6.47686,-7.987018 z M 103.84456,240.46345 c -4.231338,-1.88151 -7.335154,-2.34989 -17.678556,-2.66775 l -12.546119,-0.38556 -1.166171,2.55947 c -0.898905,1.97288 -0.888335,2.73822 0.04612,3.33942 0.666759,0.42898 8.18729,1.00755 16.71229,1.28571 16.889456,0.5511 18.880406,1.12171 22.049776,6.31958 2.59093,4.24922 2.45369,7.15136 -0.58325,12.33351 -2.09188,3.56952 -3.80695,4.91142 -9.8396,7.69868 -6.653918,3.0743 -9.419761,5.52782 -7.921011,7.02657 0.312462,0.31246 3.318956,0.29947 6.681099,-0.0289 4.915162,-0.48001 6.721442,-1.17096 9.218202,-3.52619 2.72207,-2.56778 8.26119,-11.78219 7.32005,-18.31751 -0.94114,-6.53532 -6.2798,-12.96327 -12.29283,-15.63703 z m 117.47986,20.16045 c 0,0 -11.13693,22.80419 -32.88046,23.33452 -21.74354,0.53033 -24.39519,-26.5165 -24.39519,-26.5165 -10.07627,-1.59099 -33.41079,1.06066 -33.41079,1.06066 9.54594,-6.36396 35.53211,-3.71231 35.53211,-3.71231 0,6.89429 4.24264,24.39518 18.03123,25.45584 13.78858,1.06066 26.5165,-5.83363 34.47145,-21.74353 7.95495,-15.9099 10.6066,-41.89608 10.6066,-41.89608 0,0 6.36397,-1.06066 17.5009,-17.50089 11.13693,-16.44023 28.63782,-19.09188 28.63782,-19.09188 -15.37957,6.36396 -29.16815,24.92551 -29.16815,24.92551 l 10.53568,-0.59287 c 10.41555,-2.15688 32.63609,-17.31605 36.50851,-24.90662 1.13163,-2.21818 1.80019,-4.29038 1.48569,-4.60488 -0.3145,-0.3145 -5.63339,-0.0751 -11.81976,0.53213 -11.76682,1.15487 -24.58317,4.6146 -33.17005,8.95414 -6.33742,3.20273 -15.57789,9.33641 -15.57789,10.34035 0,1.71614 -10.54981,12.17885 -14.11336,13.99684 -6.88763,3.51381 -13.52833,1.79718 -15.35885,-3.97028 -1.31206,-4.13393 -19.08197,-4.15218 -26.42149,-0.0271 -4.2453,2.386 -8.1063,8.4613 -8.1063,12.75531 0,3.47632 2.35734,2.54983 5.74659,-2.25854 5.70103,-8.08812 12.32074,-9.42547 20.35086,-4.11139 5.26854,3.48655 6.58561,6.11828 3.80634,7.6057 -6.04019,3.23261 -65.85632,6.32564 -90.0338,3.44851 0,0 -3.33211,5.24321 -19.83211,5.99321 0,0 0,-1.875 4.5,-2.25 4.5,-0.375 12.75,-4.5 15,-8.25 0,0 2.625,-1.5 3,2.25 0,0 45.2026,0.62492 51.2888,-0.0625 l 0,-4e-5 c 1.41136,-0.2077 2.3779,-1.25653 2.76461,-3 0.32703,-1.47437 0.77828,-3.37422 1.00278,-4.22188 0.36469,-1.37705 -0.63049,-1.4 -9.34295,-0.21551 -12.86834,1.74949 -24.10514,0.92408 -31.12196,-2.28612 -7.50036,-3.43142 -13.43326,-3.28435 -19.36924,0.48014 -2.54741,1.61552 -5.33287,4.00751 -6.18993,5.31553 -0.98863,1.50885 -3.662383,3.0248 -7.314128,4.14695 -7.212141,2.21622 -15.219568,7.4118 -17.489923,11.34825 l -1.734064,3.0066 11.734064,0.5034 c 7.26249,0.31157 13.499751,1.14116 16.367471,2.17697 8.06297,2.91224 15.88151,12.24124 15.85561,20.16511 -0.0259,7.92387 -3.11689,13.23308 -6.3344,17.04417 -1.46004,1.72943 -2.65462,3.47445 -2.65462,3.87784 0,1.12807 7.82522,-0.38216 11.35498,-2.19146 1.72976,-0.88665 4.36939,-2.63367 5.86583,-3.88227 5.37357,-4.48359 14.98796,-5.00234 22.27919,-1.20209 8.65447,4.51079 13.24036,15.75103 10.09922,24.75366 -2.04813,5.87002 -2.11999,5.6592 1.77394,5.2046 l 3.37316,-0.3938 0.47479,8.8446 c 0.43425,8.08914 2.92581,17.3446 4.66915,17.3446 0.37021,0 1.24648,-1.9125 1.94727,-4.25 1.40043,-4.67116 5.94493,-11.85232 7.91247,-12.50317 0.90618,-0.29976 1.25,1.2215 1.25,5.53078 0,3.57024 0.99648,9.08396 2.49504,13.80559 1.37227,4.32372 2.78025,10.01129 3.12883,12.63905 0.66166,4.98781 1.73165,5.72821 5.42311,3.75261 1.05352,-0.56383 2.54103,-2.21902 3.30558,-3.67821 1.22337,-2.3349 0.89469,-7.77246 -1.51994,-13.08882 -3.159,-6.95528 0.70166,-20.6014 2.49276,-20.00436 0.66223,0.22074 -2.10994,13.68049 -1.1196,17.50229 0.99032,3.8218 2.59226,8.58257 3.41516,9.83847 1.5751,2.40391 7.05734,5.45577 9.80051,5.45577 1.4459,0 1.41799,-0.40135 -0.26079,-3.75 -3.41085,-6.80358 -3.78994,-24.25 -0.52692,-24.25 1.07317,0 1.259,1.17829 0.82796,5.25 -0.30567,2.8875 -0.18362,5.79135 0.27123,6.453 1.07109,1.55802 9.26707,2.91928 9.26707,1.53912 0,-0.55743 -0.67223,-2.30244 -1.49384,-3.87781 -3.34536,-6.41444 -1.03684,-14.68651 5.00696,-17.94131 5.59593,-3.0136 12.46386,-1.63301 27.30202,5.48828 16.09937,7.72658 20.66616,8.41362 33.91395,5.10209 8.66793,-2.16671 9.15346,-2.1859 14.37096,-0.56824 2.96997,0.92083 5.84995,1.86397 6.39995,2.09588 0.55,0.23191 2.07702,-2.06515 3.39338,-5.10456 1.31635,-3.03942 5.23096,-9.49286 8.69913,-14.34097 8.84747,-12.36778 16.18783,-23.452 15.85579,-36.70501 z m 99.95653,34.88085 c -3.79724,5.28188 -8.07653,11.93771 -9.50953,14.79075 -5.55286,11.0555 -5.95692,27.03747 -0.93454,36.96403 4.46924,8.8333 5.55781,8.34121 7.54137,-3.40903 0.78852,-4.67107 1.68808,-7.25 2.52887,-7.25 1.83283,0 1.62868,3.43334 -0.7486,12.59004 -1.80136,6.93838 -1.90738,8.61634 -0.86316,13.66087 1.97631,9.54744 0.79732,17.40592 -3.88625,25.90347 -4.00892,7.27351 -6.16574,15.69747 -7.56602,29.55083 -0.49107,4.8583 -0.32457,5.37482 2.49817,7.75 4.03051,3.39145 11.10081,3.52148 15.97298,0.29375 4.56067,-3.02137 8.89788,-11.67191 8.89788,-17.74677 0,-6.19445 -2.25022,-13.43054 -6.02912,-19.38805 -4.10592,-6.47304 -2.42098,-8.58213 1.87173,-2.34291 4.98108,7.23976 6.64212,12.42234 6.65012,20.74945 0.009,8.97073 -2.79416,15.47937 -8.73737,20.2896 -4.72173,3.82162 -12.66576,4.82165 -17.68472,2.22625 -1.79108,-0.9262 -3.37143,-1.53832 -3.5119,-1.36027 -0.14046,0.17806 -0.77482,4.14874 -1.40969,8.82374 -2.86903,21.12698 -9.29768,40.82469 -18.68649,57.25632 -6.77311,11.85381 -9.46256,19.34392 -9.46256,26.35318 0,7.15977 1.42402,9.8969 5.85237,11.24894 2.0062,0.61252 5.44763,2.2309 7.64763,3.59641 2.2,1.3655 4.26058,2.49674 4.57906,2.51394 0.31849,0.0172 1.62401,-2.1998 2.90117,-4.92658 l 0,0 c 2.44494,-5.22004 5.3741,-7.29482 12.0389,-8.52736 l 3.51912,-0.65081 -0.35774,-13.68202 c -0.52222,-19.97261 2.63218,-33.70802 14.7397,-64.18202 3.915,-9.85385 7.55618,-14.98063 10.64979,-14.99503 2.10919,-0.01 9.53889,-7.29926 11.581,-11.36242 1.14511,-2.2784 2.74738,-4.90026 3.56059,-5.82635 0.81322,-0.9261 2.07002,-3.4011 2.7929,-5.5 1.16207,-3.37411 1.70133,-3.82345 4.65492,-3.87895 3.19568,-0.06 9.84059,-2.82513 9.84059,-4.0949 0,-1.56546 -4.4709,-7.56957 -7.32121,-9.83187 -2.64617,-2.10028 -2.92746,-2.68696 -1.67879,-3.50144 0.825,-0.53813 2.85,-0.99519 4.5,-1.01569 3.22764,-0.0401 10.8462,-3.12646 11.89115,-4.81723 0.35084,-0.56767 -0.2935,-1.32774 -1.43187,-1.68905 -1.96916,-0.62498 -7.95928,-7.86254 -7.95928,-9.61678 0,-0.45631 1.9125,-1.79305 4.25,-2.97055 6.53188,-3.29038 12.40347,-8.49621 16.61584,-14.73185 6.09556,-9.02332 11.86676,-25.11286 10.68981,-29.80218 -0.19264,-0.76753 -8.75747,-3.97779 -10.81254,-12.33956 -3.039,-12.36519 4.37486,-23.43695 5.34355,-23.43695 1.5365,0 -13.36052,26.11386 8.91334,33.51233 0,3.49236 -3.12574,17.13363 -5.9081,23.42361 -2.55036,5.76552 -2.41823,5.90177 7.31555,7.54358 7.22118,1.21801 11.87313,1.00275 35.59255,-1.64698 29.87725,-3.33763 46.35117,-6.64246 55.24767,-11.08323 9.10686,-4.54577 18.00323,-18.98162 24.79766,-40.23837 2.02312,-6.32943 10.61544,-43.51889 11.31588,-43.75237 4.2835,-1.42783 -9.29435,57.48895 -21.59055,73.47251 -1.75694,2.28381 -2.7841,4.49962 -2.5649,4.71882 0.2192,0.21919 6.00008,-0.0866 12.84639,-0.67959 6.84632,-0.59301 19.42285,-0.84421 27.94785,-0.55831 16.58007,0.55605 27.28692,2.75518 39.3172,8.07554 3.12554,1.38226 5.6828,2.33349 5.6828,2.11384 0,-0.21965 -2.84988,-4.80739 -6.33306,-10.19497 -9.81109,-15.17522 -14.0823,-23.28025 -12.89435,-24.4682 0.70194,-0.70194 1.89869,0.50674 3.78536,3.82307 5.84907,10.28129 7.02336,12.18864 14.371,23.34213 11.47991,17.42615 18.40965,25.53585 44.75234,52.37259 l 24.18128,24.6348 6.10855,0 c 10.37573,0 17.02888,-5.17824 17.02888,-13.25381 0,-6.41485 -7.68577,-14.9909 -18.25,-20.36398 -2.6125,-1.32875 -4.75,-3.08332 -4.75,-3.89906 0,-1.84986 -0.16834,-1.86613 4.61791,0.44633 6.12558,2.95956 14.14144,9.34928 17.55979,13.99751 8.29175,11.27504 1.6949,24.67268 -12.73789,25.86956 -2.9919,0.24811 -5.43981,0.62674 -5.43981,0.84141 0,0.21466 2.10499,2.97144 4.67775,6.12617 5.47998,6.71955 11.3455,18.72124 14.2155,29.08689 4.12446,14.89642 5.39134,28.58028 4.92441,53.18963 l -0.43404,22.87589 4.85816,1.04189 c 5.16663,1.10805 10.17961,3.3382 12.94283,5.75797 1.53115,1.34083 1.91661,1.01737 4.23157,-3.55098 2.95353,-5.82852 5.59592,-7.97513 10.85935,-8.82184 2.86635,-0.4611 3.65858,-0.99701 3.28988,-2.22547 -7.3738,-24.56843 -15.05408,-62.95112 -20.53362,-102.61811 -3.16595,-22.91871 -6.31736,-30.42189 -14.82718,-35.30204 -11.6814,-6.69896 -17.41,-15.83955 -18.45565,-29.44796 l -0.51865,-6.75 2.7624,0 c 3.86994,0 5.26126,-1.97302 3.98104,-5.64546 -0.79836,-2.29019 -2.68045,-3.76047 -8.49959,-6.63985 -4.11079,-2.03408 -7.47416,-4.077 -7.47416,-4.53984 0,-2.12929 1.72469,-1.83504 8.11921,1.38518 6.82919,3.43915 6.88079,3.44795 6.88079,1.17505 0,-3.78561 -2.77281,-6.59552 -10.19865,-10.33512 -4.72697,-2.38046 -6.71922,-3.88209 -6.04498,-4.55633 0.67423,-0.67423 2.35004,-0.31983 5.08481,1.07535 2.24353,1.14456 4.54707,2.08102 5.11898,2.08102 1.17134,0 1.45807,-5.97683 0.28984,-6.04163 -0.4125,-0.0229 -2.48092,-1.57061 -4.59648,-3.43938 -4.87849,-4.30936 -3.97088,-6.76116 1.07746,-2.91061 l 3.55105,2.70852 -0.69453,-3.90845 c -0.38199,-2.14965 -2.27019,-7.26977 -4.19601,-11.37804 -4.26691,-9.10247 -5.50536,-17.66193 -4.38162,-30.28325 0.9448,-10.61146 2.03586,-17.74716 2.71357,-17.74716 1.08343,0 7.17535,4.80037 12.56919,9.90439 6.51471,6.16466 6.48322,5.12498 -0.18948,-6.25454 -17.31753,-29.53308 -48.74523,-53.76743 -77.50591,-59.7659 -8.16317,-1.70255 -10.24566,-1.77474 -20.28212,-0.70306 -21.89884,2.33834 -39.0904,-1.3256 -67.31512,-14.3465 -34.88329,-16.09269 -55.8097,-23.17091 -80.91425,-27.36869 -15.47063,-2.58687 -42.22306,-1.6481 -55.08575,1.93301 -12.10479,3.37011 -27.52988,11.00201 -36.5,18.05917 -14.4408,11.36117 -14.80186,11.55234 -23.74457,12.57231 -14.99899,1.71072 -22.39535,4.186 -28.25543,9.45601 l -4,3.59723 7.5,-0.58654 c 11.78928,-0.92198 25.25176,-2.42783 41.36263,-4.62665 l 14.86262,-2.02846 9.63738,-9.78586 c 8.47502,-8.6056 10.78315,-10.33415 19.13737,-14.33192 12.11703,-5.79839 20.97465,-7.93773 33.05195,-7.98283 16.65074,-0.0622 29.32301,4.50336 38.7976,13.97795 5.88947,5.88946 16.53736,12.27591 35.45837,21.2674 18.56012,8.82 33.27849,13.41117 51.44208,16.04655 5.7859,0.83949 8.78033,0.55001 8.78033,1.52131 0,1.62853 -0.13527,2.6724 -9.03033,1.42198 -22.26637,-3.13008 -46.65327,-11.92006 -70.21531,-25.30831 -4.51842,-2.56743 -8.40329,-4.66805 -8.63304,-4.66805 -0.22974,0 0.19983,1.79244 0.95461,3.9832 2.30085,6.67828 2.63665,13.99365 1.02015,22.22422 -1.69857,8.64842 -9.19062,25.79258 -11.27144,25.79258 -1.90294,0 -1.70635,-1.11624 1.07855,-6.12405 7.5646,-13.60261 10.04827,-30.7895 6.04187,-41.80944 -2.281,-6.27411 -9.6966,-14.93976 -15.89127,-18.57008 -13.61579,-7.97939 -33.58444,-9.15307 -51.66324,-3.03658 -16.31247,5.5189 -30.30315,17.51376 -39.12088,33.54015 -2.67933,4.86973 -6.8,16.08279 -6.8,18.50398 0,0.82281 -0.675,1.49602 -1.5,1.49602 -0.825,0 -1.5,-0.6892 -1.5,-1.53155 0,-2.34936 3.84086,-13.2209 6.58196,-18.63019 1.34845,-2.66104 2.10665,-4.82823 1.68489,-4.81603 -0.42177,0.0122 -6.61685,0.88799 -13.76685,1.94615 -7.15,1.05816 -21.775,2.69969 -32.5,3.64785 l -19.5,1.72392 -6.42842,3.82483 c -7.41775,4.41348 -16.01741,7.83502 -19.69243,7.83502 l -10.99298,-0.01 c 0,0 -5.3033,6.89429 -10.60661,10.07627 0,0 -1.59099,21.74393 -10.07627,38.71449 l 112.42763,1.25237 c 1.30202,16.38241 -6.14877,26.86389 -14.06209,37.87112 z m 272.86552,-94.10104 c 0,0 -16.57693,-7.48474 -30.75914,13.78858 -11.82305,17.73458 5.3033,51.97235 18.56155,57.80598 0,0 -25.45584,-35.00179 -16.44023,-54.09367 9.01561,-19.09188 28.63782,-17.50089 28.63782,-17.50089 z m 19.09189,80.07984 c 0,0 10.07627,10.07627 14.84924,22.80419 4.77297,12.72793 15.37957,14.31892 15.37957,14.31892 0,0 -20.15254,-12.72793 -16.97056,-41.89608 0,0 -3.71231,4.77297 -2.65165,11.66726 0,0 -2.65165,-4.77297 -10.6066,-6.89429 z"
           id="path6925"
           inkscape:connector-curvature="0"
           transform="translate(935.8125,58.65625)"
           sodipodi:nodetypes="csssssssssssssssssssssssssssscssssscssscsssssscsssssssssscssscsscsssssscssssssssscsssssssssssssssssssssssssssssssssscssssssscssccsssssssscsssssscsssssssssssscscssssssssscsssscsssssssssssssscccssssssssssscssscssscsssssccsssssssssscsssssssssssssssssssssccssssscsssssscsssssssscscsscssssssssssssccssscscssssscccssscccsssssscccscsssssscsssssscsssssssssscsssscsscssssssssssssssssssssssssssssssssssssssssssscsccssssscccscsscssssssssssssssssssssssscssssssssscssssssssssscsssssssscsssssssssscsscsssssssssssssscsscssssssssssssssssscsssscsscsssssssssscccssssszsccssssccccccsscsccssssssssscsszsssssssssssssssssssscsssssssscsssssssssscssscsscccsscssssccsscssccccscssssssccsssscsscssssssscsscscsssssssssssscsssssssssssssssscsssscscccsssssssscccsscscsssssssssccssscsssscscccssssscssssssssscscccccccscsccscccc" />
      </g>
    </g>
  </g>
</svg>
