<?xml version="1.0" encoding="UTF-8" standalone="no"?>
<!-- Created with Inkscape (http://www.inkscape.org/) -->
<svg
   xmlns:ns="http://creativecommons.org/ns#"
   xmlns:dc="http://purl.org/dc/elements/1.1/"
   xmlns:cc="http://web.resource.org/cc/"
   xmlns:rdf="http://www.w3.org/1999/02/22-rdf-syntax-ns#"
   xmlns:svg="http://www.w3.org/2000/svg"
   xmlns="http://www.w3.org/2000/svg"
   xmlns:sodipodi="http://sodipodi.sourceforge.net/DTD/sodipodi-0.dtd"
   xmlns:inkscape="http://www.inkscape.org/namespaces/inkscape"
   width="452.44345"
   height="524.17548"
   id="svg2023"
   sodipodi:version="0.32"
   inkscape:version="0.45.1"
   sodipodi:docname="herba.svg"
   sodipodi:docbase="C:\Documents and Settings\PD\Desktop"
   inkscape:output_extension="org.inkscape.output.svg.inkscape"
   version="1.0"
   inkscape:export-filename="C:\Documents and Settings\PD\Desktop\herba.png"
   inkscape:export-xdpi="90"
   inkscape:export-ydpi="90">
  <defs
     id="defs2025">
    <inkscape:perspective
       sodipodi:type="inkscape:persp3d"
       inkscape:vp_x="0 : 526.18109 : 1"
       inkscape:vp_y="0 : 1000 : 0"
       inkscape:vp_z="744.09448 : 526.18109 : 1"
       inkscape:persp3d-origin="372.04724 : 350.78739 : 1"
       id="perspective7" />
    <inkscape:perspective
       id="perspective2461"
       inkscape:persp3d-origin="372.04724 : 350.78739 : 1"
       inkscape:vp_z="744.09448 : 526.18109 : 1"
       inkscape:vp_y="0 : 1000 : 0"
       inkscape:vp_x="0 : 526.18109 : 1"
       sodipodi:type="inkscape:persp3d" />
  </defs>
  <sodipodi:namedview
     id="base"
     pagecolor="#ffffff"
     bordercolor="#666666"
     borderopacity="1.0"
     inkscape:pageopacity="0.0"
     inkscape:pageshadow="2"
     inkscape:zoom="0.69068223"
     inkscape:cx="367.54904"
     inkscape:cy="298.33698"
     inkscape:document-units="px"
     inkscape:current-layer="layer1"
     inkscape:window-width="1024"
     inkscape:window-height="708"
     inkscape:window-x="-4"
     inkscape:window-y="-4"
     showgrid="false" />
  <metadata
     id="metadata2028">
    <rdf:RDF>
      <ns:Work
         rdf:about="">
        <dc:format>image/svg+xml</dc:format>
        <dc:type
           rdf:resource="http://purl.org/dc/dcmitype/StillImage" />
      </ns:Work>
      <cc:Work
         rdf:about="">
        <dc:format>image/svg+xml</dc:format>
        <dc:type
           rdf:resource="http://purl.org/dc/dcmitype/StillImage" />
      </cc:Work>
    </rdf:RDF>
  </metadata>
  <g
     inkscape:label="Sluoksnis 1"
     inkscape:groupmode="layer"
     id="layer1"
     transform="translate(-96.562053,-22.909983)">
    <g
       id="g6087"
       transform="matrix(1.1542118,0,0,1.1542118,-14.891003,-3.5329885)">
      <path
         id="path3311"
         d="M 311.56409,473.44098 C 352.73088,469.32735 393.77765,451.60963 422.9325,425.36918 C 431.43904,417.7129 445.3344,402.49235 450.98453,394.64157 C 462.61472,378.4819 477.47364,343.39411 481.19767,327.78095 C 483.67683,317.38694 486.01857,309.13898 485.81459,303.03752 L 485.57468,25.638451 L 292.43258,25.638451 L 99.290518,25.638451 L 99.635767,166.63839 L 99.981016,307.63832 L 102.28231,319.94199 C 106.93902,344.83862 116.57678,368.37152 130.50009,388.84248 C 142.54775,406.55574 155.68234,420.44624 173.40464,434.21619 C 190.2679,447.31871 214.17666,459.30172 237.11574,466.14808 C 260.98155,473.27098 287.3832,475.85732 311.56409,473.44098 z "
         style="fill:#0000ff;fill-opacity:1;stroke:#000000;stroke-width:5.45693827;stroke-miterlimit:4;stroke-dasharray:none;stroke-opacity:1"
         sodipodi:nodetypes="cssscccccccsssc" />
      <path
         sodipodi:nodetypes="csscczzssssc"
         id="path3309"
         d="M 172.52358,409.00644 C 167.66882,407.18661 164.74368,403.92846 163.86236,399.3592 C 163.28285,396.35466 164.69848,393.72829 181.64962,366.3592 C 183.35284,363.6092 196.19195,344.12071 210.18098,323.05145 L 235.61559,284.74371 C 235.61559,284.74371 289.80073,198.34363 293.02359,192.14178 C 296.10227,186.21737 309.05106,194.49881 306.63405,198.74872 C 304.36777,202.73359 240.67176,314.5092 240.22684,314.69253 C 239.78193,314.87587 229.15231,335.27987 228.19289,335.69253 C 227.76665,335.87587 201.35643,383.99696 196.63371,392.10979 C 189.03989,405.15465 187.56932,407.09158 183.9167,408.85979 C 179.1031,411.19001 178.37372,411.1994 172.52358,409.00644 z "
         style="fill:#ffff00;fill-opacity:1;stroke:#000000;stroke-width:2.5;stroke-miterlimit:4;stroke-dasharray:none;stroke-opacity:1" />
      <path
         sodipodi:nodetypes="ccssccccccccsssssscccsscccssssssssssssssssssssssccccccccsssssssz"
         id="path3307"
         d="M 393.61367,357.7738 C 408.20997,363.50967 432.6542,369.88625 441.11624,372.00163 C 442.80723,374.54019 429.69095,385.81915 421.91795,391.37628 C 416.36905,395.34332 401.69735,403.81279 400.31805,403.84513 C 399.98815,403.85287 399.93705,400.45062 400.20435,396.28458 L 400.69045,388.70996 L 395.77975,391.73157 C 390.41985,395.02953 380.84995,399.61212 372.76615,402.75173 L 367.61435,404.75259 L 368.16695,396.68999 L 368.71955,388.62738 L 366.52255,389.80319 C 362.40895,392.00472 345.93275,397.57778 341.54905,398.25045 C 337.62944,398.85191 337.25159,398.73775 337.87388,397.14002 C 338.99165,394.27007 341.69105,381.79898 341.28275,381.39075 C 341.07735,381.18529 337.33033,381.86986 332.95612,382.91201 C 323.81548,385.08975 313.41791,386.43438 313.41791,385.43871 C 313.41791,385.06535 314.14236,383.35895 315.02779,381.64671 C 315.91323,379.93446 317.44173,376.19651 318.42447,373.34014 L 320.21126,368.14673 L 313.56459,369.54204 C 306.84279,370.95311 294.83264,371.60726 293.84165,370.61628 C 293.5454,370.32003 294.81054,367.66599 296.65306,364.71842 C 298.49558,361.77085 300.56499,358.05981 301.25173,356.47167 L 302.50036,353.58414 L 298.70914,354.22773 C 291.0117,355.53443 280.85367,356.02425 278.6968,355.19272 C 276.52698,354.3562 276.58965,354.175 281.40993,347.34781 C 284.12377,343.50408 286.36077,340.0217 286.38105,339.6092 C 286.40132,339.1967 282.87416,338.8592 278.54291,338.8592 C 270.04726,338.8592 264.41791,338.06059 264.41791,336.85535 C 264.41791,336.44074 265.99291,333.48596 267.91791,330.28918 C 272.40018,322.84563 272.37109,321.86296 267.66791,321.84442 C 264.12412,321.83045 252.08288,319.38821 250.38545,318.33914 C 249.95313,318.07195 251.60557,314.86166 254.05753,311.20514 C 256.50949,307.54863 258.15615,304.25837 257.71678,303.89346 C 257.2774,303.52855 253.09291,302.1779 248.41791,300.892 C 243.74291,299.6061 239.56531,298.36178 239.13435,298.12684 C 238.70339,297.8919 239.74603,296.11058 241.45134,294.16835 C 244.19717,291.04101 246.95639,285.93062 246.19589,285.38088 C 246.043,285.27036 242.99291,284.38171 239.41791,283.40609 C 233.95151,281.91431 227.98293,279.53963 226.55937,278.29015 C 226.36217,278.11707 228.04967,275.78284 230.30937,273.10297 C 234.5847,268.03269 235.39848,265.8592 233.02152,265.8592 C 231.57122,265.8592 217.62625,260.40087 216.69347,259.46809 C 216.40168,259.1763 218.12236,256.88166 220.51719,254.36888 C 226.95867,247.61015 227.0802,247.13706 222.68817,245.91737 C 220.61452,245.34151 218.49749,244.86784 217.98363,244.86478 C 217.46978,244.86171 215.12976,243.92994 212.78357,242.79417 L 208.51779,240.72914 L 213.07866,234.54417 L 217.63952,228.3592 L 213.27872,227.53924 C 210.88027,227.08827 206.98299,225.84572 204.61809,224.77804 L 200.31827,222.83678 L 204.93186,216.84108 C 208.08116,212.74832 209.12847,210.69978 208.23168,210.38665 C 191.66039,204.60059 191.81524,204.74012 193.92214,197.49265 C 195.12692,193.34834 194.26442,189.6111 193.77915,185.42998 C 193.26592,181.00797 193.06721,177.55257 194.29122,175.18559 C 196.19703,171.50017 207.91147,162.44422 216.90757,165.95262 C 221.41999,167.71243 234.02979,202.07863 243.53922,216.69122 C 286.17826,282.21219 294.38927,289.2072 328.76682,317.86486 C 355.62145,340.2513 379.15678,352.09271 393.61367,357.7738 z "
         style="fill:#ffffff;fill-opacity:1;stroke:#000000;stroke-width:2.5;stroke-miterlimit:4;stroke-dasharray:none;stroke-opacity:1" />
      <path
         sodipodi:nodetypes="csssccccccsssssssccc"
         id="path3301"
         d="M 338.4994,281.66907 C 337.84313,279.46907 335.63113,270.28637 335.31758,265.88637 C 334.24057,250.77276 338.77142,237.47181 351.60622,218.06896 C 355.23282,212.58647 359.49262,205.24993 361.07252,201.76554 C 367.26162,188.11586 362.97562,171.82002 351.23462,164.36005 L 345.13277,161.21198 L 350.94159,156.00067 C 352.57599,154.43476 352.26921,151.34202 353.14931,148.55002 L 353.80383,143.94651 L 362.26962,148.86211 C 368.08102,151.74251 372.75032,153.77772 380.90822,153.77772 C 389.7551,153.77772 393.79262,151.70303 398.55272,149.19168 C 405.07322,145.75155 413.00456,139.63498 417.60423,130.36446 C 431.87164,101.60881 425.12294,85.212138 431.60518,104.95852 C 445.96309,148.69597 442.80653,174.81487 404.22711,208.85079 C 397.76816,214.54907 387.06479,223.11373 378.88524,229.89328 C 373.19072,234.61313 368.95042,238.65587 367.75523,239.88764 C 356.72707,251.25341 352.5906,261.00998 349.8964,271.82435 L 346.31236,297.49001 L 338.4994,281.66907 z "
         style="fill:#ffffff;fill-opacity:1;stroke:#000000;stroke-width:2.5;stroke-miterlimit:4;stroke-dasharray:none;stroke-opacity:1" />
      <path
         sodipodi:nodetypes="csssssc"
         id="path3297"
         d="M 305.45332,196.88518 C 302.74983,194.32637 300.42017,192.42816 296.50207,191.64454 C 294.08185,191.1605 292.91988,191.92584 293.41791,186.72998 C 293.77086,183.04772 296.96371,179.32324 297.83,178.99081 C 302.05062,177.37121 313.72777,187.21517 313.72777,191.47427 C 313.72777,193.07652 308.0321,198.8592 306.91387,198.8592 C 306.71522,198.8592 305.79791,197.97089 305.45332,196.88518 z "
         style="fill:#ffffff;fill-opacity:1;stroke:#000000;stroke-width:2.5;stroke-miterlimit:4;stroke-dasharray:none;stroke-opacity:1" />
      <path
         sodipodi:nodetypes="cssssssssscccc"
         id="path3295"
         d="M 172.36131,194.19836 C 164.26502,193.12502 161.3468,184.86826 162.49286,180.54374 C 165.42713,169.47152 178.13248,161.32852 182.86794,158.17073 C 196.81547,148.86998 209.38425,144.92311 214.30177,143.65662 C 244.18723,135.98739 241.56152,148.34252 242.16199,152.18675 C 242.55265,154.68775 240.82865,157.80101 238.87462,161.45534 C 237.20112,164.58501 225.32283,177.12877 224.04309,177.12877 C 223.63254,177.12877 222.16696,173.42782 220.69864,170.92232 C 217.21915,164.98502 214.71636,164.52323 208.48736,166.07993 C 203.60455,167.3002 197.0419,172.22609 194.6262,175.14377 C 193.7654,176.18344 193.87148,179.10792 193.87148,184.35028 L 194.44362,192.24027 L 187.91791,193.50142 C 181.18045,195.07231 177.12709,195.10003 172.36131,194.19836 z "
         style="fill:#ffff00;fill-opacity:1;stroke:#000000;stroke-width:2.5;stroke-miterlimit:4;stroke-dasharray:none;stroke-opacity:1" />
      <path
         sodipodi:nodetypes="cssssssc"
         id="path3293"
         d="M 308.72669,188.28202 C 305.84898,185.2616 303.6007,184.45217 300.51682,183.62736 C 295.24072,182.21622 294.50693,182.17247 304.2772,168.05076 C 309.02717,161.18527 311.19194,158.8592 312.83141,158.8592 C 316.05815,158.8592 324.07495,164.2953 325.81742,167.66487 C 327.29414,170.52054 327.19542,170.80129 321.31435,180.47187 C 318.00726,185.9099 314.76516,190.88162 314.10969,191.52013 C 313.19827,192.40796 311.93195,191.64622 308.72669,188.28202 z "
         style="fill:#ffffff;fill-opacity:1;stroke:#000000;stroke-width:2.5;stroke-miterlimit:4;stroke-dasharray:none;stroke-opacity:1" />
      <path
         sodipodi:nodetypes="csssccc"
         id="path3289"
         d="M 325.08128,166.17363 C 322.29086,162.8285 316.67521,158.9492 310.28019,160.05498 C 310.11678,160.08324 312.65457,155.40605 313.00136,154.50233 C 314.07129,151.71412 317.76158,149.6455 324.97599,154.73231 C 331.34762,159.22489 332.1952,161.9985 330.37655,165.76594 L 326.55372,170.67895 L 325.08128,166.17363 z "
         style="fill:#ffffff;fill-opacity:1;stroke:#000000;stroke-width:2.5;stroke-miterlimit:4;stroke-dasharray:none;stroke-opacity:1" />
      <path
         sodipodi:nodetypes="cccssssssssssc"
         id="path3287"
         d="M 329.38245,159.15863 C 325.55922,154.99489 322.91217,154.19643 318.05301,153.37389 L 313.67643,153.39518 C 313.67643,153.39518 318.83164,145.14418 312.06195,136.83869 C 310.61388,135.06211 318.81351,131.86258 319.16286,129.67784 C 319.76582,125.90718 318.0539,123.84658 320.80717,124.4513 C 322.56235,124.8368 329.36989,125.35814 332.25036,124.32233 C 336.84882,122.66875 338.56311,121.73348 342.38266,123.68285 C 347.70266,126.39798 352.08669,123.59131 350.01969,128.31796 C 348.1772,132.5312 350.43228,139.92591 352.45665,141.91362 C 355.52211,144.92356 354.94115,148.91325 352.43125,153.83296 C 350.04115,158.51802 346.72579,162.15182 343.16325,160.8592 C 339.25376,159.44069 332.69387,162.43701 330.8448,164.62812 C 328.51424,167.38979 331.71892,162.75138 329.38245,159.15863 z "
         style="fill:#ffffff;fill-opacity:1;stroke:#000000;stroke-width:2.5;stroke-miterlimit:4;stroke-dasharray:none;stroke-opacity:1" />
      <path
         sodipodi:nodetypes="csssssscz"
         id="path3285"
         d="M 170.92332,131.0252 C 164.26513,116.2297 158.27826,101.84676 155.30036,95.282863 C 145.1463,72.901317 142.40987,65.091032 139.80645,61.056123 C 133.32958,51.01791 150.20993,47.374942 153.23629,51.338827 C 158.93999,58.809453 171.21969,81.332495 175.36707,89.113675 C 179.33903,96.56576 191.92076,120.6092 193.43074,123.3592 C 194.94072,126.1092 199.43501,135.97646 204.23717,144.98267 C 205.80871,147.93002 204.20603,144.48535 182.72488,157.98719 C 182.72488,157.98719 177.6618,145.99913 170.92332,131.0252 z "
         style="fill:#ffff00;fill-opacity:1;stroke:#000000;stroke-width:2.5;stroke-miterlimit:4;stroke-dasharray:none;stroke-opacity:1" />
      <path
         sodipodi:nodetypes="csssc"
         id="path3283"
         d="M 306.16237,134.01226 C 306.16237,133.48668 313.05372,124.45371 313.05372,123.52213 C 313.05372,121.29696 316.28918,122.87257 318.01568,123.53509 C 322.02786,125.07471 317.53215,136.8592 312.93261,136.8592 C 311.54952,136.8592 306.16237,134.53783 306.16237,134.01226 z "
         style="fill:#ffffff;fill-opacity:1;stroke:#000000;stroke-width:2.5;stroke-miterlimit:4;stroke-dasharray:none;stroke-opacity:1" />
      <path
         sodipodi:nodetypes="csscccssssc"
         id="path3281"
         d="M 304.44507,133.77741 C 303.34507,133.28676 299.18928,130.50158 294.63207,128.74395 C 283.22895,124.34597 278.3652,120.46603 271.27969,107.46765 C 265.07534,96.085767 261.60749,92.17848 252.41791,87.240018 L 243.82876,83.666508 L 255.02088,83.909304 C 267.61983,84.778174 274.98192,89.269377 280.0811,99.153259 C 284.72025,108.14547 291.964,114.30801 308.91791,120.5362 C 316.14831,123.19236 313.89489,122.81035 313.72813,125.18209 C 313.50961,128.29011 309.8477,133.89161 308.09982,133.79152 C 307.44977,133.7543 305.54507,134.26807 304.44507,133.77741 z "
         style="fill:#ffffff;fill-opacity:1;stroke:#000000;stroke-width:2.5;stroke-miterlimit:4;stroke-dasharray:none;stroke-opacity:1" />
      <path
         sodipodi:nodetypes="cssssscccccc"
         id="path2505"
         d="M 374.39065,118.79187 C 373.15085,116.3539 370.2305,111.82805 368.19535,108.5436 C 360.3537,95.888264 352.48455,96.680892 351.41795,96.229062 C 350.59295,95.879602 346.20545,95.371992 341.66795,95.101042 C 337.13041,94.830092 333.41791,94.347852 333.41791,94.029412 C 333.41791,92.960592 350.84945,76.43865 360.43115,68.4257 C 369.39005,60.93366 379.95195,53.59262 390.66795,47.40979 L 395.41795,44.66916 L 395.41385,49.51418 C 395.40195,63.92484 386.57925,99.728822 378.09635,119.79187 L 376.64495,123.22454 L 374.39065,118.79187 z "
         style="fill:#ffffff;fill-opacity:1;stroke:#000000;stroke-width:2.5;stroke-miterlimit:4;stroke-dasharray:none;stroke-opacity:1" />
      <path
         sodipodi:nodetypes="cc"
         id="path3317"
         d="M 199.26842,172.15645 C 308.02845,438.34342 441.20825,372.07509 441.20825,372.07509"
         style="fill:none;fill-rule:evenodd;stroke:#000000;stroke-width:2.5;stroke-linecap:butt;stroke-linejoin:miter;stroke-miterlimit:4;stroke-dasharray:none;stroke-opacity:1" />
      <path
         sodipodi:nodetypes="cc"
         id="path3319"
         d="M 168.01369,192.5649 C 162.61537,175.16448 217.1227,142.66972 241.44136,149.48313"
         style="fill:none;fill-rule:evenodd;stroke:#000000;stroke-width:2.5;stroke-linecap:butt;stroke-linejoin:miter;stroke-miterlimit:4;stroke-dasharray:none;stroke-opacity:1" />
      <path
         sodipodi:nodetypes="csssssssssc"
         id="path3279"
         d="M 348.79175,128.53363 C 348.50225,127.77915 345.40535,125.08513 342.74845,123.82562 C 340.09165,122.56611 337.75399,121.407 337.55365,121.24981 C 337.35331,121.09263 339.40565,118.35294 342.11455,115.16161 C 344.82335,111.97029 350.02204,102.68591 355.40084,94.529672 C 364.23714,81.13067 364.71308,80.696532 374.67578,69.813992 C 376.56558,67.749762 386.82525,57.952435 386.71846,58.20253 C 382.34798,68.438355 384.08667,64.144333 383.0681,66.685525 C 379.99275,74.3581 373.29554,84.126137 365.62156,97.886365 C 360.2076,107.59414 352.82915,118.27911 351.27185,124.1092 C 349.97935,128.94817 349.73385,130.98854 348.79175,128.53363 z "
         style="fill:#ffffff;fill-opacity:1;stroke:#000000;stroke-width:2.5;stroke-miterlimit:4;stroke-dasharray:none;stroke-opacity:1" />
      <path
         sodipodi:nodetypes="csc"
         id="path4147"
         d="M 421.43514,120.3292 C 433.52727,159.50239 397.96788,189.04587 371.92535,217.00282 C 354.21905,236.01072 343.9869,247.94784 341.05278,286.76796"
         style="fill:none;fill-rule:evenodd;stroke:#000000;stroke-width:2.5;stroke-linecap:butt;stroke-linejoin:miter;stroke-miterlimit:4;stroke-dasharray:none;stroke-opacity:1" />
    </g>
  </g>
</svg>
