<?xml version="1.0" encoding="UTF-8" standalone="no"?>
<!-- Created with Inkscape (http://www.inkscape.org/) -->

<svg
   xmlns:dc="http://purl.org/dc/elements/1.1/"
   xmlns:cc="http://creativecommons.org/ns#"
   xmlns:rdf="http://www.w3.org/1999/02/22-rdf-syntax-ns#"
   xmlns:svg="http://www.w3.org/2000/svg"
   xmlns="http://www.w3.org/2000/svg"
   xmlns:sodipodi="http://sodipodi.sourceforge.net/DTD/sodipodi-0.dtd"
   xmlns:inkscape="http://www.inkscape.org/namespaces/inkscape"
   id="svg2"
   version="1.1"
   inkscape:version="0.48.3.1 r9886"
   width="308"
   height="379"
   sodipodi:docname="Herb Soleczników.svg">
  <metadata
     id="metadata8">
    <rdf:RDF>
      <cc:Work
         rdf:about="">
        <dc:format>image/svg+xml</dc:format>
        <dc:type
           rdf:resource="http://purl.org/dc/dcmitype/StillImage" />
        <dc:title></dc:title>
      </cc:Work>
    </rdf:RDF>
  </metadata>
  <defs
     id="defs6" />
  <sodipodi:namedview
     pagecolor="#ffffff"
     bordercolor="#666666"
     borderopacity="1"
     objecttolerance="10"
     gridtolerance="10"
     guidetolerance="10"
     inkscape:pageopacity="0"
     inkscape:pageshadow="2"
     inkscape:window-width="1280"
     inkscape:window-height="962"
     id="namedview4"
     showgrid="false"
     showguides="true"
     inkscape:guide-bbox="true"
     inkscape:zoom="1.5861293"
     inkscape:cx="126.11857"
     inkscape:cy="318.16236"
     inkscape:window-x="-8"
     inkscape:window-y="-8"
     inkscape:window-maximized="1"
     inkscape:current-layer="svg2">
    <inkscape:grid
       type="xygrid"
       id="grid3819" />
  </sodipodi:namedview>
  <path
     style="fill:#da3a26;fill-opacity:1;stroke:#000000;stroke-width:1px;stroke-linecap:butt;stroke-linejoin:miter;stroke-opacity:1"
     d="m -983.54284,-179.63554 0,-87 283,0 1,90 c -1.48584,35.20652 -27,77.000002 -43,91.000002 -29,31 -69,41 -101.46208,40 -42.53792,1 -72.53792,-19 -94.69943,-39 -30.96407,-28.162752 -42.83849,-65.000002 -44.83849,-95.000002 z"
     id="path3823"
     inkscape:connector-curvature="0"
     sodipodi:nodetypes="cccccccc" />
  <path
     style="fill:#000000;fill-opacity:1;stroke:#000000;stroke-width:1.01054299000000000px;stroke-linecap:butt;stroke-linejoin:miter;stroke-opacity:1"
     d="m 10,234 0,-221 289,-1 1,222 c 0,35 -20,65 -45,91.819 C 220,359 190,366.34113 155,366.17614 120,366.67111 90,359 55,326.5902 30,304 10,269 10,234 z"
     id="path3823-1"
     inkscape:connector-curvature="0"
     sodipodi:nodetypes="cccccccc" />
  <path
     style="fill:#2f4fa1;fill-opacity:1;stroke:#000000;stroke-width:1px;stroke-linecap:butt;stroke-linejoin:miter;stroke-opacity:1"
     d="M 14,143 296.02546,143 296,16 14,17 z"
     id="path3825"
     inkscape:connector-curvature="0"
     sodipodi:nodetypes="ccccc" />
  <path
     style="fill:#e1ac4b;fill-opacity:1;stroke:#000000;stroke-width:1px;stroke-linecap:butt;stroke-linejoin:miter;stroke-opacity:1"
     d="m 62.791471,73.693282 3.785442,1.29245 5.678162,1.93868 3.785442,1.29245 c 1.89272,0.64623 3.785441,1.29245 5.678162,1.93868 1.892721,0.64623 1.569608,1.59259 1.246494,2.53895 -0.323113,0.94636 -0.646226,1.89272 -2.538946,1.24649 l -1.892721,-0.64623 -3.785442,-1.29245 -3.785441,-1.29245 -6.624523,-2.26179 -2.839081,-0.96934 c -1.892721,-0.64623 -1.569608,-1.59259 -1.246494,-2.53895 0.323113,-0.94636 0.646226,-1.89272 2.538946,-1.24649 z"
     id="path3896"
     inkscape:connector-curvature="0"
     sodipodi:nodetypes="cccccccccccccc" />
  <path
     style="fill:#e1ac4b;fill-opacity:1;stroke:#000000;stroke-width:1px;stroke-linecap:butt;stroke-linejoin:miter;stroke-opacity:1"
     d="m 63.451583,42.229062 -1.129112,3.83734 -1.693668,5.75599 -1.129113,3.83733 c -0.564557,1.91867 -1.129113,3.83733 -1.693669,5.756 -0.564556,1.91866 -1.523888,1.63638 -2.483221,1.35411 -0.959333,-0.28228 -1.918665,-0.56456 -1.354109,-2.48323 l 0.564556,-1.91866 1.129112,-3.83733 1.129112,-3.83733 1.975948,-6.71533 0.846834,-2.878 c 0.564556,-1.91866 1.523888,-1.63638 2.483221,-1.3541 0.959333,0.28227 1.918665,0.56455 1.354109,2.48321 z"
     id="path3896-1"
     inkscape:connector-curvature="0"
     sodipodi:nodetypes="cccccccccccccc" />
  <path
     style="fill:#e1ac4b;fill-opacity:1;stroke:#000000;stroke-width:1px;stroke-linecap:butt;stroke-linejoin:miter;stroke-opacity:1"
     d="m 74.542425,31.169702 3.785442,1.29245 5.678162,1.93868 3.785443,1.29245 c 1.89272,0.64623 3.78544,1.29245 5.67816,1.93868 1.89272,0.64623 1.56961,1.59259 1.2465,2.53895 -0.32312,0.94635 -0.64623,1.89271 -2.53895,1.24649 l -1.89272,-0.64623 -3.78544,-1.29245 -3.785445,-1.29245 -6.624523,-2.26179 -2.839081,-0.96934 c -1.892721,-0.64623 -1.569608,-1.59259 -1.246494,-2.53895 0.323113,-0.94636 0.646226,-1.89272 2.538946,-1.24649 z"
     id="path3896-5"
     inkscape:connector-curvature="0"
     sodipodi:nodetypes="cccccccccccccc" />
  <path
     style="fill:#e1ac4b;fill-opacity:1;stroke:#000000;stroke-width:1px;stroke-linecap:butt;stroke-linejoin:miter;stroke-opacity:1"
     d="m 62.190357,46.693282 c 3,0 7.601114,-1 10.601114,-3 l 8,-6 5.610216,2.067802 c 0.27736,3.33333 0.389785,6.932198 1.891175,9.932198 2.13297,4 3.96508,9.20967 9.49861,11 l -2,6 c -3,-1 -10,2 -12.000001,3 -4,2 -7,4 -9,8 l -6,-2 c 0,-3 0,-6 -1.800557,-9.36565 -1.199443,-2.63435 -2.711682,-6.63435 -7.598329,-10 z"
     id="path3937"
     inkscape:connector-curvature="0"
     sodipodi:nodetypes="ccccccccccccc" />
  <path
     style="fill:#e1ac4b;fill-opacity:1;stroke:#000000;stroke-width:1px;stroke-linecap:butt;stroke-linejoin:miter;stroke-opacity:1"
     d="m 57.791471,61.693282 c 1,1 5,9 4.501392,12 l 6.498608,2 c -0.0058,-3.03006 -0.09827,-6.06941 -1.58057,-9 -2.483371,-5.75464 -5.407611,-8.852312 -7.611202,-10.95886 l -1.808228,5.95886"
     id="path3943"
     inkscape:connector-curvature="0"
     sodipodi:nodetypes="cccccc" />
  <path
     style="fill:#e1ac4b;fill-opacity:1;stroke:#000000;stroke-width:1px;stroke-linecap:butt;stroke-linejoin:miter;stroke-opacity:1"
     d="m 62.27437,46.693282 c 3,0 7.517101,-1 10.517101,-3 l 8,-6 -7,-2.49609 c -3,2.49609 -5,5.49609 -10,5.49609 z"
     id="path3963"
     inkscape:connector-curvature="0"
     sodipodi:nodetypes="cccccc" />
  <path
     style="fill:#e1ac4b;fill-opacity:1;stroke:#000000;stroke-width:1px;stroke-linecap:butt;stroke-linejoin:miter;stroke-opacity:1"
     d="m 99.950052,54.730812 -6.09566,17.99563 c -0.32083,0.94714 0.62631,1.26796 1.06924,1.418 0.50421,0.17079 1.45135,0.49161 1.77217,-0.45553 l 6.095668,-17.99563 c 0.32082,-0.94714 -0.32254,-1.16507 -0.98839,-1.39061 -0.58506,-0.19818 -1.5322,-0.519 -1.853028,0.42814"
     id="path3965"
     inkscape:connector-curvature="0"
     sodipodi:nodetypes="ccccccc" />
  <path
     style="fill:#e1ac4b;fill-opacity:1;stroke:#000000;stroke-width:1px;stroke-linecap:butt;stroke-linejoin:miter;stroke-opacity:1"
     d="m 83.791471,69.693282 c -5.018273,2.41438 -7,5 -9,8 l 7,2.46697 c 2.192422,-3.6827 6.173301,-6.4435 12.000001,-7.46697 l 2,-6 c -3.53571,0.18066 -7.00071,0.23654 -12.000001,3 z"
     id="path3969"
     inkscape:connector-curvature="0"
     sodipodi:nodetypes="cccccc" />
  <path
     style="fill:#e1ac4b;fill-opacity:1;stroke:#000000;stroke-width:1px;stroke-linecap:butt;stroke-linejoin:miter;stroke-opacity:1"
     d="m 88.313742,49.693282 c -1.52227,-3 -2.22541,-6.3878 -2.09014,-10 l 6.56787,2 c 0.14471,7.18518 4,10.36502 7,13 l -2,6 c -4.97381,-1.58328 -7,-6.59877 -9.47773,-11 z"
     id="path3971"
     inkscape:connector-curvature="0"
     sodipodi:nodetypes="cccccc" />
  <path
     style="fill:#314fa3;fill-opacity:1;stroke:#000000;stroke-width:1.08545744px;stroke-linecap:butt;stroke-linejoin:miter;stroke-opacity:1"
     d="m 73.269081,59.935132 -3.418592,3.44966 c -2.043439,2.75132 0.411294,5.78868 3.032403,6.61486 2.583926,0.81447 6.375238,-0.25407 6.336662,-3.66168 l -0.745436,-4.76219 c -0.372719,-2.38109 3.103691,2.21891 4.6556,3.32851 2.670024,2.37599 6.088614,-1.07368 6.893324,-3.5457 0.86602,-2.66039 -0.21357,-6.3961 -3.65004,-6.41757 -1.964952,0.1588 -7.26917,1.17422 -5.559872,-0.55061 l 3.418589,-3.44967 c 2.043443,-2.75131 -0.243857,-5.7616 -2.982672,-6.59918 -2.633654,-0.83014 -6.424964,0.23844 -6.386389,3.64601 l 0.745434,4.76219 c 0.372718,2.38109 -3.233463,-1.82047 -4.850201,-2.7307 -2.809565,-1.94731 -5.894013,0.47587 -6.582318,2.59032 -0.982419,3.01796 0.09716,6.75367 3.55433,6.71158 1.846395,0.20472 7.248475,-1.11066 5.539179,0.61416 z"
     id="path3993"
     inkscape:connector-curvature="0"
     sodipodi:nodetypes="ccccccccccccccccc" />
  <path
     style="fill:#e1ac4b;fill-opacity:1;stroke:#000000;stroke-width:0.8296057px;stroke-linecap:butt;stroke-linejoin:miter;stroke-opacity:1"
     d="m 102.00343,57.888549 c 0.58719,-2.111451 2.63507,-2.162566 4.71794,-1.62393 1.7301,0.62393 3.32996,1.245046 2.36699,3.758463 l -4.24598,13.754015 c -1.39404,2.369534 -3.00956,2.107604 -4.56502,1.554194 -1.444536,-0.59931 -3.555988,-1.442742 -2.897508,-3.806012 z"
     id="path4006-6"
     inkscape:connector-curvature="0"
     sodipodi:nodetypes="ccccccc" />
  <path
     style="fill:#e1ac4b;fill-opacity:1;stroke:#000000;stroke-width:1px;stroke-linecap:butt;stroke-linejoin:miter;stroke-opacity:1"
     d="m 108.79147,61.693282 113,37.000003 c 6,2.000005 8,3.000005 6.52628,7.196665 -1.52628,3.80334 -3.52628,3.80334 -10.85033,1.2078 l -111.67595,-35.404468 3,-10"
     id="path4026"
     inkscape:connector-curvature="0"
     sodipodi:nodetypes="cccccc" />
  <path
     style="fill:#e1ac4b;fill-opacity:1;stroke:#000000;stroke-width:1px;stroke-linecap:butt;stroke-linejoin:miter;stroke-opacity:1"
     d="m 190.71493,98.761637 -1.1908,3.818653 -9.54658,-2.977033 -8.03794,25.775813 18.13852,5.65633 3.57241,-11.45591 -5.72796,-1.78623 -1.48851,4.7733 -2.86396,-0.8931 3.57241,-11.45591 2.86398,0.89311 -1.19082,3.81864 5.72796,1.78619 1.48851,-4.77327 -3.81862,-1.19081 1.19079,-3.81864 10.50125,3.2747 -1.19079,3.81864 -3.81864,-1.19079 -1.48851,4.77328 5.72795,1.78622 1.19081,-3.81864 2.86397,0.89309 -3.5724,11.45592 -2.86399,-0.89311 1.4885,-4.77329 -5.72794,-1.78621 -3.57243,11.45592 17.18387,5.35862 8.03794,-25.77581 -9.5466,-2.977 1.19079,-3.81863 -19.09317,-5.954043"
     id="path4028-3"
     inkscape:connector-curvature="0"
     sodipodi:nodetypes="ccccccccccccccccccccccccccccccccc" />
  <path
     style="fill:#d3d6dc;fill-opacity:1;stroke:#000000;stroke-width:1.01679528px;stroke-linecap:butt;stroke-linejoin:miter;stroke-opacity:1"
     d="m 121.22969,97.967395 1.21642,3.864875 9.7519,-3.013065 8.21081,26.087815 -18.52863,5.7248 -3.64924,-11.59458 5.85115,-1.80786 1.52053,4.83108 2.92555,-0.9039 -3.64923,-11.59459 -2.92558,0.90393 1.21643,3.86485 -5.85116,1.80782 -1.52051,-4.83106 3.90073,-1.20522 -1.21641,-3.86486 -10.72709,3.31434 1.2164,3.86486 3.90077,-1.2052 1.52053,4.83106 -5.85115,1.80784 -1.21642,-3.86487 -2.92557,0.9039 3.64924,11.5946 2.92558,-0.90392 -1.52052,-4.83107 5.85114,-1.80783 3.64926,11.59459 -17.55345,5.42348 -8.210808,-26.08782 9.751928,-3.01303 -1.21641,-3.86486 19.50381,-6.026105"
     id="path4028-3-8"
     inkscape:connector-curvature="0"
     sodipodi:nodetypes="ccccccccccccccccccccccccccccccccc" />
  <path
     style="fill:#d3d6dc;fill-opacity:1;stroke:#000000;stroke-width:1px;stroke-linecap:butt;stroke-linejoin:miter;stroke-opacity:1"
     d="M 136.71693,81.525016 85.791472,96.693285 c -5.000001,2 -5.000001,5.000005 -4.000001,8.000005 1,3 3,4 8.000001,3 L 155.21213,87.440883 z"
     id="path4084"
     inkscape:connector-curvature="0"
     sodipodi:nodetypes="cccccc" />
  <path
     style="fill:#d3d6dc;fill-opacity:1;stroke:#000000;stroke-width:1.02069092px;stroke-linecap:butt;stroke-linejoin:miter;stroke-opacity:1"
     d="m 249.059,74.770902 -3.91862,1.30073 -5.87793,1.95109 -3.91862,1.30072 c -1.95932,0.65037 -3.91862,1.30073 -5.87793,1.9511 -1.95932,0.65036 -1.62484,1.60278 -1.29035,2.5552 0.33449,0.95242 0.66896,1.90484 2.62826,1.25447 l 1.95933,-0.65036 3.91861,-1.30073 3.91862,-1.30072 6.85759,-2.27628 2.93896,-0.97554 c 1.9593,-0.65037 1.62483,-1.60279 1.29036,-2.55521 -0.33449,-0.95242 -0.66897,-1.90484 -2.62828,-1.25447 z"
     id="path3896-0"
     inkscape:connector-curvature="0"
     sodipodi:nodetypes="cccccccccccccc" />
  <path
     style="fill:#d3d6dc;fill-opacity:1;stroke:#000000;stroke-width:1.02069092px;stroke-linecap:butt;stroke-linejoin:miter;stroke-opacity:1"
     d="m 248.37567,43.105222 1.16883,3.8619 1.75326,5.79285 1.16883,3.86191 c 0.58443,1.93094 1.16884,3.86189 1.75327,5.79285 0.58441,1.93095 1.5775,1.64686 2.57058,1.36277 0.99309,-0.28408 1.98617,-0.56817 1.40174,-2.49912 l -0.58442,-1.93095 -1.16883,-3.8619 -1.16884,-3.8619 -2.04546,-6.75832 -0.87663,-2.89643 c -0.58441,-1.93095 -1.57749,-1.64686 -2.57057,-1.36278 -0.99311,0.28409 -1.98619,0.56817 -1.40176,2.49912 z"
     id="path3896-1-2"
     inkscape:connector-curvature="0"
     sodipodi:nodetypes="cccccccccccccc" />
  <path
     style="fill:#d3d6dc;fill-opacity:1;stroke:#000000;stroke-width:1.02069092px;stroke-linecap:butt;stroke-linejoin:miter;stroke-opacity:1"
     d="m 236.89463,31.975042 -3.91863,1.30073 -5.87793,1.95109 -3.91862,1.30073 c -1.95931,0.65037 -3.91862,1.30073 -5.87792,1.95109 -1.95932,0.65037 -1.62484,1.60279 -1.29036,2.55521 0.33449,0.95241 0.66896,1.90483 2.62828,1.25447 l 1.95931,-0.65036 3.91862,-1.30073 3.9186,-1.30073 6.85761,-2.27627 2.93897,-0.97555 c 1.95929,-0.65036 1.62483,-1.60278 1.29034,-2.5552 -0.33448,-0.95242 -0.66896,-1.90484 -2.62827,-1.25448 z"
     id="path3896-5-8"
     inkscape:connector-curvature="0"
     sodipodi:nodetypes="cccccccccccccc" />
  <path
     style="fill:#d3d6dc;fill-opacity:1;stroke:#000000;stroke-width:1.02069092px;stroke-linecap:butt;stroke-linejoin:miter;stroke-opacity:1"
     d="m 249.68126,47.598022 c -3.10554,0 -7.86853,-1.0064 -10.97408,-3.01921 l -8.28145,-6.03841 -5.17592,2.0128 c -0.28711,3.35468 -1.03518,7.04482 -2.58939,10.06403 -2.208,4.02561 -4.10457,9.26864 -9.83279,11.07043 l 2.07037,6.03842 c 3.10554,-1.00641 10.35181,2.0128 12.42219,3.01921 4.14073,2.0128 7.24627,4.02561 9.31663,8.05122 l 6.21108,-2.01281 c 0,-3.01921 0,-6.03841 1.86392,-9.42561 1.24164,-2.65122 2.80709,-6.67683 7.86565,-10.06403 z"
     id="path3937-6"
     inkscape:connector-curvature="0"
     sodipodi:nodetypes="ccccccccccccc" />
  <path
     style="fill:#d3d6dc;fill-opacity:1;stroke:#000000;stroke-width:1.02069092px;stroke-linecap:butt;stroke-linejoin:miter;stroke-opacity:1"
     d="m 254.23491,62.694062 c -1.03518,1.00641 -5.17591,9.05763 -4.65976,12.07684 l -6.72725,2.0128 c 0.006,-3.04945 0.10184,-6.10826 1.63619,-9.05762 2.57074,-5.79149 4.90305,-8.2335 7.68045,-10.06403 l 2.07037,5.03201"
     id="path3943-0"
     inkscape:connector-curvature="0"
     sodipodi:nodetypes="cccccc" />
  <path
     style="fill:#d3d6dc;fill-opacity:1;stroke:#000000;stroke-width:1.02069092px;stroke-linecap:butt;stroke-linejoin:miter;stroke-opacity:1"
     d="m 249.59429,47.598022 c -3.10554,0 -7.78156,-1.0064 -10.88711,-3.01921 -4.26005,-2.512657 -5.52097,-4.025607 -8.28145,-6.03841 l 7.24627,-2.51208 c 3.10555,2.51208 5.1759,5.53128 10.35182,5.53128 z"
     id="path3963-2"
     inkscape:connector-curvature="0"
     sodipodi:nodetypes="cccccc" />
  <path
     style="fill:#d3d6dc;fill-opacity:1;stroke:#000000;stroke-width:1.02069092px;stroke-linecap:butt;stroke-linejoin:miter;stroke-opacity:1"
     d="m 210.59311,55.687012 6.31013,18.11086 c 0.3321,0.9532 -0.64836,1.27608 -1.10687,1.42707 -0.52195,0.17189 -1.50241,0.49477 -1.83451,-0.45844 l -6.31012,-18.11085 c -0.33213,-0.95321 0.33387,-1.17253 1.02314,-1.39951 0.60566,-0.19945 1.58612,-0.52233 1.91823,0.43087"
     id="path3965-4"
     inkscape:connector-curvature="0"
     sodipodi:nodetypes="ccccccc" />
  <path
     style="fill:#d3d6dc;fill-opacity:1;stroke:#000000;stroke-width:1.02069092px;stroke-linecap:butt;stroke-linejoin:miter;stroke-opacity:1"
     d="m 227.32019,70.745292 c 5.19482,2.42984 7.24627,5.03201 9.31663,8.05122 l -7.24627,2.48276 c -2.26955,-3.70627 -6.3905,-6.48475 -12.42218,-7.51478 l -2.07037,-6.03841 c 3.6601,0.18181 7.24702,0.23805 12.42219,3.01921 z"
     id="path3969-8"
     inkscape:connector-curvature="0"
     sodipodi:nodetypes="cccccc" />
  <path
     style="fill:#d3d6dc;fill-opacity:1;stroke:#000000;stroke-width:1.02069092px;stroke-linecap:butt;stroke-linejoin:miter;stroke-opacity:1"
     d="m 222.63881,50.617232 c 1.57582,-3.01921 2.3037,-6.4287 2.16367,-10.06403 l -6.79894,2.01281 c -0.1498,7.23118 -4.14072,10.43138 -7.24626,13.08323 l 2.07035,6.03842 c 5.14881,-1.59342 7.24628,-6.64102 9.81118,-11.07043 z"
     id="path3971-6"
     inkscape:connector-curvature="0"
     sodipodi:nodetypes="cccccc" />
  <path
     style="fill:#2f4c9c;fill-opacity:1;stroke:#000000;stroke-width:1.10791659px;stroke-linecap:butt;stroke-linejoin:miter;stroke-opacity:1"
     d="m 238.21278,60.924662 3.53886,3.47175 c 2.11533,2.76893 -0.42576,5.82574 -3.1391,6.65721 -2.67483,0.81968 -6.59952,-0.2557 -6.55959,-3.68512 l 0.77166,-4.79269 c 0.38583,-2.39633 -3.21289,2.23312 -4.81939,3.34983 -2.76397,2.39119 -6.30282,-1.08056 -7.13584,-3.56841 -0.89649,-2.67742 0.22109,-6.43705 3.77845,-6.45866 2.03408,0.15982 7.52492,1.18174 5.75547,-0.55413 l -3.53885,-3.47176 c -2.11534,-2.76893 0.25243,-5.7985 3.08759,-6.64144 2.72633,-0.83545 6.65102,0.23997 6.61108,3.66936 l -0.77165,4.79268 c -0.38583,2.39634 3.34722,-1.83213 5.02084,-2.74818 2.90842,-1.95979 6.10138,0.47891 6.8139,2.6069 1.01698,3.03728 -0.10057,6.79691 -3.67938,6.75455 -1.91136,0.20603 -7.5035,-1.11777 -5.73405,0.6181 z"
     id="path3993-5"
     inkscape:connector-curvature="0"
     sodipodi:nodetypes="ccccccccccccccccc" />
  <path
     style="fill:#d3d6dc;fill-opacity:1;stroke:#000000;stroke-width:1px;stroke-linecap:butt;stroke-linejoin:miter;stroke-opacity:1"
     d="m 201.91969,62.941132 -48.08891,13.37364 18.90343,6.00611 32.11708,-9.09769 z"
     id="path4179"
     inkscape:connector-curvature="0"
     sodipodi:nodetypes="ccccc" />
  <path
     style="fill:#d93526;fill-opacity:1;stroke:#da3a26;stroke-width:1.00911533999999990px;stroke-linecap:butt;stroke-linejoin:miter;stroke-opacity:1"
     d="m 15,234 0,-90 280,0 0,90 c 0,34.90118 -20,63.25672 -45,90 -31.64988,30 -60,38.82494 -95,38 -35,0.46666 -62.433382,-8 -95,-38 C 29.4173,296.25503 15,263.9153 15,234 z"
     id="path3823-1-7"
     inkscape:connector-curvature="0"
     sodipodi:nodetypes="cccccccc" />
  <path
     style="fill:#000000;fill-opacity:1;stroke:#000000;stroke-width:1px;stroke-linecap:butt;stroke-linejoin:miter;stroke-opacity:1"
     d="M 84.742936,293.8635 203.12553,270.06335 179.01628,252.44505 117.1977,246.26318 z"
     id="path3860"
     inkscape:connector-curvature="0"
     sodipodi:nodetypes="ccccc" />
  <path
     style="fill:#e0ab4b;fill-opacity:1;stroke:#000000;stroke-width:1px;stroke-linecap:butt;stroke-linejoin:miter;stroke-opacity:1"
     d="m 127.19691,203.35501 c -0.29842,-4.39898 1.49697,-12.00001 2.45422,-14.39889 1.26203,-3.90022 3.00123,-8.3256 6.78107,-12.09286 4.78829,-5.02176 10.61848,-10.23042 18.88061,-14.49956 8.39593,2.70511 12.50268,7.74978 17.15211,12.49845 3.96237,4.79675 7.78069,9.61407 9.30734,14.75878 2.12585,7.88678 1.71673,9.97421 2.42465,15.73408 -0.22573,0.54966 10.37293,-5.25674 9,-1 -0.75336,1.23636 -4,3 -1.19325,2.39521 l 3.86259,-0.11015 c 11.33066,0.71494 -5.40573,2.322 -8.66934,9.71494 l 2.42011,-3.06683 c 4.57989,-3.93317 2.37289,-0.93339 2.07689,3.99675 -0.25489,4.24546 -0.5969,9.2228 -1.14616,10.62907 -1.73775,4.08968 -4.03963,6.35171 -7.84475,8.90846 l -11.56771,6.91403 -8.50957,5.05255 c -3.08031,2.19412 -8.96079,1.40177 -11.70065,0.53186 -7.10625,-2.73023 -13.48557,-6.89665 -19.81135,-11.16882 -3.09635,-1.59961 -4.66983,-3.46102 -6.38218,-6.11626 -1.41286,-1.55122 -2.03748,-6.82537 -1.86147,-10.63695 0.32343,-2.59877 -3.93151,-9.66778 -8.64253,-11.56771 -0.79106,-0.40163 0.67403,-1.65695 4.9196,-1.0637 3.45045,-0.23856 0.47864,-2.61787 0.13296,-4.12181 -1.99217,-3.76994 1.91681,-3.29064 7.91681,-1.29064 z"
     id="path2987"
     inkscape:connector-curvature="0"
     sodipodi:nodetypes="ccccccccccccscccccccccccc" />
  <path
     style="fill:#e0ab4b;fill-opacity:1;stroke:#000000;stroke-width:1px;stroke-linecap:butt;stroke-linejoin:miter;stroke-opacity:1"
     d="m 129.6834,218.03864 c 1.0784,5.23874 0.59269,11.1339 3.25284,15.4236 2.96728,3.87475 6.21553,6.29155 8.90846,7.17995 1.50426,0.63212 3.5603,0.52378 6.02223,-0.0389"
     id="path2989"
     inkscape:connector-curvature="0"
     sodipodi:nodetypes="cccc" />
  <path
     style="fill:#e0ab4b;fill-opacity:1;stroke:#000000;stroke-width:1px;stroke-linecap:butt;stroke-linejoin:miter;stroke-opacity:1"
     d="m 127.19691,203.35501 c 0.37608,0.47009 3.07061,2.79144 3.07061,2.79144 2.04053,2.10408 -0.47652,-5.32006 3.76073,-3.1026 2.55986,1.10935 5.5753,3.5766 5.82914,5.6411 0.26322,4.46288 -0.23137,6.50391 0.28205,9.96595 0.45892,1.78407 1.40706,3.00351 3.00859,3.00858 1.66561,-0.18274 2.01211,-0.26506 2.72654,-2.35045 0.48949,-4.07927 -2.65072,-9.22134 -2.06841,-15.60705 0.59545,-2.16242 -0.71003,0.86672 5.92316,-8.74371 3.3304,-5.10147 -0.13043,5.70374 1.50429,5.35905 l 5.64111,-6.58129 c 3.47522,-3.99379 -0.20892,6.71621 1.50429,5.82914 l 5.35904,-4.98297 c 4.00356,-4.62244 0.0947,6.57982 1.5043,5.64109 l 4.41886,-3.76073 c 3.48252,-4.3548 1.25358,8.46165 1.41028,12.59846 -0.89744,2.52254 1.09364,-0.0331 2.44447,-0.65813 2.98187,-2.09449 2.85641,6.14931 2.82055,8.08559 0.66157,6.77626 0.37852,13.08083 -2.44447,18.33358 -1.65135,3.33162 -4.20293,6.04507 -6.39325,6.01717 -2.72889,0.20489 -4.07611,0.001 -5.82914,-0.28205"
     id="path2993"
     inkscape:connector-curvature="0"
     sodipodi:nodetypes="ccccccccccccccccccccc" />
  <path
     style="fill:#e0ab4b;fill-opacity:1;stroke:#000000;stroke-width:1px;stroke-linecap:butt;stroke-linejoin:miter;stroke-opacity:1"
     d="m 176.33652,215.73633 c 0.12978,0.0851 8.00755,-9.05327 8.08558,-11.09417"
     id="path2995"
     inkscape:connector-curvature="0"
     sodipodi:nodetypes="cc" />
  <path
     style="fill:#e0ab4b;fill-opacity:1;stroke:#000000;stroke-width:1.00227034px;stroke-linecap:butt;stroke-linejoin:miter;stroke-opacity:1"
     d="m 212.70861,253.58911 c 1.5667,-1.68385 8.92815,6.65978 10.4805,8.7584 2.66933,3.15174 5.54629,6.99958 6.85929,12.30857 1.87389,6.85562 3.39076,14.73017 2.9128,24.26507 -6.43238,6.01317 -12.7207,7.01204 -19.02726,8.64531 -6.00768,1.00059 -11.96153,1.86303 -17.05948,0.52796 -7.70911,-2.23635 -8.77437,-3.19271 -13.98715,-5.57291 -0.82755,-0.5819 0.3028,14.72189 -2.61272,11.28598 -0.67162,-1.31155 -0.39149,-6.09318 -1.92765,-3.46032 l -2.64045,2.48346 c -6.36716,7.33742 0.54556,-7.14746 -4.08363,-13.89227 l 1.39348,3.74093 c 1.05779,6.10312 -0.3844,2.58566 -4.40062,-0.24931 -3.45845,-2.44127 -7.49175,-5.34156 -8.40767,-6.56129 -2.59419,-3.67133 -3.36666,-6.88765 -3.64517,-11.5872 l -0.12169,-13.83872 -0.0613,-10.1626 c -0.33047,-3.86931 3.24409,-8.6562 5.33231,-10.6252 5.81636,-4.85949 12.48609,-8.32652 19.21862,-11.69101 2.88046,-1.9034 5.2295,-2.3234 8.31736,-2.45187 2.00778,-0.43987 6.76932,1.76053 9.90043,3.90558 2.03431,1.6424 10.10498,1.56905 14.03678,-1.60556 0.72997,-0.48995 1.89085,1.79089 -0.70777,5.23588 -1.50391,3.17572 1.14879,1.9325 2.58935,1.93889 5.79548,-1.1032 2.17552,3.95395 -1.55037,8.0617 z"
     id="path2987-17"
     inkscape:connector-curvature="0"
     sodipodi:nodetypes="ccccccccccccsccccccccccccc" />
  <path
     style="fill:#e0ab4b;fill-opacity:1;stroke:#000000;stroke-width:1px;stroke-linecap:butt;stroke-linejoin:miter;stroke-opacity:1"
     d="m 171.5998,253.52922 c 0.79437,-3.0309 0.61202,-4.70394 7.42449,-8.57941 1.70994,-0.93493 4.87723,-1.86986 8.74438,-1.64988 3.84584,0.58038 7.5456,1.90078 10.55926,2.47483 1.99755,0.31036 3.54404,-0.28141 5.11465,-0.82494"
     id="path3832"
     inkscape:connector-curvature="0"
     sodipodi:nodetypes="ccccc" />
  <path
     style="fill:#e0ab4b;fill-opacity:1;stroke:#000000;stroke-width:0.9870497px;stroke-linecap:butt;stroke-linejoin:miter;stroke-opacity:1"
     d="m 213.32229,253.32219 c -0.55245,0.0996 -3.711,1.36353 -3.711,1.36353 -2.65629,0.77526 4.30856,2.35645 0.43608,5.09695 -2.16356,1.77667 -5.59856,3.25969 -7.30598,2.40876 -4.36911,-0.78271 -7.48864,-4.12607 -10.39698,-5.47212 -1.59866,-0.5145 -2.19264,0.21348 -3.02002,1.6872 -0.71683,1.63136 -0.007,2.48897 1.21828,4.24339 2.86412,2.59488 8.73632,3.72236 13.97434,5.79995 0.96624,0.73311 0.83079,-0.64592 5.94286,9.22971 2.18417,5.75072 -6.59935,-2.29261 -7.17663,-0.60463 l 2.12634,8.65831 c 1.26362,5.30211 -5.02249,-3.72195 -5.22585,-1.67659 l 1.05055,7.55837 c 1.47214,6.11949 -5.07446,-3.37038 -5.08223,-1.57778 l 0.6004,6.04947 c 1.53564,5.49857 -4.46786,-5.27094 -8.86311,-6.31046 -2.29023,-0.66796 -0.37202,3.17035 -0.58927,4.74395 0.56097,1.70442 -6.99056,-2.57834 -8.45107,-3.62892 -5.51598,-2.95113 -10.02095,-4.54523 -13.90145,-9.74274 -1.69565,-3.27294 -2.78625,-6.39087 -2.46362,-8.89018 -0.23825,-2.78809 0.94015,-4.91271 2.05774,-6.37986"
     id="path2993-40"
     inkscape:connector-curvature="0"
     sodipodi:nodetypes="ccccccccccccccccccccc" />
  <path
     style="fill:#e0ab4b;fill-opacity:1;stroke:#000000;stroke-width:1px;stroke-linecap:butt;stroke-linejoin:miter;stroke-opacity:1"
     d="m 174.56959,288.67177 c 4.40156,5.01602 8.2034,9.71412 8.24942,13.85903"
     id="path3856"
     inkscape:connector-curvature="0"
     sodipodi:nodetypes="cc" />
  <path
     style="fill:#e0ab4b;fill-opacity:1;stroke:#000000;stroke-width:1.00163627px;stroke-linecap:butt;stroke-linejoin:miter;stroke-opacity:1"
     d="m 127.16277,305.24828 c -3.7107,2.28845 -11.11707,4.10744 -13.62264,4.32063 -3.94699,0.61846 -8.55769,1.03637 -13.47229,-0.73231 -6.443457,-2.12641 -13.498457,-5.12995 -20.780167,-10.81037 -1.25266,-8.99505 1.38249,-15.09765 3.52576,-21.56619 2.48092,-5.85572 5.04179,-11.58779 8.87469,-15.35227 5.96811,-5.57274 4.87502,-5.53165 9.597157,-8.82112 -0.58493,1.08281 -8.742987,-5.94242 -4.437107,-6.62158 1.40324,0.13048 5.421567,1.39585 3.685767,-0.92028 l -3.304007,-3.67296 c -4.31706,-10.65098 6.197317,6.31211 15.455167,2.79221 l -4.0272,0.40354 c -8.12802,-1.86407 -1.71845,-2.91323 2.90331,-4.98399 3.81402,-1.70885 8.30594,-3.66837 9.76962,-3.80432 4.3171,-0.26563 7.28195,0.8262 11.15097,3.17209 6.18307,4.53608 14.8629,7.64755 19.18694,13.07499 2.47188,2.86974 4.15871,7.12604 4.57871,10.05555 -0.17212,8.23885 0.46393,16.19727 -0.40193,23.92663 -0.0635,3.59273 -1.01073,5.89822 -2.59105,8.69523 -0.74573,2.01516 -5.07982,5.00544 -8.48205,6.58678 -2.40723,0.89024 -6.74531,8.05595 -6.37588,13.27798 -0.01,0.91465 -1.73617,0.13538 -3.04568,-4.05874 -1.69321,-3.07886 -2.49066,0.75558 -3.65444,1.76307 -2.43274,3.5656 -3.6968,-0.2654 -4.53365,-6.72415 z"
     id="path2987-174"
     inkscape:connector-curvature="0"
     sodipodi:nodetypes="ccccccccccccscccccccccccc" />
  <path
     style="fill:#e0ab4b;fill-opacity:1;stroke:#000000;stroke-width:1px;stroke-linecap:butt;stroke-linejoin:miter;stroke-opacity:1"
     d="m 146.56152,268.51788 c 2.69914,2.31529 5.06531,4.67815 5.87277,7.26368 1.15133,2.69732 1.45598,4.35609 1.36158,7.06218 -0.20881,1.82468 -1.3936,4.42925 -2.13431,5.45609 -2.3147,3.27599 -4.27492,4.42512 -6.33641,6.18185"
     id="path3068"
     inkscape:connector-curvature="0"
     sodipodi:nodetypes="ccccc" />
  <path
     style="fill:#e0ab4b;fill-opacity:1;stroke:#000000;stroke-width:1.11406553px;stroke-linecap:butt;stroke-linejoin:miter;stroke-opacity:1"
     d="m 127.14319,305.30304 c 0.2253,-3.02046 3.40787,-7.3128 1.19547,-5.64591 -2.48121,1.44837 -7.27068,4.04815 -4.29964,-2.99436 2.64016,-4.4859 9.29608,-9.20002 11.96337,-11.99278 1.21759,-1.58796 1.42906,-1.92969 0.14025,-3.15922 -1.5241,-1.21427 -2.88321,-1.20924 -5.07376,0.65469 -3.60161,2.28985 -2.70049,3.1932 -8.78128,7.35611 -3.59624,0.92013 -5.05069,0.83373 -13.98684,-0.75696 -5.70055,-0.21539 5.36689,-3.7868 3.74006,-4.7993 l -7.63176,-2.17608 c -5.159257,-0.65689 6.43771,-2.69396 4.26468,-3.39053 l -6.58059,-3.22263 c -5.052647,-0.5163 7.00941,-3.25022 5.03561,-3.67857 l -6.75355,-2.15902 c -4.940107,-0.63082 9.63925,-2.61245 12.57322,-7.06614 1.66805,-2.29109 -3.92903,-0.5113 -4.37405,-2.20501 3.59056,-3.89822 13.63911,-9.26944 16.72847,-10.55504 4.29914,-1.04529 8.18128,-1.4802 10.80646,-0.54974 3.17176,0.39865 5.03561,2.15589 6.19915,3.69404"
     id="path2993-40-0"
     inkscape:connector-curvature="0"
     sodipodi:nodetypes="ccccccccccccccccccc" />
  <path
     style="fill:#e0ab4b;fill-opacity:1;stroke:#000000;stroke-width:1px;stroke-linecap:butt;stroke-linejoin:miter;stroke-opacity:1"
     d="m 100.81164,252.36021 c 5.67583,1.22916 11.32631,1.6855 17.59421,0.76496"
     id="path3088"
     inkscape:connector-curvature="0"
     sodipodi:nodetypes="cc" />
  <path
     style="fill:#e1ac4b;fill-opacity:1;stroke:#000000;stroke-width:1px;stroke-linecap:butt;stroke-linejoin:miter;stroke-opacity:1"
     d="m 62.148346,78.215706 c -0.326823,1.165055 -1.771678,2.377684 -1.940512,3.270808 -0.761021,5.010541 3.909187,6.640592 5.89874,5.085121 0.757358,-0.665315 1.520194,-1.940752 1.762844,-2.983271 0.368009,-1.556349 0.280589,-2.604681 0.678016,-3.186676"
     id="path3813"
     inkscape:connector-curvature="0"
     sodipodi:nodetypes="ccccc" />
  <path
     style="fill:#e1ac4b;fill-opacity:1;stroke:#000000;stroke-width:1px;stroke-linecap:butt;stroke-linejoin:miter;stroke-opacity:1"
     d="m 72.683331,81.825523 c -1.155702,1.981584 -2.392081,4.438608 -1.356034,6.508954 2.036197,4.312257 7.716325,1.695532 7.864987,-1.491635 -0.102043,-1.062213 -0.273748,-1.649389 0.406808,-2.712066"
     id="path3815"
     inkscape:connector-curvature="0"
     sodipodi:nodetypes="cccc" />
  <path
     style="fill:#e1ac4b;fill-opacity:1;stroke:#000000;stroke-width:1px;stroke-linecap:butt;stroke-linejoin:miter;stroke-opacity:1"
     d="m 68.750837,80.198283 c -0.483952,0.732558 -0.413037,2.334083 -0.949222,3.932494 l -1.084826,2.373056 c -0.713968,3.419443 3.105723,3.670164 4.271502,1.627239 l 0.271205,-2.712065 c 0.14612,-1.54245 1.176443,-2.863118 1.627238,-3.932493 z"
     id="path3817"
     inkscape:connector-curvature="0"
     sodipodi:nodetypes="ccccccc" />
  <path
     style="fill:#e1ac4b;fill-opacity:1;stroke:#000000;stroke-width:0.96849865px;stroke-linecap:butt;stroke-linejoin:miter;stroke-opacity:1"
     d="m 94.331752,37.537995 c 0.199232,-0.814792 1.850169,-1.777831 1.997014,-2.535685 0.508004,-0.876724 0.345575,-2.773388 -0.317104,-3.597388 -0.681976,-0.801312 -0.980849,-1.042211 -1.977152,-1.461623 -1.938315,-0.919197 -3.53727,-0.347882 -4.325448,0.08685 -0.795833,0.504037 -1.572574,1.536319 -1.793517,2.416578 -0.3361,1.31356 -0.198065,2.230477 -0.606126,2.696789"
     id="path3813-1"
     inkscape:connector-curvature="0"
     sodipodi:nodetypes="ccccccc" />
  <path
     style="fill:#e1ac4b;fill-opacity:1;stroke:#000000;stroke-width:0.96849865px;stroke-linecap:butt;stroke-linejoin:miter;stroke-opacity:1"
     d="m 82.834708,33.473899 c 0.647541,-0.760859 1.228359,-1.514097 1.312867,-3.114778 0.06702,-0.779183 0.381689,-1.433279 -0.184995,-2.35692 -2.270183,-3.568237 -8.445917,-2.535733 -8.486826,0.539238 0.154498,0.930348 0.11686,1.202623 -0.330842,2.31145"
     id="path3815-7"
     inkscape:connector-curvature="0"
     sodipodi:nodetypes="ccccc" />
  <path
     style="fill:#e1ac4b;fill-opacity:1;stroke:#000000;stroke-width:0.96849865px;stroke-linecap:butt;stroke-linejoin:miter;stroke-opacity:1"
     d="m 87.096696,35.300307 c 0.49592,-0.58851 0.353123,-1.983274 0.870281,-3.317176 l 1.081655,-1.952691 c 0.635649,-2.895074 -3.526058,-3.478304 -4.709247,-1.819478 -0.05804,2.059999 -0.313714,4.174311 -1.790643,5.576659 z"
     id="path3817-4"
     inkscape:connector-curvature="0"
     sodipodi:nodetypes="cccccc" />
  <path
     style="fill:#d3d6dc;fill-opacity:1;stroke:#000000;stroke-width:1px;stroke-linecap:butt;stroke-linejoin:miter;stroke-opacity:1"
     d="m 234.25479,32.392043 c -0.65714,-1.379862 0.0409,-2.872326 -0.35032,-3.692729 -2.3454,-4.492642 -7.0767,-3.049495 -7.76339,-0.619205 -0.21815,0.984191 -0.0803,2.463949 0.33961,3.448505 0.6223,1.473223 1.31204,2.267514 1.33511,2.971885"
     id="path3813-8"
     inkscape:connector-curvature="0"
     sodipodi:nodetypes="ccccc" />
  <path
     style="fill:#d3d6dc;fill-opacity:1;stroke:#000000;stroke-width:1px;stroke-linecap:butt;stroke-linejoin:miter;stroke-opacity:1"
     d="m 223.63745,35.794451 c 0.01,-1.437757 -0.11265,-2.313741 -1.09373,-3.904797 -0.45984,-0.790749 -0.66877,-1.616888 -1.6566,-2.148388 -4.5374,-1.080104 -7.94331,2.363075 -5.46542,5.849122 0.70975,0.796851 1.37359,2.240079 1.27363,2.488204"
     id="path3815-2"
     inkscape:connector-curvature="0"
     sodipodi:nodetypes="ccccc" />
  <path
     style="fill:#d3d6dc;fill-opacity:1;stroke:#000000;stroke-width:1px;stroke-linecap:butt;stroke-linejoin:miter;stroke-opacity:1"
     d="m 227.7718,34.784773 c -0.0422,-0.876968 -1.04533,-2.127395 -1.55678,-3.733889 l -0.52628,-2.555638 c -1.44359,-3.180945 -4.67389,-1.127144 -4.40792,1.209916 1.28187,1.991397 2.49653,4.162716 2.39273,6.482988 z"
     id="path3817-45"
     inkscape:connector-curvature="0"
     sodipodi:nodetypes="cccccc" />
  <path
     style="fill:#d3d6dc;fill-opacity:1;stroke:#000000;stroke-width:1px;stroke-linecap:butt;stroke-linejoin:miter;stroke-opacity:1"
     d="m 258.0787,59.496215 c 1.39622,-0.621616 2.87034,0.114468 3.70049,-0.255702 4.47481,-1.037222 3.90343,-6.642098 0.81771,-7.744996 -0.75359,-0.355619 -2.38467,-0.181608 -3.45608,0.251234 -1.48865,0.584401 -2.30034,1.253589 -3.00506,1.258617"
     id="path3813-5"
     inkscape:connector-curvature="0"
     sodipodi:nodetypes="ccccc" />
  <path
     style="fill:#d3d6dc;fill-opacity:1;stroke:#000000;stroke-width:1px;stroke-linecap:butt;stroke-linejoin:miter;stroke-opacity:1"
     d="m 254.94912,48.795273 c 1.43706,0.04634 2.31588,-0.0534 3.93151,-0.993433 0.80227,-0.439455 1.63348,-0.627176 2.19008,-1.601076 1.19584,-4.508318 -2.15893,-8.001116 -5.70733,-5.61332 -0.81475,0.689122 -1.19945,1.164799 -2.46051,1.211054"
     id="path3815-1"
     inkscape:connector-curvature="0"
     sodipodi:nodetypes="ccccc" />
  <path
     style="fill:#d3d6dc;fill-opacity:1;stroke:#000000;stroke-width:1px;stroke-linecap:butt;stroke-linejoin:miter;stroke-opacity:1"
     d="m 255.98827,53.428729 c 0.87776,-0.01968 2.01785,-1.465166 3.6369,-1.935335 l 2.56828,-0.460701 c 3.21685,-1.361707 1.24638,-4.643511 -1.09671,-4.437436 -2.09003,1.497392 -4.18065,1.95631 -6.6099,1.751417 z"
     id="path3817-7"
     inkscape:connector-curvature="0"
     sodipodi:nodetypes="cccccc" />
  <path
     style="fill:#d3d6dc;fill-opacity:1;stroke:#000000;stroke-width:1.04356802px;stroke-linecap:butt;stroke-linejoin:miter;stroke-opacity:1"
     d="m 231.70435,85.069871 c 0.69346,1.433702 -0.0302,2.990577 0.38269,3.842992 1.23061,4.62771 7.06603,3.856116 8.12334,0.610671 0.22387,-1.025602 0.0732,-2.565585 -0.37038,-3.588774 -0.65742,-1.53106 -1.3824,-2.354982 -1.40963,-3.088205"
     id="path3813-11"
     inkscape:connector-curvature="0"
     sodipodi:nodetypes="ccccc" />
  <path
     style="fill:#d3d6dc;fill-opacity:1;stroke:#000000;stroke-width:1.04356802px;stroke-linecap:butt;stroke-linejoin:miter;stroke-opacity:1"
     d="m 242.79531,81.481125 c -0.003,1.496899 0.12806,2.408355 1.16123,4.060522 0.48447,0.82124 0.70666,1.680426 1.74228,2.229448 3.54507,1.696562 8.30967,-2.479247 5.69119,-6.113484 -0.74592,-0.826499 -1.25525,-1.212075 -1.34294,-2.522975"
     id="path3815-5"
     inkscape:connector-curvature="0"
     sodipodi:nodetypes="ccccc" />
  <path
     style="fill:#d3d6dc;fill-opacity:1;stroke:#000000;stroke-width:1.04356802px;stroke-linecap:butt;stroke-linejoin:miter;stroke-opacity:1"
     d="m 238.47513,82.550406 c 0.048,0.91283 1.10281,2.210268 1.64486,3.880562 l 0.56174,2.658388 c 1.524,3.305383 4.98373,0.973382 4.69524,-1.458583 -1.06718,-2.107319 -2.11925,-4.341337 -1.99244,-6.649191 z"
     id="path3817-2"
     inkscape:connector-curvature="0"
     sodipodi:nodetypes="cccccc" />
  <path
     style="fill:#e1ac4b;fill-opacity:1;stroke:#000000;stroke-width:1px;stroke-linecap:butt;stroke-linejoin:miter;stroke-opacity:1"
     d="m 58.992399,42.055393 c -1.507812,-0.249704 -2.333217,-1.67572 -3.23003,-1.823705 -1.079282,-0.482719 -3.258196,-0.364839 -4.131618,0.231903 -1.782538,1.342845 -2.337746,3.883616 -0.814727,5.783681 1.977759,2.36597 4.000284,1.971153 6.265024,1.565787"
     id="path3813-7"
     inkscape:connector-curvature="0"
     sodipodi:nodetypes="ccccc" />
  <path
     style="fill:#e1ac4b;fill-opacity:1;stroke:#000000;stroke-width:1px;stroke-linecap:butt;stroke-linejoin:miter;stroke-opacity:1"
     d="m 55.714038,52.711696 c -2.023425,-1.093035 -4.672079,-2.10055 -6.538774,-1.204055 -4.263658,2.136093 -1.515341,7.753723 1.674427,7.828109 2.005325,0.0624 2.285974,0.229827 2.780297,0.373271"
     id="path3815-6"
     inkscape:connector-curvature="0"
     sodipodi:nodetypes="cccc" />
  <path
     style="fill:#e1ac4b;fill-opacity:1;stroke:#000000;stroke-width:1px;stroke-linecap:butt;stroke-linejoin:miter;stroke-opacity:1"
     d="m 57.54836,47.953186 c 0.319101,-0.857604 -2.642191,0.430622 -4.252658,-0.06819 l -2.397681,-1.029257 c -3.435145,-0.634126 -3.596828,3.190368 -1.527303,4.308246 2.3667,0.08675 4.842637,0.331507 6.686975,1.743159 z"
     id="path3817-1"
     inkscape:connector-curvature="0"
     sodipodi:nodetypes="cccccc" />
  <path
     style="fill:#d3d6dc;fill-opacity:1;stroke:#000000;stroke-width:0.7992714px;stroke-linecap:butt;stroke-linejoin:miter;stroke-opacity:1"
     d="m 208.71273,59.763649 c -0.70449,-2.609256 -2.59601,-2.887057 -5.25688,-2.280566 -1.74731,0.573426 -3.22992,1.8509 -2.25736,4.160875 l 3.93059,12.38783 c 1.00995,2.757174 3.80324,2.410919 5.37419,1.902304 1.45892,-0.550801 3.3212,-1.57697 2.65618,-3.748952 z"
     id="path4006-6-1"
     inkscape:connector-curvature="0"
     sodipodi:nodetypes="ccccccc" />
</svg>
