<?xml version="1.0" encoding="UTF-8" standalone="no"?>
<svg
   xmlns:dc="http://purl.org/dc/elements/1.1/"
   xmlns:cc="http://creativecommons.org/ns#"
   xmlns:rdf="http://www.w3.org/1999/02/22-rdf-syntax-ns#"
   xmlns:svg="http://www.w3.org/2000/svg"
   xmlns="http://www.w3.org/2000/svg"
   xmlns:sodipodi="http://sodipodi.sourceforge.net/DTD/sodipodi-0.dtd"
   xmlns:inkscape="http://www.inkscape.org/namespaces/inkscape"
   id="svg"
   version="1.1"
   width="660"
   height="800"
   viewBox="0 0 660 800.00001"
   sodipodi:docname="LTU_Balninkai_COA.svg"
   inkscape:version="1.0.1 (3bc2e813f5, 2020-09-07)">
  <metadata
     id="metadata11">
    <rdf:RDF>
      <cc:Work
         rdf:about="">
        <dc:format>image/svg+xml</dc:format>
        <dc:type
           rdf:resource="http://purl.org/dc/dcmitype/StillImage" />
        <dc:title />
      </cc:Work>
    </rdf:RDF>
  </metadata>
  <defs
     id="defs9" />
  <sodipodi:namedview
     pagecolor="#ffffff"
     bordercolor="#666666"
     borderopacity="1"
     objecttolerance="10"
     gridtolerance="10"
     guidetolerance="10"
     inkscape:pageopacity="0"
     inkscape:pageshadow="2"
     inkscape:window-width="1920"
     inkscape:window-height="1001"
     id="namedview7"
     showgrid="false"
     inkscape:zoom="1.3669645"
     inkscape:cx="290.73116"
     inkscape:cy="337.16673"
     inkscape:window-x="-9"
     inkscape:window-y="-9"
     inkscape:window-maximized="1"
     inkscape:current-layer="svg"
     inkscape:object-nodes="false"
     inkscape:document-rotation="0"
     inkscape:object-paths="false"
     inkscape:snap-bbox="false" />
  <path
     style="opacity:1;fill:#e30016;fill-opacity:1;stroke:none;stroke-width:10.0178;stroke-linecap:butt;stroke-linejoin:miter;stroke-miterlimit:4;stroke-dasharray:none;stroke-opacity:1"
     d="m 2,0 h 654.47687 v 469.85144 c -3.3097,101.22388 -49.1318,182.52564 -104.8961,235.85149 -60.0327,57.40752 -141.1671,89.28806 -222.4555,89.65364 C 250.89179,795.70834 174.32419,770.85268 114.3006,715.99256 56.09562,662.79467 3.50301,583.98006 2,482.05049 Z"
     id="path841"
     sodipodi:nodetypes="cccssscc" />
  <path
     style="fill:#d9dadc;fill-opacity:1;stroke:none;stroke-width:1px;stroke-linecap:butt;stroke-linejoin:miter;stroke-opacity:1"
     d="M 329.8047,112.21246 276.4181,270.95793 126.05435,194.55119 203.9396,345.5577 40.335789,398.67893 l 162.500011,52.5 -77.50001,153.5 152.50001,-79.25 52.1456,164.31299 52.6044,-163.31299 152.9869,78.46018 L 456.9071,451.80049 620.8358,399.41637 457.10357,346.81281 534.3358,194.42893 382.1306,271.31149 Z"
     id="path866"
     sodipodi:nodetypes="ccccccccccccccccc" />
  <g
     id="svgg"
     transform="matrix(1.6498556,0,0,1.6556977,0.03134726,0)">
    <path
       id="path1"
       d="M -0.019,150.98 C 0.069,271.113 0.7,297.6282 0.7,297.6282 c 0,0 0.27039617,4.7431 0.5,7.1068 0.417776,4.30087 0.728,8.321 1.596,12.865 0.399,2.09 0.939,4.97 1.201,6.4 0.262,1.43 0.621,3.05 0.797,3.6 0.176,0.55 0.54,2.08 0.809,3.4 0.486,2.391 0.776,3.427 3.186,11.4 1.95,6.446 6.746,19.469 7.587,20.6 0.163,0.22 0.591,1.156 0.949,2.079 0.813,2.095 6.422,13.361 7.726,15.521 0.532,0.88 1.18,2.05 1.441,2.6 0.26,0.55 0.976,1.752 1.591,2.672 0.614,0.92 1.117,1.761 1.117,1.869 0,0.408 9.55,14.521 10.527,15.558 0.26,0.275 1.001,1.221 1.647,2.101 15.47,21.078 40.874,42.407 66.026,55.438 5.809,3.009 9.057,4.539 16.4,7.726 0.66,0.286 2.64,1.066 4.4,1.732 1.76,0.667 4.676,1.773 6.48,2.458 1.804,0.685 3.495,1.246 3.759,1.246 0.263,0 1.487,0.34 2.72,0.755 3.124,1.052 7.436,2.267 10.041,2.827 1.21,0.261 2.56,0.621 3,0.801 0.44,0.18 3.86,0.887 7.6,1.571 5.965,1.092 8.187,1.447 14.6,2.331 9.511,1.311 41.314,1.146 50.2,-0.261 9.787,-1.549 22.656,-4.226 28,-5.824 6.637,-1.984 11.326,-3.496 12.46,-4.019 0.694,-0.32 1.435,-0.581 1.648,-0.581 0.321,0 8.291,-3.144 11.092,-4.376 5.86,-2.576 17.897,-8.759 22.243,-11.424 0.359,-0.22 1.261,-0.741 2.005,-1.158 14.495,-8.122 36.917,-27.3 49.061,-41.963 7.695,-9.292 16.451,-21.606 19.888,-27.971 0.27,-0.5 1.264,-2.258 2.21,-3.908 3.804,-6.634 9.45276,-19.04343 13.193,-28.972 1.87047,-4.9652 3.2805,-10.80235 4.6,-15.23595 1.154,-3.859 2.152,-9.42995 4.163,-19.40795 0.773,-3.835 1.36435,-8.25164 1.817,-13.60795 0.21478,-2.54152 0.347,-3.88338 0.426,-7.63975 1.00533,-47.80207 0.54001,-44.2094 0.61001,-143.4364 L 400.016,0 H 199.998 -0.019 V 150.97024 M 395.1942,5.4438243 c 0,0 -0.1352,288.4861757 -0.3872,292.3561757 -1.302,19.998 -7.209,44.752 -14.603,61.2 -0.297,0.66 -1.207,2.73 -2.023,4.6 -2.985,6.841 -10.122,20.047 -13.205,24.435 -0.757,1.076 -1.376,2.055 -1.376,2.174 0,0.588 -8.735,12.319 -13.247,17.791 -6.369,7.723 -12.995,14.529 -22.47,23.081 -20.072,18.116 -50.898,34.239 -79.283,41.467 -25.691,6.542 -56.899,7.883 -80.4,3.455 -1.1,-0.208 -3.44,-0.648 -5.2,-0.979 -6.387,-1.202 -10.027,-2.093 -19.441,-4.763 -11.105,-3.148 -29.421,-11.011 -39.759,-17.068 -1.98,-1.16 -3.96,-2.311 -4.4,-2.557 -2.338,-1.31 -12.236,-7.953 -15,-10.066 -0.99,-0.757 -2.255,-1.69 -2.812,-2.073 C 71.691,431.681 54.586,414.481 44.895,401.6 43.323,399.51 41.803,397.524 41.518,397.186 29.923,383.457 13.346,346.465 9.619,326 9.439,325.01 8.986,322.85 8.612,321.2 8.239,319.55 7.769,317.03 7.569,315.6 7.368,314.17 6.6757924,309.74079 6.314,306.8 5.9614387,303.93424 5.572976,301.06739 5.422,298.1841 2.9122916,250.25455 5.211,154.2 5.211,154.2 5.1328701,73.670532 5.0964668,5.9195815 5.1301437,5.2159123 L 5.1335937,5.2 H 200.244 c 185.404,0 194.96,0.2357749 194.96,0.2357749 M 194.195,78.6 c -0.558,1.76 -2.349,7.34 -3.979,12.4 -1.631,5.06 -3.899,12.17 -5.04,15.8 -1.141,3.63 -2.573,8.13 -3.182,10 -0.609,1.87 -2.403,7.45 -3.987,12.4 -1.584,4.95 -4.391,13.6 -4.391,13.6 l -6.20592,18.87734 -6.37108,-2.83434 c 0,0 -8.569,-4.461 -12.639,-6.544 -4.07,-2.084 -10.19,-5.229 -13.6,-6.989 -6.311,-3.259 -15.445,-7.952 -29.8,-15.313 -4.4,-2.257 -12.4,-6.395 -12.4,-6.395 L 73.211,114.063 83.998,136.2 c 0,0 9.402,18.251 13.396,26 1.814,3.52 5.776,11.26 8.805,17.2 3.029,5.94 6.45,12.6 7.602,14.8 4.815,9.195 7.037,13.815 6.815,14.174 -0.13,0.21 -2.076,0.944 -4.326,1.632 -4.002,1.223 -8.26,2.578 -15.09,4.801 -1.87,0.608 -6.64,2.129 -10.6,3.379 -3.96,1.25 -9.9,3.154 -13.2,4.233 -7.51,2.453 -12.896,4.189 -19.8,6.382 -2.97,0.943 -7.47,2.39 -10,3.215 -2.53,0.825 -11.2,3.582 -11.2,3.582 l -15.885,5.461 11.085,4.131 c 0,0 8.25,2.619 8.8,2.813 0.55,0.194 4.78,1.545 9.4,3.001 4.62,1.456 9.66,3.071 11.2,3.589 1.54,0.518 6.58,2.139 11.2,3.603 4.62,1.464 11.2,3.598 11.2,3.598 l 24.705,8.028 12.44,4.174 c 0,0 -2.115,5.136 -5.155,11.069 -9.18,17.916 -18.395,35.831 -22.187,43.135 -1.485,2.86 -7.205,14 -7.205,14 l -12.778657,25.74097 c 0,0 21.107347,-9.99767 27.380657,-13.34197 2.268,-1.22 7.13,-3.728 25.4,-13.1 4.29,-2.201 10.68,-5.486 14.2,-7.301 14.985,-7.725 27.104,-13.798 27.104,-13.798 0,0 4.26528,12.80695 6.085,18.4 0.752,2.31 2.831,8.79 4.621,14.4 1.79,5.61 3.669,11.46 4.175,13 0.905,2.752 5.09,15.803 9.106,28.4 1.123,3.52 3.527,11 3.527,11 l 5.32724,14.8902 3.06976,-7.6902 c 0,0 2.3,-7.32 2.6,-8.2 0.3,-0.88 2.094,-6.46 3.987,-12.4 1.892,-5.94 3.681,-11.52 3.975,-12.4 1.405,-4.204 13.235,-41.2 13.235,-41.2 l 5.991,-18.135 7.465,3.647 c 0,0 10.932,5.628 15.332,7.884 4.4,2.256 10.7,5.496 14,7.201 3.3,1.705 10.14,5.216 15.2,7.803 5.06,2.587 11.36,5.828 14,7.202 2.64,1.374 15.6,7.998 15.6,7.998 l 12.72003,6.18554 L 316,345.4 c 0,0 -4.328,-8.36 -6.802,-13.2 -2.474,-4.84 -5.262,-10.24 -6.196,-12 -0.933,-1.76 -4.718,-9.14 -8.41,-16.4 -3.692,-7.26 -7.005,-13.6 -7.005,-13.6 l -7.817,-16.151 16.63,-5.638 c 0,0 15.998,-5.175 25.8,-8.282 6.012,-1.906 13.823,-4.424 17.2,-5.544 1.54,-0.511 7.12,-2.31 12.4,-3.997 5.28,-1.687 14.2,-4.553 14.2,-4.553 l 14.397,-4.841 c 0,0 -1.591,-0.807 -13.397,-4.588 -5.28,-1.691 -10.05,-3.228 -10.6,-3.414 -0.55,-0.187 -4.78,-1.544 -9.4,-3.015 -4.62,-1.47 -10.47,-3.359 -13,-4.197 -2.53,-0.838 -8.38,-2.72 -13,-4.184 -4.62,-1.463 -8.85,-2.811 -9.4,-2.995 -3.003,-1.008 -20,-6.399 -20,-6.399 l -7.4,-2.386 c 0,0 -3.0123,-1.05161 -4.451,-1.806 0,0 5.998,-12.994 9.853,-20.01 0.604,-1.1 3.754,-7.22 6.999,-13.6 3.246,-6.38 6.935,-13.58 8.198,-16 1.264,-2.42 6.999,-13.6 6.999,-13.6 L 327.03306,114.28811 291.8,131.798 279,138.393 233.08683,161.14964 222.618,130 c 0,0 -5.958,-18.493 -8.636,-27 -0.901,-2.86 -2.062,-6.46 -2.581,-8 -0.518,-1.54 -1.875,-5.77 -3.014,-9.4 -1.139,-3.63 -2.995,-9.4 -2.995,-9.4 L 200.1048,61.297859 M 203.626,81.839 c 4.727,14.654 6.56,20.348 9.77,30.361 1.693,5.28 3.947,12.3 5.009,15.6 1.063,3.3 2.741,8.52 3.731,11.6 0.989,3.08 3.186,9.915 4.881,15.19 3.436,10.687 3.404,10.506 2.258,13.01 -0.453,0.99 -2.189,5.13 -3.857,9.2 -1.669,4.07 -3.381,8.21 -3.805,9.2 -0.424,0.99 -3.037,7.29 -5.808,14 -2.77,6.71 -5.827,14.09 -6.792,16.4 -0.966,2.31 -2.271,5.438 -2.9,6.952 l -1.144,2.752 -4.836,0.048 -4.835,0.048 -0.613,-1.6 c -0.338,-0.88 -3.079,-7.54 -6.092,-14.8 -3.013,-7.26 -6.069,-14.64 -6.792,-16.4 -0.723,-1.76 -2.252,-5.45 -3.398,-8.2 -1.146,-2.75 -3.311,-8 -4.811,-11.666 -1.5,-3.666 -2.933,-7.05 -3.185,-7.521 -0.439,-0.821 1.153,-6.624 4.393,-16.013 0.418,-1.21 2.135,-6.52 3.815,-11.8 4.121,-12.945 8.754,-27.399 10.579,-33 0.825,-2.53 2.177,-6.76 3.005,-9.4 0.828,-2.64 2.183,-6.87 3.012,-9.4 1.47297,-4.952468 3.19147,-9.80832 5.01385,-14.639519 M 109.8,136.196 c 2.2,1.148 7.6,3.939 12,6.202 4.4,2.264 10.52,5.415 13.6,7.004 3.08,1.588 11.31,5.804 18.288,9.369 14.899,7.611 13.89,6.877 15.711,11.429 0.793,1.98 1.601,3.96 1.797,4.4 1.176,2.637 2.804,6.569 2.804,6.771 0,0.131 0.349,1.001 0.777,1.933 0.427,0.933 2.594,6.106 4.816,11.496 2.222,5.39 4.83,11.69 5.797,14 0.967,2.31 2.674,6.45 3.792,9.2 1.118,2.75 2.39,5.77 2.826,6.711 0.83,1.792 1.033,3.289 0.447,3.289 -0.954,0 -4.387,3.396 -5.646,5.585 -0.287,0.501 -0.618,0.459 -2.273,-0.289 -1.065,-0.482 -4.636,-1.975 -7.936,-3.319 -3.3,-1.343 -8.07,-3.309 -10.6,-4.369 -2.53,-1.059 -10.99,-4.565 -18.8,-7.79 -7.81,-3.225 -14.74,-6.097 -15.4,-6.382 -0.66,-0.285 -2.416,-1.022 -3.901,-1.638 -3.341,-1.384 -2.242,0.259 -9.903,-14.798 -3.582,-7.04 -6.64,-12.98 -6.797,-13.2 -0.157,-0.22 -3.667,-7.06 -7.801,-15.2 -4.133,-8.14 -7.644,-14.98 -7.803,-15.2 -0.158,-0.22 -6.192,-12 -6.192,-12 L 80.771185,122.09764 93.058,127.608 c 0,0 14.542,7.44 16.742,8.588 M 305.601,149.8 c -0.597,1.1 -4.018,7.76 -7.602,14.8 -3.584,7.04 -6.645,12.98 -6.802,13.2 -0.157,0.22 -3.402,6.52 -7.211,14 -3.81,7.48 -7.327,14.319 -7.816,15.198 -0.964,1.731 -0.807,1.658 -25.57,11.877 -3.74,1.544 -9.77,4.033 -13.4,5.531 -3.63,1.499 -8.771,3.62 -11.425,4.714 -2.653,1.094 -6.42,2.674 -8.37,3.512 -3.42,1.469 -3.561,1.496 -3.975,0.746 -0.53,-0.958 -4.57,-5.031 -5.535,-5.578 -0.651,-0.369 4.752,-14.417 9.729,-25.296 0.427,-0.932 0.776,-1.788 0.776,-1.902 0,-0.188 7.872,-19.242 11.57,-28.002 0.836,-1.98 1.757,-4.265 2.047,-5.078 0.569,-1.593 -0.559,-0.965 28.983,-16.127 8.76,-4.497 21.337,-10.966 27.6,-14.197 2.86,-1.476 15.2,-7.811 15.2,-7.811 l 16.17751,-8.05899 M 129.968,213.444 c 2.988,1.235 7.502,3.108 10.032,4.162 4.131,1.722 29.527,12.248 32,13.263 0.55,0.226 3.7,1.536 7,2.912 l 6,2.501 0.012,4.159 c 0.006,2.287 0.096,4.389 0.2,4.669 0.268,0.728 -0.802,1.263 -10.212,5.097 -4.62,1.883 -10.29,4.218 -12.6,5.189 -2.31,0.972 -6.45,2.686 -9.2,3.809 -2.75,1.123 -5.54,2.287 -6.2,2.586 -0.66,0.299 -2.1,0.899 -3.2,1.333 -1.1,0.434 -4.16,1.69 -6.8,2.791 -12.188,5.084 -12.802,5.31 -13.8,5.074 -1.098,-0.259 -18.481,-5.781 -22,-6.988 -1.21,-0.415 -6.52,-2.127 -11.8,-3.804 -5.28,-1.677 -12.3,-3.926 -15.6,-4.998 -3.3,-1.071 -15.6,-5.009 -15.6,-5.009 l -27.0608,-9.01567 c 0,0 8.287539,-2.96905 12.4608,-4.38033 1.21,-0.413 5.71,-1.857 10,-3.207 4.29,-1.351 8.52,-2.702 9.4,-3.002 0.88,-0.3 5.92,-1.912 11.2,-3.582 5.28,-1.671 10.59,-3.374 11.8,-3.785 1.21,-0.411 6.79,-2.218 12.4,-4.016 5.61,-1.798 13.35,-4.313 17.2,-5.587 8.668,-2.871 7.857,-2.861 14.368,-0.171 m 151.343,-0.88 c 2.249,0.75 8.409,2.739 13.689,4.42 5.28,1.681 10.59,3.385 11.8,3.788 2.478,0.825 5.644,1.84 19.4,6.217 5.28,1.68 10.59,3.392 11.8,3.805 1.21,0.412 5.44,1.766 9.4,3.008 3.96,1.242 10,3.194 10,3.194 l 11.921,4.1196 -26.521,8.8714 c 0,0 -5.71,1.858 -10,3.219 -13.587,4.308 -18.937,6.02 -21.2,6.783 -1.21,0.407 -6.52,2.118 -11.8,3.802 -5.28,1.684 -12.62,4.039 -16.31,5.235 -3.691,1.196 -6.889,2.174 -7.108,2.174 -0.345,0 -12.997,-5.198 -34.782,-14.291 -10.102,-4.216 -15.501,-6.441 -20.8,-8.571 -6.158,-2.475 -6.034,-2.38 -5.516,-4.256 0.358,-1.297 0.28,-5.151 -0.14,-6.875 -0.17,-0.7 1.068,-1.348 8.256,-4.317 6.842,-2.826 13.471,-5.562 16.2,-6.688 1.21,-0.499 4.45,-1.84 7.2,-2.981 2.75,-1.141 6.8,-2.803 9,-3.694 2.2,-0.891 4.72,-1.943 5.6,-2.338 0.88,-0.395 4.12,-1.742 7.2,-2.993 3.08,-1.251 5.87,-2.432 6.2,-2.624 1.041,-0.603 2.307,-0.411 6.511,0.992 m -76.658,16.69 c 4.653,1.741 7.727,5.92 8.054,10.946 0.924,14.23 -18.199,19.046 -24.125,6.077 -4.599,-10.065 5.65,-20.922 16.071,-17.023 m -17.294,20.267 c 0.556,1.076 3.109,3.622 4.892,4.879 0.879,0.62 0.217,2.514 -5.59,16 -0.331,0.77 -2.083,5 -3.891,9.4 -8.506,20.69 -14.411,34.883 -14.868,35.735 -0.52,0.968 -1.62,1.565 -23.302,12.641 -6.38,3.259 -12.86,6.599 -14.4,7.422 -1.54,0.823 -6.76,3.523 -11.6,6.001 -8.475,4.338 -29.9,15.368 -29.9,15.368 l -8.3,3.831 c 0,0 2.11,-4.585 10.801,-21.398 3.213,-6.216 7.208,-13.988 14.598,-28.4 2.37,-4.62 5.609,-10.92 7.2,-14 1.591,-3.08 4.832,-9.38 7.203,-14 4.592,-8.947 5.029,-9.639 6.351,-10.031 0.466,-0.139 1.837,-0.673 3.047,-1.188 1.21,-0.515 7.69,-3.205 14.4,-5.978 12.027,-4.969 15.256,-6.311 18.8,-7.812 0.99,-0.419 6.21,-2.574 11.6,-4.789 5.39,-2.215 10.16,-4.189 10.6,-4.387 1.323,-0.597 1.752,-0.468 2.359,0.706 m 30.894,0.495 c 2.171,0.888 4.307,1.78 4.747,1.981 0.44,0.202 6.65,2.785 13.8,5.741 7.15,2.955 18.265,7.554 24.699,10.218 6.435,2.664 11.835,4.845 12,4.846 1.143,0.008 3.018,2.995 7.907,12.598 3.024,5.94 6.801,13.32 8.394,16.4 1.592,3.08 4.923,9.56 7.402,14.4 2.478,4.84 5.628,10.96 6.999,13.6 1.371,2.64 4.795,9.3 7.607,14.8 2.813,5.5 6.653,12.952 6.653,12.952 l 1.539,3.325 c 0,0 -4.095,-1.732 -9.1,-4.304 -5.005,-2.572 -12.43,-6.387 -16.5,-8.477 -4.07,-2.09 -10.1,-5.193 -13.4,-6.897 -5.803,-2.997 -11.096,-5.72 -28,-14.405 -4.4,-2.261 -10.61,-5.452 -13.8,-7.092 -7.181,-3.691 -6.115,-2.405 -10.193,-12.302 -1.903,-4.62 -3.702,-8.94 -3.998,-9.6 -0.295,-0.66 -1.523,-3.63 -2.729,-6.6 -1.205,-2.97 -4.025,-9.797 -6.266,-15.17 -2.242,-5.374 -5.12,-12.327 -6.396,-15.452 l -2.32,-5.68 1.98,-1.478 c 1.089,-0.813 2.542,-2.276 3.228,-3.249 1.502,-2.132 0.955,-2.117 5.747,-0.155 m -12.578,7.838 c 0.391,0.85 2.971,7.036 5.735,13.746 2.763,6.71 5.453,13.19 5.978,14.4 0.524,1.21 1.946,4.63 3.159,7.6 1.212,2.97 3.135,7.65 4.272,10.4 2.799,6.769 4.793,11.627 5.187,12.637 0.216,0.555 0.018,1.766 -0.59,3.6 -0.504,1.52 -1.942,6.003 -3.196,9.963 -1.254,3.96 -2.614,8.19 -3.024,9.4 -0.409,1.21 -2.113,6.52 -3.787,11.8 -1.673,5.28 -3.376,10.59 -3.785,11.8 -0.408,1.21 -1.759,5.44 -3.003,9.4 -1.243,3.96 -2.601,8.19 -3.018,9.4 -0.417,1.21 -2.134,6.52 -3.814,11.8 -4.31093,13.54178 -5.63913,16.67593 -5.63913,16.67593 L 196.192,399 c 0,0 -3.918,-12.3 -4.986,-15.6 -1.069,-3.3 -3.316,-10.32 -4.995,-15.6 -1.678,-5.28 -3.299,-10.32 -3.602,-11.2 -0.303,-0.88 -1.661,-5.11 -3.019,-9.4 -1.358,-4.29 -2.803,-8.79 -3.213,-10 -0.409,-1.21 -2.014,-6.165 -3.567,-11.011 l -2.822,-8.811 6.024,-14.589 c 3.314,-8.024 6.638,-16.029 7.388,-17.789 2.639,-6.198 11.303,-27.21 11.545,-28 0.229,-0.747 0.569,-0.796 5.132,-0.746 l 4.886,0.054 0.712,1.546"
       stroke="none"
       fill="#251a18"
       fill-rule="evenodd"
       sodipodi:nodetypes="ccacsscccccccscccccssccscsccssccccscscsssccccccccccsccscccsccccccccascccscccsssccccccccccsccccsccscccssssccccccccccccscccccscccccsssscccscscccccscccccsccccccccccccccccscccccccccscccccccssssccccsccccccccscssscsccccsscsscccccccsscccccccscscccccccccccccccsssccsscccccscsscccscscscccccscsccccccssssccccscccccccscccccsccsccsccccccccccsccccscccccccccccccccccccsccccscccccssccccccccc" />
  </g>
</svg>
