<?xml version="1.0" encoding="utf-8"?>
<!-- Generator: Adobe Illustrator 15.0.1, SVG Export Plug-In . SVG Version: 6.00 Build 0)  -->
<!DOCTYPE svg PUBLIC "-//W3C//DTD SVG 1.1//EN" "http://www.w3.org/Graphics/SVG/1.1/DTD/svg11.dtd">
<svg version="1.1" xmlns="http://www.w3.org/2000/svg" xmlns:xlink="http://www.w3.org/1999/xlink" x="0px" y="0px"
	 width="527px" height="614px" viewBox="-4.96 -4.965 527 614" enable-background="new -4.96 -4.965 527 614">
<path fill="#FDCB30" stroke="#000000" stroke-width="5" d="M258.509,601.551c-67.531,0-131.248-26.06-179.414-73.379
	C30.993,480.916,3.798,417.799,2.521,350.447l0-347.927h512.04V345.5c0,68.394-26.634,132.693-74.995,181.056
	C391.202,574.917,326.902,601.551,258.509,601.551z"/>
<path d="M486.07,278.95c-6.181-7.641-14.86-13.04-24.351-15.53c-13.33-1.51-26.55,1.319-39.77,2.439
	c-7.54-0.109-16.14-0.39-21.96-5.87c-7.29-6.449-15.25-12.1-24.04-16.319c14.62-16.36,29.69-32.41,42.329-50.41
	c3.711-5.98,7.681-12.21,8.53-19.36c-0.51-7.29-4.02-13.77-7.689-19.89c9.14,2.57,18.28,5.17,27.51,7.42
	c6.4,1.32,14.37,3.521,19.13-2.67c6.84-8,10.76-19.28,8.26-29.76c-2.52-14.391-10.149-27.46-11.779-42.021
	c-0.94-14.12,11.16-24.069,14.02-37.01c-3.72-1.23-7.79-0.43-11.569-0.26C422.52,55.02,380.82,64.15,340.6,77.96
	c-0.17-5.601,0.84-11.13,1.49-16.66c7.42-1.64,15.33-2.97,21.46-7.82c3.41-2.7,6.94-6.56,6.421-11.27
	c-2.99-2.811-7.431-3.13-11.131-4.28c3.07-1.28,6.131-2.59,9.08-4.15c4.6-1.71,6.03-6.779,8.359-10.64
	c-10.859,2.45-22.379,4.12-33.25,0.75c-5.18-0.89-10.609-3.82-15.859-1.74c-4.6,1.23-7.699,4.9-10.02,8.811
	c-6.641,0.33-15.801,0.1-18.76,7.43c-1.621,5.83,3.689,10.34,5.029,15.57c0.63,12.35-2.99,24.64-1.17,36.97
	c-8.939,3.69-18.3,6.63-26.48,11.9c-2.35-7.061-5.67-14.49-3.66-22.03c1.511-7.82,1.791-15.84,3.841-23.57
	c-1.38-0.17-2.75-0.33-4.12-0.5c1.74-6.99,3.9-13.88,5.6-20.88c-2.5-0.87-5.16-1.64-7.64-2.399c-1.91,5.359-3.569,10.81-5.14,16.279
	c-1.183,0.538-2.525,1.06-3.862,1.647c-0.669,0.293-1.335,0.604-1.979,0.939c-3.043,1.586-5.563,3.77-5.403,7.572
	c-0.068,0.124-0.141,0.249-0.206,0.372c0.073-0.024,0.147-0.051,0.22-0.076c0.01,0.127,0.003,0.245,0.019,0.375
	c-1.66,7.4-1.59,14.99-0.189,22.41c-0.92,6.62-3.34,12.99-5.46,19.32c-1.8-1.15-3.569-2.34-5.34-3.511c0.67-1.659,1.33-3.329,1.98-5
	c-4.82-3.77-10.5-5.939-16.42-7.279c1.64-1.771,3.27-3.53,4.84-5.36c-3.244-2.992-7.015-5.146-11.065-6.612
	c-0.579-0.209-1.163-0.405-1.752-0.586c-1.048-0.323-2.111-0.603-3.186-0.842c-0.538-0.12-1.078-0.229-1.621-0.329
	c-1.085-0.199-2.181-0.359-3.281-0.482c-1.101-0.123-2.207-0.208-3.314-0.26c2.48-1.43,5.04-2.729,7.62-3.979
	c-3.01-2.76-6.08-5.561-9.62-7.59c-5.6-2.23-11.74-2.561-17.63-3.521c1.86-1.37,3.73-2.729,5.55-4.149
	c-9.5-4.721-19.97-1.53-29.27,2.06c-6.78-6.56-16.64-8.52-25.75-6.97c1.65,2.78,3.42,5.479,5.19,8.18
	c-2.91-0.399-5.8-0.79-8.71-1.149c-0.01,1.38-0.02,2.77-0.03,4.149c4.45,3.28,9,6.41,13.49,9.62c-5.16,5.13-11.07,9.42-16.42,14.34
	c-1.99,2.74-2.47,6.24-3.91,9.271c-4.35,9.069-11.4,16.42-18.68,23.199c-1.93,2.24-5.05,4.211-5.15,7.471
	c-0.35,7.1,0.5,14.25,2.4,21.09c2.62-1.42,5.07-3.11,7.63-4.64c3.12-2,7-0.011,10.41,0.05c-1.33,4.109-3.2,7.99-5.05,11.88
	c1.57,0.71,3.14,1.46,4.77,2.04c5.86,2.87,7.61-6.86,9.77-10.32c3.94,4.13,7.02,9.13,7.7,14.94c0.1,4.97-5.21,6.87-6.5,11.17
	c0.39,2.51,2.02,4.6,3.22,6.79c2.093-0.691,4.18-0.995,6.256-1.026c0.096,0.048,0.196,0.094,0.284,0.146
	c0.024-0.047,0.044-0.095,0.068-0.143c5.917-0.002,11.743,2.184,17.361,4.103c-3.93,7.05-9.54,13.02-13.39,20.1
	c-2.29,6.82-2.94,14.08-4.48,21.09c-9.8-4.08-18.42-10.37-27.97-14.899c-15.11-3.721-27.51,6.779-41.49,10.029
	c-8.58,3.25-18.81,2.58-25.98,8.92c-6.68,8.99-12.5,18.65-19.74,27.24c-4.53,4.521-3.47,11.21-4.05,16.97
	c9.87,1.261,20.32-1.13,27.25-8.729c0.29-4.04-0.91-7.98-1.2-11.99c-0.5-3.5,2.57-6.1,3.97-8.99c1.79,1.221,3.59,2.45,5.41,3.65
	c13.08-9.01,27.45-19.13,44.2-17.68c11.07,3.109,18.53,12.59,26.91,19.85c-13.27,1.14-26.45-0.979-39.62-1.92
	c-9.68,1.521-15.72,10.1-22.18,16.59c-7.41,8.29-16.13,15.24-24.39,22.63c-3.9,3.601-4.44,9.15-6.29,13.88
	c-2.48,8.03-6.8,15.351-9.43,23.32c0.07,5.41,2.61,10.57,4.74,15.5c9.13-3.1,16.42-9.46,21.55-17.561
	c-2.25-3.159-5.1-5.909-6.94-9.34c-0.36-2.79,1.57-5.489,2.05-8.189c2.19,0.83,4.37,1.71,6.55,2.59
	c8.74-13.77,17.87-28.28,32.51-36.5c6.19-1.25,12.6,1.11,18.73,1.96c9.48,1.4,17.44,7.16,26.62,9.51
	c11.3,4.131,23.61,2.73,35.26,4.94c5.85,2.72,11.13,6.58,16.89,9.52c-1.61,10.11-5.69,19.561-8.21,29.44
	c-2.04,7.63-4.47,15.14-7.1,22.58c-4.91,1.66-10.39,2.39-14.54,5.76c-5.76,3.79-8.12,10.59-11.69,16.18
	c-1.44-8.92-1.02-18.76-6.8-26.3c-4.33-4.939-10.92-5.729-16.34-8.68c-7.38-9.61-8.83-22.92-4.14-34.07
	c-4.61,4.74-9.75,9.91-11.04,16.67c-0.02,6.141,0.98,12.23,1.56,18.34c-5.46,0.23-10.87,1.66-13.36,6.92
	c-8.76,0.091-17.43,2.54-26.2,0.69c1.68,3.74,2.13,7.82,1.02,11.8c2.33-1.52,4.73-2.92,7.25-4.109c-0.51,1.89-1.07,3.77-1.63,5.649
	c7.43-2.66,16.49-2.14,22.75,2.92c2.09,3.47,4.04,8.42,2.02,12.3c-7.71,7.46-20.81,1.021-28.34,8.811
	c12.26,0.5,24.48,3.08,36.79,1.82c0.07,6.579-0.04,13.159-0.34,19.739c0.58,9.73-8.57,16.5-8.89,25.99
	c-1.29,12.81,4.45,24.47,10.2,35.42c-3.22,0.49-6.44,1.62-9.72,1.24c-3.11-2.32-4.99-5.9-6.97-9.14
	c-3.16-5.57-1.94-12.37-3.76-18.271c-1.97-2.729-5.21-4.12-8-5.86c-3.1-2.17-6.81-0.06-10.13,0.551c2.43,0.409,4.87,0.81,7.3,1.22
	c0.49,4.16,0.03,8.82,2.77,12.33c3.89,5.18,6.55,11.13,9.42,16.92c-5.39-2.351-11.38-4.42-14.73-9.61
	c-1.94-1.63-3.36-5.17-6.33-5.27c-4.8,0.66-10.59-0.41-14.71,2.75c-0.76,2.06-0.72,4.29-0.81,6.45c1.28-1.57,2.5-3.21,4.01-4.57
	c1.82,0.47,3.49,1.26,5,2.36c8.04,6.63,18.43,9.039,27.37,14.119c-7.88,2.021-15.91,0.15-23.78-0.81c-2.05,3.37-4.3,6.64-5.87,10.27
	c-0.95,3.71,1.82,6.141,3.81,8.631c-0.19-2.79-0.36-5.58-0.44-8.37c12.22,2.05,22.61-6.57,34.83-4.561
	c-2.2,3.54-4.16,7.21-5.79,11.061c-2.16-0.37-4.32-0.73-6.48-1.09c1.53,1.789,2.96,3.89,5.21,4.84c4.61-0.011,9.01-1.82,13.49-2.7
	c0.41-3.14,0.81-6.26,1.25-9.38c5.54,0.25,12.55-1.99,16.28,3.18c9.69,11.96,23.67,18.79,36.73,26.32c0.23,2.99,0.5,6.06,0.69,9.069
	c-11.89,1.28-18.85-9.39-27.71-15.01c-4.88-1.41-10.11-0.35-15.1-0.95c-0.3,1.4-0.9,4.2-1.2,5.601c1.92-1.12,3.87-2.21,5.85-3.21
	c1.87,3.04,3.28,6.51,5.92,9c3.38,1.62,7.44,0.439,10.81,2.14c4.21,2.2,8.36,4.57,12.28,7.271c-11.83,2.109-25.52-2.92-35.91,4.819
	c-3.98,1.74-2.84,6.5-3.22,10.061c1.89-1.38,1.61-5.561,4.44-6.05c4.81-1.271,9.42,3.14,14.24,0.699
	c7.8-2.939,16.12-4.02,24.43-4.17c-6.16,5.37-14.21,7.73-20.78,12.46c-2.34,2.71-4.5,5.79-5.57,9.24c0.72,3.36,3.66,5.5,6.09,7.66
	c-0.34-2.7-0.67-5.47-0.97-8.14c4.08-0.57,8.16-1.061,12.24-1.66c4.61-9.511,12.26-19.12,23.01-21.511
	c-0.53,2.99-1.37,5.91-2.29,8.801c1.55,1.739,3.14,3.439,4.75,5.12c-1.68,1.75-3.38,3.489-5.07,5.239
	c5.59,0.311,10.15-2.91,11.61-8.13c3.84-8.35-6.08-14.71-4.63-23.14c16.47,3.75,33.07,9.66,50.21,7.12
	c1.433-0.093,2.85-0.248,4.254-0.457c9.833-1.456,19.049-5.464,28.595-8.133c-7.99,8.939-15.25,20.76-10.99,33.25
	c0.823,3.165,2.217,5.969,4.03,8.438c0.453,0.618,0.933,1.215,1.436,1.791c4.529,5.188,10.987,8.726,17.64,10.933
	c1.479,0.49,2.967,0.915,4.445,1.277c16.76,5.061,34.84,3.62,51.34-1.689c18.811-6.78,34.779-20.681,44.34-38.23
	c16.54,2.46,33.71,0.87,49.439-4.84c12.28-4.45,22.721-13.86,28.24-25.73c4.261-7.91,3.761-17.42,1.88-25.899
	c-1.89-11.601-11.369-20.05-20.96-25.82c-14.82-8.61-32.35-10.229-49.14-9.79c3.29-10.26,8.95-20.49,6.271-31.67
	c-2.811-12.89-6.36-25.97-5.41-39.28c3.449-7.62,10.42-12.939,15.32-19.59c9.629-11.53,18.25-25.36,17.92-40.939
	c0.14-6.21-3.08-11.67-5.211-17.3c4.93-1,9.95-1.641,15.011-1.301c4.989,1.561,6.68,7.29,8.409,11.7
	c3.4,13.78-3.63,26.89-7.319,39.8c-2.57,9.771-7.28,19.75-5.8,30.11c0.43,8.49,5.02,15.87,8.859,23.189
	c0.681-0.06,2.04-0.17,2.71-0.229c0.221-7.63,0.96-15.49,4.721-22.271c1.6,6.13,3.34,12.24,6.09,17.99
	c2.83-9.8,3.3-20.55,9.04-29.28c1.689,3.141,3.22,6.351,4.83,9.54c1.55,0.44,3.119,0.87,4.689,1.29
	c-0.39-8.16-0.77-16.43,1.021-24.47c6.529-14.56,20.37-24.29,27.27-38.62C490.9,291.79,490.29,284.22,486.07,278.95z M151.48,168.77
	c0.25-11.35-3.65-22.34-10.64-31.2c5.78-4.34,11.22-10.67,19.16-10.449c1.36-0.2,2.73-0.381,4.1-0.54
	c7.12,14.6,4.65,31.09,1.73,46.439C161.07,171.53,156.27,170.14,151.48,168.77z M175.36,449.57c-1.45-1.819-5.53-3.46-4.17-6.3
	c4.48-4.26,10.76-6.27,16.79-6.99c4.609,0.075,9.201,0.425,13.766,0.998c7.609,0.957,15.145,2.537,22.564,4.512h0
	c-2.574-3.079-5.58-5.69-8.814-8.013c-1.94-1.394-3.963-2.683-6.023-3.905c-1.832-1.087-3.693-2.122-5.553-3.132
	c0.37-1.66,0.74-3.31,1.12-4.96c1.942-0.174,3.886-0.317,5.831-0.434c3.89-0.232,7.784-0.354,11.678-0.376
	c9.736-0.059,19.477,0.492,29.171,1.43h0c-3.255-2.771-6.815-5.04-10.53-7.047c-6.191-3.345-12.811-5.959-19.161-8.953
	c0.793-0.75,1.611-1.514,2.47-2.218c1.718-1.41,3.614-2.568,5.9-2.802c5.991-0.999,12.027-1.397,18.078-1.443
	c0.865-0.007,1.729-0.006,2.594,0.001c1.977,0.016,3.955,0.066,5.934,0.142c6.923,0.263,13.847,0.833,20.725,1.341
	C268.46,393.74,256.8,390,246,385.1c-0.015-0.628-0.031-1.736-0.042-2.59c-0.001-0.121-0.003-0.238-0.004-0.348
	c-0.001-0.125-0.003-0.24-0.004-0.343c14.5-5.819,30.069-8.42,45.489-10.45c-1.59-0.473-3.185-0.924-4.784-1.354
	c-23.985-6.457-48.956-8.293-73.715-8.415c2.13-2.73,4.65-5.46,8.19-6.271c11.22-3.79,22.88-6.069,34.47-8.359
	c-18.421-2.313-36.936-3.693-55.477-4.522c-2.649-0.119-5.298-0.227-7.948-0.323c-3.028-0.11-6.057-0.209-9.085-0.295
	c4.54-12.97,8.19-26.229,12.33-39.319c5.08,5.96,8.82,13.14,14.62,18.439c6.24,3.431,12.46-0.819,17.72-4.01
	c0.68-0.332,1.376-0.654,2.084-0.959c3.189-1.37,6.638-2.389,10.081-2.441c0.382-0.006,0.765,0,1.146,0.019
	c1.528,0.075,3.048,0.354,4.538,0.892c2.655,0.85,5.34,1.578,8.048,2.204c6.768,1.567,13.675,2.506,20.598,3.157
	c1.385,0.131,2.771,0.249,4.155,0.359c0.09,8.3,0.119,17.399,5,24.56c5.54,8.78,10.529,17.9,16.26,26.57
	c2.35,3.989,5.03,9.84,1.551,13.92c-7.921,9.66-16.871,18.5-26.24,26.76c-2.538,2.389-5.476,4.223-8.45,6
	c-1.435,0.857-2.878,1.701-4.289,2.589c-2.352,1.478-4.615,3.075-6.601,5.051c-5.57,7.28-9.24,15.87-15.14,22.931
	c-1.537,2.114-3.497,4.095-4.748,6.434c-0.417,0.779-0.755,1.599-0.973,2.477c-0.137,1.069-0.257,2.145-0.365,3.222
	c-0.323,3.23-0.537,6.488-0.785,9.728C213.09,467.77,192.33,461.81,175.36,449.57z M256.38,466.49c1.601-2.95,3.591-5.91,3.16-9.51
	c0.38-3.75-2.24-7.88,0.069-11.3c0.931-1.58,2.041-3.03,3.131-4.49c2.24,0.98,4.43,2.37,6.939,2.5c4.44-3.189,8.36-7.1,11.26-11.74
	c6.92-10.939,17.301-19.38,28.721-25.279c8.859-3.91,16.79-10.771,21.369-19.341c-0.719-11.17-5.069-23.77,1.4-33.989
	c5.03,9.12,13.551,15.51,18.68,24.56c4.641,8.021,9.951,15.74,13.4,24.38c1.34,9.48,0.12,19.11-2.59,28.23
	c-16.58,1.33-32.37,6.93-47.93,12.46C294.37,449.76,276.09,459.93,256.38,466.49z M352.71,461.69
	c-1.87,6.13-6.61,10.68-11.351,14.73c-4.969,3.31-6.069,9.47-8.58,14.449c-10.899-2.3-21.949-3.689-33.069-4.239
	C315.63,475.25,333.4,465.659,352.71,461.69z M327.95,544.869c-12.72,3.7-26.55,5.801-39.61,2.75c-7.5-2.06-16.26-6.659-18.04-14.96
	c-1.021-4.43,2.55-8.18,4.96-11.409c7.311-9.921,20.78-12.45,32.32-11.82c18.25,1.439,35.63,7.729,53.641,10.68
	C352.939,531.51,341.55,540.71,327.95,544.869z M419.46,464.53c7.95,6.54,7.01,19.75-1.13,25.8c-9.87,9.62-24.439,9.881-37.35,9.881
	c1.68-3.79,3.34-7.58,5.039-11.351c1.201,1.021,2.391,2.05,3.58,3.09c0.49-8.189,1.33-16.439,3.95-24.25
	c-6.18,6.761-13.079,12.79-20.079,18.681c1.709,0.22,5.109,0.659,6.809,0.88c-2.09,3.93-4.17,7.859-6.27,11.79
	c-5.76-0.86-11.539-1.67-17.31-2.431c2.61-2.239,6.31-3.819,7.489-7.29c1.11-5.439-0.02-11.029,0.711-16.479
	c0.66-3.8,5.22-4.38,8.01-6.11c0.811-3.58,1.66-7.12,2.46-10.68C390.279,455.13,407.13,454.74,419.46,464.53z M41.26,356.289
	c6.5-2.239,13.46-4.09,20.37-2.84c4.71,1.15,8.87,3.79,13.45,5.29c7.69,1.771,16.21-0.689,23.48,3.04
	c-6.81,1.33-13.5,3.49-20.48,3.73c-7.91-0.221-16.33-2.431-23.94,0.7c-7.95,3.05-17.6,4.75-25.11-0.261
	c-5.03-2.55-8.24-7.399-11.5-11.8C25.28,355.869,33.45,359.55,41.26,356.289"/>
<path fill="#800000" d="M167.66,57.24c6.57-4.659,14.72-5.619,22.6-4.539c-1.58,1.1-3.22,2.1-4.87,3.069
	c-0.1,0.54-0.29,1.601-0.39,2.13c9.25,1.511,18.42,3.63,26.89,7.79c-2.34,2.391-4.27,5.15-5.37,8.33
	c7.62,1.23,15.73,2.23,22.38,6.48c-1.37,2.39-3.5,4.2-5.3,6.239c5.98,3.471,12.84,4.99,18.84,8.391c-1.17,0.87-2.33,1.74-3.5,2.609
	c2.61,2.11,5.53,3.921,7.72,6.5c-3.08,14.03-8.17,27.591-12.12,41.41c-4.39,12.971-7.65,26.28-11.67,39.37
	c-12.49-2.26-24.82-5.3-37.31-7.5c-3.95-0.63-8.26-1.5-10.93-4.75c-2.2,0.42-4.41,0.84-6.6,1.28c1-7.95,1.81-15.93,2.41-23.92
	c0.8-8.47-1.6-16.86-4.24-24.83c12.16-6.18,20.58-19.8,18.1-33.561c4.2,3.551,8.14,7.4,12.16,11.15
	c-4.18-7.45-11.68-11.93-16.81-18.54c-1.76-7.46,0.62-15.16-0.97-22.649c7.36,2.71,13.76,7.14,19.5,12.409
	c-1.33-2.18-2.76-4.29-4.18-6.409c3.07-0.271,6.16-0.431,9.24-0.73C190.49,67.17,179.77,59.8,167.66,57.24 M137.67,80.6
	c4.36-2.63,8.68-6.58,14.25-5.46c4.24,1.28,8.21,3.33,12.26,5.12c-0.01,3.37,2.54,7.65-0.17,10.67
	c-7.84,10.41-16.62,20.1-25.62,29.5c-3.52,4.54-10.23,2.521-14.54,5.43c-2.09,2.511-2.24,5.98-2.83,9.07
	c-4.34,1.56-8.3,3.94-12.29,6.21c-2.19-5.72-0.43-11.76-0.48-17.67c1.92,0.66,3.86,1.27,5.81,1.86c0.36-3.24,0.06-6.591,0.93-9.75
	c4.65-7.04,10.7-13.04,15.28-20.13C133.06,90.78,132.56,83.75,137.67,80.6 M150.77,115.79c7.55-8.84,14.01-18.641,22.34-26.82
	c4.16,4.03,7.72,9.17,8.32,15.05c-0.83,8.851-7.99,15.88-15.67,19.53c-5.09,1.56-10.63,1.63-15.55,3.79
	c-4.3,2.99-7.96,6.81-12.09,10.03c0.36-2.73,0.21-5.61,1.24-8.2C142.32,124.05,146.92,120.21,150.77,115.79z M166.41,179.9
	c17.91,4.11,35.96,7.561,53.92,11.44c-3.04,10.62-6.47,21.12-9.47,31.76c-14.92,0.79-29.57-2.09-44-5.41
	c-0.11-4.93-1.63-10.67,2.19-14.609c6.68-6.91,15.78-10.82,24.43-14.71c-9.12,1.189-16.96,6.529-23.97,12.149
	c-5.01,4.07-4.44,11.13-4.42,17.01c-4.77-1.649-6.97-5.97-8.36-10.5c-1.87-0.319-3.74-0.609-5.61-0.899
	C153.03,195.78,160.7,188.27,166.41,179.9z M229.81,192.92c10.82,1.399,21.72,1.96,32.56,3.109c-0.61,5.431,1.56,11.91-3.181,16.07
	c-2.6,3.28-5.35,7.41-9.83,8.17c-9.66,1.75-19.48,2.351-29.27,2.88C223.02,212.97,225.97,202.79,229.81,192.92z M96.45,210.25
	c8.26-4.261,19.05-5.19,26.87,0.41c7.25,4.96,15.35,8.359,23.22,12.17c-0.77,7.76,0.63,15.38,3.08,22.729
	c-4.51-0.87-9.74,0.42-13.7-2.45c-10.76-5.58-16.31-19-29.19-20.739c-7.55-0.9-14.84,2.02-21.91,4.27
	c-6.69,2.01-12.2,6.43-18.13,9.93c-3.49,2.62-7.86,0.36-11.67,1.471c-2.95,2.109-4.21,5.819-6.25,8.71
	c1.13,3.76,3.96,7.859,2.83,11.81c-5.59,6.04-14.18,8.36-22.19,8.47c-0.11-2.729-0.35-8.21-0.47-10.939
	c7.42-8.12,14.06-16.93,19.92-26.23c2.49-3.38,5.18-7.37,9.59-8.189C71.42,219,84.45,216.06,96.45,210.25z M160.67,244.73
	c0.82-5.37,2.06-10.66,3.25-15.96c14.25,2.25,28.5,6.16,43.05,5.561c-3.18,9.93-5.45,20.12-8.75,30.01
	c-1.15,3.6-5.23,4.939-7.76,7.32c-4.38,2.609-8.01,7.3-13.33,7.979c-15.29-0.21-30.89-1.32-45.44-6.37
	c-12.67-5.83-26.29-11.12-40.5-9.95c-13.79,8.45-24.61,20.95-31.49,35.53c-2.99-0.271-5.98-0.6-8.97-0.87
	c-0.89,3.67-2.59,7.3-1.87,11.19c1.63,2.949,4.99,5.109,5.2,8.71c-4.27,6.439-10.62,11.229-17.87,13.84
	c-1.55-4.3-3.27-8.8-2.7-13.46c4.32-10.16,8.68-20.32,12.33-30.75c1.62-4.26,5.5-7.09,9-9.73c11.47-8.02,19.29-19.989,29.82-29.029
	c5.05-4.34,11.87-5.141,18.21-3.49 M216.4,234.32c10.36-0.159,20.63-1.489,30.94-2.33c-2.21,5.311-4.96,10.45-6.28,16.08
	c-1,3.36,1.54,6.271,2.81,9.17c-2.78,4.94-4.99,10.4-9.07,14.471c-11.59,7.14-25.82,9.83-35.75,19.64
	c3.17-9.68,5.27-19.77,9.36-29.12c4.77-6.399,11.54-11.64,13.69-19.68c-4.16,4.84-7.53,10.32-12.16,14.77
	C211.64,249.53,214.51,242.06,216.4,234.32z M328.59,232.72c9.49,8.27,16.33,20.67,28.45,25.31c6.97-1.729,12.08-7.649,16.54-13.05
	c6.77,2.44,13.279,5.891,18.46,10.971c4.521,3.97,8.521,9.329,14.88,10.239c8.43,2.561,17.47,2.54,26.05,0.74
	c14.28-2.32,30.851-3.09,42.971,6.17c7.93,4.62,14.3,14.19,10.84,23.601c-5.83,13.869-18.7,23.119-25.971,36.089
	c-4.149,8.341-1.81,18.04-2.439,27.04c-6.41-7.25-5.4-17.909-5.42-26.859c0.04-2.38,1.649-4.29,3.09-6.021
	c9.68-9.54,16.64-22.13,17.22-35.949c1.98-11.11-8.319-21.811-19.279-21.86c-7.9-0.99-15.83,0.061-23.351,2.521
	c10.37-0.271,21.82-4.2,31.4,1.31c4.069,2.06,7.83,5.43,8.96,10.05c3.31,7.33-2.221,14.15-6.12,19.86
	c-8.44,12.08-21.19,20.42-29.061,32.92c-4.81,7.26-0.67,15.34-0.46,23.029c-2.869,6.931-5.92,13.83-7.14,21.32
	c-3.95-9.57-9.069-19.95-5.68-30.5c2.989-18.6,14.85-35.18,13.29-54.54c-1.46-5.29-2.4-11.38-6.42-15.479
	c-7-4.101-17.521-4.47-22.34,3.02c3.81,5.94,7.489,12.511,5.489,19.93c-1.55,17.631-13.739,31.351-25.14,43.83
	c-3.18,4.17-7.52,7.95-8.721,13.261c-0.899,8.29,2.49,16.189,3.181,24.38c0.489,7.42,3.87,14.33,3.84,21.79
	c-2.521,16.229-11.101,30.92-12.17,47.46c-0.83,4.239-0.08,10.02-4.29,12.689c-2.721,1.771-6.51,3.86-6.471,7.65
	c-0.77,5.729,2.221,13.14-2.189,17.939c-6.65,5.061-16.54,4.761-23.32,0.11c-3.08-7.33,3.83-14.35,9.57-17.89
	c9.801-4.91,7.09-16.98,10.53-25.58c5.909-13.61,9.899-28.29,9.601-43.23c-0.311-5.71-3.881-10.51-6.75-15.2
	c-3.631-5.63-6.301-11.81-9.451-17.689c-3.17-5.59-8.41-9.53-12.59-14.271c-5.82-6.609-4.01-15.96-4.57-24.05
	c0.23-7.99-0.699-16,0-23.97c0.881-13.47,14.48-22.99,11.621-37.13c0.17,12.22-9.19,21.03-12.23,32.229
	c-1.4,10.15-1.529,20.48-1.2,30.71c0.521,4.641,0.841,9.32,0.101,13.96c-2.271-3.239-4.7-6.439-6.34-10.02
	c-0.951-8.09,0.16-16.2,0.049-24.29c-2.959-4.91-9.639-5.46-14.84-6.19c4.971,1.82,9.92,3.811,14.391,6.7
	c-0.41,3.54-0.84,7.09-1.28,10.641c-6.771-0.25-13.09,2.33-19.67,3.29c-2.14-3.86-3.7-8.011-5.95-11.811
	c-16.529,1.8-33.199,0.03-49.28-3.93c12.37-10.04,19.65-24.49,25.42-39c9.879,2.05,19.56,5,29.57,6.39
	c7.069,1.36,10.939-6.699,13.219-12.14C321.26,257.14,325.279,245.03,328.59,232.72 M280.46,320.02
	c5.069-0.17,10.14-0.67,15.22-0.43c4.34,1.63,3.881,6.93,4.94,10.72c7.659-0.18,15.22-1.49,22.819-2.38
	c-0.06,5.82-0.56,12.37,3.561,17.08c1.811,2.87,4.891,6.279,2.8,9.87c-4.479,10.159-2.271,21.409-1.149,32.02
	c-1.26,3.8-4.621,6.561-7.101,9.63c-5.93,7.05-15.51,8.931-22.68,14.33c-6.021,4.55-11.8,9.561-16.46,15.53
	c-3.54,4.479-6.52,9.45-10.78,13.3c-3.36,3.2-8.59-1.729-11.649,2.271c-5.59,4.43-2.01,12.189-2.32,18.069
	c0.4,2.101-1.57,3.46-3.03,4.55c-5.63,3.591-12.25,5.181-18.56,7.15c0.25-4.67-1.53-9.77,0.45-14.27
	c1.84-3.601,4.8-6.431,7.21-9.631c4.81-6.449,7.73-14.1,12.78-20.399c3.23-4.01,8.08-6.021,12.23-8.851
	c10.09-6.25,18.05-15.17,26.26-23.59c3.91-4.41,9.02-8.92,9.891-14.97c-1.701-9.13-8.67-16.06-12.82-24.09
	c-3.381-7.2-9.73-13.101-10.791-21.271C280.23,329.84,280.32,324.909,280.46,320.02z M254.29,111.89c0.71,0.72,1.42,1.44,2.13,2.16
	c-2.75,6.6,1.87,12.51,5.801,17.38c-0.851,2.57-1.73,5.14-2.74,7.65c3,4.64,8.609,9.069,7.619,15.189
	c-0.779,4.7,1.2,9.17,2.34,13.65c-1.129,1.71-2.359,3.38-3.18,5.27c2.35,6.061,7.74,10.261,11.51,15.431
	c-15.52,1.529-31.109-0.261-46.529-2.021c4.48-11.84,7.23-24.22,11.13-36.24C246.13,137.47,250.92,124.9,254.29,111.89
	 M107.93,118.95c1.75-0.7,3.5-1.381,5.27-2.04c-1.04,1.369-2.1,2.72-3.16,4.079c1.35-0.31,2.7-0.619,4.06-0.93
	c-0.45,1.36-0.9,2.73-1.35,4.09c-1.53-0.79-3.05-1.58-4.57-2.37C108.12,121.08,107.99,119.66,107.93,118.95z M141.64,49.72
	c5.34-0.27,11.03-1.03,15.9,1.83c3.58,1.79,6.13,5.03,9.48,7.15c2.98,1.34,6.12,2.34,9.18,3.51c-0.52,3.439-1.55,10.31-2.07,13.75
	c-7.77,0.34-14.56-3.641-21.67-6.061c1.34-2.029,2.66-4.08,3.94-6.149C150.74,59.9,145.66,55.28,141.64,49.72 M138.1,56.96
	c7-0.29,13.14,3.88,16.93,9.45C147.92,67.61,142.21,62.06,138.1,56.96z M167.85,75.94c4.03,0.78,11.57,2.761,9.07,8.95
	c-1.17,5.23-7.75,1.8-11.47,1.42C166.19,82.83,166.98,79.38,167.85,75.94z M127.33,141.18c1.38-0.07,2.76-0.14,4.14-0.21
	c-0.2,2.91,0.16,5.94-0.77,8.74c-1.56,2.97-5.3,1.68-7.96,1.75C124.23,148.02,125.81,144.61,127.33,141.18z M151.73,207.96
	c0.94-0.021,2.82-0.05,3.75-0.07c2.1,5.5,0.84,11.33-2.14,16.23c-1.64-0.051-3.28-0.11-4.92-0.15
	C148.04,218.41,149.55,213.01,151.73,207.96z M152.79,224.87c3.35,1.189,6.69,2.39,10.07,3.489c-1.46,5.23-1.83,10.9-4.51,15.69
	c-1.36,0.39-4.07,1.18-5.42,1.57C152.44,238.72,151.85,231.75,152.79,224.87z M175.98,282.47c7.71-3.13,13.31-9.49,20.29-13.8
	c-1.45,6.99-3.62,13.81-5.65,20.66C185.55,287.47,180.59,285.29,175.98,282.47z M209.44,295.17c3.92-4.94,10.18-10.061,16.77-6.75
	C222.26,293.72,215.55,294.51,209.44,295.17z M454.4,317.409c6.63-6.029,11.34-13.729,16.939-20.64
	c-2.24,11.26-9.08,20.79-15.3,30.18c-9.79,7.42-16.7,18.42-19.08,30.5c-0.64-6.319-4.33-13.31-0.88-19.39
	C440.78,330.07,447.88,323.86,454.4,317.409z M439.66,353.53c1.82-8.149,7.25-14.689,12.13-21.21c-0.44,5.48,1.55,11.7-2.06,16.54
	c-4.591,7.73-6.24,16.641-8.181,25.3C440.54,367.35,436.53,360.43,439.66,353.53z"/>
<path fill="#FF0000" d="M327.641,23.6c7.709-1.99,14.639,2.65,22.049,3.62c8.09,0.78,16.15-0.85,24.24-1.01
	c-4.99,7-13.39,9.569-21.119,12.21c5.369,1.2,10.77,2.34,16.06,3.83c-2.14,11.859-15.271,15.58-25.55,17.06
	c-5.42-7.479-10.9-16.34-20.32-18.99c-7.2,1.391-12.37,7.271-17.85,11.73c-1.94-3.1-4.42-5.92-5.74-9.35
	c-0.46-4.261,2.98-8.44,7.23-8.971c4.049-0.399,8.159-0.38,12.25-0.45C320.359,29.18,322.96,24.52,327.641,23.6z M453.85,52.76
	c6.881-1.08,13.79-2.48,20.79-2.26c-3.63,11.439-12.649,20.71-14.21,32.81c0.34,19.65,13.641,36.71,12.431,56.57
	c-0.7,8.609-6.641,15.21-12.07,21.38c-10.05,0.07-19.7-2.74-29.22-5.62c-4.67-1.47-9.7-1.96-14.07-4.24
	c-5.95-6.109-8.391-15.3-15.51-20.37c-4.051-3.25-9.381-2.659-14.2-3.319c9.62,0.68,18.229,6.5,22.19,15.38
	c5.149,10.18,14.819,18.87,15.05,30.899c-2.57,14.051-13.06,24.65-21.351,35.69c-12.74,15.45-26.22,30.44-41.119,43.83
	c-2.781,3.02-7.351,2.9-10.211,0.09c-12.539-10.2-23.729-22.689-30.279-37.64c-3.93-9.33-10.67-18.03-20.5-21.5
	c-8.17-1.431-14.07,5.74-20.131,10.02c-4.619,4.2-12.91,5.44-17.279,0.351c-2.24-1.92-0.551-5.24-0.17-7.71
	c6.609-2.091,13.859-0.36,20.359-2.761c4.68-2.159,4.121-8.17,5.211-12.43c9.06-5.17,19.529-3.72,29.39-2.68
	c5,1.1,9.42,3.87,14.159,5.72c-2.889-1.91-5.84-3.7-8.709-5.61c9.93-1.439,19.959-1.81,29.97-2.38
	c5.94-0.01,11.021-3.22,15.989-6.029c-0.219-4.961-0.58-9.931-1.75-14.771c-1.31-4.39-5.049-7.67-6.17-12.1
	c-0.06-6.061,0.61-12.13,1.531-18.12c1.079-7.32,8.6-12.181,7.949-20.01c0.189-5.391-5.141-9.04-9.27-11.601
	c-10.521-4.33-20.851,1.42-29.801,6.45c0.11-1.48,0.33-4.45,0.45-5.94c2.091-0.989,4.31-1.83,6.101-3.34
	c2.74-3.67-0.42-11.31,4.899-13.109C379.74,65.91,416.67,57.88,453.85,52.76 M297.471,94.21c3.84-0.95,9.359-4.141,12.469-0.92
	c1.681,10.54-7.81,17.05-13.16,24.5c-4.969,6.06-6.239,14.319-5.52,21.92c1.061,9.439,8.49,15.8,14.08,22.77
	c-7.41-1.02-11.619-7.569-16.05-12.76c-4.96-6.34-10.87-13.06-11.2-21.57c2.721-8.67,10.66-13.64,17.03-19.43
	c-7.479,3.43-14.29,9.22-17.46,16.96c-2.12,4.94,0.29,9.79,2.65,14.01c5.119,8.23,11.75,15.32,18.149,22.54
	c-9.01,2.66-19.01,1.181-27.51,5.48c-0.729-4.021-1.28-8.07-1.31-12.15c0.68-6.32-4.08-11.16-5.541-16.939
	c-0.51-4.601-0.34-9.28-0.01-13.891c1.16-5.029,4.43-9.22,6.99-13.6C275.82,100.74,287.971,98.47,297.471,94.21z M265,208.07
	c1.561,0.561,3.12,1.12,4.68,1.681c-3.67,3.779-4.4,9.02-5.49,13.95c-3.92,11.659-9.31,22.8-15.879,33.199
	c-1.79-1.569-4.16-2.859-4.91-5.26c-0.42-5.66,1.9-10.88,4.26-15.85C252.2,225.85,257.59,216.17,265,208.07z M316.42,229.76
	c2.34-2.36,5.09-4.3,7.73-6.33c1.539,3.99,4.52,8.14,1.77,12.47c-4.05,13.221-7.83,26.681-13.96,39.12
	c-1.78,3.83-6.36,5.38-10.3,4.42c-9.75-2.069-19.49-4.39-28.87-7.84c1.76-2.88,3.58-5.729,5.37-8.59c3.029,2.57,6.04,5.81,10.58,4.9
	c5.64-5.7,7.449-13.96,9.71-21.351c3.95-1.62,8-3.18,11.56-5.58C313.1,237.87,314.25,233.48,316.42,229.76z M43.59,357.5
	c4.63-1.641,9.26-3.69,14.31-3.37c8.02,1.569,15.05,6.279,23.19,7.359c3.74,0.24,7.49-0.16,11.24-0.17
	c-4.5,1.67-9.16,3.74-14.1,2.681c-6.79-0.261-13.93-3.49-20.51-0.341c-7.29,2.11-15.04,5.65-22.71,3.33
	c-6.14-1.31-10.33-6.25-14.68-10.37C27.9,358.44,36.01,360.07,43.59,357.5z"/>
<path fill="#FE9824" d="M253.2,60.26c2.33-4.43,6.95-9.68,12.53-7.34C262.58,56.77,257.8,58.74,253.2,60.26z M259.74,58.72
	c3.42-3.27,7.17,0.77,10.34,2.33c-0.15,0.57-0.439,1.71-0.59,2.28c-2.84-0.23-5.7-0.391-8.54-0.54
	c3.819,0.09,6.899,2.109,7.979,5.88c0.76-3.521,1.521-7.04,2.291-10.57c0.719-0.02,2.159-0.07,2.879-0.09
	c-1.41,7.96-2.129,16.05-3.92,23.94c-2.26,1.069-4.52,2.13-6.779,3.18c0.93-4.141,0.35-8.34-1.25-12.24
	c-3.21,1.311-6.17,3.05-9.021,4.98C251.74,71.05,254.47,63.2,259.74,58.72 M309.141,72.13c0.659-4.43,5.629-7.061,9.879-6.07
	c4.931-0.01,12.041,0.23,14.381,5.58c2.42,5.68-1.061,10.89-3.86,15.48c1-0.261,2-0.511,3-0.771l-0.33,0.74l-0.3,0.66
	c-2.42,4.14-5.5,7.91-8.92,11.239c-3.721,2.771-9.25,1.141-11.01-2.97C308.5,88.66,308.811,80.06,309.141,72.13 M320.76,73.73
	c3.52-0.34,7.08-0.689,10.59-1.22C327.811,72.87,324.279,73.28,320.76,73.73 M281.04,166.27c5.489-0.41,11.14-1.83,16.649-0.88
	c3.961,1.49,4.541,6.51,5.98,9.85c-6.38,2.29-12.79,4.5-19.24,6.58c0.131,1.69,0.28,3.381,0.42,5.08c-2.26,0.28-4.529,0.58-6.8,0.83
	c0.39-3.359,0.99-6.689,1.55-10.02c-1.039,2.05-2.02,4.13-3,6.21c-0.649-0.141-1.939-0.42-2.59-0.561
	c0.74-3.279,1.711-6.5,2.561-9.76c-1.631,2.57-3.211,5.18-4.92,7.69c0.109-3.931,1.17-7.73,2.25-11.471
	c-1.11,2.011-2.211,4.04-3.271,6.08c-0.79-0.18-2.38-0.56-3.17-0.739C269.279,169.43,275.26,166.27,281.04,166.27z"/>
<path fill="#FFFFFF" d="M270.84,34.69c1.53,0.42,3.061,0.87,4.59,1.32c-1.88,8.05-3.74,16.19-7.27,23.71
	C263.21,51.63,268.01,42.62,270.84,34.69z M303.73,66.49c-2.4-12.42,8.789-20.05,18.279-25.13c-0.14,4.75-0.52,9.48-1.1,14.19
	C314.939,58.81,309.41,62.77,303.73,66.49z M323.32,41.44c6.869,4.25,13.9,9.28,17.17,16.971c0.38,3.859,0.1,7.72-0.311,11.55
	c-5.1-5.851-11.539-10.141-18.02-14.26C322.5,50.94,322.87,46.19,323.32,41.44z M305.65,67.54c4.47-4.471,10.109-7.53,15.399-10.94
	c6.06,4.061,13.41,7.58,16.979,14.271C340.01,77,339.74,83.53,340.2,89.9c-2.431,1.16-4.841,2.33-7.25,3.5
	c-0.671,3.15-0.921,6.46-2.261,9.431c-2.39,2.39-5.439,3.84-8.539,5.06c0.959,0.13,1.92,0.271,2.879,0.41
	c-1.709,1.84-3.43,3.68-5.139,5.52c-4.511-0.79-8.92-1.989-13.181-3.609c0.31-1.221,0.64-2.431,0.97-3.641
	c4.37,1.54,9,1.96,13.541,2.75c-3.82-0.899-7.591-1.89-11.351-3.01c0.19-2.58,0.729-5.05,1.021-7.6
	c4.229,1.17,8.989,3.62,13.199,1.39c3.79-3.21,6.051-7.79,7.82-12.35l0.3-0.66c2.33-4.851,3.16-10.36,2.46-15.7
	c-1.5-5.28-8.05-6.35-12.689-6.38c-4.271-0.39-10.78-0.85-12.961,3.95c-2.459,7.52-1.029,15.359-0.279,23.01
	c-4.6-0.46-6.94-4.74-6.5-8.82C302.84,77.86,304.01,72.62,305.65,67.54z M256.5,78.34c0.66-2.64,3.77-2.601,5.859-3.37
	c-0.239,2.81-0.619,5.61-1.139,8.38C233.63,173.77,205.3,263.96,177.55,354.329c-3.92,13.051-8.79,25.801-12.38,38.96
	c-1.36,0.511-2.72,1.021-4.09,1.521c1.48-9.62,4.31-18.94,7.53-28.1c11.21-36.53,22.38-73.08,33.48-109.66
	c16.85-52.58,31.87-105.73,48.53-158.38C253.11,92.05,254.26,85.03,256.5,78.34z M262.18,86.29c2.891-0.73,5.78-1.471,8.69-2.11
	c-1.86,4.05-5.57,6.56-9.83,7.55C261.41,89.91,261.8,88.1,262.18,86.29z M260.3,93.51c3.22-1.521,6.56-2.81,9.79-4.32
	c1.01,4.86,3.36,9.57,3.391,14.601c-1.16,3.359-3.44,6.18-5.141,9.27c-4.35-0.51-8.67-1-13-1.59
	C256.23,105.3,258.03,99.3,260.3,93.51z M318.45,119.87c7.489-14.2,22.021-25.601,38.55-25.79c4.93,1.01,9.98,3.97,12.4,8.55
	c2.399,5.88-1.101,11.3-3.391,16.46c-1.98-3.2-3.46-7.72-7.63-8.54c-6.78-2.04-13.72,1.76-17.989,6.75
	c-2.83,8.68-2.521,18.41-8.32,25.95c-2.78-0.41-5.35-0.74-8.061-1.17c1.24-5.351,2.461-10.7,3.74-16.04
	C324.641,123.99,321.529,121.96,318.45,119.87z M292.93,133c-0.729-9.561,6.84-16.2,12.051-23.2c2.289,1.45,4.72,2.729,6.81,4.46
	c-0.5,5.57-2.95,10.729-4.36,16.09c-2.85,8.32-4.3,17.021-7.05,25.351C295.8,148.97,291.17,141.59,292.93,133z M339.35,123.63
	c2.01-7.67,9.95-13.73,18.01-12.05c3.431,0.5,6.121,3.72,6.021,7.18c-0.31,9.36-1.69,18.65-3.21,27.88
	c-3.85,0.61-7.67,1.271-11.49,1.95c4.74,0.17,9.561-1.38,14.28-0.561c3.19,5.61,4.319,12.051,5.92,18.23
	c-7.11-6.42-15.44-12.03-25.239-12.99c9.469,3.76,20.51,7.34,25.1,17.37c-5.36,2.34-10.79,4.53-16.51,5.8
	c-0.61-7.46-4.28-14.359-10.891-18c-4.01,2.311-8.49,4.59-13.22,4.42c-3.101-0.72-7.07-3.439-4.771-7.37
	c2.76-3.369,7.67-4.659,8.881-9.31c1.879-3.03,3.069-6.76,6.1-8.9c3.311-0.439,6.141,2.04,8.939,3.49
	c-0.39,3.391-0.819,6.78-1.22,10.17c1.56-2.71,3.74-5.899,2.22-9.109c-1.709-4.61-7.22-5.45-11.09-7.511
	c3.76-1.88,7.211-4.859,11.49-5.52c3.92-0.32,7.84,0.229,11.74,0.55c-3.33-1.149-6.82-2.13-10.36-2.16
	c-4.5,0.471-8.47,2.86-12.53,4.66c1.23-2.689,1.791-6.16,4.631-7.68c4.39-2.58,9.289-4.021,14.129-5.49
	C350.221,118.69,344.74,121.22,339.35,123.63 M357.82,120.23c-0.74,1.38,1.65,2.58,2.51,1.391
	C361.109,120.2,358.68,118.99,357.82,120.23z M258.1,114.03c3.009-0.01,6.1,0.021,9.13,0.04c-1.99,3.87-4.021,7.71-6.11,11.53
	C258.23,122.37,257.15,118.25,258.1,114.03z M313.42,114.16c1.609-0.04,4.811-0.12,6.42-0.16c-0.609,2.51-1.25,5.01-1.77,7.56
	c2.699,1.55,5.39,3.11,8.1,4.65c-0.92,5.33-2.24,10.569-3.15,15.899c2.99,1.891,6.061,3.73,8.961,5.78
	c-5.541,2.32-10.521,6.13-11.86,12.311c-6.25,0.18-13.36,1.539-18.31-3.16C304.65,142.48,309.43,128.42,313.42,114.16z
	 M127.36,126.33c3.22-0.311,8.6-0.13,9.32,4.06c2.47,4.94-2.77,10.25-7.73,8.69C122.45,139.19,120.95,127.86,127.36,126.33z
	 M134.65,139.07c1.42-0.449,2.85-0.89,4.28-1.319c7.52,10.63,13.71,24.76,7.27,37.33c-2.43-1.431-7.72-1.271-8.15-5.16
	c-0.43-3.931,4.95-5.19,7.35-6.47C144.66,154.23,140.44,146.07,134.65,139.07z M325.84,162.71c5.631,1.83,11.21-0.45,16.4-2.45
	c4.529,3.69,8.16,8.45,8.3,14.57c-15.16,1.92-30.42,3.01-45.7,3.199c-0.25-5.26-2.21-10.189-5.449-14.27
	C308.13,162.7,317.061,160.87,325.84,162.71z M273.59,209.96c4.68-1.16,10.01-2.891,14.42,0.029c8.29,3.48,11.16,13.2,11.26,21.471
	c4.711-1.24,9.48-2.3,14.311-3.03c2.07,10.17-9.13,14.72-16.93,17.26c-2.11,7.74-4.271,15.57-8.68,22.38
	c-2.771-1.729-6.891-2.949-7.41-6.699c-1.82-8.03,6.39-13.19,8.119-20.29c-0.67-11.2-12-17.78-22.34-17.681
	c0.49-4.18,1.689-8.199,3.32-12.06c5.29,1.09,11.65,0.149,16.08,3.939c7.31,4.841,6.14,14.61,8.16,22.091
	c-0.43-7.301,0.369-16.15-5.621-21.65C284.71,211.35,278.55,211.39,273.59,209.96z M263.48,232.4c6.619,0.41,13.89,2.891,16.74,9.44
	c3.18,3.72,1.939,8.61,0,12.53c-3.221-4.811-5.441-11-11.23-13.341c-3.03-1.659-6.52-1.699-9.87-1.67
	C260.58,237.04,262.02,234.72,263.48,232.4z M254.02,250.04c2.41-3.57,4.26-8.79,8.96-9.74c8.22,0.92,13.51,8.439,15.799,15.83
	c0.061,1.82-0.67,3.57-1.5,5.16c-5.529,9.47-13.689,16.949-21.549,24.439c-7.2,6.51-11.4,15.44-16.67,23.42
	c-2.28,3.34-6.65,3.75-10.14,5.061c2.56-5.811,6.37-11.53,5.58-18.21c0-3.17-0.8-6.29-0.87-9.45
	C236.07,272.34,247.39,262.29,254.02,250.04z M224.94,276.67c2.68-0.22,5.37-0.37,8.07-0.44c2.04,2.96,0.94,6.61,0.28,9.82
	C228.94,284.71,225.21,281.73,224.94,276.67z M216.75,281.49c8.81-0.81,17.19,6.521,17.08,15.37c-1.16,7.84-4.7,15.86-10.92,20.97
	c-3.69,1.54-7.82,1.79-11.73,2.591c-4.66-7.94-13.83-14.23-14.68-23.92c6.4,6.909,11.94,14.539,17.89,21.84
	c8.05-5.92,13.7-15.16,14.52-25.22C227.83,286.71,222,283.85,216.75,281.49z M209.4,285.41c4.01-1.851,8.66-0.94,12.93-0.71
	c-6.24,2.779-12,7.829-19.14,7.68C205.14,289.96,207.02,287.44,209.4,285.41z M227.61,291.81c-0.26,7.09-3.61,13.479-7.16,19.45
	c-3.83-4.82-7.49-9.771-11.29-14.61C215.57,296.2,221.67,294.12,227.61,291.81z M200.38,292.77c2.45,0.62,4.5,2.141,6.56,3.54
	c-2.75,0.61-5.5,1.15-8.29,1.47C199.15,296.09,199.65,294.38,200.38,292.77z M201.73,299.05c2.01-0.65,4.03-1.261,6.06-1.86
	c2.27,3.28,4.84,6.32,7.44,9.34c-2.26,0.87-4.51,1.76-6.79,2.59c-0.84-1.409-1.68-2.81-2.51-4.21c1-1.05,2-2.109,3-3.159
	c-1.61,0.6-3.21,1.229-4.8,1.869C203.32,302.09,202.52,300.57,201.73,299.05z M209.33,310.39c2.06-0.811,4.08-1.87,6.31-2.101
	c1.47,0.98,2.74,2.24,4.06,3.421c-1.56,1.579-3.13,3.149-4.73,4.71C213.08,314.409,211.2,312.409,209.33,310.39z M100.92,338.579
	c6.57,0.58,13.17,1.36,19.47,3.36c-4.49,3.061-8.88,6.34-13.78,8.73c-0.07-2.33-0.18-4.65-0.34-6.971
	c-2.87,0.7-5.71,1.561-8.56,2.351C98.73,343.53,99.81,341.05,100.92,338.579z M151.91,398.93c1.31-3.73,5.22-5.17,8.42-6.79
	c0.25,3.399,0.41,6.899-1.04,10.11c-2.39,7.56-4.73,15.159-6.31,22.949c4.63-10.42,5.9-22.26,12.19-31.91
	c3.34,5.551,3.91,12.921,0.78,18.681c-3.04,5.68-7.78,10.16-11.96,14.979c-1.01-0.399-2.03-0.8-3.05-1.18
	C150,416.94,147.28,407.17,151.91,398.93z M296.68,195.64c3.24-1.63,6.541,0.88,9.28,2.41c8.83,5.68,13.29,15.42,17.3,24.71
	c-3.13,1.53-6.15,3.39-9.47,4.479c-4.39,0.78-8.88,0.95-13.229,2.011c-0.66-6.34-2.42-13.07-7.281-17.53
	c-3.68-2.56-7.949-4.09-12.199-5.41C286.1,202.52,290.96,198.34,296.68,195.64z M267.34,225.15c8.11-0.93,16.75,4.511,19.2,12.29
	c1.681,3.7-0.64,6.8-2.39,9.721c-2.791-5.29-4.961-11.971-11.19-14.04c-3.28-1.49-6.899-1.761-10.44-2
	C263.95,229.02,265.26,226.71,267.34,225.15z"/>
<path d="M258.64,68.06c2.61,0.311,5.219,0.73,7.78,1.391C263.8,69.12,261.21,68.65,258.64,68.06z M266.34,79.46
	c-0.3-3.53,0.08-7.12,1.641-10.3C267.62,72.62,267.2,76.08,266.34,79.46z M309.77,74.11c2.08,1.261,4.17,2.54,6.271,3.78
	c-1.33,0.39-2.66,0.78-3.99,1.17C311.279,77.41,310.52,75.76,309.77,74.11z M136.76,94.17c-1.91-4.37-1.51-10.04,3.23-12.391
	c1.93,1.21,3.46,2.921,4.94,4.631c-1.61-0.71-3.21-1.44-4.8-2.171c-0.69,0.75-1.38,1.49-2.07,2.23c2.03,0.67,4.05,1.37,6.06,2.1
	C142.14,91,139.61,92.88,136.76,94.17z M312.58,92.32c3.27,0.141,6.641,0.341,9.891,0.971C319.16,93.04,315.859,92.71,312.58,92.32z
	 M316.54,94.27c0.87-1.14,2.83,0.32,1.92,1.46C317.58,96.87,315.62,95.41,316.54,94.27z M374.01,102.22c0.561-1.07,2.41-1.07,2.98,0
	C377.34,104.03,373.65,104.03,374.01,102.22z M197.13,107.53C201.03,108.32,194.83,110.98,197.13,107.53z M198.22,112.01
	c1.81-0.36,1.81,3.34,0,2.979C197.15,114.43,197.15,112.57,198.22,112.01z M357.82,120.23c0.859-1.24,3.289-0.029,2.51,1.391
	C359.471,122.81,357.08,121.61,357.82,120.23z M377,127c2.5,0.25,7.5,0.75,10,1C384.5,127.75,379.5,127.25,377,127z M301.54,190.55
	c4.899-1.14,9.94-0.58,14.91-0.21C311.471,190.48,306.51,190.75,301.54,190.55z M321.04,68.51c1.64,0.08,1.19,2.729-0.229,2.82
	C319.15,71.27,319.54,68.54,321.04,68.51z M146.91,52.86c5.56,1.94,10.97,4.28,16.23,6.95c-0.18,1.311-0.55,3.92-0.74,5.23
	C161.1,57.62,152.15,56.61,146.91,52.86z M311.1,69.28c2.61,1.24,6.93,1.551,7.391,5.07c0.14,4.43-0.9,8.74-1.94,13
	c0.12-4,1.19-8.01,0.83-12.03C316.38,72.44,313.26,71.16,311.1,69.28z M204.58,74.02c4.48,3.84,9.17,8.8,15.69,7.36
	c-0.66,1.2-1.37,2.38-1.84,3.67c1.93,3.71,5.17,6.52,7.9,9.64c-1.09-0.489-2.17-0.97-3.25-1.46c0,0.67,0,2.021,0,2.69
	C219.71,86.4,210.23,81.79,204.58,74.02z M321.75,77.63c2.471-0.04,4.95-0.12,7.42-0.21c-1.67,1.21-3.35,2.399-5.029,3.58
	C323.34,79.88,322.54,78.76,321.75,77.63z M227.95,96.64c5.28,4.37,9.56,10.6,17.06,11.26c-1.93,0.23-3.85,0.471-5.78,0.681
	c0.69,2.84,1.35,5.689,1.91,8.569C238.73,109.07,232.1,103.68,227.95,96.64z M379.75,102.88c13.88,2.58,26.221,10.07,38.141,17.29
	c10.829,6.979,23.749,14.37,26.079,28.29c-3.029,0.569-6.09,0.96-9.18,0.91c2.65-0.78,5.28-1.58,7.91-2.431
	c-2.32-5.21-4.931-10.5-9.44-14.17C417.311,119.73,398.88,110.25,379.75,102.88z M197.31,122.1c1.62,0.42,1.62,4.38,0,4.8
	C196.26,125.64,196.26,123.36,197.31,122.1z M191.2,147.31c1.7-6.26,3.68-12.439,5.79-18.56c-2.26,15.68-6.9,32.29-20.23,42.26
	C182.19,163.53,188.49,156.33,191.2,147.31z M252.52,144.72c1.01-0.16,2.02-0.32,3.03-0.47c1.86,2.88,3.75,5.739,5.61,8.62
	c-1.07-0.601-2.131-1.2-3.18-1.811c0.97,6.57,3.15,14.29-2.33,19.54C258.58,162.15,258.7,151.76,252.52,144.72z M394.63,145.53
	c1.181,0.521,2.36,1.04,3.54,1.57c-0.07,5.601,2.49,12.061-1.07,16.96c-10.66,14.28-25.129,28.25-44.26,28.3
	c18.471-2.71,33.99-15.239,43.93-30.51C399.3,156.5,397.73,150.25,394.63,145.53z M333.6,185.36c6.301,1.591,12.58,3.38,18.69,5.641
	C345.891,189.78,339.48,188.23,333.6,185.36z M316.8,190.63c6.99,0.939,12.96,4.939,18.58,8.92c9.07,6.47,18.38,12.65,28.229,17.89
	c4.461,2.16,9.94,4.33,14.781,2.03c5.969-3.13,11.609-7.05,16.389-11.82c1.671-4.25-2.549-7.149-5.879-8.17
	c-7.721,1.04-14.98,4.42-22.82,5.01l0.07-0.739c8.289-1.05,16.06-4.33,24.26-5.811c1.77,1.49,3.998,2.711,5.215,4.686
	c0.924,1.5,0.781,4.703,0.375,6.314c-7.92,5.23-15.66,14.94-26.279,12.34C350.07,214.84,335.811,198.34,316.8,190.63z M402.5,285.4
	c3.13,3.271,6.02,7.88,4.5,12.561c-3.35,11.85-9.62,22.979-18.55,31.51c-7.33,6.77-10.29,16.92-17.44,23.859
	c3.44-6.06,7.24-11.92,10.311-18.18c-3.53,1.97-6.99,4.04-10.62,5.82c5.329-4.49,11.64-7.71,16.54-12.73
	c8.06-7.17,13.83-16.71,17.31-26.85C406.48,295.98,404.641,290.4,402.5,285.4z M320.76,73.73c3.52-0.45,7.051-0.859,10.59-1.22
	C327.84,73.04,324.279,73.39,320.76,73.73z"/>
</svg>
