<?xml version="1.0" encoding="UTF-8" standalone="no"?>
<!-- Created with Inkscape (http://www.inkscape.org/) -->
<svg
   xmlns:dc="http://purl.org/dc/elements/1.1/"
   xmlns:cc="http://creativecommons.org/ns#"
   xmlns:rdf="http://www.w3.org/1999/02/22-rdf-syntax-ns#"
   xmlns:svg="http://www.w3.org/2000/svg"
   xmlns="http://www.w3.org/2000/svg"
   xmlns:sodipodi="http://sodipodi.sourceforge.net/DTD/sodipodi-0.dtd"
   xmlns:inkscape="http://www.inkscape.org/namespaces/inkscape"
   id="svg2"
   sodipodi:version="0.32"
   inkscape:version="0.46"
   width="473"
   height="572"
   version="1.0"
   sodipodi:docname="Coat_of_arms_of_Mazeikiai_(Lithuania).svg"
   inkscape:output_extension="org.inkscape.output.svg.inkscape">
  <metadata
     id="metadata7">
    <rdf:RDF>
      <cc:Work
         rdf:about="">
        <dc:format>image/svg+xml</dc:format>
        <dc:type
           rdf:resource="http://purl.org/dc/dcmitype/StillImage" />
      </cc:Work>
    </rdf:RDF>
  </metadata>
  <defs
     id="defs5">
    <inkscape:perspective
       sodipodi:type="inkscape:persp3d"
       inkscape:vp_x="0 : 526.18109 : 1"
       inkscape:vp_y="0 : 1000 : 0"
       inkscape:vp_z="744.09448 : 526.18109 : 1"
       inkscape:persp3d-origin="372.04724 : 350.78739 : 1"
       id="perspective9" />
  </defs>
  <sodipodi:namedview
     inkscape:window-height="722"
     inkscape:window-width="986"
     inkscape:pageshadow="2"
     inkscape:pageopacity="0.0"
     guidetolerance="10.0"
     gridtolerance="10.0"
     objecttolerance="10.0"
     borderopacity="1.0"
     bordercolor="#666666"
     pagecolor="#ffffff"
     id="base"
     showgrid="false"
     inkscape:zoom="0.86363636"
     inkscape:cx="261.51306"
     inkscape:cy="286"
     inkscape:window-x="5"
     inkscape:window-y="49"
     inkscape:current-layer="svg2" />
  <path
     style="fill:#000000"
     d="M 212.5,566.82446 C 180.99173,563.65213 144.43211,551.30224 117.00527,534.56621 C 96.417635,522.00351 74.368555,502.87071 58.155413,483.5 C 37.086992,458.32843 20.681276,425.99587 12.432739,393.38926 C 5.1839555,364.73468 5.6377313,378.14023 5.26878,181.75 L 4.936726,5 L 236.5,5 L 468.06327,5 L 467.73122,181.75 C 467.3618,378.39009 467.81934,365.01189 460.48477,393.62946 C 452.05353,426.52592 435.8871,458.35939 414.84459,483.5 C 404.72198,495.59402 386.63151,512.90356 374.95407,521.66852 C 328.72681,556.36621 270.20147,572.63399 212.5,566.82446 z"
     id="path2400" />
  <path
     style="fill:#0b4da2;fill-opacity:1"
     d="M 262,559.88244 C 352.72247,549.92197 431.15334,481.61677 453.91892,392.74084 C 460.98534,365.15379 460.43827,381.62886 460.75904,186.75 L 461.04833,11 L 236.5,11 L 11.951668,11 L 12.240956,186.75 C 12.56173,381.62886 12.014659,365.15379 19.081084,392.74084 C 39.935857,474.15706 107.84627,539.25874 189.79244,556.39166 C 215.07161,561.67692 236.30556,562.70344 262,559.88244 z"
     id="path2398" />
  <path
     style="fill:#000000"
     d="M 166,472.00687 C 159.125,466.51527 153.5,461.46884 153.5,460.79257 C 153.5,460.11631 162.725,452.42627 174,443.7036 C 185.275,434.98093 198.45251,424.77747 203.28336,421.02923 L 212.06671,414.21426 L 123.06985,344.99825 C 23.623872,267.65558 30.121206,273.56909 29.223748,259.58479 C 28.694313,251.33507 30.836893,241.44217 34.165424,236.76768 C 39.103075,229.83339 54.415851,226.23473 65.398707,229.42753 C 77.012416,232.80373 84.662543,244.7649 83.742766,258.10894 C 83.492219,261.74385 82.545649,266.2044 81.639277,268.02127 C 80.732905,269.83813 80.184075,271.51741 80.419655,271.75299 C 80.655235,271.98857 82.856214,270.33019 85.31072,268.06771 C 94.227042,259.84893 96.605558,249.2086 95.604691,222.01748 C 94.701248,197.47314 95.860223,186.86419 100.47616,177.42536 C 104.9125,168.35376 112.47468,161.08503 122.23445,156.5114 C 134.72392,150.65856 140.56206,150 179.95784,150 L 215,150 L 215,123.94098 C 215,103.34977 214.73772,98.04353 213.75,98.651963 C 213.0625,99.075461 205.82118,104.72626 197.65819,111.20929 C 188.20213,118.71926 182.35812,122.72507 181.55353,122.24831 C 177.72547,119.97995 156.11217,103.40148 156.28965,102.86966 C 156.40534,102.52297 173.96886,88.447492 195.31969,71.590821 L 234.13937,40.942328 L 237.81969,43.833451 C 239.84386,45.423568 257.475,59.213059 277,74.476765 C 296.525,89.74047 312.63434,102.58045 312.79852,103.01005 C 313.13947,103.90214 289.32468,124.5 287.95233,124.5 C 287.45778,124.5 280.20745,118.875 271.84048,112 C 263.47352,105.125 255.81156,98.911983 254.81391,98.193296 C 253.07526,96.940809 253,97.94698 253,122.4433 L 253,148 L 293.89466,148 C 331.71655,148 335.26686,148.14758 341.14466,149.96413 C 352.42131,153.44919 362.85848,161.84489 371.36885,174.27656 C 377.5349,183.28373 378.28987,188.46059 378.40156,222.5 C 378.49711,251.61929 378.568,252.65026 380.81647,257.61826 C 383.37453,263.27032 388.06344,268.33598 392.16924,269.88321 L 394.83848,270.88909 L 392.68419,266.19454 C 389.7808,259.86758 389.65005,247.26389 392.42939,241.63404 C 397.10128,232.17063 405.09443,227.98568 418.42814,228.02196 C 427.49168,228.04662 432.6402,229.83472 437.35053,234.59377 C 442.60377,239.90135 444.46694,244.73445 444.45788,253.03033 C 444.44728,262.72546 441.20513,269.78395 433.54805,276.78209 C 427.64373,282.1783 381.36941,319.57169 310.21854,376.4423 C 284.79835,396.76056 264.01691,413.63556 264.03758,413.9423 C 264.05825,414.24903 276.89538,424.625 292.56454,437 L 321.05391,459.5 L 317.27696,462.82636 C 315.19963,464.65586 309.2925,469.5735 304.14999,473.75445 C 295.68683,480.63515 294.60526,481.23457 292.74703,480.07409 C 291.61791,479.36895 278.69804,468.77421 264.0362,456.53023 L 237.3783,434.26845 L 208.43915,458.08984 C 192.52262,471.19161 179.275,481.92932 179,481.95142 C 178.725,481.97352 172.875,477.49847 166,472.00687 z"
     id="path2396" />
  <path
     style="fill:#d2ab67;fill-opacity:1"
     d="M 234.625 46.4375 C 233.58822 46.061201 162.77333 101.24473 162.28125 102.8125 C 162.09538 103.40471 180.03905 116.93393 182.21875 117.84375 C 182.66636 118.03059 190.57927 112.14596 199.78125 104.78125 C 208.98323 97.416545 217.0625 91.042093 217.75 90.625 C 218.73958 90.024644 219 96.436832 219 121.34375 L 219 152.8125 L 180.25 153.28125 C 138.36701 153.80702 136.24009 154.06407 124.3125 159.53125 C 110.98364 165.64073 102.35117 176.57719 99.9375 190.4375 C 99.138584 195.02523 98.894829 204.12327 99.21875 217.4375 C 99.772062 240.18043 98.953565 250.3968 95.875 258.625 C 92.182577 268.49389 83.448775 276.09782 74.09375 277.59375 C 69.011462 278.40644 68.534606 276.45766 73 273.15625 C 83.190204 265.6223 82.346623 244.84304 71.53125 236.59375 C 66.587379 232.82289 63.330276 231.85315 55.78125 231.84375 C 46.228896 231.83186 38.962776 235.21866 35.875 241.15625 C 32.505394 247.63578 31.927117 263.17012 34.84375 269.1875 C 36.666023 272.94708 48.34659 282.36575 127.5 343.875 C 177.31192 382.58331 217.93962 414.37401 217.78125 414.5 C 217.62289 414.626 204.225 424.97381 188 437.5 C 171.775 450.0262 158.3446 460.40131 158.15625 460.5625 C 157.72904 460.92813 177.98677 477 178.875 477 C 179.23099 477 192.42616 466.425 208.1875 453.5 C 223.94883 440.575 237.05625 430 237.3125 430 C 237.56875 430 250.50759 440.54138 266.0625 453.4375 L 294.34375 476.90625 L 298.96875 473.1875 C 301.50429 471.15389 306.10502 467.475 309.21875 465 C 312.33248 462.525 314.90814 460.275 314.9375 460 C 314.96686 459.725 302.20176 449.375 286.5625 437 C 270.92326 424.625 258.20941 414.21177 258.3125 413.84375 C 258.41559 413.47572 290.675 387.38983 330 355.90625 C 439.94223 267.88656 436.50062 270.82994 439.5625 262.25 C 441.58166 256.59197 441.35447 247.61763 439.0625 243.125 C 435.0963 235.35058 427.63816 231.01223 418.1875 231 C 403.1399 230.98051 393.98561 239.60737 394.03125 253.71875 C 394.05699 261.67838 396.33019 267.6152 401.0625 271.9375 C 405.50263 275.99295 404.23189 277.12757 397.28125 275.3125 C 389.39205 273.25234 386.85342 271.76101 382.25 266.53125 C 375.29616 258.63124 374.61649 254.38108 374.53125 219 C 374.44949 185.06338 374.49346 185.44535 367.46875 175.5 C 358.20023 162.37792 347.0161 154.27288 335.03125 152 C 332.01264 151.42754 312.30636 151 289.375 151 L 249 151 L 249 120.5 C 249 103.40858 249.37762 90 249.875 90 C 250.36317 90 258.98578 96.763299 269.03125 105.03125 C 279.07671 113.29921 287.65704 119.93671 288.09375 119.78125 C 288.53044 119.6258 293.18466 115.91341 298.4375 111.53125 C 305.8691 105.33146 307.72011 103.30133 306.75 102.40625 C 303.83569 99.717316 235.65731 46.812176 234.625 46.4375 z M 216 184.71875 L 216.0625 209.09375 L 216.09375 233.5 L 240.6875 252 L 265.3125 270.5 L 193.75 270.75 C 128.09652 270.98546 122.14827 271.16101 121.5625 272.6875 C 121.21142 273.6024 121.30981 274.58729 121.78125 274.90625 C 122.25269 275.22522 144.09031 292.13001 170.3125 312.46875 L 218 349.46875 L 218 376.21875 C 218 390.94252 217.8875 402.97591 217.75 402.9375 C 216.61333 402.62012 72.5 289.82217 72.5 289.25 C 72.5 288.83834 75.028483 288.19931 78.125 287.8125 C 100.66623 284.9968 117.93915 267.87684 123.375 242.96875 C 123.67879 241.57671 124.86133 232.80172 126 223.46875 C 127.13867 214.13578 128.55154 204.7 129.125 202.5 C 130.80047 196.07221 134.67242 191.28733 140.625 188.375 L 146 185.75 L 181 185.21875 L 216 184.71875 z M 252 185 L 289.3125 185 L 326.59375 185 L 331.8125 187.59375 C 341.91581 192.62844 345.16377 200.25151 347.46875 224.5 C 349.39763 244.79203 350.21231 248.45491 354.875 257.46875 C 362.76007 272.71207 375.68723 282.31364 392.8125 285.6875 C 397.36222 286.58384 400.71316 287.65002 400.28125 288.03125 C 399.84934 288.41249 367.44745 314.41558 328.28125 345.84375 C 289.11506 377.27193 256.82756 403 256.53125 403 C 256.23495 403 256 388.44528 256 370.65625 L 256 338.3125 L 231.65625 319.90625 L 207.28125 301.5 L 278.53125 301.25 C 338.67423 301.03341 349.88805 300.78125 350.34375 299.59375 C 350.70998 298.63937 334.97969 285.85129 301.46875 259.84375 L 252.0625 221.5 L 252.03125 203.25 L 252 185 z "
     id="path2394" />
  <path
     style="fill:#000000"
     d="M 251.76263,375.28965 L 251.5,339.57929 L 226,320.226 C 211.975,309.58169 200.5,300.21462 200.5,299.41028 C 200.5,298.14057 209.98793,297.94813 272.5,297.94994 C 329.53481,297.95158 344.17384,297.69719 342.9308,296.72601 C 342.06774,296.0517 320.582,279.3 295.18471,259.5 L 249.00782,223.5 L 249.00391,202.75 L 249,182 L 289.25,182.00938 L 329.5,182.01877 L 334.56704,184.92512 C 345.41662,191.14822 348.34602,198.19945 351.0305,224.55359 C 353.19319,245.78515 354.61036,250.99269 360.85486,260.65414 C 368.36128,272.26804 380.55971,280.24488 393.73468,282.15503 C 404.87889,283.77075 407.5,284.44118 407.5,285.6759 C 407.5,286.67896 253.70841,411 252.46756,411 C 252.2243,411 251.90708,394.93034 251.76263,375.28965 z"
     id="path2392" />
  <path
     style="fill:#000000"
     d="M 142.5,349.11851 C 99.6,315.72377 64.5,287.74812 64.5,286.9504 C 64.5,285.85501 66.530619,285.33168 72.79608,284.81234 C 87.164907,283.62132 96.854316,279.11761 105.93701,269.40818 C 116.28526,258.34587 119.5971,249.05826 122.48556,223 C 125.30755,197.54132 127.89404,191.30682 138,185.60378 L 143.5,182.5 L 181.25,182.205 L 219,181.91 L 219,206.40057 L 219,230.89113 L 245.75,251.08724 C 260.4625,262.1951 272.62309,271.38019 272.77354,271.49855 C 272.92398,271.6169 272.76448,272.45019 272.41908,273.35028 C 271.84694,274.84125 265.41981,275.00964 200.16286,275.24341 L 128.53463,275.5 L 175.01732,311.55035 L 221.5,347.60069 L 221.76425,378.80035 C 221.90958,395.96016 221.68458,409.96315 221.26425,409.91811 C 220.84391,409.87307 185.4,382.51325 142.5,349.11851 z"
     id="path2388" />
  <path
     style="fill:#0b4da2;fill-opacity:1"
     d="M 216 184.71875 L 181 185.21875 L 146 185.75 L 140.625 188.375 C 134.67242 191.28733 130.80047 196.07221 129.125 202.5 C 128.55154 204.7 127.13867 214.13578 126 223.46875 C 124.86133 232.80172 123.67879 241.57671 123.375 242.96875 C 117.93915 267.87684 100.66623 284.9968 78.125 287.8125 C 75.028483 288.19931 72.5 288.83834 72.5 289.25 C 72.5 289.82217 216.61333 402.62012 217.75 402.9375 C 217.8875 402.97591 218 390.94252 218 376.21875 L 218 349.46875 L 170.3125 312.46875 C 144.09031 292.13001 122.25269 275.22522 121.78125 274.90625 C 121.30981 274.58729 121.21142 273.6024 121.5625 272.6875 C 122.14827 271.16101 128.09652 270.98546 193.75 270.75 L 265.3125 270.5 L 240.6875 252 L 216.09375 233.5 L 216.0625 209.09375 L 216 184.71875 z M 252 185 L 252.03125 203.25 L 252.0625 221.5 L 301.46875 259.84375 C 334.97969 285.85129 350.70998 298.63937 350.34375 299.59375 C 349.88805 300.78125 338.67423 301.03341 278.53125 301.25 L 207.28125 301.5 L 231.65625 319.90625 L 256 338.3125 L 256 370.65625 C 256 388.44528 256.23495 403 256.53125 403 C 256.82756 403 289.11506 377.27193 328.28125 345.84375 C 367.44745 314.41558 399.84934 288.41249 400.28125 288.03125 C 400.71316 287.65002 397.36222 286.58384 392.8125 285.6875 C 375.68723 282.31364 362.76007 272.71207 354.875 257.46875 C 350.21231 248.45491 349.39763 244.79203 347.46875 224.5 C 345.16377 200.25151 341.91581 192.62844 331.8125 187.59375 L 326.59375 185 L 289.3125 185 L 252 185 z "
     id="path2390" />
</svg>
