<?xml version="1.0" encoding="UTF-8" standalone="no"?>
<svg
   xmlns:dc="http://purl.org/dc/elements/1.1/"
   xmlns:cc="http://creativecommons.org/ns#"
   xmlns:rdf="http://www.w3.org/1999/02/22-rdf-syntax-ns#"
   xmlns:svg="http://www.w3.org/2000/svg"
   xmlns="http://www.w3.org/2000/svg"
   xmlns:sodipodi="http://sodipodi.sourceforge.net/DTD/sodipodi-0.dtd"
   xmlns:inkscape="http://www.inkscape.org/namespaces/inkscape"
   width="450pt"
   height="547.5pt"
   viewBox="0 0 450 547.5"
   version="1.1"
   id="svg7518"
   sodipodi:version="0.32"
   inkscape:version="1.0.2 (e86c870879, 2021-01-15, custom)"
   sodipodi:docname="svg.svg"
   inkscape:output_extension="org.inkscape.output.svg.inkscape">
  <metadata
     id="metadata7555">
    <rdf:RDF>
      <cc:Work
         rdf:about="">
        <dc:format>image/svg+xml</dc:format>
        <dc:type
           rdf:resource="http://purl.org/dc/dcmitype/StillImage" />
      </cc:Work>
    </rdf:RDF>
  </metadata>
  <defs
     id="defs7553" />
  <sodipodi:namedview
     inkscape:window-height="1017"
     inkscape:window-width="1920"
     inkscape:pageshadow="2"
     inkscape:pageopacity="0.0"
     guidetolerance="10.0"
     gridtolerance="10.0"
     objecttolerance="10.0"
     borderopacity="1.0"
     bordercolor="#666666"
     pagecolor="#ffffff"
     id="base"
     showgrid="false"
     inkscape:zoom="0.64166667"
     inkscape:cx="429.90851"
     inkscape:cy="377.02672"
     inkscape:window-x="-8"
     inkscape:window-y="-4"
     inkscape:current-layer="svg7518"
     inkscape:document-rotation="0"
     inkscape:window-maximized="1" />
  <g
     id="g1059"
     transform="matrix(0.96067705,0,0,0.96295201,-0.5669719,0)"
     style="stroke-width:1.0397">
    <path
       d="m 0.87029,0 c -0.2,106.3 0,212.5 -0.1,318.8 -1.5,42.3 6.3,85.3 26,123 15.1,28.4 35.6,54.2 61.2,73.8 28.1,22.7 61.2,39.5 96.6,47.4 15.24645,3.48775 30.84444,5.56416 50.22971,5.56416 19.38527,0 34.98326,-2.07641 50.22971,-5.56416 35.4,-7.9 68.5,-24.7 96.6,-47.4 25.6,-19.6 46.1,-45.4 61.2,-73.8 19.7,-37.7 27.5,-80.7 26,-123 -0.1,-106.3 0.1,-212.5 -0.1,-318.8 z"
       id="path7520"
       sodipodi:nodetypes="ccccczcccccc"
       style="stroke-width:1.0397" />
    <path
       d="m 463.3,5.8 v 165 H 6.3 V 5.8 Z"
       id="path7522"
       style="fill:#ed1c24;fill-opacity:1;stroke-width:1.0397"
       sodipodi:nodetypes="ccccc" />
    <path
       id="path7524"
       style="stroke-width:1.0397"
       d="m 360.74629,35.906446 c -6.17234,-0.173365 -12.40283,1.3875 -17.74658,4.59375 -10.8,6.4 -18.10029,17.699707 -21.30029,29.699705 -0.7,2.000003 -0.99912,5.200103 -3.59912,5.6001 -2.90001,1.400003 -3.89981,-3.299707 -6.79981,-2.699707 -10.6,0 -21.20029,-0.1 -31.80029,0 -1.8,-0.1 -2.40069,1.999612 -3.20068,3.099607 -63.40001,0.100005 -126.69903,0 -189.999034,0 -4.399995,0.200003 -9.60117,-0.900585 -13.20117,2.399415 -5.999999,5.300003 -2.79912,17.000783 5.400878,17.800785 9.500002,0.399998 19.099612,-0.19971 28.599616,0.300293 v 3.300296 c -5.6,0.39999 -11.200299,0.29961 -16.800294,0.0996 -0.500002,6.1 -0.500002,12.29991 0,18.3999 5.299995,-0.1 10.600874,-0.39999 15.900874,0 1,1.10001 0.59903,2.79972 0.99903,4.19971 -5.7,0.70001 -11.399516,0.30029 -16.999519,0.30029 -0.3,5.60001 -0.199605,11.2003 -0.09961,16.8003 11.999999,0 23.999999,0.0989 35.999999,-0.10107 -0.1,-7 -0.1,-13.89893 0,-20.89893 h 5.39942 c 0.1,7 0.1,13.89893 0,20.89893 11.7,0.39999 23.40097,-0.49962 35.00098,-0.0996 0.39999,-5.6 0.29922,-11.2003 0.19921,-16.80029 h -15.70019 c 0.1,-1.60001 0.10068,-3.19884 0.20068,-4.79883 5.1,0.1 10.29951,0.1 15.49951,0 0.10001,-5.90001 0.10001,-11.7001 0,-17.6001 -5.4,-0.1 -10.8001,-0.1 -16.10009,0 0,-1.200004 -0.0996,-2.400199 -0.0996,-3.700196 5.20001,-0.3 10.49981,-0.100688 15.79981,-0.200685 h 109.99952 l 2.10058,2.699707 c 10.9,0.1 21.90039,0.1 32.90039,0 2.1,0.200003 3.4002,-1.800097 5.2002,-2.6001 2.1,-0.1 4.2,1.201365 4.5,3.401374 2.89999,12.99999 10.29941,25.39872 21.89941,32.19873 10.2,6.3 23.8001,6.50029 34.1001,0.30029 7.5,-4.4 13.0999,-11.4001 16.89991,-19.1001 6.6,-13.999996 7.59921,-30.599904 3.19921,-45.399902 -3.7,-11.8 -11.3,-22.800001 -22.5,-28.500001 -4.28749,-2.274999 -9.05232,-3.458422 -13.85303,-3.593261 z m -0.99316,16.494141 c 4.09392,0.0046 8.17549,1.124902 11.54736,3.399902 4.90001,3.8 8.0999,10.399609 6.39991,16.599612 -1.5,4.899998 -5.70088,8.299898 -9.90088,10.8999 -2,1.100003 -1.89981,4.199318 -0.79981,5.799315 2.7,1.900005 6.10059,3.200393 8.10059,5.900393 3.6,5.200001 4.09961,12.700781 0.0996,17.800781 -6.30001,8.8 -20.00039,10.19951 -28.40039,3.49951 -5.20001,-3.4 -6.2,-10.09981 -6,-15.79981 2.8,0 6.00049,0.89981 8.50048,-0.700189 1.9,-1.599997 2.70069,-3.999802 4.70069,-5.299807 1.69999,-1.299998 3.7,-2.300775 4.5,-4.300778 1.69999,-3.699997 0.59922,-8.498827 -2.80079,-10.79883 -2.59999,-1.700002 -4.29951,-4.2999 -6.4995,-6.3999 -2.4,-2.000002 -5.59981,-0.801367 -8.29981,-0.40137 -0.3,-4.599998 0,-9.499706 3,-13.199706 3.85937,-4.631249 9.86911,-7.005865 15.85254,-6.999023 z" />
    <path
       fill="#d2ab67"
       stroke="#d2ab67"
       stroke-width="0.0974721"
       opacity="1"
       d="m 345.9,43.2 c 8.3,-4.6 19,-5 27.5,-0.6 7.5,4 13.2,10.7 16.9,18.2 7.1,14.5 7.7,31.9 2,46.9 -3.8,9.6 -10.5,18.5 -20,23 -8,4 -17.8,3.9 -25.7,-0.2 -10.2,-5.2 -17.4,-15.3 -20.8,-26.1 -1,-3.1 -1.1,-6.5 -2.9,-9.3 -2,-2.8 -5.8,-2.2 -8.8,-2.4 -0.1,-4.3 -0.1,-8.5 0,-12.8 2.6,-0.2 5.6,0.2 7.8,-1.4 2.8,-2.3 2.8,-6.2 3.9,-9.3 3.3,-10.6 10.1,-20.6 20.1,-26 m -4.5,13.7 c -4.6,5.4 -5.2,13.1 -3.7,19.7 0.4,1.3 0.5,3.5 2.4,3.1 1.6,-1.5 2.4,-4.8 5.2,-4.4 2.6,0.3 3.6,3 4.3,5.2 3.3,0.4 6.3,2.7 6.1,6.3 0.1,3.4 -3.4,4.5 -6,5.2 -0.8,2.1 -1.7,5.1 -4.4,5.1 -2.9,0.4 -3.7,-4.5 -6.4,-3.6 -2,3.4 -1.6,7.6 -1.6,11.4 0.1,7.9 5.7,15.3 13.1,17.7 5.7,1.8 12.1,2.5 17.7,0.1 8.7,-3.1 15,-12.6 13.2,-21.9 -0.8,-6.2 -5.1,-11.3 -10.4,-14.3 3,-2.7 6.5,-5.1 8.5,-8.7 4.3,-7.4 2.8,-17.7 -3.8,-23.3 -9.3,-9 -26.2,-7.7 -34.2,2.4 z"
       id="path7526" />
    <path
       fill="#d2ab67"
       stroke="#d2ab67"
       stroke-width="0.0974721"
       opacity="1"
       d="m 279.9,76.6 c 10.7,0 21.4,-0.3 32.1,0.2 0.1,6.3 0.1,12.6 0,19 -10.7,0.5 -21.3,0.2 -32,0.1 -0.3,-6.4 -0.2,-12.9 -0.1,-19.3 z"
       id="path7532" />
    <path
       fill="#d2ab67"
       stroke="#d2ab67"
       stroke-width="0.0974721"
       opacity="1"
       d="m 76.6,81 c 1.9,-1.4 4.4,-1.2 6.7,-1.2 64.9,0.1 129.8,-0.2 194.6,0.1 -0.1,4.3 -0.1,8.5 0,12.8 -44.2,0.3 -88.4,0 -132.6,0.1 -20,0.5 -40,0.1 -60,0.3 -3.1,-0.2 -6.7,0.3 -9.3,-1.9 -3.2,-2.5 -2.8,-8 0.6,-10.2 z"
       id="path7534" />
    <path
       fill="#d2ab67"
       stroke="#d2ab67"
       stroke-width="0.0974721"
       opacity="1"
       d="m 110.6,96.2 c 12.2,0.1 24.4,0.2 36.6,0 0.1,2.6 0.1,5.2 0.1,7.8 5.3,0.1 10.6,0.1 15.9,0 0.1,3.6 0.1,7.2 0.1,10.8 -5.3,0 -10.7,0 -16,0 0,3.9 0,7.9 0.1,11.8 5.2,-0.1 10.4,-0.1 15.7,0.1 -0.1,3.1 -0.1,6.1 0,9.2 -9.3,0.3 -18.7,0.2 -28,0.1 -0.1,-7 0,-14 0,-21 -4.2,0.1 -8.4,0.1 -12.6,0 0,7 0.1,14 0,21 -9.6,0 -19.2,0.3 -28.8,-0.2 0.1,-3 0.1,-6 0,-9 5.6,-0.5 11.1,-0.2 16.7,-0.2 0.2,-3.9 0.2,-7.9 0.1,-11.8 -5.5,0 -11.1,0 -16.6,0 -0.1,-3.6 -0.2,-7.2 0.1,-10.8 5.5,0.1 11,0.1 16.5,0 0,-2.6 0.1,-5.2 0.1,-7.8 z"
       id="path7536" />
    <path
       style="fill:#e7e7e8;fill-opacity:1;stroke-width:1.0397"
       d="m 463.3,174.8 v 167 c -0.9,19.7 -4.5,39.2 -10,58 -12,39.6 -34.8,75.9 -65.8,103.2 -26.8,23.6 -58.5,42.1 -93.2,51 -17.73676,4.65643 -36.04693,7.16254 -59.5,7.51076 C 211.34693,561.16254 193.03676,558.65643 175.3,554 140.6,545.1 108.9,526.6 82.1,503 51.1,475.7 28.3,439.4 16.3,399.8 10.8,381 7.2,361.5 6.3,341.8 v -167 z"
       id="path7538"
       sodipodi:nodetypes="cccccccccccc" />
    <g
       id="g887"
       transform="translate(-4.8200924,-5.2)"
       style="stroke-width:1.0397">
      <path
         d="m 121.3,230.3 c 8.3,-4.7 16.7,-9.3 25.9,-11.9 8.2,-2.5 16.6,1.1 24.1,4.4 18.5,8.8 37.1,17.4 56.8,23.3 -0.6,-3 -0.3,-6.6 2.4,-8.6 3.4,-2.7 6.6,-5.8 7.9,-10.1 0.5,0 1.6,0 2.1,0 0.9,2 1.7,4.2 3.2,5.9 2.2,2.1 5.2,3.6 6.7,6.3 1.3,1.9 0.7,4.3 0.7,6.4 19.9,-6.1 38.9,-14.5 57.6,-23.3 5.4,-2.6 11.1,-5.2 17.3,-5 6.6,0.2 12.7,2.9 18.5,5.8 20.4,10.3 40.3,21.9 61.6,30.4 3.8,1.5 7.6,2.8 11.5,3.8 0.1,1.4 0.2,2.9 0.3,4.4 -8.8,1.9 -17.9,2 -26.9,2.4 -20.9,0.6 -41.1,-7 -62,-7 -16.7,0.2 -31.5,8.7 -45.4,17.1 -9.3,5.7 -20,8.6 -30.8,9.8 1.1,4.6 2.8,9 3.6,13.6 0.6,4.1 -2.7,8.1 -6.8,8.5 -5.8,0.6 -11.7,0.1 -17.6,0.2 -4.1,0.2 -9.1,-2 -9.4,-6.7 -0.5,-5.6 3,-10.5 3.9,-15.9 -4.3,-0.5 -8.6,-0.8 -12.8,-1.8 -12.4,-3.4 -22.8,-11.1 -34.1,-16.9 -7.3,-3.9 -15.4,-6.3 -23.6,-7.3 -14.4,-1.7 -28.6,2.2 -42.7,4.3 -17.1,2.8 -34.6,2.9 -51.7,0.5 -0.1,-1.8 -0.1,-3.6 0.2,-5.3 7.7,-1.1 14.8,-4.6 21.9,-7.8 13,-5.7 25.3,-12.6 37.6,-19.5"
         id="path7540"
         style="stroke-width:1.0397" />
      <path
         d="m 136.6,226.5 c -10.5,5 -20.7,10.5 -30.8,16.3 -11.7,6.9 -24.3,12 -36.9,16.7 7.4,2.5 15.4,1.7 23.1,1.6 14.8,-1 29.4,-3.5 44,-6.2 15,-2.8 30.7,0.2 44.4,6.6 11.1,6 21.4,13.9 33.7,17.4 4.4,1.3 9,1 13.5,1.6 1.8,0.1 3.1,1.7 2.7,3.5 -0.8,4.5 -2.9,8.7 -3.9,13.3 -0.2,1.4 -0.5,3.4 1,4.3 2.4,1.9 5.7,1.5 8.6,1.5 4.3,-0.2 8.6,0.4 12.9,-0.3 1.8,-0.4 4.2,-1.6 3.9,-3.8 -0.6,-5.5 -3.9,-10.4 -4,-15.9 0.9,-3.4 5.4,-2.6 8.1,-3.2 20.8,-1.6 35.8,-18.6 55.5,-23.6 16.8,-4.9 34.5,-1.1 51.3,2 15.3,3.1 31,3 46.4,1.4 -18.2,-6.9 -35.3,-16.3 -52.5,-25.2 -7.7,-4.1 -15.3,-8.6 -23.4,-11.6 -7.2,-2.6 -15.3,-1.2 -21.9,2.3 -19.7,10 -40.3,18 -61.2,24.9 -1.6,0.5 -3.3,0.7 -5,0.9 0.2,-3.2 1.7,-6.5 0.8,-9.7 -2.2,-2.4 -4.8,-4.5 -7.2,-6.7 -2.8,1.7 -5.4,4.2 -7.7,6.6 -0.9,3.2 0.9,6.5 1.1,9.8 -12,-3 -23.6,-7.4 -35,-12.2 -12.9,-5.3 -25.7,-10.9 -38.5,-16.3 -7.8,-3.1 -16,0.5 -23,4 z"
         id="path848"
         style="fill:#0072bc;fill-opacity:1;stroke-width:1.0397" />
    </g>
    <g
       id="g893"
       transform="translate(-4.8200961,84.215574)"
       style="stroke-width:1.0397">
      <path
         d="m 121.3,230.3 c 8.3,-4.7 16.7,-9.3 25.9,-11.9 8.2,-2.5 16.6,1.1 24.1,4.4 18.5,8.8 37.1,17.4 56.8,23.3 -0.6,-3 -0.3,-6.6 2.4,-8.6 3.4,-2.7 6.6,-5.8 7.9,-10.1 0.5,0 1.6,0 2.1,0 0.9,2 1.7,4.2 3.2,5.9 2.2,2.1 5.2,3.6 6.7,6.3 1.3,1.9 0.7,4.3 0.7,6.4 19.9,-6.1 38.9,-14.5 57.6,-23.3 5.4,-2.6 11.1,-5.2 17.3,-5 6.6,0.2 12.7,2.9 18.5,5.8 20.4,10.3 40.3,21.9 61.6,30.4 3.8,1.5 7.6,2.8 11.5,3.8 0.1,1.4 0.2,2.9 0.3,4.4 -8.8,1.9 -17.9,2 -26.9,2.4 -20.9,0.6 -41.1,-7 -62,-7 -16.7,0.2 -31.5,8.7 -45.4,17.1 -9.3,5.7 -20,8.6 -30.8,9.8 1.1,4.6 2.8,9 3.6,13.6 0.6,4.1 -2.7,8.1 -6.8,8.5 -5.8,0.6 -11.7,0.1 -17.6,0.2 -4.1,0.2 -9.1,-2 -9.4,-6.7 -0.5,-5.6 3,-10.5 3.9,-15.9 -4.3,-0.5 -8.6,-0.8 -12.8,-1.8 -12.4,-3.4 -22.8,-11.1 -34.1,-16.9 -7.3,-3.9 -15.4,-6.3 -23.6,-7.3 -14.4,-1.7 -28.6,2.2 -42.7,4.3 -17.1,2.8 -34.6,2.9 -51.7,0.5 -0.1,-1.8 -0.1,-3.6 0.2,-5.3 7.7,-1.1 14.8,-4.6 21.9,-7.8 13,-5.7 25.3,-12.6 37.6,-19.5"
         id="path889"
         style="stroke-width:1.0397" />
      <path
         d="m 136.6,226.5 c -10.5,5 -20.7,10.5 -30.8,16.3 -11.7,6.9 -24.3,12 -36.9,16.7 7.4,2.5 15.4,1.7 23.1,1.6 14.8,-1 29.4,-3.5 44,-6.2 15,-2.8 30.7,0.2 44.4,6.6 11.1,6 21.4,13.9 33.7,17.4 4.4,1.3 9,1 13.5,1.6 1.8,0.1 3.1,1.7 2.7,3.5 -0.8,4.5 -2.9,8.7 -3.9,13.3 -0.2,1.4 -0.5,3.4 1,4.3 2.4,1.9 5.7,1.5 8.6,1.5 4.3,-0.2 8.6,0.4 12.9,-0.3 1.8,-0.4 4.2,-1.6 3.9,-3.8 -0.6,-5.5 -3.9,-10.4 -4,-15.9 0.9,-3.4 5.4,-2.6 8.1,-3.2 20.8,-1.6 35.8,-18.6 55.5,-23.6 16.8,-4.9 34.5,-1.1 51.3,2 15.3,3.1 31,3 46.4,1.4 -18.2,-6.9 -35.3,-16.3 -52.5,-25.2 -7.7,-4.1 -15.3,-8.6 -23.4,-11.6 -7.2,-2.6 -15.3,-1.2 -21.9,2.3 -19.7,10 -40.3,18 -61.2,24.9 -1.6,0.5 -3.3,0.7 -5,0.9 0.2,-3.2 1.7,-6.5 0.8,-9.7 -2.2,-2.4 -4.8,-4.5 -7.2,-6.7 -2.8,1.7 -5.4,4.2 -7.7,6.6 -0.9,3.2 0.9,6.5 1.1,9.8 -12,-3 -23.6,-7.4 -35,-12.2 -12.9,-5.3 -25.7,-10.9 -38.5,-16.3 -7.8,-3.1 -16,0.5 -23,4 z"
         id="path891"
         style="fill:#0072bc;fill-opacity:1;stroke-width:1.0397" />
    </g>
    <g
       id="g899"
       transform="translate(-4.8200961,173.63113)"
       style="stroke-width:1.0397">
      <path
         d="m 121.3,230.3 c 8.3,-4.7 16.7,-9.3 25.9,-11.9 8.2,-2.5 16.6,1.1 24.1,4.4 18.5,8.8 37.1,17.4 56.8,23.3 -0.6,-3 -0.3,-6.6 2.4,-8.6 3.4,-2.7 6.6,-5.8 7.9,-10.1 0.5,0 1.6,0 2.1,0 0.9,2 1.7,4.2 3.2,5.9 2.2,2.1 5.2,3.6 6.7,6.3 1.3,1.9 0.7,4.3 0.7,6.4 19.9,-6.1 38.9,-14.5 57.6,-23.3 5.4,-2.6 11.1,-5.2 17.3,-5 6.6,0.2 12.7,2.9 18.5,5.8 20.4,10.3 40.3,21.9 61.6,30.4 3.8,1.5 7.6,2.8 11.5,3.8 0.1,1.4 0.2,2.9 0.3,4.4 -8.8,1.9 -17.9,2 -26.9,2.4 -20.9,0.6 -41.1,-7 -62,-7 -16.7,0.2 -31.5,8.7 -45.4,17.1 -9.3,5.7 -20,8.6 -30.8,9.8 1.1,4.6 2.8,9 3.6,13.6 0.6,4.1 -2.7,8.1 -6.8,8.5 -5.8,0.6 -11.7,0.1 -17.6,0.2 -4.1,0.2 -9.1,-2 -9.4,-6.7 -0.5,-5.6 3,-10.5 3.9,-15.9 -4.3,-0.5 -8.6,-0.8 -12.8,-1.8 -12.4,-3.4 -22.8,-11.1 -34.1,-16.9 -7.3,-3.9 -15.4,-6.3 -23.6,-7.3 -14.4,-1.7 -28.6,2.2 -42.7,4.3 -17.1,2.8 -34.6,2.9 -51.7,0.5 -0.1,-1.8 -0.1,-3.6 0.2,-5.3 7.7,-1.1 14.8,-4.6 21.9,-7.8 13,-5.7 25.3,-12.6 37.6,-19.5"
         id="path895"
         style="stroke-width:1.0397" />
      <path
         d="m 136.6,226.5 c -10.5,5 -20.7,10.5 -30.8,16.3 -11.7,6.9 -24.3,12 -36.9,16.7 7.4,2.5 15.4,1.7 23.1,1.6 14.8,-1 29.4,-3.5 44,-6.2 15,-2.8 30.7,0.2 44.4,6.6 11.1,6 21.4,13.9 33.7,17.4 4.4,1.3 9,1 13.5,1.6 1.8,0.1 3.1,1.7 2.7,3.5 -0.8,4.5 -2.9,8.7 -3.9,13.3 -0.2,1.4 -0.5,3.4 1,4.3 2.4,1.9 5.7,1.5 8.6,1.5 4.3,-0.2 8.6,0.4 12.9,-0.3 1.8,-0.4 4.2,-1.6 3.9,-3.8 -0.6,-5.5 -3.9,-10.4 -4,-15.9 0.9,-3.4 5.4,-2.6 8.1,-3.2 20.8,-1.6 35.8,-18.6 55.5,-23.6 16.8,-4.9 34.5,-1.1 51.3,2 15.3,3.1 31,3 46.4,1.4 -18.2,-6.9 -35.3,-16.3 -52.5,-25.2 -7.7,-4.1 -15.3,-8.6 -23.4,-11.6 -7.2,-2.6 -15.3,-1.2 -21.9,2.3 -19.7,10 -40.3,18 -61.2,24.9 -1.6,0.5 -3.3,0.7 -5,0.9 0.2,-3.2 1.7,-6.5 0.8,-9.7 -2.2,-2.4 -4.8,-4.5 -7.2,-6.7 -2.8,1.7 -5.4,4.2 -7.7,6.6 -0.9,3.2 0.9,6.5 1.1,9.8 -12,-3 -23.6,-7.4 -35,-12.2 -12.9,-5.3 -25.7,-10.9 -38.5,-16.3 -7.8,-3.1 -16,0.5 -23,4 z"
         id="path897"
         style="fill:#0072bc;fill-opacity:1;stroke-width:1.0397" />
    </g>
  </g>
</svg>
