<?xml version="1.0" encoding="UTF-8" standalone="no"?>
<!-- Created with Inkscape (http://www.inkscape.org/) -->
<svg
   xmlns:dc="http://purl.org/dc/elements/1.1/"
   xmlns:cc="http://web.resource.org/cc/"
   xmlns:rdf="http://www.w3.org/1999/02/22-rdf-syntax-ns#"
   xmlns:svg="http://www.w3.org/2000/svg"
   xmlns="http://www.w3.org/2000/svg"
   xmlns:sodipodi="http://sodipodi.sourceforge.net/DTD/sodipodi-0.dtd"
   xmlns:inkscape="http://www.inkscape.org/namespaces/inkscape"
   id="svg2"
   sodipodi:version="0.32"
   inkscape:version="0.45.1"
   width="172.688"
   height="210.6479"
   version="1.0"
   sodipodi:docbase="/home/liftarn/Bilder"
   sodipodi:docname="Mosedis_COA.svg"
   inkscape:output_extension="org.inkscape.output.svg.inkscape">
  <metadata
     id="metadata7">
    <rdf:RDF>
      <cc:Work
         rdf:about="">
        <dc:format>image/svg+xml</dc:format>
        <dc:type
           rdf:resource="http://purl.org/dc/dcmitype/StillImage" />
      </cc:Work>
    </rdf:RDF>
  </metadata>
  <defs
     id="defs5" />
  <sodipodi:namedview
     inkscape:window-height="693"
     inkscape:window-width="1024"
     inkscape:pageshadow="2"
     inkscape:pageopacity="0.0"
     guidetolerance="10.0"
     gridtolerance="10.0"
     objecttolerance="10.0"
     borderopacity="1.0"
     bordercolor="#666666"
     pagecolor="#ffffff"
     id="base"
     inkscape:zoom="1.9198113"
     inkscape:cx="87"
     inkscape:cy="151.04872"
     inkscape:window-x="0"
     inkscape:window-y="25"
     inkscape:current-layer="svg2" />
  <g
     id="g2322">
    <path
       id="CoA_Nr._11"
       style="fill:#de2119;fill-opacity:1;stroke:#000000;stroke-width:2.363868"
       d="M 1.181934,1.181934 L 1.181934,131.33314 L 1.2584287,131.33314 C 1.2584287,174.46248 39.393889,209.46598 86.382247,209.46598 C 133.3706,209.46598 171.50608,174.46248 171.50608,131.33314 L 171.35187,131.33314 L 171.35187,1.181934 L 1.181934,1.181934 z " />
    <g
       transform="translate(-0.9041529,-0.4156041)"
       id="g2293">
      <path
         style="fill:#000000"
         d="M 104,192.06315 C 104,190.56948 103.46532,190.0021 102.25,190.20616 C 100.96951,190.42117 100.56242,189.90475 100.73266,188.28134 C 100.93854,186.31802 100.68419,186.16957 98.52259,186.99141 C 96.237782,187.86009 96.139156,187.76419 96.996984,185.50793 C 97.732413,183.57361 97.625449,183.2065 96.457051,183.65485 C 94.059558,184.57486 94.753939,181.15515 97.527878,178.38121 C 99.486483,176.42261 100.68735,175.99206 102.86039,176.46934 C 107.64384,177.51996 117.74705,174.41371 115.81864,172.48531 C 115.51723,172.18389 114.19723,171.73398 112.88531,171.48551 C 105.83372,170.14995 104.14374,169.59906 100.27658,167.37538 C 96.112977,164.98124 91,158.00661 91,154.72116 C 91,152.05626 89.242019,151.82385 87.031534,154.19653 C 84.334918,157.09101 83.07243,161.85466 84.191443,164.91284 C 84.747985,166.43383 84.690957,167.70904 84.037161,168.36284 C 83.466722,168.93328 83,170.435 83,171.7 C 83,173.0906 82.399379,174 81.480948,174 C 80.350283,174 80.126254,174.65485 80.604729,176.56125 C 81.121927,178.62193 80.832493,179.23104 79.123781,179.67788 C 77.64293,180.06513 76.995364,181.03046 76.984687,182.86663 C 76.966121,186.05952 76.179033,187.34318 73.315741,188.8503 C 70.3215,190.42634 65.633597,190.29157 61.361647,188.50664 C 59.395884,187.68529 57.272837,187.30744 56.643766,187.66696 C 56.014695,188.02649 55.846318,187.93969 56.269597,187.47406 C 57.00553,186.6645 43.797886,179.8239 41.293989,179.71778 C 40.630682,179.68967 40.253278,179.3992 40.455313,179.0723 C 41.105622,178.02008 38.595309,175.427 35,173.43713 C 33.075,172.37171 31.323375,171.39837 31.107499,171.27417 C 30.891624,171.14996 31.312688,170.32816 32.043197,169.44795 C 32.975136,168.32503 33.044909,167.64579 32.277066,167.17124 C 30.52748,166.08993 32.038693,160.92891 34.382077,159.9823 C 36.371486,159.17869 36.380808,159.12293 34.535714,159.06339 C 32.813911,159.00782 32.752188,158.82162 34.035714,157.55495 C 35.846196,155.76826 40.760881,154.80408 41.549929,156.08079 C 42.175807,157.09348 52.47208,163.86019 54.671146,164.70405 C 56.692013,165.47953 56.314932,162.69001 53,152.34147 C 49.384013,141.0531 49.336223,139.65008 52.363991,133.66948 C 54.664151,129.12608 54.674089,129 52.732024,129 C 48.914288,129 44.324302,125.08565 41.14294,119.11681 C 39.414323,115.87359 38,112.55178 38,111.73502 C 38,110.885 36.717196,109.99344 35,109.65 C 32.639909,109.17798 32,108.524 32,106.58402 C 32,105.22773 31.559345,103.84569 31.020766,103.51283 C 29.77229,102.74123 30.453822,88.88906 31.870499,86.241975 C 32.453022,85.15352 32.607965,83.941299 32.214816,83.54815 C 31.821667,83.155001 32.175,82.983333 33,83.166667 C 34.193184,83.431819 34.614717,81.965921 35.060843,76 C 35.369306,71.875 35.983738,67.70263 36.426248,66.728066 C 37.553106,64.246325 52.608351,52.369336 57.836321,49.837792 C 63.754701,46.971932 69.771822,47.741025 82.922954,53.044305 C 92.755669,57.009411 93.420097,57.145969 94.656008,55.455759 C 95.585935,54.184008 95.660702,53.296098 94.91366,52.395967 C 94.175677,51.506752 94.185794,50.521357 94.947521,49.098058 C 95.859366,47.39426 95.630847,46.804228 93.524635,45.424185 C 92.144578,44.519937 90.313595,44.049421 89.455783,44.378594 C 88.597971,44.707768 88.141912,44.579399 88.442319,44.09333 C 88.742725,43.607262 88.305286,42.947391 87.470232,42.62695 C 84.951931,41.660588 84.071599,37.831036 85.655358,34.732035 C 87.230708,31.64949 87.171214,31.597218 80.909931,30.562603 C 76.753913,29.875863 73.317915,26.61917 72.856432,22.929371 C 72.4571,19.7365 75.153903,15.454522 78.039339,14.699964 C 79.96027,14.197629 80.15839,14.46746 79.776933,17.066491 C 79.540132,18.679921 79.745007,20 80.23221,20 C 80.719413,20 80.865016,20.409391 80.555773,20.909758 C 79.4123,22.759935 81.302453,24.989674 84.849493,25.974891 C 89.918716,27.382905 90.074036,27.32493 88.975249,24.4349 C 88.438862,23.024096 88,19.746939 88,17.15233 L 88,12.43486 L 92.75,12.622614 C 95.3625,12.725878 99.3,13.494996 101.5,14.331764 C 106.08749,16.076614 116.83235,17.080284 117.60148,15.835794 C 117.88559,15.376107 119.25557,15 120.64588,15 C 122.49253,15 123.45682,15.750001 124.22425,17.78316 C 125.12991,20.182508 125.72636,20.5136 128.54938,20.184028 C 131.19925,19.874671 132.14793,20.296135 133.52194,22.393148 C 134.45582,23.818424 134.9327,25.732989 134.58168,26.647737 C 134.19684,27.650609 134.75432,29.17403 135.98584,30.484932 C 137.10916,31.680642 138.61405,34.648186 139.33005,37.079475 C 140.27715,40.295476 141.09075,41.419934 142.31594,41.206163 C 143.24217,41.044553 144,41.444944 144,42.095921 C 144,42.746897 144.66659,43.779124 145.48132,44.389757 C 146.29605,45.000391 147.11215,46.518605 147.29489,47.763567 C 147.47762,49.008529 148.16103,50.561029 148.81357,51.213567 C 150.40293,52.802929 150.30804,54.05207 148.49633,55.389757 C 147.16003,56.376429 147.17064,57.334759 148.59163,64 C 151.72881,78.715123 148.8796,90.385545 139.42737,101.53702 C 127.81925,115.23196 126.27671,120.10291 130.60453,129.3974 C 131.91129,132.20383 132.98486,135.67681 132.99023,137.11514 C 132.9956,138.55347 133.83232,140.80347 134.8496,142.11514 C 136.42389,144.14502 137.60116,148.93449 136.17534,147.50868 C 135.01283,146.34616 133.32186,149.23287 133.77544,151.60562 C 134.10178,153.31274 135.22891,154.53244 137.07476,155.17591 C 138.88862,155.80822 139.68559,156.65577 139.33222,157.57663 C 138.99942,158.44389 139.41387,159 140.39301,159 C 141.27686,159 142,159.62686 142,160.39301 C 142,161.15917 142.77489,162.08338 143.72197,162.44681 C 145.19551,163.01225 145.23158,163.2397 143.97197,164.02328 C 142.7619,164.77605 142.72241,165.29784 143.75,166.95592 C 146.64265,171.62337 143.82556,177.72001 135.87072,184.00795 C 129.58244,188.97856 121.04603,192.21494 113.5,192.48929 C 110.2,192.60927 106.7125,193.04641 105.75,193.46071 C 104.39228,194.04513 104,193.73185 104,192.06315 z "
         id="path2287" />
      <path
         style="fill:#f7c500;fill-opacity:1"
         d="M 109.25,189.4863 C 108.8816,188.0329 106.7377,188.2869 106.21817,189.8455 C 105.9261,190.7217 106.42023,191.06572 107.63483,190.83181 C 108.66067,190.63425 109.3875,190.02877 109.25,189.4863 z "
         id="path2285" />
      <path
         style="fill:#f7c500;fill-opacity:1"
         d="M 127.10872,187.30071 C 133.90943,184.08722 140.01941,178.79693 142.5241,173.9534 C 143.84384,171.40131 143.86269,170.62633 142.66289,168.25 C 141.89922,166.7375 141.47517,164.9375 141.72054,164.25 C 141.96591,163.5625 141.67917,163 141.08333,163 C 140.4875,163 140,162.325 140,161.5 C 140,160.675 139.325,160 138.5,160 C 137.675,160 137,159.37314 137,158.60699 C 137,157.84083 136.33922,156.96041 135.5316,156.6505 C 134.72398,156.34059 133.35631,154.3952 132.49234,152.32743 C 130.97422,148.69406 130.99748,148.51051 133.185,146.86046 C 135.27945,145.28061 135.32919,145.01666 133.85092,143.32654 C 132.97224,142.32194 131.94321,139.7 131.56418,137.5 C 131.18515,135.3 129.77815,131.37078 128.43751,128.76841 C 124.12779,120.40256 125.67762,115.26667 136.36996,102.4816 C 140.04127,98.091718 144.00671,92.522151 145.18204,90.10478 C 147.91999,84.4735 148.67978,73.320116 146.99601,63.476692 C 145.94269,57.318882 145.95449,55.759765 147.06455,54.422218 C 148.19878,53.055564 148.15733,52.667553 146.79577,51.905581 C 145.80807,51.352841 145.38836,50.230932 145.70963,49.002357 C 146.11543,47.450593 145.74179,47 144.04924,47 C 142.41683,47 142.00678,46.554008 142.42569,45.234146 C 142.80378,44.042861 142.26768,43.148072 140.77805,42.484146 C 139.34509,41.845474 138.20664,40.038784 137.53498,37.337459 C 136.96574,35.048062 135.7125,32.312629 134.75,31.258719 C 133.7875,30.204809 133,27.931285 133,26.206443 C 133,22.801496 130.33956,20.548731 127.57244,21.610575 C 125.29548,22.484328 125.64315,23.671988 128.14879,23.579401 C 129.33063,23.53573 130.48989,24.175 130.72492,25 C 131.05045,26.142634 130.93639,26.194126 130.24618,25.21613 C 129.74784,24.510002 128.69076,24.181434 127.89713,24.48598 C 127.1035,24.790526 124.43947,23.772885 121.97708,22.224556 C 115.5545,18.186104 111.40836,16.688783 108.29585,17.283777 C 106.77662,17.574195 103.44614,16.96418 100.751,15.901852 C 94.807987,13.559336 89,13.360719 89,15.5 C 89,16.325 89.7875,17.035526 90.75,17.078947 C 91.795438,17.12611 91.996741,17.360964 91.25,17.662281 C 90.5625,17.939693 90,19.029167 90,20.083333 C 90,21.535117 90.709033,22 92.923275,22 C 96.97395,22 101.77422,26.279592 102.58778,30.616199 C 103.12207,33.464247 102.80432,34.579386 100.87259,36.635626 C 98.865768,38.771785 97.810332,39.097619 94.000805,38.757079 C 91.525362,38.535795 88.7125,38.001782 87.75,37.570383 C 86.500406,37.010307 86,37.227386 86,38.329542 C 86,39.178478 88.3625,41.144943 91.25,42.699465 C 95.707561,45.099248 96.493071,45.951613 96.454092,48.346479 C 96.412609,50.895183 96.686638,51.126222 99.29672,50.743143 C 101.21108,50.462174 102.3745,50.81236 102.74639,51.781483 C 103.19353,52.94672 103.64013,52.80282 104.94486,51.073106 C 106.52695,48.97568 110,48.998959 110,51.106989 C 110,51.598145 110.675,52 111.5,52 C 112.36218,52 113,51.097506 113,49.877555 C 113,48.111821 113.25011,47.962683 114.48817,48.990179 C 115.69301,49.990113 116.09363,49.919588 116.59243,48.619739 C 117.00045,47.556445 117.94214,47.198358 119.38079,47.559436 C 121.87217,48.184733 126.95628,43.709046 125.07521,42.546479 C 124.48384,42.180997 124,40.36805 124,38.517708 C 124,36.332965 123.06608,34.043547 121.33623,31.98774 C 118.90227,29.095144 118.31166,28.876136 114.49035,29.449177 C 111.22469,29.938892 110.00054,29.700451 108.90412,28.361087 C 107.6396,26.816383 107.69048,26.751205 109.4159,27.705517 C 110.46964,28.288334 112.94464,28.580808 114.9159,28.35546 C 120.18146,27.753516 125,32.535387 125,38.36283 C 125,39.734702 125.64842,41.505561 126.44093,42.298073 C 127.6955,43.552646 127.51576,44.089751 125.05112,46.451027 C 123.22363,48.20187 121.38389,49.045553 119.86019,48.831525 C 118.03367,48.574962 117.57099,48.915526 117.81397,50.337692 C 118.05496,51.748191 117.68097,52.03352 116.20516,51.565114 C 115.06191,51.202263 113.77006,51.572135 113.01874,52.477422 C 111.23832,54.62269 109.32954,54.368156 108.68394,51.899384 C 108.09524,49.648181 106,50.163128 106,52.559017 C 106,54.23099 103.8703,54.470296 102.36722,52.967217 C 100.96055,51.560551 98.44141,52.677378 96.566469,55.5389 C 95.018454,57.901469 95.042693,57.923802 103.41187,61.845731 C 112.47511,66.092906 115.35838,69.099882 115.21466,74.154882 C 115.09624,78.319868 113.33983,79.998442 99.5,89.173169 L 87.5,97.128231 L 79.456341,96.463027 C 69.322489,95.624965 68.481357,96.343693 69.280607,105.15796 C 70.069351,113.85637 71.987177,115.55278 80.778765,115.32864 C 84.475444,115.23439 88.836624,114.64534 90.470276,114.01964 C 92.916789,113.08261 93.641567,113.15691 94.580518,114.441 C 96.025452,116.41707 96.898334,116.40198 99.152502,114.36199 C 100.70858,112.95376 101.19835,112.91869 102.64386,114.11199 C 103.96879,115.20574 104.4157,115.23122 104.75191,114.23214 C 104.98657,113.53482 105.89544,112.24742 106.77161,111.37125 C 108.20188,109.94098 108.47963,109.93544 109.48989,111.31705 C 110.79294,113.09908 112.20922,112.43307 113.88548,109.25 C 114.53717,108.0125 115.73811,107 116.55424,107 C 118.72045,107 117.54782,110.99668 112.60532,120.45912 C 107.61402,130.01499 105.95173,131.13916 92.5,134.05593 C 79.599246,136.85322 70.634205,136.42834 63.140534,132.66448 C 60.222863,131.19902 57.431795,130 56.938162,130 C 55.529235,130 52.002182,137.61855 51.979831,140.71016 C 51.968738,142.24457 53.399134,148.12853 55.15849,153.78563 C 57.945704,162.74773 58.171642,164.25693 56.914349,165.51422 C 55.3562,167.07237 54.787943,166.88233 46.989857,162.19527 C 44.807963,160.88384 42.971748,160.39943 42.137321,160.91513 C 40.55334,161.89408 39.671834,173.5183 40.994201,175.98916 C 42.234792,178.30723 63.868622,188.38589 67.620289,188.39359 C 72.591152,188.4038 76,185.59012 76,181.47695 C 76,179.05299 76.454275,178 77.5,178 C 78.41545,178 79,177.06744 79,175.60699 C 79,174.29083 79.706028,172.94305 80.568951,172.61191 C 81.611701,172.21177 81.924484,171.33743 81.501563,170.00493 C 81.151577,168.90222 81.233049,168 81.682612,168 C 82.132176,168 82.5,165.558 82.5,162.57333 C 82.5,156.52059 85.140016,151.73296 88.777016,151.19006 C 90.413234,150.94581 91.303231,151.89708 92.975536,155.6776 C 96.59746,163.86556 102.33621,168.26286 111.15823,169.61003 C 115.99395,170.34847 118,171.5399 118,173.67347 C 118,175.41947 112.12776,178 108.15456,178 C 102.83885,178 102.60136,180.10956 107.27182,185.84114 C 111.39301,190.89865 111.61662,191.02097 116.10872,190.67534 C 118.64352,190.48031 123.59352,188.96172 127.10872,187.30071 z "
         id="path2283" />
      <path
         style="fill:#211910;fill-opacity:1"
         d="M 107.33187,23.422459 C 106.99892,22.554811 107.43106,21.140368 108.29218,20.279253 C 109.71306,18.858367 110.16494,18.910215 113.17892,20.839947 C 115.00551,22.009445 116.02351,22.973888 115.44113,22.983153 C 114.85875,22.992419 113.50875,22.339312 112.44113,21.531803 C 109.70163,19.459752 108.37162,19.648163 110.34501,21.828741 C 112.52351,24.235949 112.43282,25 109.96862,25 C 108.85135,25 107.66482,24.290106 107.33187,23.422459 z "
         id="path2281" />
      <path
         style="fill:#f7c500;fill-opacity:1"
         d="M 105.5,186.56964 C 105.5,184.91974 103.25654,184.88909 102.62671,186.53038 C 102.1809,187.69217 102.49707,188.05092 103.75351,187.80895 C 104.71408,187.62396 105.5,187.06627 105.5,186.56964 z "
         id="path2279" />
      <path
         style="fill:#f7c500;fill-opacity:1"
         d="M 103.5746,182.87929 C 103.87349,182.39568 103.23962,182 102.16601,182 C 101.09239,182 99.974501,182.62407 99.681807,183.38682 C 99.307465,184.36233 99.72522,184.62311 101.0904,184.26611 C 102.15782,183.98697 103.27571,183.3629 103.5746,182.87929 z "
         id="path2277" />
      <path
         style="fill:#f7c500;fill-opacity:1"
         d="M 101.41821,180.39301 C 102.2882,180.05917 103,179.38417 103,178.89301 C 103,177.43445 99.346124,177.87802 98,179.5 C 96.985047,180.72294 97.039677,181 98.295768,181 C 99.143129,181 100.54823,180.72686 101.41821,180.39301 z "
         id="path2275" />
      <path
         style="fill:#f7c500;fill-opacity:1"
         d="M 39,172.10699 C 39,170.06428 36.473438,168.58937 34.773726,169.63985 C 34.149134,170.02586 34.688925,171.02511 36.113968,172.12085 C 39.072477,174.39572 39,174.39607 39,172.10699 z "
         id="path2273" />
      <path
         style="fill:#f7c500;fill-opacity:1"
         d="M 39.324657,168.34201 C 40.35181,167.31486 37.964161,165 35.877555,165 C 33.53029,165 33.486764,165.88991 35.75,167.60795 C 37.756026,169.13074 38.403055,169.26361 39.324657,168.34201 z "
         id="path2271" />
      <path
         style="fill:#f7c500;fill-opacity:1"
         d="M 39.553851,162.08713 C 39.184314,161.48921 37.938779,161 36.785995,161 C 34.745209,161 34.738242,161.05328 36.521384,163.02363 C 38.364859,165.06065 40.906481,164.27573 39.553851,162.08713 z "
         id="path2269" />
      <path
         style="fill:#f7c500;fill-opacity:1"
         d="M 40.991641,157.97367 C 40.171238,157.455 38.662647,157.02373 37.639216,157.01531 C 36.000831,157.00183 36.060591,157.23055 38.139216,158.92902 C 39.673251,160.18249 40.847274,160.51811 41.491641,159.88738 C 42.144227,159.2486 41.97327,158.59428 40.991641,157.97367 z "
         id="path2267" />
      <path
         style="fill:#000000"
         d="M 69.5,112.4863 C 69.5,111.94384 68.175637,111.34923 66.556971,111.16495 C 63.937593,110.86675 63.762522,111.00893 64.96501,112.45784 C 66.380614,114.16354 69.5,114.18312 69.5,112.4863 z "
         id="path2265" />
      <path
         style="fill:#000000"
         d="M 37.27939,106.41354 C 34.969925,104.66147 34,104.66239 34,106.41667 C 34,108.02803 35.881609,108.93302 37.77939,108.23443 C 38.713522,107.89056 38.578591,107.39917 37.27939,106.41354 z "
         id="path2263" />
      <path
         style="fill:#000000"
         d="M 67.755005,107.75 C 67.528592,107.0625 66.275123,106.34428 64.96952,106.15396 C 62.896989,105.85184 62.763817,106.01049 63.920292,107.40396 C 65.486388,109.29099 68.347526,109.54918 67.755005,107.75 z "
         id="path2261" />
      <path
         style="fill:#000000"
         d="M 68,103.10699 C 68,102.08726 65.572507,101 63.295768,101 C 62.039677,101 61.985047,101.27706 63,102.5 C 64.346124,104.12198 68,104.56555 68,103.10699 z "
         id="path2259" />
      <path
         style="fill:#000000"
         d="M 35.55887,101.4682 C 33.085474,99.597414 32,99.607114 32,101.5 C 32,102.47741 32.958087,102.98892 34.75,102.9682 C 37.384062,102.93773 37.418164,102.8745 35.55887,101.4682 z "
         id="path2257" />
      <path
         style="fill:#000000"
         d="M 36.503323,98.005377 C 36.165233,97.458335 35.013675,96.542502 33.944306,95.970194 C 32.314605,95.098004 32,95.258942 32,96.964816 C 32,98.481529 32.65192,99 34.559017,99 C 36.001161,99 36.849746,98.565901 36.503323,98.005377 z "
         id="path2255" />
      <path
         style="fill:#000000"
         d="M 67.770833,97.1875 C 68.01137,96.465889 67.105115,96 65.460889,96 C 63.143014,96 62.937542,96.219816 64.027641,97.533305 C 65.420153,99.21118 67.149528,99.051416 67.770833,97.1875 z "
         id="path2253" />
      <path
         style="fill:#000000"
         d="M 36.233333,91.788889 C 34.596664,90.152219 33.730215,89.869785 32.898243,90.701757 C 31.260607,92.339393 32.712144,94 35.781239,94 L 38.444444,94 L 36.233333,91.788889 z "
         id="path2251" />
      <path
         style="fill:#000000"
         d="M 34.984687,86.75 C 34.972305,84.930562 34.783874,84.787041 34,86 C 32.747078,87.938759 32.747078,89 34,89 C 34.55,89 34.993109,87.9875 34.984687,86.75 z "
         id="path2249" />
      <path
         style="fill:#f7c500;fill-opacity:1"
         d="M 92,37 C 92,36.45 91.55,36 91,36 C 90.45,36 90,36.45 90,37 C 90,37.55 90.45,38 91,38 C 91.55,38 92,37.55 92,37 z "
         id="path2247" />
      <path
         style="fill:#f7c500;fill-opacity:1"
         d="M 89,36 C 89,35.45 88.523442,35 87.940983,35 C 87.358524,35 87.160081,35.45 87.5,36 C 87.839919,36.55 88.316476,37 88.559017,37 C 88.801558,37 89,36.55 89,36 z "
         id="path2245" />
      <path
         style="fill:#f7c500;fill-opacity:1"
         d="M 101,35.581787 C 101,35.351771 101.25453,34.500268 101.56563,33.68956 C 102.24949,31.907464 96.410153,29.561104 87.5,28.03771 C 80.688813,26.873182 78,24.523023 78,19.734228 C 78,16.753367 77.958385,16.727686 76,18.5 C 71.50237,22.570299 75.565014,28.42129 83.624444,29.48067 C 89.727854,30.282938 96.467681,32.653668 98.043675,34.552625 C 99.15944,35.89704 101,36.53778 101,35.581787 z "
         id="path2243" />
      <path
         style="fill:#f7c500;fill-opacity:1"
         d="M 99.489919,27.983688 C 99.144455,27.424717 98.442898,27.226274 97.930902,27.542705 C 96.543858,28.399945 96.802491,29 98.559017,29 C 99.416476,29 99.835382,28.54266 99.489919,27.983688 z "
         id="path2241" />
      <path
         style="fill:#f7c500;fill-opacity:1"
         d="M 96,26.940983 C 96,26.358524 95.55,26.160081 95,26.5 C 94.45,26.839919 94,27.316476 94,27.559017 C 94,27.801558 94.45,28 95,28 C 95.55,28 96,27.523442 96,26.940983 z "
         id="path2239" />
      <path
         style="fill:#f7c500;fill-opacity:1"
         d="M 95,24 C 95,23.45 94.523442,23 93.940983,23 C 93.358524,23 93.160081,23.45 93.5,24 C 93.839919,24.55 94.316476,25 94.559017,25 C 94.801558,25 95,24.55 95,24 z "
         id="path2237" />
      <path
         style="fill:#f7c500;fill-opacity:1"
         d="M 121.84839,16.886083 C 120.26726,15.88518 118.76466,16.20602 118.2843,17.647102 C 118.09691,18.209258 118.96879,19.132721 120.2218,19.699242 C 122.01212,20.508697 122.57461,20.409165 122.84839,19.234467 C 123.04001,18.41232 122.59001,17.355547 121.84839,16.886083 z "
         id="path2161" />
    </g>
  </g>
</svg>
