<?xml version="1.0" encoding="UTF-8" standalone="no"?>
<!-- Created with Inkscape (http://www.inkscape.org/) -->

<svg
   xmlns:dc="http://purl.org/dc/elements/1.1/"
   xmlns:cc="http://creativecommons.org/ns#"
   xmlns:rdf="http://www.w3.org/1999/02/22-rdf-syntax-ns#"
   xmlns:svg="http://www.w3.org/2000/svg"
   xmlns="http://www.w3.org/2000/svg"
   xmlns:xlink="http://www.w3.org/1999/xlink"
   xmlns:sodipodi="http://sodipodi.sourceforge.net/DTD/sodipodi-0.dtd"
   xmlns:inkscape="http://www.inkscape.org/namespaces/inkscape"
   width="568"
   height="686.5"
   id="svg2"
   version="1.1"
   inkscape:version="0.48.5 r10040"
   sodipodi:docname="New document 1">
  <defs
     id="defs4" />
  <sodipodi:namedview
     id="base"
     pagecolor="#f6f3f1"
     bordercolor="#666666"
     borderopacity="1.0"
     inkscape:pageopacity="0"
     inkscape:pageshadow="2"
     inkscape:zoom="0.70710678"
     inkscape:cx="83.463789"
     inkscape:cy="338.25839"
     inkscape:document-units="px"
     inkscape:current-layer="layer1"
     showgrid="false"
     showborder="true"
     inkscape:window-width="1920"
     inkscape:window-height="1017"
     inkscape:window-x="-8"
     inkscape:window-y="-8"
     inkscape:window-maximized="1"
     showguides="true"
     inkscape:guide-bbox="true"
     inkscape:snap-global="true"
     inkscape:showpageshadow="false"
     fit-margin-top="0"
     fit-margin-left="0"
     fit-margin-right="0"
     fit-margin-bottom="0" />
  <metadata
     id="metadata7">
    <rdf:RDF>
      <cc:Work
         rdf:about="">
        <dc:format>image/svg+xml</dc:format>
        <dc:type
           rdf:resource="http://purl.org/dc/dcmitype/StillImage" />
        <dc:title></dc:title>
      </cc:Work>
    </rdf:RDF>
  </metadata>
  <g
     inkscape:label="Layer 1"
     inkscape:groupmode="layer"
     id="layer1"
     transform="translate(-15.5,-29.98718)">
    <g
       id="g4527"
       transform="matrix(2,0,0,2,-299.5,-373.23718)">
      <g
         id="g4521">
        <path
           sodipodi:nodetypes="cszscc"
           inkscape:connector-curvature="0"
           id="path4262"
           d="m 158.5,202.61218 c 0,0 0,170.625 0,209.53947 0,38.91448 39,131.71053 141,131.71053 102,0 141,-92.79605 141,-131.71053 0,-38.91447 0,-209.53947 0,-209.53947 z"
           style="color:#000000;fill:#000000;stroke:none;stroke-width:2;marker:none;visibility:visible;display:inline;overflow:visible;enable-background:accumulate" />
        <path
           sodipodi:nodetypes="cszscc"
           inkscape:connector-curvature="0"
           id="path4166"
           d="m 160.55697,204.46833 c 0,0 0,168.76884 0,207.25998 0,38.49115 38.43105,130.27771 138.94302,130.27771 100.51196,0 138.94301,-91.78656 138.94301,-130.27771 0,-38.49114 0,-207.25998 0,-207.25998 z"
           style="color:#000000;fill:none;stroke:#e0e2e5;stroke-width:1.5;stroke-linecap:butt;stroke-linejoin:miter;stroke-miterlimit:4;stroke-opacity:1;stroke-dasharray:none;stroke-dashoffset:0;marker:none;visibility:visible;display:inline;overflow:visible;enable-background:accumulate" />
        <path
           sodipodi:nodetypes="ccccc"
           inkscape:connector-curvature="0"
           id="path4164"
           d="m 440.5,309.26761 0,-106.65543 -282,0 0,106.65543 z"
           style="color:#000000;fill:#e0e2e5;fill-opacity:1;stroke:#000000;stroke-width:1.5;stroke-linecap:butt;stroke-linejoin:miter;stroke-miterlimit:4;stroke-opacity:1;stroke-dasharray:none;stroke-dashoffset:0;marker:none;visibility:visible;display:inline;overflow:visible;enable-background:accumulate" />
        <path
           style="color:#000000;fill:none;stroke:#000000;stroke-width:2;stroke-linecap:butt;stroke-linejoin:miter;stroke-miterlimit:4;stroke-opacity:1;stroke-dasharray:none;stroke-dashoffset:0;marker:none;visibility:visible;display:inline;overflow:visible;enable-background:accumulate"
           d="m 158.5,202.61218 c 0,0 0,170.625 0,209.53947 0,38.91448 39,131.71053 141,131.71053 102,0 141,-92.79605 141,-131.71053 0,-38.91447 0,-209.53947 0,-209.53947 z"
           id="path2993"
           inkscape:connector-curvature="0"
           sodipodi:nodetypes="cszscc" />
      </g>
      <g
         transform="translate(0.2738,0)"
         id="g4158">
        <g
           id="g4152">
          <path
             sodipodi:nodetypes="zsssssz"
             inkscape:connector-curvature="0"
             id="path3767"
             d="m 226.375,296.48718 c -2.51613,-4.875 -2.5625,-10.45833 13.3125,-15.75 15.875,-5.29167 132.25,-49.37222 141.6875,-52.9375 9.4375,-3.56528 13.5878,-2.3616 14.625,0.75 1.3125,3.9375 -0.9375,6.75 -7.3125,9.375 -6.375,2.625 -132.75,55.3125 -145.875,60 -9.8282,3.51007 -13.92137,3.4375 -16.4375,-1.4375 z"
             style="color:#000000;fill:#e21818;fill-opacity:1;stroke:#000000;stroke-width:1;stroke-linecap:butt;stroke-linejoin:miter;stroke-miterlimit:4;stroke-opacity:1;stroke-dasharray:none;stroke-dashoffset:0;marker:none;visibility:visible;display:inline;overflow:visible;enable-background:accumulate" />
          <path
             sodipodi:nodetypes="ccsssssccszszsc"
             inkscape:connector-curvature="0"
             id="path3765"
             d="m 362.48061,232.38348 6.36397,15.9099 c 0,0 3.29181,-1.63648 6.73896,-0.84099 3.44714,0.7955 19.53351,32.09506 22.18516,36.86804 2.65165,4.77297 7.85247,17.13634 10.70863,16.3203 2.85615,-0.81604 -1.71415,-12.04226 -4.89613,-20.26238 -3.18198,-8.22011 -13.52342,-36.82577 -13.78859,-38.94709 -0.26516,-2.12132 2.65165,-3.21415 2.65165,-3.21415 l -6.09879,-14.84924 c 0,0 -4.50781,1.32582 -6.0988,-0.53033 -1.59099,-1.85616 0.98771,-2.17883 0.95083,-5.27113 -0.0369,-3.0923 -3.33731,-5.33547 -10.49677,-2.15349 -7.15946,3.18198 -7.39245,6.36396 -5.56847,8.48528 1.82398,2.12132 4.49558,0.90727 4.53998,3.3828 0.0389,2.17021 -6.16461,4.4178 -7.19163,5.10248 z"
             style="color:#000000;fill:#e21818;fill-opacity:1;stroke:#000000;stroke-width:1;stroke-linecap:butt;stroke-linejoin:miter;stroke-miterlimit:4;stroke-opacity:1;stroke-dasharray:none;stroke-dashoffset:0;marker:none;visibility:visible;display:inline;overflow:visible;enable-background:accumulate" />
        </g>
        <use
           x="0"
           y="0"
           xlink:href="#g4152"
           id="use4156"
           transform="matrix(-1,0,0,1,598.4524,0)"
           width="744.09448"
           height="1052.3622" />
      </g>
      <g
         transform="translate(-1.288575,0)"
         id="g4264">
        <path
           sodipodi:nodetypes="csccsccsccsccsccsccsccsccscc"
           inkscape:connector-curvature="0"
           id="path4212"
           d="m 399.74806,433.33915 c 0,0 -8.25123,1.71438 -16.6318,19.79151 -9.58137,20.66727 -18.85272,31.06289 -37.09805,29.11417 0,0 17.54012,0.55463 22.05181,12.1751 0,0 -7.4228,-3.9905 -25.46244,4.47046 -20.62441,9.67327 -34.40886,11.67726 -47.13298,-1.54341 0,0 13.08,11.69944 9.06666,23.5013 0,0 -3.12114,-7.82818 -22.37891,-12.94237 -22.01708,-5.84697 -33.86472,-13.17229 -35.11388,-31.47882 0,0 2.4996,17.36996 -8.16088,23.83097 0,0 2.64092,-8.00296 -8.82405,-24.29931 -13.1077,-18.63134 -17.47489,-31.85838 -6.6646,-46.68494 0,0 -9.25038,14.91287 -21.56985,13.00987 0,0 7.16727,-4.43307 8.85969,-24.28635 1.93491,-22.69789 7.09163,-35.63757 24.90312,-40.04666 0,0 -16.67202,5.4779 -24.88605,-3.89869 0,0 8.33997,1.2111 22.39788,-12.90952 16.07215,-16.14386 28.33989,-22.74156 44.81839,-14.6701 0,0 -16.29262,-6.52026 -16.55778,-18.98302 0,0 5.61031,6.28859 25.45585,4.50781 22.68906,-2.03593 36.32761,0.79549 43.76265,17.57077 0,0 -8.28973,-15.4675 -0.48195,-25.18497 0,0 0.25552,8.42357 16.60275,19.81588 18.6895,13.02464 27.31723,23.96032 22.22985,41.59007 0,0 3.59201,-17.17733 15.81939,-19.6026 0,0 -5.21883,6.61708 -0.019,25.85189 5.94492,21.99083 5.52482,35.91385 -9.7045,46.14892 0,0 13.79303,-10.8497 24.71868,-4.84796 z"
           style="color:#000000;fill:#ddb36e;fill-opacity:1;stroke:none;stroke-width:1;marker:none;visibility:visible;display:inline;overflow:visible;enable-background:accumulate" />
        <path
           sodipodi:nodetypes="scscscscscscscscscscscscscscscscscscs"
           inkscape:connector-curvature="0"
           id="path4216"
           d="m 321.33479,483.36478 c 11.47346,1.54516 16.99673,1.19643 22.94128,6.01645 -11.19793,-1.71075 -16.53039,0.661 -32.45437,1.83576 -17.87705,1.31885 -34.63605,-8.54404 -36.20297,-25.83551 0,0 -8.23158,7.67072 0.22739,16.95723 7.79597,8.55866 12.2512,11.8418 13.70673,19.35524 -7.47846,-8.5084 -13.08789,-10.11917 -26.04149,-19.45499 -14.54235,-10.48085 -21.04075,-28.80874 -11.12635,-43.06196 0,0 -11.23639,0.58494 -10.7257,13.13614 0.47066,11.56747 1.77319,16.94627 -1.94135,23.6375 -0.25973,-11.32488 -3.52143,-16.16448 -7.44351,-31.64254 -4.40312,-17.37644 2.39976,-35.59351 19.15642,-40.13926 0,0 -8.98357,-6.77451 -16.66012,3.16853 -7.07487,9.16372 -9.5345,14.12138 -16.68104,16.8595 7.08052,-8.84232 7.69275,-14.64624 14.63737,-29.02419 7.79637,-16.1414 24.71738,-25.72367 40.47569,-18.43494 0,0 -2.52725,-10.96412 -14.79909,-8.2817 -11.31,2.47218 -16.3809,4.68895 -23.6155,2.19276 11.10773,-2.22234 15.30741,-6.27486 29.86927,-12.8251 16.34786,-7.35362 35.46947,-3.81745 42.85593,11.89529 0,0 5.11162,-10.02348 -6.01338,-15.85681 -10.25305,-5.37613 -15.5625,-6.9375 -19.5,-13.5 9.9375,5.4375 15.75956,5.03259 31.125,9.375 17.25,4.875 29.625,19.875 25.18341,36.65959 0,0 10.3587,-4.39275 5.58605,-16.01235 -4.39859,-10.70889 -7.46223,-15.31782 -6.26024,-22.87596 4.11741,10.55307 8.83764,13.98524 17.817,27.18843 10.08068,14.82256 9.91867,34.26772 -4.27273,44.27045 0,0 10.75882,3.2934 14.5717,-8.67554 3.51403,-11.03083 4.1297,-16.53075 9.90876,-21.548 -3.62926,10.73074 -2.21951,16.39404 -3.82777,32.2801 -1.80551,17.83446 -14.42873,32.62618 -31.72959,31.16667 0,0 6.12478,9.43853 16.73909,2.72066 9.78239,-6.19134 13.7893,-10.00877 21.44134,-10.13749 -9.67776,5.88737 -12.23813,11.13188 -23.68148,22.26754 -12.84688,12.50143 -32.02476,15.7185 -44.33983,3.47967 0,0 -1.37512,11.16726 11.07408,12.84383 z"
           style="color:#000000;fill:#e21818;fill-opacity:1;stroke:#000000;stroke-width:1;stroke-linecap:butt;stroke-linejoin:miter;stroke-miterlimit:4;stroke-opacity:1;stroke-dasharray:none;stroke-dashoffset:0;marker:none;visibility:visible;display:inline;overflow:visible;enable-background:accumulate" />
      </g>
    </g>
  </g>
</svg>
