<?xml version="1.0" encoding="UTF-8" standalone="no"?>
<!-- Created with Inkscape (http://www.inkscape.org/) -->
<svg
   xmlns:dc="http://purl.org/dc/elements/1.1/"
   xmlns:cc="http://web.resource.org/cc/"
   xmlns:rdf="http://www.w3.org/1999/02/22-rdf-syntax-ns#"
   xmlns:svg="http://www.w3.org/2000/svg"
   xmlns="http://www.w3.org/2000/svg"
   xmlns:sodipodi="http://sodipodi.sourceforge.net/DTD/sodipodi-0.dtd"
   xmlns:inkscape="http://www.inkscape.org/namespaces/inkscape"
   width="500.63254"
   height="602.26685"
   id="svg2023"
   sodipodi:version="0.32"
   inkscape:version="0.45.1"
   sodipodi:docname="Pabradesher.svg"
   sodipodi:docbase="C:\Documents and Settings\PD\Desktop"
   inkscape:output_extension="org.inkscape.output.svg.inkscape"
   version="1.0"
   inkscape:export-filename="C:\Documents and Settings\PD\Desktop\Pabradesher.png"
   inkscape:export-xdpi="90"
   inkscape:export-ydpi="90">
  <defs
     id="defs2025" />
  <sodipodi:namedview
     id="base"
     pagecolor="#ffffff"
     bordercolor="#666666"
     borderopacity="1.0"
     inkscape:pageopacity="0.0"
     inkscape:pageshadow="2"
     inkscape:zoom="0.85012152"
     inkscape:cx="250.31626"
     inkscape:cy="301.13343"
     inkscape:document-units="px"
     inkscape:current-layer="layer1"
     inkscape:window-width="1024"
     inkscape:window-height="708"
     inkscape:window-x="-4"
     inkscape:window-y="-4"
     borderlayer="false" />
  <metadata
     id="metadata2028">
    <rdf:RDF>
      <cc:Work
         rdf:about="">
        <dc:format>image/svg+xml</dc:format>
        <dc:type
           rdf:resource="http://purl.org/dc/dcmitype/StillImage" />
      </cc:Work>
    </rdf:RDF>
  </metadata>
  <g
     inkscape:label="Sluoksnis 1"
     inkscape:groupmode="layer"
     id="layer1"
     transform="translate(-111.99195,-67.943611)">
    <g
       id="g10941">
      <path
         sodipodi:nodetypes="cc"
         id="path7091"
         d="M 163.30874,563.9861 L 605.1944,109.79995"
         style="fill:none;fill-rule:evenodd;stroke:#000000;stroke-width:12.30000019;stroke-linecap:round;stroke-linejoin:miter;stroke-miterlimit:4;stroke-dasharray:none;stroke-opacity:1" />
      <path
         sodipodi:nodetypes="cc"
         id="path9968"
         d="M 601.95779,107.11536 L 609.92529,99.010506"
         style="fill:none;fill-rule:evenodd;stroke:#000000;stroke-width:4;stroke-linecap:butt;stroke-linejoin:miter;stroke-miterlimit:4;stroke-dasharray:none;stroke-opacity:1" />
    </g>
    <g
       id="g10949">
      <path
         sodipodi:nodetypes="cc"
         id="path8062"
         d="M 172.39896,577.06968 L 605.89158,132.33978"
         style="fill:none;fill-rule:evenodd;stroke:#000000;stroke-width:12.30000019;stroke-linecap:round;stroke-linejoin:miter;marker-start:none;marker-end:none;stroke-miterlimit:4;stroke-dasharray:none;stroke-opacity:1" />
      <path
         sodipodi:nodetypes="cc"
         id="path10939"
         d="M 602.23252,130.12494 L 610.20002,122.02008"
         style="fill:none;fill-rule:evenodd;stroke:#000000;stroke-width:4;stroke-linecap:butt;stroke-linejoin:miter;stroke-miterlimit:4;stroke-dasharray:none;stroke-opacity:1" />
    </g>
    <path
       style="fill:#0000ff;fill-rule:evenodd;stroke:#000000;stroke-width:2.25493479;stroke-linecap:butt;stroke-linejoin:miter;stroke-miterlimit:4;stroke-dasharray:none;stroke-opacity:1"
       d="M 610.28936,345.51732 C 580.25397,357.79769 532.61643,379.58516 464.94519,377.31877 C 396.56014,375.02847 342.05098,349.56447 254.64014,348.16126 C 212.8428,347.49028 173.43367,358.83789 116.1775,374.3781 C 112.02885,362.04948 113.05299,371.12756 114.4234,288.9253 C 184.24509,273.1527 215.31408,266.89252 270.10111,268.16764 C 338.73139,269.76495 370.87812,282.28445 441.78619,298.00061 C 466.89184,303.56506 514.23129,297.83019 537.47945,291.91034 C 563.68475,285.23749 578.48151,279.40404 609.32825,264.86513 C 610.0561,308.39004 610.739,295.67402 610.28936,345.51732 z "
       id="path4166"
       sodipodi:nodetypes="cssccssscc" />
    <path
       style="fill:#0000ff;fill-rule:evenodd;stroke:#000000;stroke-width:2.25493479;stroke-linecap:butt;stroke-linejoin:miter;stroke-miterlimit:4;stroke-dasharray:none;stroke-opacity:1"
       d="M 609.78755,436.87063 C 574.09713,448.79576 560.68343,460.04045 469.44954,463.42909 C 401.0733,465.96874 343.72781,434.73229 256.31697,433.32908 C 214.51963,432.6581 173.58073,441.59024 121.03709,462.78548 C 116.88844,450.45686 113.6121,464.65952 114.98251,382.45726 C 180.09167,362.91463 240.2896,348.41539 294.39808,357.10548 C 363.02836,368.12785 378.4288,374.11616 453.83058,384.11094 C 474.68397,386.87513 518.28124,382.11231 539.15628,377.07816 C 565.44421,370.73866 574.50331,366.45687 610.06257,352.86047 C 610.79042,396.38538 610.23719,387.02733 609.78755,436.87063 z "
       id="path6110"
       sodipodi:nodetypes="cssccssscc" />
    <path
       sodipodi:type="arc"
       style="fill:#ffffff;fill-opacity:1;fill-rule:nonzero;stroke:#000000;stroke-width:3;stroke-linecap:round;stroke-linejoin:round;stroke-miterlimit:4;stroke-dasharray:none;stroke-opacity:1"
       id="path6112"
       sodipodi:cx="318.56693"
       sodipodi:cy="416.64212"
       sodipodi:rx="15.417552"
       sodipodi:ry="16.057535"
       d="M 333.98446,416.66392 A 15.417552,16.057535 0 1 1 333.98241,416.37912"
       sodipodi:start="0.0013575646"
       sodipodi:end="6.2668057"
       sodipodi:open="true"
       transform="translate(-2.8275139,0.9425053)" />
    <g
       id="g47087"
       transform="matrix(1.0142528,0,0,1.0148175,18.833155,648.66581)">
      <path
         id="path45147"
         d="M 94.388984,-233.06165 L 94.388984,-569.7051 L 582.90776,-569.7051 L 582.90776,-233.06165 C 582.90776,102.59318 94.388984,102.62705 94.388984,-233.06165 z "
         style="fill:none;fill-opacity:0.33742335;stroke:#000000;stroke-width:5.07718897;stroke-miterlimit:4;stroke-dasharray:none;stroke-opacity:1"
         sodipodi:nodetypes="cccss" />
    </g>
    <path
       sodipodi:type="arc"
       style="fill:#ffffff;fill-opacity:1;fill-rule:nonzero;stroke:#000000;stroke-width:3;stroke-linecap:round;stroke-linejoin:round;stroke-miterlimit:4;stroke-dasharray:none;stroke-opacity:1"
       id="path3146"
       sodipodi:cx="318.56693"
       sodipodi:cy="416.64212"
       sodipodi:rx="15.417552"
       sodipodi:ry="16.057535"
       d="M 333.98446,416.66392 A 15.417552,16.057535 0 1 1 333.98241,416.37912"
       sodipodi:start="0.0013575646"
       sodipodi:end="6.2668057"
       sodipodi:open="true"
       transform="translate(21.391268,-26.164205)" />
    <path
       sodipodi:type="arc"
       style="fill:#ffffff;fill-opacity:1;fill-rule:nonzero;stroke:#000000;stroke-width:3;stroke-linecap:round;stroke-linejoin:round;stroke-miterlimit:4;stroke-dasharray:none;stroke-opacity:1"
       id="path3148"
       sodipodi:cx="318.56693"
       sodipodi:cy="416.64212"
       sodipodi:rx="15.417552"
       sodipodi:ry="16.057535"
       d="M 333.98446,416.66392 A 15.417552,16.057535 0 1 1 333.98241,416.37912"
       sodipodi:start="0.0013575646"
       sodipodi:end="6.2668057"
       sodipodi:open="true"
       transform="translate(47.909066,-50.56058)" />
    <path
       sodipodi:type="arc"
       style="fill:#ffffff;fill-opacity:1;fill-rule:nonzero;stroke:#000000;stroke-width:3;stroke-linecap:round;stroke-linejoin:round;stroke-miterlimit:4;stroke-dasharray:none;stroke-opacity:1"
       id="path3150"
       sodipodi:cx="318.56693"
       sodipodi:cy="416.64212"
       sodipodi:rx="15.417552"
       sodipodi:ry="16.057535"
       d="M 333.98446,416.66392 A 15.417552,16.057535 0 1 1 333.98241,416.37912"
       sodipodi:start="0.0013575646"
       sodipodi:end="6.2668057"
       sodipodi:open="true"
       transform="translate(72.305439,-78.139092)" />
    <path
       sodipodi:type="arc"
       style="fill:#ffffff;fill-opacity:1;fill-rule:nonzero;stroke:#000000;stroke-width:3;stroke-linecap:round;stroke-linejoin:round;stroke-miterlimit:4;stroke-dasharray:none;stroke-opacity:1"
       id="path3152"
       sodipodi:cx="318.56693"
       sodipodi:cy="416.64212"
       sodipodi:rx="15.417552"
       sodipodi:ry="16.057535"
       d="M 333.98446,416.66392 A 15.417552,16.057535 0 1 1 333.98241,416.37912"
       sodipodi:start="0.0013575646"
       sodipodi:end="6.2668057"
       sodipodi:open="true"
       transform="translate(99.353594,-103.59618)" />
    <g
       id="g9949">
      <path
         sodipodi:nodetypes="csssssssssssssssssssssssssssssss"
         id="path4162"
         d="M 301.92444,245.72031 C 307.49294,226.91292 307.36629,227.69981 306.02338,220.25411 C 304.97635,214.44892 299.24003,200.66017 297.06499,198.72031 C 295.65694,197.4645 288.00629,180.60562 286.40056,175.22031 C 280.79569,156.42265 288.15447,137.21354 301.05278,128.14362 C 310.7644,121.31454 333.03149,120.85107 345.96875,124.20151 C 348.59943,124.88279 347.27727,120.52393 347.67705,118.99516 C 348.32797,116.50606 347.33559,115.72031 343.0861,115.72031 C 337.71182,115.72031 330.27778,117.34423 333.75739,114.18876 C 335.89136,112.25358 337.65526,109.72714 342.132,104.20481 C 357.17898,85.643418 372.65822,88.385743 374.05624,105.79968 C 375.17365,119.71832 370.58406,129.26595 381.10484,125.76783 C 400.13854,119.43921 415.96282,119.26213 430.98684,136.59939 C 438.05293,144.75344 436.07392,162.91768 434.98881,169.38854 C 433.55031,177.96676 427.71268,194.57395 424.9407,200.38847 C 423.84779,202.68097 422.12138,206.3777 421.18181,208.13847 C 415.20709,219.3351 418.16375,235.1257 421.50802,246.23786 C 422.31729,248.92688 422.88343,251.20433 422.7661,251.29887 C 421.53544,252.29042 411.89925,248.03955 408.01463,245.20542 C 403.11914,241.63377 401.01311,239.54335 397.07978,231.72031 C 390.95915,219.54691 387.74898,207.17778 390.61389,184.22031 C 393.43335,161.62711 392.7984,153.79125 384.26055,152.48287 C 372.12213,150.62272 375.05277,144.20859 375.05277,201.79212 C 375.05277,257.50097 376.76245,251.53947 360.80467,251.47395 C 346.79029,251.41641 348.09972,256.45071 348.0333,202.37237 C 348.00577,179.95724 348.03527,167.63352 347.68018,160.87374 C 347.20859,151.89596 349.41897,150.78483 342.87362,151.81029 C 331.01844,153.66764 329.05166,163.12392 333.07832,182.08912 C 334.81399,190.26395 335.23083,204.59545 334.1501,211.75146 C 330.54934,235.59363 317.20602,241.7429 314.19982,244.72031 C 309.60433,249.27179 299.86485,252.72031 299.08568,252.72031 C 298.30652,252.72031 301.35449,247.64531 301.92444,245.72031 z "
         style="fill:#ff0000;fill-opacity:1;stroke:#000000;stroke-width:2.5;stroke-miterlimit:4;stroke-dasharray:none;stroke-opacity:1" />
      <path
         sodipodi:nodetypes="cc"
         id="path5096"
         d="M 361.4983,250.12644 L 361.17553,92.777859"
         style="fill:none;fill-rule:evenodd;stroke:#ffffff;stroke-width:2;stroke-linecap:butt;stroke-linejoin:miter;stroke-miterlimit:4;stroke-dasharray:none;stroke-opacity:1" />
      <path
         sodipodi:nodetypes="csss"
         id="path6067"
         d="M 361.06498,144.50153 L 352.91643,140.84873 C 318.62851,125.4783 291.23794,153.55881 311.98022,191.42593 C 318.74004,203.76668 330.15669,222.19372 301.77727,249.87069"
         style="fill:none;fill-rule:evenodd;stroke:#ffffff;stroke-width:2;stroke-linecap:round;stroke-linejoin:miter;stroke-miterlimit:4;stroke-dasharray:none;stroke-opacity:1" />
      <path
         sodipodi:nodetypes="csss"
         id="path8976"
         d="M 361.98495,144.3561 L 369.9817,140.70367 C 403.63087,125.33481 430.51119,153.41246 410.15531,191.27573 C 403.52142,203.61523 392.31745,222.04039 420.1682,249.71455"
         style="fill:none;fill-rule:evenodd;stroke:#ffffff;stroke-width:1.98118293;stroke-linecap:round;stroke-linejoin:miter;stroke-miterlimit:4;stroke-dasharray:none;stroke-opacity:1" />
      <path
         sodipodi:open="true"
         sodipodi:end="6.2668057"
         sodipodi:start="0.0013575646"
         d="M 363.57494,107.45091 A 2.4215267,2.2485607 0 1 1 363.57461,107.41102"
         sodipodi:ry="2.2485607"
         sodipodi:rx="2.4215267"
         sodipodi:cy="107.44785"
         sodipodi:cx="361.15341"
         id="path8978"
         style="fill:#000000;fill-opacity:1;fill-rule:nonzero;stroke:#ffffff;stroke-width:2;stroke-linecap:round;stroke-linejoin:round;stroke-miterlimit:4;stroke-dasharray:none;stroke-opacity:1"
         sodipodi:type="arc" />
    </g>
    <g
       id="g9956"
       transform="translate(3.671546,379.81367)">
      <path
         sodipodi:nodetypes="csssssssssssssssssssssssssssssss"
         id="path9958"
         d="M 301.92444,245.72031 C 307.49294,226.91292 307.36629,227.69981 306.02338,220.25411 C 304.97635,214.44892 299.24003,200.66017 297.06499,198.72031 C 295.65694,197.4645 288.00629,180.60562 286.40056,175.22031 C 280.79569,156.42265 288.15447,137.21354 301.05278,128.14362 C 310.7644,121.31454 333.03149,120.85107 345.96875,124.20151 C 348.59943,124.88279 347.27727,120.52393 347.67705,118.99516 C 348.32797,116.50606 347.33559,115.72031 343.0861,115.72031 C 337.71182,115.72031 330.27778,117.34423 333.75739,114.18876 C 335.89136,112.25358 337.65526,109.72714 342.132,104.20481 C 357.17898,85.643418 372.65822,88.385743 374.05624,105.79968 C 375.17365,119.71832 370.58406,129.26595 381.10484,125.76783 C 400.13854,119.43921 415.96282,119.26213 430.98684,136.59939 C 438.05293,144.75344 436.07392,162.91768 434.98881,169.38854 C 433.55031,177.96676 427.71268,194.57395 424.9407,200.38847 C 423.84779,202.68097 422.12138,206.3777 421.18181,208.13847 C 415.20709,219.3351 418.16375,235.1257 421.50802,246.23786 C 422.31729,248.92688 422.88343,251.20433 422.7661,251.29887 C 421.53544,252.29042 411.89925,248.03955 408.01463,245.20542 C 403.11914,241.63377 401.01311,239.54335 397.07978,231.72031 C 390.95915,219.54691 387.74898,207.17778 390.61389,184.22031 C 393.43335,161.62711 392.7984,153.79125 384.26055,152.48287 C 372.12213,150.62272 375.05277,144.20859 375.05277,201.79212 C 375.05277,257.50097 376.76245,251.53947 360.80467,251.47395 C 346.79029,251.41641 348.09972,256.45071 348.0333,202.37237 C 348.00577,179.95724 348.03527,167.63352 347.68018,160.87374 C 347.20859,151.89596 349.41897,150.78483 342.87362,151.81029 C 331.01844,153.66764 329.05166,163.12392 333.07832,182.08912 C 334.81399,190.26395 335.23083,204.59545 334.1501,211.75146 C 330.54934,235.59363 317.20602,241.7429 314.19982,244.72031 C 309.60433,249.27179 299.86485,252.72031 299.08568,252.72031 C 298.30652,252.72031 301.35449,247.64531 301.92444,245.72031 z "
         style="fill:#ff0000;fill-opacity:1;stroke:#000000;stroke-width:2.5;stroke-miterlimit:4;stroke-dasharray:none;stroke-opacity:1" />
      <path
         sodipodi:nodetypes="cc"
         id="path9960"
         d="M 361.4983,250.12644 L 361.17553,92.777859"
         style="fill:none;fill-rule:evenodd;stroke:#ffffff;stroke-width:2;stroke-linecap:butt;stroke-linejoin:miter;stroke-miterlimit:4;stroke-dasharray:none;stroke-opacity:1" />
      <path
         sodipodi:nodetypes="csss"
         id="path9962"
         d="M 361.06498,144.50153 L 352.91643,140.84873 C 318.62851,125.4783 291.23794,153.55881 311.98022,191.42593 C 318.74004,203.76668 330.15669,222.19372 301.77727,249.87069"
         style="fill:none;fill-rule:evenodd;stroke:#ffffff;stroke-width:2;stroke-linecap:round;stroke-linejoin:miter;stroke-miterlimit:4;stroke-dasharray:none;stroke-opacity:1" />
      <path
         sodipodi:nodetypes="csss"
         id="path9964"
         d="M 361.98495,144.3561 L 369.9817,140.70367 C 403.63087,125.33481 430.51119,153.41246 410.15531,191.27573 C 403.52142,203.61523 392.31745,222.04039 420.1682,249.71455"
         style="fill:none;fill-rule:evenodd;stroke:#ffffff;stroke-width:1.98118293;stroke-linecap:round;stroke-linejoin:miter;stroke-miterlimit:4;stroke-dasharray:none;stroke-opacity:1" />
      <path
         sodipodi:open="true"
         sodipodi:end="6.2668057"
         sodipodi:start="0.0013575646"
         d="M 363.57494,107.45091 A 2.4215267,2.2485607 0 1 1 363.57461,107.41102"
         sodipodi:ry="2.2485607"
         sodipodi:rx="2.4215267"
         sodipodi:cy="107.44785"
         sodipodi:cx="361.15341"
         id="path9966"
         style="fill:#000000;fill-opacity:1;fill-rule:nonzero;stroke:#ffffff;stroke-width:2;stroke-linecap:round;stroke-linejoin:round;stroke-miterlimit:4;stroke-dasharray:none;stroke-opacity:1"
         sodipodi:type="arc" />
    </g>
  </g>
</svg>
