<?xml version="1.0" encoding="UTF-8" standalone="no"?>
<!-- Created with Inkscape (http://www.inkscape.org/) -->

<svg
   xmlns:dc="http://purl.org/dc/elements/1.1/"
   xmlns:cc="http://creativecommons.org/ns#"
   xmlns:rdf="http://www.w3.org/1999/02/22-rdf-syntax-ns#"
   xmlns:svg="http://www.w3.org/2000/svg"
   xmlns="http://www.w3.org/2000/svg"
   xmlns:sodipodi="http://sodipodi.sourceforge.net/DTD/sodipodi-0.dtd"
   xmlns:inkscape="http://www.inkscape.org/namespaces/inkscape"
   width="436.6467"
   height="526.89685"
   id="svg2"
   version="1.1"
   inkscape:version="0.48.5 r10040"
   sodipodi:docname="Pagėgiai.svg">
  <defs
     id="defs4" />
  <sodipodi:namedview
     id="base"
     pagecolor="#f6f3f1"
     bordercolor="#666666"
     borderopacity="1.0"
     inkscape:pageopacity="0"
     inkscape:pageshadow="2"
     inkscape:zoom="1"
     inkscape:cx="272.72312"
     inkscape:cy="312.63619"
     inkscape:document-units="px"
     inkscape:current-layer="layer1"
     showgrid="false"
     showborder="true"
     inkscape:window-width="1920"
     inkscape:window-height="1017"
     inkscape:window-x="-8"
     inkscape:window-y="-8"
     inkscape:window-maximized="1"
     inkscape:object-nodes="true"
     inkscape:snap-smooth-nodes="true"
     inkscape:snap-global="false"
     showguides="true"
     inkscape:guide-bbox="true"
     fit-margin-top="0"
     fit-margin-left="0"
     fit-margin-right="0"
     fit-margin-bottom="0"
     inkscape:showpageshadow="false" />
  <metadata
     id="metadata7">
    <rdf:RDF>
      <cc:Work
         rdf:about="">
        <dc:format>image/svg+xml</dc:format>
        <dc:type
           rdf:resource="http://purl.org/dc/dcmitype/StillImage" />
        <dc:title />
      </cc:Work>
    </rdf:RDF>
  </metadata>
  <g
     inkscape:label="Layer 1"
     inkscape:groupmode="layer"
     id="layer1"
     transform="translate(-74.502833,-222.38569)">
    <path
       sodipodi:nodetypes="cszscc"
       inkscape:connector-curvature="0"
       id="path3767"
       d="m 508.64952,224.88569 c 0,0 0,211.66496 0,310.34167 0,98.67674 -75.38172,211.55516 -215.82334,211.55516 -140.44163,0 -215.823347,-112.87842 -215.823347,-211.55516 0,-98.67671 0,-310.34167 0,-310.34167 z"
       style="color:#000000;fill:#0a7c3e;stroke:#000000;stroke-width:5;stroke-linecap:butt;stroke-linejoin:miter;stroke-miterlimit:4;stroke-opacity:1;stroke-dasharray:none;stroke-dashoffset:0;marker:none;visibility:visible;display:inline;overflow:visible;enable-background:accumulate;fill-opacity:1" />
    <g
       id="g4072">
      <g
         transform="matrix(0.8229977,0.5680447,-0.5680447,0.8229977,809.76594,-20.609371)"
         id="g4035">
        <g
           id="g3928">
          <path
             style="color:#000000;fill:#d6b46a;fill-opacity:1;stroke:#000000;stroke-width:2;stroke-miterlimit:4;marker:none;visibility:visible;display:inline;overflow:visible;enable-background:accumulate"
             d="m -196.45295,860.8286 32.88046,0 0,-8.48527 -32.88046,0 z"
             id="path3918"
             inkscape:connector-curvature="0"
             sodipodi:nodetypes="ccccc" />
          <path
             style="color:#000000;fill:#d6b46a;fill-opacity:1;stroke:#000000;stroke-width:2;stroke-miterlimit:4;marker:none;visibility:visible;display:inline;overflow:visible;enable-background:accumulate"
             d="m -202.28659,877.26881 8.48527,0 0,-10.07626 -8.48527,0 z"
             id="path3922"
             inkscape:connector-curvature="0"
             sodipodi:nodetypes="ccccc" />
          <path
             sodipodi:nodetypes="ccccc"
             inkscape:connector-curvature="0"
             id="path3924"
             d="m -166.22414,877.26881 8.48527,0 0,-10.07626 -8.48527,0 z"
             style="color:#000000;fill:#d6b46a;fill-opacity:1;stroke:#000000;stroke-width:2;stroke-miterlimit:4;marker:none;visibility:visible;display:inline;overflow:visible;enable-background:accumulate" />
          <path
             style="color:#000000;fill:#d6b46a;fill-opacity:1;stroke:#000000;stroke-width:2;stroke-miterlimit:4;marker:none;visibility:visible;display:inline;overflow:visible;enable-background:accumulate"
             d="m -186.50536,882.51878 12.98527,0 0,-15.32626 -12.98527,0 z"
             id="path3926"
             inkscape:connector-curvature="0"
             sodipodi:nodetypes="ccccc" />
          <path
             sodipodi:nodetypes="ccccc"
             inkscape:connector-curvature="0"
             id="path3920"
             d="m -202.28659,859.64659 44.54772,0 0,8.72793 -44.54772,0 z"
             style="color:#000000;fill:#d6b46a;fill-opacity:1;stroke:#000000;stroke-width:2;stroke-miterlimit:4;marker:none;visibility:visible;display:inline;overflow:visible;enable-background:accumulate" />
        </g>
        <path
           style="color:#000000;fill:#d6b46a;fill-opacity:1;stroke:#000000;stroke-width:2;stroke-miterlimit:4;marker:none;visibility:visible;display:inline;overflow:visible;enable-background:accumulate"
           d="m -50.612183,853.93432 -145.840767,0 c -4.40704,0 -7.95495,-3.54791 -7.95495,-7.95495 0,-4.40705 3.54791,-7.95496 7.95495,-7.95496 l 145.840767,0 z"
           id="rect3915"
           inkscape:connector-curvature="0"
           sodipodi:nodetypes="cssscc" />
        <path
           style="color:#000000;fill:#d6b46a;fill-opacity:1;stroke:#000000;stroke-width:2.00000024;stroke-linecap:round;stroke-linejoin:miter;stroke-miterlimit:4;stroke-opacity:1;stroke-dasharray:none;stroke-dashoffset:0;marker:none;visibility:visible;display:inline;overflow:visible;enable-background:accumulate"
           d="m -89.0625,591.3125 -26.125,25.96875 c 0,0 -4.20258,-2.1875 -7.3125,-2.1875 -4.68629,0 -8.5,3.81371 -8.5,8.5 0,4.68629 3.81371,8.5 8.5,8.5 3.10992,0 7.3125,-2.1875 7.3125,-2.1875 l 26.125,25.9375 30.15625,-32.25 z m 0,18.21875 13.1875,14.0625 -13.1875,14.0625 -13.1875,-14.0625 z"
           transform="translate(74.502833,222.38569)"
           id="rect3980"
           inkscape:connector-curvature="0"
           sodipodi:nodetypes="ccsssccccccccc" />
        <g
           id="g3974"
           transform="translate(-2.1213203,-1.36995)">
          <path
             sodipodi:nodetypes="csccscc"
             inkscape:connector-curvature="0"
             id="path3937"
             d="m -35.56621,840.29061 c -2.094436,2.09443 -6.760563,2.36774 -8.812509,-2.0625 -1.923656,-4.15325 4.124999,-8.625 6.937502,-3.1875 l 18.273805,-18.27375 c -5.437545,-2.81255 -0.965767,-8.86118 3.187467,-6.93754 4.430243,2.05195 4.15694,6.71808 2.062503,8.81252 z"
             style="color:#000000;fill:#d6b46a;fill-opacity:1;stroke:#000000;stroke-width:2;stroke-linecap:butt;stroke-linejoin:miter;stroke-miterlimit:4;stroke-opacity:1;stroke-dasharray:none;stroke-dashoffset:0;marker:none;visibility:visible;display:inline;overflow:visible;enable-background:accumulate" />
          <path
             style="color:#000000;fill:#d6b46a;fill-opacity:1;stroke:#000000;stroke-width:2;stroke-linecap:butt;stroke-linejoin:miter;stroke-miterlimit:4;stroke-opacity:1;stroke-dasharray:none;stroke-dashoffset:0;marker:none;visibility:visible;display:inline;overflow:visible;enable-background:accumulate"
             d="m -35.56621,854.40802 c -2.094436,-2.09443 -6.760563,-2.36774 -8.812509,2.0625 -1.923656,4.15325 4.124999,8.625 6.937502,3.1875 l 18.273805,18.27375 c -5.437545,2.81255 -0.965767,8.86118 3.187467,6.93754 4.430243,-2.05195 4.15694,-6.71808 2.062503,-8.81252 z"
             id="path3972"
             inkscape:connector-curvature="0"
             sodipodi:nodetypes="csccscc" />
          <path
             sodipodi:nodetypes="csccscc"
             inkscape:connector-curvature="0"
             id="use4004"
             d="m -10.936958,818.64183 c -2.094433,-2.09443 -2.367744,-6.76056 2.062498,-8.8125 4.153249,-1.92366 8.62499909,4.125 3.1875013,6.9375 l 23.8987487,23.8988 c 2.812552,-5.43754 8.86118,-0.96576 6.937539,3.18747 -2.051948,4.43024 -6.71808,4.15694 -8.812518,2.0625 z"
             style="color:#000000;fill:#d6b46a;fill-opacity:1;stroke:#000000;stroke-width:2;stroke-linecap:butt;stroke-linejoin:miter;stroke-miterlimit:4;stroke-opacity:1;stroke-dasharray:none;stroke-dashoffset:0;marker:none;visibility:visible;display:inline;overflow:visible;enable-background:accumulate" />
          <path
             sodipodi:nodetypes="csccscc"
             inkscape:connector-curvature="0"
             id="use4017"
             d="m -10.936958,876.05676 c -2.094433,2.09443 -2.367744,6.76056 2.062498,8.8125 4.153249,1.92366 8.62499909,-4.125 3.1875013,-6.9375 L 18.21179,854.03296 c 2.812552,5.43754 8.86118,0.96576 6.937539,-3.18747 -2.051948,-4.43024 -6.71808,-4.15694 -8.812518,-2.0625 z"
             style="color:#000000;fill:#d6b46a;fill-opacity:1;stroke:#000000;stroke-width:2;stroke-linecap:butt;stroke-linejoin:miter;stroke-miterlimit:4;stroke-opacity:1;stroke-dasharray:none;stroke-dashoffset:0;marker:none;visibility:visible;display:inline;overflow:visible;enable-background:accumulate" />
        </g>
      </g>
      <g
         id="g3031">
        <g
           id="g3874">
          <path
             style="color:#000000;fill:#dedfe2;stroke:#000000;stroke-width:2;stroke-linecap:butt;stroke-linejoin:miter;stroke-miterlimit:4;stroke-opacity:1;stroke-dasharray:none;stroke-dashoffset:0;marker:none;visibility:visible;display:inline;overflow:visible;enable-background:accumulate;fill-opacity:1"
             d="m 316.28974,330.70178 c 0,0 40.79918,17.82739 63.60337,30.02498 22.80419,12.19759 20.68287,23.86485 11.13693,31.81981 0,0 2.12132,18.56155 -12.19759,19.62221 0,0 1.06066,16.44023 -18.03122,14.31891 0,0 -2.65165,13.78858 -18.56156,7.95495 0,0 -7.42462,9.54594 -23.33452,-0.53033 0,0 -13.78858,9.54594 -22.80419,-19.09188 -9.01561,-28.63783 -40.83542,-82.20116 -59.9273,-97.0504 0,0 37.6255,-5.26122 80.11608,12.93175 z"
             id="path3872"
             inkscape:connector-curvature="0"
             transform="translate(74.502833,222.38569)"
             sodipodi:nodetypes="cscccccscc" />
          <path
             sodipodi:nodetypes="cccccccccc"
             transform="translate(74.502833,222.38569)"
             inkscape:connector-curvature="0"
             id="path3877"
             d="m 318.87499,433.89685 c 0,0 -28.875,-76.5 -73.125,-114.74999 m 96.375,115.12499 c 0,0 -54.375,-88.12499 -85.875,-112.87499 m 9.375,-0.375 c 0,0 48,40.49999 95.25,105.74999 m 17.625,-14.625 c 0,0 -83.25,-80.24999 -99.75,-89.99999 m 112.23483,70.81065 c 0,0 -75.48483,-58.81065 -97.23483,-67.81065"
             style="color:#000000;fill:none;stroke:#000000;stroke-width:1.5;stroke-linecap:butt;stroke-linejoin:miter;stroke-miterlimit:4;stroke-opacity:1;stroke-dasharray:none;stroke-dashoffset:0;marker:none;visibility:visible;display:inline;overflow:visible;enable-background:accumulate" />
        </g>
        <g
           transform="matrix(0.81069731,-0.35140159,0.2986946,0.9305897,-115.73584,67.392356)"
           id="use3890">
          <path
             sodipodi:nodetypes="ccsccccsccccccscccccccccc"
             transform="translate(74.502833,222.38569)"
             inkscape:connector-curvature="0"
             id="path3894"
             d="m 109.86012,269.81535 c 15.54872,-33.00042 40.53689,-22.09139 65.80538,-61.62165 -7.36896,-26.27604 17.7282,-52.5279 45.30536,-51.99757 27.57717,0.53033 53.56334,-10.34144 53.56334,-10.34144 0,0 0.79549,2.65165 -1.32582,6.0988 17.13152,-6.28183 31.99764,-2.92723 49.32069,-11.13693 0,0 0.26517,4.5078 -2.91681,7.95495 0,0 21.85253,-4.27505 49.85102,-2.12132 30.71602,2.36277 48.04037,3.86764 48.04037,3.86764 0,0 -3.64797,4.52113 -11.97792,7.26929 4.6783,0.94305 10.4816,1.11532 14.0349,2.93566 0,0 -6.07995,8.20127 -20.39886,10.32259 0,0 -9.01561,12.72792 -26.51651,14.84924 0,0 -11.13693,13.25826 -32.88046,15.90991 0,0 -7.42462,11.13693 -31.28947,16.44023 -23.86486,5.3033 -39.77476,6.36396 -39.77476,6.36396 0,0 -9.01561,10.6066 -24.92551,13.25825 0,0 8.47493,3.2799 10.53743,6.0924 0,0 -7.5,8.625 -28.875,10.875 0,0 6.9375,3.9375 10.6875,7.3125 0,0 -6.1875,3.75 -25.5,4.6875 0,0 6.1875,3.75 8.625,7.6875 0,0 -8.4375,4.5 -25.12499,4.125 0,0 5.62499,4.125 7.87499,9.75 -10.09635,3.3519 -20.57373,-0.25711 -32.38812,-5.44648"
             style="color:#000000;fill:#dedfe2;fill-opacity:1;stroke:#000000;stroke-width:2.15742278;stroke-linecap:butt;stroke-linejoin:miter;stroke-miterlimit:4;stroke-opacity:1;stroke-dasharray:none;stroke-dashoffset:0;marker:none;visibility:visible;display:inline;overflow:visible;enable-background:accumulate" />
          <path
             style="color:#000000;fill:none;stroke:#000000;stroke-width:1.61806715;stroke-linecap:butt;stroke-linejoin:miter;stroke-miterlimit:4;stroke-opacity:1;stroke-dasharray:none;stroke-dashoffset:0;marker:none;visibility:visible;display:inline;overflow:visible;enable-background:accumulate"
             d="m 194.58564,278.87915 c 0,0 -10.29594,-3.97747 -16.92507,-4.77297 m -7.15945,9.01561 c 0,0 -17.58177,-7.87716 -12.72792,-27.57716 4.85385,-19.7 23.16898,-36.02386 49.05553,-52.14912 25.88655,-16.12526 25.5165,-27.88528 45.07805,-41.89608 10.54595,-2.34354 17.5009,-5.56846 21.74354,-10.34143 m -21.92308,10.46611 c 0,0 6.02275,0.39775 10.52275,3.02275 0,0 -8.8125,9.75 -24.5625,9.75 m 10.68376,-1.67211 c 0,0 6.36396,1.85616 9.28078,5.03814 0,0 -11.93243,11.66726 -32.88047,11.93242 m 10.47402,-1.06066 c 0,0 5.96621,0.7955 9.41336,5.56847 0,0 -15.37957,11.40209 -36.85794,8.48528 m 17.50089,-0.53033 c 0,0 6.0988,1.59099 9.81111,7.15946 0,0 -22.27386,13.25825 -44.81289,5.03813 m 22.27386,2.38649 c 0,0 4.24264,2.65165 6.36396,7.15945 0,0 -21.74353,10.07627 -41.36574,1.32583 m 18.69413,3.44714 c 0,0 8.08753,3.97748 10.20885,10.07627 0,0 -19.62221,6.8943 -39.24442,-2.91681 m 18.03122,5.03814 c 0,0 9.28078,4.5078 11.66726,10.87176 0,0 -15.9099,7.68979 -36.06244,-5.03813 m 16.97056,6.76171 c 0,0 8.48528,2.78423 10.07627,9.67852 0,0 -14.31891,5.03813 -30.22881,-6.89429 m 12.19759,6.23138 c 0,0 7.5572,4.37522 7.82237,11.79984 0,0 -12.46276,1.32582 -19.35705,-4.50781 M 261.98306,164.59302 c 0,0 39.24442,1.59099 58.60147,-16.97056 m -65.87077,32.6153 c 0,0 27.42184,0 41.74075,-6.62913 14.31891,-6.62912 15.61257,-12.91542 15.61257,-12.91542 0,0 -9.39061,0.45267 -18.40622,0.45267 m -49.29925,33.12418 c 0,0 27.079,2.49632 42.19341,-3.33731 15.1144,-5.83363 20.15254,-13.78858 20.15254,-13.78858 0,0 -12.99309,-0.53033 -19.09188,-0.26517 m -52.76785,32.6153 c 0,0 30.49398,2.91682 43.75223,-3.71231 13.25826,-6.62912 16.7054,-13.25825 16.7054,-13.25825 0,0 -6.62912,-1.06066 -11.66726,-0.53033 m -65.49576,31.8198 c 0.53033,0 30.22881,2.38649 43.48706,-1.85615 13.25825,-4.24264 19.62222,-11.4021 19.62222,-11.4021 0,0 -4.24265,-2.12132 -9.28078,-2.38648 m -65.49577,30.49398 c 0,0 23.97469,1.48115 38.82394,-1.1705 m -48.36988,14.16358 c 0,0 16.28491,2.99448 29.80832,2.99448 m -38.55876,8.40762 c 0,0 12.76009,3.89981 23.63186,3.63464 m 44.51555,-43.67456 c 0,0 7.95495,1.32582 13.78858,1.32582 m 10.87177,-13.86624 c 0,0 38.26344,-11.76794 59.26344,-8.76794 m -46.5,-6.9375 c 0.75,0 15.375,-6.375 37.875,-7.125 22.5,-0.75 41.625,-2.0625 41.625,-2.0625 m -67.5,-8.0625 c 0,0 26.625,-6.375 51.375,-5.625 24.75,0.75 42.5625,-1.125 42.5625,-1.125 m -89.625,-6.5625 c 0,0 22.3125,-8.0625 53.8125,-6.5625 31.5,1.5 44.25,0 44.25,0"
             id="path3896"
             inkscape:connector-curvature="0"
             transform="translate(74.502833,222.38569)"
             sodipodi:nodetypes="ccczzccccccccccccccccccccccccccccccccscccscccscccscccccccccccccsccsccsc" />
        </g>
        <g
           id="g3864">
          <path
             sodipodi:nodetypes="cccccccsccccccscccscccccsccccsccccsscccscscccssscscsccccccc"
             transform="translate(74.502833,222.38569)"
             inkscape:connector-curvature="0"
             id="path5253"
             d="m 51.999999,235.89686 c 0,0 -10.500001,35.46154 24.749999,56.25 35.250002,20.78846 62.333792,19.29682 75.896672,21.5573 5.56847,4.77297 18.88738,22.98486 26.51651,29.69849 6.92506,6.2912 10.66345,6.13291 14.31891,6.89429 0,0 -4.32102,4.63604 -15.37957,10.34144 -9.32362,5.46557 -13.46276,6.27807 -18.29639,7.68978 -3.96325,1.15751 -10.87177,3.18198 -18.03122,3.18198 -7.15946,0 -8.75045,4.24264 -8.75045,4.24264 -9.81111,4.24265 -11.4021,12.46276 -11.4021,12.46276 9.54594,-6.89429 14.05375,-8.22012 14.05375,-8.22012 0,0 4.24264,-0.53033 7.68979,-3.44715 3.44714,-2.91681 11.13693,-1.32582 11.13693,-1.32582 0,0 -4.50781,4.50781 -9.28078,6.62913 -4.77297,2.12132 -3.44714,7.15945 -3.44714,7.15945 -2.91682,5.3033 -2.65166,16.17506 -2.65166,16.17506 2.91682,-3.01152 6.8943,-9.7644 7.15947,-13.25825 0,0 2.12132,-0.26516 3.97747,-2.12132 1.85616,-1.85615 -0.26517,-4.77296 3.71231,-7.15945 3.97747,-2.38648 9.8111,-5.3033 9.8111,-5.3033 l 0.26517,3.18198 4.77297,3.44715 c 0.26516,-4.50781 0,-10.34144 0,-10.34144 0,0 2.65165,-2.38649 14.58408,-9.81111 11.93242,-7.42462 20.24093,-8.83884 20.24093,-8.83884 6.36396,7.15946 10.07628,9.98789 10.07628,9.98789 -2.12133,13.52341 -7.15946,24.92551 -7.15946,24.92551 -3.18198,2.65165 -4.77297,5.83363 -4.77297,5.83363 -12.99309,0 -15.11441,-3.44714 -20.15255,-3.97747 -5.03813,-0.53033 -5.56846,3.97747 -5.56846,3.97747 -8.75045,2.65165 -11.4021,10.07627 -11.4021,10.07627 7.68979,-3.97748 12.99309,-5.56846 12.99309,-5.56846 3.71231,1.85615 6.36396,-1.06066 6.36396,-1.06066 7.68979,-0.7955 13.25825,2.91681 13.25825,2.91681 -1.59099,2.65165 -7.42462,5.03814 -14.05374,5.83363 -6.62913,0.7955 -4.77298,6.0988 -4.77298,6.0988 -3.71231,5.3033 -3.18198,14.58408 -3.18198,14.58408 3.97609,-5.2964 5.14344,-7.95116 6.36396,-11.13693 6.8943,0.26516 3.77298,-5.04243 10.87177,-6.8943 7.0988,-1.85186 12.72792,-5.56846 12.72792,-5.56846 l -0.26516,4.24264 5.27742,3.51989 c 1.125,-9.375 0.375,-18.375 0.375,-18.375 3,-13.875 13.125,-27.375 13.125,-27.375 l 10.125,5.625 c 0,0 -2.625,-9.75 -4.875,-24.375 -2.25,-14.625 -7.625,-28.5 -7.625,-28.5 36.375,0.375 98.125,12.375 98.125,12.375 -45,-27 -123.75,-54 -123.75,-54 -38.25,-39 -101.125,-67.25 -101.125,-67.25 -7.875,-18 -11.8125,-31.6875 -20.625,-42.375 -2.8125,-21.5625 -21,-21.375 -21,-21.375 -4.875,-15.75 -18,-24 -18,-24 l 10.498551,26.91831 -1.844801,1.8244 c -5.18348,-5.39289 -6.855053,-8.50435 -17.667576,-17.1718 0,0 4.507806,14.31891 14.318912,24.39519 0,0 -1.856156,8.48528 5.83363,13.25825 2.530587,20.2447 -5.202898,44.59223 5.861283,63.52566 z"
             style="color:#000000;fill:#dedfe2;stroke:#000000;stroke-width:2;stroke-linecap:butt;stroke-linejoin:miter;stroke-miterlimit:4;stroke-opacity:1;stroke-dasharray:none;stroke-dashoffset:0;marker:none;visibility:visible;display:inline;overflow:visible;enable-background:accumulate;fill-opacity:1" />
          <path
             style="color:#000000;fill:none;stroke:#000000;stroke-width:1.5;stroke-linecap:butt;stroke-linejoin:miter;stroke-miterlimit:4;stroke-opacity:1;stroke-dasharray:none;stroke-dashoffset:0;marker:none;visibility:visible;display:inline;overflow:visible;enable-background:accumulate"
             d="m 40.471139,159.36187 c 0,0 4.447428,-0.58343 3.356166,-6.95316 2.229419,-2.78633 5.824831,-4.9357 11.415411,-4.78625 m -9.63433,3.27037 c 0,0 16.585931,9.75965 22.273863,35.35534 5.687933,25.59569 -2.30698,57.56051 32.285791,56.55782 m -48.355541,-5.03413 c 0,0 6.375,-20.25 19.499999,-22.875 M 45.65258,171.79667 c 0,0 7.026874,3.8449 17.103145,-0.39774 M 214.25335,364.43907 c 0,0 5.03814,-3.44714 9.54594,2.38649 M 151.89537,313.3948 c 0,0 17.36831,-0.13258 25.32326,1.72357 m 15.59373,34.73662 c 0,0 5.78552,-0.59466 11.36471,5.30331 0,0 -8.66205,-10.16466 -19.26865,-26.6049 -10.6066,-16.44023 -16.44023,-31.28947 -14.84924,-48.79036 M 133.375,375.64685 c 0,0 1.3125,0.9375 2.25,4.5 m 6.75,8.8125 c 0,0 3,-0.375 3.9375,3.1875 M 154,376.02185 c 4.43066,-2.12469 3.41159,-5.50481 10.6875,-8.8125 m 11.625,27.9375 c 0,0 1.875,2.4375 1.3125,5.25 m 1.3125,13.5 c 0,0 2.625,0.375 3,4.125 m 14.4375,-14.625 c 3.21998,-1.98062 4.72198,-6.22704 7.31249,-10.3125"
             id="path3034"
             inkscape:connector-curvature="0"
             transform="translate(74.502833,222.38569)"
             sodipodi:nodetypes="cccczcccccccccccsccccccccccccc" />
          <path
             style="font-size:medium;font-style:normal;font-variant:normal;font-weight:normal;font-stretch:normal;text-indent:0;text-align:start;text-decoration:none;line-height:normal;letter-spacing:normal;word-spacing:normal;text-transform:none;direction:ltr;block-progression:tb;writing-mode:lr-tb;text-anchor:start;baseline-shift:baseline;color:#000000;fill:#000000;fill-opacity:1;stroke:none;stroke-width:1.5;marker:none;visibility:visible;display:inline;overflow:visible;enable-background:accumulate;font-family:Sans;-inkscape-font-specification:Sans"
             d="m 169.65913,434.79194 0.5625,-1.40625 c -5.45522,-2.14312 -12.73438,-1.5 -12.73438,-1.5 0,0 7.1271,0.92437 12.17188,2.90625 z m 119.8437,98.53125 c 3.46654,4.9456 5.3125,9.375 5.3125,9.375 l 1.375,-0.59375 c 0,0 -1.90404,-4.5706 -5.46875,-9.65625 -3.56471,-5.08565 -8.8038,-10.73119 -15.84375,-12.15625 6.08505,2.69994 11.15846,8.08565 14.625,13.03125 z"
             id="path3036"
             inkscape:connector-curvature="0"
             sodipodi:nodetypes="ccccsccscs" />
          <g
             transform="translate(1.0098266e-7,2.8565979e-6)"
             id="g3823">
            <path
               transform="translate(74.502833,222.38569)"
               d="m 59.662135,159.06876 c 0,3.1486 -2.552447,5.70104 -5.701049,5.70104 -3.148602,0 -5.701048,-2.55244 -5.701048,-5.70104 0,-3.14861 2.552446,-5.70105 5.701048,-5.70105 3.148602,0 5.701049,2.55244 5.701049,5.70105 z"
               sodipodi:ry="5.7010484"
               sodipodi:rx="5.7010484"
               sodipodi:cy="159.06876"
               sodipodi:cx="53.961086"
               id="path3819"
               style="color:#000000;fill:#d6b46a;fill-opacity:1;stroke:#000000;stroke-width:1.5;stroke-linecap:square;stroke-linejoin:miter;stroke-miterlimit:4;stroke-opacity:1;stroke-dasharray:none;stroke-dashoffset:0;marker:none;visibility:visible;display:inline;overflow:visible;enable-background:accumulate"
               sodipodi:type="arc" />
            <path
               sodipodi:type="arc"
               style="color:#000000;fill:#000000;stroke:none;stroke-width:2;marker:none;visibility:visible;display:inline;overflow:visible;enable-background:accumulate"
               id="path3821"
               sodipodi:cx="53.961086"
               sodipodi:cy="159.06876"
               sodipodi:rx="5.7010484"
               sodipodi:ry="5.7010484"
               d="m 59.662135,159.06876 c 0,3.1486 -2.552447,5.70104 -5.701049,5.70104 -3.148602,0 -5.701048,-2.55244 -5.701048,-5.70104 0,-3.14861 2.552446,-5.70105 5.701048,-5.70105 3.148602,0 5.701049,2.55244 5.701049,5.70105 z"
               transform="matrix(0.34488631,0,0,0.34488631,109.85348,326.59382)" />
          </g>
        </g>
        <g
           id="g3881">
          <path
             style="color:#000000;fill:#dedfe2;fill-opacity:1;stroke:#000000;stroke-width:2;stroke-linecap:butt;stroke-linejoin:miter;stroke-miterlimit:4;stroke-opacity:1;stroke-dasharray:none;stroke-dashoffset:0;marker:none;visibility:visible;display:inline;overflow:visible;enable-background:accumulate"
             d="m 99.412913,243.30403 c 0,0 15.837087,-12.78217 42.462087,-17.28217 26.625,-4.5 29.24484,-21.03536 28.71451,-37.4756 -0.53033,-16.44023 22.80419,-32.88046 50.38135,-32.35013 27.57717,0.53033 53.56334,-10.34144 53.56334,-10.34144 0,0 0.79549,2.65165 -1.32582,6.0988 17.13152,-6.28183 31.99764,-2.92723 49.32069,-11.13693 0,0 0.26517,4.5078 -2.91681,7.95495 0,0 21.85253,-4.27505 49.85102,-2.12132 30.71602,2.36277 48.04037,3.86764 48.04037,3.86764 0,0 -3.64797,4.52113 -11.97792,7.26929 4.6783,0.94305 10.4816,1.11532 14.0349,2.93566 0,0 -6.07995,8.20127 -20.39886,10.32259 0,0 -9.01561,12.72792 -26.51651,14.84924 0,0 -11.13693,13.25826 -32.88046,15.90991 0,0 -7.42462,11.13693 -31.28947,16.44023 -23.86486,5.3033 -39.77476,6.36396 -39.77476,6.36396 0,0 -9.01561,10.6066 -24.92551,13.25825 0,0 8.47493,3.2799 10.53743,6.0924 0,0 -7.5,8.625 -28.875,10.875 0,0 6.9375,3.9375 10.6875,7.3125 0,0 -6.1875,3.75 -25.5,4.6875 0,0 6.1875,3.75 8.625,7.6875 0,0 -8.4375,4.5 -25.12499,4.125 0,0 5.62499,4.125 7.87499,9.75 -10.09635,3.3519 -20.57373,-0.25711 -32.38812,-5.44648"
             id="path3879"
             inkscape:connector-curvature="0"
             transform="translate(74.502833,222.38569)"
             sodipodi:nodetypes="csssccccsccccccscccccccccc" />
          <path
             sodipodi:nodetypes="ccczzccccccccccccccccccccccccccccccccscccscccscccscccccccccccccsccsccsc"
             transform="translate(74.502833,222.38569)"
             inkscape:connector-curvature="0"
             id="path3884"
             d="m 194.58564,278.87915 c 0,0 -10.29594,-3.97747 -16.92507,-4.77297 m -7.15945,9.01561 c 0,0 -17.58177,-7.87716 -12.72792,-27.57716 4.85385,-19.7 23.16898,-36.02386 49.05553,-52.14912 25.88655,-16.12526 25.5165,-27.88528 45.07805,-41.89608 10.54595,-2.34354 17.5009,-5.56846 21.74354,-10.34143 m -21.92308,10.46611 c 0,0 6.02275,0.39775 10.52275,3.02275 0,0 -8.8125,9.75 -24.5625,9.75 m 10.68376,-1.67211 c 0,0 6.36396,1.85616 9.28078,5.03814 0,0 -11.93243,11.66726 -32.88047,11.93242 m 10.47402,-1.06066 c 0,0 5.96621,0.7955 9.41336,5.56847 0,0 -15.37957,11.40209 -36.85794,8.48528 m 17.50089,-0.53033 c 0,0 6.0988,1.59099 9.81111,7.15946 0,0 -22.27386,13.25825 -44.81289,5.03813 m 22.27386,2.38649 c 0,0 4.24264,2.65165 6.36396,7.15945 0,0 -21.74353,10.07627 -41.36574,1.32583 m 18.69413,3.44714 c 0,0 8.08753,3.97748 10.20885,10.07627 0,0 -19.62221,6.8943 -39.24442,-2.91681 m 18.03122,5.03814 c 0,0 9.28078,4.5078 11.66726,10.87176 0,0 -15.9099,7.68979 -36.06244,-5.03813 m 16.97056,6.76171 c 0,0 8.48528,2.78423 10.07627,9.67852 0,0 -14.31891,5.03813 -30.22881,-6.89429 m 12.19759,6.23138 c 0,0 7.5572,4.37522 7.82237,11.79984 0,0 -12.46276,1.32582 -19.35705,-4.50781 M 261.98306,164.59302 c 0,0 39.24442,1.59099 58.60147,-16.97056 m -65.87077,32.6153 c 0,0 27.42184,0 41.74075,-6.62913 14.31891,-6.62912 15.61257,-12.91542 15.61257,-12.91542 0,0 -9.39061,0.45267 -18.40622,0.45267 m -49.29925,33.12418 c 0,0 27.079,2.49632 42.19341,-3.33731 15.1144,-5.83363 20.15254,-13.78858 20.15254,-13.78858 0,0 -12.99309,-0.53033 -19.09188,-0.26517 m -52.76785,32.6153 c 0,0 30.49398,2.91682 43.75223,-3.71231 13.25826,-6.62912 16.7054,-13.25825 16.7054,-13.25825 0,0 -6.62912,-1.06066 -11.66726,-0.53033 m -65.49576,31.8198 c 0.53033,0 30.22881,2.38649 43.48706,-1.85615 13.25825,-4.24264 19.62222,-11.4021 19.62222,-11.4021 0,0 -4.24265,-2.12132 -9.28078,-2.38648 m -65.49577,30.49398 c 0,0 23.97469,1.48115 38.82394,-1.1705 m -48.36988,14.16358 c 0,0 16.28491,2.99448 29.80832,2.99448 m -38.55876,8.40762 c 0,0 12.76009,3.89981 23.63186,3.63464 m 44.51555,-43.67456 c 0,0 7.95495,1.32582 13.78858,1.32582 m 10.87177,-13.86624 c 0,0 38.26344,-11.76794 59.26344,-8.76794 m -46.5,-6.9375 c 0.75,0 15.375,-6.375 37.875,-7.125 22.5,-0.75 41.625,-2.0625 41.625,-2.0625 m -67.5,-8.0625 c 0,0 26.625,-6.375 51.375,-5.625 24.75,0.75 42.5625,-1.125 42.5625,-1.125 m -89.625,-6.5625 c 0,0 22.3125,-8.0625 53.8125,-6.5625 31.5,1.5 44.25,0 44.25,0"
             style="color:#000000;fill:none;stroke:#000000;stroke-width:1.5;stroke-linecap:butt;stroke-linejoin:miter;stroke-miterlimit:4;stroke-opacity:1;stroke-dasharray:none;stroke-dashoffset:0;marker:none;visibility:visible;display:inline;overflow:visible;enable-background:accumulate" />
          <path
             sodipodi:nodetypes="cccc"
             inkscape:connector-curvature="0"
             id="path3886"
             d="m 175.12783,466.01069 -1.25,-1.53125 c -7.58321,6.09366 -9.5625,12.70312 -9.5625,12.70312 0,0 3.54647,-5.33309 10.8125,-11.17187 z"
             style="font-size:medium;font-style:normal;font-variant:normal;font-weight:normal;font-stretch:normal;text-indent:0;text-align:start;text-decoration:none;line-height:normal;letter-spacing:normal;word-spacing:normal;text-transform:none;direction:ltr;block-progression:tb;writing-mode:lr-tb;text-anchor:start;baseline-shift:baseline;color:#000000;fill:#000000;fill-opacity:1;stroke:none;stroke-width:2;marker:none;visibility:visible;display:inline;overflow:visible;enable-background:accumulate;font-family:Sans;-inkscape-font-specification:Sans" />
        </g>
      </g>
    </g>
  </g>
</svg>
