<?xml version="1.0" encoding="UTF-8" ?>
<!DOCTYPE svg PUBLIC "-//W3C//DTD SVG 1.1//EN" "http://www.w3.org/Graphics/SVG/1.1/DTD/svg11.dtd">
<svg width="456pt" height="574pt" viewBox="0 0 456 574" version="1.1" xmlns="http://www.w3.org/2000/svg">
<path fill="#000000" stroke="#000000" stroke-width="0.09375" opacity="1.00" d=" M 5.0 5.0 C 154.0 5.0 303.0 5.0 452.0 5.0 C 452.0 113.7 452.0 222.3 452.0 331.0 C 452.2 349.0 452.1 367.1 448.9 384.9 C 442.4 423.7 425.0 460.6 399.6 490.6 C 377.3 517.1 348.7 538.2 317.0 551.9 C 275.0 570.1 227.4 574.8 182.7 565.3 C 146.0 557.6 111.5 540.3 83.1 515.9 C 43.1 481.8 15.5 433.3 7.6 381.3 C 6.0 370.9 4.9 360.5 5.0 350.0 C 5.0 235.0 5.0 120.0 5.0 5.0 M 12.4 12.4 C 12.4 115.8 12.1 219.1 12.3 322.5 C 156.4 322.5 300.5 322.5 444.6 322.4 C 444.8 219.0 444.8 115.7 444.7 12.3 C 300.6 12.2 156.5 12.4 12.4 12.4 M 48.4 333.4 C 43.1 338.0 40.7 344.9 39.9 351.8 C 30.7 351.8 21.5 351.6 12.2 351.9 C 12.2 353.6 12.2 355.3 12.3 357.1 C 39.8 357.5 67.4 357.1 95.0 357.2 C 207.3 357.3 319.7 357.2 432.0 357.2 C 436.2 357.2 440.3 357.4 444.5 356.8 C 444.6 355.3 444.6 353.8 444.7 352.3 C 443.2 352.0 441.7 351.8 440.2 351.6 C 439.6 345.4 436.7 339.3 431.4 335.7 C 426.9 332.2 421.2 331.7 415.7 331.6 C 421.2 329.2 427.6 328.6 433.2 330.7 C 437.9 332.2 441.5 335.7 444.8 339.1 C 444.8 337.5 444.7 335.9 444.6 334.4 C 441.1 331.3 437.1 328.6 432.5 327.4 C 424.2 325.1 414.9 327.8 408.8 333.8 C 403.8 338.4 401.5 345.1 400.9 351.8 C 395.4 351.8 390.0 351.8 384.6 351.7 C 384.4 341.4 377.6 331.5 367.8 328.1 C 358.7 324.6 347.9 327.3 341.2 334.2 C 336.6 338.9 334.2 345.3 333.8 351.8 C 324.1 351.7 314.3 351.8 304.6 351.7 C 304.6 341.6 298.0 332.0 288.6 328.4 C 279.6 324.6 268.6 326.9 261.8 333.8 C 256.7 338.4 254.3 345.1 253.8 351.8 C 248.4 351.8 242.9 351.8 237.4 351.8 C 237.2 342.3 231.6 333.1 223.0 329.1 C 214.0 324.5 202.5 326.3 195.1 333.1 C 189.8 337.8 187.0 344.8 186.6 351.8 C 177.1 351.8 167.6 351.8 158.1 351.7 C 157.7 342.9 152.9 334.2 145.1 329.9 C 135.8 324.3 123.1 326.0 115.4 333.4 C 110.1 338.0 107.7 344.9 107.0 351.7 C 101.7 351.8 96.4 351.8 91.1 351.7 C 90.5 343.2 86.2 334.8 78.7 330.3 C 69.4 324.3 56.3 325.7 48.4 333.4 M 150.4 368.1 C 150.5 394.3 150.7 420.6 150.3 446.8 C 148.0 446.8 145.6 446.8 143.2 446.8 C 144.9 442.3 146.7 437.7 147.0 432.9 C 150.6 413.3 140.7 392.6 124.5 381.5 C 111.8 372.6 95.1 369.7 80.2 374.0 C 62.2 378.9 47.6 393.9 42.9 411.8 C 39.7 423.3 41.3 435.6 45.1 446.7 C 42.5 446.7 39.9 446.7 37.2 446.8 C 45.6 463.4 56.7 478.6 69.3 492.3 C 108.7 535.6 166.3 562.1 225.0 562.6 C 264.2 563.5 303.5 553.0 337.3 533.2 C 370.0 514.2 397.6 486.4 416.5 453.6 C 417.6 451.6 418.9 449.6 419.4 447.3 C 420.0 443.3 421.8 439.6 422.7 435.6 C 426.0 420.7 421.0 404.5 410.2 393.8 C 401.6 384.8 389.3 379.9 376.9 379.5 C 392.8 372.0 412.7 374.7 426.5 385.5 C 431.4 388.9 434.8 393.8 438.8 398.2 C 439.1 396.8 439.3 395.3 439.5 393.9 C 429.0 379.9 411.5 371.1 393.9 372.2 C 376.5 373.0 359.9 383.0 351.0 397.9 C 349.8 400.1 348.6 402.3 347.1 404.3 C 344.4 392.3 342.3 380.2 339.9 368.1 C 327.1 368.1 314.3 367.9 301.4 368.2 C 301.5 394.4 301.7 420.6 301.4 446.9 C 299.0 446.9 296.7 446.8 294.3 446.5 C 297.6 439.1 299.3 431.0 298.8 422.9 C 298.2 408.6 291.3 394.8 280.6 385.4 C 268.2 374.4 250.5 369.6 234.4 373.3 C 220.8 376.1 208.7 384.6 201.2 396.2 C 199.4 399.1 198.0 402.3 196.2 405.3 C 193.5 392.9 191.2 380.5 188.8 368.1 C 176.0 367.9 163.2 367.9 150.4 368.1 Z" />
<path fill="#f2cd82" stroke="#f2cd82" stroke-width="0.09375" opacity="1.00" d=" M 12.4 12.4 C 156.5 12.4 300.6 12.2 444.7 12.3 C 444.8 115.7 444.8 219.0 444.6 322.4 C 300.5 322.5 156.4 322.5 12.3 322.5 C 12.1 219.1 12.4 115.8 12.4 12.4 M 145.8 107.0 C 145.5 149.7 146.2 192.3 146.0 235.0 C 145.6 250.7 150.0 266.4 158.2 279.8 C 168.6 297.0 185.3 310.3 204.4 316.5 C 220.2 321.7 237.6 322.0 253.6 317.5 C 273.3 312.0 290.7 299.0 301.8 281.8 C 310.2 268.8 314.8 253.5 315.0 238.0 C 315.0 194.3 315.0 150.7 315.0 107.0 C 258.6 107.0 202.2 106.9 145.8 107.0 Z" />
<path fill="#000000" stroke="#000000" stroke-width="0.09375" opacity="1.00" d=" M 145.8 107.0 C 202.2 106.9 258.6 107.0 315.0 107.0 C 315.0 150.7 315.0 194.3 315.0 238.0 C 314.8 253.5 310.2 268.8 301.8 281.8 C 290.7 299.0 273.3 312.0 253.6 317.5 C 237.6 322.0 220.2 321.7 204.4 316.5 C 185.3 310.3 168.6 297.0 158.2 279.8 C 150.0 266.4 145.6 250.7 146.0 235.0 C 146.2 192.3 145.5 149.7 145.8 107.0 M 149.8 111.0 C 149.6 126.4 149.8 141.7 149.7 157.0 C 150.3 183.0 149.9 209.0 150.0 235.0 C 149.6 251.3 154.7 267.6 163.9 281.1 C 175.2 297.7 192.8 310.0 212.4 314.6 C 229.4 318.6 247.6 316.8 263.4 309.5 C 278.4 302.9 291.1 291.5 299.6 277.6 C 307.1 265.1 311.2 250.6 311.0 236.0 C 311.0 194.3 311.1 152.7 311.0 111.0 C 257.3 111.0 203.5 111.0 149.8 111.0 Z" />
<path fill="#ed1c24" stroke="#ed1c24" stroke-width="0.09375" opacity="1.00" d=" M 149.8 111.0 C 203.5 111.0 257.3 111.0 311.0 111.0 C 311.1 152.7 311.0 194.3 311.0 236.0 C 311.2 250.6 307.1 265.1 299.6 277.6 C 291.1 291.5 278.4 302.9 263.4 309.5 C 247.6 316.8 229.4 318.6 212.4 314.6 C 192.8 310.0 175.2 297.7 163.9 281.1 C 154.7 267.6 149.6 251.3 150.0 235.0 C 149.9 209.0 150.3 183.0 149.7 157.0 C 149.8 141.7 149.6 126.4 149.8 111.0 M 184.5 115.5 C 177.7 124.0 170.0 131.9 163.7 140.8 C 173.3 149.1 183.1 157.0 192.7 165.2 C 191.0 169.5 189.2 173.8 188.6 178.4 C 188.0 182.6 188.4 186.8 188.2 191.0 C 188.3 193.7 185.8 195.4 184.4 197.4 C 175.0 208.6 165.5 219.7 156.3 231.0 C 165.3 239.2 174.7 246.8 184.0 254.5 C 188.7 249.9 192.3 244.4 197.0 239.8 C 195.8 255.4 193.4 271.0 192.2 286.6 C 219.1 286.5 245.9 286.5 272.8 286.6 C 272.2 276.6 270.7 266.7 270.1 256.8 C 273.9 259.3 277.0 262.6 280.8 265.1 C 288.5 255.8 296.5 246.7 304.1 237.2 C 291.7 226.5 279.0 216.1 266.5 205.5 C 263.5 203.1 264.5 198.8 264.1 195.4 C 268.0 195.5 271.9 195.7 275.8 195.0 C 276.3 189.5 276.0 183.9 275.5 178.4 C 275.1 176.5 276.8 175.3 277.8 173.9 C 287.0 163.1 296.0 152.1 305.3 141.2 C 306.3 140.0 307.1 138.7 308.0 137.4 C 298.7 129.8 290.0 121.5 280.2 114.6 C 271.0 125.2 262.2 136.2 252.9 146.7 C 247.0 143.8 240.7 141.5 234.1 141.3 C 230.1 140.9 226.1 141.8 222.2 142.0 C 219.7 141.0 217.9 138.8 215.8 137.2 C 206.5 129.5 197.3 121.6 188.0 114.0 C 186.6 112.5 185.4 114.5 184.5 115.5 Z" />
<path fill="#000000" stroke="#000000" stroke-width="0.09375" opacity="1.00" d=" M 184.5 115.5 C 185.4 114.5 186.6 112.5 188.0 114.0 C 197.3 121.6 206.5 129.5 215.8 137.2 C 217.9 138.8 219.7 141.0 222.2 142.0 C 226.1 141.8 230.1 140.9 234.1 141.3 C 240.7 141.5 247.0 143.8 252.9 146.7 C 262.2 136.2 271.0 125.2 280.2 114.6 C 290.0 121.5 298.7 129.8 308.0 137.4 C 307.1 138.7 306.3 140.0 305.3 141.2 C 296.0 152.1 287.0 163.1 277.8 173.9 C 276.8 175.3 275.1 176.5 275.5 178.4 C 276.0 183.9 276.3 189.5 275.8 195.0 C 271.9 195.7 268.0 195.5 264.1 195.4 C 264.5 198.8 263.5 203.1 266.5 205.5 C 279.0 216.1 291.7 226.5 304.1 237.2 C 296.5 246.7 288.5 255.8 280.8 265.1 C 277.0 262.6 273.9 259.3 270.1 256.8 C 270.7 266.7 272.2 276.6 272.8 286.6 C 245.9 286.5 219.1 286.5 192.2 286.6 C 193.4 271.0 195.8 255.4 197.0 239.8 C 192.3 244.4 188.7 249.9 184.0 254.5 C 174.7 246.8 165.3 239.2 156.3 231.0 C 165.5 219.7 175.0 208.6 184.4 197.4 C 185.8 195.4 188.3 193.7 188.2 191.0 C 188.4 186.8 188.0 182.6 188.6 178.4 C 189.2 173.8 191.0 169.5 192.7 165.2 C 183.1 157.0 173.3 149.1 163.7 140.8 C 170.0 131.9 177.7 124.0 184.5 115.5 M 187.2 118.8 C 186.0 120.2 184.9 121.6 183.8 122.9 C 185.3 124.3 186.8 125.6 188.3 126.9 C 189.4 125.5 191.7 124.2 191.6 122.3 C 190.2 121.0 188.7 119.9 187.2 118.8 M 256.8 149.1 C 258.7 150.9 260.7 152.5 262.7 154.1 C 270.7 144.4 278.9 135.0 286.8 125.2 C 284.9 123.6 282.9 122.0 280.9 120.5 C 272.8 129.9 264.8 139.6 256.8 149.1 M 191.7 129.7 C 192.9 130.8 194.1 131.8 195.3 132.8 C 196.6 131.4 197.8 129.9 199.0 128.3 C 197.7 127.4 196.4 126.4 195.1 125.5 C 193.9 126.9 192.8 128.3 191.7 129.7 M 177.1 130.7 C 178.7 132.0 180.3 133.4 181.9 134.7 C 183.3 133.2 184.6 131.7 185.9 130.2 C 184.3 128.8 182.7 127.4 181.0 126.1 C 179.7 127.6 178.4 129.1 177.1 130.7 M 290.2 128.0 C 288.7 129.8 287.2 131.7 285.8 133.7 C 287.2 134.8 288.7 135.9 290.1 137.1 C 291.6 135.4 293.1 133.6 294.5 131.8 C 293.1 130.5 291.7 129.3 290.2 128.0 M 202.2 131.2 C 201.1 132.4 199.9 133.7 199.0 135.1 C 199.3 136.9 201.5 137.6 202.7 138.8 C 203.8 137.3 204.9 135.8 206.0 134.3 C 204.7 133.3 203.4 132.2 202.2 131.2 M 185.1 137.3 C 186.4 138.4 187.6 139.5 188.9 140.5 C 190.2 139.0 191.5 137.5 192.7 136.0 C 191.5 134.9 190.3 133.9 189.0 132.8 C 187.7 134.3 186.4 135.8 185.1 137.3 M 174.3 133.9 C 172.6 136.0 170.9 138.0 169.3 140.1 C 177.7 147.4 186.2 154.5 194.8 161.5 C 196.5 159.4 198.1 157.2 199.8 155.2 C 191.3 148.1 183.0 140.7 174.3 133.9 M 293.5 139.9 C 294.8 141.1 296.0 142.2 297.2 143.4 C 299.1 141.9 300.6 140.0 302.1 138.1 C 300.7 137.0 299.3 135.8 298.0 134.7 C 296.4 136.4 294.9 138.1 293.5 139.9 M 209.2 137.1 C 208.0 138.5 206.8 140.0 205.8 141.6 C 207.0 142.7 208.2 143.7 209.4 144.7 C 210.8 143.3 212.0 141.8 213.2 140.3 C 211.8 139.2 210.5 138.2 209.2 137.1 M 279.4 141.0 C 280.8 142.3 282.3 143.6 283.8 144.8 C 285.0 143.3 286.1 141.8 287.2 140.3 C 285.7 139.2 284.3 138.0 282.9 136.9 C 281.7 138.3 280.5 139.6 279.4 141.0 M 192.0 143.2 C 193.4 144.3 194.6 145.4 196.0 146.5 C 197.3 145.0 198.5 143.5 199.8 142.0 C 198.6 141.0 197.6 139.5 196.0 139.0 C 194.3 139.9 193.4 141.8 192.0 143.2 M 216.2 143.3 C 216.7 143.8 216.7 143.8 216.2 143.3 M 287.1 147.7 C 288.4 148.8 289.8 150.0 291.2 151.1 C 292.4 149.7 293.5 148.3 294.7 146.9 C 293.4 145.7 292.1 144.5 290.8 143.4 C 289.4 144.7 288.2 146.2 287.1 147.7 M 199.2 149.2 C 200.4 150.2 201.7 151.3 202.9 152.3 C 204.3 150.9 205.7 149.5 207.0 148.0 C 205.7 146.9 204.6 145.4 203.0 144.9 C 201.5 146.1 200.4 147.7 199.2 149.2 M 226.3 145.8 C 230.6 149.9 235.4 153.3 239.8 157.3 L 239.8 157.9 C 236.0 163.2 231.4 167.7 227.6 172.9 C 228.0 173.4 228.9 174.4 229.3 174.9 C 236.4 166.7 243.4 158.5 250.1 150.1 C 242.9 146.2 234.5 144.2 226.3 145.8 M 273.1 149.0 C 274.3 150.3 275.7 151.4 277.1 152.5 C 278.4 151.1 279.7 149.6 280.9 148.2 C 279.5 147.0 278.1 145.7 276.7 144.5 C 275.4 145.9 273.7 147.1 273.1 149.0 M 216.3 148.0 C 214.2 148.7 215.6 151.7 217.4 150.3 C 219.4 149.5 218.3 146.6 216.3 148.0 M 223.3 148.9 C 222.1 150.3 221.0 151.7 219.8 153.2 C 221.1 154.1 222.1 156.2 223.8 155.9 C 225.0 154.8 226.6 153.7 226.8 152.0 C 226.0 150.7 224.5 149.9 223.3 148.9 M 284.2 151.0 C 283.0 152.4 281.8 153.8 280.6 155.2 C 281.9 156.5 283.3 157.7 284.8 158.9 C 286.0 157.4 287.2 155.9 288.3 154.3 C 286.9 153.2 285.6 152.1 284.2 151.0 M 206.2 155.1 C 207.5 156.0 208.5 157.5 210.0 157.9 C 211.7 156.7 212.7 154.9 213.9 153.3 C 212.6 152.9 211.6 151.3 210.2 151.8 C 208.7 152.7 207.5 153.9 206.2 155.1 M 232.9 177.7 C 235.0 179.2 237.1 180.7 239.1 182.2 C 246.1 173.9 253.2 165.7 259.9 157.2 C 258.0 155.6 256.1 154.0 254.1 152.5 C 246.9 160.8 239.8 169.2 232.9 177.7 M 266.5 156.2 C 267.9 157.6 269.3 158.9 270.9 160.1 C 272.0 158.8 273.2 157.6 274.1 156.0 C 273.1 154.4 271.4 153.5 270.0 152.3 C 268.8 153.6 267.7 154.9 266.5 156.2 M 230.3 154.8 C 229.1 156.2 227.9 157.7 226.8 159.1 C 228.1 160.3 229.4 161.4 230.8 162.5 C 232.0 161.0 233.2 159.5 234.4 158.1 C 233.0 157.0 231.7 155.9 230.3 154.8 M 213.1 160.9 C 214.4 162.0 215.7 163.1 217.0 164.2 C 218.3 162.7 219.6 161.2 220.9 159.7 C 219.6 158.6 218.3 157.5 217.0 156.5 C 215.7 157.9 214.4 159.4 213.1 160.9 M 198.0 164.2 C 210.3 174.8 223.0 185.1 235.3 195.7 C 237.3 193.7 239.0 191.2 242.0 191.1 C 238.5 186.9 233.9 183.8 229.8 180.2 C 220.7 172.9 212.0 165.2 203.0 157.9 C 201.2 159.9 199.6 162.0 198.0 164.2 M 274.2 162.9 C 275.7 164.1 277.1 165.2 278.7 166.2 C 279.7 164.9 280.8 163.5 281.9 162.2 C 280.5 161.1 279.2 159.9 277.9 158.8 C 276.6 160.1 275.4 161.5 274.2 162.9 M 260.0 164.1 C 261.5 165.5 263.2 166.8 264.9 167.9 C 266.8 165.6 265.3 163.3 263.6 161.4 C 261.7 160.6 261.1 163.2 260.0 164.1 M 220.2 166.8 C 221.5 167.9 222.8 169.1 224.1 170.2 C 225.6 168.7 227.0 167.2 228.0 165.4 C 226.7 164.4 225.3 163.4 224.0 162.5 C 222.7 163.9 221.4 165.4 220.2 166.8 M 272.3 167.4 C 271.8 168.7 273.1 171.6 274.8 170.8 C 275.8 169.4 273.8 167.0 272.3 167.4 M 196.0 168.0 C 193.1 174.2 191.9 181.1 192.2 187.9 C 195.3 184.3 198.4 180.6 201.4 176.9 C 206.9 180.7 211.6 185.5 217.0 189.6 C 217.8 188.7 219.6 187.2 217.8 186.2 C 210.6 180.1 203.3 174.1 196.0 168.0 M 253.6 171.9 C 255.1 173.1 256.5 174.3 258.0 175.4 C 259.2 174.0 260.4 172.6 261.6 171.1 C 260.1 169.9 258.6 168.7 257.1 167.6 C 255.9 169.0 254.7 170.4 253.6 171.9 M 268.3 170.3 C 268.8 170.9 268.8 170.9 268.3 170.3 M 261.4 178.2 C 262.8 179.5 264.2 180.7 265.7 181.8 C 266.8 180.3 268.0 178.8 269.1 177.3 C 267.7 176.2 266.3 175.1 265.0 174.0 C 263.8 175.4 262.6 176.8 261.4 178.2 M 247.2 179.3 C 248.6 180.6 250.2 181.9 251.7 183.1 C 252.8 181.7 254.0 180.3 255.1 178.9 C 253.7 177.6 252.2 176.4 250.8 175.2 C 249.6 176.6 248.4 177.9 247.2 179.3 M 258.3 181.8 C 257.2 183.1 256.1 184.5 255.0 185.9 C 256.3 187.1 257.7 188.2 259.0 189.4 C 260.3 188.0 261.6 186.5 262.8 185.1 C 261.3 183.9 259.9 182.8 258.3 181.8 M 263.5 191.4 C 266.3 191.5 269.2 191.5 272.0 191.4 C 272.0 188.1 272.0 184.8 271.9 181.5 C 268.7 184.4 266.0 187.8 263.5 191.4 M 202.1 182.9 C 201.0 184.2 200.0 185.5 199.0 186.7 C 200.4 187.9 201.8 189.0 203.1 190.2 C 204.3 189.0 205.4 187.7 206.3 186.3 C 204.9 185.2 203.5 184.0 202.1 182.9 M 244.3 182.8 C 243.8 183.4 242.9 184.5 242.5 185.1 C 245.9 187.9 249.0 192.4 254.1 191.7 C 251.5 188.0 247.6 185.6 244.3 182.8 M 195.4 190.3 C 194.3 191.6 196.5 193.2 197.5 191.9 C 198.5 190.7 196.3 188.9 195.4 190.3 M 209.2 190.2 C 209.5 193.6 212.2 188.6 209.2 190.2 M 222.1 190.1 C 220.5 190.4 221.5 192.7 222.9 192.2 C 224.4 191.9 223.4 189.5 222.1 190.1 M 195.6 195.2 C 194.7 196.8 197.6 198.0 198.4 196.5 C 199.3 194.9 196.5 194.0 195.6 195.2 M 210.1 195.2 C 209.6 196.6 210.1 197.1 211.5 196.6 C 212.0 195.2 211.5 194.7 210.1 195.2 M 255.0 195.4 C 256.6 197.1 258.4 198.7 260.2 200.1 C 260.1 198.6 260.0 197.0 259.8 195.5 C 258.2 195.4 256.6 195.4 255.0 195.4 M 206.7 208.7 C 205.7 210.1 204.3 211.3 204.2 213.1 C 203.6 217.1 203.2 221.2 203.0 225.3 C 208.8 218.9 214.0 212.1 219.6 205.6 C 222.3 202.3 225.3 199.2 227.6 195.6 C 224.4 195.5 221.2 195.5 218.0 195.5 C 214.2 199.9 210.5 204.4 206.7 208.7 M 236.3 195.7 C 239.7 199.4 243.8 202.2 247.5 205.5 C 252.3 209.4 256.9 213.6 262.0 217.3 C 261.5 213.7 261.8 209.9 260.5 206.5 C 256.4 202.9 252.1 199.3 247.8 195.8 C 244.0 195.1 240.1 195.6 236.3 195.7 M 190.2 197.1 C 189.2 198.4 188.1 199.7 187.1 201.0 C 188.4 202.2 189.8 203.4 191.2 204.5 C 192.3 203.3 193.4 202.1 194.4 200.9 C 193.1 199.6 191.6 198.3 190.2 197.1 M 203.6 231.5 C 201.3 233.7 201.6 237.1 201.2 240.0 C 199.7 254.1 197.9 268.3 196.6 282.5 C 205.4 282.5 214.2 282.6 223.0 282.4 C 223.0 273.1 223.0 263.9 223.0 254.6 C 228.6 254.5 234.2 254.3 239.8 254.7 C 239.7 263.9 239.7 273.2 239.8 282.4 C 249.3 282.6 258.9 282.5 268.4 282.4 C 267.6 273.0 266.6 263.6 265.6 254.1 C 265.7 252.8 264.8 251.9 263.9 251.2 C 249.6 239.1 235.2 227.2 220.9 215.1 C 225.0 209.9 229.4 205.1 233.4 200.0 C 233.0 199.5 232.2 198.5 231.8 198.0 C 222.2 209.0 213.0 220.4 203.6 231.5 M 201.0 199.3 C 199.5 202.3 204.4 199.4 201.0 199.3 M 205.6 199.3 C 205.4 200.6 205.3 201.9 205.2 203.1 C 206.2 202.1 207.2 201.1 208.2 200.1 C 207.4 199.3 206.6 199.1 205.6 199.3 M 237.1 202.9 C 236.0 204.2 234.8 205.5 233.9 207.0 C 234.7 208.6 236.5 209.4 237.9 210.4 C 239.0 209.0 240.1 207.6 241.2 206.2 C 239.8 205.1 238.5 204.0 237.1 202.9 M 194.7 207.6 C 196.2 208.8 197.7 209.9 199.1 211.0 C 200.1 209.6 201.1 208.1 200.8 206.3 C 199.9 205.3 198.9 204.5 197.9 203.6 C 196.7 204.8 195.6 206.2 194.7 207.6 M 181.0 208.1 C 182.4 209.3 183.8 210.6 185.2 211.8 C 186.3 210.5 187.4 209.2 188.4 208.0 C 187.1 206.7 185.6 205.5 184.2 204.4 C 183.1 205.6 182.0 206.9 181.0 208.1 M 241.2 213.4 C 242.7 214.7 244.2 216.0 245.8 217.2 C 246.9 215.8 248.1 214.4 249.2 213.0 C 247.8 211.8 246.3 210.5 244.9 209.3 C 243.6 210.7 242.4 212.0 241.2 213.4 M 188.7 214.7 C 190.2 215.8 191.6 216.9 193.0 218.1 C 194.1 216.8 195.1 215.5 196.1 214.3 C 194.7 213.1 193.3 211.9 191.8 210.8 C 190.8 212.0 189.7 213.3 188.7 214.7 M 230.4 210.8 C 229.4 212.0 228.4 213.1 227.5 214.3 C 228.7 215.7 230.1 216.9 231.6 218.0 C 232.7 216.7 233.7 215.4 234.7 214.0 C 233.3 212.8 231.9 211.8 230.4 210.8 M 175.1 215.1 C 176.5 216.3 177.9 217.6 179.3 218.9 C 180.3 217.6 181.4 216.3 182.4 215.1 C 181.0 213.9 179.6 212.8 178.1 211.7 C 177.1 212.8 176.1 213.9 175.1 215.1 M 265.6 211.1 C 265.8 214.5 265.8 218.0 266.7 221.3 C 275.2 228.9 284.1 236.1 293.0 243.4 C 294.6 241.6 296.1 239.7 297.7 237.9 C 291.6 232.4 285.2 227.3 279.0 222.0 C 274.5 218.4 270.4 214.3 265.6 211.1 M 249.3 220.1 C 250.8 221.2 251.9 223.2 253.8 223.5 C 255.0 222.2 255.9 220.7 257.0 219.3 C 255.6 218.2 254.2 217.1 252.8 216.0 C 251.7 217.4 250.5 218.7 249.3 220.1 M 177.6 243.2 C 179.4 245.3 181.5 247.0 183.8 248.4 C 188.0 243.4 192.2 238.4 196.4 233.4 C 197.1 232.4 198.1 231.5 198.2 230.2 C 198.9 225.9 199.1 221.5 199.7 217.2 C 192.3 225.8 185.0 234.6 177.6 243.2 M 238.2 217.0 C 237.2 218.3 236.1 219.6 235.1 221.0 C 236.5 222.2 237.9 223.4 239.3 224.7 C 240.5 223.4 241.6 222.2 242.8 220.9 C 241.3 219.6 239.8 218.3 238.2 217.0 M 182.8 221.7 C 184.2 222.8 185.7 224.0 187.1 225.1 C 188.2 223.9 189.2 222.6 190.1 221.3 C 188.7 220.2 187.3 219.0 185.9 217.9 C 184.8 219.2 183.8 220.4 182.8 221.7 M 169.0 222.7 C 170.6 223.8 172.1 224.9 173.7 225.9 C 174.6 224.6 175.5 223.3 176.5 222.0 C 175.0 220.9 173.6 219.7 172.1 218.7 C 171.1 220.0 170.0 221.3 169.0 222.7 M 257.0 226.8 C 258.6 228.1 260.2 229.3 261.9 230.4 C 263.7 228.0 263.3 224.3 260.9 222.4 C 259.5 223.8 258.2 225.3 257.0 226.8 M 246.2 223.8 C 245.1 225.1 244.1 226.5 243.0 227.8 C 244.5 229.0 246.1 230.2 247.7 231.3 C 248.7 229.9 249.6 228.5 250.5 227.1 C 249.1 226.0 247.6 224.9 246.2 223.8 M 176.7 228.9 C 178.2 230.1 179.6 231.2 181.1 232.4 C 182.1 231.1 183.2 229.7 184.2 228.3 C 182.8 227.2 181.3 226.1 179.9 224.9 C 178.8 226.3 177.8 227.6 176.7 228.9 M 166.2 225.8 C 164.8 227.4 163.5 229.1 162.2 230.8 C 163.7 231.9 165.2 233.1 166.7 234.2 C 168.0 232.5 169.2 230.9 170.4 229.1 C 169.0 228.0 167.6 226.9 166.2 225.8 M 267.9 229.0 C 267.5 231.7 267.2 234.7 269.0 237.0 C 270.3 235.6 271.6 234.2 272.9 232.8 C 271.3 231.4 269.7 230.1 267.9 229.0 M 251.0 234.6 C 252.4 235.6 253.8 236.7 255.2 237.8 C 256.3 236.6 257.4 235.3 258.5 234.0 C 257.0 232.7 255.6 231.5 254.1 230.3 C 253.0 231.7 252.0 233.1 251.0 234.6 M 169.8 237.0 C 171.2 238.2 172.7 239.3 174.1 240.5 C 175.5 239.0 176.8 237.4 178.2 235.9 C 176.8 234.6 175.4 233.4 174.0 232.2 C 172.6 233.8 171.2 235.4 169.8 237.0 M 276.2 235.7 C 275.1 237.1 274.0 238.5 272.9 240.0 C 274.3 241.2 275.7 242.4 277.2 243.6 C 278.4 242.3 279.7 241.0 280.9 239.7 C 279.5 238.2 277.9 236.9 276.2 235.7 M 258.8 241.0 C 260.4 242.3 261.9 243.9 264.1 244.1 C 264.7 241.5 264.6 238.4 262.1 236.9 C 261.0 238.2 259.9 239.6 258.8 241.0 M 280.9 246.7 C 282.7 248.3 284.6 249.8 286.6 251.2 C 287.7 249.8 288.8 248.4 289.9 247.0 C 288.2 245.5 286.4 244.0 284.7 242.5 C 283.3 243.8 282.0 245.2 280.9 246.7 M 268.9 243.6 C 269.3 245.9 268.1 250.0 271.0 251.0 C 272.3 249.9 273.3 248.4 274.3 247.1 C 272.6 245.7 271.0 244.2 268.9 243.6 M 274.6 254.1 C 276.4 255.7 278.2 257.3 280.0 258.8 C 281.2 257.5 282.3 256.2 283.4 254.9 C 281.6 253.3 279.8 251.7 277.9 250.2 C 276.8 251.5 275.7 252.8 274.6 254.1 M 227.0 258.6 C 227.0 266.5 227.0 274.5 227.0 282.4 C 229.9 282.6 232.9 282.5 235.8 282.3 C 235.7 274.4 235.7 266.6 235.8 258.7 C 232.9 258.4 229.9 258.4 227.0 258.6 Z" />
<path fill="#eec97e" stroke="#eec97e" stroke-width="0.09375" opacity="1.00" d=" M 187.2 118.8 C 188.7 119.9 190.2 121.0 191.6 122.3 C 191.7 124.2 189.4 125.5 188.3 126.9 C 186.8 125.6 185.3 124.3 183.8 122.9 C 184.9 121.6 186.0 120.2 187.2 118.8 Z" />
<path fill="#f2cd82" stroke="#f2cd82" stroke-width="0.09375" opacity="1.00" d=" M 256.8 149.1 C 264.8 139.6 272.8 129.9 280.9 120.5 C 282.9 122.0 284.9 123.6 286.8 125.2 C 278.9 135.0 270.7 144.4 262.7 154.1 C 260.7 152.5 258.7 150.9 256.8 149.1 Z" />
<path fill="#eeca7f" stroke="#eeca7f" stroke-width="0.09375" opacity="1.00" d=" M 191.7 129.7 C 192.8 128.3 193.9 126.9 195.1 125.5 C 196.4 126.4 197.7 127.4 199.0 128.3 C 197.8 129.9 196.6 131.4 195.3 132.8 C 194.1 131.8 192.9 130.8 191.7 129.7 Z" />
<path fill="#eeca7f" stroke="#eeca7f" stroke-width="0.09375" opacity="1.00" d=" M 177.1 130.7 C 178.4 129.1 179.7 127.6 181.0 126.1 C 182.7 127.4 184.3 128.8 185.9 130.2 C 184.6 131.7 183.3 133.2 181.9 134.7 C 180.3 133.4 178.7 132.0 177.1 130.7 Z" />
<path fill="#f3cf83" stroke="#f3cf83" stroke-width="0.09375" opacity="1.00" d=" M 290.2 128.0 C 291.7 129.3 293.1 130.5 294.5 131.8 C 293.1 133.6 291.6 135.4 290.1 137.1 C 288.7 135.9 287.2 134.8 285.8 133.7 C 287.2 131.7 288.7 129.8 290.2 128.0 Z" />
<path fill="#efcb80" stroke="#efcb80" stroke-width="0.09375" opacity="1.00" d=" M 202.2 131.2 C 203.4 132.2 204.7 133.3 206.0 134.3 C 204.9 135.8 203.8 137.3 202.7 138.8 C 201.5 137.6 199.3 136.9 199.0 135.1 C 199.9 133.7 201.1 132.4 202.2 131.2 Z" />
<path fill="#efca7f" stroke="#efca7f" stroke-width="0.09375" opacity="1.00" d=" M 185.1 137.3 C 186.4 135.8 187.7 134.3 189.0 132.8 C 190.3 133.9 191.5 134.9 192.7 136.0 C 191.5 137.5 190.2 139.0 188.9 140.5 C 187.6 139.5 186.4 138.4 185.1 137.3 Z" />
<path fill="#efcb80" stroke="#efcb80" stroke-width="0.09375" opacity="1.00" d=" M 174.3 133.9 C 183.0 140.7 191.3 148.1 199.8 155.2 C 198.1 157.2 196.5 159.4 194.8 161.5 C 186.2 154.5 177.7 147.4 169.3 140.1 C 170.9 138.0 172.6 136.0 174.3 133.9 Z" />
<path fill="#f3cf83" stroke="#f3cf83" stroke-width="0.09375" opacity="1.00" d=" M 293.5 139.9 C 294.9 138.1 296.4 136.4 298.0 134.7 C 299.3 135.8 300.7 137.0 302.1 138.1 C 300.6 140.0 299.1 141.9 297.2 143.4 C 296.0 142.2 294.8 141.1 293.5 139.9 Z" />
<path fill="#f0cc81" stroke="#f0cc81" stroke-width="0.09375" opacity="1.00" d=" M 209.2 137.1 C 210.5 138.2 211.8 139.2 213.2 140.3 C 212.0 141.8 210.8 143.3 209.4 144.7 C 208.2 143.7 207.0 142.7 205.8 141.6 C 206.8 140.0 208.0 138.5 209.2 137.1 Z" />
<path fill="#f3cf83" stroke="#f3cf83" stroke-width="0.09375" opacity="1.00" d=" M 279.4 141.0 C 280.5 139.6 281.7 138.3 282.9 136.9 C 284.3 138.0 285.7 139.2 287.2 140.3 C 286.1 141.8 285.0 143.3 283.8 144.8 C 282.3 143.6 280.8 142.3 279.4 141.0 Z" />
<path fill="#f0cc81" stroke="#f0cc81" stroke-width="0.09375" opacity="1.00" d=" M 192.0 143.2 C 193.4 141.8 194.3 139.9 196.0 139.0 C 197.6 139.5 198.6 141.0 199.8 142.0 C 198.5 143.5 197.3 145.0 196.0 146.5 C 194.6 145.4 193.4 144.3 192.0 143.2 Z" />
<path fill="#a58c58" stroke="#a58c58" stroke-width="0.09375" opacity="1.00" d=" M 216.2 143.3 C 216.7 143.8 216.7 143.8 216.2 143.3 Z" />
<path fill="#f2cf83" stroke="#f2cf83" stroke-width="0.09375" opacity="1.00" d=" M 287.1 147.7 C 288.2 146.2 289.4 144.7 290.8 143.4 C 292.1 144.5 293.4 145.7 294.7 146.9 C 293.5 148.3 292.4 149.7 291.2 151.1 C 289.8 150.0 288.4 148.8 287.1 147.7 Z" />
<path fill="#f0cc81" stroke="#f0cc81" stroke-width="0.09375" opacity="1.00" d=" M 199.2 149.2 C 200.4 147.7 201.5 146.1 203.0 144.9 C 204.6 145.4 205.7 146.9 207.0 148.0 C 205.7 149.5 204.3 150.9 202.9 152.3 C 201.7 151.3 200.4 150.2 199.2 149.2 Z" />
<path fill="#f2cd82" stroke="#f2cd82" stroke-width="0.09375" opacity="1.00" d=" M 226.3 145.8 C 234.5 144.2 242.9 146.2 250.1 150.1 C 243.4 158.5 236.4 166.7 229.3 174.9 C 228.9 174.4 228.0 173.4 227.6 172.9 C 231.4 167.7 236.0 163.2 239.8 157.9 L 239.8 157.3 C 235.4 153.3 230.6 149.9 226.3 145.8 Z" />
<path fill="#f2cf83" stroke="#f2cf83" stroke-width="0.09375" opacity="1.00" d=" M 273.1 149.0 C 273.7 147.1 275.4 145.9 276.7 144.5 C 278.1 145.7 279.5 147.0 280.9 148.2 C 279.7 149.6 278.4 151.1 277.1 152.5 C 275.7 151.4 274.3 150.3 273.1 149.0 Z" />
<path fill="#edc87d" stroke="#edc87d" stroke-width="0.09375" opacity="1.00" d=" M 216.3 148.0 C 218.3 146.6 219.4 149.5 217.4 150.3 C 215.6 151.7 214.2 148.7 216.3 148.0 Z" />
<path fill="#f1cc82" stroke="#f1cc82" stroke-width="0.09375" opacity="1.00" d=" M 223.3 148.9 C 224.5 149.9 226.0 150.7 226.8 152.0 C 226.6 153.7 225.0 154.8 223.8 155.9 C 222.1 156.2 221.1 154.1 219.8 153.2 C 221.0 151.7 222.1 150.3 223.3 148.9 Z" />
<path fill="#f2ce83" stroke="#f2ce83" stroke-width="0.09375" opacity="1.00" d=" M 284.2 151.0 C 285.6 152.1 286.9 153.2 288.3 154.3 C 287.2 155.9 286.0 157.4 284.8 158.9 C 283.3 157.7 281.9 156.5 280.6 155.2 C 281.8 153.8 283.0 152.4 284.2 151.0 Z" />
<path fill="#f0cd81" stroke="#f0cd81" stroke-width="0.09375" opacity="1.00" d=" M 206.2 155.1 C 207.5 153.9 208.7 152.7 210.2 151.8 C 211.6 151.3 212.6 152.9 213.9 153.3 C 212.7 154.9 211.7 156.7 210.0 157.9 C 208.5 157.5 207.5 156.0 206.2 155.1 Z" />
<path fill="#f3cf83" stroke="#f3cf83" stroke-width="0.09375" opacity="1.00" d=" M 232.9 177.7 C 239.8 169.2 246.9 160.8 254.1 152.5 C 256.1 154.0 258.0 155.6 259.9 157.2 C 253.2 165.7 246.1 173.9 239.1 182.2 C 237.1 180.7 235.0 179.2 232.9 177.7 Z" />
<path fill="#f2ce82" stroke="#f2ce82" stroke-width="0.09375" opacity="1.00" d=" M 266.5 156.2 C 267.7 154.9 268.8 153.6 270.0 152.3 C 271.4 153.5 273.1 154.4 274.1 156.0 C 273.2 157.6 272.0 158.8 270.9 160.1 C 269.3 158.9 267.9 157.6 266.5 156.2 Z" />
<path fill="#f2cd82" stroke="#f2cd82" stroke-width="0.09375" opacity="1.00" d=" M 230.3 154.8 C 231.7 155.9 233.0 157.0 234.4 158.1 C 233.2 159.5 232.0 161.0 230.8 162.5 C 229.4 161.4 228.1 160.3 226.8 159.1 C 227.9 157.7 229.1 156.2 230.3 154.8 Z" />
<path fill="#f2cd82" stroke="#f2cd82" stroke-width="0.09375" opacity="1.00" d=" M 213.1 160.9 C 214.4 159.4 215.7 157.9 217.0 156.5 C 218.3 157.5 219.6 158.6 220.9 159.7 C 219.6 161.2 218.3 162.7 217.0 164.2 C 215.7 163.1 214.4 162.0 213.1 160.9 Z" />
<path fill="#f2ce82" stroke="#f2ce82" stroke-width="0.09375" opacity="1.00" d=" M 198.0 164.2 C 199.6 162.0 201.2 159.9 203.0 157.9 C 212.0 165.2 220.7 172.9 229.8 180.2 C 233.9 183.8 238.5 186.9 242.0 191.1 C 239.0 191.2 237.3 193.7 235.3 195.7 C 223.0 185.1 210.3 174.8 198.0 164.2 Z" />
<path fill="#f3cf83" stroke="#f3cf83" stroke-width="0.09375" opacity="1.00" d=" M 274.2 162.9 C 275.4 161.5 276.6 160.1 277.9 158.8 C 279.2 159.9 280.5 161.1 281.9 162.2 C 280.8 163.5 279.7 164.9 278.7 166.2 C 277.1 165.2 275.7 164.1 274.2 162.9 Z" />
<path fill="#f2ce82" stroke="#f2ce82" stroke-width="0.09375" opacity="1.00" d=" M 260.0 164.1 C 261.1 163.2 261.7 160.6 263.6 161.4 C 265.3 163.3 266.8 165.6 264.9 167.9 C 263.2 166.8 261.5 165.5 260.0 164.1 Z" />
<path fill="#f2cd82" stroke="#f2cd82" stroke-width="0.09375" opacity="1.00" d=" M 220.2 166.8 C 221.4 165.4 222.7 163.9 224.0 162.5 C 225.3 163.4 226.7 164.4 228.0 165.4 C 227.0 167.2 225.6 168.7 224.1 170.2 C 222.8 169.1 221.5 167.9 220.2 166.8 Z" />
<path fill="#eeca7f" stroke="#eeca7f" stroke-width="0.09375" opacity="1.00" d=" M 272.3 167.4 C 273.8 167.0 275.8 169.4 274.8 170.8 C 273.1 171.6 271.8 168.7 272.3 167.4 Z" />
<path fill="#f2cd82" stroke="#f2cd82" stroke-width="0.09375" opacity="1.00" d=" M 196.0 168.0 C 203.3 174.1 210.6 180.1 217.8 186.2 C 219.6 187.2 217.8 188.7 217.0 189.6 C 211.6 185.5 206.9 180.7 201.4 176.9 C 198.4 180.6 195.3 184.3 192.2 187.9 C 191.9 181.1 193.1 174.2 196.0 168.0 Z" />
<path fill="#f3cf83" stroke="#f3cf83" stroke-width="0.09375" opacity="1.00" d=" M 253.6 171.9 C 254.7 170.4 255.9 169.0 257.1 167.6 C 258.6 168.7 260.1 169.9 261.6 171.1 C 260.4 172.6 259.2 174.0 258.0 175.4 C 256.5 174.3 255.1 173.1 253.6 171.9 Z" />
<path fill="#c5a86a" stroke="#c5a86a" stroke-width="0.09375" opacity="1.00" d=" M 268.3 170.3 C 268.8 170.9 268.8 170.9 268.3 170.3 Z" />
<path fill="#f2cf83" stroke="#f2cf83" stroke-width="0.09375" opacity="1.00" d=" M 261.4 178.2 C 262.6 176.8 263.8 175.4 265.0 174.0 C 266.3 175.1 267.7 176.2 269.1 177.3 C 268.0 178.8 266.8 180.3 265.7 181.8 C 264.2 180.7 262.8 179.5 261.4 178.2 Z" />
<path fill="#f3cf83" stroke="#f3cf83" stroke-width="0.09375" opacity="1.00" d=" M 247.2 179.3 C 248.4 177.9 249.6 176.6 250.8 175.2 C 252.2 176.4 253.7 177.6 255.1 178.9 C 254.0 180.3 252.8 181.7 251.7 183.1 C 250.2 181.9 248.6 180.6 247.2 179.3 Z" />
<path fill="#f3cf83" stroke="#f3cf83" stroke-width="0.09375" opacity="1.00" d=" M 258.3 181.8 C 259.9 182.8 261.3 183.9 262.8 185.1 C 261.6 186.5 260.3 188.0 259.0 189.4 C 257.7 188.2 256.3 187.1 255.0 185.9 C 256.1 184.5 257.2 183.1 258.3 181.8 Z" />
<path fill="#f3cf83" stroke="#f3cf83" stroke-width="0.09375" opacity="1.00" d=" M 263.5 191.4 C 266.0 187.8 268.7 184.4 271.9 181.5 C 272.0 184.8 272.0 188.1 272.0 191.4 C 269.2 191.5 266.3 191.5 263.5 191.4 Z" />
<path fill="#f1cc82" stroke="#f1cc82" stroke-width="0.09375" opacity="1.00" d=" M 202.1 182.9 C 203.5 184.0 204.9 185.2 206.3 186.3 C 205.4 187.7 204.3 189.0 203.1 190.2 C 201.8 189.0 200.4 187.9 199.0 186.7 C 200.0 185.5 201.0 184.2 202.1 182.9 Z" />
<path fill="#f3cf83" stroke="#f3cf83" stroke-width="0.09375" opacity="1.00" d=" M 244.3 182.8 C 247.6 185.6 251.5 188.0 254.1 191.7 C 249.0 192.4 245.9 187.9 242.5 185.1 C 242.9 184.5 243.8 183.4 244.3 182.8 Z" />
<path fill="#d9b46c" stroke="#d9b46c" stroke-width="0.09375" opacity="1.00" d=" M 195.4 190.3 C 196.3 188.9 198.5 190.7 197.5 191.9 C 196.5 193.2 194.3 191.6 195.4 190.3 Z" />
<path fill="#ebc97f" stroke="#ebc97f" stroke-width="0.09375" opacity="1.00" d=" M 209.2 190.2 C 212.2 188.6 209.5 193.6 209.2 190.2 Z" />
<path fill="#816e45" stroke="#816e45" stroke-width="0.09375" opacity="1.00" d=" M 222.1 190.1 C 223.4 189.5 224.4 191.9 222.9 192.2 C 221.5 192.7 220.5 190.4 222.1 190.1 Z" />
<path fill="#e4bf76" stroke="#e4bf76" stroke-width="0.09375" opacity="1.00" d=" M 195.6 195.2 C 196.5 194.0 199.3 194.9 198.4 196.5 C 197.6 198.0 194.7 196.8 195.6 195.2 Z" />
<path fill="#74633e" stroke="#74633e" stroke-width="0.09375" opacity="1.00" d=" M 210.1 195.2 C 211.5 194.7 212.0 195.2 211.5 196.6 C 210.1 197.1 209.6 196.6 210.1 195.2 Z" />
<path fill="#f2ce82" stroke="#f2ce82" stroke-width="0.09375" opacity="1.00" d=" M 255.0 195.4 C 256.6 195.4 258.2 195.4 259.8 195.5 C 260.0 197.0 260.1 198.6 260.2 200.1 C 258.4 198.7 256.6 197.1 255.0 195.4 Z" />
<path fill="#f3cf83" stroke="#f3cf83" stroke-width="0.09375" opacity="1.00" d=" M 206.7 208.7 C 210.5 204.4 214.2 199.9 218.0 195.5 C 221.2 195.5 224.4 195.5 227.6 195.6 C 225.3 199.2 222.3 202.3 219.6 205.6 C 214.0 212.1 208.8 218.9 203.0 225.3 C 203.2 221.2 203.6 217.1 204.2 213.1 C 204.3 211.3 205.7 210.1 206.7 208.7 Z" />
<path fill="#f3cf83" stroke="#f3cf83" stroke-width="0.09375" opacity="1.00" d=" M 236.3 195.7 C 240.1 195.6 244.0 195.1 247.8 195.8 C 252.1 199.3 256.4 202.9 260.5 206.5 C 261.8 209.9 261.5 213.7 262.0 217.3 C 256.9 213.6 252.3 209.4 247.5 205.5 C 243.8 202.2 239.7 199.4 236.3 195.7 Z" />
<path fill="#f2ce82" stroke="#f2ce82" stroke-width="0.09375" opacity="1.00" d=" M 190.2 197.1 C 191.6 198.3 193.1 199.6 194.4 200.9 C 193.4 202.1 192.3 203.3 191.2 204.5 C 189.8 203.4 188.4 202.2 187.1 201.0 C 188.1 199.7 189.2 198.4 190.2 197.1 Z" />
<path fill="#f2cd82" stroke="#f2cd82" stroke-width="0.09375" opacity="1.00" d=" M 203.6 231.5 C 213.0 220.4 222.2 209.0 231.8 198.0 C 232.2 198.5 233.0 199.5 233.4 200.0 C 229.4 205.1 225.0 209.9 220.9 215.1 C 235.2 227.2 249.6 239.1 263.9 251.2 C 264.8 251.9 265.7 252.8 265.6 254.1 C 266.6 263.6 267.6 273.0 268.4 282.4 C 258.9 282.5 249.3 282.6 239.8 282.4 C 239.7 273.2 239.7 263.9 239.8 254.7 C 234.2 254.3 228.6 254.5 223.0 254.6 C 223.0 263.9 223.0 273.1 223.0 282.4 C 214.2 282.6 205.4 282.5 196.6 282.5 C 197.9 268.3 199.7 254.1 201.2 240.0 C 201.6 237.1 201.3 233.7 203.6 231.5 Z" />
<path fill="#635435" stroke="#635435" stroke-width="0.09375" opacity="1.00" d=" M 201.0 199.3 C 204.4 199.4 199.5 202.3 201.0 199.3 Z" />
<path fill="#eeca7f" stroke="#eeca7f" stroke-width="0.09375" opacity="1.00" d=" M 205.6 199.3 C 206.6 199.1 207.4 199.3 208.2 200.1 C 207.2 201.1 206.2 202.1 205.2 203.1 C 205.3 201.9 205.4 200.6 205.6 199.3 Z" />
<path fill="#f2ce83" stroke="#f2ce83" stroke-width="0.09375" opacity="1.00" d=" M 237.1 202.9 C 238.5 204.0 239.8 205.1 241.2 206.2 C 240.1 207.6 239.0 209.0 237.9 210.4 C 236.5 209.4 234.7 208.6 233.9 207.0 C 234.8 205.5 236.0 204.2 237.1 202.9 Z" />
<path fill="#f2cf83" stroke="#f2cf83" stroke-width="0.09375" opacity="1.00" d=" M 194.7 207.6 C 195.6 206.2 196.7 204.8 197.9 203.6 C 198.9 204.5 199.9 205.3 200.8 206.3 C 201.1 208.1 200.1 209.6 199.1 211.0 C 197.7 209.9 196.2 208.8 194.7 207.6 Z" />
<path fill="#f3cf83" stroke="#f3cf83" stroke-width="0.09375" opacity="1.00" d=" M 181.0 208.1 C 182.0 206.9 183.1 205.6 184.2 204.4 C 185.6 205.5 187.1 206.7 188.4 208.0 C 187.4 209.2 186.3 210.5 185.2 211.8 C 183.8 210.6 182.4 209.3 181.0 208.1 Z" />
<path fill="#f2ce83" stroke="#f2ce83" stroke-width="0.09375" opacity="1.00" d=" M 241.2 213.4 C 242.4 212.0 243.6 210.7 244.9 209.3 C 246.3 210.5 247.8 211.8 249.2 213.0 C 248.1 214.4 246.9 215.8 245.8 217.2 C 244.2 216.0 242.7 214.7 241.2 213.4 Z" />
<path fill="#f2ce83" stroke="#f2ce83" stroke-width="0.09375" opacity="1.00" d=" M 188.7 214.7 C 189.7 213.3 190.8 212.0 191.8 210.8 C 193.3 211.9 194.7 213.1 196.1 214.3 C 195.1 215.5 194.1 216.8 193.0 218.1 C 191.6 216.9 190.2 215.8 188.7 214.7 Z" />
<path fill="#f3cf83" stroke="#f3cf83" stroke-width="0.09375" opacity="1.00" d=" M 230.4 210.8 C 231.9 211.8 233.3 212.8 234.7 214.0 C 233.7 215.4 232.7 216.7 231.6 218.0 C 230.1 216.9 228.7 215.7 227.5 214.3 C 228.4 213.1 229.4 212.0 230.4 210.8 Z" />
<path fill="#f3cf83" stroke="#f3cf83" stroke-width="0.09375" opacity="1.00" d=" M 175.1 215.1 C 176.1 213.9 177.1 212.8 178.1 211.7 C 179.6 212.8 181.0 213.9 182.4 215.1 C 181.4 216.3 180.3 217.6 179.3 218.9 C 177.9 217.6 176.5 216.3 175.1 215.1 Z" />
<path fill="#f3cf83" stroke="#f3cf83" stroke-width="0.09375" opacity="1.00" d=" M 265.6 211.1 C 270.4 214.3 274.5 218.4 279.0 222.0 C 285.2 227.3 291.6 232.4 297.7 237.9 C 296.1 239.7 294.6 241.6 293.0 243.4 C 284.1 236.1 275.2 228.9 266.7 221.3 C 265.8 218.0 265.8 214.5 265.6 211.1 Z" />
<path fill="#f3cf83" stroke="#f3cf83" stroke-width="0.09375" opacity="1.00" d=" M 249.3 220.1 C 250.5 218.7 251.7 217.4 252.8 216.0 C 254.2 217.1 255.6 218.2 257.0 219.3 C 255.9 220.7 255.0 222.2 253.8 223.5 C 251.9 223.2 250.8 221.2 249.3 220.1 Z" />
<path fill="#f3cf83" stroke="#f3cf83" stroke-width="0.09375" opacity="1.00" d=" M 177.6 243.2 C 185.0 234.6 192.3 225.8 199.7 217.2 C 199.1 221.5 198.9 225.9 198.2 230.2 C 198.1 231.5 197.1 232.4 196.4 233.4 C 192.2 238.4 188.0 243.4 183.8 248.4 C 181.5 247.0 179.4 245.3 177.6 243.2 Z" />
<path fill="#f2ce83" stroke="#f2ce83" stroke-width="0.09375" opacity="1.00" d=" M 238.2 217.0 C 239.8 218.3 241.3 219.6 242.8 220.9 C 241.6 222.2 240.5 223.4 239.3 224.7 C 237.9 223.4 236.5 222.2 235.1 221.0 C 236.1 219.6 237.2 218.3 238.2 217.0 Z" />
<path fill="#f3cf83" stroke="#f3cf83" stroke-width="0.09375" opacity="1.00" d=" M 182.8 221.7 C 183.8 220.4 184.8 219.2 185.9 217.9 C 187.3 219.0 188.7 220.2 190.1 221.3 C 189.2 222.6 188.2 223.9 187.1 225.1 C 185.7 224.0 184.2 222.8 182.8 221.7 Z" />
<path fill="#f3cf83" stroke="#f3cf83" stroke-width="0.09375" opacity="1.00" d=" M 169.0 222.7 C 170.0 221.3 171.1 220.0 172.1 218.7 C 173.6 219.7 175.0 220.9 176.5 222.0 C 175.5 223.3 174.6 224.6 173.7 225.9 C 172.1 224.9 170.6 223.8 169.0 222.7 Z" />
<path fill="#f2cf83" stroke="#f2cf83" stroke-width="0.09375" opacity="1.00" d=" M 257.0 226.8 C 258.2 225.3 259.5 223.8 260.9 222.4 C 263.3 224.3 263.7 228.0 261.9 230.4 C 260.2 229.3 258.6 228.1 257.0 226.8 Z" />
<path fill="#f2cf83" stroke="#f2cf83" stroke-width="0.09375" opacity="1.00" d=" M 246.2 223.8 C 247.6 224.9 249.1 226.0 250.5 227.1 C 249.6 228.5 248.7 229.9 247.7 231.3 C 246.1 230.2 244.5 229.0 243.0 227.8 C 244.1 226.5 245.1 225.1 246.2 223.8 Z" />
<path fill="#f2ce83" stroke="#f2ce83" stroke-width="0.09375" opacity="1.00" d=" M 176.7 228.9 C 177.8 227.6 178.8 226.3 179.9 224.9 C 181.3 226.1 182.8 227.2 184.2 228.3 C 183.2 229.7 182.1 231.1 181.1 232.4 C 179.6 231.2 178.2 230.1 176.7 228.9 Z" />
<path fill="#f3cf83" stroke="#f3cf83" stroke-width="0.09375" opacity="1.00" d=" M 166.2 225.8 C 167.6 226.9 169.0 228.0 170.4 229.1 C 169.2 230.9 168.0 232.5 166.7 234.2 C 165.2 233.1 163.7 231.9 162.2 230.8 C 163.5 229.1 164.8 227.4 166.2 225.8 Z" />
<path fill="#f3cf83" stroke="#f3cf83" stroke-width="0.09375" opacity="1.00" d=" M 267.9 229.0 C 269.7 230.1 271.3 231.4 272.9 232.8 C 271.6 234.2 270.3 235.6 269.0 237.0 C 267.2 234.7 267.5 231.7 267.9 229.0 Z" />
<path fill="#f3cf83" stroke="#f3cf83" stroke-width="0.09375" opacity="1.00" d=" M 251.0 234.6 C 252.0 233.1 253.0 231.7 254.1 230.3 C 255.6 231.5 257.0 232.7 258.5 234.0 C 257.4 235.3 256.3 236.6 255.2 237.8 C 253.8 236.7 252.4 235.6 251.0 234.6 Z" />
<path fill="#f3cf83" stroke="#f3cf83" stroke-width="0.09375" opacity="1.00" d=" M 169.8 237.0 C 171.2 235.4 172.6 233.8 174.0 232.2 C 175.4 233.4 176.8 234.6 178.2 235.9 C 176.8 237.4 175.5 239.0 174.1 240.5 C 172.7 239.3 171.2 238.2 169.8 237.0 Z" />
<path fill="#f2ce82" stroke="#f2ce82" stroke-width="0.09375" opacity="1.00" d=" M 276.2 235.7 C 277.9 236.9 279.5 238.2 280.9 239.7 C 279.7 241.0 278.4 242.3 277.2 243.6 C 275.7 242.4 274.3 241.2 272.9 240.0 C 274.0 238.5 275.1 237.1 276.2 235.7 Z" />
<path fill="#f3cf83" stroke="#f3cf83" stroke-width="0.09375" opacity="1.00" d=" M 258.8 241.0 C 259.9 239.6 261.0 238.2 262.1 236.9 C 264.6 238.4 264.7 241.5 264.1 244.1 C 261.9 243.9 260.4 242.3 258.8 241.0 Z" />
<path fill="#f2ce83" stroke="#f2ce83" stroke-width="0.09375" opacity="1.00" d=" M 280.9 246.7 C 282.0 245.2 283.3 243.8 284.7 242.5 C 286.4 244.0 288.2 245.5 289.9 247.0 C 288.8 248.4 287.7 249.8 286.6 251.2 C 284.6 249.8 282.7 248.3 280.9 246.7 Z" />
<path fill="#f3cf83" stroke="#f3cf83" stroke-width="0.09375" opacity="1.00" d=" M 268.9 243.6 C 271.0 244.2 272.6 245.7 274.3 247.1 C 273.3 248.4 272.3 249.9 271.0 251.0 C 268.1 250.0 269.3 245.9 268.9 243.6 Z" />
<path fill="#f2ce82" stroke="#f2ce82" stroke-width="0.09375" opacity="1.00" d=" M 274.6 254.1 C 275.7 252.8 276.8 251.5 277.9 250.2 C 279.8 251.7 281.6 253.3 283.4 254.9 C 282.3 256.2 281.2 257.5 280.0 258.8 C 278.2 257.3 276.4 255.7 274.6 254.1 Z" />
<path fill="#f3cf83" stroke="#f3cf83" stroke-width="0.09375" opacity="1.00" d=" M 227.0 258.6 C 229.9 258.4 232.9 258.4 235.8 258.7 C 235.7 266.6 235.7 274.4 235.8 282.3 C 232.9 282.5 229.9 282.6 227.0 282.4 C 227.0 274.5 227.0 266.5 227.0 258.6 Z" />
<path fill="#f2cd82" stroke="#f2cd82" stroke-width="0.09375" opacity="1.00" d=" M 48.4 333.4 C 56.3 325.7 69.4 324.3 78.7 330.3 C 86.2 334.8 90.5 343.2 91.1 351.7 C 96.4 351.8 101.7 351.8 107.0 351.7 C 107.7 344.9 110.1 338.0 115.4 333.4 C 123.1 326.0 135.8 324.3 145.1 329.9 C 152.9 334.2 157.7 342.9 158.1 351.7 C 167.6 351.8 177.1 351.8 186.6 351.8 C 187.0 344.8 189.8 337.8 195.1 333.1 C 202.5 326.3 214.0 324.5 223.0 329.1 C 231.6 333.1 237.2 342.3 237.4 351.8 C 242.9 351.8 248.4 351.8 253.8 351.8 C 254.3 345.1 256.7 338.4 261.8 333.8 C 268.6 326.9 279.6 324.6 288.6 328.4 C 298.0 332.0 304.6 341.6 304.6 351.7 C 314.3 351.8 324.1 351.7 333.8 351.8 C 334.2 345.3 336.6 338.9 341.2 334.2 C 347.9 327.3 358.7 324.6 367.8 328.1 C 377.6 331.5 384.4 341.4 384.6 351.7 C 390.0 351.8 395.4 351.8 400.9 351.8 C 401.5 345.1 403.8 338.4 408.8 333.8 C 414.9 327.8 424.2 325.1 432.5 327.4 C 437.1 328.6 441.1 331.3 444.6 334.4 C 444.7 335.9 444.8 337.5 444.8 339.1 C 441.5 335.7 437.9 332.2 433.2 330.7 C 427.6 328.6 421.2 329.2 415.7 331.6 C 421.2 331.7 426.9 332.2 431.4 335.7 C 436.7 339.3 439.6 345.4 440.2 351.6 C 441.7 351.8 443.2 352.0 444.7 352.3 C 444.6 353.8 444.6 355.3 444.5 356.8 C 440.3 357.4 436.2 357.2 432.0 357.2 C 319.7 357.2 207.3 357.3 95.0 357.2 C 67.4 357.1 39.8 357.5 12.3 357.1 C 12.2 355.3 12.2 353.6 12.2 351.9 C 21.5 351.6 30.7 351.8 39.9 351.8 C 40.7 344.9 43.1 338.0 48.4 333.4 M 268.8 331.7 C 273.5 331.8 278.5 331.9 282.6 334.5 C 288.9 337.9 292.7 344.7 293.2 351.8 C 295.9 351.8 298.5 351.8 301.1 351.8 C 301.4 343.0 295.7 334.6 287.6 331.3 C 281.6 328.7 274.7 329.0 268.8 331.7 M 349.3 331.2 L 349.0 331.8 C 354.1 331.5 359.4 332.2 363.7 335.2 C 369.4 338.8 372.5 345.3 373.2 351.8 C 375.8 351.8 378.5 351.8 381.1 351.8 C 381.4 341.9 374.2 332.8 364.8 330.3 C 359.7 328.7 354.3 329.6 349.3 331.2 M 55.4 331.6 C 60.4 331.7 65.7 332.1 69.9 335.1 C 75.6 338.7 78.9 345.1 79.4 351.7 C 82.0 351.8 84.6 351.8 87.2 351.8 C 87.3 348.1 86.5 344.5 84.7 341.2 C 79.4 331.1 65.8 326.4 55.4 331.6 M 122.4 331.6 C 126.5 331.8 130.7 331.8 134.3 333.7 C 141.4 336.9 146.1 344.1 146.5 351.7 C 149.2 351.8 152.0 351.9 154.7 351.4 C 154.1 348.2 153.7 344.9 152.2 341.9 C 147.1 331.3 133.0 326.3 122.4 331.6 M 201.7 331.6 C 206.9 331.7 212.3 332.1 216.6 335.3 C 222.3 338.9 225.3 345.3 226.0 351.7 C 228.6 351.8 231.3 351.8 233.9 351.7 C 233.7 348.0 233.0 344.2 231.1 340.9 C 225.6 330.8 212.0 326.5 201.7 331.6 Z" />
<path fill="#000000" stroke="#000000" stroke-width="0.09375" opacity="1.00" d=" M 268.8 331.7 C 274.7 329.0 281.6 328.7 287.6 331.3 C 295.7 334.6 301.4 343.0 301.1 351.8 C 298.5 351.8 295.9 351.8 293.2 351.8 C 292.7 344.7 288.9 337.9 282.6 334.5 C 278.5 331.9 273.5 331.8 268.8 331.7 Z" />
<path fill="#000000" stroke="#000000" stroke-width="0.09375" opacity="1.00" d=" M 349.3 331.2 C 354.3 329.6 359.7 328.7 364.8 330.3 C 374.2 332.8 381.4 341.9 381.1 351.8 C 378.5 351.8 375.8 351.8 373.2 351.8 C 372.5 345.3 369.4 338.8 363.7 335.2 C 359.4 332.2 354.1 331.5 349.0 331.8 L 349.3 331.2 Z" />
<path fill="#000000" stroke="#000000" stroke-width="0.09375" opacity="1.00" d=" M 55.4 331.6 C 65.8 326.4 79.4 331.1 84.7 341.2 C 86.5 344.5 87.3 348.1 87.2 351.8 C 84.6 351.8 82.0 351.8 79.4 351.7 C 78.9 345.1 75.6 338.7 69.9 335.1 C 65.7 332.1 60.4 331.7 55.4 331.6 Z" />
<path fill="#000000" stroke="#000000" stroke-width="0.09375" opacity="1.00" d=" M 122.4 331.6 C 133.0 326.3 147.1 331.3 152.2 341.9 C 153.7 344.9 154.1 348.2 154.7 351.4 C 152.0 351.9 149.2 351.8 146.5 351.7 C 146.1 344.1 141.4 336.9 134.3 333.7 C 130.7 331.8 126.5 331.8 122.4 331.6 Z" />
<path fill="#000000" stroke="#000000" stroke-width="0.09375" opacity="1.00" d=" M 201.7 331.6 C 212.0 326.5 225.6 330.8 231.1 340.9 C 233.0 344.2 233.7 348.0 233.9 351.7 C 231.3 351.8 228.6 351.8 226.0 351.7 C 225.3 345.3 222.3 338.9 216.6 335.3 C 212.3 332.1 206.9 331.7 201.7 331.6 Z" />
<path fill="#f2cd82" stroke="#f2cd82" stroke-width="0.09375" opacity="1.00" d=" M 150.4 368.1 C 163.2 367.9 176.0 367.9 188.8 368.1 C 191.2 380.5 193.5 392.9 196.2 405.3 C 198.0 402.3 199.4 399.1 201.2 396.2 C 208.7 384.6 220.8 376.1 234.4 373.3 C 250.5 369.6 268.2 374.4 280.6 385.4 C 291.3 394.8 298.2 408.6 298.8 422.9 C 299.3 431.0 297.6 439.1 294.3 446.5 C 296.7 446.8 299.0 446.9 301.4 446.9 C 301.7 420.6 301.5 394.4 301.4 368.2 C 314.3 367.9 327.1 368.1 339.9 368.1 C 342.3 380.2 344.4 392.3 347.1 404.3 C 348.6 402.3 349.8 400.1 351.0 397.9 C 359.9 383.0 376.5 373.0 393.9 372.2 C 411.5 371.1 429.0 379.9 439.5 393.9 C 439.3 395.3 439.1 396.8 438.8 398.2 C 434.8 393.8 431.4 388.9 426.5 385.5 C 412.7 374.7 392.8 372.0 376.9 379.5 C 389.3 379.9 401.6 384.8 410.2 393.8 C 421.0 404.5 426.0 420.7 422.7 435.6 C 421.8 439.6 420.0 443.3 419.4 447.3 C 418.9 449.6 417.6 451.6 416.5 453.6 C 397.6 486.4 370.0 514.2 337.3 533.2 C 303.5 553.0 264.2 563.5 225.0 562.6 C 166.3 562.1 108.7 535.6 69.3 492.3 C 74.6 489.6 79.1 485.5 83.8 481.8 C 95.6 473.3 106.8 464.1 118.6 455.6 C 122.3 452.9 125.9 450.0 129.2 446.8 C 132.4 446.8 135.5 446.8 138.7 446.7 C 140.2 443.2 141.6 439.6 142.5 435.9 C 144.0 434.9 145.5 433.9 147.0 432.9 C 146.7 437.7 144.9 442.3 143.2 446.8 C 145.6 446.8 148.0 446.8 150.3 446.8 C 150.7 420.6 150.5 394.3 150.4 368.1 M 154.4 371.8 C 160.1 396.8 166.0 421.8 172.0 446.8 C 181.3 446.8 190.6 446.7 200.0 446.8 C 195.0 421.8 189.5 397.0 184.6 372.0 C 174.5 371.4 164.5 371.9 154.4 371.8 M 305.5 371.8 C 311.2 396.8 317.1 421.8 323.1 446.8 C 332.4 446.8 341.8 446.8 351.1 446.8 C 346.3 421.8 340.7 396.9 335.7 371.9 C 325.7 371.4 315.6 371.8 305.5 371.8 M 225.8 379.6 C 247.1 379.4 267.1 395.4 271.5 416.2 C 274.1 426.5 272.1 437.2 268.0 446.8 C 275.3 446.8 282.6 446.8 289.9 446.8 C 296.4 433.3 296.5 416.7 289.8 403.2 C 284.4 391.9 274.4 382.8 262.6 378.4 C 250.8 374.1 237.3 374.2 225.8 379.6 M 154.7 389.9 C 154.8 408.9 154.8 427.8 154.6 446.7 C 158.8 446.8 163.0 446.8 167.1 446.7 C 166.6 442.2 165.4 437.9 164.5 433.5 C 161.1 419.0 158.5 404.3 154.7 389.9 M 306.0 391.5 C 305.4 396.3 305.8 401.2 305.7 406.0 C 305.8 419.6 305.5 433.2 305.8 446.8 C 310.0 446.8 314.2 446.8 318.4 446.8 C 315.6 431.4 311.7 416.1 308.5 400.7 C 307.8 397.7 307.6 394.4 306.0 391.5 Z" />
<path fill="#f1cd81" stroke="#f1cd81" stroke-width="0.09375" opacity="1.00" d=" M 80.2 374.0 C 95.1 369.7 111.8 372.6 124.5 381.5 C 140.7 392.6 150.6 413.3 147.0 432.9 C 145.5 433.9 144.0 434.9 142.5 435.9 C 144.3 426.5 143.9 416.6 140.5 407.6 C 135.0 392.5 121.7 380.7 106.2 376.8 C 95.8 374.1 84.5 375.0 74.8 379.5 C 87.2 379.9 99.5 384.8 108.2 393.8 C 117.9 403.7 123.0 418.1 121.1 432.0 C 120.5 437.1 118.6 441.9 116.9 446.7 C 121.0 446.8 125.1 446.8 129.2 446.8 C 125.9 450.0 122.3 452.9 118.6 455.6 C 106.8 464.1 95.6 473.3 83.8 481.8 C 79.1 485.5 74.6 489.6 69.3 492.3 C 56.7 478.6 45.6 463.4 37.2 446.8 C 39.9 446.7 42.5 446.7 45.1 446.7 C 41.3 435.6 39.7 423.3 42.9 411.8 C 47.6 393.9 62.2 378.9 80.2 374.0 Z" />
<path fill="#000000" stroke="#000000" stroke-width="0.09375" opacity="1.00" d=" M 154.4 371.8 C 164.5 371.9 174.5 371.4 184.6 372.0 C 189.5 397.0 195.0 421.8 200.0 446.8 C 190.6 446.7 181.3 446.8 172.0 446.8 C 166.0 421.8 160.1 396.8 154.4 371.8 Z" />
<path fill="#000000" stroke="#000000" stroke-width="0.09375" opacity="1.00" d=" M 305.5 371.8 C 315.6 371.8 325.7 371.4 335.7 371.9 C 340.7 396.9 346.3 421.8 351.1 446.8 C 341.8 446.8 332.4 446.8 323.1 446.8 C 317.1 421.8 311.2 396.8 305.5 371.8 Z" />
<path fill="#000000" stroke="#000000" stroke-width="0.09375" opacity="1.00" d=" M 74.8 379.5 C 84.5 375.0 95.8 374.1 106.2 376.8 C 121.7 380.7 135.0 392.5 140.5 407.6 C 143.9 416.6 144.3 426.5 142.5 435.9 C 141.6 439.6 140.2 443.2 138.7 446.7 C 135.5 446.8 132.4 446.8 129.2 446.8 C 125.1 446.8 121.0 446.8 116.9 446.7 C 118.6 441.9 120.5 437.1 121.1 432.0 C 123.0 418.1 117.9 403.7 108.2 393.8 C 99.5 384.8 87.2 379.9 74.8 379.5 Z" />
<path fill="#000000" stroke="#000000" stroke-width="0.09375" opacity="1.00" d=" M 225.8 379.6 C 237.3 374.2 250.8 374.1 262.6 378.4 C 274.4 382.8 284.4 391.9 289.8 403.2 C 296.5 416.7 296.4 433.3 289.9 446.8 C 282.6 446.8 275.3 446.8 268.0 446.8 C 272.1 437.2 274.1 426.5 271.5 416.2 C 267.1 395.4 247.1 379.4 225.8 379.6 Z" />
<path fill="#000000" stroke="#000000" stroke-width="0.09375" opacity="1.00" d=" M 154.7 389.9 C 158.5 404.3 161.1 419.0 164.5 433.5 C 165.4 437.9 166.6 442.2 167.1 446.7 C 163.0 446.8 158.8 446.8 154.6 446.7 C 154.8 427.8 154.8 408.9 154.7 389.9 Z" />
<path fill="#000000" stroke="#000000" stroke-width="0.09375" opacity="1.00" d=" M 306.0 391.5 C 307.6 394.4 307.8 397.7 308.5 400.7 C 311.7 416.1 315.6 431.4 318.4 446.8 C 314.2 446.8 310.0 446.8 305.8 446.8 C 305.5 433.2 305.8 419.6 305.7 406.0 C 305.8 401.2 305.4 396.3 306.0 391.5 Z" />
</svg>
