<?xml version="1.0" encoding="UTF-8" standalone="no"?>
<svg
   xmlns:dc="http://purl.org/dc/elements/1.1/"
   xmlns:cc="http://creativecommons.org/ns#"
   xmlns:rdf="http://www.w3.org/1999/02/22-rdf-syntax-ns#"
   xmlns:svg="http://www.w3.org/2000/svg"
   xmlns="http://www.w3.org/2000/svg"
   id="svg2"
   width="522.66669"
   height="617.59998"
   version="1.0"
   viewBox="0 0 490 579">
  <metadata
     id="metadata7">
    <rdf:RDF>
      <cc:Work
         rdf:about="">
        <dc:format>image/svg+xml</dc:format>
        <dc:type
           rdf:resource="http://purl.org/dc/dcmitype/StillImage" />
        <dc:title></dc:title>
      </cc:Work>
    </rdf:RDF>
  </metadata>
  <defs
     id="defs5" />
  <path
     style="fill:#0b4da2;fill-opacity:1;stroke:#000000;stroke-opacity:1;stroke-width:5.625"
     d="m 279.4582,565.52712 c 77.8665,-12.0475 142.93784,-59.83571 177.19663,-130.1327 11.80918,-24.23173 19.4576,-50.51661 22.29065,-76.60501 0.6969,-6.41744 1.05452,-67.0368 1.05452,-178.75 V 11 H 246.5 13 v 169.03941 c 0,111.7132 0.357617,172.33256 1.054516,178.75 5.767951,53.11459 31.208743,105.13113 69.577664,142.25931 40.24364,38.94228 87.18506,60.29372 145.86782,66.34839 8.06957,0.83259 40.28429,-0.37324 49.9582,-1.86999 z"
     id="path2446" />
  <path
     style="fill:none;fill-opacity:1;stroke:#000000;stroke-width:2.8125;stroke-linecap:butt;stroke-linejoin:miter;stroke-opacity:1"
     d="m 186.86828,157.1521 c 0,0 20.9875,3.50382 58.52548,4.0532 37.52528,0.54919 60.93986,-3.69248 60.93986,-3.69248"
     id="path111" />
  <ellipse
     style="opacity:0.990506;fill:#dcddde;fill-opacity:1;stroke-width:2.48869;stop-color:#000000"
     id="path26-4"
     cx="247.39374"
     cy="157.41006"
     rx="56.437447"
     ry="2.8062825" />
  <path
     id="path43"
     style="fill:#dcddde;fill-opacity:1;stroke:#1a1a1a;stroke-width:2.8125;stroke-linecap:butt;stroke-linejoin:miter;stroke-opacity:1"
     d="m 246.27685,39.911499 c -3.80481,8.817954 -9.22038,17.635295 -6.77673,26.453247 -7.24134,1.275497 -12.28575,7.692535 -13.64684,11.900025 0,0 7.67533,-0.817774 10.21178,2.493896 2.44722,3.19515 3.48848,13.244692 2.47559,17.149661 -1.66362,6.413672 -4.37407,11.505382 -10.82886,12.784422 -3.16815,0.62777 -7.08031,-2.06597 -7.42676,-5.3009 -0.44074,-4.11535 2.86103,-7.369409 7.11731,-8.419194 -3.39138,-5.366419 -5.89902,-9.427488 -11.44958,-9.666138 0.14113,-6.9285 -7.4182,-19.982114 -12.995,-23.69751 -2.17158,6.21054 -4.71795,19.683955 -4.02282,28.062745 -3.30188,1.191799 -5.77007,4.954038 -7.42676,10.290527 1.08851,-1.09691 11.73343,-0.22092 10.83068,4.67652 -0.63734,3.45783 -3.46956,7.99517 -5.87951,8.73047 -4.34458,1.32556 -9.41572,-3.35555 -11.13831,-7.48353 -3.17828,-7.6164 -8.30163,-21.269837 4.64173,-24.320066 -3.71307,-5.76282 -9.59332,-10.265528 -14.54407,-9.354859 0,0 -5.25631,-9.439428 -9.90052,-13.095703 -3.52128,-2.772229 -12.68737,-4.365234 -12.68737,-4.365234 14.68268,37.468778 32.02821,68.889482 34.03747,100.402222 37.42923,-5.72341 82.78859,-6.79088 119.46534,0.36072 2.00926,-31.51274 19.35481,-62.933442 34.03747,-100.402224 0,0 -9.16608,1.593003 -12.68737,4.365234 -4.64421,3.656273 -9.90052,13.095703 -9.90052,13.095703 -4.95076,-0.910674 -10.82917,3.592038 -14.54223,9.354858 12.94335,3.050231 7.82058,16.705079 4.64172,24.321899 -1.72296,4.12837 -6.79555,8.80909 -11.14014,7.48353 -2.40993,-0.7353 -5.24031,-5.27264 -5.87768,-8.73047 -0.90273,-4.89744 9.74034,-5.77528 10.82886,-4.67835 -1.6567,-5.336506 -4.12489,-9.096898 -7.42676,-10.288698 0.69511,-8.37879 -1.85125,-21.852206 -4.02283,-28.062744 -5.57681,3.715395 -13.13614,16.769009 -12.995,23.697509 -5.55056,0.23864 -8.05636,4.299726 -11.44775,9.666139 4.25629,1.049775 7.55622,4.302024 7.11548,8.417354 -0.34645,3.23496 -4.25862,5.92867 -7.42676,5.30091 -6.45481,-1.27905 -9.16523,-6.37075 -10.82886,-12.784429 -1.01288,-3.90496 0.0284,-13.954516 2.47559,-17.149656 2.53646,-3.31168 10.21177,-2.493896 10.2118,-2.493896 -1.36109,-4.207483 -6.40368,-10.622697 -13.64502,-11.898194 1.52341,-5.497253 -0.008,-10.995057 -2.29981,-16.49231 -0.77796,-2.434683 -1.87505,-4.959573 -3.42407,-7.611694 -0.35685,-0.783475 -0.7148,-1.565768 -1.05286,-2.349243 -0.0735,0.107615 -0.13494,0.211428 -0.20691,0.318603 -0.14989,-0.227719 -0.28615,-0.451439 -0.44312,-0.681152 z m 0.35578,73.271491 7.74719,10.93139 h -15.21789 z m -34.60199,1.875 9.35303,9.04174 -13.47474,2.25037 z m 68.54553,0.0878 4.12354,11.29211 -13.47656,-2.25036 z" />
  <path
     id="path2436"
     d="m 272.66228,484.75 c -0.27741,-0.6875 -0.50439,-0.125 -0.50439,1.25 0,1.375 0.22698,1.9375 0.50439,1.25 0.27741,-0.6875 0.27741,-1.8125 0,-2.5 z"
     style="fill:#000000" />
  <path
     id="path2434"
     d="m 220.60417,484.27083 c -0.3323,-0.33229 -0.56864,0.25834 -0.52522,1.3125 0.048,1.16495 0.28494,1.4019 0.60416,0.60417 0.28887,-0.72188 0.25335,-1.58438 -0.0789,-1.91667 z"
     style="fill:#000000" />
  <path
     d="m 257.13581,511.20656 c 18.8606,-9.82179 14.50123,-38.8072 -6.42704,-42.73337 -9.58786,-1.7987 -19.43068,2.92521 -24.14577,11.58839 -2.46645,4.53168 -2.73249,5.91103 -2.40207,12.45423 0.47055,9.31824 3.7304,14.51683 11.72034,18.69082 7.28066,3.80346 13.95072,3.80344 21.25454,-7e-5 z m -52.0646,-10.24289 c 4.64026,-2.36728 9.38289,-7.77954 10.93313,-12.47682 0.66883,-2.02657 1.03598,-6.51271 0.81589,-9.96919 -0.48028,-7.54264 -3.69039,-13.07982 -10.00574,-17.25912 C 203.12062,458.81405 201.71865,458.5 194.5,458.5 c -7.21865,0 -8.62062,0.31405 -12.31449,2.75854 -6.6755,4.41764 -9.59579,9.73449 -10.02601,18.25394 -0.39734,7.86854 0.87653,11.62602 5.70466,16.8268 6.86973,7.39994 18.0437,9.29918 27.20705,4.62439 z m 103.6104,0.18313 C 316.75971,496.99258 321,490.0636 321,481.01754 c 0,-9.93703 -4.23362,-17.02688 -12.48286,-20.90448 -10.0386,-4.7187 -22.6046,-1.37802 -28.96348,7.69996 -2.55062,3.64128 -3.07849,5.44837 -3.38927,11.60268 -0.27617,5.469 0.0605,8.13818 1.34791,10.68698 6.10079,12.07811 19.75251,16.91528 31.16931,11.04412 z M 161.12037,471.20578 c 12.60391,-6.58437 15.95292,-24.21909 6.61845,-34.85046 -8.70626,-9.91589 -23.92629,-10.70242 -33.18066,-1.71469 -4.95763,4.8148 -6.86582,9.48833 -6.88361,16.85937 -0.0422,17.48887 17.69026,27.93658 33.44582,19.70578 z m 190.16175,1.44576 C 360.05248,468.97629 365.33541,461.03188 365.3476,451.5 365.3702,433.86141 347.69227,423.00914 332,431.02825 c -16.06979,8.21204 -16.14966,31.83899 -0.13581,40.17831 6.06822,3.16007 13.92921,3.74504 19.41793,1.44498 z m -223.2044,-43.79297 c 9.3257,-2.79405 15.32576,-11.34918 15.38529,-21.93699 0.0316,-5.61401 -0.40669,-7.29606 -2.98945,-11.47356 -1.87587,-3.03415 -4.88743,-6.04571 -7.92158,-7.92158 -4.1775,-2.58276 -5.85955,-3.02102 -11.47356,-2.98945 -13.55525,0.0762 -23.111359,9.47667 -23.056458,22.68089 0.06473,15.56946 14.831688,26.20193 30.055758,21.64069 z m 252.7044,-0.40925 c 14.10195,-5.88175 18.7564,-24.07263 9.14171,-35.72834 -4.66278,-5.6526 -10.13375,-8.13975 -18.00225,-8.18399 -5.61401,-0.0316 -7.29606,0.40669 -11.47356,2.98945 -3.03415,1.87587 -6.04571,4.88743 -7.92158,7.92158 -5.73737,9.27996 -3.49513,22.50211 4.96003,29.24864 6.59543,5.26262 16.03113,6.7826 23.29565,3.75266 z M 121.13581,375.20656 c 11.17674,-5.82036 15.34789,-20.03519 9.19587,-31.33849 -8.53737,-15.68596 -31.185968,-15.57576 -39.768679,0.19351 -2.466448,4.53168 -2.732486,5.91103 -2.402069,12.45423 0.470549,9.31824 3.730398,14.51683 11.720335,18.69082 7.280663,3.80346 13.950723,3.80344 21.254543,-7e-5 z m 271.98292,7e-5 c 7.98994,-4.17399 11.24979,-9.37258 11.72034,-18.69082 0.33042,-6.5432 0.0644,-7.92255 -2.40207,-12.45423 -6.45502,-11.86 -21.35655,-15.52435 -32.66664,-8.03286 -14.08954,9.33252 -12.91211,31.36339 2.09383,39.17784 7.30382,3.80351 13.97388,3.80353 21.25454,7e-5 z M 130,323.91597 c 9.19178,-4.16716 13.42602,-10.76355 13.42602,-20.91597 0,-10.15242 -4.23424,-16.74881 -13.42602,-20.91597 -8.12,-3.68126 -17.07059,-2.28336 -24.14341,3.77072 -5.2667,4.50809 -7.812666,10.09534 -7.812666,17.14525 0,7.13047 2.555086,12.64496 8.030486,17.33169 6.97332,5.96891 15.76161,7.28548 23.92559,3.58428 z m 249.06535,1.08243 c 4.84838,-1.34686 11.80881,-7.51163 14.04852,-12.44259 1.0747,-2.36606 1.84221,-6.34725 1.84221,-9.55581 0,-16.54317 -17.02379,-27.68563 -31.95608,-20.91597 -9.19178,4.16716 -13.42602,10.76355 -13.42602,20.91597 0,10.15242 4.23424,16.74881 13.42602,20.91597 4.93125,2.23562 10.55113,2.61427 16.06535,1.08243 z M 156.49866,280.89602 c 5.5089,-1.38716 12.21021,-7.04534 14.61521,-12.34021 2.39169,-5.26557 2.39498,-13.8508 0.007,-19.05581 -5.57882,-12.16146 -19.16252,-16.84297 -31.19185,-10.75 -18.06598,9.1506 -16.24046,35.0104 2.95576,41.87038 4.51874,1.61482 8.01416,1.68559 13.61359,0.27564 z m 198.07089,-2.38391 c 11.14738,-6.5328 14.38485,-21.36942 7.05589,-32.33559 -9.01775,-13.49305 -29.65447,-13.38723 -38.05179,0.19513 -3.77241,6.10174 -4.62374,14.59019 -2.12064,21.14449 2.03415,5.32634 9.05216,11.86102 14.33519,13.34794 5.77639,1.62577 13.68349,0.63557 18.78135,-2.35197 z M 206.83166,248.7301 c 6.29871,-4.16829 9.50867,-9.71108 9.98857,-17.24776 0.47981,-7.53534 -0.98005,-12.45583 -5.08141,-17.12702 -8.55204,-9.74024 -23.46284,-10.41237 -33.0804,-1.49116 -9.2987,8.62543 -9.2987,24.51218 0,33.33068 4.67014,4.42896 9.03754,5.86229 16.93178,5.5568 5.77738,-0.22356 7.85885,-0.78303 11.24146,-3.02154 z m 100.45046,1.92144 c 8.87438,-3.71884 13.66023,-11.21466 13.69592,-21.4512 0.046,-13.20559 -9.34244,-22.58471 -22.51824,-22.49581 C 285.19381,206.79405 276,216.12526 276,229.5 c 0,9.26105 4.33436,16.47653 12.25165,20.39552 4.97731,2.46373 14.09128,2.8258 19.03047,0.75602 z m -50.14631,-11.44498 c 11.17674,-5.82036 15.34789,-20.03519 9.19587,-31.33849 -8.05615,-14.8018 -29.38665,-15.72082 -38.91018,-1.67642 -2.67234,3.94092 -2.9215,5.04723 -2.9215,12.97221 0,8.02219 0.22345,8.98179 3.01708,12.95663 6.66909,9.48896 19.23264,12.4947 29.61873,7.08607 z"
     style="fill:#d2ab67;fill-opacity:1;stroke:#000000;stroke-opacity:1;stroke-width:2.8125"
     id="path2442" />
  <path
     id="path2404"
     d="m 272.66228,222.75 c -0.27741,-0.6875 -0.50439,-0.125 -0.50439,1.25 0,1.375 0.22698,1.9375 0.50439,1.25 0.27741,-0.6875 0.27741,-1.8125 0,-2.5 z"
     style="fill:#000000" />
</svg>
