<?xml version="1.0" encoding="UTF-8" standalone="no"?>
<!-- Created with Inkscape (http://www.inkscape.org/) -->

<svg
   xmlns:dc="http://purl.org/dc/elements/1.1/"
   xmlns:cc="http://creativecommons.org/ns#"
   xmlns:rdf="http://www.w3.org/1999/02/22-rdf-syntax-ns#"
   xmlns:svg="http://www.w3.org/2000/svg"
   xmlns="http://www.w3.org/2000/svg"
   xmlns:sodipodi="http://sodipodi.sourceforge.net/DTD/sodipodi-0.dtd"
   xmlns:inkscape="http://www.inkscape.org/namespaces/inkscape"
   width="615"
   height="740.81799"
   id="svg2"
   version="1.1"
   inkscape:version="0.48.5 r10040"
   sodipodi:docname="Plungė.svg">
  <defs
     id="defs4" />
  <sodipodi:namedview
     id="base"
     pagecolor="#f6f3f1"
     bordercolor="#666666"
     borderopacity="1.0"
     inkscape:pageopacity="0"
     inkscape:pageshadow="2"
     inkscape:zoom="1"
     inkscape:cx="423.35022"
     inkscape:cy="352.80586"
     inkscape:document-units="px"
     inkscape:current-layer="layer1"
     showgrid="false"
     showborder="true"
     inkscape:window-width="1920"
     inkscape:window-height="1017"
     inkscape:window-x="-8"
     inkscape:window-y="-8"
     inkscape:window-maximized="1"
     inkscape:showpageshadow="false"
     fit-margin-top="0"
     fit-margin-left="0"
     fit-margin-right="0"
     fit-margin-bottom="0"
     showguides="true"
     inkscape:guide-bbox="true"
     inkscape:object-nodes="true"
     inkscape:snap-global="false" />
  <metadata
     id="metadata7">
    <rdf:RDF>
      <cc:Work
         rdf:about="">
        <dc:format>image/svg+xml</dc:format>
        <dc:type
           rdf:resource="http://purl.org/dc/dcmitype/StillImage" />
        <dc:title></dc:title>
      </cc:Work>
    </rdf:RDF>
  </metadata>
  <g
     inkscape:label="Layer 1"
     inkscape:groupmode="layer"
     id="layer1"
     transform="translate(-34,-145.36218)">
    <g
       id="g3944"
       style="fill:#00418f;fill-opacity:1">
      <path
         sodipodi:nodetypes="cszscc"
         inkscape:connector-curvature="0"
         id="path2993"
         d="m 37,148.36218 c 0,0 0,222 0,423 0,201 155.63604,311.81802 304.5,311.81802 148.86396,0 304.5,-110.81802 304.5,-311.81802 0,-201 0,-423 0,-423 z"
         style="color:#000000;fill:#00418f;stroke:#000000;stroke-width:6;stroke-linecap:butt;stroke-linejoin:miter;stroke-miterlimit:4;stroke-opacity:1;stroke-dasharray:none;stroke-dashoffset:0;marker:none;visibility:visible;display:inline;overflow:visible;enable-background:accumulate;fill-opacity:1" />
    </g>
    <g
       id="g4248"
       transform="translate(0.515625,0)">
      <path
         id="path4057"
         transform="translate(34,145.36218)"
         d="m 306.96875,37.3125 c -0.99268,0 -1.97913,0.02475 -2.96875,0.03125 l 0,87.8125 -20.78125,-87.1875 c -2.02888,0.108066 -4.05014,0.208529 -6.0625,0.34375 l 20.59375,86.25 -41.15625,-84.375 c -2.11253,0.245165 -4.22325,0.506165 -6.3125,0.78125 l 41.53125,85.125 L 228,44.53125 c -2.22339,0.422977 -4.43594,0.886425 -6.625,1.34375 l 62.4375,79.71875 -83.46875,-74.65625 c -2.30429,0.630859 -4.58913,1.267479 -6.84375,1.9375 l 84.59375,75.65625 -107.375,-67.875 c -2.32494,0.90085 -4.62336,1.804797 -6.875,2.75 l 109.84375,69.4375 -134.375,-57.4375 c -2.17628,1.239033 -4.30669,2.494537 -6.375,3.78125 L 266.53125,136.34375 112.0625,94.625 c -1.78942,1.590561 -3.51763,3.206283 -5.15625,4.84375 L 262.6875,141.5 91.71875,119.03125 c -1.068815,1.87243 -2.057978,3.74529 -2.9375,5.65625 l 172.4375,22.6875 -178.15625,0 c -0.05184,1.00067 -0.09375,1.99302 -0.09375,3 0,1.00698 0.04191,1.99933 0.09375,3 l 178.03125,0 -172.3125,22.65625 c 0.882575,1.91963 1.863934,3.80675 2.9375,5.6875 l 171.03125,-22.5 -155.84375,42.0625 c 1.62852,1.62737 3.34752,3.23145 5.125,4.8125 l 154.625,-41.75 -133.71875,57.21875 c 2.06083,1.28206 4.17573,2.54652 6.34375,3.78125 l 134.375,-57.4375 -109.84375,69.4375 c 2.2602,0.94909 4.57217,1.84561 6.90625,2.75 L 278.0625,172.21875 193.5,247.875 c 2.25462,0.67002 4.53946,1.30664 6.84375,1.9375 l 83.46875,-74.6875 -62.4375,79.75 c 2.18906,0.45732 4.40161,0.92077 6.625,1.34375 l 63.78125,-81.53125 -41.5,85.09375 c 2.08925,0.27509 4.19997,0.53609 6.3125,0.78125 L 297.75,176.15625 277.15625,262.4375 c 2.01236,0.13522 4.03362,0.23568 6.0625,0.34375 L 304,175.8125 l 0,87.59375 c 0.98962,0.007 1.97607,0.0312 2.96875,0.0312 1.00813,0 2.02627,-0.0245 3.03125,-0.0312 l 0,-87.59375 20.75,86.96875 c 2.03933,-0.10862 4.07111,-0.20769 6.09375,-0.34375 l -20.625,-86.3125 41.1875,84.4375 c 2.10217,-0.24412 4.20214,-0.5075 6.28125,-0.78125 L 322.15625,174.625 386,256.1875 c 2.21122,-0.42088 4.41649,-0.85764 6.59375,-1.3125 l -62.375,-79.6875 83.40625,74.625 c 2.30429,-0.63086 4.58913,-1.26748 6.84375,-1.9375 l -84.65625,-75.71875 107.46875,67.9375 c 2.32476,-0.90106 4.62355,-1.80458 6.875,-2.75 L 340.28125,167.875 474.6875,225.34375 c 2.17295,-1.23754 4.27848,-2.52742 6.34375,-3.8125 L 347.375,164.375 501.9375,206.09375 c 1.77748,-1.58105 3.49648,-3.18513 5.125,-4.8125 l -155.71875,-42.0625 170.90625,22.5 c 1.07357,-1.88075 2.05493,-3.76787 2.9375,-5.6875 L 352.875,153.375 l 178.03125,0 c 0.0518,-1.00067 0.0937,-1.99302 0.0937,-3 0,-1.00698 -0.0419,-1.99933 -0.0937,-3 l -178.15625,0 172.4375,-22.6875 c -0.87952,-1.91096 -1.86868,-3.78382 -2.9375,-5.65625 L 351.40625,141.5 507.0625,99.46875 c -1.63862,-1.637467 -3.36683,-3.253189 -5.15625,-4.84375 l -154.5625,41.75 133.6875,-57.15625 c -2.07275,-1.289734 -4.19379,-2.57066 -6.375,-3.8125 L 340.34375,132.8125 450.125,63.40625 c -2.24289,-0.941529 -4.52813,-1.852478 -6.84375,-2.75 l -107.4375,67.90625 84.625,-75.6875 c -2.25462,-0.670021 -4.53946,-1.306641 -6.84375,-1.9375 L 330.1875,125.59375 392.59375,45.875 C 390.41649,45.420141 388.21122,44.983382 386,44.5625 L 322.15625,126.125 363.6875,40.96875 C 361.60839,40.695 359.50842,40.431621 357.40625,40.1875 L 316.25,124.53125 336.84375,38.3125 c -2.02264,-0.136057 -4.05442,-0.235127 -6.09375,-0.34375 l -20.75,86.9375 0,-87.5625 c -1.00498,-0.0067 -2.02312,-0.03125 -3.03125,-0.03125 z"
         style="font-size:medium;font-style:normal;font-variant:normal;font-weight:normal;font-stretch:normal;text-indent:0;text-align:start;text-decoration:none;line-height:normal;letter-spacing:normal;word-spacing:normal;text-transform:none;direction:ltr;block-progression:tb;writing-mode:lr-tb;text-anchor:start;baseline-shift:baseline;color:#000000;fill:#d7b369;fill-opacity:1;stroke:#000000;stroke-width:2;stroke-miterlimit:4;stroke-dasharray:none;marker:none;visibility:visible;display:inline;overflow:visible;enable-background:accumulate;font-family:Sans;-inkscape-font-specification:Sans"
         inkscape:connector-curvature="0" />
      <g
         id="g4049">
        <path
           style="color:#000000;fill:#d7b369;fill-opacity:1;stroke:#000000;stroke-width:3.00000024;stroke-linecap:butt;stroke-linejoin:miter;stroke-miterlimit:4;stroke-opacity:1;stroke-dasharray:none;stroke-dashoffset:0;marker:none;visibility:visible;display:inline;overflow:visible;enable-background:accumulate"
           d="m 249.56776,331.69683 91.42381,-110.69099 91.42382,110.69099 z"
           id="path4024"
           inkscape:connector-curvature="0"
           sodipodi:nodetypes="cccc" />
        <g
           id="g4043">
          <path
             sodipodi:nodetypes="sscsscsscscscsscsssccccccccccccscsccs"
             inkscape:connector-curvature="0"
             id="path4026"
             d="m 324,264.29968 c 3.18326,-1.52797 8.18699,-3.09375 15.46875,-3.09375 14.31353,0 25.50552,8.71365 30.625,12.0625 -1.25552,-4.15115 -15.24005,-14.0625 -30.625,-14.0625 -7.56748,0 -12.89789,1.62723 -16.34375,3.28125 -3.44586,1.65402 -4.70313,5.03125 -4.70313,5.03125 0,0 2.39487,-1.69078 5.57813,-3.21875 z m -16.4375,9.75 c -0.47959,0.87479 -1.31252,1.7173 -2.03125,3.65625 2.08142,-0.48235 3.10471,-1.45347 3.78125,-2.6875 0.67654,-1.23403 0.9375,-2.64976 -0.0625,-4.46875 -1,1.64335 -1.20791,2.62521 -1.6875,3.5 z m -0.9375,10.125 c 2.7881,0.3467 6.95901,-0.32205 12.78125,-3.90625 11.01466,-6.78068 27.98594,-7.33609 39.53125,-1.8125 21.03388,10.06317 26.3125,8.84375 26.3125,8.84375 0,0 -10.15291,-3.20035 -25.4375,-10.65625 -6.12163,-2.98616 -13.53791,-4.2928 -20.90625,-3.96875 -7.36834,0.32405 -14.69483,2.29408 -20.5625,5.90625 -5.55276,3.41831 -9.25685,3.87268 -11.5,3.59375 -1.14365,-0.14066 -2.20997,-0.63204 -3.85133,-1.27987 -0.10277,2.34892 2.26445,3.0987 3.63258,3.27987 z m 4.8125,7.375 -2,0.125 c 0,0 0.0668,3.71623 1.92992,7.02838 l 1.88258,-0.37213 c -1.51192,-2.68785 -1.8125,-6.78125 -1.8125,-6.78125 z m 63.28125,2.78125 c 0,0 4.59548,1.1118 8.8982,-0.7018 -4.84547,-0.62029 -8.40199,-1.36833 -8.40199,-1.36833 z m -67.4375,7.5 c -0.76814,-2.37122 -1.33617,-3.78217 -1.33617,-3.78217 l -2.00758,0.15717 c 0,0 0.68094,1.91454 1.4375,4.25 0.75656,2.33546 1.96808,5.51117 2.92945,8.00528 0.69622,-2.01368 -0.25506,-6.25906 -1.0232,-8.63028 z"
             style="font-size:medium;font-style:normal;font-variant:normal;font-weight:normal;font-stretch:normal;text-indent:0;text-align:start;text-decoration:none;line-height:normal;letter-spacing:normal;word-spacing:normal;text-transform:none;direction:ltr;block-progression:tb;writing-mode:lr-tb;text-anchor:start;baseline-shift:baseline;color:#000000;fill:#000000;fill-opacity:1;stroke:none;stroke-width:2;marker:none;visibility:visible;display:inline;overflow:visible;enable-background:accumulate;font-family:Sans;-inkscape-font-specification:Sans" />
          <path
             sodipodi:nodetypes="ccsscscc"
             transform="translate(34,145.36218)"
             inkscape:connector-curvature="0"
             id="path4028"
             d="m 271.13125,153.43323 c -2.2539,-4.24264 -2.51906,-8.3527 -2.51906,-8.3527 0,0 5.03813,1.06066 9.81111,1.06066 4.77297,0 13.52341,-8.22012 29.96365,-8.22012 16.44023,0 24.92551,8.22012 33.41079,10.07627 0,0 -10.33091,19.62222 -32.88046,19.62222 -23.57778,0 -30.75914,-14.58407 -30.75914,-14.58407 -2.25391,-0.77748 -5.17073,-0.16509 -7.02689,0.39774 z"
             style="color:#000000;fill:#dad9de;fill-opacity:1;stroke:#000000;stroke-width:2;stroke-linecap:butt;stroke-linejoin:miter;stroke-miterlimit:4;stroke-opacity:1;stroke-dasharray:none;stroke-dashoffset:0;marker:none;visibility:visible;display:inline;overflow:visible;enable-background:accumulate" />
          <path
             id="path4032"
             transform="translate(34,145.36218)"
             d="m 308.375,137.90625 c -6.01955,0 -10.98507,1.13421 -15.125,2.53125 -0.4406,1.38293 -0.6875,2.84603 -0.6875,4.375 0,7.97004 6.46746,14.4375 14.4375,14.4375 7.97004,0 14.4375,-6.46746 14.4375,-14.4375 0,-1.86543 -0.38685,-3.64465 -1.03125,-5.28125 -3.51144,-0.95706 -7.46134,-1.625 -12.03125,-1.625 z"
             style="color:#000000;fill:#00418f;fill-opacity:1;stroke:#000000;stroke-width:2;stroke-linecap:square;stroke-linejoin:miter;stroke-miterlimit:4;stroke-opacity:1;stroke-dasharray:none;stroke-dashoffset:0;marker:none;visibility:visible;display:inline;overflow:visible;enable-background:accumulate"
             inkscape:connector-curvature="0" />
          <path
             sodipodi:type="arc"
             style="color:#000000;fill:#000000;stroke:none;stroke-width:3.74193549;marker:none;visibility:visible;display:inline;overflow:visible;enable-background:accumulate"
             id="path4036"
             sodipodi:cx="308.25"
             sodipodi:cy="148.19299"
             sodipodi:rx="13.5"
             sodipodi:ry="13.5"
             d="m 321.75,148.19299 c 0,7.45585 -6.04416,13.5 -13.5,13.5 -7.45584,0 -13.5,-6.04415 -13.5,-13.5 0,-7.45584 6.04416,-13.5 13.5,-13.5 7.45584,0 13.5,6.04416 13.5,13.5 z"
             transform="matrix(0.49744571,0,0,0.49744571,187.65394,215.7122)" />
        </g>
      </g>
    </g>
    <g
       id="g4267"
       transform="translate(-0.081485,0)">
      <path
         sodipodi:nodetypes="cszcscscccccsccscccccscscccscscccccsccscccccscscccscscccccsccscccccscscccszscccccsccscccccscscccscscccccsccscccccscscccscscccccsccscccccscscccszscccccsccscccccszscccscscccccsccscccccscscccszscccccsccscccccszscccscscccccsccscccccscscccscscccccsccscccccscscccscscccccsccscccccszscccscscccccsccscccccscscccscscccccsccscccccscscccscscccccsccscccccscsczsczc"
         inkscape:connector-curvature="0"
         id="path4410"
         d="m 439.41297,812.68017 c -13.875,-15.75 -22.6875,-47.8125 -29.4375,-79.21875 -6.75,-31.40625 -10.74654,-59.2454 -5.94118,-77.9329 4.80536,-18.6875 19.0504,-20.50354 19.0504,-20.50354 4.7561,-0.52118 2.85069,1.61091 5.99717,3.22808 3.14649,1.61717 5.53158,-0.24078 5.53158,-0.24078 6.1997,-0.68885 5.67101,5.11495 7.53924,7.79873 3.0437,4.37238 10.41405,3.33843 10.41405,3.33843 3.71266,5.86347 10.47093,4.01852 10.47093,4.01852 3.13673,4.89707 10.15206,3.1172 10.15206,3.1172 5.44372,7.66936 11.62155,3.08139 11.62155,3.08139 3.35338,5.3908 10.21994,5.88196 13.99307,2.97605 0,0 1.78475,2.56565 6.63756,4.34127 4.57816,1.67513 18.32907,5.52722 18.32907,5.52722 l 7.64062,-30.18049 c 0,0 -13.92737,-3.15505 -18.75112,-3.86015 -5.11312,-0.7474 -7.90368,0.65995 -7.90368,0.65995 -1.93589,-4.35122 -8.20899,-7.18656 -13.72352,-4.0408 0,0 -3.25053,-6.97488 -11.6878,-2.8197 0,0 -5.32332,-4.90357 -10.41237,-2.08897 0,0 -5.06626,-4.83849 -11.12171,-1.44797 0,0 -4.13895,-3.56383 -9.76326,-3.28397 -4.88617,0.24312 -6.32368,5.82212 -9.55341,4.20725 0,0 -2.71371,-3.51908 -6.25066,-3.59388 -3.53695,-0.0748 -4.23638,2.35585 -8.69899,1.91733 -15.32874,0.0529 -26.46567,15.43253 -26.46567,15.43253 3.18198,-23.86486 26.55575,-30.24783 26.55575,-30.24783 5.95495,-1.59099 4.24264,1.06066 7.68978,1.85616 3.44715,0.79549 5.30331,-1.59099 5.30331,-1.59099 4.98481,0 8.31319,7.02136 11.88693,8.28445 4.94546,1.74791 8.97792,-0.57582 8.97792,-0.57582 5.03814,4.77297 11.13693,1.32582 11.13693,1.32582 4.24264,3.97748 10.6066,0.53034 10.6066,0.53034 7.15946,6.09879 12.02236,0.13497 12.02236,0.13497 4.57384,4.40294 11.35094,3.19387 14.2955,-0.54917 0,0 2.35983,2.04917 7.5,2.5795 4.84926,0.50032 19.125,0.85983 19.125,0.85983 l 0,-31.13263 c 0,0 -14.27574,0.35951 -19.125,0.85983 -5.14017,0.53033 -7.5,2.5795 -7.5,2.5795 -2.94456,-3.74304 -9.72166,-4.95211 -14.2955,-0.54917 0,0 -4.8629,-5.96382 -12.02236,0.13497 0,0 -6.36396,-3.44714 -10.6066,0.53034 0,0 -6.09879,-3.44715 -11.13693,1.32582 0,0 -3.91365,-2.84135 -9.35292,-1.70082 -6.38244,1.3383 -6.12171,5.65945 -11.51193,5.65945 0,0 -1.85616,-2.38648 -5.30331,-1.59099 -3.44714,0.7955 -1.85615,3.44717 -9.56556,3.53507 -16.19469,0.61826 -29.98327,22.89212 -29.98327,22.89212 5.3033,-22.27386 25.61787,-34.11113 25.61787,-34.11113 4.1835,-2.72205 4.81224,-0.24804 8.2201,-0.30544 3.40787,-0.0574 4.58869,-2.72007 4.58869,-2.72007 3.76722,-3.01377 6.40633,2.18178 12.45164,2.98058 7.36214,0.97279 12.71713,-2.69769 12.71713,-2.69769 5.8198,3.29169 10.72085,-1.34871 10.72085,-1.34871 4.89115,2.73281 10.04014,-1.96921 10.04014,-1.96921 8.11131,4.03828 11.27194,-2.66791 11.27194,-2.66791 5.2997,3.05363 11.3551,0.34813 13.23827,-3.83585 0,0 2.68262,1.36747 7.61179,0.66869 4.65021,-0.65922 18.08118,-3.64089 18.08118,-3.64089 l -7.23549,-29.10816 c 0,0 -13.26387,3.65394 -17.68152,5.24873 -4.68266,1.69047 -6.41279,4.15483 -6.41279,4.15483 -3.623,-2.8153 -10.2404,-2.37069 -13.49353,2.80894 0,0 -5.93272,-4.44583 -11.20921,2.92029 0,0 -6.75127,-1.74394 -9.79363,2.96092 0,0 -6.50334,-1.80558 -10.10459,3.82792 0,0 -5.71508,-1.88492 -12.20838,1.71847 -6.01459,3.33775 -10.24881,7.03221 -10.24881,7.03221 0,0 -2.2901,-1.7999 -5.32821,-0.25499 -3.0381,1.54491 -2.43431,4.40437 -7.36069,6.59691 -20.8311,10.98242 -34.08935,37.49892 -34.08935,37.49892 4.77297,-29.69848 27.10737,-48.2143 27.10737,-48.2143 4.13368,-3.61749 4.41877,-1.76462 7.69113,-2.71778 3.27235,-0.95318 1.36093,-3.52074 4.83497,-4.58288 3.47403,-1.06214 7.56215,4.7123 14.23162,3.02889 7.20034,-1.81735 10.82673,-5.97833 10.82673,-5.97833 6.48141,1.64216 9.98679,-4.12551 9.98679,-4.12551 5.43832,1.34768 9.16664,-4.54475 9.16664,-4.54475 8.88865,1.75867 10.17086,-5.54329 10.17086,-5.54329 5.91696,1.54953 11.04567,-2.65571 11.76002,-7.18801 0,0 2.94812,0.61242 7.51906,-1.36028 4.31224,-1.86104 16.4832,-8.27582 16.4832,-8.27582 l -14.64852,-26.17361 c 0,0 -11.83264,7.01927 -15.67407,9.72157 -4.07188,2.8644 -5.09164,5.69751 -5.09164,5.69751 -4.23671,-1.76135 -10.50319,0.41093 -12.27681,6.26462 0,0 -6.8944,-2.72577 -10.04385,5.77023 0,0 -6.97221,0.0963 -8.66757,5.43648 0,0 -6.74929,-0.0285 -8.73914,6.35478 0,0 -6.00978,-0.31267 -11.32435,4.87411 -4.92277,4.80439 -9.3693,8.63419 -9.3693,8.63419 0,0 -3.43339,-2.25803 -5.95716,0.0327 -2.52376,2.29074 -0.68854,5.27142 -5.82967,8.3897 -20.03499,14.72503 -31.17192,49.19648 -31.17192,49.19648 7.42462,-33.41079 22.55297,-54.93836 22.55297,-54.93836 5.80478,-5.75621 4.92421,-3.39326 7.82205,-5.18751 2.89784,-1.79427 2.54871,-4.68603 2.54871,-4.68603 3.49583,-6.99163 9.59807,0.9288 16.60058,-3.40724 6.31371,-3.90953 8.55778,-8.7913 8.55778,-8.7913 6.68446,-0.15256 8.51819,-6.64803 8.51819,-6.64803 5.60062,-0.15711 7.61575,-6.83245 7.61575,-6.83245 9.03506,-0.68462 8.31607,-8.06335 8.31607,-8.06335 6.11581,-0.0907 9.93183,-5.51527 9.40702,-10.0734 0,0 3.00447,-0.19902 6.88062,-3.32318 3.65679,-2.94735 13.66672,-12.38573 13.66672,-12.38573 L 463.52073,473.0826 c 0,0 -9.52216,9.93025 -12.50014,13.56214 -3.15663,3.84977 -3.38088,6.85246 -3.38088,6.85246 -4.55357,-0.5631 -10.00999,3.20719 -10.15211,9.32203 0,0 -7.37242,-0.78098 -8.13295,8.24801 0,0 -6.69204,1.95896 -6.89621,7.55806 0,0 -6.51065,1.77907 -6.71938,8.46202 0,0 -5.95621,1.2603 -9.60658,7.72731 -3.22638,5.71587 -5.20204,10.01788 -7.637,12.45281 0,0 -2.88873,-0.37342 -4.70728,2.50924 -1.81855,2.88266 1.06866,3.61736 -4.69994,9.19331 -16.40404,17.85097 -25.41965,58.68638 -25.41965,58.68638 2.65165,-31.28947 15.95398,-61.17801 15.95398,-61.17801 3.10159,-5.97533 3.98959,-4.94636 6.34013,-7.41452 2.35053,-2.46817 1.28216,-5.17792 1.28216,-5.17792 3.05491,-5.63438 9.93929,-5.64137 14.77456,-9.84784 5.60271,-4.87411 5.144,-11.20434 5.144,-11.20434 6.42908,-1.83636 6.56232,-8.58439 6.56232,-8.58439 5.37925,-1.56693 5.64257,-8.53484 5.64257,-8.53484 8.56901,-2.94501 6.0092,-9.90273 6.0092,-9.90273 5.8945,-1.63287 8.21628,-7.84552 6.55693,-12.1232 0,0 2.85673,-0.9516 5.81787,-4.95369 2.79355,-3.77558 10.09427,-15.43667 10.09427,-15.43667 l -25.81516,-15.27136 c 0,0 -6.70451,12.01379 -8.66833,16.28021 -2.08164,4.52237 -1.54003,7.48431 -1.54003,7.48431 -4.54811,0.60557 -8.87501,5.63206 -7.46768,11.58444 0,0 -7.33057,1.10691 -5.78536,10.03514 0,0 -5.98005,3.58609 -4.76305,9.05514 0,0 -5.84999,3.3662 -4.36358,9.88508 0,0 -5.42443,2.72955 -7.34274,9.90364 -1.74632,6.53083 -1.22398,15.19426 -2.90134,16.87163 0,0 -2.88936,0.3685 -3.92066,3.61708 -1.03128,3.24858 1.94789,3.23003 -2.13924,10.2393 -13.18313,20.12582 -18.48643,65.20387 -18.48643,65.20387 -0.53033,-23.86485 8.55473,-68.71171 8.55473,-68.71171 2.48432,-8.11345 3.05397,-5.81583 4.82386,-8.87901 1.76989,-3.06319 -0.88518,-5.82515 0.40643,-8.91173 1.29161,-3.08657 4.81307,-1.37902 8.6064,-7.42776 4.09524,-6.53017 2.45876,-12.55835 2.45876,-12.55835 6.03889,-3.41994 4.5284,-10.26073 4.5284,-10.26073 5.04535,-2.8922 3.6125,-9.98655 3.6125,-9.98655 7.92769,-5.06012 3.64897,-11.45602 3.64897,-11.45602 5.54913,-3.08431 6.37725,-9.91843 3.66034,-13.82985 0,0 2.65028,-1.65646 4.66232,-6.41612 1.89816,-4.49028 6.42157,-18.0352 6.42157,-18.0352 l -29.76839,-9.11502 c 0,0 -3.8359,13.75543 -4.77727,18.53868 -0.99785,5.0702 0.27061,7.92657 0.27061,7.92657 -4.44112,1.71964 -7.58141,7.84578 -4.71054,13.50828 0,0 -7.12625,2.90372 -3.39086,11.53506 0,0 -5.15933,5.07583 -2.5983,10.29709 0,0 -5.0817,4.82228 -1.99296,11.03708 0,0 -2.48111,4.82845 -2.74421,12.53201 -0.2437,7.13563 2.50425,8.80715 2.46005,12.37004 -0.0442,3.56291 -2.82535,2.95112 -3.07397,6.48012 -0.24862,3.52899 2.37765,3.90906 0.85993,11.31455 -7.6584,22.54204 -10.93399,60.26171 -10.93399,60.26171 l -1.06066,-63.39869 c 0,-8.48528 2.65165,-6.89429 3.44715,-10.34143 0.79549,-3.44715 -1.59099,-5.30331 -1.59099,-5.30331 0,0 4.45784,-4.81665 6.15945,-11.13693 1.83704,-6.82333 -0.32582,-12.72792 -0.32582,-12.72792 4.77297,-5.03814 1.32582,-11.13693 1.32582,-11.13693 3.97748,-4.24264 0.53034,-10.6066 0.53034,-10.6066 6.09879,-7.15946 0.13497,-12.02236 0.13497,-12.02236 4.40294,-4.57384 3.19387,-11.35094 -0.54917,-14.2955 0,0 2.04917,-2.35983 2.5795,-7.5 0.50032,-4.84926 0.85983,-19.125 0.85983,-19.125 l -31.13263,0 c 0,0 0.35951,14.27574 0.85983,19.125 0.53033,5.14017 2.5795,7.5 2.5795,7.5 -3.74304,2.94456 -4.95211,9.72166 -0.54917,14.2955 0,0 -5.96382,4.8629 0.13497,12.02236 0,0 -3.44714,6.36396 0.53034,10.6066 0,0 -3.44715,6.09879 1.32582,11.13693 0,0 -2.16286,5.90459 -0.32582,12.72792 1.70161,6.32028 6.15945,11.13693 6.15945,11.13693 0,0 -2.38648,1.85616 -1.59099,5.30331 0.7955,3.44714 3.44715,1.85615 3.44715,10.34143 l -1.06066,63.39869 c 0,0 -3.27559,-37.71967 -10.93399,-60.26171 -1.51772,-7.40549 1.10855,-7.78556 0.85993,-11.31455 -0.24862,-3.529 -3.02978,-2.91721 -3.07397,-6.48012 -0.0442,-3.56289 2.70375,-5.23441 2.46005,-12.37004 -0.2631,-7.70356 -2.74421,-12.53201 -2.74421,-12.53201 3.08874,-6.2148 -1.99296,-11.03708 -1.99296,-11.03708 2.56103,-5.22126 -2.5983,-10.29709 -2.5983,-10.29709 3.73539,-8.63134 -3.39086,-11.53506 -3.39086,-11.53506 2.87087,-5.6625 -0.26942,-11.78864 -4.71054,-13.50828 0,0 1.26846,-2.85637 0.27061,-7.92657 -0.94137,-4.78325 -4.77727,-18.53868 -4.77727,-18.53868 l -29.76839,9.11502 c 0,0 4.52341,13.54492 6.42157,18.0352 2.01204,4.75966 4.66232,6.41612 4.66232,6.41612 -2.71691,3.91142 -1.88879,10.74554 3.66034,13.82985 0,0 -4.27872,6.3959 3.64897,11.45602 0,0 -1.43285,7.09435 3.6125,9.98655 0,0 -1.51049,6.84079 4.5284,10.26073 0,0 -1.63648,6.02818 2.45876,12.55835 3.79333,6.04874 7.31479,4.34119 8.6064,7.42776 1.29161,3.08658 -1.36346,5.84854 0.40643,8.91173 1.76989,3.06318 2.33954,0.76556 4.82386,8.87901 0,0 9.08506,44.84686 8.55473,68.71171 0,0 -5.3033,-45.07805 -18.48643,-65.20387 -4.08713,-7.00927 -1.10796,-6.99072 -2.13924,-10.2393 -1.0313,-3.24858 -3.92066,-3.61708 -3.92066,-3.61708 -1.67736,-1.67737 -1.15502,-10.3408 -2.90134,-16.87163 -1.91831,-7.17409 -7.34274,-9.90364 -7.34274,-9.90364 1.48641,-6.51888 -4.36358,-9.88508 -4.36358,-9.88508 1.217,-5.46905 -4.76305,-9.05514 -4.76305,-9.05514 1.54521,-8.92823 -5.78536,-10.03514 -5.78536,-10.03514 1.40733,-5.95238 -2.91957,-10.97887 -7.46768,-11.58444 0,0 0.54161,-2.96194 -1.54003,-7.48431 -1.96382,-4.26642 -8.66833,-16.28021 -8.66833,-16.28021 l -25.81516,15.27136 c 0,0 7.30072,11.66109 10.09427,15.43667 2.96114,4.00209 5.81787,4.95369 5.81787,4.95369 -1.65935,4.27768 0.66243,10.49033 6.55693,12.1232 0,0 -2.55981,6.95772 6.0092,9.90273 0,0 0.26332,6.96791 5.64257,8.53484 0,0 0.13324,6.74803 6.56232,8.58439 0,0 -0.45871,6.33023 5.144,11.20434 4.83527,4.20647 11.71965,4.21346 14.77456,9.84784 0,0 -1.06837,2.70975 1.28216,5.17792 2.35054,2.46816 3.23854,1.43919 6.34013,7.41452 0,0 13.30233,29.88854 15.95398,61.17801 0,0 -9.01561,-40.83541 -25.41965,-58.68638 -5.7686,-5.57595 -2.88139,-6.31065 -4.69994,-9.19331 -1.81855,-2.88266 -4.70728,-2.50924 -4.70728,-2.50924 -2.43496,-2.43493 -4.41062,-6.73694 -7.637,-12.45281 -3.65037,-6.46701 -9.60658,-7.72731 -9.60658,-7.72731 -0.20873,-6.68295 -6.71938,-8.46202 -6.71938,-8.46202 -0.20417,-5.5991 -6.89621,-7.55806 -6.89621,-7.55806 -0.76053,-9.02899 -8.13295,-8.24801 -8.13295,-8.24801 -0.14212,-6.11484 -5.59854,-9.88513 -10.15211,-9.32203 0,0 -0.22425,-3.00269 -3.38088,-6.85246 -2.97798,-3.63189 -12.50014,-13.56214 -12.50014,-13.56214 l -21.11962,21.29785 c 0,0 10.00993,9.43838 13.66672,12.38573 3.87615,3.12416 6.88062,3.32318 6.88062,3.32318 -0.52481,4.55813 3.29121,9.98268 9.40702,10.0734 0,0 -0.71899,7.37873 8.31607,8.06335 0,0 2.01513,6.67534 7.61575,6.83245 0,0 1.83373,6.49547 8.51819,6.64803 0,0 2.24407,4.88177 8.55778,8.7913 7.00251,4.33604 13.10475,-3.58439 16.60058,3.40724 0,0 -0.34913,2.89176 2.54871,4.68603 2.89784,1.79425 2.01727,-0.5687 7.82205,5.18751 0,0 15.12835,21.52757 22.55297,54.93836 0,0 -11.13693,-34.47145 -31.17192,-49.19648 -5.14113,-3.11828 -3.30591,-6.09896 -5.82967,-8.3897 -2.52377,-2.29073 -5.95716,-0.0327 -5.95716,-0.0327 0,0 -4.44653,-3.8298 -9.3693,-8.63419 -5.31457,-5.18678 -11.32435,-4.87411 -11.32435,-4.87411 -1.98985,-6.38324 -8.73914,-6.35478 -8.73914,-6.35478 -1.69536,-5.34016 -8.66757,-5.43648 -8.66757,-5.43648 -3.14945,-8.496 -10.04385,-5.77023 -10.04385,-5.77023 -1.77362,-5.85369 -8.0401,-8.02597 -12.27681,-6.26462 0,0 -1.01976,-2.83311 -5.09164,-5.69751 -3.84143,-2.7023 -15.67407,-9.72157 -15.67407,-9.72157 l -14.64852,26.17361 c 0,0 12.17096,6.41478 16.4832,8.27582 4.57094,1.9727 7.51906,1.36028 7.51906,1.36028 0.71435,4.5323 5.84306,8.73754 11.76002,7.18801 0,0 1.28221,7.30196 10.17086,5.54329 0,0 3.72832,5.89243 9.16664,4.54475 0,0 3.50538,5.76767 9.98679,4.12551 0,0 3.62639,4.16098 10.82673,5.97833 6.66947,1.68341 10.75759,-4.09103 14.23162,-3.02889 3.47404,1.06214 1.56262,3.6297 4.83497,4.58288 3.27236,0.95316 3.55745,-0.89971 7.69113,2.71778 0,0 22.3344,18.51582 27.10737,48.2143 0,0 -13.25825,-26.5165 -34.08935,-37.49892 -4.92638,-2.19254 -4.32259,-5.052 -7.36069,-6.59691 -3.03811,-1.54491 -5.32821,0.25499 -5.32821,0.25499 0,0 -4.23422,-3.69446 -10.24881,-7.03221 -6.4933,-3.60339 -12.20838,-1.71847 -12.20838,-1.71847 -3.60125,-5.6335 -10.10459,-3.82792 -10.10459,-3.82792 -3.04236,-4.70486 -9.79363,-2.96092 -9.79363,-2.96092 -5.27649,-7.36612 -11.20921,-2.92029 -11.20921,-2.92029 -3.25313,-5.17963 -9.87053,-5.62424 -13.49353,-2.80894 0,0 -1.73013,-2.46436 -6.41279,-4.15483 -4.41765,-1.59479 -17.68152,-5.24873 -17.68152,-5.24873 l -7.23549,29.10816 c 0,0 13.43097,2.98167 18.08118,3.64089 4.92917,0.69878 7.61179,-0.66869 7.61179,-0.66869 1.88317,4.18398 7.93857,6.88948 13.23827,3.83585 0,0 3.16063,6.70619 11.27194,2.66791 0,0 5.14899,4.70202 10.04014,1.96921 0,0 4.90105,4.6404 10.72085,1.34871 0,0 5.35499,3.67048 12.71713,2.69769 6.04531,-0.7988 8.68442,-5.99435 12.45164,-2.98058 0,0 1.18082,2.66268 4.58869,2.72007 3.40786,0.0574 4.0366,-2.41661 8.2201,0.30544 0,0 20.31457,11.83727 25.61787,34.11113 0,0 -13.78858,-22.27386 -29.98327,-22.89212 -7.70941,-0.0879 -6.11842,-2.73957 -9.56556,-3.53507 -3.44715,-0.79549 -5.30331,1.59099 -5.30331,1.59099 -5.39022,0 -5.12949,-4.32115 -11.51193,-5.65945 -5.43927,-1.14053 -9.35292,1.70082 -9.35292,1.70082 -5.03814,-4.77297 -11.13693,-1.32582 -11.13693,-1.32582 -4.24264,-3.97748 -10.6066,-0.53034 -10.6066,-0.53034 -7.15946,-6.09879 -12.02236,-0.13497 -12.02236,-0.13497 -4.57384,-4.40294 -11.35094,-3.19387 -14.2955,0.54917 0,0 -2.35983,-2.04917 -7.5,-2.5795 -4.84926,-0.50032 -19.125,-0.85983 -19.125,-0.85983 l 0,31.13263 c 0,0 14.27574,-0.35951 19.125,-0.85983 5.14017,-0.53033 7.5,-2.5795 7.5,-2.5795 2.94456,3.74304 9.72166,4.95211 14.2955,0.54917 0,0 4.8629,5.96382 12.02236,-0.13497 0,0 6.36396,3.44714 10.6066,-0.53034 0,0 6.09879,3.44715 11.13693,-1.32582 0,0 4.03246,2.32373 8.97792,0.57582 3.57374,-1.26309 6.90212,-8.28445 11.88693,-8.28445 0,0 1.85616,2.38648 5.30331,1.59099 3.44714,-0.7955 1.73483,-3.44715 7.68978,-1.85616 0,0 23.37377,6.38297 26.55575,30.24783 0,0 -11.13693,-15.37958 -26.46567,-15.43253 -4.46261,0.43852 -5.16204,-1.99217 -8.69899,-1.91733 -3.53695,0.0748 -6.25066,3.59388 -6.25066,3.59388 -3.22973,1.61487 -4.66724,-3.96413 -9.55341,-4.20725 -5.62431,-0.27986 -9.76326,3.28397 -9.76326,3.28397 -6.05545,-3.39052 -11.12171,1.44797 -11.12171,1.44797 -5.08905,-2.8146 -10.41237,2.08897 -10.41237,2.08897 -8.43727,-4.15518 -11.6878,2.8197 -11.6878,2.8197 -5.51453,-3.14576 -11.78763,-0.31042 -13.72352,4.0408 0,0 -2.79056,-1.40735 -7.90368,-0.65995 -4.82375,0.7051 -18.75112,3.86015 -18.75112,3.86015 l 7.64062,30.18049 c 0,0 13.75091,-3.85209 18.32907,-5.52722 4.85281,-1.77562 6.63756,-4.34127 6.63756,-4.34127 3.77313,2.90591 10.63969,2.41475 13.99307,-2.97605 0,0 6.17783,4.58797 11.62155,-3.08139 0,0 7.01533,1.77987 10.15206,-3.1172 0,0 6.75827,1.84495 10.47093,-4.01852 0,0 7.37035,1.03395 10.41405,-3.33843 1.86823,-2.68378 1.33954,-8.48758 7.53924,-7.79873 0,0 2.38509,1.85795 5.53158,0.24078 3.14648,-1.61717 1.24107,-3.74926 5.99717,-3.22808 0,0 14.24504,1.81604 19.0504,20.50354 4.80536,18.6875 0.80882,46.52665 -5.94118,77.9329 -6.75,31.40625 -15.5625,63.46875 -29.4375,79.21875 0,0 38.85911,34.0488 97.83149,34.0488 58.97237,0 97.83148,-34.0488 97.83148,-34.0488 z"
         style="color:#000000;fill:#d7b369;fill-opacity:1;stroke:#000000;stroke-width:3;stroke-linecap:butt;stroke-linejoin:miter;stroke-miterlimit:4;stroke-opacity:1;stroke-dasharray:none;stroke-dashoffset:0;marker:none;visibility:visible;display:inline;overflow:visible;enable-background:accumulate" />
      <path
         id="path4412"
         style="color:#000000;fill:none;stroke:#000000;stroke-width:2;stroke-linecap:butt;stroke-linejoin:miter;stroke-miterlimit:4;stroke-opacity:1;stroke-dasharray:none;stroke-dashoffset:0;marker:none;visibility:visible;display:inline;overflow:visible;enable-background:accumulate"
         d="m 529.78039,648.84117 -14.65215,-3.70939 m 13.28553,9.10756 -10.79633,-2.73324 m 7.95951,13.93867 -14.65215,-3.7094 m 16.01878,-1.68877 -10.79633,-2.73324 m 16.12238,-55.7239 -15.1144,0 m 15.1144,5.56847 -11.13693,0 m 11.13693,11.55894 -15.1144,0 m 15.1144,-5.56847 -11.13693,0 m -0.32073,-57.11492 -14.13155,3.51271 m 15.42571,1.69366 -10.41273,2.58831 m 13.09912,8.21898 -14.13154,3.51271 m 12.83738,-8.71908 -10.41272,2.58832 m -13.41561,-55.2397 -12.70688,7.11163 m 15.32695,-2.43014 -9.36296,5.24014 m 14.80167,4.47761 -12.70687,7.11162 m 10.0868,-11.79311 -9.36296,5.24015 m -27.41298,-51.33536 -10.33977,10.25324 m 14.11729,-6.44384 -7.61878,7.55502 m 15.46008,0.35246 -10.33977,10.25324 m 6.56226,-14.06264 -7.61879,7.55502 m -40.6731,-41.88736 -7.414,12.53286 m 12.03137,-9.80138 -5.46295,9.23474 m 15.04762,-3.56478 -7.414,12.53285 m 2.79663,-15.26433 -5.46295,9.23474 m -49.0129,-31.72909 -4.4252,14.45208 m 9.74966,-12.82174 -3.26067,10.6489 m 14.31309,-7.26467 -4.4252,14.45208 m -0.89925,-16.08242 -3.26068,10.64891 m -237.40021,200.24535 14.65215,-3.70939 m -13.28553,9.10756 10.79633,-2.73324 m -7.95951,13.93867 14.65215,-3.7094 m -16.01878,-1.68877 10.79633,-2.73324 m -16.12238,-55.7239 15.1144,0 m -15.1144,5.56847 11.13693,0 m -11.13693,11.55894 15.1144,0 m -15.1144,-5.56847 11.13693,0 m 0.32073,-57.11492 14.13155,3.51271 m -15.42571,1.69366 10.41273,2.58831 m -13.09912,8.21898 14.13154,3.51271 m -12.83738,-8.71908 10.41272,2.58832 m 13.41561,-55.2397 12.70688,7.11163 m -15.32695,-2.43014 9.36296,5.24014 m -14.80167,4.47761 12.70687,7.11162 m -10.0868,-11.79311 9.36296,5.24015 m 27.41298,-51.33536 10.33977,10.25324 m -14.11729,-6.44384 7.61878,7.55502 m -15.46008,0.35246 10.33977,10.25324 m -6.56226,-14.06264 7.61879,7.55502 m 40.6731,-41.88736 7.414,12.53286 m -12.03137,-9.80138 5.46295,9.23474 m -15.04762,-3.56478 7.414,12.53285 m -2.79663,-15.26433 5.46295,9.23474 m 49.0129,-31.72909 4.4252,14.45208 m -9.74966,-12.82174 3.26067,10.6489 m -14.31309,-7.26467 4.4252,14.45208 m 0.89925,-16.08242 3.26068,10.64891 m 57.76501,-17.8808 0,15.1144 m -5.56847,-15.1144 0,11.13693 m -11.55894,-11.13693 0,15.1144 m 5.56847,-15.1144 0,11.13693"
         inkscape:connector-curvature="0" />
      <path
         id="path4414"
         style="color:#000000;fill:none;stroke:#000000;stroke-width:3;stroke-linecap:butt;stroke-linejoin:miter;stroke-miterlimit:4;stroke-opacity:1;stroke-dasharray:none;stroke-dashoffset:0;marker:none;visibility:visible;display:inline;overflow:visible;enable-background:accumulate"
         d="m 397.80796,640.77123 c 0,0 -5.36764,11.54962 -4.55331,34.26282 0.76101,21.22606 11.60293,99.0697 34.93745,145.73875 m -14.84924,6.71751 c -5.29849,-10.59698 -22.21127,-87.20273 -25.98618,-136.29483 -3.78315,-49.19923 5.56847,-65.76093 5.56847,-65.76093 m 6.98782,209.49562 c 0,0 -21,-109.5 -22.5,-156 -1.3817,-42.83285 5.125,-58.875 5.125,-58.875 m 6.625,219.125 c 0,0 -11.99563,-21.75026 -18.75,-135.75 -2.75001,-46.41441 -2.50105,-73.29215 2.60335,-87.58446 m -8.11028,-4.02297 c -4.31994,23.03966 -5.34769,53.25547 -2.78553,116.52313 2.318,57.23855 11.97792,113.28658 11.97792,113.28658 m -13.78858,3.18198 c 0,0 -7.82786,-58.72847 -7.42462,-156.97771 0.20247,-49.33169 2.12132,-76.36753 2.12132,-76.36753 m -9.28078,-7.68979 c 0,0 0.7955,200.40077 0.7955,217.27577 0,16.875 1.3917,25.125 1.3917,25.125 M 285.35501,640.77123 c 0,0 5.36764,11.54962 4.55331,34.26282 -0.76101,21.22606 -11.60293,99.0697 -34.93745,145.73875 m 14.84924,6.71751 c 5.29849,-10.59698 22.21127,-87.20273 25.98618,-136.29483 3.78315,-49.19923 -5.56847,-65.76093 -5.56847,-65.76093 M 283.25,834.93017 c 0,0 21,-109.5 22.5,-156 1.3817,-42.83285 -5.125,-58.875 -5.125,-58.875 M 294,839.18017 c 0,0 11.99563,-21.75026 18.75,-135.75 2.75001,-46.41441 2.50105,-73.29215 -2.60335,-87.58446 m 8.11028,-4.02297 c 4.31994,23.03966 5.34769,53.25547 2.78553,116.52313 -2.318,57.23855 -11.97792,113.28658 -11.97792,113.28658 m 13.78858,3.18198 c 0,0 7.82786,-58.72847 7.42462,-156.97771 -0.20247,-49.33169 -2.12132,-76.36753 -2.12132,-76.36753 m 9.28078,-7.68979 c 0,0 -0.7955,200.40077 -0.7955,217.27577 0,16.875 -1.3917,25.125 -1.3917,25.125"
         inkscape:connector-curvature="0" />
      <path
         style="color:#000000;fill:#e30016;fill-opacity:1;stroke:#000000;stroke-width:3;stroke-linecap:butt;stroke-linejoin:miter;stroke-miterlimit:4;stroke-opacity:1;stroke-dasharray:none;stroke-dashoffset:0;marker:none;visibility:visible;display:inline;overflow:visible;enable-background:accumulate"
         d="m 477.53273,741.04651 0.53033,-8.48529 9.54594,-6.36396 c 0,0 -16.67269,-4.3033 -27.57716,-33.41079 -9.49006,-25.33196 -32.88047,-32.35014 -46.13872,-22.27387 -13.25825,10.07628 -9.01561,28.1075 -4.77297,44.54773 4.24264,16.44023 16.30469,37.44055 39.24442,45.07806 25.57717,8.51561 37.12311,14.84924 41.36575,20.15254 l 0.53033,-11.13693 15.37957,-6.89429 c 0,0 -15.37957,-20.68287 -44.54772,-24.92551 -29.43136,-4.28093 -40.30509,-17.5009 -43.48707,-32.88047 -3.18198,-15.37957 -1.53872,-23.79289 5.83363,-25.45584 7.54594,-1.7021 13.25825,4.24264 17.50089,21.74353 4.24264,17.50089 19.09189,38.18377 36.59278,40.30509 z"
         id="path4420"
         inkscape:connector-curvature="0"
         sodipodi:nodetypes="cccsssscccssssc" />
      <path
         style="color:#000000;fill:#e30016;fill-opacity:1;stroke:#000000;stroke-width:3;stroke-linecap:butt;stroke-linejoin:round;stroke-miterlimit:4;stroke-opacity:1;stroke-dasharray:none;stroke-dashoffset:0;marker:none;visibility:visible;display:inline;overflow:visible;enable-background:accumulate"
         d="m 276.0073,695.96845 c 0,0 31.8198,15.9099 65.76093,15.9099 33.94112,0 76.36753,-21.2132 76.36753,-21.2132 l 4.24264,15.37957 c 0,0 -31.28948,22.27386 -80.61017,22.27386 -49.3207,0 -70.00357,-16.97056 -70.00357,-16.97056 z"
         id="path4418"
         inkscape:connector-curvature="0" />
    </g>
  </g>
</svg>
