<?xml version="1.0" encoding="UTF-8" standalone="no"?>
<!-- Created with Inkscape (http://www.inkscape.org/) -->

<svg
   xmlns:dc="http://purl.org/dc/elements/1.1/"
   xmlns:cc="http://creativecommons.org/ns#"
   xmlns:rdf="http://www.w3.org/1999/02/22-rdf-syntax-ns#"
   xmlns:svg="http://www.w3.org/2000/svg"
   xmlns="http://www.w3.org/2000/svg"
   xmlns:xlink="http://www.w3.org/1999/xlink"
   xmlns:sodipodi="http://sodipodi.sourceforge.net/DTD/sodipodi-0.dtd"
   xmlns:inkscape="http://www.inkscape.org/namespaces/inkscape"
   width="676.03632"
   height="818.0224"
   id="svg2"
   version="1.1"
   inkscape:version="0.48.5 r10040"
   sodipodi:docname="Prienai.svg">
  <defs
     id="defs4">
    <style
       type="text/css"
       id="style6" />
    <style
       type="text/css"
       id="style4326" />
  </defs>
  <sodipodi:namedview
     id="base"
     pagecolor="#f6f3f1"
     bordercolor="#666666"
     borderopacity="1.0"
     inkscape:pageopacity="0"
     inkscape:pageshadow="2"
     inkscape:zoom="0.70710678"
     inkscape:cx="346.11845"
     inkscape:cy="396.85259"
     inkscape:document-units="px"
     inkscape:current-layer="layer1"
     showgrid="false"
     showborder="true"
     inkscape:window-width="1920"
     inkscape:window-height="1017"
     inkscape:window-x="-8"
     inkscape:window-y="-8"
     inkscape:window-maximized="1"
     inkscape:snap-global="true"
     inkscape:object-nodes="false"
     inkscape:snap-smooth-nodes="false"
     fit-margin-top="0"
     fit-margin-left="0"
     fit-margin-right="0"
     fit-margin-bottom="0"
     inkscape:showpageshadow="false"
     showguides="true"
     inkscape:guide-bbox="true" />
  <metadata
     id="metadata7">
    <rdf:RDF>
      <cc:Work
         rdf:about="">
        <dc:format>image/svg+xml</dc:format>
        <dc:type
           rdf:resource="http://purl.org/dc/dcmitype/StillImage" />
        <dc:title></dc:title>
      </cc:Work>
    </rdf:RDF>
  </metadata>
  <g
     inkscape:label="Layer 1"
     inkscape:groupmode="layer"
     id="layer1"
     transform="translate(-21.724902,-8.708121)">
    <g
       id="g5102">
      <path
         sodipodi:nodetypes="cszscc"
         inkscape:connector-curvature="0"
         id="path3761"
         d="m 25.736111,12.71933 c 0,0 0,278.57142 0,473.57142 0,199.28572 157.306489,336.42858 334.006949,336.42858 176.70046,0 334.00695,-137.14286 334.00695,-336.42858 0,-195 0,-473.57142 0,-473.57142 z"
         style="color:#000000;fill:#0166b4;fill-opacity:1;stroke:#000000;stroke-width:8.02241801999999990;stroke-miterlimit:4;stroke-dasharray:none;marker:none;visibility:visible;display:inline;overflow:visible;enable-background:accumulate" />
      <g
         id="g5011">
        <g
           id="g4003">
          <g
             id="g4242">
            <g
               id="g4247">
              <path
                 sodipodi:nodetypes="cccccccscscc"
                 transform="translate(29.46429,12.71933)"
                 inkscape:connector-curvature="0"
                 id="path4245"
                 d="m 461,135.5 c 0,0 37.5,9.75 60.75,-6.75 0,0 3,-7.5 2.25,-29.250001 11.10913,-15.202232 35.66876,-2.58043 47.25,-7.5 l 3,-18 c 0,0 18.75,-10.5 43.5,-12 0,0 -15,15 -31.5,35.25 0,0 0.75,33.000001 -3,55.500001 -3.75,22.5 -30,33.75 -30,33.75 0,0 -4.5,39 -37.5,61.5 -33,22.5 -66.75,12.75 -66.75,12.75 0,0 30,-66 12,-125.25 z"
                 style="color:#000000;fill:#da2c27;fill-opacity:1;stroke:#000000;stroke-width:3;stroke-linecap:butt;stroke-linejoin:miter;stroke-miterlimit:4;stroke-opacity:1;stroke-dasharray:none;stroke-dashoffset:0;marker:none;visibility:visible;display:inline;overflow:visible;enable-background:accumulate" />
              <path
                 style="color:#000000;fill:none;stroke:#000000;stroke-width:2.5;stroke-linecap:butt;stroke-linejoin:miter;stroke-miterlimit:4;stroke-opacity:1;stroke-dasharray:none;stroke-dashoffset:0;marker:none;visibility:visible;display:inline;overflow:visible;enable-background:accumulate"
                 d="m 552.875,188 c 0,0 7.875,-71.25 -28.125,-88.500001 m 61.5,-0.75 c 0,0 -1.125,-19.875 -12.375,-24.75"
                 id="path4250"
                 inkscape:connector-curvature="0"
                 transform="translate(29.46429,12.71933)"
                 sodipodi:nodetypes="cccc" />
              <path
                 style="font-size:medium;font-style:normal;font-variant:normal;font-weight:normal;font-stretch:normal;text-indent:0;text-align:start;text-decoration:none;line-height:normal;letter-spacing:normal;word-spacing:normal;text-transform:none;direction:ltr;block-progression:tb;writing-mode:lr-tb;text-anchor:start;baseline-shift:baseline;color:#000000;fill:#000000;fill-opacity:1;stroke:none;stroke-width:2.5;marker:none;visibility:visible;display:inline;overflow:visible;enable-background:accumulate;font-family:Sans;-inkscape-font-specification:Sans"
                 d="m 599.08929,104.21933 0.25,2.5 c 0,0 7.41967,-0.66967 11.125,-6.125 -4.54467,2.79467 -11.375,3.625 -11.375,3.625 z m -49.875,37.21875 1,2.3125 c 0,0 12.47996,-5.19083 18.25,-13.53125 -6.97996,5.90958 -19.25,11.21875 -19.25,11.21875 z"
                 id="path4252"
                 inkscape:connector-curvature="0"
                 sodipodi:nodetypes="cccccccc" />
            </g>
            <path
               transform="translate(29.46429,12.71933)"
               inkscape:connector-curvature="0"
               id="path4158"
               d="m 385.5,296.25 c 0,0 55.5,5.25 85.5,-57.75 C 501,175.5 462,120 436.5,114 L 382.54477,84.861995 c 0,0 -16.97056,-21.213203 -58.33631,-13.788582 -41.36575,7.424621 -71.06423,7.424621 -91.21678,41.365747 L 224,181.5 l 12,79.5 49.5,46.5 c 0,0 86,18 100,-11.25 z"
               style="color:#000000;fill:#da2c27;fill-opacity:1;stroke:#000000;stroke-width:3;stroke-linecap:butt;stroke-linejoin:miter;stroke-miterlimit:4;stroke-opacity:1;stroke-dasharray:none;stroke-dashoffset:0;marker:none;visibility:visible;display:inline;overflow:visible;enable-background:accumulate"
               sodipodi:nodetypes="csccsc" />
            <path
               style="color:#000000;fill:none;stroke:#000000;stroke-width:2.5;stroke-linecap:butt;stroke-linejoin:miter;stroke-miterlimit:4;stroke-opacity:1;stroke-dasharray:none;stroke-dashoffset:0;marker:none;visibility:visible;display:inline;overflow:visible;enable-background:accumulate"
               d="m 319.5,88.749999 c 0,0 26.25,61.500001 101.25,54.000001 m -129.75,21 c 0,0 36.75,-31.5 18,-65.250001 M 239.25,208 c 0,0 63.75,6.75 96,-17.25 m 63,77.25 c 0,0 40.5,-8.25 51.75,-42 11.25,-33.75 -3,-54 -3,-54 m -67.46043,2.48778 c 0,0 19.62221,-3.18198 44.01739,-24.39518 0,0 3.18198,7.95495 13.78858,12.19759 m -44.54772,22.27386 c 0,0 18.03122,-15.9099 29.16815,-32.88046"
               id="path4467"
               inkscape:connector-curvature="0"
               transform="translate(29.46429,12.71933)"
               sodipodi:nodetypes="cccccccsccc" />
            <g
               transform="translate(1.2397111e-6,-4.588703e-6)"
               id="g4310">
              <path
                 sodipodi:nodetypes="ccc"
                 transform="translate(29.46429,12.71933)"
                 inkscape:connector-curvature="0"
                 id="path4088"
                 d="m 322.61747,58.168714 c 0,0 -8.48528,-5.833631 -15.37957,5.303301 0,0 -14.31892,4.24264 -40.83542,31.819805 0,0 -13.25825,-1.59099 -16.97056,15.9099 -3.71231,17.5009 5.83363,27.57717 22.80419,28.63783 16.97056,1.06066 26.51651,-12.72792 23.86486,-23.33453 0,0 22.27386,-17.500889 27.04683,-33.941122 0,0 11.13693,0 -0.53033,-24.395184 z"
                 style="color:#000000;fill:#d9dadc;fill-opacity:1;stroke:#000000;stroke-width:3;stroke-linecap:butt;stroke-linejoin:miter;stroke-miterlimit:4;stroke-opacity:1;stroke-dasharray:none;stroke-dashoffset:0;marker:none;visibility:visible;display:inline;overflow:visible;enable-background:accumulate" />
              <path
                 sodipodi:nodetypes="cccsc"
                 transform="translate(29.46429,12.71933)"
                 inkscape:connector-curvature="0"
                 id="path4092"
                 d="m 308.0334,62.941685 c 0,0 0.79549,19.622213 15.64473,19.622213 M 267.19797,94.76149 c 0,0 -5.56846,9.54594 -0.26516,19.62221 5.3033,10.07627 22.53902,6.89429 29.43332,1.59099"
                 style="color:#000000;fill:none;stroke:#000000;stroke-width:2.5;stroke-linecap:butt;stroke-linejoin:miter;stroke-miterlimit:4;stroke-opacity:1;stroke-dasharray:none;stroke-dashoffset:0;marker:none;visibility:visible;display:inline;overflow:visible;enable-background:accumulate" />
            </g>
            <path
               style="color:#000000;fill:#d9dadc;fill-opacity:1;stroke:#000000;stroke-width:3;stroke-linecap:butt;stroke-linejoin:miter;stroke-miterlimit:4;stroke-opacity:1;stroke-dasharray:none;stroke-dashoffset:0;marker:none;visibility:visible;display:inline;overflow:visible;enable-background:accumulate"
               d="m 415.46429,252.46933 c 0,0 7.5,-7.5 7.5,-21 0,-13.5 -20.25,-23.25 -21,-21.75 -0.75,1.5 -13.875,15.375 -13.875,15.375 0,0 10.875,25.125 27.375,27.375 z"
               id="path4429"
               inkscape:connector-curvature="0"
               sodipodi:nodetypes="csscc" />
            <path
               style="color:#000000;fill:#d9dadc;fill-opacity:1;stroke:#000000;stroke-width:3;stroke-linecap:butt;stroke-linejoin:miter;stroke-miterlimit:4;stroke-opacity:1;stroke-dasharray:none;stroke-dashoffset:0;marker:none;visibility:visible;display:inline;overflow:visible;enable-background:accumulate"
               d="m 380.25,297.5 c 6.46172,-4.10203 18.75551,-21.75331 12,-46.5 -6.75597,-24.74837 -33.75,-38.25 -33.75,-38.25 0,0 -42,31.5 -57.75,50.25 l 9,23.25 36.75,27 C 358,308 365.9623,306.93154 380.25,297.5 z"
               id="path4425"
               inkscape:connector-curvature="0"
               transform="translate(29.46429,12.71933)"
               sodipodi:nodetypes="csccccc" />
            <path
               transform="matrix(0.9049033,0,0,0.9049033,172.00488,-114.07089)"
               d="m 322.2639,300.35278 c 0,4.97919 -4.03642,9.01561 -9.01561,9.01561 -4.97918,0 -9.01561,-4.03642 -9.01561,-9.01561 0,-4.97918 4.03643,-9.01561 9.01561,-9.01561 4.97919,0 9.01561,4.03643 9.01561,9.01561 z"
               sodipodi:ry="9.0156116"
               sodipodi:rx="9.0156116"
               sodipodi:cy="300.35278"
               sodipodi:cx="313.24829"
               id="path4367-4"
               style="color:#000000;fill:#d9dadc;fill-opacity:1;stroke:#000000;stroke-width:3.31527138;stroke-linecap:square;stroke-linejoin:miter;stroke-miterlimit:4;stroke-opacity:1;stroke-dasharray:none;stroke-dashoffset:0;marker:none;visibility:visible;display:inline;overflow:visible;enable-background:accumulate"
               sodipodi:type="arc" />
          </g>
          <path
             style="color:#000000;fill:#d9dadc;fill-opacity:1;stroke:#000000;stroke-width:3;stroke-linecap:butt;stroke-linejoin:miter;stroke-miterlimit:4;stroke-opacity:1;stroke-dasharray:none;stroke-dashoffset:0;marker:none;visibility:visible;display:inline;overflow:visible;enable-background:accumulate"
             d="m 426.50475,100.0562 -15.06891,-2.96231 c 0,0 -10.07283,9.91726 -5.61397,30.53947 4.45887,20.62222 27.57717,25.98618 42.95674,17.5009 15.37957,-8.48529 19.09189,-18.03123 19.09189,-18.03123 0,0 -15.90991,-19.09188 -41.36575,-27.04683 z"
             id="path4024"
             inkscape:connector-curvature="0"
             sodipodi:nodetypes="ccsscc" />
          <g
             id="g4154">
            <path
               sodipodi:nodetypes="cssssc"
               transform="translate(29.46429,12.71933)"
               inkscape:connector-curvature="0"
               id="path4017"
               d="m 390.49972,79.381917 c 0,0 0.98659,10.667262 2.12132,25.986173 1.13473,15.31891 9.54594,20.15255 20.68287,15.37957 11.13694,-4.77297 22.27387,-16.97056 30.75915,-31.819801 6,-10.5 -22.80419,-24.925514 -36.06245,-24.925514 -13.25825,0 -17.50089,15.379572 -17.50089,15.379572 z"
               style="color:#000000;fill:#fbd9c2;fill-opacity:1;stroke:#000000;stroke-width:3;stroke-linecap:butt;stroke-linejoin:miter;stroke-miterlimit:4;stroke-opacity:1;stroke-dasharray:none;stroke-dashoffset:0;marker:none;visibility:visible;display:inline;overflow:visible;enable-background:accumulate" />
            <path
               transform="translate(29.46429,12.71933)"
               sodipodi:nodetypes="ccscczcsscsszcscczcczsczscsccsc"
               inkscape:connector-curvature="0"
               id="path4019"
               d="m 398.28125,79.28125 3.4375,5.0625 c 0,0 -2.11948,5.03217 1.0625,5.5625 3.18198,0.53033 3.4375,-2.9375 3.4375,-2.9375 0,0 4.00001,2.126835 6.38649,0.270685 -3.69428,-0.678255 -4.73009,-1.552611 -6.88976,-4.40268 -2.15966,-2.85007 -6.89488,-3.555505 -7.43423,-3.555505 z m 15.54642,25.49908 c -0.47343,1.70434 -4.76517,1.34467 -5.51517,-0.53033 -0.75,-1.875 -2.4375,-4.687501 -2.8125,-4.687501 0,0 -0.75,2.625001 1.125,6.187501 1.875,3.5625 7.48116,2.73483 9.16866,1.42233 1.6875,-1.3125 1.09716,-4.42147 2.61925,-8.964842 1.5221,-4.543368 5.43084,-5.394988 5.43084,-5.394988 0,0 -1.59956,4.28326 1.625,4.375 3.68675,0.10489 3.59375,-3.875 3.59375,-3.875 l 5.75,-2.09375 c -0.4033,-0.290769 -4.60913,-2.816093 -7.90625,-2.125 -3.29712,0.691093 -6.94335,2.039342 -6.94335,2.039342 l -1.50745,-2.279982 c 0,0 -1.99679,4.154456 -2.69419,7.498223 -0.6974,3.343766 -0.99609,5.053997 -1.93359,8.428997 z M 400.625,109.0625 c 0,0 2.55601,-2.78725 4.875,0.375 2.31899,3.16225 4.875,1.3125 6.5625,2.25 1.6875,0.9375 1.5,2.0625 1.5,2.0625 0,0 -3,0 -5.25,0 -2.25,0 -5.625,-3.5625 -7.6875,-4.6875 z m 3,5.25 c 0,0 3.375,-0.1875 4.875,1.5 1.5,1.6875 -4.875,-1.5 -4.875,-1.5 z m 7.55759,-16.457418 1.06066,-6.363961 c 0,0 -3.18198,1.325825 -1.06066,6.363961 z"
               style="color:#000000;fill:#000000;stroke:none;stroke-width:1;marker:none;visibility:visible;display:inline;overflow:visible;enable-background:accumulate" />
          </g>
          <g
             id="g4008">
            <path
               style="color:#000000;fill:#d9dadc;fill-opacity:1;stroke:#000000;stroke-width:3;stroke-linecap:butt;stroke-linejoin:miter;stroke-miterlimit:4;stroke-opacity:1;stroke-dasharray:none;stroke-dashoffset:0;marker:none;visibility:visible;display:inline;overflow:visible;enable-background:accumulate"
               d="m 429,44.874999 c 0,0 -23.32413,-6.023042 -35.43074,11.440162 -5.55762,5.444595 -6.51608,21.193811 -2.49632,27.898864 0,0 5.3033,-6.465992 10.38694,-11.549622 0,0 5.3033,6.894291 14.31891,11.667262 0,0 8.48528,1.06066 21.74353,0 0,0 -1.43566,9.079951 -1.47335,16.477925 0,0 17.91358,-6.931984 14.7316,-24.963207 0,0 4.16856,-24.819662 -21.78057,-30.971384 z"
               id="path3999"
               inkscape:connector-curvature="0"
               transform="translate(29.46429,12.71933)"
               sodipodi:nodetypes="ccccccccc" />
            <path
               style="color:#000000;fill:#d9dadc;fill-opacity:1;stroke:#000000;stroke-width:3;stroke-linecap:butt;stroke-linejoin:miter;stroke-miterlimit:4;stroke-opacity:1;stroke-dasharray:none;stroke-dashoffset:0;marker:none;visibility:visible;display:inline;overflow:visible;enable-background:accumulate"
               d="m 427.62283,35.894851 c 0,0 -2.06066,-14.884957 -15.90991,-15.379573 -13.84924,-0.494616 -14.31891,18.561553 -3.18198,16.440232 11.13694,-2.12132 12.1976,8.886932 11.13694,16.841884 -1.06066,7.954951 11.66726,12.326271 16.97056,4.90165 5.3033,-7.424621 18.21368,-12.102661 19.62221,-3.181981 1.59099,10.076272 7.83363,14.884678 15.37957,9.015612 7.54595,-5.869066 3.55698,-19.557873 -7.57995,-23.800514 -10.59444,-4.035976 -19.40254,-0.21967 -24.23985,3.117641 0,0 1.77101,-12.18319 14.84924,-11.136932 13.07823,1.046258 14.31891,-5.833631 10.07627,-12.727922 -4.24264,-6.894291 -24.92551,-10.0762714 -37.1231,15.909903 z"
               id="path3997"
               inkscape:connector-curvature="0"
               transform="translate(29.46429,12.71933)"
               sodipodi:nodetypes="csssssssczsc" />
            <path
               style="color:#000000;fill:none;stroke:#000000;stroke-width:2.5;stroke-linecap:butt;stroke-linejoin:miter;stroke-miterlimit:4;stroke-opacity:1;stroke-dasharray:none;stroke-dashoffset:0;marker:none;visibility:visible;display:inline;overflow:visible;enable-background:accumulate"
               d="m 393.75,56.249999 c 0,0 1.875,9.1875 9,17.625 m 34.125,10.5 c 0,0 9.5625,-0.5625 13.875,-9.375"
               id="path4001"
               inkscape:connector-curvature="0"
               transform="translate(29.46429,12.71933)"
               sodipodi:nodetypes="cccc" />
            <path
               style="font-size:medium;font-style:normal;font-variant:normal;font-weight:normal;font-stretch:normal;text-indent:0;text-align:start;text-decoration:none;line-height:normal;letter-spacing:normal;word-spacing:normal;text-transform:none;direction:ltr;block-progression:tb;writing-mode:lr-tb;text-anchor:start;baseline-shift:baseline;color:#000000;fill:#000000;fill-opacity:1;stroke:none;stroke-width:3;marker:none;visibility:visible;display:inline;overflow:visible;enable-background:accumulate;font-family:Sans;-inkscape-font-specification:Sans"
               d="m 457.80804,45.50058 -2.90625,0.6875 c 0,0 2.10129,8.35764 1.82812,19.31388 4.14366,-12.461469 1.07813,-20.00138 1.07813,-20.00138 z m 14.3125,10.1875 -2.39017,-3.71599 c -4.27474,5.625046 -8.18045,9.927483 -8.43796,15.294115 2.95809,-5.093824 7.1454,-7.969363 10.82813,-11.578125 z"
               id="path4013"
               inkscape:connector-curvature="0"
               sodipodi:nodetypes="cccccccc" />
          </g>
        </g>
        <g
           id="g4715">
          <path
             sodipodi:nodetypes="csscsssscccccccccccccccc"
             transform="translate(29.46429,12.71933)"
             inkscape:connector-curvature="0"
             id="path4713"
             d="m 413,570.75 c 0,0 15,12 29.25,2.25 14.25,-9.75 7.5,-38.25 9.75,-56.25 2.25,-18 19.5,-30 30.75,-16.5 0,0 -18,4.5 -12.75,14.25 5.25,9.75 17.25,4.5 27,-3 9.75,-7.5 39.60598,-24 88.5,-24 49.5,0 57.13462,16.75 60.75,28.5 3.61538,11.75 -4.5,19.5 -4.5,19.5 0,0 0.75,-16.5 -12,-24 0,0 -27,-3 -20.25,30 0,0 21.62132,22.11396 10.5,37.5 -1.90344,-5.25 -2.84195,-10.5 -6,-15.75 0,0 -27,-11.25 -22.5,25.5 0,0 14.84407,18.84068 6.35878,37.93257 0,0 -3.71231,-15.90991 -6.36396,-20.15255 0,0 -14.84924,0.53033 -18.03122,15.90991 0,0 6.89429,18.03122 -2.65165,30.22881 l -2.12132,-18.03122 c 0,0 -20.15254,-7.42462 -31.28948,9.01561 0,0 1.59099,13.78858 -9.54594,22.27386 l -0.53033,-21.2132 c 0,0 -47.57488,-49.96379 -105.32488,-6.46379 z"
             style="color:#000000;fill:#008022;fill-opacity:1;stroke:#000000;stroke-width:3;stroke-linecap:butt;stroke-linejoin:miter;stroke-miterlimit:4;stroke-opacity:1;stroke-dasharray:none;stroke-dashoffset:0;marker:none;visibility:visible;display:inline;overflow:visible;enable-background:accumulate" />
          <path
             style="color:#000000;fill:none;stroke:#000000;stroke-width:2.5;stroke-linecap:butt;stroke-linejoin:miter;stroke-miterlimit:4;stroke-opacity:1;stroke-dasharray:none;stroke-dashoffset:0;marker:none;visibility:visible;display:inline;overflow:visible;enable-background:accumulate"
             d="m 422.75,634.5 c 0,0 17.25,-40.5 51,-39 33.75,1.5 54.9375,31.125 53.8125,50.625 m 9.66188,-1.58799 c 0,0 -6.89429,-42.4264 -64.16994,-71.59456 0,0 31.8198,-0.53033 59.39697,15.9099 27.57716,16.44024 36.06244,33.94113 37.1231,48.79037 m 3.71231,-14.84924 c -4.44833,-13.13931 -15.9099,-44.54773 -95.98974,-64.16994 0,0 39.91731,-3.30458 74.77654,12.19759 38.36575,17.06155 40.30509,37.65344 40.30509,37.65344 m -1.08211,-19.62222 c 0,0 -18.4108,-36.46409 -108.25168,-41.05508 0,0 33.03414,-14.93305 71.34824,-12.88325 51.98339,2.7811 60.27013,28.88966 60.27013,28.88966 m -4.39797,-21.24537 c -12.59481,-12.59481 -34.00526,-18.96853 -62.61112,-17.8759 -28.63657,1.0938 -63.01829,10.23161 -63.01829,10.23161 0,0 24.86409,-25.16402 74.36409,-32.66402 49.5,-7.5 64.875,4.5 71.625,9.75"
             id="path4718"
             inkscape:connector-curvature="0"
             transform="translate(29.46429,12.71933)"
             sodipodi:nodetypes="cscccscccscccsccscsc" />
          <path
             style="font-size:medium;font-style:normal;font-variant:normal;font-weight:normal;font-stretch:normal;text-indent:0;text-align:start;text-decoration:none;line-height:normal;letter-spacing:normal;word-spacing:normal;text-transform:none;direction:ltr;block-progression:tb;writing-mode:lr-tb;text-anchor:start;baseline-shift:baseline;color:#000000;fill:#000000;fill-opacity:1;stroke:none;stroke-width:3;marker:none;visibility:visible;display:inline;overflow:visible;enable-background:accumulate;font-family:Sans;-inkscape-font-specification:Sans"
             d="m 517.43304,547.78183 -0.53125,-3.9375 c -3.76606,1.66645 -7.58861,5.92966 -10.45313,8.04688 z m -2.00005,14.0938 0.1875,-3.75005 c -5.05617,0.63754 -12.66268,5.18428 -12.66268,5.18428 0,0 10.71978,-1.19574 12.47518,-1.43423 z m -4.53125,11.6562 1.88833,-3.49908 c -8.4967,-0.40165 -12.17765,0.34291 -16.45726,1.74632 z m -5.5,14.53125 2.26333,-3.10892 c -6.51915,-1.69825 -9.06081,-0.90547 -12.92831,-1.24954 3.55217,1.45188 5.01573,2.20756 10.66498,4.35846 z"
             id="path4720"
             inkscape:connector-curvature="0"
             sodipodi:nodetypes="cccccccccccccccc" />
          <path
             style="color:#000000;fill:#8e4923;fill-opacity:1;stroke:#000000;stroke-width:3;stroke-linecap:butt;stroke-linejoin:miter;stroke-miterlimit:4;stroke-opacity:1;stroke-dasharray:none;stroke-dashoffset:0;marker:none;visibility:visible;display:inline;overflow:visible;enable-background:accumulate"
             d="m 360.75,453 c 0,0 12,6.75 20.25,21.75 8.25,15 20.25,12.75 25.5,23.25 5.25,10.5 -24.75,38.25 -24.75,38.25 l 15,15 c 0,0 25.5,-29.25 36,-31.5 10.5,-2.25 11.25,-13.5 11.25,-13.5 0,0 4.5,-2.25 4.5,-10.5 0,0 -21.75,-10.5 -5.25,-31.5 C 459.75,443.25 423,432 423,432 z"
             id="path4724"
             inkscape:connector-curvature="0"
             transform="translate(29.46429,12.71933)" />
          <path
             style="color:#000000;fill:none;stroke:#000000;stroke-width:3;stroke-linecap:butt;stroke-linejoin:miter;stroke-miterlimit:4;stroke-opacity:1;stroke-dasharray:none;stroke-dashoffset:0;marker:none;visibility:visible;display:inline;overflow:visible;enable-background:accumulate"
             d="m 384.75,447.75 c 0,0 6.75,4.5 12.75,17.25 12.02592,-4.57959 17.07372,-14.63634 30.75,-14.25"
             id="path4726"
             inkscape:connector-curvature="0"
             transform="translate(29.46429,12.71933)"
             sodipodi:nodetypes="ccc" />
        </g>
        <g
           id="g4276">
          <g
             id="g4291">
            <path
               style="color:#000000;fill:#8e4923;fill-opacity:1;stroke:#000000;stroke-width:3;stroke-linecap:butt;stroke-linejoin:miter;stroke-miterlimit:4;stroke-opacity:1;stroke-dasharray:none;stroke-dashoffset:0;marker:none;visibility:visible;display:inline;overflow:visible;enable-background:accumulate"
               d="m 125.86501,346.66828 c 0,0 -12.19759,6.89429 -32.880468,5.83363 -20.682874,-1.06066 -28.637825,5.3033 -30.228815,19.62222 -1.59099,14.31891 -14.318912,34.47145 -23.864854,41.89607 -9.545942,7.42462 -11.136932,11.66726 -8.485281,21.21321 2.65165,9.54594 -2.651651,19.62221 -7.424622,23.86485 -4.77297,4.24264 -4.24264,12.72792 -4.24264,12.72792 0,0 -6.894291,12.72792 1.06066,22.8042 0,0 22.804194,-6.36397 33.410795,-25.45585 0,0 -1.06066,-5.83363 -6.894291,-10.6066 0,0 0,-3.18198 -3.18198,-10.07627 -3.181981,-6.89429 4.24264,-13.25825 10.076271,-11.66726 5.833631,1.59099 9.545942,-8.48529 7.954952,-15.90991 -1.590991,-7.42462 10.076271,-28.63782 25.455844,-32.88046 15.379569,-4.24264 20.682869,6.36396 36.592779,11.66726 15.9099,5.3033 23.86485,5.3033 30.75914,-0.53033 6.89429,-5.83363 -28.10749,-52.50268 -28.10749,-52.50268 z"
               id="path4302"
               inkscape:connector-curvature="0"
               transform="translate(29.46429,12.71933)" />
            <path
               style="color:#000000;fill:#8e4923;fill-opacity:1;stroke:#000000;stroke-width:3;stroke-linecap:butt;stroke-linejoin:miter;stroke-miterlimit:4;stroke-opacity:1;stroke-dasharray:none;stroke-dashoffset:0;marker:none;visibility:visible;display:inline;overflow:visible;enable-background:accumulate"
               d="m 135.94128,137.01112 c -12.19759,9.54594 -24.39519,8.48528 -25.45585,7.95495 0,0 -1.59099,6.89429 8.48529,11.13693 0,0 -16.44024,13.25826 -33.410799,12.72793 0,0 0,7.95495 9.545941,12.19759 0,0 -27.046834,7.95495 -40.305086,31.8198 0,0 20.682873,-5.3033 34.471455,-5.83363 -17.076225,16.09834 -32.217246,34.36206 -59.9273,44.0174 0,0 7.424622,13.78858 23.334524,10.6066 0,0 -21.213203,25.98617 -23.864854,52.50268 0,0 45.608388,-34.47146 97.580739,-33.94113 l 34.64823,-158.83385 c 0,0 -12.9047,6.09879 -25.10229,15.64473 z"
               id="path4298"
               inkscape:connector-curvature="0"
               transform="translate(29.46429,12.71933)"
               sodipodi:nodetypes="scccccccccccs" />
            <path
               sodipodi:nodetypes="cccccczssscczccscsscsssccsccscccsscscscssssccccssssccc"
               transform="translate(29.46429,12.71933)"
               inkscape:connector-curvature="0"
               id="path4289"
               d="M 245.71961,240.42549 C 231.93102,205.4237 234.05234,172.54324 234.05234,172.54324 L 166.8772,116.32825 C 166.8772,116.32825 107.5,159.5 127,293 l -3.5,13.5 c 0,0 -19.62132,56.34835 29.87868,102.84835 -5.36679,9.47028 -11.1835,16.3052 -9.48245,28.18315 1.70105,11.87795 4.77297,24.39519 0,33.94113 -4.77297,9.54594 -10.77354,14.63333 -10.07627,24.39518 0.75282,10.53954 6.69812,15.04002 3.71231,26.51651 -3.52203,13.53756 0,20.15254 0,20.15254 -0.61618,3.34543 -0.6631,7.73302 -0.6631,7.73302 0,0 6.45534,12.64808 19.846,4.9949 13.39066,-7.65318 12.1066,-28.63782 12.1066,-28.63782 -2.65165,-2.65165 -5.83363,-4.77297 -5.83363,-4.77297 0,0 -2.12132,-6.36396 -7.95495,-6.89429 -5.83363,-0.53033 -5.3033,-9.01562 -5.3033,-9.01562 9.54594,-3.18198 14.84924,-12.72792 10.6066,-21.2132 -4.24264,-8.48528 -2.12132,-26.5165 5.83363,-33.4108 7.95496,-6.89429 9.01562,-12.19759 9.01562,-12.19759 5.83363,-2.12132 19.62221,-0.53033 36.59277,7.95495 16.97056,8.48529 32.96097,4.99878 41.92273,8.04595 11.9519,4.06387 12.58701,8.78638 19.80419,7.02297 4.25879,-1.04057 6.67444,-6.12461 8.8995,-8.99816 52.31353,4.66822 105.39449,0.19653 132.5951,-12.6482 0,0 11.73894,29.73519 46.74073,28.67453 0,0 10.6066,16.97056 29.69848,23.33452 19.09189,6.36397 12.72793,58.33631 8.48528,71.06424 C 495.68185,576.30121 482,580 477.5,592 c -4.5,12 3,16.5 -7.5,21.75 -10.47855,5.23927 -9.75,12 -9.75,12 0,0 -6.75,4.5 -8.25,14.25 7.5,12.75 29.25,12 41.25,3 l -0.75,-11.25 c 0,0 4.5,-6 0.75,-10.5 -3.65662,-4.38795 -4.75,-11.92308 6,-12.75 10.75,-0.82692 12.26063,-16.52854 10.5,-24.75 -2.25245,-10.51806 15.89724,-53.53675 25.5,-65.25 13,-15.85714 14.25,-26.25 12,-37.5 0,0 -15.75,-3.75 -19.5,-15 -2.38354,-7.15061 3,-13.5 -3,-30.75 0,0 17.24735,-37.84681 17.24735,-66.48463 0,-28.63783 -26.51651,-56.21499 -26.51651,-56.21499 0,0 19.09189,-18.03122 38.18377,-6.36396 19.09188,11.66726 5.3033,35.00178 3.18198,63.63961 -2.12132,28.63782 14.84924,50.91169 24.39518,56.21499 0,0 -2.74177,-9.04102 1.00823,-23.29102 0,0 18.75,39.75 54,42.75 0,0 -14.09394,-17.6731 -12,-39 2.74905,-27.99923 -0.75,-44.25 -0.75,-44.25 0,0 6.56802,4.00736 9.75,20.25 0,0 22.93469,-47.45393 -5.33918,-85.15242 -28.27386,-37.69848 -86.97413,-50.91169 -129.40054,3.18198 0,0 -53.38656,-14.84924 -101.11627,3.18198 L 357,313 z"
               style="color:#000000;fill:#8e4923;fill-opacity:1;stroke:#000000;stroke-width:3;stroke-linecap:butt;stroke-linejoin:miter;stroke-miterlimit:4;stroke-opacity:1;stroke-dasharray:none;stroke-dashoffset:0;marker:none;visibility:visible;display:inline;overflow:visible;enable-background:accumulate" />
            <path
               style="font-size:medium;font-style:normal;font-variant:normal;font-weight:normal;font-stretch:normal;text-indent:0;text-align:start;text-decoration:none;line-height:normal;letter-spacing:normal;word-spacing:normal;text-transform:none;direction:ltr;block-progression:tb;writing-mode:lr-tb;text-anchor:start;baseline-shift:baseline;color:#000000;fill:#000000;fill-opacity:1;stroke:none;stroke-width:2.5;marker:none;visibility:visible;display:inline;overflow:visible;enable-background:accumulate;font-family:Sans;-inkscape-font-specification:Sans"
               d="m 225.79379,199.04786 c 10.58507,-0.68672 16.47667,-2.75248 20.26425,-9.45358 l -2.1875,-1.25 0,5e-5 c -3.10671,5.49649 -10.60417,7.75662 -17.53125,8.46875 -6.92708,0.71213 -14.52896,-0.68428 -14.52896,-0.68428 0,0 4.69494,3.52167 13.98346,2.91906 z m 65.13925,197.17147 c -6.71025,-0.38529 -12.59225,0.90457 -17.4375,2.78125 -9.69049,3.75336 -15.84283,8.87684 -15.84283,8.87684 l 3.69991,1.15717 c 0,0 3.91295,-4.18283 13.04917,-7.72151 9.13622,-3.53868 22.02353,-4.8821 38.25,3.14063 -6.42351,-6.86914 -15.0085,-7.84909 -21.71875,-8.23438 z m 166.5,16.3125 c -1.08963,4.7818 -4.22779,10.37513 -9.34375,16.34375 -10.94813,12.77282 -2.53125,28.84375 -2.53125,28.84375 l 2.21875,-1.15625 c 0,0 -7.67053,-14.56146 2.1875,-26.0625 5.28712,-6.16831 8.68168,-12.03227 9.90625,-17.40625 1.22457,-5.37398 0.17904,-10.31384 -4.20313,-13.21875 1.9818,3.98939 2.85526,7.87445 1.76563,12.65625 z m -137.1875,41.84375 c -3.54429,3.89462 -7.8064,6.46443 -11.03125,12.34375 l 2.1875,1.1875 c 2.92341,-5.32975 6.86133,-7.63939 10.6875,-11.84375 3.82617,-4.20436 8.32369,-9.15428 7.54687,-22.59375 -2.70913,11.71646 -5.84633,17.01163 -9.39062,20.90625 z"
               id="path4294"
               inkscape:connector-curvature="0"
               sodipodi:nodetypes="scccscsssccscsssccsscssccscs" />
            <path
               style="color:#000000;fill:none;stroke:#000000;stroke-width:2.5;stroke-linecap:butt;stroke-linejoin:miter;stroke-miterlimit:4;stroke-opacity:1;stroke-dasharray:none;stroke-dashoffset:0;marker:none;visibility:visible;display:inline;overflow:visible;enable-background:accumulate"
               d="m 18.826718,471.56102 c 0,0 18.031223,2.65165 27.577165,-13.25826 M 138.125,542.375 c 0,0 20.25,4.875 24.75,-20.625 m 11.90533,-81.7045 c 0,0 1.80285,-12.53033 12.30285,-11.03033 10.5,1.5 27.29182,12.48483 48.29182,15.48483 21,3 36.50756,-7.14527 33.32558,-25.70683 -3.18198,-18.56155 -27.57717,-29.16815 -56.21499,-19.62221 -25.97265,8.65755 -45.87356,-3.97748 -59.66214,10.87176 M 460.0795,626.10983 c 0,0 19.9205,0.64017 32.2955,7.01517"
               id="path4304"
               inkscape:connector-curvature="0"
               transform="translate(29.46429,12.71933)"
               sodipodi:nodetypes="cccccssssccc" />
          </g>
          <g
             id="g4210">
            <path
               style="color:#000000;fill:#8e4923;fill-opacity:1;stroke:#000000;stroke-width:3;stroke-linecap:butt;stroke-linejoin:miter;stroke-miterlimit:4;stroke-opacity:1;stroke-dasharray:none;stroke-dashoffset:0;marker:none;visibility:visible;display:inline;overflow:visible;enable-background:accumulate"
               d="m 200.23058,126.92626 c 0,0 10.07627,-25.98618 37.65343,-42.95674 0,0 3.97748,10.606602 -0.26517,25.72101 l 3.19412,-0.25237 c 4.06861,-8.66573 10.86928,-13.627825 19.34492,-16.453038 0,0 -0.15533,9.481598 -4.9283,20.618528 0,0 10.23698,3.25 17.65622,17.09925 7.41924,13.84924 22.29683,20.12621 29.13047,22.61117 6.83363,2.48496 7.5533,11.51193 7.5533,11.51193 l 5.3033,5.83363 c 0,0 6.8033,0.28401 6.8033,7.1783 0,6.8943 -5.83363,9.54595 -5.83363,9.54595 0,0 3.71231,11.13693 -10.6066,12.19759 0,0 0.35355,7.24785 -10.25305,8.30851 -10.60661,1.06066 -16.97057,-13.78858 -23.86486,-15.37957 -4.78716,-1.10473 -32.29685,-4.39317 -32.29685,-4.39317 0,0 -8.6219,2.01914 -19.73189,0.47709 -11.10999,-1.54205 -37.34242,-14.96114 -18.85871,-61.66807 z"
               id="path4160"
               inkscape:connector-curvature="0"
               sodipodi:nodetypes="ccccccssccsccssczc" />
            <path
               style="color:#000000;fill:none;stroke:#000000;stroke-width:2.5;stroke-linecap:butt;stroke-linejoin:miter;stroke-miterlimit:4;stroke-opacity:1;stroke-dasharray:none;stroke-dashoffset:0;marker:none;visibility:visible;display:inline;overflow:visible;enable-background:accumulate"
               d="m 256.00979,114.09433 c 0,0 -9.13649,-4.14385 -17.716,-3.81434 -8.57951,0.32951 -13.7603,3.00198 -17.2045,4.93934 -4.6414,2.61079 -7.5,7.125 -5.25,11.25 1.11374,2.04185 4.34077,2.52171 8.13474,2.57659 m 83.24026,70.17341 c -10.34623,0.73902 -16.16903,-2.80935 -21,-6 m -50.25,-4.6875 c 0,0 14.625,-2.4375 17.625,-20.4375"
               id="path4184"
               inkscape:connector-curvature="0"
               sodipodi:nodetypes="czssccccc" />
            <path
               style="font-size:medium;font-style:normal;font-variant:normal;font-weight:normal;font-stretch:normal;text-indent:0;text-align:start;text-decoration:none;line-height:normal;letter-spacing:normal;word-spacing:normal;text-transform:none;direction:ltr;block-progression:tb;writing-mode:lr-tb;text-anchor:start;baseline-shift:baseline;color:#000000;fill:#000000;fill-opacity:1;stroke:none;stroke-width:2.5;marker:none;visibility:visible;display:inline;overflow:visible;enable-background:accumulate;font-family:Sans;-inkscape-font-specification:Sans"
               d="m 250.99554,143.81308 c 2.93682,0.43039 6.12939,0.29663 8.75766,-1.21631 2.17136,-1.21586 3.46304,-3.63506 3.56491,-6.08651 0.24948,-2.82847 -1.089,-5.6211 -3.1994,-7.46143 -2.91708,-2.55303 -6.65055,-4.99382 -12.92534,-3.3271 3.9533,1.16124 7.30428,2.28843 10.31211,4.44139 1.83157,1.30645 3.39673,3.32989 3.33381,5.68121 0.0641,1.69101 -0.5972,3.49877 -2.08575,4.41876 -2.0916,1.30075 -4.42613,1.8937 -7.07151,-0.4466 z m 1.46875,19.28125 c 0,0 3.75,-5.25 11.25,-5.625 0,0 -6,3.375 -9,8.625 z"
               id="path4188"
               inkscape:connector-curvature="0"
               sodipodi:nodetypes="cccccccccccccc" />
            <g
               id="g4190">
              <path
                 id="path4180"
                 d="m 223.97403,129.04592 c 3.87069,0.056 8.33148,-0.33034 11.74026,0.0484 6.75,0.75 14.25,7.875 16.125,13.5 0,0 -9.125,4.75001 -18.5,1.00001 -9.375,-3.75 -9.36526,-14.54841 -9.36526,-14.54841 z"
                 style="color:#000000;fill:#d9dadc;fill-opacity:1;stroke:#000000;stroke-width:2.5;stroke-linecap:butt;stroke-linejoin:miter;stroke-miterlimit:4;stroke-opacity:1;stroke-dasharray:none;stroke-dashoffset:0;marker:none;visibility:visible;display:inline;overflow:visible;enable-background:accumulate"
                 inkscape:connector-curvature="0" />
              <path
                 sodipodi:nodetypes="cssc"
                 inkscape:connector-curvature="0"
                 id="path4186"
                 d="m 235.42262,130.09433 c 0,0 -3.09949,3.375 -1.75692,10.125 1.34256,6.75 7.37243,7.50015 10.99743,0.75 2.8186,-5.24854 -0.51384,-12 -9.24051,-10.875 z"
                 style="color:#000000;fill:#000000;stroke:none;stroke-width:3;marker:none;visibility:visible;display:inline;overflow:visible;enable-background:accumulate" />
            </g>
            <path
               sodipodi:nodetypes="ccccccccccccc"
               inkscape:connector-curvature="0"
               id="path4208"
               d="m 299.61378,180.43952 c -1.73094,-2.76727 -2.1362,-5.19687 -1.34038,-8.38163 0.29885,-1.35 1.31606,-2.6659 2.77717,-2.78426 1.86027,-0.1575 3.38204,1.39747 3.96805,3.03921 0.54924,1.43982 0.31408,1.95291 0.16447,3.46894 1.05449,1.32503 1.96436,2.78598 3.5,4.03125 0.36535,-1.91 -0.47634,-3.37348 -1.5,-4.6875 0.16836,-2.81342 -0.58293,-5.94319 -2.87703,-7.77021 -0.91095,-0.71919 -2.05202,-1.15429 -3.21677,-1.16724 -2.06294,-0.0674 -3.91639,1.40709 -4.6456,3.28276 -1.40199,3.61109 -0.80414,7.77843 0.97719,11.14883 1.61579,3.09982 4.67135,5.5331 8.5451,4.94922 -2.40944,-1.13588 -4.926,-2.80352 -6.3522,-5.12937 z"
               style="font-size:medium;font-style:normal;font-variant:normal;font-weight:normal;font-stretch:normal;text-indent:0;text-align:start;text-decoration:none;line-height:normal;letter-spacing:normal;word-spacing:normal;text-transform:none;direction:ltr;block-progression:tb;writing-mode:lr-tb;text-anchor:start;baseline-shift:baseline;color:#000000;fill:#000000;fill-opacity:1;stroke:none;stroke-width:2;marker:none;visibility:visible;display:inline;overflow:visible;enable-background:accumulate;font-family:Sans;-inkscape-font-specification:Sans" />
          </g>
          <g
             id="g4221">
            <path
               sodipodi:nodetypes="ccccccccccsccsccccccccccccc"
               transform="translate(29.46429,12.71933)"
               inkscape:connector-curvature="0"
               id="path4224"
               d="m 173.75,108.5 c 0,0 30.75,35.25 63.75,48.75 0,0 2.25,-19.5 18.75,-24.75 l 8.625,4.875 c 0,0 -17.625,6.375 -19.125,24.375 l 9,4.40901 -8.25,6.09099 c 0,0 -58.125,-21.375 -80.625,-55.875 0,0 2.125,-5.875 7.875,-7.875 z m 72.25,65 c 0,0 -10.87455,27.59525 -46.5,65.25 -33.96817,35.90307 -73.5,51.375 -73.5,51.375 0,0 -6,5.625 -3,16.875 0,0 55.43418,-24.88967 90.75,-65.25 C 252.03182,198 256.5,178 256.5,178 z m 49.39386,148.59632 c -53.03301,1.59099 -103.59115,27.04683 -103.59115,27.04683 0.53033,20.15255 10.87177,51.70719 10.87177,51.70719 -5.83363,1.59098 -13.52342,1.32582 -13.52342,1.32582 -12.19759,-27.57716 -10.07627,-49.85102 -10.07627,-49.85102 -20.68287,-12.72793 -59.9273,-21.74354 -59.9273,-21.74354 -3.18198,-9.54594 1.06066,-13.25825 1.06066,-13.25825 0,0 40.30509,9.01561 60.98796,23.33452 l 5.48008,-0.53033 c 0,0 36.06245,-30.75914 109.248,-29.69848 z"
               style="color:#000000;fill:#d9dadc;fill-opacity:1;stroke:#000000;stroke-width:3;stroke-linecap:butt;stroke-linejoin:miter;stroke-miterlimit:4;stroke-opacity:1;stroke-dasharray:none;stroke-dashoffset:0;marker:none;visibility:visible;display:inline;overflow:visible;enable-background:accumulate" />
            <path
               sodipodi:type="arc"
               style="color:#000000;fill:#d9dadc;fill-opacity:1;stroke:#000000;stroke-width:3;stroke-linecap:square;stroke-linejoin:miter;stroke-miterlimit:4;stroke-opacity:1;stroke-dasharray:none;stroke-dashoffset:0;marker:none;visibility:visible;display:inline;overflow:visible;enable-background:accumulate"
               id="path4219"
               sodipodi:cx="253.25"
               sodipodi:cy="173.375"
               sodipodi:rx="9"
               sodipodi:ry="9.375"
               d="m 262.25,173.375 c 0,5.17767 -4.02944,9.375 -9,9.375 -4.97056,0 -9,-4.19733 -9,-9.375 0,-5.17767 4.02944,-9.375 9,-9.375 4.97056,0 9,4.19733 9,9.375 z"
               transform="translate(30.21429,11.96933)" />
            <path
               transform="matrix(1.367816,0,0,1.367816,-133.43514,120.69921)"
               d="m 262.25,173.375 c 0,5.17767 -4.02944,9.375 -9,9.375 -4.97056,0 -9,-4.19733 -9,-9.375 0,-5.17767 4.02944,-9.375 9,-9.375 4.97056,0 9,4.19733 9,9.375 z"
               sodipodi:ry="9.375"
               sodipodi:rx="9"
               sodipodi:cy="173.375"
               sodipodi:cx="253.25"
               id="path4306"
               style="color:#000000;fill:#d9dadc;fill-opacity:1;stroke:#000000;stroke-width:2.19327736;stroke-linecap:square;stroke-linejoin:miter;stroke-miterlimit:4;stroke-opacity:1;stroke-dasharray:none;stroke-dashoffset:0;marker:none;visibility:visible;display:inline;overflow:visible;enable-background:accumulate"
               sodipodi:type="arc" />
          </g>
        </g>
        <g
           id="g4362">
          <path
             style="color:#000000;fill:#d9dadc;fill-opacity:1;stroke:#000000;stroke-width:3;stroke-linecap:butt;stroke-linejoin:miter;stroke-miterlimit:4;stroke-opacity:1;stroke-dasharray:none;stroke-dashoffset:0;marker:none;visibility:visible;display:inline;overflow:visible;enable-background:accumulate"
             d="m 365.92776,430.28366 14.31891,-23.86486 10.07627,2.12132 0,-10.6066 7.95496,-5.83363 -8.48529,-4.24264 -1.06066,-11.66726 -9.54594,6.89429 -8.48528,-2.12132 0.53033,10.6066 -8.48528,5.3033 9.01561,5.3033 -12.72792,22.8042 z"
             id="path4423"
             inkscape:connector-curvature="0"
             transform="translate(29.46429,12.71933)"
             sodipodi:nodetypes="cccccccccccccc" />
          <path
             sodipodi:nodetypes="ccccscssccccccsccccc"
             inkscape:connector-curvature="0"
             id="path4308"
             d="m 350.81066,373.25 c 39,-1.5 55.28033,-11.34099 55.28033,-11.34099 2.25,-11.25 -1.36278,-49.47627 -8.84099,-62.03401 -2.96081,-4.97193 -10.5,-6.375 -19.875,-0.75 C 368,304.75 363,303.25 363,303.25 c 0,0 18.875,-33.4 -6.375,-43.5 -25.25,-10.1 -44.5017,11.34885 -44.5017,11.34885 -37.1231,-32.35014 -67.84297,-34.72017 -67.84297,-34.72017 3.45323,11.47686 6.79361,13.1962 10.27811,22.07803 0,0 28.63783,9.01561 40.30509,40.30509 0,0 -4.41942,10.07627 -0.70711,29.16815 0,0 -9.01561,9.01561 -9.54594,16.97056 0,0 7.42462,10.07628 18.03122,14.31892 7.23475,29.99308 29.2421,48.68285 39.3583,75.65189 0,0 -0.6442,9.55447 -6.47783,17.50942 -5.83363,7.95496 -5.83363,14.31892 -5.83363,14.31892 0,0 1.06066,6.89429 7.42462,12.72792 22.87982,-0.57605 29.93778,-10.02328 29.69848,-27.57717 0.96977,-10.03834 7.36283,-22.42833 -2.65165,-25.45584 C 354.1562,403.0088 359.82808,396.77432 350.81066,373.25 z"
             style="color:#000000;fill:#d9dadc;fill-opacity:1;stroke:#000000;stroke-width:3;stroke-linecap:butt;stroke-linejoin:miter;stroke-miterlimit:4;stroke-opacity:1;stroke-dasharray:none;stroke-dashoffset:0;marker:none;visibility:visible;display:inline;overflow:visible;enable-background:accumulate"
             transform="translate(29.46429,12.71933)" />
          <path
             style="color:#000000;fill:none;stroke:#000000;stroke-width:2.5;stroke-linecap:butt;stroke-linejoin:miter;stroke-miterlimit:4;stroke-opacity:1;stroke-dasharray:none;stroke-dashoffset:0;marker:none;visibility:visible;display:inline;overflow:visible;enable-background:accumulate"
             d="m 294.71967,299.89017 c 0,0 5.31434,-17.03034 18.43934,-29.40534 m -12.01731,87.85071 c 0,0 21.45953,4.74632 35.97146,-6.0533 0,0 1.90165,-3.58363 5.3033,-9.8566 l -3.24632,-9.07995 c -22.97056,-18.25089 -45.01372,-5.23896 -45.01372,-5.23896 M 337,352.875 c 0,0 6.75,4.125 13.875,21.375 M 338.25,333.375 c 0,0 13.125,-12 25.5,-31.875 m -21.5,133 c 0,0 14.625,3.75 21.75,-8.25"
             id="path4365"
             inkscape:connector-curvature="0"
             transform="translate(29.46429,12.71933)"
             sodipodi:nodetypes="ccccccc" />
          <path
             style="color:#000000;fill:#d9dadc;fill-opacity:1;stroke:#000000;stroke-width:3;stroke-linecap:butt;stroke-linejoin:miter;stroke-miterlimit:4;stroke-opacity:1;stroke-dasharray:none;stroke-dashoffset:0;marker:none;visibility:visible;display:inline;overflow:visible;enable-background:accumulate"
             d="m 438.25,359.75 c 0,0 -34.5,-69 -45,-84 0,0 1.875,-10.875 0,-20.625 0,0 60,111.375 60,112.875 0,1.5 -15,-8.25 -15,-8.25 z"
             id="path4421"
             inkscape:connector-curvature="0"
             transform="translate(29.46429,12.71933)"
             sodipodi:nodetypes="cccsc" />
          <g
             id="g4369"
             transform="translate(-0.53032937,-1.0606616)">
            <path
               style="color:#000000;fill:#dcdddf;fill-opacity:1;stroke:#000000;stroke-width:3;stroke-linecap:butt;stroke-linejoin:miter;stroke-miterlimit:4;stroke-opacity:1;stroke-dasharray:none;stroke-dashoffset:0;marker:none;visibility:visible;display:inline;overflow:visible;enable-background:accumulate"
               d="m 366.28131,322.09632 6.89429,1.06066 c 0,0 100.05561,53.03301 117.55651,62.04862 17.50089,9.01561 22.80419,22.80419 22.80419,22.80419 0,0 -22.27386,-1.59099 -44.0174,-12.19759 -21.74353,-10.6066 -107.657,-58.33631 -107.657,-58.33631 l -4.24264,-4.24264 -44.54773,-25.98617 7.51301,-10.6066 z"
               id="path4392"
               inkscape:connector-curvature="0"
               transform="translate(29.99462,13.77999)"
               sodipodi:nodetypes="ccscsccccc" />
            <path
               transform="translate(29.46429,12.71933)"
               d="m 322.2639,300.35278 c 0,4.97919 -4.03642,9.01561 -9.01561,9.01561 -4.97918,0 -9.01561,-4.03642 -9.01561,-9.01561 0,-4.97918 4.03643,-9.01561 9.01561,-9.01561 4.97919,0 9.01561,4.03643 9.01561,9.01561 z"
               sodipodi:ry="9.0156116"
               sodipodi:rx="9.0156116"
               sodipodi:cy="300.35278"
               sodipodi:cx="313.24829"
               id="path4367"
               style="color:#000000;fill:#d9dadc;fill-opacity:1;stroke:#000000;stroke-width:3;stroke-linecap:square;stroke-linejoin:miter;stroke-miterlimit:4;stroke-opacity:1;stroke-dasharray:none;stroke-dashoffset:0;marker:none;visibility:visible;display:inline;overflow:visible;enable-background:accumulate"
               sodipodi:type="arc" />
            <path
               style="color:#000000;fill:#d9dadc;fill-opacity:1;stroke:#000000;stroke-width:3;stroke-linecap:butt;stroke-linejoin:miter;stroke-miterlimit:4;stroke-opacity:1;stroke-dasharray:none;stroke-dashoffset:0;marker:none;visibility:visible;display:inline;overflow:visible;enable-background:accumulate"
               d="m 396.80626,322.61806 -5.3033,18.03122 -14.31891,15.9099 c 0,0 5.83363,6.89429 15.37957,6.89429 l 4.24264,-19.62221 12.72793,-13.78858 c 0,0 -2.12133,-5.83363 -12.72793,-7.42462 z"
               id="path4372"
               inkscape:connector-curvature="0" />
          </g>
        </g>
        <g
           id="g4054">
          <path
             style="font-size:medium;font-style:normal;font-variant:normal;font-weight:normal;font-stretch:normal;text-indent:0;text-align:start;text-decoration:none;line-height:normal;letter-spacing:normal;word-spacing:normal;text-transform:none;direction:ltr;block-progression:tb;writing-mode:lr-tb;text-anchor:start;baseline-shift:baseline;color:#000000;fill:#000000;fill-opacity:1;stroke:none;stroke-width:9;marker:none;visibility:visible;display:inline;overflow:visible;enable-background:accumulate;font-family:Sans;-inkscape-font-specification:Sans"
             d="M 351.24886,492.34199 387.53125,40.875 c -2.30917,-2.301661 -5.69592,-2.120586 -8.96875,-0.78125 l -40.21524,451.1741 c 4.10676,0.16427 8.11555,0.23057 12.9016,1.07414 z"
             id="path4105"
             inkscape:connector-curvature="0"
             sodipodi:nodetypes="ccccc" />
          <g
             id="g4084">
            <path
               style="color:#000000;fill:#fbd9c2;fill-opacity:1;stroke:#000000;stroke-width:3;stroke-linecap:butt;stroke-linejoin:miter;stroke-miterlimit:4;stroke-opacity:1;stroke-dasharray:none;stroke-dashoffset:0;marker:none;visibility:visible;display:inline;overflow:visible;enable-background:accumulate"
               d="m 323.67813,76.55349 c 0,0 -9.01561,-4.772971 -4.77297,-18.561553 0,0 8.48528,-6.363961 13.78858,-8.485281 0,0 11.13693,-1.06066 18.56155,-0.53033 7.42463,0.53033 10.60661,6.894291 10.07628,12.727922 0,0 2.65165,4.242641 0,9.015611 0,0 1.06066,3.181981 -1.59099,6.894291 0,0 1.46231,10.617641 -8.0193,10.231602 0,0 0.77665,-6.235281 -0.93198,-8.640611 -5.83363,-0.53033 -13.32259,1.06066 -17.56523,-5.303301 0,0 -4.77297,0.530329 -9.54594,2.65165 z"
               id="path4028"
               inkscape:connector-curvature="0"
               transform="translate(29.46429,12.71933)"
               sodipodi:nodetypes="cccsccccccc" />
            <path
               style="font-size:medium;font-style:normal;font-variant:normal;font-weight:normal;font-stretch:normal;text-indent:0;text-align:start;text-decoration:none;line-height:normal;letter-spacing:normal;word-spacing:normal;text-transform:none;direction:ltr;block-progression:tb;writing-mode:lr-tb;text-anchor:start;baseline-shift:baseline;color:#000000;fill:#000000;fill-opacity:1;stroke:none;stroke-width:2.5;marker:none;visibility:visible;display:inline;overflow:visible;enable-background:accumulate;font-family:Sans;-inkscape-font-specification:Sans"
               d="m 390.46337,76.28091 0.76792,-2.99724 c -2.09836,-2.875426 -3.83895,-3.940904 -7.40763,-3.28309 2.40946,1.802702 5.37657,4.42698 6.63971,6.28033 z m -0.93653,8.18842 2.10983,-2.40349 c -1.70277,-3.807998 -4.27675,-4.72997 -8.35983,-5.69026 2.04777,2.809438 5.12855,5.090145 6.25,8.09375 z m -1.09375,7.78125 1.84467,-2.107075 c -1.85816,-5.665354 -8.02941,-7.15533 -8.02941,-7.15533 0,0 4.64124,4.556439 6.18474,9.262405 z"
               id="path4032"
               inkscape:connector-curvature="0"
               sodipodi:nodetypes="cccccccccccc" />
          </g>
          <g
             id="g4076">
            <path
               transform="translate(29.46429,12.71933)"
               sodipodi:nodetypes="ccsccsccc"
               inkscape:connector-curvature="0"
               id="path4072"
               d="m 378.75,174.5 c 0,0 13.34071,2.99298 28.72028,17.3119 0,0 -1.59099,-24.92552 11.13694,-30.75915 12.72792,-5.83363 23.33452,1.59099 28.63782,11.66726 0,0 -1.59099,24.92552 -15.9099,41.89608 0,0 0.71231,16.09669 -11.66726,22.27386 -11.77284,5.87442 -27.57717,1.06066 -30.75915,-15.9099 0,0 -16.97056,-12.19759 -23.33452,-28.63782 z"
               style="color:#000000;fill:#d9dadc;fill-opacity:1;stroke:#000000;stroke-width:3;stroke-linecap:butt;stroke-linejoin:miter;stroke-miterlimit:4;stroke-opacity:1;stroke-dasharray:none;stroke-dashoffset:0;marker:none;visibility:visible;display:inline;overflow:visible;enable-background:accumulate" />
            <path
               sodipodi:nodetypes="csssc"
               transform="translate(29.46429,12.71933)"
               inkscape:connector-curvature="0"
               id="path4070"
               d="m 370.875,170 c 0,0 5.45306,-1.02019 8.25,3.375 2.625,4.125 -0.68566,18.64797 -9.99632,20.71599 -6.99392,1.55344 -8.18566,-7.33363 -6.81434,-11.08363 C 363.62775,179.41571 370.875,170 370.875,170 z"
               style="color:#000000;fill:#d9dadc;fill-opacity:1;stroke:#000000;stroke-width:3;stroke-linecap:butt;stroke-linejoin:miter;stroke-miterlimit:4;stroke-opacity:1;stroke-dasharray:none;stroke-dashoffset:0;marker:none;visibility:visible;display:inline;overflow:visible;enable-background:accumulate" />
            <g
               id="g4066">
              <path
                 style="color:#000000;fill:#fbd9c2;fill-opacity:1;stroke:#000000;stroke-width:3;stroke-linecap:butt;stroke-linejoin:miter;stroke-miterlimit:4;stroke-opacity:1;stroke-dasharray:none;stroke-dashoffset:0;marker:none;visibility:visible;display:inline;overflow:visible;enable-background:accumulate"
                 d="m 392.30002,201.29656 c 0,0 11.34869,-4.01746 7.54729,-17.93415 0,0 -7.21765,-6.10062 -12.45071,-8.38974 0,0 -9.97619,-0.84497 -16.41393,-0.59082 -6.43775,0.25414 -10.29045,2.84072 -11.53715,8.68828 0,0 -3.31574,4.15604 -0.81743,9.01103 0,0 -2.22211,3.14659 0.30998,6.94146 0,0 -0.73845,6.81756 6.62932,9.91563 0,0 1.07706,-4.63003 1.73642,-6.97973 6.37789,0.71637 11.69107,1.48437 18.25554,-3.68059 0,0 2.78767,0.37139 6.74067,3.01863 z"
                 id="path4030"
                 inkscape:connector-curvature="0"
                 sodipodi:nodetypes="cccsccccccc" />
              <path
                 sodipodi:nodetypes="cccccccccccc"
                 inkscape:connector-curvature="0"
                 id="path4032-7"
                 d="m 359.1196,186.20299 -0.50456,-3.00094 c 2.3403,-2.63676 4.1669,-3.53153 7.66491,-2.58244 -2.557,1.55963 -5.74093,3.87622 -7.16035,5.58338 z m 0.22141,8.09928 -1.89299,-2.53409 c 2.02725,-3.58387 4.67161,-4.2669 8.82269,-4.85855 -2.28416,2.57647 -5.55148,4.54688 -6.9297,7.39264 z m 0.41341,7.71395 -1.65458,-2.22114 c 2.34345,-5.38959 8.62083,-6.32158 8.62083,-6.32158 0,0 -5.01964,4.06583 -6.96625,8.54272 z"
                 style="font-size:medium;font-style:normal;font-variant:normal;font-weight:normal;font-stretch:normal;text-indent:0;text-align:start;text-decoration:none;line-height:normal;letter-spacing:normal;word-spacing:normal;text-transform:none;direction:ltr;block-progression:tb;writing-mode:lr-tb;text-anchor:start;baseline-shift:baseline;color:#000000;fill:#000000;fill-opacity:1;stroke:none;stroke-width:2.5;marker:none;visibility:visible;display:inline;overflow:visible;enable-background:accumulate;font-family:Sans;-inkscape-font-specification:Sans" />
            </g>
            <path
               sodipodi:nodetypes="cscc"
               transform="translate(29.46429,12.71933)"
               inkscape:connector-curvature="0"
               id="path4074"
               d="m 388.90873,220.98005 c 0,0 17.8205,3.83516 22.42919,-7.5533 5.22986,-12.92342 -5.45863,-22.67551 -5.45863,-22.67551 0,0 22.11854,-0.75 25.23618,24.39518"
               style="color:#000000;fill:none;stroke:#000000;stroke-width:2.5;stroke-linecap:butt;stroke-linejoin:miter;stroke-miterlimit:4;stroke-opacity:1;stroke-dasharray:none;stroke-dashoffset:0;marker:none;visibility:visible;display:inline;overflow:visible;enable-background:accumulate" />
          </g>
        </g>
        <g
           id="g4601">
          <use
             x="0"
             y="0"
             xlink:href="#g4690"
             id="use4709"
             transform="matrix(0.86278916,-0.50556392,0.50556392,0.86278916,-128.47564,206.15336)"
             width="664.28571"
             height="810" />
          <g
             id="g4595">
            <path
               style="color:#000000;fill:#008022;fill-opacity:1;stroke:#000000;stroke-width:3;stroke-linecap:butt;stroke-linejoin:miter;stroke-miterlimit:4;stroke-opacity:1;stroke-dasharray:none;stroke-dashoffset:0;marker:none;visibility:visible;display:inline;overflow:visible;enable-background:accumulate"
               d="m 107.5,442.75 c -11.25,18 -17.25,36.75 -17.25,36.75 4.5,4.5 13.6875,6.65625 13.6875,6.65625 1.06066,20.15255 -7.40625,30.75 -7.40625,30.75 0,0 -13.615855,-15.94712 -41.375,-6.375 -27.759145,9.57212 -29.715043,44.55885 -9.5625,60.46875 20.152544,15.9099 44.5625,-3.1875 44.5625,-3.1875 23.33452,43.48706 32.875,61.53125 32.875,61.53125 l 88.03125,27.5625 31.84375,24.40625 c 31.8198,36.06244 93.32543,39.23893 136.8125,14.84375 43.48707,-24.39519 54.0974,-70.01845 38.1875,-116.6875 -15.9099,-46.66905 -69.125,-73.53125 -69.125,-73.53125 -6.36396,-11.66726 -12.71878,-23.31986 -30.75,-27.5625 -16.20181,-3.81219 -23.34375,4.75 -23.34375,4.75 -2.65165,-2.65165 -6.90625,-4.21875 -6.90625,-4.21875 l -1.0625,-9.5625 c -15.9099,5.83363 -16.4375,14.84375 -16.4375,14.84375 -6.36396,1.06066 -10.0625,6.90625 -10.0625,6.90625 0,0 6.03125,2.90625 10.53125,2.90625 0,0 0.75,4.5 2.625,7.125 l 7.875,0.75 c 0,0 0.75,4.5 1.875,7.5 l 8.25,-0.375 c 0,0 0.375,4.875 0.75,6.75 l 5.625,-1.125 1.125,5.25 6.75,1.5 c 0,0 1.125,3.375 1.125,6.375 0,0 -6,-0.75 -10.125,-0.75 l -1.875,-6.375 -6.75,-0.75 -1.875,-4.5 -6.375,-1.125 -3,-9 -8.25,-0.75 -1.5,-5.625 c 0,0 -5.25,-0.375 -9,0.375 0,0 -0.9816,11.29597 9.625,19.78125 10.6066,8.48528 24.9375,19.09375 24.9375,19.09375 0,0 12.20776,30.75184 41.90625,31.8125 0,0 -1.46875,5.8125 1.53125,9.5625 0,0 -7.75,6.25 -10.75,18.25 -26,17.25 -148,4 -166,-10.25 -18,-14.25 -49.5,-56.25 -49.5,-56.25 12,-15 6.75,-45.75 6.75,-45.75 l 11.25,-8.25 c -16.5,-10.5 -20.25,-34.5 -20.25,-34.5 z m -43.25,93 c 8.352172,0.16688 12.65625,8.71875 12.65625,8.71875 0,0 -4.264718,4.78125 -12.75,4.78125 -10.606601,0 -12.761932,-11.31916 -2.625,-13.25 0.950337,-0.18102 1.854732,-0.26726 2.71875,-0.25 z"
               transform="translate(29.46429,12.71933)"
               id="path4567"
               inkscape:connector-curvature="0" />
            <path
               style="color:#000000;fill:#d9dadc;fill-opacity:1;stroke:#000000;stroke-width:3;stroke-linecap:butt;stroke-linejoin:miter;stroke-miterlimit:4;stroke-opacity:1;stroke-dasharray:none;stroke-dashoffset:0;marker:none;visibility:visible;display:inline;overflow:visible;enable-background:accumulate"
               d="m 297.5,497.875 c 0,0 1.5,-8.25 15,-6.375 13.5,1.875 15.75,13.5 15.75,13.5 0,0 -10.875,-3 -19.875,1.875 0,0 -4.0795,-5.11351 -10.875,-9 z"
               id="path4587"
               inkscape:connector-curvature="0"
               transform="translate(29.46429,12.71933)"
               sodipodi:nodetypes="csccc" />
            <path
               style="color:#000000;fill:#000000;stroke:none;stroke-width:3;marker:none;visibility:visible;display:inline;overflow:visible;enable-background:accumulate"
               d="m 305.96967,492.89017 c 0,0 1.28033,5.73483 6.15533,8.73483 0,0 4.875,-3.375 6.375,-7.875 l -6.5625,-2.0625 c 0,0 -4.84283,-1.04733 -5.96783,1.20267 z"
               id="path4589"
               inkscape:connector-curvature="0"
               transform="translate(29.46429,12.71933)"
               sodipodi:nodetypes="ccccc" />
            <path
               style="font-size:medium;font-style:normal;font-variant:normal;font-weight:normal;font-stretch:normal;text-indent:0;text-align:start;text-decoration:none;line-height:normal;letter-spacing:normal;word-spacing:normal;text-transform:none;direction:ltr;block-progression:tb;writing-mode:lr-tb;text-anchor:start;baseline-shift:baseline;color:#000000;fill:#000000;fill-opacity:1;stroke:none;stroke-width:2.5;marker:none;visibility:visible;display:inline;overflow:visible;enable-background:accumulate;font-family:Sans;-inkscape-font-specification:Sans"
               d="m 309.41604,493.43992 c -2.85146,0.61654 -3.31158,4.73024 -3.31158,4.73024 0,0 1.52212,-0.90231 3.04733,-1.23208 1.52521,-0.32977 3.17643,-0.30498 5.3125,-0.0937 -1.16979,-2.5234 -1.61836,-4.12836 -5.04825,-3.40441 z m 91.03079,74.38695 c 0.19891,-7.55529 -5.79165,-11.33991 -11.73254,-10.98254 3.84118,1.96811 5.31407,4.25864 6.37868,7.76608 -4.22786,-0.2449 -7.17214,-0.2357 -10.87868,2.35892 5.23465,-0.0747 10.63525,1.02907 16.23254,0.85754 z m -28.35754,12.23621 -1.84375,1.65625 c 0,0 9.68206,11.07371 21.09375,9.25 -9.80153,-0.76305 -19.25,-10.90625 -19.25,-10.90625 z m -6.12408,10.61075 -0.98484,2.99725 c 0,0 22.26946,13.16469 32.70267,31.75138 -8.65867,-22.24875 -31.71783,-34.74863 -31.71783,-34.74863 z"
               id="path4591"
               inkscape:connector-curvature="0"
               sodipodi:nodetypes="ccscccccccccccccccc" />
            <path
               style="color:#000000;fill:none;stroke:#000000;stroke-width:2.5;stroke-linecap:butt;stroke-linejoin:miter;stroke-miterlimit:4;stroke-opacity:1;stroke-dasharray:none;stroke-dashoffset:0;marker:none;visibility:visible;display:inline;overflow:visible;enable-background:accumulate"
               d="m 105.30896,555.29883 c 0,0 8.79917,12.87869 15.15533,26.716 m 4.34467,-53.23116 c 0,0 9.54917,9.75 15.68566,16.96599 m 180.7851,4.38001 c 0,0 8.79594,4.77297 22.05419,5.3033 m -6.82995,-15.59925 c 0,0 3.46599,12.76562 9.39061,18.2509 0,0 5.56847,2.12132 15.90991,-0.53033 0,0 -6.89429,-4.77297 -13.78858,-20.68288 -6.8943,-15.9099 -18.56156,-29.69848 -34.47146,-27.57716 0,0 -6.45515,-4.07492 -13.58015,-12.69992 m 24,-1 c 0,0 -1.5,9 1.5,15 m 30.94849,7.09681 c 0,0 25.19069,3.97748 31.55465,33.67596 0,0 16.97056,0.53033 22.27386,18.56156 0,0 -9.54594,2.65165 -24.39518,2.65165 0,0 -8.17462,8.86028 -23.02387,9.92094"
               id="path4585"
               inkscape:connector-curvature="0"
               sodipodi:nodetypes="cccccccccsccccccccc" />
          </g>
          <g
             id="g4690"
             transform="matrix(0.98345172,0.18117041,-0.18117041,0.98345172,20.47311,-74.554316)">
            <path
               style="color:#000000;fill:#008022;fill-opacity:1;stroke:#000000;stroke-width:3;stroke-linecap:butt;stroke-linejoin:miter;stroke-miterlimit:4;stroke-opacity:1;stroke-dasharray:none;stroke-dashoffset:0;marker:none;visibility:visible;display:inline;overflow:visible;enable-background:accumulate"
               d="m 316.0066,716.84063 c 9.54374,1.49421 12.79805,7.59945 12.79805,7.59945 -8.93171,3.57269 -16.21938,-1.62419 -20.17965,7.68492 -2.625,2.25 -5.625,7.125 -2.625,14.25 0,0 4.87174,-5.54476 13.125,-5.25 10.5,0.375 6.75,-6.75 19.875,-6.75 0,0 4.375,2.625 5.5,11.25 1.125,8.625 7.125,10.875 7.125,10.875 l 8.625,13.875 c 4.875,-7.5 0.75,-15.375 0.375,-15.75 1.53033,-8.06799 -6.2618,-11.69581 -7.125,-16.875 7.125,-2.25 7.875,3 10.5,7.875 2.625,4.875 7.125,6 7.125,6 6,4.125 8.625,12.75 8.625,12.75 6.375,-9 -0.375,-18.375 -0.375,-18.375 0,-7.5 -7.125,-8.25 -7.125,-8.25 -3.75,-4.875 -10.875,-11.25 -10.875,-11.25 10.33295,-2.35398 8.9083,5.66091 17.625,6.375 9.16071,0.75046 12.375,4.875 12.375,4.875 4.42169,-12.34901 -9.21873,-15.18611 -9.21873,-15.18611 -1.30608,-8.40082 -16.9973,-8.49458 -27.15627,-4.31389 -3.375,-3.375 -9.22478,-4.41652 -9.22478,-4.41652 -4.77297,-17.5009 -16.03232,-31.03861 -16.03232,-31.03861 0,0 -27.9503,2.14651 -25.02674,15.08928 2.92355,12.94277 11.29044,18.95648 11.29044,18.95648 z"
               id="path4692"
               inkscape:connector-curvature="0"
               sodipodi:nodetypes="ccccscsccccscccccscccccsc"
               transform="translate(29.46429,12.71933)" />
            <path
               style="color:#000000;fill:none;stroke:#000000;stroke-width:2.5;stroke-linecap:butt;stroke-linejoin:miter;stroke-miterlimit:4;stroke-opacity:1;stroke-dasharray:none;stroke-dashoffset:0;marker:none;visibility:visible;display:inline;overflow:visible;enable-background:accumulate"
               d="m 308.625,732 c 0,0 7.125,-1.875 6.75,9.375 m 36.75,15 c 0,0 3,-5.25 9,-1.125 m 10.125,-3.75 c 0,0 1.125,-6.75 7.875,-4.875 m 1.5,-13.875 c 0,0 -4.5,-6 1.5,-10.125"
               id="path4696"
               inkscape:connector-curvature="0"
               transform="translate(29.46429,12.71933)" />
          </g>
          <g
             id="g4658">
            <path
               transform="translate(29.46429,12.71933)"
               sodipodi:nodetypes="cccscccscsccccscccccsccccccc"
               inkscape:connector-curvature="0"
               id="path4648"
               d="m 269.93801,671.40707 c 0,0 2.12132,7.42462 12.1976,9.54594 0,0 0,5.83363 4.24264,12.19759 0,0 12.72792,-0.53033 19.09188,9.54595 6.36396,10.07627 23.33452,21.74353 23.33452,21.74353 -8.93171,3.57269 -16.21938,-1.62419 -20.17965,7.68492 -2.625,2.25 -5.625,7.125 -2.625,14.25 0,0 4.87174,-5.54476 13.125,-5.25 10.5,0.375 6.75,-6.75 19.875,-6.75 0,0 4.375,2.625 5.5,11.25 1.125,8.625 7.125,10.875 7.125,10.875 l 8.625,13.875 c 4.875,-7.5 0.75,-15.375 0.375,-15.75 1.53033,-8.06799 -6.2618,-11.69581 -7.125,-16.875 7.125,-2.25 7.875,3 10.5,7.875 2.625,4.875 7.125,6 7.125,6 6,4.125 8.625,12.75 8.625,12.75 6.375,-9 -0.375,-18.375 -0.375,-18.375 0,-7.5 -7.125,-8.25 -7.125,-8.25 -3.75,-4.875 -10.875,-11.25 -10.875,-11.25 10.33295,-2.35398 8.9083,5.66091 17.625,6.375 9.16071,0.75046 12.375,4.875 12.375,4.875 4.42169,-12.34901 -9.21873,-15.18611 -9.21873,-15.18611 -1.30608,-8.40082 -16.9973,-8.49458 -27.15627,-4.31389 -3.375,-3.375 -9.22478,-4.41652 -9.22478,-4.41652 -4.77297,-17.5009 -17.5009,-30.22882 -17.5009,-30.22882 2.12132,-4.77297 -0.53033,-7.95495 -0.53033,-7.95495 6.36396,-7.42462 4.24264,-23.33452 4.24264,-23.33452"
               style="color:#000000;fill:#008022;fill-opacity:1;stroke:#000000;stroke-width:3;stroke-linecap:butt;stroke-linejoin:miter;stroke-miterlimit:4;stroke-opacity:1;stroke-dasharray:none;stroke-dashoffset:0;marker:none;visibility:visible;display:inline;overflow:visible;enable-background:accumulate" />
            <path
               sodipodi:nodetypes="cccccccc"
               inkscape:connector-curvature="0"
               id="path4650"
               d="m 358.40179,687.87562 c -7.95771,-6.42363 -17.12763,-6.59615 -25.57813,-2.32816 8.97695,-0.82216 17.74434,-1.83265 23.73438,4.01566 z m -0.125,8.07763 c -6.94439,-6.59151 -17.22866,-7.24078 -24.9375,-2.45267 12.94505,-2.59728 19.38645,0.83497 24.9375,4.76945 z"
               style="font-size:medium;font-style:normal;font-variant:normal;font-weight:normal;font-stretch:normal;text-indent:0;text-align:start;text-decoration:none;line-height:normal;letter-spacing:normal;word-spacing:normal;text-transform:none;direction:ltr;block-progression:tb;writing-mode:lr-tb;text-anchor:start;baseline-shift:baseline;color:#000000;fill:#000000;fill-opacity:1;stroke:none;stroke-width:2.5;marker:none;visibility:visible;display:inline;overflow:visible;enable-background:accumulate;font-family:Sans;-inkscape-font-specification:Sans" />
            <path
               transform="translate(29.46429,12.71933)"
               inkscape:connector-curvature="0"
               id="path4652"
               d="m 308.625,732 c 0,0 7.125,-1.875 6.75,9.375 m 36.75,15 c 0,0 3,-5.25 9,-1.125 m 10.125,-3.75 c 0,0 1.125,-6.75 7.875,-4.875 m 1.5,-13.875 c 0,0 -4.5,-6 1.5,-10.125"
               style="color:#000000;fill:none;stroke:#000000;stroke-width:2.5;stroke-linecap:butt;stroke-linejoin:miter;stroke-miterlimit:4;stroke-opacity:1;stroke-dasharray:none;stroke-dashoffset:0;marker:none;visibility:visible;display:inline;overflow:visible;enable-background:accumulate" />
          </g>
          <g
             id="g4577">
            <path
               style="color:#000000;fill:#008022;fill-opacity:1;stroke:#000000;stroke-width:3;stroke-linecap:butt;stroke-linejoin:miter;stroke-miterlimit:4;stroke-opacity:1;stroke-dasharray:none;stroke-dashoffset:0;marker:none;visibility:visible;display:inline;overflow:visible;enable-background:accumulate"
               d="M 209.96967,517.31066 C 234.02725,517.86727 254,541.75 259.25,561.25 c 5.25,19.5 26.46967,31.95011 42.96967,33.12868 16.5,1.17857 15.53645,-9.06186 32.50701,-13.83483 0,0 -8.22012,27.57716 -3.97748,51.97235 0,0 6.89429,10.07627 1.59099,23.33452 0,0 -24.50629,-20.77008 -44.65821,-16.60072 -20.15192,4.16936 -24.53193,20.9739 -24.53193,20.9739 0,0 4.36186,7.03371 12.34995,12.0261 0,0 -15.75,4.5 -24,-12 0,0 -8.64384,3.7045 -14.78033,9.43934 L 244.75,682.75 c 0,0 -10.22703,2.59835 -18.34835,-10.06066 0,0 -17.74264,-7.93934 -32.74264,7.06066 0.72343,4.63388 2.25014,8.20711 6.93198,13.90165 0,0 -12.09099,-0.40165 -15.84099,-13.90165 0,0 -11.90901,-7.28033 -21.65901,-0.53033 0,0 -0.8033,8.72703 11.41637,15.75 0,0 -19.59099,5.68934 -23.50736,-18.21967 0,0 -13.82128,-4.63582 -21.24591,2.7888 0,0 5.30331,14.31891 14.31892,18.56155 0,0 -18.03123,4.24264 -25.98618,-20.68287 -7.95495,-24.92552 -0.51998,-58.38824 31.46626,-82.37794 25.45584,-19.09189 39.77475,-32.88047 57.27564,-43.48707 0,0 1.71362,-12.00584 -7.42462,-13.6118 -9.16212,-1.61015 -19.53382,9.19239 -19.53382,9.19239 -3.66266,-7.32533 6.38589,-30.37104 30.09938,-29.8224 z"
               id="path4569"
               inkscape:connector-curvature="0"
               transform="translate(29.46429,12.71933)"
               sodipodi:nodetypes="sssccczccccccccccccccsscscs" />
            <path
               style="color:#000000;fill:none;stroke:#000000;stroke-width:2.5;stroke-linecap:butt;stroke-linejoin:miter;stroke-miterlimit:4;stroke-opacity:1;stroke-dasharray:none;stroke-dashoffset:0;marker:none;visibility:visible;display:inline;overflow:visible;enable-background:accumulate"
               d="m 130.1875,680.625 c 0,0 -14.73414,-25.07563 11.02481,-59.05698 C 167.10398,587.41158 195.25,577.5 195.25,577.5 c 0,0 -51.75,56.25 -43.5,102 M 163,681 c 0,0 -1.66475,-13.30308 2.483,-31.29365 4.14774,-17.99058 13.04733,-37.48668 36.29733,-56.23668 0,0 -26.25,44.96231 -15.75,89.96231 M 194.125,682.125 c -4.75803,-16.94068 -2.04137,-72.57259 25.875,-88.875 0,0 -11.625,37.875 6.75,79.5 m 10.28033,-2.25 c -5.75761,-6.79912 -16.70863,-35.41637 -1.65533,-78.75 1.09835,16.28861 4.90165,46.81072 16.875,69.75 m 11.25,-0.75 C 256.375,652.875 244.75,619.5 250,591 c 0,0 62.25,12 81.75,63.75"
               id="path4571"
               inkscape:connector-curvature="0"
               sodipodi:nodetypes="cscccsccccccccccc"
               transform="translate(29.46429,12.71933)" />
            <path
               style="font-size:medium;font-style:normal;font-variant:normal;font-weight:normal;font-stretch:normal;text-indent:0;text-align:start;text-decoration:none;line-height:normal;letter-spacing:normal;word-spacing:normal;text-transform:none;direction:ltr;block-progression:tb;writing-mode:lr-tb;text-anchor:start;baseline-shift:baseline;color:#000000;fill:#000000;fill-opacity:1;stroke:none;stroke-width:3;marker:none;visibility:visible;display:inline;overflow:visible;enable-background:accumulate;font-family:Sans;-inkscape-font-specification:Sans"
               d="m 219.4528,591.35858 2.82675,3.27941 c 0,0 12.35209,-11.50248 14.90349,-15.16866 -4.87322,1.63712 -17.73024,11.88925 -17.73024,11.88925 z m 27.91774,18.0795 2.142,1.32675 c 1.44704,-5.12752 3.39347,-12.61056 5.966,-18.02896 -4.78446,4.36799 -6.92029,10.44164 -8.108,16.70221 z m -19.96875,0.0625 2.59375,1.46875 c 0,0 7.98683,-13.79933 11.34375,-19.28125 -6.18902,4.06402 -13.9375,17.8125 -13.9375,17.8125 z m 35.3125,-0.84375 3.53033,1.85616 c -0.41257,-6.28425 0.11729,-10.68362 0.35616,-15.66498 -1.93545,4.60294 -3.36268,9.20588 -3.88649,13.80882 z"
               id="path4573"
               inkscape:connector-curvature="0"
               sodipodi:nodetypes="cccccccccccccccc" />
          </g>
          <path
             style="color:#000000;fill:#da2c27;fill-opacity:1;stroke:#000000;stroke-width:3;stroke-linecap:butt;stroke-linejoin:miter;stroke-miterlimit:4;stroke-opacity:1;stroke-dasharray:none;stroke-dashoffset:0;marker:none;visibility:visible;display:inline;overflow:visible;enable-background:accumulate"
             d="m 253.85133,488.79674 c -21.74353,-47.7297 -69.47324,-35.53211 -69.47324,-35.53211 0,0 6.89429,5.3033 10.07628,9.54594 0,0 -11.66727,6.89429 -24.39519,-2.65165 0,0 -1.59099,20.68287 28.63783,15.37957 0,0 -1.59099,6.89429 -14.31892,5.83363 0,0 3.25011,12.53698 24.39519,5.83363 22.74353,-7.21008 33.94111,-5.30331 45.07805,1.59099 z"
             id="path4711"
             inkscape:connector-curvature="0"
             transform="translate(29.46429,12.71933)"
             sodipodi:nodetypes="ccccccsc" />
        </g>
      </g>
    </g>
  </g>
</svg>
