<?xml version="1.0" encoding="UTF-8" standalone="no"?>
<!-- Created with Inkscape (http://www.inkscape.org/) -->

<svg
   xmlns:dc="http://purl.org/dc/elements/1.1/"
   xmlns:cc="http://creativecommons.org/ns#"
   xmlns:rdf="http://www.w3.org/1999/02/22-rdf-syntax-ns#"
   xmlns:svg="http://www.w3.org/2000/svg"
   xmlns="http://www.w3.org/2000/svg"
   xmlns:xlink="http://www.w3.org/1999/xlink"
   xmlns:sodipodi="http://sodipodi.sourceforge.net/DTD/sodipodi-0.dtd"
   xmlns:inkscape="http://www.inkscape.org/namespaces/inkscape"
   width="512.625"
   height="626.3125"
   id="svg2"
   version="1.1"
   inkscape:version="0.48.5 r10040"
   sodipodi:docname="Raseiniai.svg">
  <defs
     id="defs4" />
  <sodipodi:namedview
     id="base"
     pagecolor="#f6f3f1"
     bordercolor="#666666"
     borderopacity="1.0"
     inkscape:pageopacity="0"
     inkscape:pageshadow="2"
     inkscape:zoom="1"
     inkscape:cx="275.56325"
     inkscape:cy="287.58437"
     inkscape:document-units="px"
     inkscape:current-layer="layer1"
     showgrid="false"
     showborder="true"
     inkscape:window-width="1920"
     inkscape:window-height="1017"
     inkscape:window-x="-8"
     inkscape:window-y="-8"
     inkscape:window-maximized="1"
     showguides="true"
     inkscape:guide-bbox="true"
     inkscape:showpageshadow="false"
     fit-margin-top="0"
     fit-margin-left="0"
     fit-margin-right="0"
     fit-margin-bottom="0" />
  <metadata
     id="metadata7">
    <rdf:RDF>
      <cc:Work
         rdf:about="">
        <dc:format>image/svg+xml</dc:format>
        <dc:type
           rdf:resource="http://purl.org/dc/dcmitype/StillImage" />
        <dc:title></dc:title>
      </cc:Work>
    </rdf:RDF>
  </metadata>
  <g
     inkscape:label="Layer 1"
     inkscape:groupmode="layer"
     id="layer1"
     transform="translate(-40.22322,-14.18257)">
    <g
       id="g4464"
       transform="matrix(2,0,0,2,-98.52678,-171.31743)">
      <path
         style="color:#000000;fill:#e0e2e5;fill-opacity:1;stroke:none;stroke-width:3;marker:none;visibility:visible;display:inline;overflow:visible;enable-background:accumulate"
         d="m 70.864028,94.2417 c 0,0 0,108.3856 0,176.82278 0,68.43717 44.993072,133.32868 126.662752,133.32868 81.66968,0 126.66275,-64.89151 126.66275,-133.32868 0,-68.43718 0,-176.82278 0,-176.82278 z"
         id="path4156"
         inkscape:connector-curvature="0"
         sodipodi:nodetypes="cszscc" />
      <path
         id="rect4151"
         d="m 76.9375,313.78125 c 14.805362,50.44822 56.34932,90.625 120.59375,90.625 64.24443,0 105.78839,-40.17678 120.59375,-90.625 l -241.1875,0 z"
         style="color:#000000;fill:#057b31;fill-opacity:1;fill-rule:evenodd;stroke:#000000;stroke-width:1.5;stroke-miterlimit:4;stroke-dasharray:none;marker:none;visibility:visible;display:inline;overflow:visible;enable-background:accumulate"
         inkscape:connector-curvature="0" />
      <g
         id="g4004">
        <path
           style="color:#000000;fill:#e21818;fill-opacity:1;stroke:#000000;stroke-width:1;stroke-linecap:butt;stroke-linejoin:miter;stroke-miterlimit:4;stroke-opacity:1;stroke-dasharray:none;stroke-dashoffset:0;marker:none;visibility:visible;display:inline;overflow:visible;enable-background:accumulate"
           d="m 129.29045,154.24557 c 0,0 -3.82229,-3.45826 -8.55465,1.82014 -4.73236,5.27841 -6.73451,6.55249 -12.19492,6.55249 0,0 -0.18201,4.91437 7.46257,4.36833 7.64457,-0.54604 13.65103,-7.28055 13.287,-12.74096 z"
           id="path3970"
           inkscape:connector-curvature="0"
           sodipodi:nodetypes="czcsc" />
        <path
           style="color:#000000;fill:#e0e2e5;fill-opacity:1;stroke:#000000;stroke-width:1;stroke-linecap:butt;stroke-linejoin:miter;stroke-miterlimit:4;stroke-opacity:1;stroke-dasharray:none;stroke-dashoffset:0;marker:none;visibility:visible;display:inline;overflow:visible;enable-background:accumulate"
           d="m 108.58258,146.76377 c 0,0 -0.90093,5.27683 3.34628,7.33608 0,0 1.41573,-5.53423 0.64351,-7.46478 -0.77222,-1.93055 -3.98979,0.1287 -3.98979,0.1287 z m 5.27683,11.58329 c 0,0 -1.98808,5.55583 1.93054,8.237 2.44536,1.67314 4.24721,-2.05925 4.24721,-2.05925 0,0 -3.9898,-2.70277 -6.17775,-6.17775 z"
           id="path3972"
           inkscape:connector-curvature="0"
           sodipodi:nodetypes="ccsccscc" />
        <path
           style="color:#000000;fill:#ddb36e;fill-opacity:1;stroke:#000000;stroke-width:1;stroke-linecap:butt;stroke-linejoin:miter;stroke-miterlimit:4;stroke-opacity:1;stroke-dasharray:none;stroke-dashoffset:0;marker:none;visibility:visible;display:inline;overflow:visible;enable-background:accumulate"
           d="m 146.97902,125.52775 c -8.49441,-2.31666 -21.42093,-3.44788 -26.97128,1.65844 -5.55034,5.10638 -8.37263,3.45826 -12.37693,5.09638 -3.92919,1.60739 -1.63812,7.76593 -1.63812,7.76593 -1.82014,4.36833 0.7677,7.87669 5.09638,7.82659 4.32869,-0.0501 9.46472,-3.09423 9.46472,-3.09423 0,0 7.09853,1.27409 7.64458,6.91652 0.54604,5.64243 -2.5482,9.10069 -7.28056,12.19492 -4.73235,3.09424 -8.55465,2.91223 -8.55465,2.91223 0,0 -0.54603,2.00214 0.54605,4.55034 1.09208,2.54819 6.00645,3.64027 9.64673,1.27409 3.64027,-2.36618 11.10284,-2.7302 11.64888,2.00215 0.54604,4.73236 -5.64243,6.00646 -5.64243,6.00646 4.18632,3.64027 8.55465,0.54604 8.55465,0.54604 0,2.91222 -2.18417,4.73236 -2.18417,4.73236 3.27625,1.27409 5.64243,-0.18202 5.64243,-0.18202 0.91007,1.2741 3.33692,7.09854 3.33692,7.09854 -4.36833,-1.2741 -16.38124,-0.54604 -23.47978,2.36618 -7.09853,2.91222 -12.0129,2.00215 -12.0129,2.00215 -4.36833,-7.64458 -11.284858,-7.64458 -11.284858,-7.64458 0,0 -0.182014,-8.91867 -4.914372,-9.2827 -4.732358,-0.36403 -5.642427,3.45826 -5.642427,3.45826 -4.550344,3.45826 -2.548193,7.64458 -2.548193,7.64458 -1.274096,5.46041 1.456111,7.52324 1.456111,7.52324 -0.728056,2.18416 -2.002152,7.28055 0,11.28485 2.002151,4.0043 7.462564,2.91222 10.374784,1.82014 2.912221,-1.09208 4.550345,1.63812 4.550345,1.63812 -2.002152,5.82444 1.36617,7.7034 5.46042,7.46257 4.09422,-0.24084 7.19061,-4.26464 12.0129,-5.64243 4.82229,-1.3778 7.46257,0.72805 7.46257,0.72805 -2.36618,0.91007 -2.73021,2.5482 -2.73021,2.5482 2.54819,0.91007 6.5525,0 6.5525,0 l 0.36402,1.09208 c 3.09424,0 4.91437,-1.09208 4.91437,-1.09208 -0.36402,0.72805 -0.36402,2.36618 -0.36402,2.36618 0,0 2.91222,0.72805 7.82659,-1.45611 4.91437,-2.18417 9.40404,-2.18417 9.40404,-2.18417 0.72806,1.2741 2.18417,2.36618 2.18417,2.36618 0,0 -5.64243,4.91437 -16.19923,6.5525 -10.55679,1.63812 -17.83735,6.7345 -17.83735,6.7345 -8.55464,-2.7302 -16.92728,-0.72805 -16.92728,-0.72805 0,0 -4.004299,-8.19062 -9.100685,-6.91652 -5.096385,1.27409 -4.550344,6.73451 -4.550344,6.73451 -4.732358,4.55034 -0.546041,10.19277 -0.546041,10.19277 1.274096,5.2784 4.732358,6.73451 4.732358,6.73451 0,0 0.546041,6.73451 5.278399,8.19062 4.732353,1.45611 10.374783,-3.09424 12.194923,-4.18632 1.82014,-1.09208 3.09423,0.18201 3.27625,3.64028 0.18201,3.45826 4.18631,5.64242 9.10069,3.45826 4.91437,-2.18417 4.0043,-6.91653 7.82659,-9.64673 3.82229,-2.73021 10.37478,-1.45611 10.37478,-1.45611 0.72806,3.27624 2.36618,4.36833 2.36618,4.36833 1.82014,-2.91222 4.73236,-3.64028 4.73236,-3.64028 -0.72806,2.18417 0.54604,3.27625 0.54604,3.27625 0,0 1.23453,-1.93872 4.73236,-2.54819 4.1631,-0.72539 6.98295,-0.1488 12.55895,-4.00431 5.60566,-3.87602 7.82659,-3.64027 12.19492,-4.91437 4.36833,-1.27409 4.91437,-5.64242 4.91437,-5.64242 4.00431,-0.36403 5.46042,-3.27625 5.46042,-3.27625 2.36618,0.91007 4.55032,0.18201 4.55032,0.18201 -0.91005,-1.82014 -0.0367,-4.2743 -0.0367,-4.2743 9.52403,-4.37591 17.76104,-3.60369 26.25545,-6.43516 8.49441,-2.83147 13.12772,-3.08887 13.12772,-3.08887 -2.31666,2.05924 -3.86109,4.89071 -5.14813,9.00921 -1.28703,4.11851 -3.60369,6.17776 -3.86109,9.52404 -0.25741,3.34628 0.0129,11.02431 -1.2741,15.91504 -1.28704,4.89072 -7.73513,4.42006 -7.73513,4.42006 0.25741,1.80185 2.05926,4.63332 2.05926,4.63332 -2.31666,-0.51482 -4.89073,0.77222 -4.89073,0.77222 2.83147,4.3759 5.66294,5.14812 5.66294,5.14812 l -0.77221,1.54444 c 1.28703,1.54444 5.14812,2.57406 5.14812,2.57406 l -0.2574,1.80185 c 0,0 5.14812,2.57406 13.89994,3.34628 8.75181,0.77222 9.52403,8.75182 4.1185,12.87032 -5.40553,4.1185 -11.58329,12.87031 -11.58329,12.87031 -1.78757,-0.0299 -3.08887,0.77222 -3.08887,0.77222 -4.63332,-2.05925 -7.9796,1.80185 -7.9796,1.80185 -6.43516,-3.34628 -9.26663,6.69256 -8.75181,10.55366 0.51481,3.86109 5.66294,1.02962 5.66294,1.02962 2.31665,2.31666 6.43515,0 6.43515,0 3.8611,2.57407 7.20738,0 7.20738,0 7.20738,4.37591 15.44438,0.77222 18.01845,-3.34628 2.57406,-4.1185 6.94997,-20.07769 12.87031,-26.25545 5.92035,-6.17775 2.68271,-10.47184 2.68271,-10.47184 0.91007,-1.2741 4.73236,-2.5482 7.28056,0.18201 2.54819,2.73021 0.91006,6.18847 0.91006,6.18847 4.36833,0.72805 6.00646,-2.00215 6.00646,-2.00215 0.72805,1.63812 0.18201,4.0043 0.18201,4.0043 0,0 2.5482,0.36403 4.73236,-1.63812 2.18417,-2.00215 6.00645,1.27409 5.09639,5.09638 -0.91007,3.82229 -13.65104,14.5611 -13.65104,14.5611 -2.18416,0 -3.27624,0.72806 -3.27624,0.72806 0,0 -0.91007,-0.72806 -3.82229,-0.72806 -2.91222,0 -4.36833,1.45611 -4.36833,1.45611 0,0 -3.09424,-1.09208 -5.09639,1.2741 -2.00215,2.36618 -3.27625,8.00861 -2.73021,11.10284 0.54604,3.09423 6.18847,1.09208 6.18847,1.09208 4.0043,2.18417 6.61317,0.36403 6.61317,0.36403 3.82229,2.73021 8.19062,0.36403 8.19062,0.36403 0,0 9.2827,2.36618 13.65103,-0.18201 4.36833,-2.5482 4.33235,-6.28056 7.28056,-13.65104 2.94818,-7.37048 9.28269,-16.92728 11.46685,-21.65964 2.18417,-4.73236 -1.4561,-9.82874 -6.91651,-12.01291 -5.46042,-2.18416 -5.82444,-4.55034 -5.82444,-4.55034 1.82013,-0.91007 3.09423,-2.36618 3.09423,-2.36618 -1.63812,-2.36618 -4.36833,-4.0043 -4.36833,-4.0043 1.45611,-0.91007 2.00215,-2.18417 2.00215,-2.18417 -2.36618,-3.09424 -7.96641,-5.37048 -10.37478,-9.46472 -2.40838,-4.09423 -2.36618,-7.46256 -2.36618,-7.46256 1.82013,-2.18416 4.55034,-2.36618 4.55034,-2.36618 0,-1.09208 0,-4.36833 0,-4.36833 1.09208,-0.36402 2.54819,-1.09208 2.54819,-1.09208 -0.36402,-1.2741 0,-3.27625 0,-3.27625 1.2741,-0.54604 2.66598,-1.19226 2.66598,-1.19226 -0.51481,-2.57406 -0.77222,-11.32588 1.54444,-20.84991 2.31665,-9.52404 0.77221,-19.43419 0.77221,-19.43419 3.6037,4.50462 11.115,12.00136 19.82029,10.68237 8.49441,-1.28703 8.94998,-12.67925 2.57407,-14.92957 -6.37591,-2.25032 -14.35551,-7.17645 -21.87954,-12.87031 -7.52404,-5.69387 -17.01327,-14.03068 -33.46282,-18.01845 -16.44955,-3.98777 -32.69061,1.28703 -32.69061,1.28703 -13.78441,-1.28294 -22.0695,1.0565 -37.08541,1.24569 -3.64028,-2.54819 -8.91868,-2.91222 -8.91868,-2.91222 1.45611,-1.63813 1.45611,-3.45826 1.45611,-3.45826 -2.00215,0.54604 -5.64242,1.09208 -5.64242,1.09208 1.63812,-1.45611 1.2741,-3.27625 1.2741,-3.27625 -2.18416,0.54604 -4.00431,0.54604 -4.00431,0.54604 1.82014,-1.09208 1.82014,-2.36618 1.82014,-2.36618 -3.09423,0.18202 -6.91652,-0.91007 -6.91652,-0.91007 0,0 -0.30336,-0.54604 4.429,-1.82013 4.73236,-1.2741 9.10069,-4.91438 11.46687,-9.28271 0,0 -9.64673,-2.54819 -16.01722,-2.36617 0,0 3.45826,-2.5482 7.46257,-4.00431 0,0 -4.91437,-5.82444 -13.83305,-5.82444 -8.91867,0 -15.80196,3.13459 -15.80196,3.13459 z"
           id="path3765"
           inkscape:connector-curvature="0"
           sodipodi:nodetypes="ccccccczsczssscsccccccsccccsssscccsscsccsscccscsscccscccsscccccccssscsccccsssccccssssscccsccsccsccccccsscsscccsccscccccssccsczcsscscccsc" />
        <path
           style="color:#000000;fill:#000000;stroke:none;stroke-width:1;marker:none;visibility:visible;display:inline;overflow:visible;enable-background:accumulate"
           d="m 172.54805,130.11816 c 0,0 3.21758,1.15833 8.75182,0 0,0 -1.15833,-1.80185 -3.9898,-2.57406 0,0 4.63331,0 6.56386,-0.25741 0,0 -1.28703,-2.05925 -3.9898,-2.57406 0,0 5.40554,0.64351 7.07868,-3.60369 0,0 -1.96017,-0.80278 -6.04906,0.90092 -4.08886,1.70371 -13.64253,0.64352 -13.64253,0.64352 0,0 5.14813,2.70276 8.1083,5.14812 0,0 -2.31666,1.28703 -2.83147,2.31666 z m 5.14812,3.21758 c 0.25741,0.1287 4.63889,-0.31585 9.00923,-1.28703 4.63332,-1.02962 8.1083,0.38611 8.1083,0.38611 0,0 -2.57406,2.05925 -5.40553,2.31666 0,0 1.93054,0.51481 3.08887,2.57406 0,0 -2.57406,0.90092 -6.04905,0.1287 0,0 1.54445,0.90092 1.93055,2.83147 0,0 -2.83147,-0.64352 -9.00922,0.90092 0,0 2.44536,-3.08887 3.47498,-5.40553 0,0 -1.80185,-1.15833 -5.14813,-2.44536 z m 134.45745,50.9421 c 0,0 1.27409,1.2741 2.18416,4.00431 0,0 -5.64243,0.36402 -5.82444,6.00645 l 2.73021,-0.18201 c 0,0 -1.09209,1.09208 -0.91007,3.45826 l 4.36833,-0.18202 0.91007,2.36618 c 0,0 4.36833,-2.18416 4.0043,-7.46256 -0.36403,-5.2784 -3.64027,-7.46257 -7.46256,-8.00861 z m -206.1022,-43.43442 c 0,0 2.70276,-3.21757 6.69255,-3.86109 0,0 -1.54443,-0.77222 -3.73238,-0.90093 -2.18418,-0.12848 -2.31666,-2.96017 -2.31666,-2.96017 0,0 -2.57405,2.83147 -0.64351,7.72219 z"
           id="path3782"
           inkscape:connector-curvature="0"
           sodipodi:nodetypes="ccccccsccccscccccccccccccccscccscc" />
        <path
           id="path3820"
           style="color:#000000;fill:none;stroke:#000000;stroke-width:1;stroke-linecap:butt;stroke-linejoin:miter;stroke-miterlimit:4;stroke-opacity:1;stroke-dasharray:none;stroke-dashoffset:0;marker:none;visibility:visible;display:inline;overflow:visible;enable-background:accumulate"
           d="m 261.21933,277.3728 c 0,0 -2.12171,1.90066 -5.42761,1.27923 0,0 0.6812,-1.87723 0.49919,-3.657 0,0 -2.05925,2.57406 -6.94997,1.67314 0,0 0.77222,-1.28703 1.15833,-2.57406 0,0 -6.30645,2.44536 -11.45458,-0.38611 0,0 2.31666,-2.05925 2.83147,-3.47499 0,0 -5.01942,1.41574 -10.29625,-1.93054 0,0 3.08887,-1.41574 3.98979,-2.31666 0,0 -2.83147,-0.64352 -4.2472,-2.44536 0,0 4.20332,-4.45495 3.83929,-12.09953 -0.36403,-7.64457 -1.82014,-14.92512 0.18201,-21.29561 2.00216,-6.37048 5.64243,-12.01291 5.64243,-12.01291 0,0 -4.133,0.0754 -8.94076,1.09209 m -80.36733,-1.15275 c 0,0 -4.91437,-6.91653 -2.45719,-19.02045 -3.10984,-1.45878 -5.55141,-6.6435 -5.55141,-6.6435 m -3.45827,-6.43115 c 0,0 5.73344,-3.27625 6.73451,-9.82874 0,0 2.36618,3.27624 0.72806,8.55464 0,0 9.46471,-2.00215 8.19062,-15.47117 0,0 2.36618,2.00215 2.7302,5.09639 0,0 5.2784,-7.28055 2.00216,-14.5611 -3.27625,-7.28056 -3.27625,-10.5568 -3.27625,-10.5568 7.96004,0.65925 8.99751,-2.68204 12.91194,-4.17528 m -23.35476,-19.56191 c 0,0 5.38881,2.38826 9.87291,8.2881"
           inkscape:connector-curvature="0"
           sodipodi:nodetypes="ccccccccccssccccccccccscccc" />
        <path
           style="color:#000000;fill:none;stroke:#000000;stroke-width:0.75;stroke-linecap:butt;stroke-linejoin:miter;stroke-miterlimit:4;stroke-opacity:1;stroke-dasharray:none;stroke-dashoffset:0;marker:none;visibility:visible;display:inline;overflow:visible;enable-background:accumulate"
           d="m 120.40211,144.59884 c 0,0 -0.81906,-5.36941 3.27625,-6.00645 m -14.15196,-1.39555 c 0,0 5.92034,-1.41574 9.52403,-0.38611 m 3.24881,-3.82987 c 0,0 -2.21918,-5.17936 4.73079,-5.69417 6.94997,-0.51481 14.53616,1.67151 21.97858,4.81387 8.19062,3.45827 9.95521,0.92272 21.84165,0 m 97.80206,172.42771 c 0,0 -4.36833,2.91222 -2.91222,10.19278 m -4.91437,-9.73774 c 0,0 -4.0043,2.27517 -2.18416,10.6478 m 12.64995,-11.46686 c 0,0 2.45719,-0.091 4.0043,2.00215 0,0 -4.27732,2.36618 -2.63919,9.46471 m -55.44858,-9.81104 c 0,0 -3.08888,3.1955 -2.70277,8.85844 m 10.52378,-10.37165 c 0,0 -5.50435,3.93649 -4.73213,9.72813 m 6.43516,0.51481 c 0,0 0.2574,-7.20737 4.2472,-9.26662 0,0 -1.09721,-1.72645 -4.03664,-1.68095 M 93.433735,249.52978 c 0,0 3.276248,-6.6435 10.738815,-4.36833 -1.18309,-5.02558 -8.736663,-9.35328 -13.560028,-2.82121 m 9.282702,-2.36618 c 0,0 0.546046,-5.00538 -3.640275,-7.18955 -4.186317,-2.18416 -7.098537,-0.45503 -7.098537,-0.45503 m 10.374784,4.36833 c 0,0 0.637054,-3.54927 3.913294,-4.36833 M 85.673411,198.84565 c 0,0 4.118501,-2.83147 7.593487,1.28704 0,0 0.900922,-6.17776 -2.316657,-8.23701 -3.21758,-2.05925 -6.821268,-0.38611 -6.821268,-0.38611 m 8.237003,2.05925 c 0,0 0.257406,-3.34628 4.89072,-3.86109 m -3.217579,1.15833 c 0,0 0.257406,-7.72219 -7.336081,-7.07868"
           id="path3784"
           inkscape:connector-curvature="0"
           sodipodi:nodetypes="cccccsscccccccccccccccccccscccccsccccc" />
        <g
           id="g3803"
           transform="matrix(0.93088223,0,0,0.93088223,8.5190916,9.373025)">
          <path
             inkscape:connector-curvature="0"
             id="path3786"
             d="m 121.839,132.13451 c 0,0 -2.57406,1.80185 -3.21758,4.50461 0,0 0.77222,1.54444 3.34628,2.44536 0,0 2.46671,-0.84135 5.92035,-0.53392 0,0 -0.77222,-5.64383 -6.04905,-6.41605 z"
             style="color:#000000;fill:#e0e2e5;fill-opacity:1;stroke:#000000;stroke-width:1.07424974;stroke-linecap:butt;stroke-linejoin:miter;stroke-miterlimit:4;stroke-opacity:1;stroke-dasharray:none;stroke-dashoffset:0;marker:none;visibility:visible;display:inline;overflow:visible;enable-background:accumulate"
             sodipodi:nodetypes="ccccc" />
          <path
             sodipodi:nodetypes="ccc"
             inkscape:connector-curvature="0"
             id="path3788"
             d="m 121.33634,137.67028 c 0.53784,-1.60501 1.81242,-3.31226 2.54144,-4.69595 -2.20661,0.13197 -3.35362,2.78592 -2.54144,4.69595 z"
             style="font-size:medium;font-style:normal;font-variant:normal;font-weight:normal;font-stretch:normal;text-indent:0;text-align:start;text-decoration:none;line-height:normal;letter-spacing:normal;word-spacing:normal;text-transform:none;direction:ltr;block-progression:tb;writing-mode:lr-tb;text-anchor:start;baseline-shift:baseline;color:#000000;fill:#000000;fill-opacity:1;stroke:none;stroke-width:1;marker:none;visibility:visible;display:inline;overflow:visible;enable-background:accumulate;font-family:Sans;-inkscape-font-specification:Sans" />
        </g>
        <path
           style="font-size:medium;font-style:normal;font-variant:normal;font-weight:normal;font-stretch:normal;text-indent:0;text-align:start;text-decoration:none;line-height:normal;letter-spacing:normal;word-spacing:normal;text-transform:none;direction:ltr;block-progression:tb;writing-mode:lr-tb;text-anchor:start;baseline-shift:baseline;color:#000000;fill:#000000;fill-opacity:1;stroke:none;stroke-width:1;marker:none;visibility:visible;display:inline;overflow:visible;enable-background:accumulate;font-family:Sans;-inkscape-font-specification:Sans"
           d="m 172.65625,140.75 c 2.76184,-0.22441 5.33515,-0.80795 7.1875,-2.82813 -2.25401,1.0284 -5.13818,1.70432 -7.25,1.82813 -5.07318,0.26017 -9.64356,3.88077 -10.0625,4.26646 -2.74483,-1.11409 -5.47938,-0.89977 -7.39445,1.10496 2.19746,-0.80915 4.15227,-1.50978 7.50382,0.40983 0,0 5.28567,-4.53868 10.01563,-4.78125 z m 119.78125,49.5 0.96875,-0.1875 c 0,0 -2.15119,-11.22863 -9.14352,-14.99467 5.87734,5.50373 8.17477,15.18217 8.17477,15.18217 z M 150,196.125 c -1.01745,1.81428 -1.3125,3.09375 -1.3125,3.09375 l 1,0.21875 c 0,0 0.22946,-1.13542 1.1875,-2.84375 0.95804,-1.70833 2.61633,-3.95444 5.17187,-6.5 -3.26889,1.82277 -5.02942,4.21697 -6.04687,6.03125 z m 90.53125,21.59375 0.6875,0.71875 c 0,0 4.84409,-4.47076 5.46875,-11.29688 -1.5595,6.27887 -6.15625,10.57813 -6.15625,10.57813 z m -85.40625,-0.25 c -1.01328,1.46602 -1.9375,1.9375 -1.9375,1.9375 l 0.46875,0.90625 c 0,0 1.18711,-0.65303 2.3125,-2.28125 1.12539,-1.62822 2.21875,-4.27687 1.71875,-8.28125 -0.5,3.82221 -1.54922,6.25273 -2.5625,7.71875 z m 27.30777,12.56476 c 0.11205,1.81691 0.25478,6.12264 0.25478,6.12264 l 1,0.0312 c 0,0 0.1182,-2.33924 -0.125,-5.75 0.0312,-0.10184 1.15657,-2.80324 1.23984,-5.60107 -1.32101,2.9782 -2.36962,5.19723 -2.36962,5.19723 z"
           id="path3827"
           inkscape:connector-curvature="0"
           sodipodi:nodetypes="cccccccccccsccscsccccsccscscccccc" />
        <path
           style="font-size:medium;font-style:normal;font-variant:normal;font-weight:normal;font-stretch:normal;text-indent:0;text-align:start;text-decoration:none;line-height:normal;letter-spacing:normal;word-spacing:normal;text-transform:none;direction:ltr;block-progression:tb;writing-mode:lr-tb;text-anchor:start;baseline-shift:baseline;color:#000000;fill:#000000;fill-opacity:1;stroke:none;stroke-width:0.75;marker:none;visibility:visible;display:inline;overflow:visible;enable-background:accumulate;font-family:Sans;-inkscape-font-specification:Sans"
           d="m 126.37505,138.75 c 4.70189,0.56592 8.20159,0.84153 10.78125,1.625 2.57966,0.78347 5.12,2.15758 5.41407,5.98398 0.29407,3.8264 -2.01312,4.75323 -4.0547,5.64102 2.60239,0.16509 5.69609,-1.50344 5.29328,-5.78938 -0.40282,-4.28594 -3.84887,-6.1163 -6.5626,-6.94048 -2.71373,-0.82418 -5.96409,-0.96369 -10.64885,-1.52755 z m 2.84898,62.27384 c 9.98154,0.36562 13.61258,-2.49259 18.55717,-2.49259 l 0,-0.75 5e-5,0 c -5.24817,0 -8.61299,2.87288 -18.31804,2.34828 -9.70505,-0.52461 -16.07261,1.68297 -16.07261,1.68297 0,0 5.85189,-1.15428 15.83343,-0.78866 z m -35.66153,-1.24259 -0.6875,0.3125 c 0,0 0.59375,1.35793 0.96875,3.375 0.375,-2.16925 -0.28125,-3.6875 -0.28125,-3.6875 z m 189.98356,23.465 c 5.82898,-9.90926 3.03206,-20.15253 3.03206,-20.15253 0,0 0.89071,11.26863 -4.17187,19.87503 -5.18707,8.81802 -5.60938,16.42185 -5.60938,16.42185 0,0 1.05885,-6.47077 6.74919,-16.14435 z m -133.86226,5.68384 c -4.48061,1.41493 -7.7997,0.30002 -14.25048,2.15433 -6.45079,1.85432 -6.17863,3.46811 -10.27707,4.82178 2.71946,0.14566 6.71311,-2.80836 10.79251,-3.95653 4.07939,-1.14816 10.56523,-0.9327 14.08249,-2.04342 3.50459,-1.25713 6.91294,-2.68856 9.17187,-5.64063 -2.65521,2.19799 -5.71279,3.43821 -9.51932,4.66447 z m 25.3787,8.63241 c -1.54395,1.07219 -3.3125,1.625 -3.3125,1.625 0,0 2.50126,0.20298 4.23356,-1 1.7323,-1.20298 2.73513,-3.53151 1.42269,-7.375 0.5077,3.80109 -0.7998,5.67781 -2.34375,6.75 z m -70.5,7.34375 -0.625,0.46875 c 0,0 1.2738,1.64645 3.92188,1.82812 -2.24265,-0.84796 -3.29688,-2.29687 -3.29688,-2.29687 z m 143.30274,14.56232 c 6.39047,4.99758 7.88488,5.28465 14.51746,9.19143 6.63258,3.90679 11.75792,7.715 11.75792,7.715 0,0 -3.75478,-4.16125 -11.3445,-8.6938 -7.58972,-4.53255 -9.29144,-4.90728 -14.66321,-9.11366 -5.37177,-4.20638 -7.14086,-8.29674 -8.36277,-10.89774 -0.23469,2.46213 1.70464,6.80118 8.0951,11.79877 z m 47.93163,18.95333 c 2.07695,0.10193 4.13251,-0.26241 5.76495,1.77729 1.63245,2.03986 0.48255,3.39605 -1.24932,3.94146 2.3574,0.48694 3.8908,-2.24048 2.06238,-4.51533 -1.82843,-2.27485 -4.27488,-1.82395 -6.21863,-1.84407 -2.24678,-3.41702 -5.48438,-4.01563 -5.48438,-4.01563 0,0 2.83848,1.22995 5.125,4.65628 z m -41.70307,8.49997 c 3.04081,-1.44621 3.3562,-4.54267 1.4687,-6 0.41805,2.4074 0.24565,4.25457 -1.4687,6 z M 238,303.5 c -2.37764,-0.26418 -4.04274,0.12225 -5.22149,0.59375 -1.17875,0.4715 -2.09978,0.94024 -2.09978,0.94024 l 0.5,0.5625 c 0,0 0.80747,-0.38582 1.88103,-0.81524 1.07356,-0.42942 2.62207,-0.78188 4.87774,-0.53125 2.72215,0.17463 4.96114,-0.5769 6.09375,-2.96875 -1.61284,1.74011 -4.19497,2.39881 -6.03125,2.21875 z m 42.59375,2.09375 c -3.12498,-1.49455 -5.40625,0.3125 -5.40625,0.3125 l 0.46875,0.5625 c 0,0 1.82964,-1.55566 4.625,-0.21875 2.86426,0.95723 6.48951,0.60684 7.75,-2.76563 -1.94288,2.10622 -5.08974,3.17424 -7.4375,2.10938 z"
           id="path3829"
           inkscape:connector-curvature="0"
           sodipodi:nodetypes="cszczscczccczczccccscscsczcccccscscscccczzczzczczczcccccccsccsccccccccc" />
        <g
           id="g3842">
          <g
             transform="translate(-0.18201377,-0.18201377)"
             id="g3839">
            <path
               style="color:#000000;fill:#e0e2e5;fill-opacity:1;stroke:#000000;stroke-width:1;stroke-linecap:butt;stroke-linejoin:miter;stroke-miterlimit:4;stroke-opacity:1;stroke-dasharray:none;stroke-dashoffset:0;marker:none;visibility:visible;display:inline;overflow:visible;enable-background:accumulate"
               d="m 209.93068,311.65538 c -4.82243,1.04875 -4.30513,7.81928 0.0644,9.14042 0,0 -0.52074,-3.43484 1.99401,-4.0372 2.51475,-0.60233 2.76403,-6.15197 -2.0584,-5.10322 z"
               id="path3837"
               inkscape:connector-curvature="0"
               sodipodi:nodetypes="zczz" />
          </g>
          <use
             x="0"
             y="0"
             xlink:href="#g3839"
             id="use3846"
             transform="translate(6.3704819,0)"
             width="744.09448"
             height="1052.3622" />
          <use
             height="1052.3622"
             width="744.09448"
             transform="translate(13.104991,0.36402754)"
             id="use3848"
             xlink:href="#g3839"
             y="0"
             x="0" />
          <use
             x="0"
             y="0"
             xlink:href="#g3839"
             id="use3850"
             transform="translate(20.749569,0.91006885)"
             width="744.09448"
             height="1052.3622" />
          <use
             height="1052.3622"
             width="744.09448"
             transform="matrix(0.99977549,0.02118892,-0.02118892,0.99977549,52.063793,-3.2856146)"
             id="use3852"
             xlink:href="#g3839"
             y="0"
             x="0" />
          <use
             x="0"
             y="0"
             xlink:href="#g3839"
             id="use3854"
             transform="matrix(0.99977549,0.02118892,-0.02118892,0.99977549,58.616289,-2.7395733)"
             width="744.09448"
             height="1052.3622" />
          <use
             height="1052.3622"
             width="744.09448"
             transform="matrix(0.99977549,0.02118892,-0.02118892,0.99977549,65.532812,-2.193532)"
             id="use3856"
             xlink:href="#g3839"
             y="0"
             x="0" />
          <use
             x="0"
             y="0"
             xlink:href="#g3839"
             id="use3858"
             transform="matrix(0.99977549,0.02118892,-0.02118892,0.99977549,72.631349,-2.193532)"
             width="744.09448"
             height="1052.3622" />
          <g
             id="g3862">
            <path
               inkscape:connector-curvature="0"
               id="path3860"
               d="m 83.604992,228.56786 c 0,0 -0.728055,-4.55035 4.004303,-5.64243 4.732358,-1.09208 8.372633,4.00431 6.006454,6.5525 -2.366179,2.54819 -4.186317,0.72805 -5.096386,-1.09208 -0.910068,-1.82014 -4.914371,0.18201 -4.914371,0.18201 z"
               style="color:#000000;fill:#e0e2e5;fill-opacity:1;stroke:#000000;stroke-width:1;stroke-linecap:butt;stroke-linejoin:miter;stroke-miterlimit:4;stroke-opacity:1;stroke-dasharray:none;stroke-dashoffset:0;marker:none;visibility:visible;display:inline;overflow:visible;enable-background:accumulate"
               sodipodi:nodetypes="csssc" />
          </g>
          <use
             x="0"
             y="0"
             xlink:href="#g3862"
             id="use3865"
             transform="matrix(0.90204894,-0.43163377,0.43163377,0.90204894,-91.588899,69.343938)"
             width="744.09448"
             height="1052.3622" />
          <use
             height="1052.3622"
             width="744.09448"
             transform="matrix(0.77832054,-0.62786713,0.62786713,0.77832054,-121.1585,124.03171)"
             id="use3867"
             xlink:href="#g3862"
             y="0"
             x="0" />
          <use
             x="0"
             y="0"
             xlink:href="#g3862"
             id="use3869"
             transform="matrix(0.56444385,-0.82547146,0.82547146,0.56444385,-142.44161,198.40281)"
             width="744.09448"
             height="1052.3622" />
          <use
             x="0"
             y="0"
             xlink:href="#g3839"
             id="use3850-1"
             transform="matrix(-0.16061386,-0.98701732,-0.98701732,0.16061386,461.91831,416.11179)"
             width="744.09448"
             height="1052.3622" />
          <use
             x="0"
             y="0"
             xlink:href="#g3839"
             id="use3850-1-4"
             transform="matrix(0.19625913,0.98055207,-0.98055207,0.19625913,354.69165,-87.839331)"
             width="744.09448"
             height="1052.3622" />
          <use
             height="1052.3622"
             width="744.09448"
             transform="matrix(0.38782874,0.92173145,-0.92173145,0.38782874,292.47751,-129.99718)"
             id="use3962"
             xlink:href="#g3839"
             y="0"
             x="0" />
          <use
             x="0"
             y="0"
             xlink:href="#g3839"
             id="use3964"
             transform="matrix(0.69053001,0.72330374,-0.72330374,0.69053001,165.87824,-176.09237)"
             width="744.09448"
             height="1052.3622" />
          <use
             height="1052.3622"
             width="744.09448"
             transform="matrix(0.69053001,0.72330374,-0.72330374,0.69053001,167.15234,-168.08376)"
             id="use3966"
             xlink:href="#g3839"
             y="0"
             x="0" />
          <use
             x="0"
             y="0"
             xlink:href="#g3839"
             id="use3968"
             transform="matrix(0.69053001,-0.72330374,-0.72330374,-0.69053001,184.07962,587.63414)"
             width="744.09448"
             height="1052.3622" />
        </g>
        <g
           id="g3997">
          <path
             transform="matrix(0.99918063,-0.04047315,0.05565058,1.3738734,-7.7235332,-48.785616)"
             d="m 108.83998,142.68817 c 0,0.28432 -0.40336,0.51481 -0.90092,0.51481 -0.49757,0 -0.90093,-0.23049 -0.90093,-0.51481 0,-0.28432 0.40336,-0.51481 0.90093,-0.51481 0.49756,0 0.90092,0.23049 0.90092,0.51481 z"
             sodipodi:ry="0.51481271"
             sodipodi:rx="0.90092218"
             sodipodi:cy="142.68817"
             sodipodi:cx="107.93906"
             id="path3974"
             style="color:#000000;fill:#000000;stroke:none;stroke-width:2;marker:none;visibility:visible;display:inline;overflow:visible;enable-background:accumulate"
             sodipodi:type="arc" />
          <use
             height="1052.3622"
             width="744.09448"
             transform="matrix(0.98819023,-0.15323207,0.15323207,0.98819023,-16.88534,15.930184)"
             id="use3989"
             xlink:href="#path3974"
             y="0"
             x="0" />
          <use
             x="0"
             y="0"
             xlink:href="#path3974"
             id="use3991"
             transform="matrix(0.98819023,-0.15323207,0.15323207,0.98819023,-12.509432,15.157965)"
             width="744.09448"
             height="1052.3622" />
          <use
             height="1052.3622"
             width="744.09448"
             transform="matrix(0.98819023,-0.15323207,0.15323207,0.98819023,-12.509432,17.989435)"
             id="use3993"
             xlink:href="#path3974"
             y="0"
             x="0" />
          <use
             x="0"
             y="0"
             xlink:href="#path3974"
             id="use3995"
             transform="matrix(0.98819023,-0.15323207,0.15323207,0.98819023,-17.142746,20.434795)"
             width="744.09448"
             height="1052.3622" />
        </g>
        <g
           id="g4059"
           transform="translate(-1.4169583e-6,-2.4808287e-8)">
          <path
             sodipodi:nodetypes="ccccccccccccccccc"
             style="color:#000000;fill:#000000;stroke:none;stroke-width:1;marker:none;visibility:visible;display:inline;overflow:visible;enable-background:accumulate"
             d="m 186.49089,169.71584 c -0.65025,0.39548 -1.34684,0.7711 -1.41573,1.41573 -0.16716,-0.48525 -0.57846,-0.23806 -0.90092,-0.2574 -0.39535,0.2145 -0.37179,0.42901 -0.25741,0.64351 -0.42901,-0.22562 -0.85802,0.27312 -1.28703,0.51481 -0.2574,0.72932 -0.1716,1.37284 0.25741,1.93055 -0.29104,0.15479 -0.56072,0.32026 -0.51482,0.64352 0.30031,0.77222 0.85802,1.20123 1.67314,1.28703 -0.41654,0.60061 0.0325,1.20123 0.25741,1.80184 0.70669,-0.20932 1.57692,-0.14608 1.80185,-1.15833 0.68617,-0.0426 0.85191,0.60877 2.05925,-0.1287 0.33517,-0.42901 0.24409,-0.85802 0.2574,-1.28703 0.33056,-0.16389 0.54669,0.1299 1.02963,-0.64352 -0.0681,-0.64863 -0.50148,-0.74932 -0.90092,-0.90092 0.29194,-0.54899 0.8218,-0.93937 0.64351,-1.80184 -0.65056,-0.67167 -1.04773,-0.3298 -1.54444,-0.38611 -0.20009,-0.68173 -0.45128,-1.32939 -1.15833,-1.67314 z"
             id="path4057"
             inkscape:connector-curvature="0" />
          <use
             height="1052.3622"
             width="744.09448"
             transform="matrix(0.82637307,0.56312303,-0.56312303,0.82637307,158.49063,-78.898088)"
             id="use4062"
             xlink:href="#path4057"
             y="0"
             x="0" />
          <use
             x="0"
             y="0"
             xlink:href="#path4057"
             id="use4064"
             transform="matrix(0.01287437,0.99991709,-0.99991709,0.01287437,379.17063,-3.92244)"
             width="744.09448"
             height="1052.3622" />
          <use
             height="1052.3622"
             width="744.09448"
             transform="matrix(-1.1325079,0.43502843,-0.43502843,-1.1325079,513.06803,296.34511)"
             id="use4066"
             xlink:href="#path4057"
             y="0"
             x="0" />
          <use
             height="1052.3622"
             width="744.09448"
             transform="translate(48.415663,-4.3683305)"
             id="use4068"
             xlink:href="#path4057"
             y="0"
             x="0" />
          <use
             x="0"
             y="0"
             xlink:href="#path4057"
             id="use4070"
             transform="matrix(0.82637307,0.56312303,-0.56312303,0.82637307,127.54829,-50.867967)"
             width="744.09448"
             height="1052.3622" />
          <use
             x="0"
             y="0"
             xlink:href="#path4057"
             id="use4072"
             transform="matrix(-0.70754712,0.70666617,-0.70666617,-0.70754712,424.31077,181.93318)"
             width="744.09448"
             height="1052.3622" />
          <use
             height="1052.3622"
             width="744.09448"
             transform="matrix(0.01287437,0.99991712,-0.99991712,0.01287437,343.85996,19.375322)"
             id="use4074"
             xlink:href="#path4057"
             y="0"
             x="0" />
          <use
             x="0"
             y="0"
             xlink:href="#path4057"
             id="use4076"
             transform="matrix(0.01609011,1.2496748,-1.2496748,0.01609011,469.64637,-43.635302)"
             width="744.09448"
             height="1052.3622" />
          <use
             height="1052.3622"
             width="744.09448"
             transform="matrix(0.82637307,0.56312303,-0.56312303,0.82637307,187.61283,-64.336986)"
             id="use4078"
             xlink:href="#path4057"
             y="0"
             x="0" />
          <use
             height="1052.3622"
             width="744.09448"
             transform="matrix(0.01287437,0.99991712,-0.99991712,0.01287437,424.31004,-11.931046)"
             id="use4080"
             xlink:href="#path4057"
             y="0"
             x="0" />
          <use
             x="0"
             y="0"
             xlink:href="#path4057"
             id="use4082"
             transform="matrix(0.82637307,-0.56312303,-0.56312303,-0.82637307,215.27892,433.76963)"
             width="744.09448"
             height="1052.3622" />
          <use
             height="1052.3622"
             width="744.09448"
             transform="matrix(-0.82637307,0.56312303,0.56312303,0.82637307,319.85099,-42.859364)"
             id="use4084"
             xlink:href="#path4057"
             y="0"
             x="0" />
          <use
             x="0"
             y="0"
             xlink:href="#path4057"
             id="use4086"
             transform="matrix(0.01287437,0.99991712,-0.99991712,0.01287437,427.58629,30.660176)"
             width="744.09448"
             height="1052.3622" />
          <use
             x="0"
             y="0"
             xlink:href="#path4057"
             id="use4088"
             transform="matrix(0.5224553,0.5218048,0.5218048,-0.5224553,31.526705,182.00715)"
             width="744.09448"
             height="1052.3622" />
          <use
             height="1052.3622"
             width="744.09448"
             transform="matrix(-0.19066856,0.71336196,0.71336196,0.19066856,118.12945,29.420412)"
             id="use4090"
             xlink:href="#path4057"
             y="0"
             x="0" />
          <use
             x="0"
             y="0"
             xlink:href="#path4057"
             id="use4092"
             transform="matrix(0.19066856,-0.71336196,-0.71336196,-0.19066856,274.4108,350.87201)"
             width="744.09448"
             height="1052.3622" />
          <use
             height="1052.3622"
             width="744.09448"
             transform="matrix(-0.19066856,0.71336196,0.71336196,0.19066856,107.31838,18.094533)"
             id="use4094"
             xlink:href="#path4057"
             y="0"
             x="0" />
          <use
             height="1052.3622"
             width="744.09448"
             transform="matrix(0.12825158,-0.47983683,-0.47983683,-0.12825158,224.56818,294.29724)"
             id="use4096"
             xlink:href="#path4057"
             y="0"
             x="0" />
          <use
             x="0"
             y="0"
             xlink:href="#path4057"
             id="use4098"
             transform="matrix(0.14431811,-0.53994768,-0.53994768,-0.14431811,262.40503,330.17563)"
             width="744.09448"
             height="1052.3622" />
          <use
             height="1052.3622"
             width="744.09448"
             transform="matrix(0.14431811,0.53994768,-0.53994768,0.14431811,262.14762,70.002018)"
             id="use4100"
             xlink:href="#path4057"
             y="0"
             x="0" />
          <use
             x="0"
             y="0"
             xlink:href="#path4057"
             id="use4102"
             transform="matrix(-0.33462699,0.71072962,-0.71072962,-0.33462699,461.24663,123.27024)"
             width="744.09448"
             height="1052.3622" />
          <use
             height="1052.3622"
             width="744.09448"
             transform="matrix(-0.33462699,-0.71072962,-0.71072962,0.33462699,451.41788,292.18907)"
             id="use4104"
             xlink:href="#path4057"
             y="0"
             x="0" />
          <use
             x="0"
             y="0"
             xlink:href="#path4057"
             id="use4106"
             transform="matrix(0.28895547,-0.61372579,0.61372579,0.28895547,88.628805,289.35819)"
             width="744.09448"
             height="1052.3622" />
          <use
             height="1052.3622"
             width="744.09448"
             transform="matrix(0.17357993,-0.36867439,0.36867439,0.17357993,154.11011,277.28368)"
             id="use4108"
             xlink:href="#path4057"
             y="0"
             x="0" />
          <use
             x="0"
             y="0"
             xlink:href="#path4057"
             id="use4110"
             transform="matrix(-0.17357993,-0.36867439,-0.36867439,0.17357993,356.22381,270.73118)"
             width="744.09448"
             height="1052.3622" />
          <use
             height="1052.3622"
             width="744.09448"
             transform="matrix(-0.17357993,-0.36867439,-0.36867439,0.17357993,369.69283,248.88953)"
             id="use4112"
             xlink:href="#path4057"
             y="0"
             x="0" />
          <use
             x="0"
             y="0"
             xlink:href="#path4057"
             id="use4114"
             transform="matrix(-0.17357993,-0.36867439,-0.36867439,0.17357993,364.23242,233.23635)"
             width="744.09448"
             height="1052.3622" />
          <use
             height="1052.3622"
             width="744.09448"
             transform="matrix(-0.17357993,-0.36867439,-0.36867439,0.17357993,341.66271,233.96441)"
             id="use4116"
             xlink:href="#path4057"
             y="0"
             x="0" />
          <use
             x="0"
             y="0"
             xlink:href="#path4057"
             id="use4118"
             transform="matrix(-0.17357993,-0.36867439,-0.36867439,0.17357993,340.57063,208.84651)"
             width="744.09448"
             height="1052.3622" />
          <use
             height="1052.3622"
             width="744.09448"
             transform="matrix(-0.17357993,-0.36867439,-0.36867439,0.17357993,353.31159,205.57026)"
             id="use4120"
             xlink:href="#path4057"
             y="0"
             x="0" />
          <use
             x="0"
             y="0"
             xlink:href="#path4057"
             id="use4122"
             transform="matrix(-0.17357993,-0.36867439,-0.36867439,0.17357993,361.3202,213.57887)"
             width="744.09448"
             height="1052.3622" />
          <use
             height="1052.3622"
             width="744.09448"
             transform="matrix(-0.17357993,-0.36867439,-0.36867439,0.17357993,371.14894,210.66665)"
             id="use4124"
             xlink:href="#path4057"
             y="0"
             x="0" />
          <use
             height="1052.3622"
             width="744.09448"
             transform="matrix(-0.23816921,-0.50585852,-0.50585852,0.23816921,332.91141,224.22087)"
             id="use4126"
             xlink:href="#path4057"
             y="0"
             x="0" />
          <use
             x="0"
             y="0"
             xlink:href="#path4057"
             id="use4128"
             transform="matrix(-0.23816921,-0.50585852,-0.50585852,0.23816921,308.71521,231.94306)"
             width="744.09448"
             height="1052.3622" />
          <use
             height="1052.3622"
             width="744.09448"
             transform="matrix(-0.23816921,-0.50585852,-0.50585852,0.23816921,310.51705,217.78571)"
             id="use4130"
             xlink:href="#path4057"
             y="0"
             x="0" />
          <use
             x="0"
             y="0"
             xlink:href="#path4057"
             id="use4132"
             transform="matrix(-0.23816921,-0.50585852,-0.50585852,0.23816921,318.49665,261.80219)"
             width="744.09448"
             height="1052.3622" />
          <use
             height="1052.3622"
             width="744.09448"
             transform="matrix(0.23816921,-0.50585852,0.50585852,0.23816921,34.599903,252.02075)"
             id="use4134"
             xlink:href="#path4057"
             y="0"
             x="0" />
          <use
             x="0"
             y="0"
             xlink:href="#path4057"
             id="use4136"
             transform="matrix(0.23816921,-0.50585852,0.50585852,0.23816921,36.659154,271.06882)"
             width="744.09448"
             height="1052.3622" />
        </g>
      </g>
      <path
         sodipodi:nodetypes="cszscc"
         inkscape:connector-curvature="0"
         id="path2993"
         d="m 70.864028,94.2417 c 0,0 0,108.3856 0,176.82278 0,68.43717 44.993072,133.32868 126.662752,133.32868 81.66968,0 126.66275,-64.89151 126.66275,-133.32868 0,-68.43718 0,-176.82278 0,-176.82278 z"
         style="color:#000000;fill:none;stroke:#000000;stroke-width:3;stroke-linecap:butt;stroke-linejoin:miter;stroke-miterlimit:4;stroke-opacity:1;stroke-dasharray:none;stroke-dashoffset:0;marker:none;visibility:visible;display:inline;overflow:visible;enable-background:accumulate" />
    </g>
  </g>
</svg>
