<?xml version="1.0" encoding="UTF-8" standalone="no"?>
<!-- Created with Inkscape (http://www.inkscape.org/) -->

<svg
   xmlns:dc="http://purl.org/dc/elements/1.1/"
   xmlns:cc="http://creativecommons.org/ns#"
   xmlns:rdf="http://www.w3.org/1999/02/22-rdf-syntax-ns#"
   xmlns:svg="http://www.w3.org/2000/svg"
   xmlns="http://www.w3.org/2000/svg"
   xmlns:sodipodi="http://sodipodi.sourceforge.net/DTD/sodipodi-0.dtd"
   xmlns:inkscape="http://www.inkscape.org/namespaces/inkscape"
   width="436.6467"
   height="526.89685"
   id="svg2"
   version="1.1"
   inkscape:version="0.48.5 r10040"
   sodipodi:docname="Rokiškis.svg">
  <defs
     id="defs4" />
  <sodipodi:namedview
     id="base"
     pagecolor="#f6f3f1"
     bordercolor="#666666"
     borderopacity="1.0"
     inkscape:pageopacity="0"
     inkscape:pageshadow="2"
     inkscape:zoom="1.4142136"
     inkscape:cx="304.35821"
     inkscape:cy="245.13522"
     inkscape:document-units="px"
     inkscape:current-layer="layer1"
     showgrid="false"
     showborder="true"
     inkscape:window-width="1920"
     inkscape:window-height="1017"
     inkscape:window-x="-8"
     inkscape:window-y="-8"
     inkscape:window-maximized="1"
     inkscape:object-nodes="true"
     inkscape:snap-smooth-nodes="true"
     inkscape:snap-global="false"
     showguides="true"
     inkscape:guide-bbox="true"
     fit-margin-top="0"
     fit-margin-left="0"
     fit-margin-right="0"
     fit-margin-bottom="0"
     inkscape:showpageshadow="false" />
  <metadata
     id="metadata7">
    <rdf:RDF>
      <cc:Work
         rdf:about="">
        <dc:format>image/svg+xml</dc:format>
        <dc:type
           rdf:resource="http://purl.org/dc/dcmitype/StillImage" />
      </cc:Work>
    </rdf:RDF>
  </metadata>
  <g
     inkscape:label="Layer 1"
     inkscape:groupmode="layer"
     id="layer1"
     transform="translate(-74.502833,-222.38569)">
    <g
       id="g4082">
      <g
         id="g4074">
        <g
           id="g4068">
          <g
             id="g4053">
            <path
               style="color:#000000;fill:#00418f;fill-opacity:1;stroke:none;stroke-width:5;marker:none;visibility:visible;display:inline;overflow:visible;enable-background:accumulate"
               d="m 292.8125,451.875 -215.8125,0 0,83.34375 c 0,98.67674 75.37087,211.5625 215.8125,211.5625 z"
               id="path3800"
               inkscape:connector-curvature="0"
               sodipodi:nodetypes="ccscc" />
            <path
               style="color:#000000;fill:#d7b369;fill-opacity:1;stroke:none;stroke-width:5;marker:none;visibility:visible;display:inline;overflow:visible;enable-background:accumulate"
               d="m 292.8125,451.875 215.84375,0 0,-227 -215.84375,0 z"
               id="path3804"
               inkscape:connector-curvature="0"
               sodipodi:nodetypes="ccccc" />
          </g>
          <path
             id="path3796"
             d="m 77,224.875 0,227 215.8125,0 0,-227 -215.8125,0 z m 215.8125,227 0,294.90625 c 140.44162,0 215.84375,-112.88576 215.84375,-211.5625 l 0,-83.34375 -215.84375,0 z"
             style="color:#000000;fill:#e30016;fill-opacity:1;stroke:#000000;stroke-width:2;stroke-linecap:butt;stroke-linejoin:miter;stroke-miterlimit:4;stroke-opacity:1;stroke-dasharray:none;stroke-dashoffset:0;marker:none;visibility:visible;display:inline;overflow:visible;enable-background:accumulate"
             inkscape:connector-curvature="0" />
        </g>
        <path
           sodipodi:nodetypes="cszscc"
           inkscape:connector-curvature="0"
           id="path3767"
           d="m 508.64952,224.88569 c 0,0 0,211.66496 0,310.34167 0,98.67674 -75.38172,211.55516 -215.82334,211.55516 -140.44163,0 -215.823347,-112.87842 -215.823347,-211.55516 0,-98.67671 0,-310.34167 0,-310.34167 z"
           style="color:#000000;fill:none;stroke:#000000;stroke-width:5;stroke-linecap:butt;stroke-linejoin:miter;stroke-miterlimit:4;stroke-opacity:1;stroke-dasharray:none;stroke-dashoffset:0;marker:none;visibility:visible;display:inline;overflow:visible;enable-background:accumulate" />
      </g>
      <g
         id="g3840">
        <path
           style="color:#000000;fill:#d9dadc;fill-opacity:1;stroke:#000000;stroke-width:2;stroke-linecap:butt;stroke-linejoin:miter;stroke-miterlimit:4;stroke-opacity:1;stroke-dasharray:none;stroke-dashoffset:0;marker:none;visibility:visible;display:inline;overflow:visible;enable-background:accumulate"
           d="m 171.15684,252.08447 0,48.07083 -35.58954,0 0,-48.07083 -27.38529,0 0,72.09096 62.97483,0 0,29.6605 -32.02474,0 c 0,0 0.42986,43.4161 -28.80077,70.92728 0,0 35.67857,0.42987 52.87306,-45.99526 l 43.29019,0 c 17.19449,46.42513 52.87306,45.99526 52.87306,45.99526 -29.23063,-27.51118 -28.80077,-70.92728 -28.80077,-70.92728 l -32.02474,0 0,-29.6605 62.97483,0 0,-72.09096 -27.38529,0 0,48.07083 -35.58954,0 0,-48.07083 z"
           id="path3807"
           inkscape:connector-curvature="0"
           sodipodi:nodetypes="ccccccccccccccccccccccc" />
        <path
           sodipodi:nodetypes="cccccccccccccccccccccccccccccccccc"
           inkscape:connector-curvature="0"
           id="path3835"
           style="color:#000000;fill:none;stroke:#000000;stroke-width:1.5;stroke-linecap:butt;stroke-linejoin:miter;stroke-miterlimit:4;stroke-opacity:1;stroke-dasharray:none;stroke-dashoffset:0;marker:none;visibility:visible;display:inline;overflow:visible;enable-background:accumulate"
           d="m 171.15684,353.83593 13.69264,12.62878 13.69265,-12.62878 m -27.38529,-53.68063 27.38529,24.02013 m -27.38529,0 27.38529,-24.02013 m 62.97483,-48.07083 -13.69264,11.76695 -13.69265,-11.76695 m 0,48.07083 27.38529,24.02013 m -30.95009,29.6605 -24.07229,24.93202 m -98.31257,-126.68348 13.69264,11.76695 13.69265,-11.76695 m 0,48.07083 -27.38529,24.02013 m 13.69264,-60.32401 0,48.15432 125.94967,0 0,-48.15432 m -108.69222,89.98451 24.07229,24.93202 m -52.87306,45.99526 c 0,0 32.66953,-13.32573 41.26678,-58.03141 l 66.50275,0 c 8.59725,44.70568 41.26678,58.03141 41.26678,58.03141 m -88.2108,-172.67874 13.69264,11.76695 13.69265,-11.76695 m -13.69265,11.76695 0,102.96176" />
      </g>
      <g
         id="g3913">
        <g
           id="g3885">
          <g
             transform="translate(0,-9.1137695e-6)"
             id="g3869">
            <path
               inkscape:connector-curvature="0"
               id="path3861"
               d="m 335.00285,614.45923 -13.98209,-27.96419 154.87701,0 -13.98209,27.96419 z"
               style="color:#000000;fill:#d9dadc;fill-opacity:1;stroke:#000000;stroke-width:2;stroke-linecap:butt;stroke-linejoin:miter;stroke-miterlimit:4;stroke-opacity:1;stroke-dasharray:none;stroke-dashoffset:0;marker:none;visibility:visible;display:inline;overflow:visible;enable-background:accumulate"
               sodipodi:nodetypes="ccccc" />
            <path
               inkscape:connector-curvature="0"
               id="path3866"
               style="color:#000000;fill:none;stroke:#000000;stroke-width:1.5;stroke-linecap:butt;stroke-linejoin:miter;stroke-miterlimit:4;stroke-opacity:1;stroke-dasharray:none;stroke-dashoffset:0;marker:none;visibility:visible;display:inline;overflow:visible;enable-background:accumulate"
               d="m 456.58627,600.19344 -116.25401,0 m -5.32941,14.26579 5.32941,-14.26579 -19.3115,-13.6984 m 140.89492,27.96419 -5.32941,-14.26579 19.3115,-13.6984" />
          </g>
          <g
             transform="translate(1,35.385092)"
             id="g3873">
            <path
               sodipodi:nodetypes="ccccc"
               style="color:#000000;fill:#d9dadc;fill-opacity:1;stroke:#000000;stroke-width:2;stroke-linecap:butt;stroke-linejoin:miter;stroke-miterlimit:4;stroke-opacity:1;stroke-dasharray:none;stroke-dashoffset:0;marker:none;visibility:visible;display:inline;overflow:visible;enable-background:accumulate"
               d="m 351.00285,614.45923 -13.98209,-27.96419 120.87701,0 -13.98209,27.96419 z"
               id="path3875"
               inkscape:connector-curvature="0" />
            <path
               sodipodi:nodetypes="cccccccc"
               inkscape:connector-curvature="0"
               d="m 438.58627,600.19344 -82.25401,0 m -5.32941,14.26579 5.32941,-14.26579 -19.3115,-13.6984 m 106.89492,27.96419 -5.32941,-14.26579 19.3115,-13.6984"
               style="color:#000000;fill:none;stroke:#000000;stroke-width:1.5;stroke-linecap:butt;stroke-linejoin:miter;stroke-miterlimit:4;stroke-opacity:1;stroke-dasharray:none;stroke-dashoffset:0;marker:none;visibility:visible;display:inline;overflow:visible;enable-background:accumulate"
               id="path3877" />
          </g>
          <g
             id="g3879"
             transform="translate(-1,70.770201)">
            <path
               inkscape:connector-curvature="0"
               id="path3881"
               d="m 371.00285,614.45923 -13.98209,-27.96419 84.87701,0 -13.98209,27.96419 z"
               style="color:#000000;fill:#d9dadc;fill-opacity:1;stroke:#000000;stroke-width:2;stroke-linecap:butt;stroke-linejoin:miter;stroke-miterlimit:4;stroke-opacity:1;stroke-dasharray:none;stroke-dashoffset:0;marker:none;visibility:visible;display:inline;overflow:visible;enable-background:accumulate"
               sodipodi:nodetypes="ccccc" />
            <path
               id="path3883"
               style="color:#000000;fill:none;stroke:#000000;stroke-width:1.5;stroke-linecap:butt;stroke-linejoin:miter;stroke-miterlimit:4;stroke-opacity:1;stroke-dasharray:none;stroke-dashoffset:0;marker:none;visibility:visible;display:inline;overflow:visible;enable-background:accumulate"
               d="m 422.58627,600.19344 -46.25401,0 m -5.32941,14.26579 5.32941,-14.26579 -19.3115,-13.6984 m 70.89492,27.96419 -5.32941,-14.26579 19.3115,-13.6984"
               inkscape:connector-curvature="0"
               sodipodi:nodetypes="cccccccc" />
          </g>
        </g>
        <g
           id="g3909"
           transform="translate(-0.023095,0)">
          <path
             sodipodi:nodetypes="cczcczsscszczcczczscsszcczccc"
             inkscape:connector-curvature="0"
             id="path3904"
             d="m 419.40228,580.15782 c 2.34153,0 6.33481,0.32126 5.80314,-5.80314 2.18453,0 6.12734,-2.53378 6.12734,-7.34318 0,-4.80939 -3.94281,-7.34317 -6.12734,-7.34317 0.53167,-6.1244 -3.46161,-5.80314 -5.80314,-5.80314 0,0 -0.25257,-8.3065 2.95266,-17.51162 3.20523,-9.20512 12.75003,-10.75378 15.80061,-5.80946 2.52957,4.09987 -1.37051,9.55604 2.88313,18.43193 4.65627,9.71605 11.94778,7.36473 14.55297,5.42529 -4.74604,-1.89749 -7.05373,-6.71606 -0.37766,-17.34723 6.67607,-10.63117 8.08098,-28.62425 -4.07737,-37.13509 -12.15835,-8.51084 -27.30411,-5.07828 -34.34731,5.02611 -0.21493,-4.5283 5.99547,-15.06104 -4.98121,-24.87296 -10.97668,-9.81192 -13.32574,-18.05421 -13.32574,-18.05421 l 0,0 c 0,0 -2.34906,8.24229 -13.32574,18.05421 -10.97668,9.81192 -4.76628,20.34466 -4.98121,24.87296 -7.0432,-10.10439 -22.18896,-13.53695 -34.34731,-5.02611 -12.15835,8.51084 -10.75344,26.50392 -4.07737,37.13509 6.67607,10.63117 4.36838,15.44974 -0.37766,17.34723 2.60519,1.93944 9.8967,4.29076 14.55297,-5.42529 4.25364,-8.87589 0.35356,-14.33206 2.88313,-18.43193 3.05058,-4.94432 12.59538,-3.39566 15.80061,5.80946 3.20523,9.20512 2.95266,17.51162 2.95266,17.51162 -2.34153,0 -6.33481,-0.32126 -5.80314,5.80314 -2.18453,0 -6.12734,2.53378 -6.12734,7.34317 0,4.8094 3.94281,7.34318 6.12734,7.34318 -0.53167,6.1244 3.46161,5.80314 5.80314,5.80314 z"
             style="color:#000000;fill:#d9dadc;fill-opacity:1;stroke:#000000;stroke-width:2;stroke-linecap:butt;stroke-linejoin:miter;stroke-miterlimit:4;stroke-opacity:1;stroke-dasharray:none;stroke-dashoffset:0;marker:none;visibility:visible;display:inline;overflow:visible;enable-background:accumulate" />
          <path
             d="m 371.7593,574.20268 53.44612,0 m -5.80314,-20.09649 -41.83984,0 m -5.80314,5.79215 53.44612,0 m -7.36187,-56.85462 c 0,0 -6.13684,12.9966 -8.47134,25.60289 -2.33451,12.60628 -1.93439,25.79173 -1.93439,25.79173 m 5.42461,-0.4162 c 0,0 -1.04314,-24.4416 8.8148,-37.23493 10.40655,-13.5053 24.94284,-8.90291 27.66023,0.60792 2.71738,9.51084 -2.27167,15.41376 -3.64751,24.01272 -1.37583,8.59897 3.34355,14.89398 9.11876,12.76627 m -75.68754,-51.1304 c 0,0 6.13684,12.9966 8.47134,25.60289 2.33451,12.60628 1.93439,25.79173 1.93439,25.79173 m -5.42461,-0.4162 c 0,0 1.04314,-24.4416 -8.8148,-37.23493 -10.40655,-13.5053 -24.94284,-8.90291 -27.66023,0.60792 -2.71738,9.51084 2.27167,15.41376 3.64751,24.01272 1.37583,8.59897 -3.34355,14.89398 -9.11876,12.76627"
             style="color:#000000;fill:none;stroke:#000000;stroke-width:1.5;stroke-linecap:butt;stroke-linejoin:miter;stroke-miterlimit:4;stroke-opacity:1;stroke-dasharray:none;stroke-dashoffset:0;marker:none;visibility:visible;display:inline;overflow:visible;enable-background:accumulate"
             id="path3906"
             inkscape:connector-curvature="0" />
        </g>
      </g>
      <path
         sodipodi:nodetypes="scccccsssssssccsssscscccsssscssscccccscccscsssscsccssssscccscccccsccccscccccsscssccssccccsssccccscccscscccscscsssssscsssccsccssscscscccssscccssssscccsscscscsccsscsccscccssccccsssscccsccsccccscccccsscscccscscccccccccsccccccsscsscccsccssccscccccscsscscsccscccccccccccccccssscscccccccccscccccccccccccccccccccssccccccccccccccssccsscsssccss"
         id="path3930"
         d="m 417.51729,391.57536 c 0.326,0 1.65082,0.97123 2.95174,2.1704 2.0797,1.91698 5.23005,3.359 7.34464,3.36844 0.87693,0.004 0.86735,-0.0846 -0.13892,-2.01412 -0.95302,-1.82733 -1.0237,-2.91114 -0.29517,-4.06296 0.44271,-0.69996 0.65689,-0.68086 1.5627,0.13888 0.57751,0.52266 1.59371,0.95497 2.25719,0.95497 1.08821,0 1.19808,-0.29838 1.19808,-2.98645 0,-2.42791 0.25418,-3.24069 1.37169,-4.35818 1.75999,-1.76 4.84892,-2.65654 9.04624,-2.65654 3.1951,0 8.93734,0.82872 9.4803,1.37169 0.80319,0.8032 -9.31502,11.15506 -16.8423,17.22429 -5.14896,4.15154 -9.7234,8.72234 -9.7234,9.72336 0,1.01324 2.39495,0.59839 3.71572,-0.64242 l 1.28488,-1.19807 0,1.19807 c 0,1.15088 0.23681,1.2154 5.0006,1.2154 2.75035,0 5.00061,-0.2182 5.00061,-0.4688 0,-0.63616 3.87533,-5.08741 4.42762,-5.08741 0.24865,0 0.60695,0.62509 0.79871,1.38906 0.48066,1.9152 1.38087,1.73856 2.11829,-0.41672 1.00437,-2.93559 6.04753,-12.55751 9.25457,-17.65835 l 2.98649,-4.74017 6.1813,-0.0175 c 8.05105,-0.0272 11.24833,-1.16809 18.17925,-6.47648 1.09725,-0.84037 2.16102,-1.52795 2.36138,-1.52795 0.88088,0 0.33611,11.6268 -0.74661,15.88734 -1.28302,5.04864 -4.49759,12.06057 -7.43145,16.23458 -1.11142,1.58122 -1.82881,2.89921 -1.59742,2.93438 1.19721,0.18205 2.74588,-0.25174 3.61157,-1.02445 0.88395,-0.78903 0.97234,-0.78386 0.97234,0.052 0,0.77838 0.6794,0.92024 4.41024,0.92024 4.91144,0 4.66562,0.21042 5.34787,-4.61862 l 0.38198,-2.69128 2.03148,0.34725 2.03149,0.34729 0.0175,-11.00829 c 0.0162,-6.85827 0.30406,-12.35084 0.76398,-14.60241 1.72553,-8.44706 1.27125,-12.49151 -1.85787,-16.39087 l -1.33695,-1.6495 1.59743,-3.19482 c 2.10659,-4.17311 4.20974,-10.49535 5.19159,-15.62688 1.12527,-5.88128 2.18475,-23.3593 1.85787,-30.76757 -0.24822,-5.62413 -0.46485,-6.66254 -2.03153,-9.84491 -1.84163,-3.74094 -3.99911,-5.99284 -7.95232,-8.2996 -5.23375,-3.05398 -20.22458,-3.33934 -34.9,-0.65983 -16.28117,2.97269 -25.95545,3.80873 -35.57719,3.05593 -6.58108,-0.51491 -14.18449,-1.92006 -14.6719,-2.70864 -0.15294,-0.24748 1.27335,-0.7461 3.17748,-1.11126 3.41823,-0.65552 8.17751,-2.56857 8.17804,-3.28163 1.9e-4,-0.20197 -1.27526,-0.28134 -2.83019,-0.17366 -2.39057,0.1656 -7.72662,-1.13262 -7.72662,-1.87519 0,-0.10404 0.7501,-0.92373 1.66687,-1.84053 0.91676,-0.91677 1.66686,-2.19551 1.66686,-2.8302 0,-1.07579 -0.30702,-1.14596 -4.61861,-1.14596 -6.28226,0 -13.78732,-1.35902 -21.77343,-3.92408 -7.78031,-2.49897 -11.99788,-3.31689 -17.69308,-3.24693 l -1.3e-4,4.4e-4 c -0.81359,0.0104 -1.64642,0.0427 -2.53503,0.0866 -6.46615,0.32038 -12.71065,1.72773 -18.99533,4.28869 -2.2576,0.91996 -4.16489,1.68312 -4.23663,1.68425 -0.0717,0.001 0.0199,1.47818 0.20836,3.28162 0.19361,1.8521 0.0904,4.00935 -0.24306,4.96586 l -0.59035,1.68424 3.00382,0.88552 c 1.65808,0.48202 3.90079,1.63462 4.96586,2.56976 1.85588,1.62946 1.88992,1.7747 1.12863,3.24691 -1.06774,2.06474 -3.23424,3.40851 -7.17101,4.44498 l -3.28167,0.86815 -0.13888,6.66747 c -0.12904,6.43715 -1.15633,12.97028 -2.81283,17.84936 -0.63947,1.88346 -0.65964,2.8105 -0.13892,4.75752 0.551,2.06006 0.50069,2.72936 -0.32991,4.47969 -0.53659,1.13088 -1.84072,2.58583 -2.88227,3.22956 l -1.8926,1.16332 2.18777,3.09067 c 2.7315,3.8504 8.83563,10.71308 9.53238,10.71308 0.28623,0 0.52091,-2.22086 0.52091,-4.93116 0,-5.17981 1.29537,-14.05614 2.27458,-15.57476 0.43782,-0.67902 0.51143,-0.44222 0.2778,0.95497 -1.82108,10.89019 -1.7506,18.81785 0.20837,22.13808 0.64619,1.09521 1.11322,2.04506 1.02441,2.11829 -0.089,0.0732 -1.13064,0.59623 -2.30929,1.14596 -2.22064,1.03581 -5.7937,5.07823 -7.5877,8.59478 -1.1788,2.31065 -2.751,7.28269 -4.23663,13.33494 -1.32444,5.3955 -1.45845,15.8963 -0.20836,16.66868 1.00963,0.62376 1.50848,0.16316 1.80579,-1.66687 l 0.22569,-1.38906 0.64247,1.52794 c 1.38823,3.30885 4.89811,0.47064 6.11182,-4.93112 0.44248,-1.96931 0.33798,-2.42618 -0.81605,-3.76784 -1.47469,-1.71441 -1.28455,-2.55238 0.57298,-2.55238 0.68754,0 1.72348,-0.34829 2.29192,-0.76398 0.94333,-0.68977 0.97131,-0.98076 0.31255,-3.33373 -1.48838,-5.31592 0.38905,-10.21015 4.70542,-12.25843 1.51171,-0.71734 1.91674,-1.19855 1.63213,-1.89256 -2.20867,-5.38615 -1.76107,-10.225 1.58006,-16.96385 3.28988,-6.63546 3.83946,-8.88999 3.90671,-16.04359 0.0347,-3.71143 0.26576,-5.75929 0.59035,-5.43466 0.84941,0.84941 0.49639,10.82616 -0.50353,14.32461 -0.5003,1.7505 -2.04674,5.47827 -3.43792,8.28226 -2.20471,4.44367 -2.52504,5.54926 -2.51766,8.61215 0.004,2.02326 0.41973,4.51916 0.97234,5.88609 1.82111,4.50458 7.08611,7.67367 13.31757,8.00446 l 2.76075,0.13888 0.45143,-2.46558 c 0.79768,-4.31928 0.14151,-7.80671 -2.37872,-12.55356 -2.07261,-3.90366 -2.29808,-4.69986 -2.0836,-7.32726 0.13221,-1.61989 0.62082,-3.31214 1.07652,-3.76784 0.73424,-0.73423 0.81529,-0.41004 0.78134,2.93439 -0.039,3.8339 0.49244,5.44412 3.12537,9.5671 1.73481,2.71658 1.99446,9.51264 0.69453,17.98826 -0.83098,5.4181 -0.89903,7.15297 -0.38198,9.74078 1.02728,5.14157 -0.25511,9.34573 -3.5421,11.59859 -5.04808,3.45994 -9.11568,8.46956 -9.11568,11.25135 0,0.84227 0.36119,1.146 1.40643,1.146 0.77356,0 1.56043,-0.37507 1.73631,-0.83345 0.17589,-0.45839 0.54316,-0.83342 0.81609,-0.83342 0.27287,0 0.48616,0.37503 0.48616,0.83342 0,0.67868 0.92158,0.83341 4.96587,0.83345 l 4.96586,0 0.38199,-2.6392 c 0.51709,-3.56654 0.62899,-3.66657 2.53502,-2.30934 0.91293,0.65007 1.79554,1.03469 1.96204,0.86816 0.16653,-0.1665 0.0337,-2.43264 -0.31255,-5.03531 -0.67751,-5.09129 -0.49461,-6.62529 1.21544,-10.03594 1.87585,-3.74135 3.16367,-8.04117 4.89642,-16.4082 0.91764,-4.43108 1.79975,-8.74411 1.97942,-9.58448 0.3054,-1.42848 0.2078,-1.53737 -1.54531,-1.54532 -3.68332,-0.0168 -3.47713,-0.96007 0.26042,-1.19807 2.59562,-0.16527 3.98752,-0.54473 4.84432,-1.31958 1.47871,-1.33734 3.29904,-4.81773 3.29904,-6.30286 0,-0.60531 0.25002,-1.25226 0.5556,-1.44113 0.89957,-0.55598 0.61864,2.03007 -0.48616,4.46232 -0.92143,2.02846 -3.57826,4.85499 -5.03535,5.34787 -0.31224,0.10568 -0.85723,1.65203 -1.2154,3.4379 -0.77262,3.85229 -0.33812,4.40349 3.12537,3.88938 5.18536,-0.76971 11.10104,-3.58884 18.42233,-8.76843 4.42406,-3.12985 8.91149,-4.7818 14.02946,-5.17423 l 4.09771,-0.31254 -0.29517,1.61479 c -0.16586,0.88764 -0.47751,2.17733 -0.69453,2.86494 -0.35815,1.13473 -0.21635,1.25014 1.56268,1.25014 3.30806,0 8.57567,-1.99391 13.05714,-4.93116 5.79694,-3.79945 7.50092,-4.42736 14.0468,-5.13948 6.38633,-0.69476 11.77375,-0.13115 16.70338,1.71893 3.93699,1.47757 10.16711,6.28602 13.23076,10.22695 l 2.46558,3.17743 -1.04178,1.92731 c -1.47429,2.73758 -5.43041,6.21079 -8.85525,7.77873 -3.31039,1.51554 -8.1086,2.394 -8.1086,1.47587 0,-0.32168 0.21779,-0.6795 0.48617,-0.78134 0.9756,-0.37029 3.40318,-4.54392 3.40318,-5.85139 0,-0.73813 -0.76192,-3.13174 -1.70157,-5.33051 -1.1841,-2.77068 -1.82362,-5.36095 -2.08359,-8.43853 -0.36943,-4.37341 -0.40724,-4.44227 -2.04886,-4.79224 -1.94726,-0.4151 -9.7234,-0.61092 -9.7234,-0.24306 0,0.13786 0.39342,1.70055 0.86815,3.47262 0.8709,3.25073 1.33145,19.81691 0.57302,20.57539 -0.19332,0.19329 -3.64901,-0.245 -7.69191,-0.9897 -10.35796,-1.90792 -20.22038,-1.9142 -25.69751,0 -2.33257,0.81521 -5.16815,1.3782 -7.0842,1.38906 -1.75714,0.0104 -3.19481,0.23444 -3.19481,0.50353 0,0.26905 -0.50808,2.50315 2.74961,5.15291 -3.24025,3.87621 -1.79912,10.36488 0.41521,12.18182 0.98969,-1.67441 1.94372,-4.74637 3.06855,-4.74637 z m -83.30857,-115.5692 c -0.56959,0.0632 -0.508,0.43241 0.0866,2.1183 0.75456,2.13866 0.59669,4.85537 -0.31254,5.41733 -0.92107,0.56923 -0.47645,1.81547 1.2328,3.52472 1.89057,1.89057 4.60051,2.32852 5.17423,0.83342 0.60599,-1.57919 0.34857,-5.78767 -0.46879,-7.74399 -0.81182,-1.94288 -3.68961,-4.14589 -5.41734,-4.14978 -0.10734,-2.3e-4 -0.21379,-0.009 -0.29518,0 z m -30.92384,3.88935 c -0.42281,0 -1.70646,1.02889 -2.84757,2.29195 -1.90806,2.112 -2.04151,2.49613 -1.73631,4.72276 0.38842,2.83397 2.71645,6.59945 4.7575,7.70926 2.75119,1.49594 3.10063,1.16203 3.05593,-2.86491 -0.0374,-3.36386 -0.16387,-3.73193 -1.4585,-4.41025 -1.71068,-0.89634 -2.19454,-2.45958 -1.51058,-4.84435 0.67454,-2.35205 0.6466,-2.60446 -0.26047,-2.60446 z m 28.57981,4.7228 -7.37938,0.0175 c -6.60049,0.0199 -7.83673,0.17957 -11.80695,1.56269 -2.44028,0.85011 -4.63272,1.84511 -4.86168,2.20511 -0.22897,0.36 -0.4123,2.09685 -0.41673,3.85464 l -0.0175,3.19481 3.40319,2.5003 c 4.62447,3.40435 5.57118,3.29361 3.10803,-0.34726 -2.33651,-3.45361 -2.34764,-3.44941 -0.88553,-2.67394 0.72447,0.38426 2.28042,1.29364 3.45526,2.03152 1.17486,0.73786 2.27158,1.2184 2.43087,1.05915 0.26335,-0.26336 -0.12681,-1.66527 -1.25018,-4.445 -0.39379,-0.97449 -0.32547,-0.98002 1.26751,-0.15624 0.92469,0.47815 2.42999,1.51684 3.35111,2.29191 0.92114,0.77508 1.85038,1.40643 2.06622,1.40643 0.21587,0 0.30037,-1.12513 0.191,-2.5003 -0.10935,-1.37517 -0.0167,-2.5003 0.19098,-2.5003 0.20762,0 1.37487,1.16596 2.60449,2.60448 l 2.23987,2.62186 0.59035,-1.54534 c 0.32211,-0.84723 0.57298,-2.1382 0.57298,-2.88229 0,-1.75489 0.96394,-1.7367 1.77104,0.0345 0.34809,0.764 0.81182,1.38905 1.02442,1.38905 0.21259,0 1.5732,-0.9085 3.02119,-2.01411 l 2.62183,-2.01414 -2.17037,-0.97235 c -1.19916,-0.53687 -2.83814,-1.8161 -3.64628,-2.84755 l -1.47588,-1.87521 z m 9.68866,5.90345 c -1.15679,-0.009 -2.14252,0.33766 -2.79546,1.05917 -0.56206,0.62104 -1.85164,1.63098 -2.86493,2.2572 -1.01329,0.62625 -1.84049,1.40234 -1.84049,1.71898 0,0.31662 0.98399,1.55696 2.18774,2.76075 2.01337,2.01335 2.35822,2.15912 4.30607,1.80575 3.5426,-0.64263 6.22237,-1.92474 7.74399,-3.73309 l 1.44113,-1.73631 -1.58002,-1.28488 c -2.2435,-1.83644 -4.67005,-2.83313 -6.59803,-2.84757 z m -9.67129,3.81991 c -0.23229,0 -0.7315,0.97822 -1.09389,2.18777 -0.89226,2.97815 -1.42854,3.15548 -2.77812,0.86816 -1.40002,-2.37289 -2.29192,-2.49651 -2.29192,-0.31255 0,2.25221 -0.92492,2.6187 -2.27459,0.9029 -1.11509,-1.41761 -3.18712,-2.82056 -3.5768,-2.43084 -0.10982,0.10967 0.025,1.18183 0.29518,2.37875 0.66383,2.94334 0.22624,3.36759 -1.75369,1.70158 -2.64764,-2.22779 -3.26202,-1.9305 -1.80579,0.88553 0.48093,0.93 0.7762,1.79356 0.65979,1.90996 -0.27651,0.27651 -5.32897,-2.40672 -7.03208,-3.73308 -0.72879,-0.56759 -1.54138,-1.02445 -1.80575,-1.02445 -0.26438,0 -0.48617,2.22246 -0.48617,4.94853 l 0,4.96586 1.80575,0.38199 c 6.61819,1.42849 10.73017,6.70196 12.70986,16.28666 0.75355,3.6484 0.80653,3.66961 4.41025,3.0733 l 1.96204,-0.32992 -0.22573,-5.07005 c -0.12392,-2.84173 0.0613,-6.12997 0.41673,-7.44881 0.29225,-3.92078 3.91576,-6.8916 6.93139,-7.70226 2.30984,-0.62088 2.5489,-0.3107 2.5489,-2.62882 0,-1.98841 -0.317,-2.68217 -1.97941,-4.2887 -1.0897,-1.05313 -2.47467,-2.72256 -3.09063,-3.71572 -0.61596,-0.99318 -1.31303,-1.80579 -1.54532,-1.80579 z m -30.35087,0.34728 c -0.48083,-0.0104 -0.91824,0.22644 -1.70157,0.71187 -2.80694,1.73949 -4.42447,3.85542 -3.76782,4.89641 0.79562,1.26134 4.03173,2.86558 6.94527,3.43792 3.92789,0.77163 3.82905,0.83511 3.83727,-2.03148 0.004,-1.45155 0.14564,-3.20177 0.32988,-3.88934 0.24873,-0.92815 0.11035,-1.25015 -0.57298,-1.25015 -0.50619,0 -1.87787,-0.48441 -3.03856,-1.07652 -1.02164,-0.52121 -1.55065,-0.78918 -2.03149,-0.79871 z m 94.65026,11.44243 c 0,0 2.92997,1.07713 6.04238,0.62836 0.39259,2.57477 -9.81507,3.97037 -10.33461,2.3233 2.90063,-0.29917 5.77588,-0.59858 5.93293,-1.48458 -3.58124,-0.33074 -4.34396,-1.18404 -4.62007,-2.02981 4.90809,-0.74557 9.7475,-1.88009 9.7475,-2.25021 -3.07444,-1.26151 -3.53838,-3.04554 -3.53838,-3.04554 3.25051,-0.32809 6.36449,-1.25744 9.51132,-1.97241 -1.28906,1.67876 -4.59942,2.32452 -7.08416,2.76074 0.9375,0.85677 1.95358,1.61478 2.77811,2.30931 -1.56163,2.04048 -8.43502,2.76084 -8.43502,2.76084 z m 94.78212,-1.19816 c 0.25306,-0.0152 0.57839,0.0266 1.02445,0.0696 1.54656,0.14912 2.00516,0.57239 3.19481,2.95173 1.27546,2.55091 1.39017,3.31583 1.28489,9.41086 -0.18835,10.90441 -2.14847,24.62086 -4.68806,32.93796 -0.63171,2.06882 -1.33399,3.95991 -1.56269,4.20189 -0.53384,0.56492 -2.58912,-6.43117 -3.47263,-11.82433 -0.37546,-2.29192 -0.6662,-8.29264 -0.65982,-13.33492 0.0111,-8.51502 0.0951,-9.34577 1.30225,-11.66805 1.65985,-3.19363 2.78708,-7.39657 2.79546,-10.45264 0.005,-1.77603 0.0222,-2.24608 0.78134,-2.29196 z m -160.62682,8.75106 c 2.02067,-1.34181 4.3918,-2.83162 6.26811,-2.27458 0.43214,0.0692 0.78134,0.20576 0.78134,0.31254 -0.81959,0.77451 -0.95225,2.15793 -1.44117,2.67369 -1.3115,1.44923 -3.69921,2.72603 -5.12211,2.72603 -1.39526,0 -1.71292,1.31505 -1.35433,5.78194 0.3095,3.85629 0.69363,4.51144 2.91701,4.91379 0.76397,0.13828 1.64411,0.21263 1.94467,0.15625 0.69539,-0.13038 2.86546,-7.65964 3.36844,-11.6854 -0.27158,-3.29548 1.60005,-7.42103 -0.0175,-9.27193 -2.7826,1.37865 -7.48649,3.06929 -7.34446,6.66767 z m -22.41589,-4.80961 c 0.65202,0.78485 0.9156,1.95493 1.2154,3.03857 l 3.07331,0.0521 c 1.69369,0.0326 3.09112,0.0802 3.10799,0.10413 -1.81185,-1.97348 -5.26679,-3.8119 -7.3967,-3.1948 z m 21.80816,7.27516 c 2.90697,-0.11059 5.32329,-1.89373 6.47649,-3.94142 -3.18284,0.0378 -5.33976,1.83 -6.47649,3.94142 z m -19.06478,-3.35108 c 0.74112,0.6937 1.61193,1.2921 2.46559,1.87521 1.57457,1.03127 3.58116,1.45765 4.80957,0.67718 0,-0.30559 -0.11182,-0.48618 -0.29518,-0.48618 -0.75029,-0.72752 -1.95666,-1.47028 -2.93437,-1.77103 -1.40747,-0.67164 -2.58908,-0.77393 -4.04561,-0.29518 z m 0.10419,1.7884 c -0.0275,0.004 -0.0521,0.0318 -0.0521,0.0521 0,0.60325 3.53212,7.33192 5.74722,10.95617 1.26074,2.06273 2.47589,3.75042 2.6913,3.75042 0.2154,0 1.0276,-0.24236 1.80579,-0.53823 1.61688,-0.61477 1.58631,-1.36254 -0.32991,-7.88288 l -1.09389,-3.69839 -2.3614,-0.34724 c -1.30373,-0.19551 -3.28939,-0.85776 -4.41026,-1.45851 -0.98074,-0.52566 -1.80588,-0.86511 -1.99674,-0.83345 z m 35.14306,5.26105 c 0.28144,-0.026 -0.0718,2.16616 -1.00704,5.66041 -0.76865,2.87156 -1.80004,7.41228 -2.29195,10.08801 -0.49187,2.67572 -1.06563,4.96929 -1.28488,5.10476 -0.99944,0.61772 2.03122,-14.81967 3.80253,-19.35996 0.39393,-1.0097 0.65343,-1.48143 0.78134,-1.49322 z m -18.66541,8.66424 c -3.12363,0.0547 -4.61681,0.3175 -5.78196,0.95496 -2.97349,1.62688 -3.12943,6.35883 -0.26042,7.91761 0.9256,0.5029 3.16066,0.80202 6.09448,0.81609 4.54762,0.0217 4.67683,-0.006 6.52855,-1.85787 2.08917,-2.08915 2.54147,-4.79831 1.11126,-6.75427 -0.6881,-0.94103 -1.48513,-1.07652 -6.25075,-1.07652 -0.51672,0 -0.99491,-0.007 -1.44116,0 z m 139.06176,26.94765 c -1.42189,0 -0.0462,8.04987 1.96205,11.47707 1.21098,2.06635 1.66573,2.41348 3.24692,2.41348 2.02772,0 5.03732,-1.80152 6.33756,-3.78516 0.80459,-1.22744 0.70321,-1.40437 -2.44822,-4.46233 -2.88824,-2.80268 -7.46853,-5.64306 -9.09831,-5.64306 z"
         style="color:#000000;fill:#000000;fill-opacity:1;fill-rule:evenodd;stroke:none;stroke-width:1.5;marker:none;visibility:visible;display:inline;overflow:visible;enable-background:accumulate"
         inkscape:connector-curvature="0" />
      <g
         id="g4009">
        <path
           sodipodi:nodetypes="cscccccccccssczzcszsczzcsscccccccccscc"
           inkscape:connector-curvature="0"
           id="path4015"
           d="m 226.04714,678.40809 c 3.42143,0 5.92518,0.0478 5.92518,-3.42091 0,-3.46875 -3.59375,-3.6875 -3.59375,-3.6875 -0.44375,-10.30345 4.13005,-16.05728 9.8125,-20.9375 l 33.1875,0 0,-10.3125 -3.375,0 0,-107.25 3.375,0 0,-10.3295 -14.8125,0 c 4.5455,-9.96025 -4.35364,-14.59151 -12.1875,-12.0455 -7.5,2.4375 -11.8125,-1.125 -13.125,-7.3125 -1.3125,-6.1875 -0.27517,-10.42502 -0.27517,-10.42502 1.55882,0 3.8332,-0.81374 3.97747,-4.00964 0.14427,-3.1959 -2.44934,-4.5533 -5.98896,-4.5533 -3.53962,0 -4.61764,-5.22564 -4.61764,-5.22564 2.44001,-0.25178 5.03728,-4.47954 0,-7.42462 -4.33403,-2.53392 -13.56964,-4.35049 -23.03499,-4.35049 -9.46534,0 -18.70095,1.81657 -23.03498,4.35049 -5.03728,2.94508 -2.44001,7.17284 0,7.42462 0,0 -1.07802,5.22564 -4.61764,5.22564 -3.53962,0 -6.13323,1.3574 -5.98896,4.5533 0.14427,3.1959 2.41865,4.00964 3.97747,4.00964 0,0 1.03733,4.23752 -0.27517,10.42502 -1.3125,6.1875 -5.625,9.75 -13.125,7.3125 -7.83386,-2.54601 -16.733,2.08525 -12.1875,12.0455 l -14.8125,0 0,10.3295 3.375,0 0,107.25 -3.375,0 0,10.3125 33.1875,0 c 5.68245,4.88022 10.25625,10.63405 9.8125,20.9375 0,0 -3.59375,0.21875 -3.59375,3.6875 0,3.46875 2.50375,3.42091 5.92518,3.42091 z"
           style="color:#000000;fill:#d9dadc;fill-opacity:1;stroke:#000000;stroke-width:2;stroke-linecap:butt;stroke-linejoin:miter;stroke-miterlimit:4;stroke-opacity:1;stroke-dasharray:none;stroke-dashoffset:0;marker:none;visibility:visible;display:inline;overflow:visible;enable-background:accumulate" />
        <path
           d="m 224.57024,478.67761 c 0,0 -9.67852,-5.17072 -23.25596,-5.17072 -13.57743,0 -23.25595,5.17072 -23.25595,5.17072 m 70.56427,43.92025 c -3.42515,-2.36099 -1.51333,-5.91325 -1.51333,-5.91325 -3.24077,-0.49215 -3.68223,0.78224 -8.91129,0.3428 -6.79821,-0.57128 -10.44441,-5.29025 -12.31941,-11.47775 -1.875,-6.1875 -1.3125,-12 -1.3125,-12 m 32.24382,29.16745 -30.65394,0 m 42.34762,9.83257 -42.34762,0 m -0.33988,-27 0,135.0625 m -13.5625,-145.625 0,145.625 m 18,0 0,-107.75 m 8.625,0 0,107.75 m 14.25,-1.5 0,-106.25 m 8.625,0 0,107.75 M 154.00597,522.59786 c 3.42515,-2.36099 1.51333,-5.91325 1.51333,-5.91325 3.24077,-0.49215 3.68223,0.78224 8.91129,0.3428 6.79821,-0.57128 10.44441,-5.29025 12.31941,-11.47775 1.875,-6.1875 1.3125,-12 1.3125,-12 m -32.24382,29.16745 30.65394,0 m -42.34762,9.83257 42.34762,0 m 0.33988,-27 0,135.0625 m 13.5625,-145.625 0,145.625 m -18,0 0,-107.75 m -8.625,0 0,107.75 m -14.25,-1.5 0,-106.25 m -8.625,0 0,107.75"
           style="color:#000000;fill:none;stroke:#000000;stroke-width:1.5;stroke-linecap:butt;stroke-linejoin:miter;stroke-miterlimit:4;stroke-opacity:1;stroke-dasharray:none;stroke-dashoffset:0;marker:none;visibility:visible;display:inline;overflow:visible;enable-background:accumulate"
           id="path4017"
           inkscape:connector-curvature="0" />
        <path
           sodipodi:nodetypes="ccsccccccccccscccccsccscccsccccccccccscccc"
           inkscape:connector-curvature="0"
           d="m 230.17616,600.54968 c 0,0 6.50621,-2.46967 8.95916,3.36558 0,0 2.20772,-2.42808 6.9815,-2.42808 4.77378,0 6.9815,2.42808 6.9815,2.42808 2.32037,-5.96783 8.49101,-4.67808 8.49101,-4.67808 2.83033,-3.75 6.22674,-1.125 6.22674,-1.125 m 0,11.0625 c 0,0 -2.07558,3.1875 -6.41543,2.25 -0.56607,0.375 -3.77379,4.3125 -8.30232,1.125 m -22.92216,-15.69899 c -2.83034,-3.75 -4.43776,-1.125 -4.43776,-1.125 0,0 -6.14108,-4.36351 -13.45358,-0.61351 m 40.83387,23.86742 c 0,0 -2.09595,2.75758 -7.00187,2.75758 -4.90592,0 -6.99168,-3.09375 -6.99168,-3.09375 -5.64335,1.40625 -8.19541,-3.09375 -8.94898,-5.15625 -4.33984,0.9375 -4.25026,-2.25 -4.25026,-2.25 0,0 -8.57858,2.4375 -13.64108,-1.875 m 0,-9.1875 c 0,0 -4.40625,5.4375 -10.97054,5.4375 -6.56428,0 -10.97053,-5.4375 -10.97053,-5.4375 m 21.94107,-7.3125 c 0,-0.375 -3.09375,-9.9375 -10.97054,-9.9375 -7.87678,0 -10.97053,9.5625 -10.97053,9.9375 m -18.06747,7.6875 c 0,0 -6.33008,-2.46967 -8.78303,3.36558 0,0 -2.20772,-2.42808 -6.9815,-2.42808 -4.77378,0 -6.9815,2.42808 -6.9815,2.42808 -2.32037,-5.96783 -8.49101,-4.67808 -8.49101,-4.67808 -2.83033,-3.75 -6.22674,-1.125 -6.22674,-1.125 m 0,11.0625 c 0,0 2.07558,3.1875 6.41543,2.25 0.56607,0.375 3.77379,4.3125 8.30232,1.125 m 22.74603,-15.69899 c 2.83034,-3.75 4.61389,-1.125 4.61389,-1.125 0,0 6.14108,-4.36351 13.45358,-0.61351 m -40.83387,23.86742 c 0,0 2.09595,2.75758 7.00187,2.75758 4.90592,0 6.99168,-3.09375 6.99168,-3.09375 5.64335,1.40625 8.01928,-3.09375 8.77285,-5.15625 4.33984,0.9375 4.42639,-2.25 4.42639,-2.25 0,0 8.57858,2.4375 13.64108,-1.875"
           style="color:#000000;fill:none;stroke:#000000;stroke-width:1.5;stroke-linecap:butt;stroke-linejoin:miter;stroke-miterlimit:4;stroke-opacity:1;stroke-dasharray:none;stroke-dashoffset:0;marker:none;visibility:visible;display:inline;overflow:visible;enable-background:accumulate"
           id="path4019" />
        <path
           sodipodi:nodetypes="ccsccsccccccccsccccccccccccccccccscccccccccccccsccscccccccccccsccsccccsccscccccccscscsccccccccccccsccccccccccccccccccscccccccccccccsccscccccccccccsccscccscsc"
           inkscape:connector-curvature="0"
           d="m 245.93154,515.83996 c 0,0 2.42128,-0.0364 3.57203,0.31629 0.57538,0.17632 1.17113,0.49123 1.59375,1.03125 0.42262,0.54002 0.75061,1.68349 -0.41337,2.27321 0.0292,-0.86869 -0.11933,-1.36184 -0.36788,-1.67946 -0.24858,-0.31762 -0.63232,-0.55277 -1.09375,-0.65625 -1.23574,-0.27712 -1.80492,0.57675 -1.80492,0.57675 z m 21.88453,17.02222 0,23.0625 c 0,0 -1.5,-5.25 -6.1875,-3.1875 -0.1875,-0.375 0,-2.625 0,-2.625 0,0 -2.0625,-5.4375 -8.25,-2.625 l 0,-6.75 c 0,0 -2.65324,-4.33828 -7.51412,-4.33828 -4.86088,0 -6.92338,4.33828 -6.92338,4.33828 l 0,6 c 0,0 -4.875,-2.8125 -8.25,1.5 l 0,5.0625 c 0,0 -2.4375,-2.625 -4.6875,-0.375 l 0,-20.4375 z m -66.50179,107.5 c 2.625,-9.1875 10.31429,-39.1875 10.31429,-39.1875 l 0.9375,9 c 1.3125,12.1875 6,29.625 6,29.625 2.0625,-6.1875 7.125,-28.5 7.125,-28.5 l 0.5625,15.9375 1.875,13.125 2.625,-20.25 c 0.1875,9.1875 4.125,20.4375 4.125,20.4375 2.25,-4.125 4.5,-20.8125 4.5,-20.8125 1.125,10.3125 7.125,20.0625 7.125,20.0625 3.9375,-6.5625 6.9375,-22.3125 6.9375,-22.6875 0,-0.375 3.1875,23.0625 3.1875,23.0625 2.4375,-5.625 4.6875,-25.5 4.6875,-25.5 l 2.4375,25.3125 3.5625,-27.1875 0,27.75 m 0.21091,-37.73063 c 0,0 -1.98874,2.2539 -5.43588,2.65165 0,0 -5.3033,-2.78424 -8.75045,0.66291 0,0.26516 -0.13258,1.32582 -0.13258,1.32582 0,0 4.64039,2.51907 8.22011,-0.39774 0,0 4.50781,0.66291 5.96622,-2.38649 z m -14.84924,7.29203 c -0.26517,-0.13258 -2.65165,-1.98873 -7.15946,-1.98873 -4.5078,0 -6.23138,2.12132 -6.23138,2.12132 l 0,1.4584 c 0,0 1.98874,1.72357 6.62913,1.72357 4.64039,0 6.89429,-1.98873 6.89429,-1.98873 z m -14.05374,-1.4584 c 0,0 -4.50782,-3.44715 -7.95496,-3.31457 l 0.13258,2.65165 c 0.72099,1.50005 5.96988,4.51878 7.82238,0.66292 z m -8.61787,-3.31457 c 0,0 -3.0494,0.13259 -4.11006,-1.85615 0.39775,4.64039 4.52731,3.94369 4.02601,3.65426 z m -4.24264,-1.32582 c 0,0 -3.44715,-2.2539 -7.55721,-2.2539 -4.11006,0 -5.70105,1.32582 -5.70105,1.32582 l 0,2.12132 c 0,0 2.12132,1.45841 5.96622,1.45841 3.84489,0 7.29204,-1.85616 7.29204,-1.85616 z m -69.06646,-88.17233 c 0,0 -2.42128,-0.0364 -3.57203,0.31629 -0.57538,0.17632 -1.17113,0.49123 -1.59375,1.03125 -0.42262,0.54002 -0.75061,1.68349 0.41337,2.27321 -0.0292,-0.86869 0.11933,-1.36184 0.36788,-1.67946 0.24858,-0.31762 0.63232,-0.55277 1.09375,-0.65625 1.23574,-0.27712 1.80492,0.57675 1.80492,0.57675 z m 15.49047,-24.14351 0.4375,2.91573 c 0,0 2.4375,-2.0625 5.15625,0.46875 l -0.65625,7.6875 0,6.9375 c 0,0 2.90625,-5.4375 7.03125,-5.4375 4.125,0 6.09375,2.34375 6.09375,2.34375 0,0 3.09375,-9.375 11.06428,-9.375 7.97054,0 11.06429,9.375 11.06429,9.375 0,0 1.96875,-2.34375 6.09375,-2.34375 4.125,0 7.03125,5.4375 7.03125,5.4375 l 0,-6.9375 -0.65625,-7.6875 c 2.71875,-2.53125 5.15625,-0.46875 5.15625,-0.46875 l 0.4375,-2.91573 z m -37.375,41.16573 0,23.0625 c 0,0 1.5,-5.25 6.1875,-3.1875 0.1875,-0.375 0,-2.625 0,-2.625 0,0 2.0625,-5.4375 8.25,-2.625 l 0,-6.75 c 0,0 2.65324,-4.33828 7.51412,-4.33828 4.86088,0 6.92338,4.33828 6.92338,4.33828 l 0,6 c 0,0 4.875,-2.8125 8.25,1.5 l 0,5.0625 c 0,0 2.4375,-2.625 4.6875,-0.375 l 0,-20.4375 z m 66.50178,107.5 C 198.68928,631.17468 191,601.17468 191,601.17468 l -0.9375,9 c -1.3125,12.1875 -6,29.625 -6,29.625 -2.0625,-6.1875 -7.125,-28.5 -7.125,-28.5 l -0.5625,15.9375 -1.875,13.125 -2.625,-20.25 c -0.1875,9.1875 -4.125,20.4375 -4.125,20.4375 -2.25,-4.125 -4.5,-20.8125 -4.5,-20.8125 -1.125,10.3125 -7.125,20.0625 -7.125,20.0625 -3.9375,-6.5625 -6.9375,-22.3125 -6.9375,-22.6875 0,-0.375 -3.1875,23.0625 -3.1875,23.0625 -2.4375,-5.625 -4.6875,-25.5 -4.6875,-25.5 l -2.4375,25.3125 -3.5625,-27.1875 0,27.75 m -0.21091,-37.73063 c 0,0 1.98874,2.2539 5.43588,2.65165 0,0 5.3033,-2.78424 8.75045,0.66291 0,0.26516 0.13258,1.32582 0.13258,1.32582 0,0 -4.64039,2.51907 -8.22011,-0.39774 0,0 -4.50781,0.66291 -5.96622,-2.38649 z m 14.84924,7.29203 c 0.26517,-0.13258 2.65165,-1.98873 7.15946,-1.98873 4.5078,0 6.23138,2.12132 6.23138,2.12132 l 0,1.4584 c 0,0 -1.98874,1.72357 -6.62913,1.72357 -4.64039,0 -6.89429,-1.98873 -6.89429,-1.98873 z m 14.05374,-1.4584 c 0,0 4.50782,-3.44715 7.95496,-3.31457 l -0.13258,2.65165 c -0.72099,1.50005 -5.96988,4.51878 -7.82238,0.66292 z m 8.61787,-3.31457 c 0,0 3.0494,0.13259 4.11006,-1.85615 -0.39775,4.64039 -4.52731,3.94369 -4.02601,3.65426 z m 4.24264,-1.32582 c 0,0 3.44715,-2.2539 7.55721,-2.2539 4.11006,0 5.70105,1.32582 5.70105,1.32582 l 0,2.12132 c 0,0 -2.12132,1.45841 -5.96622,1.45841 -3.84489,0 -7.29204,-1.85616 -7.29204,-1.85616 z m 13.656,-8.88303 c 0,0 3.8449,-2.78423 10.7932,-2.78423 6.94831,0 10.79321,2.78423 10.79321,2.78423 0,0 -2.78424,2.51907 -10.79321,2.51907 -8.00896,0 -10.7932,-2.51907 -10.7932,-2.51907 z"
           style="font-size:medium;font-style:normal;font-variant:normal;font-weight:normal;font-stretch:normal;text-indent:0;text-align:start;text-decoration:none;line-height:normal;letter-spacing:normal;word-spacing:normal;text-transform:none;direction:ltr;block-progression:tb;writing-mode:lr-tb;text-anchor:start;baseline-shift:baseline;color:#000000;fill:#000000;fill-opacity:1;stroke:none;stroke-width:1;marker:none;visibility:visible;display:inline;overflow:visible;enable-background:accumulate;font-family:Sans;-inkscape-font-specification:Sans"
           id="path4021" />
        <path
           d="m 134.625,640.2817 133.37857,0 m -93.75357,31.21685 54.12857,0 m 9.8125,-21.36839 -73.75357,0"
           style="color:#000000;fill:none;stroke:#000000;stroke-width:1.5;stroke-linecap:butt;stroke-linejoin:miter;stroke-miterlimit:4;stroke-opacity:1;stroke-dasharray:none;stroke-dashoffset:0;marker:none;visibility:visible;display:inline;overflow:visible;enable-background:accumulate"
           id="path4039"
           inkscape:connector-curvature="0"
           sodipodi:nodetypes="cccccc" />
      </g>
    </g>
  </g>
</svg>
