<?xml version="1.0" encoding="UTF-8" standalone="no"?>
<!-- Created with Inkscape (http://www.inkscape.org/) -->

<svg
   xmlns:dc="http://purl.org/dc/elements/1.1/"
   xmlns:cc="http://creativecommons.org/ns#"
   xmlns:rdf="http://www.w3.org/1999/02/22-rdf-syntax-ns#"
   xmlns:svg="http://www.w3.org/2000/svg"
   xmlns="http://www.w3.org/2000/svg"
   xmlns:xlink="http://www.w3.org/1999/xlink"
   xmlns:sodipodi="http://sodipodi.sourceforge.net/DTD/sodipodi-0.dtd"
   xmlns:inkscape="http://www.inkscape.org/namespaces/inkscape"
   width="538.33008"
   height="644.39612"
   id="svg2"
   version="1.1"
   inkscape:version="0.48.5 r10040"
   sodipodi:docname="Šakiai.svg">
  <defs
     id="defs4" />
  <sodipodi:namedview
     id="base"
     pagecolor="#f6f3f1"
     bordercolor="#666666"
     borderopacity="1.0"
     inkscape:pageopacity="0"
     inkscape:pageshadow="2"
     inkscape:zoom="0.7"
     inkscape:cx="261.51927"
     inkscape:cy="370.54539"
     inkscape:document-units="px"
     inkscape:current-layer="layer1"
     showgrid="false"
     showborder="true"
     inkscape:window-width="1920"
     inkscape:window-height="1017"
     inkscape:window-x="-8"
     inkscape:window-y="-8"
     inkscape:window-maximized="1"
     fit-margin-top="0"
     fit-margin-left="0"
     fit-margin-right="0"
     fit-margin-bottom="0"
     inkscape:showpageshadow="false" />
  <metadata
     id="metadata7">
    <rdf:RDF>
      <cc:Work
         rdf:about="">
        <dc:format>image/svg+xml</dc:format>
        <dc:type
           rdf:resource="http://purl.org/dc/dcmitype/StillImage" />
        <dc:title></dc:title>
      </cc:Work>
    </rdf:RDF>
  </metadata>
  <g
     inkscape:label="Layer 1"
     inkscape:groupmode="layer"
     id="layer1"
     transform="translate(-56.609153,-106.90001)">
    <g
       id="g3913">
      <path
         style="color:#000000;fill:#da251d;fill-opacity:1;stroke:none;stroke-width:8;marker:none;visibility:visible;display:inline;overflow:visible;enable-background:accumulate"
         d="m 60.609153,110.90001 c 0,0 0,247.68027 0,375.77675 0,128.09647 109.096477,260.61935 265.165037,260.61935 156.06856,0 265.16504,-132.52288 265.16504,-260.61935 0,-128.09648 0,-375.77675 0,-375.77675 z"
         id="path3900"
         inkscape:connector-curvature="0"
         sodipodi:nodetypes="cszscc" />
      <path
         style="color:#000000;fill:#dadada;fill-opacity:1;stroke:#000000;stroke-width:5;stroke-linecap:butt;stroke-linejoin:miter;stroke-miterlimit:4;stroke-opacity:1;stroke-dasharray:none;stroke-dashoffset:0;marker:none;visibility:visible;display:inline;overflow:visible;enable-background:accumulate"
         d="m 325.77419,747.29611 c 156.06856,0 265.16504,-132.52288 265.16504,-260.61935 0,-128.09648 0,-375.77675 0,-375.77675 l -265.16504,0 z"
         id="path3808"
         inkscape:connector-curvature="0"
         sodipodi:nodetypes="csccc" />
      <path
         id="rect3765"
         d="m 60.59375,470 0,16.6875 c 0,49.43584 16.260868,99.52368 45.1875,142.40625 l 439.96875,0 c 28.92663,-42.88257 45.1875,-92.97041 45.1875,-142.40625 l 0,-16.6875 -530.34375,0 z"
         style="color:#000000;fill:#00923f;fill-opacity:1;stroke:#000000;stroke-width:5;stroke-linecap:butt;stroke-linejoin:miter;stroke-miterlimit:4;stroke-opacity:1;stroke-dasharray:none;stroke-dashoffset:0;marker:none;visibility:visible;display:inline;overflow:visible;enable-background:accumulate"
         inkscape:connector-curvature="0" />
      <path
         sodipodi:nodetypes="cszscc"
         inkscape:connector-curvature="0"
         id="path3761"
         d="m 60.609153,110.90001 c 0,0 0,247.68027 0,375.77675 0,128.09647 109.096477,260.61935 265.165037,260.61935 156.06856,0 265.16504,-132.52288 265.16504,-260.61935 0,-128.09648 0,-375.77675 0,-375.77675 z"
         style="color:#000000;fill:none;stroke:#000000;stroke-width:8;stroke-linecap:butt;stroke-linejoin:miter;stroke-miterlimit:4;stroke-opacity:1;stroke-dasharray:none;stroke-dashoffset:0;marker:none;visibility:visible;display:inline;overflow:visible;enable-background:accumulate" />
      <g
         id="g3787">
        <g
           id="g3800">
          <path
             sodipodi:nodetypes="csssc"
             inkscape:connector-curvature="0"
             id="path3785"
             d="m 589.92909,250.04853 c 0,0 -40.15356,1.89404 -84.0952,-25.00127 -31.5573,-19.31524 -34.09265,-25.50635 -38.25953,-20.96067 -3.55604,3.87931 9.5163,23.2906 29.54696,42.80521 16.8146,16.38141 45.49292,37.538 93.06031,36.99684"
             style="color:#000000;fill:#000000;stroke:none;stroke-width:1;marker:none;visibility:visible;display:inline;overflow:visible;enable-background:accumulate" />
          <use
             x="0"
             y="0"
             xlink:href="#path3785"
             id="use3790"
             transform="translate(0,48.487305)"
             width="744.09448"
             height="1052.3622" />
          <use
             height="1052.3622"
             width="744.09448"
             transform="translate(0,96.974655)"
             id="use3792"
             xlink:href="#path3785"
             y="0"
             x="0" />
          <use
             x="0"
             y="0"
             xlink:href="#path3785"
             id="use3794"
             transform="matrix(-1,0,0,1,914.74169,0)"
             width="744.09448"
             height="1052.3622" />
          <use
             x="0"
             y="0"
             xlink:href="#use3790"
             id="use3796"
             transform="matrix(-1,0,0,1,914.74169,0)"
             width="744.09448"
             height="1052.3622" />
          <use
             x="0"
             y="0"
             xlink:href="#use3792"
             id="use3798"
             transform="matrix(-1,0,0,1,914.74169,0)"
             width="744.09448"
             height="1052.3622" />
        </g>
      </g>
      <use
         height="1052.3622"
         width="744.09448"
         transform="matrix(-1,0,0,1,394.93533,0)"
         id="use3887"
         xlink:href="#g3861"
         y="0"
         x="0" />
      <g
         id="g3861">
        <path
           style="color:#000000;fill:#dadada;fill-opacity:1;stroke:#000000;stroke-width:3;stroke-linecap:butt;stroke-linejoin:miter;stroke-miterlimit:4;stroke-opacity:1;stroke-dasharray:none;stroke-dashoffset:0;marker:none;visibility:visible;display:inline;overflow:visible;enable-background:accumulate"
           d="m 177.15551,407.25351 c 8.71256,-59.09392 36.04118,-102.10587 48.10851,-115.53619 15.87451,-17.66752 33.20876,-14.77349 33.20876,-14.77349 5.3033,3.03046 11.36422,1.89404 11.36422,1.89404 0,0 4.54569,3.03046 9.47018,-0.37881 4.92449,-3.40926 3.40926,-9.84898 3.40926,-9.84898 0,0 3.40927,0.75761 5.3033,-4.16688 1.89404,-4.9245 -2.27284,-7.57615 -2.27284,-7.57615 0,0 3.78807,0.37881 4.54569,-5.68211 0.75761,-6.06091 -3.40927,-7.95495 -3.40927,-7.95495 0,0 2.65165,-2.27284 2.27285,-6.43972 -0.37881,-4.16688 -4.16688,-4.16688 -4.16688,-4.16688 0,0 1.51523,-2.65165 1.51523,-7.57614 0,-4.9245 -4.9245,-5.68211 -4.9245,-5.68211 2.27285,-10.98541 -6.43972,-10.6066 -6.43972,-10.6066 -3.03046,-9.47018 -10.98541,-6.81853 -10.98541,-6.81853 0,0 -2.65165,-7.95495 -12.12183,-5.3033 -9.47018,2.65165 -30.80965,14.01586 -66.41753,57.19988 -35.60788,43.18403 -70.45814,124.24877 -70.45814,124.24877 0,0 -0.12627,6.9448 7.82868,8.08122 0,0 1.13642,5.3033 7.57615,5.3033 0,0 2.27284,6.06091 10.22779,6.81853 0,0 2.65165,6.81853 13.25825,5.68211 0,0 4.54569,4.54568 12.50064,2.27284 0,0 4.16689,3.15672 10.60661,1.01015 z"
           id="path3810"
           inkscape:connector-curvature="0"
           sodipodi:nodetypes="csscccscscssscsccsccccccc" />
        <path
           style="color:#000000;fill:none;stroke:#000000;stroke-width:2;stroke-linecap:butt;stroke-linejoin:miter;stroke-miterlimit:4;stroke-opacity:1;stroke-dasharray:none;stroke-dashoffset:0;marker:none;visibility:visible;display:inline;overflow:visible;enable-background:accumulate"
           d="m 258.72532,277.0701 c 0,0 -3.03046,-3.03045 -1.89403,-10.22779 0,0 -6.92327,1.48977 -10.2278,-5.3033 -3.30452,-6.79308 0,-10.2278 0,-10.2278 0,0 -4.92449,-1.89403 -6.43972,-7.19733 -1.66832,-5.83909 1.51523,-9.47018 1.51523,-9.47018 0,0 -4.67902,-3.54569 -3.78808,-10.2278 0.89096,-6.68211 4.16688,-7.95495 4.16688,-7.95495 0,0 -5.6821,-2.65165 -2.27284,-13.25825 m -0.63134,8.9651 c 0,0 -22.12311,7.82035 -58.33631,60.60915 C 155.506,309.67382 122.7029,385.88341 122.7029,385.88341 m 7.35424,5.83901 c 0.5497,-1.92395 42.57942,-96.19363 63.53192,-120.70489 31.78593,-37.18473 44.04933,-41.4246 44.04933,-41.4246 m 3.03045,15.90991 c 0,0 -29.45505,13.54514 -53.033,56.06346 -22.52041,40.61124 -46.21448,96.97465 -46.21448,96.97465 m 12.87944,5.3033 c 0,0 21.23551,-69.00329 51.96158,-113.95598 18.7378,-27.41367 39.70977,-29.99076 39.70977,-29.99076 m 7.38673,7.00793 c 0,0 -21.78141,2.08344 -38.44893,25.56949 -16.66751,23.48605 -44.69925,87.88327 -48.48732,112.88455 m 75.38264,-188.51972 c 0,0 8.90196,0.56821 11.55361,-7.00794 m -1.70463,-13.44765 c 0,0.75761 -2.65165,6.06091 -0.3788,10.6066 2.27284,4.54569 8.33375,3.40926 8.33375,3.40926 m 4.9245,-8.33375 c 0,0 -6.43972,4.54568 -4.54569,9.84898 1.89404,5.3033 9.09137,6.43973 12.12183,4.16688 3.03046,-2.27284 2.65165,-9.47018 2.27285,-8.71256 m -28.28428,9.09137 c 0,0 5.49271,2.08344 6.06092,8.90197 0.56821,6.81853 -4.54569,9.28078 -4.54569,9.28078 m -5.87151,0.1894 c 0,0 7.38674,-2.27284 11.17481,3.97747 3.78808,6.25032 0.18941,11.93243 0.18941,11.93243 m -6.25032,0.56821 c 0,0 6.43972,-2.84105 11.17481,1.70463 4.73509,4.54569 3.03046,10.79601 3.03046,10.79601 m -4.16688,2.84105 c 0,0 5.87151,-5.6821 10.4172,-0.94701 4.54568,4.73509 2.46224,12.87944 2.46224,12.87944 m -0.56821,-10.4172 c 0,0 6.81853,-5.11389 13.25826,0.94702 m -9.28078,-2.46225 c 0,0 3.21986,-8.90197 -2.27284,-12.31123 -5.49271,-3.40926 -10.60661,1.13642 -10.60661,1.13642 m 12.87945,1.13642 c 0,0 5.3033,-4.54568 12.31123,0.56821 m -19.06579,-4.37411 c 0,0 3.21429,-17.41072 -12.58928,-12.58929 m 11.51785,2.94643 c 0,0 6.69643,-2.94643 11.78572,-0.26786 5.08928,2.67858 2.86797,11.73976 2.86797,11.73976 m -0.1894,-7.98976 c 0,0 2.22131,-4.77546 7.84631,-2.90046 m -13.47131,-2.18882 c 0,0 3.26025,-8.01668 -1.60714,-11.51786 -4.74909,-3.41609 -9.89726,0.26786 -9.89726,0.26786 m -1.35274,9.06118 c 0,0 6.96428,-15.2219 -8.83929,-14.15047 m 5.89286,0.26786 c 0,0 6.06092,-3.14372 4.31263,-10.27606 m 7.20522,1.70463 c 0.26786,0.53572 6.96429,4.55357 2.41072,12.05357 m 1.33929,-6.42857 c 0,0 4.23975,-4.12881 10.13261,-2.25381 m -8.25761,15.37881 c 0,0 2.24823,-3.10333 10.63582,-2.71107"
           id="path3814"
           inkscape:connector-curvature="0"
           sodipodi:nodetypes="cczcscscccsccsccsccsccsccccsccssccsccsccsccsccccsccccccsccccsccccccccccc" />
        <g
           id="g3820">
          <path
             sodipodi:nodetypes="ccccc"
             inkscape:connector-curvature="0"
             id="path3816"
             d="m 252.48282,209.84803 0.10517,-2.56637 5e-5,0 c -4.80121,-0.24953 -7.92608,1.78442 -7.92608,1.78442 0,0 3.2693,0.5454 7.82086,0.78195 z"
             style="font-size:medium;font-style:normal;font-variant:normal;font-weight:normal;font-stretch:normal;text-indent:0;text-align:start;text-decoration:none;line-height:normal;letter-spacing:normal;word-spacing:normal;text-transform:none;direction:ltr;block-progression:tb;writing-mode:lr-tb;text-anchor:start;baseline-shift:baseline;color:#000000;fill:#000000;fill-opacity:1;stroke:none;stroke-width:2;marker:none;visibility:visible;display:inline;overflow:visible;enable-background:accumulate;font-family:Sans;-inkscape-font-specification:Sans" />
          <use
             x="0"
             y="0"
             xlink:href="#path3816"
             id="use3823"
             transform="matrix(1.2831858,0,0,0.99039769,-59.989882,-4.6265309)"
             width="744.09448"
             height="1052.3622" />
          <use
             height="1052.3622"
             width="744.09448"
             transform="matrix(1.2734269,-0.18173987,0.18173987,1.2734269,-84.874755,-11.187026)"
             id="use3825"
             xlink:href="#path3816"
             y="0"
             x="0" />
          <use
             x="0"
             y="0"
             xlink:href="#path3816"
             id="use3827"
             transform="translate(10.417198,8.3337585)"
             width="744.09448"
             height="1052.3622" />
          <use
             height="1052.3622"
             width="744.09448"
             transform="matrix(0.97920763,-0.20286056,0.20286056,0.97920763,-37.706139,70.871849)"
             id="use3829"
             xlink:href="#path3816"
             y="0"
             x="0" />
          <use
             x="0"
             y="0"
             xlink:href="#path3816"
             id="use3831"
             transform="matrix(0.97920763,-0.20286056,0.20286056,0.97920763,-26.910134,77.879782)"
             width="744.09448"
             height="1052.3622" />
          <use
             height="1052.3622"
             width="744.09448"
             transform="matrix(0.97920763,-0.20286056,0.20286056,0.97920763,-16.303532,69.735427)"
             id="use3833"
             xlink:href="#path3816"
             y="0"
             x="0" />
          <use
             x="0"
             y="0"
             xlink:href="#path3816"
             id="use3835"
             transform="matrix(0.97920763,-0.20286056,0.20286056,0.97920763,-7.9697735,61.969879)"
             width="744.09448"
             height="1052.3622" />
          <use
             height="1052.3622"
             width="744.09448"
             transform="matrix(0.97920763,-0.20286056,0.20286056,0.97920763,-3.9922978,72.197674)"
             id="use3837"
             xlink:href="#path3816"
             y="0"
             x="0" />
          <use
             x="0"
             y="0"
             xlink:href="#path3816"
             id="use3839"
             transform="matrix(0.97920763,-0.20286056,0.20286056,0.97920763,-1.3406474,84.319505)"
             width="744.09448"
             height="1052.3622" />
          <use
             height="1052.3622"
             width="744.09448"
             transform="matrix(0.97920763,-0.20286056,0.20286056,0.97920763,-14.788303,80.91024)"
             id="use3841"
             xlink:href="#path3816"
             y="0"
             x="0" />
          <use
             x="0"
             y="0"
             xlink:href="#path3816"
             id="use3843"
             transform="matrix(0.97920763,-0.20286056,0.20286056,0.97920763,-24.06908,91.706245)"
             width="744.09448"
             height="1052.3622" />
          <use
             height="1052.3622"
             width="744.09448"
             transform="matrix(0.97920763,-0.20286056,0.20286056,0.97920763,-36.380314,87.539366)"
             id="use3845"
             xlink:href="#path3816"
             y="0"
             x="0" />
          <use
             x="0"
             y="0"
             xlink:href="#path3816"
             id="use3847"
             transform="matrix(0.97920763,-0.20286056,0.20286056,0.97920763,-10.43202,93.221474)"
             width="744.09448"
             height="1052.3622" />
          <use
             height="1052.3622"
             width="744.09448"
             transform="matrix(0.78939724,-0.20286056,0.16353791,0.97920763,55.971418,95.873124)"
             id="use3849"
             xlink:href="#path3816"
             y="0"
             x="0" />
          <use
             height="1052.3622"
             width="744.09448"
             transform="matrix(0.86581874,-0.50035777,0.50035777,0.86581874,-36.585127,203.35759)"
             id="use3851"
             xlink:href="#path3816"
             y="0"
             x="0" />
          <use
             x="0"
             y="0"
             xlink:href="#path3816"
             id="use3853"
             transform="matrix(0.86581874,-0.50035777,0.50035777,0.86581874,-51.169204,201.65296)"
             width="744.09448"
             height="1052.3622" />
          <use
             height="1052.3622"
             width="744.09448"
             transform="matrix(0.86581874,-0.50035777,0.50035777,0.86581874,-63.480438,201.08475)"
             id="use3855"
             xlink:href="#path3816"
             y="0"
             x="0" />
          <use
             x="0"
             y="0"
             xlink:href="#path3816"
             id="use3857"
             transform="matrix(0.86581874,-0.50035777,0.50035777,0.86581874,-55.146679,213.01718)"
             width="744.09448"
             height="1052.3622" />
          <use
             height="1052.3622"
             width="744.09448"
             transform="matrix(0.86581874,-0.50035777,0.50035777,0.86581874,-41.130812,215.29002)"
             id="use3859"
             xlink:href="#path3816"
             y="0"
             x="0" />
        </g>
        <path
           style="color:#000000;fill:#dadada;fill-opacity:1;stroke:#000000;stroke-width:2;stroke-linecap:butt;stroke-linejoin:miter;stroke-miterlimit:4;stroke-opacity:1;stroke-dasharray:none;stroke-dashoffset:0;marker:none;visibility:visible;display:inline;overflow:visible;enable-background:accumulate"
           d="m 221.60221,296.38927 c 0,0 -18.94036,0 -28.78934,-14.01587 -9.84899,-14.01586 -5.68211,-29.92577 -5.68211,-29.92577 l 6.06091,-6.81853 c 0,0 -4.90973,18.31917 5.68211,32.57742 10.59185,14.25826 28.41054,10.98541 28.41054,10.98541 z"
           id="path3812"
           inkscape:connector-curvature="0"
           sodipodi:nodetypes="csccscc" />
      </g>
    </g>
  </g>
</svg>
