<?xml version="1.0" encoding="UTF-8" standalone="no"?>
<!-- Created with Inkscape (http://www.inkscape.org/) -->

<svg
   xmlns:dc="http://purl.org/dc/elements/1.1/"
   xmlns:cc="http://creativecommons.org/ns#"
   xmlns:rdf="http://www.w3.org/1999/02/22-rdf-syntax-ns#"
   xmlns:svg="http://www.w3.org/2000/svg"
   xmlns="http://www.w3.org/2000/svg"
   version="1.1"
   width="511.04004"
   height="605.64423"
   id="svg2985">
  <metadata
     id="metadata2991">
    <rdf:RDF>
      <cc:Work
         rdf:about="">
        <dc:format>image/svg+xml</dc:format>
        <dc:type
           rdf:resource="http://purl.org/dc/dcmitype/StillImage" />
        <dc:title></dc:title>
      </cc:Work>
    </rdf:RDF>
  </metadata>
  <defs
     id="defs2989" />
  <path
     d="M 13.311809,13.764839 497.74061,13.471946 497.42154,378.43955 C 489.28982,465.76724 448.7737,510.24782 397.43017,547.36878 320.38964,603.06847 197.83545,609.40863 113.33619,545.41547 68.629573,511.55815 21.789547,467.84986 14.250255,383.64472 z"
     id="path2997"
     style="fill:#ffd504;fill-opacity:1;stroke:none" />
  <path
     d="M 233.24504,595.06158 C 182.65914,589.98915 138.14304,571.71952 98.110042,539.60155 79.376045,524.57154 55.302445,498.50378 41.927245,478.765 c -11.5335,-17.02101 -22.4659,-45.981 -27.421,-72.6388 -4.5690998,-24.58084 -4.5062,-21.59148 -4.5062,-214.18414 l 0,-181.94206 245.519995,0 245.52,0 0,181.06233 c 0,173.81135 -0.077,181.63162 -1.9253,195.2775 -3.5232,26.01457 -8.513,45.94485 -16.5714,66.19017 -7.5897,19.06749 -14.2683,29.87335 -30.5083,49.36173 -42.0912,50.51032 -98.3492,82.51563 -161.37,91.80378 -12.1424,1.78959 -45.3238,2.57898 -57.42,1.36607 z m 59.4,-9.34659 c 42.4132,-6.74827 79.8043,-23.05849 114.2314,-49.82835 18.9135,-14.70673 43.6427,-41.36023 56.8456,-61.26895 12.2014,-18.39849 21.6667,-45.58334 28.2005,-80.99269 l 2.5574,-13.86 0.3355,-181.4175 0.3354,-181.4175 -239.1308,0 -239.130795,0 0.2858,182.9025 0.2858,182.9025 2.177,11.93408 c 5.672,31.09398 14.0859,55.70248 25.6451,75.00486 7.0013,11.69131 19.741,27.00522 36.4847,43.85698 23.972395,24.12703 42.344595,37.44388 70.697295,51.24422 25.4222,12.37391 49.5087,18.89543 84.2451,22.80966 8.0755,0.91001 46.5464,-0.37603 55.935,-1.86981 z m -68.2684,-54.15072 c 0.415,-0.72561 1.3729,-2.04234 2.1286,-2.92611 1.2441,-1.45474 1.019,-1.54142 -2.378,-0.91582 -2.0637,0.38003 -4.7253,1.2145 -5.9147,1.8543 -3.6847,1.98231 -3.9221,1.25922 -0.56,-1.70534 1.7696,-1.56037 3.2175,-3.06559 3.2175,-3.34492 0,-0.75501 -6.1375,0.76979 -8.7706,2.179 -1.259,0.67377 -2.5184,0.99564 -2.7988,0.71528 -0.6159,-0.61592 2.3966,-3.84805 5.1344,-5.50861 1.663,-1.00869 1.1898,-1.10932 -2.9555,-0.62851 -4.8893,0.56709 -4.9171,0.55458 -2.97,-1.33565 1.081,-1.04945 3.671,-2.12479 5.7555,-2.38964 3.168,-0.40249 4.3369,-9.9e-4 7.1209,2.44299 3.4871,3.06162 8.0252,4.79876 12.5366,4.79876 1.4688,0 2.9877,0.51308 3.3753,1.14018 0.919,1.48695 -2.301,3.80981 -5.2812,3.80981 -1.2842,0 -3.6984,0.70505 -5.3647,1.56678 -2.2477,1.16229 -2.8351,1.22618 -2.2753,0.2475 z M 360.37614,522.82 c -0.079,-0.81675 -0.065,-2.26463 0.032,-3.2175 0.2594,-2.55031 -1.4681,-2.1105 -3.8883,0.99 l -2.1253,2.7225 0.4361,-4.7025 c 0.5019,-5.41323 -0.4411,-5.96832 -2.9432,-1.7325 -0.965,1.6335 -2.057,2.97 -2.4267,2.97 -1.0308,0 0.7297,-6.77441 2.2387,-8.61475 1.1708,-1.42781 1.0913,-1.56027 -0.6445,-1.07426 -1.089,0.3049 -2.871,0.8888 -3.96,1.29755 -1.7029,0.63915 -1.6336,0.38622 0.495,-1.807 3.0151,-3.10679 7.92,-4.60386 7.92,-2.41738 0,2.44278 4.088,6.83036 7.8149,8.38756 3.4715,1.45048 3.4932,1.49547 1.4996,3.10977 -1.1126,0.9009 -2.5362,2.52349 -3.1636,3.60575 -0.848,1.46285 -1.1777,1.58671 -1.2849,0.48276 z m -133.9842,-3.23379 c -5.1266,-2.91941 -5.3389,-4.13394 -0.9171,-5.24862 2.0129,-0.50743 3.845,-1.48815 4.0714,-2.17939 0.3267,-0.99759 -0.1169,-1.01597 -2.1512,-0.0891 -1.9367,0.88241 -3.8328,0.89526 -7.7614,0.0526 -2.8592,-0.6133 -7.6072,-1.37741 -10.5509,-1.69803 -7.4106,-0.80712 -10.7916,-2.81118 -13.0188,-7.71683 -2.3355,-5.14402 -2.4017,-8.51781 -0.2556,-13.01825 1.8592,-3.89873 3.2882,-4.22214 8.6876,-1.96612 3.0632,1.27988 3.4678,1.77335 2.4548,2.99393 -1.8909,2.27842 -0.5962,2.57644 3.5915,0.8267 7.4642,-3.11875 17.7869,-0.0891 26.836,7.8762 7.5003,6.60205 9.726,16.36076 4.6432,20.35884 -3.5678,2.80644 -10.5139,2.72115 -15.6295,-0.19193 z m 7.8964,-2.79247 c 1.0202,-1.65075 -1.2744,-3.54372 -2.6401,-2.178 -1.1424,1.14238 -0.4274,3.25426 1.1018,3.25426 0.4802,0 1.1724,-0.48432 1.5383,-1.07626 z m 5.891,-8.83073 c 0.3389,-0.54835 -0.1,-1.27164 -0.9743,-1.60731 -1.8955,-0.72737 -2.9519,0.0742 -2.0407,1.54843 0.822,1.33015 2.2125,1.3573 3.015,0.0589 z M 210.47504,505 c 0,-0.726 -0.5569,-1.50563 -1.2375,-1.7325 -0.7362,-0.24539 -1.2375,0.45649 -1.2375,1.7325 0,1.276 0.5013,1.97788 1.2375,1.7325 0.6806,-0.22688 1.2375,-1.00651 1.2375,-1.7325 z m 20.186,-0.36365 c 0.8558,-1.03124 0.7568,-1.65789 -0.4158,-2.63104 -1.8922,-1.57038 -4.0037,0.0854 -3.1028,2.43314 0.7333,1.91094 2.036,1.98421 3.5186,0.1979 z m -10.286,-1.62992 c 0,-2.12206 -2.8767,-1.81556 -3.2939,0.35097 -0.2548,1.32303 0.1484,1.72623 1.4715,1.47144 1.0023,-0.19303 1.8224,-1.01311 1.8224,-1.82241 z m -14.7967,-5.02269 c 1.0202,-1.65075 -1.2744,-3.54372 -2.6401,-2.178 -1.1424,1.14238 -0.4274,3.25426 1.1018,3.25426 0.4802,0 1.1724,-0.48432 1.5383,-1.07626 z m 158.1623,14.98553 c -1.7348,-1.05783 -3.6439,-2.83816 -4.2423,-3.9563 -0.9383,-1.75327 -0.7995,-2.03297 1.0093,-2.03297 2.7203,0 2.0406,-2.10925 -1.1873,-3.6846 -2.0558,-1.00331 -3.7085,-0.86148 -9.6915,0.83165 -10.229,2.89471 -13.3577,2.09371 -19.1224,-4.89552 -2.8751,-3.4858 -3.4027,-5.12153 -1.652,-5.12153 0.5854,0 4.038,-1.76441 7.6725,-3.92092 9.0529,-5.37155 17.2436,-7.39099 24.5209,-6.04572 16.0642,2.96964 25.1038,18.84881 16.1536,28.37584 -2.8221,3.00406 -8.9368,3.20851 -13.4608,0.45007 z m 11.5694,-11.4927 c 0,-1.45527 -2.1136,-1.95304 -3.2915,-0.77516 -0.8953,0.89528 1.3235,3.418 2.4136,2.74426 0.4828,-0.29839 0.8779,-1.18449 0.8779,-1.9691 z m -24.75,-4.39657 c 0,-2.08799 -1.4404,-2.66413 -2.475,-0.99 -0.722,1.16807 0.2145,2.97 1.5434,2.97 0.5124,0 0.9316,-0.891 0.9316,-1.98 z m -11.88,-2.475 c 0,-0.81675 -0.6683,-1.485 -1.485,-1.485 -0.8168,0 -1.485,0.66825 -1.485,1.485 0,0.81675 0.6682,1.485 1.485,1.485 0.8167,0 1.485,-0.66825 1.485,-1.485 z m 24.75,-1.485 c 0,-0.5445 -0.6683,-0.99 -1.485,-0.99 -0.8168,0 -1.485,0.4455 -1.485,0.99 0,0.5445 0.6682,0.99 1.485,0.99 0.8167,0 1.485,-0.4455 1.485,-0.99 z m -6.93,-2.41657 c 0,-1.93559 -1.919,-2.99045 -3.168,-1.74143 -0.5585,0.5585 -0.7162,1.49979 -0.3503,2.09174 0.9704,1.57016 3.5183,1.31647 3.5183,-0.35031 z m -236.8419,16.24755 c 2.7532,-2.50443 2.9418,-2.94098 1.2711,-2.94098 -1.0791,0 -3.5308,0.74809 -5.4482,1.66242 -1.9174,0.91435 -3.7776,1.37099 -4.1339,1.01476 -0.7993,-0.79938 3.216,-4.34771 6.5629,-5.79956 3.9103,-1.69628 0.8949,-2.00227 -4.3061,-0.43698 -6.0137,1.80985 -5.8402,-0.19481 0.2106,-2.43288 4.7204,-1.74599 4.4284,-2.88013 -0.772,-2.99852 l -3.5475,-0.0808 3.2418,-1.417 c 4.2202,-1.84469 7.6957,-0.90193 9.0907,2.46598 1.2466,3.00949 5.6927,6.04254 8.8577,6.04254 1.1411,0 2.0748,0.39474 2.0748,0.8772 0,1.1155 -5.8295,3.90219 -9.8416,4.7046 -1.6883,0.33767 -3.3094,1.00189 -3.6025,1.47606 -0.293,0.47417 -1.0634,0.84908 -1.7119,0.83312 -0.6485,-0.0159 0.2759,-1.35247 2.0541,-2.97 z m 12.1119,-0.46481 c 0,-0.25076 1.7942,-1.37128 3.9871,-2.49003 3.9247,-2.00225 7.5815,-1.6325 6.1154,0.61834 -0.6772,1.03978 -10.1025,2.786 -10.1025,1.87169 z m -2.6648,-7.43568 c -1.1934,-0.48069 -2.9021,-1.99156 -3.797,-3.35747 -1.5534,-2.37068 -1.5124,-2.63415 0.9025,-5.80027 1.3914,-1.82422 3.4657,-5.51973 4.6095,-8.21225 3.6393,-8.56658 5.0596,-10.76022 9.1005,-14.05512 l 3.9485,-3.21963 4.7143,2.56586 c 2.5929,1.41122 7.036,4.91671 9.8736,7.78997 l 5.1592,5.22412 -3.5319,2.18285 c -1.9426,1.20057 -5.4387,4.71266 -7.7691,7.80465 -6.4121,8.50742 -15.6528,12.12139 -23.2101,9.07729 z m 12.2323,-9.46204 c 0.8251,-2.15024 -1.2696,-4.17237 -2.769,-2.673 -1.2672,1.26724 -0.4822,4.22455 1.1215,4.22455 0.5786,0 1.32,-0.6982 1.6475,-1.55155 z m -5.5048,-9.63169 c -1.2706,-1.27066 -2.5592,-0.28859 -1.6185,1.23352 0.3644,0.5896 1.1161,0.79171 1.6704,0.44912 0.6762,-0.4179 0.6591,-0.97164 -0.052,-1.68264 z m 8.8073,-4.16176 c 0,-0.81675 -0.6683,-1.485 -1.485,-1.485 -1.546,0 -1.9642,1.17087 -0.825,2.30999 1.1391,1.13914 2.31,0.72096 2.31,-0.82499 z m 105.452,20.16315 c -2.1685,-0.50762 -4.2685,-1.24862 -4.6665,-1.64667 -0.3981,-0.39804 -0.1994,-4.87823 0.4416,-9.95598 l 1.1653,-9.23227 8.9463,0.61183 c 4.9204,0.33651 11.4502,0.85884 14.5106,1.16072 l 5.5644,0.54888 0.6145,5.11516 c 0.338,2.81335 0.6184,7.2313 0.6231,9.81768 l 0.01,4.7025 -11.6325,-0.0994 c -6.3979,-0.0548 -13.4068,-0.51478 -15.5754,-1.0224 z m 31.7589,-3.08565 c -0.2863,-2.31413 -0.7912,-6.76913 -1.1219,-9.9 l -0.6015,-5.6925 8.9812,-0.20625 c 4.9397,-0.11344 11.039,-0.22482 13.554,-0.2475 l 4.5726,-0.0413 2.8291,7.92 c 1.556,4.356 2.6575,8.4072 2.4478,9.00265 -0.6021,1.70982 -10.9362,3.37238 -20.9617,3.37238 l -9.1792,0 -0.5204,-4.2075 z m -48.2952,-1.76684 c -4.2926,-2.21404 -18.7738,-5.90566 -23.1663,-5.90566 -0.3084,0 5.4635,-14.03485 6.0287,-14.65931 0.272,-0.30046 26.4292,4.62661 26.8625,5.0599 0.6745,0.67457 -2.2757,17.89868 -3.1056,18.1312 -0.5445,0.15255 -3.5232,-1.02922 -6.6193,-2.62613 z m 83.7374,0.62096 c -2.7174,-7.08145 -5.0284,-15.05412 -4.5041,-15.53878 0.3553,-0.32843 6.4375,-2.01119 13.516,-3.73944 l 12.87,-3.14229 2.7948,3.24444 c 1.5371,1.78444 3.6482,4.41993 4.6913,5.85663 l 1.8966,2.61219 -4.9176,1.60848 c -2.7047,0.88465 -7.2661,2.99586 -10.1364,4.69155 -5.3779,3.17708 -11.8384,5.8006 -14.2843,5.8006 -0.7653,0 -1.6322,-0.62702 -1.9263,-1.39338 z m -133.0531,-4.43351 c -8.5614,-2.76795 -12.9004,-5.38778 -20.3565,-12.29096 -3.815,-3.53215 -8.9259,-7.52477 -11.3575,-8.87248 -2.9038,-1.60946 -5.2704,-3.96271 -6.896,-6.85702 -1.3613,-2.42364 -3.8913,-6.31354 -5.6224,-8.64422 -1.731,-2.33067 -3.4464,-6.00819 -3.812,-8.17224 -0.3656,-2.16405 -1.7283,-5.79462 -3.0283,-8.06791 -1.5463,-2.70428 -2.3676,-5.71718 -2.3754,-8.71457 -0.01,-2.85216 -0.5724,-5.04643 -1.4969,-5.81371 -2.4655,-2.04615 -1.6956,-2.97 2.475,-2.97 4.8791,0 5.5334,-2.44074 0.7425,-2.76991 -5.0429,-0.34648 -8.4067,-2.11801 -9.4705,-4.98753 -0.5377,-1.45065 -2.4693,-6.40158 -4.2924,-11.00206 -1.823,-4.60047 -3.4503,-8.83272 -3.6162,-9.405 -0.1658,-0.57227 1.9503,1.38321 4.7025,4.34554 2.7522,2.96232 5.0041,5.01966 5.0041,4.57185 0,-1.8641 -4.3573,-7.6487 -8.1087,-10.76479 -3.967,-3.29525 -4.008,-3.3962 -2.8291,-6.96849 1.8141,-5.49669 3.8,-5.99032 8.3239,-2.06906 3.4309,2.97389 3.7759,3.69613 3.3777,7.07327 -0.2439,2.06864 -0.7859,4.5408 -1.2045,5.49368 -1.1021,2.50852 1.6255,2.24317 3.2221,-0.31348 2.2884,-3.66427 3.3941,-1.61812 3.5261,6.52494 0.1087,6.70796 0.3879,7.91445 1.8989,8.20758 1.4982,0.29062 1.6552,-0.0887 1.0176,-2.45895 -1.3212,-4.91197 -0.1109,-17.59521 1.3067,-13.69259 0.1977,0.5445 2.5623,4.42794 5.2545,8.62987 3.4443,5.37557 5.6585,7.83148 7.471,8.28639 2.7567,0.6919 4.9693,-0.51431 2.4838,-1.35401 -2.8713,-0.97001 -8.4821,-7.80079 -9.8755,-12.02287 -2.5246,-7.64961 -6.2208,-12.41113 -10.6687,-13.74378 -2.2074,-0.66134 -5.0591,-2.10206 -6.3372,-3.20159 l -2.3236,-1.99915 5.94,0.6031 c 7.8726,0.79931 12.1882,2.16289 16.1056,5.08882 5.2432,3.91609 12.1094,19.61835 12.1094,27.69286 0,1.79591 0.6358,4.94492 1.4128,6.99782 0.785,2.07355 1.6821,9.35589 2.0185,16.38446 0.5552,11.60133 0.8806,13.24548 3.9193,19.8 3.7944,8.18476 6.4513,11.94244 13.6674,19.32991 4.6317,4.74168 14.6086,12.20216 17.818,13.32388 0.9392,0.32825 0.8189,0.93659 -0.4735,2.3951 -0.9529,1.0753 -1.7325,2.47689 -1.7325,3.11464 0,1.52808 -1.3897,1.40398 -7.92,-0.70734 z m -14.5292,-20.31132 c 0.6213,-1.61909 -0.1088,-2.57179 -1.9708,-2.57179 -0.726,0 -1.32,0.891 -1.32,1.98 0,2.2511 2.4828,2.69758 3.2908,0.59179 z m -8.4293,-12.22429 c -0.1835,-0.95288 -0.9897,-1.7325 -1.7915,-1.7325 -0.8019,0 -1.6081,0.77962 -1.7916,1.7325 -0.2341,1.21557 0.3005,1.7325 1.7916,1.7325 1.4911,0 2.0256,-0.51693 1.7915,-1.7325 z m -8.7215,-1.29593 c 0,-0.51237 -0.6683,-0.93157 -1.485,-0.93157 -1.531,0 -1.9669,1.16816 -0.8519,2.28308 0.7909,0.79095 2.3369,-0.10314 2.3369,-1.35151 z m -3.1487,-9.67162 c 0.2391,-1.62477 -0.1917,-2.14995 -1.7636,-2.14995 -2.5104,0 -3.8464,2.82187 -1.9145,4.04382 1.9887,1.25791 3.3148,0.5751 3.6781,-1.89387 z m 2.8162,-8.6515 c 0.8251,-2.15024 -1.2696,-4.17237 -2.769,-2.673 -1.2672,1.26724 -0.4822,4.22455 1.1215,4.22455 0.5786,0 1.32,-0.6982 1.6475,-1.55155 z m 0.8275,-13.29845 c 0,-0.80184 -0.7797,-1.60803 -1.7325,-1.79154 -1.2156,-0.23409 -1.7325,0.30045 -1.7325,1.79154 0,1.49108 0.5169,2.02563 1.7325,1.79153 0.9528,-0.18351 1.7325,-0.98969 1.7325,-1.79153 z m -9.9,-12.87 c 0,-0.80184 -0.7797,-1.60803 -1.7325,-1.79154 -1.2156,-0.23409 -1.7325,0.30045 -1.7325,1.79154 0,1.49108 0.5169,2.02563 1.7325,1.79153 0.9528,-0.18351 1.7325,-0.98969 1.7325,-1.79153 z m -23.7193,-29.76587 c 0.9111,-1.47426 -0.1453,-2.2758 -2.0408,-1.54843 -0.8747,0.33567 -1.3131,1.05896 -0.9743,1.60731 0.8025,1.29842 2.193,1.27127 3.0151,-0.0589 z m 78.1693,101.05686 c -4.356,-2.16166 -9.6255,-5.53657 -11.7098,-7.4998 -4.2699,-4.02169 -4.4679,-3.2977 3.1439,-11.49512 3.9294,-4.2316 5.2288,-4.06101 13.1047,1.7205 2.5828,1.89589 6.098,3.93584 7.8117,4.53323 1.7137,0.5974 2.9155,1.58995 2.6707,2.20568 -4.3095,10.83976 -5.9364,14.48291 -6.464,14.47517 -0.3505,-0.005 -4.2012,-1.77798 -8.5572,-3.93966 z m 150.6641,-6.36419 -5.6125,-6.3532 10.8914,-6.06959 10.8913,-6.06959 4.0563,3.26529 c 2.2309,1.79591 5.4109,4.41319 7.0666,5.81618 l 3.0104,2.55089 -2.9736,2.11737 c -2.5852,1.84086 -20.4063,11.09585 -21.3658,11.09585 -0.1934,0 -2.8773,-2.85895 -5.9641,-6.3532 z m 41.3959,-0.19016 c -3.267,-0.87756 -6.3007,-1.92928 -6.7416,-2.33715 -0.4408,-0.40788 1.73,-1.76908 4.8241,-3.02489 l 5.6257,-2.28329 10.5209,2.59125 c 5.7865,1.4252 14.7531,2.92486 19.9259,3.33259 8.5661,0.67521 9.0076,0.80488 4.95,1.45373 -2.4503,0.39182 -10.9148,0.97135 -18.81,1.28786 -11.4681,0.45973 -15.5496,0.25457 -20.295,-1.0201 z m -133.65,-1.4306 c -16.3383,-1.15167 -19.3067,-1.80797 -19.2946,-4.26595 0.037,-7.36184 7.2622,-42.88277 9.0964,-44.71693 0.1814,-0.18145 5.3488,-2.12025 11.4831,-4.30845 l 11.1531,-3.97857 11.5988,5.16554 11.5988,5.16553 0.8109,5.92389 c 1.1944,8.72591 0.2147,40.13182 -1.2808,41.05606 -1.4865,0.91871 -21.8874,0.89486 -35.1657,-0.0411 z m 40.5306,-1.73886 c 0.9785,-3.08317 1.1447,-30.39558 0.2307,-37.92137 l -0.7954,-6.5492 3.777,-1.56833 c 19.5135,-8.10252 17.5515,-7.57296 22.241,-6.00318 2.3683,0.79278 7.1261,2.61996 10.5729,4.06039 6.0133,2.51302 6.4062,2.89577 9.7126,9.46135 2.9259,5.81008 9.2656,23.15199 9.2656,25.34561 0,0.85618 -8.5265,5.19161 -15.84,8.05416 -6.9611,2.72458 -20.9452,5.60323 -31.5429,6.49317 -8.0876,0.67916 -8.2627,0.64763 -7.6215,-1.3726 z m -76.466,-4.15752 c -12.8123,-3.37722 -25.6788,-11.85338 -30.9572,-20.39404 l -2.1559,-3.4882 2.8443,-2.98956 c 3.6974,-3.88643 17.2822,-15.29188 23.7648,-19.95237 l 5.0807,-3.65261 9.2743,2.96284 c 5.1009,1.62957 9.8452,2.96542 10.5429,2.96856 2.281,0.0103 2.3421,2.6057 0.2164,9.18566 -1.1501,3.55995 -3.5143,13.30265 -5.2538,21.65045 -2.3011,11.04295 -3.5671,15.23719 -4.6469,15.39579 -0.8164,0.1199 -4.7356,-0.63903 -8.7096,-1.68652 z m -44.9921,-3.9801 c -5.3236,-5.80446 -11.5287,-18.53291 -10.1345,-20.78869 0.5173,-0.83716 10.9761,-6.90087 11.9026,-6.90087 0.3111,0 1.5009,2.11612 2.644,4.7025 1.1431,2.58637 3.8402,7.08893 5.9936,10.00569 l 3.9154,5.30318 -5.273,5.33932 c -2.9002,2.93662 -5.511,5.33087 -5.8018,5.32057 -0.2909,-0.0103 -1.7517,-1.35208 -3.2463,-2.9817 z m 201.4129,-3.0765 c -3.9736,-3.32137 -7.0921,-6.14833 -6.93,-6.28212 0.7721,-0.63756 15.145,-5.46094 16.2727,-5.46094 0.7071,0 4.6968,2.22679 8.8659,4.94844 l 7.5802,4.94844 -3.6224,1.51356 c -1.9924,0.83246 -6.1134,2.61516 -9.1579,3.96156 -3.0444,1.3464 -5.5913,2.43942 -5.6596,2.42895 -0.068,-0.0105 -3.3754,-2.73653 -7.3489,-6.05789 z m -24.0092,-14.48111 c -2.2806,-5.84482 -5.2374,-12.78738 -6.5705,-15.42789 -1.3331,-2.64052 -2.2825,-4.90967 -2.1098,-5.04256 0.1727,-0.13289 3.2856,-1.73062 6.9176,-3.55052 l 6.6035,-3.30891 4.7815,3.84759 c 5.3473,4.30293 17.3795,16.44266 20.1722,20.35245 l 1.8193,2.54712 -10.585,4.29234 c -5.8218,2.3608 -12.0019,4.88297 -13.7335,5.60485 l -3.1485,1.31249 -4.1468,-10.62696 z M 162.26044,432.9775 c -0.9335,-9.72353 -0.2858,-11.24442 6.5345,-15.345 3.3962,-2.04188 6.4787,-3.7125 6.85,-3.7125 0.3713,0 0.6751,3.7484 0.6751,8.32979 l 0,8.3298 -6.3484,3.5502 c -3.4916,1.95261 -6.5534,3.55021 -6.8041,3.55021 -0.2506,0 -0.6588,-2.11613 -0.9071,-4.7025 z m 19.6523,0 c -3.0301,-9.52217 -3.2494,-22.0275 -0.3863,-22.0275 0.6187,0 8.1487,-2.673 16.7332,-5.94 8.5844,-3.267 15.9828,-5.94 16.4407,-5.94 0.4579,0 0.9269,1.89337 1.0422,4.2075 0.1152,2.31412 0.443,5.35296 0.7283,6.75296 0.4202,2.06189 0,2.77937 -2.1835,3.77667 -3.2794,1.4942 -16.8334,11.99475 -24.3495,18.86407 -3.0143,2.75484 -5.7163,5.0088 -6.0046,5.0088 -0.2883,0 -1.1975,-2.11613 -2.0205,-4.7025 z m 98.3862,-17.199 c -6.2459,-2.71465 -11.5231,-5.10272 -11.7273,-5.30683 -0.2041,-0.20412 -0.048,-4.24974 0.3469,-8.99025 l 0.718,-8.61914 13.4842,0.54236 c 9.9984,0.40216 16.1715,1.22938 23.8793,3.19994 5.7172,1.46166 10.7,2.94846 11.0729,3.304 0.5907,0.56315 -1.5049,11.7506 -2.3441,12.51432 -1.1874,1.08062 -20.6281,8.41363 -22.1612,8.35921 -1.0519,-0.0373 -7.0229,-2.28896 -13.2687,-5.00361 z m 49.5177,1.02939 c -5.1471,-2.17228 -9.4893,-4.08056 -9.6493,-4.24061 -0.1601,-0.16005 0.5385,-2.70555 1.5524,-5.65665 2.0319,-5.91405 2.4236,-6.04686 9.5353,-3.23306 5.7707,2.28326 22.275,10.63129 22.275,11.26693 0,0.90149 -10.8063,5.90895 -12.6445,5.85924 -0.9408,-0.0254 -5.9218,-1.82357 -11.0689,-3.99585 z m -92.1166,1.18476 c -11.2658,-3.37928 -15.8853,-5.27763 -16.7366,-6.87785 -0.4828,-0.90739 -1.0354,-4.3228 -1.2281,-7.5898 l -0.3503,-5.94 8.415,-1.7234 c 9.1003,-1.86374 36.5253,-3.70193 37.2693,-2.49802 0.7794,1.26111 -0.8441,18.01348 -1.8712,19.30849 -0.7873,0.99258 -18.9835,7.48502 -19.8175,7.0709 -0.1296,-0.0643 -2.6859,-0.85202 -5.6806,-1.75032 z m -108.24,-32.45266 c -0.363,-0.36299 -0.66,-1.34309 -0.66,-2.178 0,-1.12191 0.2897,-1.22821 1.1106,-0.40735 0.6109,0.61085 1.7246,0.87503 2.475,0.58708 0.8104,-0.31096 1.3644,0.12246 1.3644,1.06736 0,1.56964 -3.0003,2.22068 -4.29,0.93091 z m 95.37,-21.61499 2.3251,-2.475 -2.6967,0 c -1.4832,0 -4.0526,0.70109 -5.7096,1.558 -4.1379,2.13976 -4.5345,1.2002 -0.8147,-1.92982 l 3.0878,-2.59818 -2.5828,0 c -1.4205,0 -4.1961,0.6741 -6.168,1.49799 -1.9718,0.8239 -3.7545,1.32868 -3.9614,1.12175 -0.2069,-0.20694 1.2861,-1.83584 3.3179,-3.61978 l 3.6942,-3.24355 -4.8984,0.67368 -4.8984,0.67367 2.475,-1.99487 c 3.7921,-3.05652 9.3926,-2.68943 13.4606,0.88228 1.8299,1.60664 5.0072,3.2096 7.0607,3.56213 2.0535,0.35254 5.0224,0.94733 6.5975,1.32176 2.7047,0.64296 2.7696,0.7751 1.1668,2.37787 -0.9334,0.93338 -2.8904,1.71286 -4.3489,1.73215 -1.4584,0.0193 -3.7655,0.67176 -5.1267,1.44992 -3.7686,2.15429 -4.5615,1.75783 -1.98,-0.99 z m 134.8202,-9.1575 c 0.5649,-3.89303 -0.3484,-4.07963 -3.0648,-0.62622 -1.8158,2.30835 -2.1115,2.40051 -2.7088,0.84401 -0.3688,-0.961 -0.1804,-3.04579 0.4187,-4.63287 1.4745,-3.90652 -0.4951,-3.24423 -3.4878,1.17281 -2.0951,3.0921 -2.2272,3.14642 -2.2214,0.91367 0,-1.30564 0.6795,-3.66531 1.5027,-5.2437 1.8774,-3.60007 1.2465,-4.30093 -1.973,-2.19149 -2.815,1.8445 -3.376,0.62786 -0.8672,-1.88091 1.5004,-1.50042 6.4071,-3.88007 6.6662,-3.233 1.9072,4.76285 6.5655,9.52197 10.6543,10.88493 0.5744,0.19144 -0.4025,1.89208 -2.1707,3.77917 l -3.215,3.4311 0.4668,-3.2175 z m -132.7503,-0.92455 c -5.5984,-2.92464 -6.6814,-4.52057 -3.4846,-5.13493 3.7432,-0.71932 6.4749,-2.1187 5.9125,-3.02876 -0.3351,-0.5422 -1.6345,-0.3729 -3.1424,0.40943 -2.1678,1.12468 -3.1939,1.11411 -6.5427,-0.0674 -2.1844,-0.7707 -5.809,-1.40377 -8.0547,-1.40681 -12.9815,-0.0175 -20.052,-7.55796 -17.3074,-18.4577 1.4632,-5.81082 2.8162,-6.76179 7.4935,-5.2666 4.9286,1.57549 5.8379,2.50654 4.2807,4.38287 -1.5648,1.88548 -0.6579,1.89995 4.4202,0.0705 6.1094,-2.20103 9.5432,-1.80658 17.0751,1.96147 14.2863,7.14712 21.6627,21.3558 13.7712,26.52648 -4.6126,3.0223 -8.6518,3.02551 -14.4214,0.0115 z m 6.6132,-4.08733 c 0.2155,-0.6466 -0.3135,-1.17562 -1.1756,-1.17562 -0.8622,0 -1.5675,0.70537 -1.5675,1.56749 0,1.74827 2.1312,1.44381 2.7431,-0.39187 z m 6.1669,-8.60062 c 0,-0.81675 -0.6683,-1.485 -1.485,-1.485 -0.8168,0 -1.485,0.66825 -1.485,1.485 0,0.81675 0.6682,1.485 1.485,1.485 0.8167,0 1.485,-0.66825 1.485,-1.485 z m -29.7,-1.92157 c 0,-0.78462 -0.4148,-1.68289 -0.9216,-1.99615 -1.177,-0.72743 -2.3608,1.12639 -1.5534,2.43272 0.9103,1.47299 2.475,1.197 2.475,-0.43657 z m 9.7251,-1.87298 c 0.2158,-1.11283 -0.3486,-1.65045 -1.7325,-1.65045 -1.129,0 -2.0526,0.594 -2.0526,1.31999 0,3.03213 3.2068,3.3121 3.7851,0.33046 z m 10.5699,0.32955 c 0,-0.80184 -0.7797,-1.60803 -1.7325,-1.79154 -1.2156,-0.23409 -1.7325,0.30045 -1.7325,1.79154 0,1.49108 0.5169,2.02563 1.7325,1.79153 0.9528,-0.18351 1.7325,-0.98969 1.7325,-1.79153 z m -25.6867,-6.02626 c 0.3658,-0.59195 0.277,-1.4644 -0.1974,-1.93878 -1.1708,-1.17085 -3.7477,0.53352 -2.8944,1.91435 0.8649,1.39929 2.2354,1.41012 3.0918,0.0245 z m 160.159,16.01193 c -2.2702,-1.04354 -4.609,-2.79693 -5.1975,-3.89642 -1.4471,-2.70399 -1.3458,-3.43697 0.3834,-2.77341 2.146,0.82349 2.7631,-0.9381 0.9601,-2.74103 -1.9694,-1.96943 -6.8676,-2.00118 -12.3133,-0.0798 -2.315,0.81675 -6.0113,1.485 -8.2142,1.485 -3.4569,0 -4.592,-0.61234 -8.2905,-4.47239 -4.0148,-4.19002 -5.4747,-7.40761 -3.3611,-7.40761 0.5083,0 3.0699,-1.3274 5.6925,-2.94976 11.1331,-6.88719 24.4208,-8.87563 32.6595,-4.88733 5.4459,2.63632 11.9642,10.00831 12.8031,14.47995 1.9476,10.38154 -6.0707,17.4034 -15.122,13.24281 z m 10.0677,-12.03462 c 0,-0.76391 -0.7797,-1.53908 -1.7325,-1.72259 -1.7065,-0.32864 -2.412,1.77205 -1.0519,3.13216 1.0377,1.03772 2.7844,0.1535 2.7844,-1.40957 z m -24.4819,-4.69543 c 0.2155,-0.6466 -0.3135,-1.17562 -1.1756,-1.17562 -0.8622,0 -1.5675,0.70537 -1.5675,1.56749 0,1.74827 2.1312,1.44381 2.7431,-0.39187 z m -12.6431,-2.74312 c 0,-0.86213 -0.5291,-1.39116 -1.1757,-1.17563 -1.8356,0.61189 -2.1401,2.74313 -0.3918,2.74313 0.8621,0 1.5675,-0.70538 1.5675,-1.5675 z m 24.5023,-1.98014 c -0.9434,-0.94343 -2.8348,0.58469 -2.1317,1.7223 0.4179,0.67617 0.9716,0.6591 1.6826,-0.0519 0.5829,-0.58287 0.785,-1.33455 0.4491,-1.6704 z m -6.3111,-1.20214 c 0.7828,-1.26649 -1.033,-3.48993 -2.2406,-2.74363 -1.5893,0.98227 -1.354,3.53341 0.3259,3.53341 0.7847,0 1.6462,-0.3554 1.9147,-0.78978 z m -237.0186,15.59954 c 3.86,-3.29939 2.4989,-3.85723 -3.3989,-1.39298 -5.5412,2.31528 -6.4571,1.16799 -1.7751,-2.22361 2.2851,-1.65537 3.9135,-3.25106 3.6185,-3.54598 -0.5214,-0.52143 -3.7895,0.24833 -7.8121,1.84006 -1.7594,0.69614 -1.829,0.5978 -0.6251,-0.88234 0.7452,-0.9162 3.1,-2.18863 5.2328,-2.82763 4.4527,-1.33408 3.4154,-2.72601 -2.1327,-2.8617 -2.8435,-0.0695 -3.1099,-0.23738 -1.485,-0.93558 3.6642,-1.57458 9.4102,-1.15128 10.0786,0.7425 1.1495,3.25709 4.6403,6.20917 8.6669,7.3293 l 4.0245,1.11955 -4.95,2.27357 c -2.7225,1.25046 -5.7034,2.3009 -6.6241,2.33432 -0.9207,0.0334 -1.9494,0.50626 -2.2859,1.05076 -0.3365,0.5445 -1.3652,0.97189 -2.286,0.94976 -1.1971,-0.0288 -0.6975,-0.87496 1.7536,-2.97 z m 11.9174,0.49618 c 0,-0.26677 1.4478,-1.36783 3.2175,-2.44679 3.846,-2.34501 7.6725,-2.58646 7.6725,-0.48415 0,0.98268 -0.9829,1.485 -2.9056,1.485 -1.5981,0 -4.0483,0.43447 -5.445,0.96549 -1.3967,0.53103 -2.5394,0.74723 -2.5394,0.48045 z m -3.1927,-8.92916 c -4.5031,-2.4438 -5.2171,-4.94505 -2.3071,-8.08331 1.3715,-1.47915 3.6538,-5.59841 5.0716,-9.15391 3.0194,-7.57142 6.4171,-12.35637 10.5656,-14.8792 2.9746,-1.80899 2.9838,-1.8075 8.0528,1.29995 4.7411,2.90646 13.3989,11.14327 13.4617,12.80719 0.015,0.40837 -0.4019,0.7425 -0.9275,0.7425 -1.634,0 -7.9258,6.03668 -11.0994,10.64928 -4.9745,7.23016 -15.8674,10.38928 -22.8177,6.6175 z m 12.9837,-8.72043 c 0.8461,-1.01957 0.8067,-1.61642 -0.1595,-2.41837 -1.7113,-1.42026 -4.1493,0.16111 -3.3719,2.18711 0.7453,1.94213 2.041,2.02699 3.5314,0.23126 z m -4.841,-9.04135 c 0,-0.81675 -0.4192,-1.485 -0.9316,-1.485 -1.2484,0 -2.1425,1.54597 -1.3515,2.33691 1.1149,1.11492 2.2831,0.67903 2.2831,-0.85191 z m 8.6831,-5.25938 c 0.2155,-0.6466 -0.3135,-1.17562 -1.1756,-1.17562 -0.8622,0 -1.5675,0.70537 -1.5675,1.56749 0,1.74827 2.1312,1.44381 2.7431,-0.39187 z m 139.2101,21.90348 c -1.7653,-0.34705 -2.1903,-1.35319 -2.7225,-6.4454 -0.3469,-3.31879 -0.6307,-7.7508 -0.6307,-9.84893 l 0,-3.81477 11.385,-0.16501 c 6.2617,-0.0908 12.1558,-0.20212 13.098,-0.2475 1.2813,-0.0617 2.5024,2.11727 4.8446,8.64457 l 3.1316,8.72706 -2.1221,0.80061 c -5.1855,1.95633 -21.679,3.39234 -26.9839,2.34937 z m -35.5282,-1.65441 c -2.178,-0.65622 -3.9049,-1.40161 -3.8375,-1.65641 0.067,-0.25481 0.4414,-4.06555 0.8312,-8.46831 0.3897,-4.40276 1.0154,-8.50152 1.3905,-9.10836 0.4914,-0.79513 3.9926,-0.84707 12.5338,-0.18592 6.5186,0.50458 12.8341,0.92796 14.0346,0.94086 2.3988,0.0257 2.6804,1.00046 3.7959,13.14095 l 0.6141,6.6825 -12.7013,-0.076 c -6.9857,-0.0419 -14.4833,-0.61304 -16.6613,-1.26927 z m -15.345,-4.68174 c -4.0949,-1.94433 -9.4236,-3.46642 -14.6531,-4.18548 -9.3857,-1.29054 -9.2078,-0.8659 -4.6662,-11.1351 2.0825,-4.709 2.7114,-5.3731 4.6752,-4.93659 3.3828,0.75191 23.5653,4.50422 24.2269,4.50422 0.5295,0 0.1715,4.01515 -1.3021,14.6025 -0.322,2.31412 -0.8691,4.20714 -1.2156,4.20671 -0.3466,-3.3e-4 -3.5259,-1.37574 -7.0651,-3.05626 z m 83.3347,-0.65545 c -2.0043,-5.16952 -4.1347,-12.20135 -4.1347,-13.6471 0,-0.83745 0.9413,-1.45992 2.2275,-1.47293 1.2251,-0.0124 7.128,-1.3485 13.1175,-2.96914 l 10.89,-2.94661 4.6567,5.19664 c 2.5611,2.85815 4.553,5.56944 4.4263,6.02509 -0.1267,0.45565 -2.445,1.61667 -5.1517,2.58007 -2.7067,0.96339 -7.1488,3.07215 -9.8713,4.68614 -9.826,5.82516 -14.598,6.57752 -16.1603,2.54784 z m -132.3397,-2.62764 c -7.3227,-2.32566 -13.828,-6.27883 -19.803,-12.03397 -3.2654,-3.14521 -8.5187,-7.23605 -11.6741,-9.09074 -4.1511,-2.43999 -6.3405,-4.53527 -7.92,-7.57954 -1.2006,-2.31405 -3.6308,-6.37768 -5.4004,-9.03031 -1.7697,-2.65262 -3.2175,-5.7029 -3.2175,-6.77839 0,-1.07549 -1.3895,-4.80764 -3.0878,-8.29366 -2.3481,-4.81988 -2.9538,-7.16374 -2.5285,-9.78429 0.4232,-2.60812 0.091,-3.91451 -1.3673,-5.37251 -1.0595,-1.05955 -1.9264,-2.1492 -1.9264,-2.42145 0,-0.27225 2.0047,-0.495 4.455,-0.495 5.9183,0 5.6973,-1.56013 -0.3345,-2.36026 -5.8576,-0.77704 -8.1921,-3.0986 -10.5684,-10.50974 -0.9603,-2.99475 -2.8056,-7.56113 -4.1007,-10.1475 -3.0514,-6.09367 -1.0844,-6.20799 3.614,-0.21002 1.9032,2.42964 3.8217,4.41752 4.2634,4.41752 1.5694,0 -2.8458,-6.15263 -7.4911,-10.43897 -4.6309,-4.27307 -4.6936,-4.4106 -3.4266,-7.51569 2.1298,-5.21954 3.8341,-5.58755 8.5024,-1.83599 4.343,3.49013 5.0065,5.8201 2.9456,10.34325 -1.5861,3.4811 -0.3116,4.29639 2.5353,1.62184 2.9063,-2.73032 3.8248,-1.56916 2.9728,3.75844 -0.7839,4.90253 0.2051,10.63654 1.9502,11.30617 1.0294,0.39503 1.2064,-1.015 0.8412,-6.70456 -0.2549,-3.97235 -0.013,-8.00816 0.5397,-8.99541 0.8763,-1.56579 1.2793,-1.24028 3.2098,2.59266 3.7755,7.49591 9.0603,13.78826 11.5803,13.78826 2.7187,0 3.0163,-1.61022 0.4481,-2.42531 -3.1808,-1.00957 -6.1243,-5.03178 -9.1836,-12.54925 -3.0522,-7.50023 -6.1326,-11.75544 -8.5099,-11.75544 -1.9748,0 -9.193,-3.84636 -9.193,-4.89859 0,-1.44372 10.9779,0.009 15.8276,2.09478 2.4435,1.05078 5.4935,2.89113 6.7777,4.08967 3.976,3.71046 9.1635,15.95795 10.0824,23.80405 0.4564,3.8968 1.4735,9.31259 2.2602,12.03509 0.7868,2.7225 1.5096,9.58011 1.6062,15.23913 0.1545,9.04306 0.547,11.1735 3.2412,17.59177 4.6988,11.19394 16.9744,24.71008 28.2595,31.11532 4.6984,2.66673 4.9533,3.39999 2.291,6.59128 -2.1021,2.51987 -2.919,2.60062 -8.4708,0.83736 z m -14.85,-21.39343 c 0,-2.12206 -2.8767,-1.81556 -3.2939,0.35097 -0.2548,1.32303 0.1484,1.72623 1.4715,1.47144 1.0023,-0.19303 1.8224,-1.01311 1.8224,-1.82241 z m -8.524,-12.49279 c -1.4904,-1.79573 -2.7861,-1.71087 -3.5314,0.23127 -0.7774,2.02599 1.6606,3.60736 3.3719,2.1871 0.9662,-0.80194 1.0056,-1.3988 0.1595,-2.41837 z m -8.801,0.13136 c 0,-0.81675 -0.4192,-1.485 -0.9316,-1.485 -1.2484,0 -2.1425,1.54597 -1.3515,2.33691 1.1149,1.11492 2.2831,0.67903 2.2831,-0.85191 z m -2.475,-9.9 c 0,-2.94836 -3.8646,-2.6538 -4.2868,0.32674 -0.2719,1.91942 0.061,2.25187 1.98,1.98 1.5379,-0.21783 2.3068,-0.98675 2.3068,-2.30674 z m 2.8474,-8.94748 c 0.3385,-0.88225 -0.061,-1.77015 -0.9507,-2.11146 -1.8487,-0.7094 -3.8716,1.05041 -2.94,2.55768 0.9714,1.57186 3.215,1.31455 3.8907,-0.44622 z m 0.4291,-13.08002 c -0.1835,-0.95288 -0.9897,-1.7325 -1.7915,-1.7325 -0.8019,0 -1.6081,0.77962 -1.7916,1.7325 -0.2341,1.21557 0.3005,1.7325 1.7916,1.7325 1.4911,0 2.0256,-0.51693 1.7915,-1.7325 z m -10.2065,-13.13107 c 0,-2.12206 -2.8767,-1.81556 -3.2939,0.35097 -0.2548,1.32303 0.1484,1.72623 1.4715,1.47144 1.0023,-0.19303 1.8224,-1.01311 1.8224,-1.82241 z M 119.25414,212.455 c 0,-0.5445 -0.7479,-1.13405 -1.662,-1.31009 -1.0128,-0.19505 -1.6621,0.31673 -1.6621,1.31009 0,0.99335 0.6493,1.50513 1.6621,1.31008 0.9141,-0.17604 1.662,-0.76558 1.662,-1.31008 z m 78.8705,102.40086 c -3.5257,-1.66792 -8.3911,-4.67469 -10.812,-6.68171 -2.421,-2.00704 -4.8402,-3.94098 -5.376,-4.29765 -0.5377,-0.35794 1.4064,-3.29976 4.3392,-6.56575 6.0621,-6.75089 5.7938,-6.74908 15.7842,-0.10706 2.9947,1.99104 6.4881,3.93891 7.763,4.32863 2.5367,0.7754 2.5765,0.38172 -1.0284,10.17018 -1.2533,3.40312 -2.7245,6.18714 -3.2692,6.18671 -0.5447,-3.3e-4 -3.8751,-1.36543 -7.4008,-3.03335 z m 149.6856,-6.79955 c -2.8436,-3.23053 -5.1702,-6.1012 -5.1702,-6.37927 0,-0.49271 18.3173,-11.01825 20.3143,-11.67304 0.5519,-0.18095 4.2396,2.18402 8.195,5.2555 l 7.1916,5.5845 -6.4412,4.068 c -3.5426,2.2374 -6.6771,4.068 -6.9653,4.068 -0.2883,0 -2.8328,1.11375 -5.6546,2.475 -2.8217,1.36125 -5.3934,2.475 -5.7149,2.475 -0.3215,0 -2.9111,-2.64317 -5.7547,-5.87369 z m 42.8448,-0.019 c -2.178,-0.47991 -5.2965,-1.39066 -6.93,-2.02389 l -2.97,-1.15131 5.94,-2.546 5.94,-2.54601 10.395,2.62745 c 5.7172,1.44509 14.85,2.92543 20.295,3.28963 7.7012,0.51512 9.2404,0.84204 6.93,1.472 -4.4226,1.20588 -35.0322,1.88464 -39.6,0.87813 z m -138.2598,-2.02751 c -11.1033,-1.07988 -16.6776,-2.0112 -16.6571,-2.78298 0.1267,-4.7648 3.5745,-24.19074 6.0185,-33.91058 l 3.1277,-12.43873 11.0103,-3.66624 c 6.0557,-2.01643 11.4559,-3.6585 12.0004,-3.64902 0.5445,0.01 5.9742,2.13346 12.066,4.71997 l 11.076,4.70276 0.804,6.435 c 0.9829,7.86769 0.736,30.53657 -0.399,36.63 l -0.8298,4.455 -15.3186,0.12101 c -8.4253,0.0665 -18.7295,-0.21073 -22.8984,-0.61619 z m 44.1367,-23.15172 -0.073,-23.15097 4.0331,-1.74996 c 2.2182,-0.96248 6.4274,-2.79558 9.3537,-4.07356 6.9291,-3.026 8.7954,-2.88567 19.4231,1.46035 l 8.9038,3.64104 3.6378,7.425 c 3.6372,7.42378 6.9276,16.44113 8.2277,22.54758 l 0.6903,3.24257 -8.317,3.84249 c -4.5744,2.11336 -10.7379,4.57095 -13.6967,5.4613 -6.3387,1.90744 -22.5079,4.4921 -28.1496,4.49976 l -3.96,0.005 -0.073,-23.15098 z m -75.1539,18.02893 c -7.1458,-1.36277 -20.0456,-7.77116 -25.5971,-12.71622 -5.3574,-4.77207 -10.1669,-11.69952 -8.9027,-12.82309 0.4547,-0.40411 5.059,-4.49849 10.2318,-9.09862 5.1727,-4.60013 11.9779,-10.18868 15.1225,-12.41901 l 5.7175,-4.05514 10.6175,3.35116 c 5.8396,1.84313 10.9992,3.35853 11.4659,3.36752 0.4666,0.009 0.5337,0.79599 0.149,1.74887 -2.449,6.06689 -10.4024,39.16065 -10.4024,43.28421 0,0.68967 -2.3826,0.50827 -8.402,-0.63968 z m -48.523,-6.72513 c -4.0427,-4.92013 -9.5445,-16.35923 -8.7898,-18.27521 0.4308,-1.09348 12.2257,-7.92537 12.6601,-7.33298 0.1336,0.18221 0.8634,1.89054 1.6218,3.79629 0.7584,1.90575 3.3136,6.29468 5.6782,9.75316 4.2158,6.16604 4.2645,6.32949 2.5045,8.415 -3.4525,4.09118 -8.1385,8.56141 -8.9233,8.51257 -0.4353,-0.0271 -2.5735,-2.21807 -4.7515,-4.86883 z m 203.445,-0.56848 c -3.5393,-3.00841 -6.5716,-5.86456 -6.7385,-6.347 -0.1669,-0.48245 3.4253,-2.09148 7.9827,-3.57565 l 8.2861,-2.69849 7.6079,4.84636 c 4.1843,2.6655 7.6088,5.09285 7.6098,5.39412 0,0.44834 -10.9355,5.20449 -16.828,7.3179 -0.889,0.31884 -4.0678,-1.66278 -7.92,-4.93724 z m -23.7959,-13.07592 c -1.809,-4.76438 -4.7707,-11.6629 -6.5815,-15.33007 l -3.2925,-6.66757 7.0179,-3.53415 7.0179,-3.53416 3.6295,2.71353 c 5.3534,4.00232 23.0647,22.24944 22.6893,23.37571 -0.2292,0.68742 -25.6814,11.63921 -27.0499,11.63921 -0.078,0 -1.6217,-3.89813 -3.4307,-8.6625 z m -190.4101,-11.385 c -0.3284,-1.22513 -0.6031,-4.74919 -0.6105,-7.83126 l -0.014,-5.60375 6.5267,-4.12201 c 3.5897,-2.26711 6.6771,-3.97163 6.8609,-3.78784 0.1838,0.1838 0.4321,4.03996 0.5519,8.56924 l 0.2177,8.23504 -6.1057,3.38404 c -3.3581,1.86122 -6.2688,3.38404 -6.4681,3.38404 -0.1994,0 -0.6311,-1.00238 -0.9594,-2.2275 z m 18.8114,-3.52994 c -0.8885,-3.16661 -1.6154,-8.97209 -1.6154,-12.90108 0,-5.92908 0.2945,-7.2393 1.7325,-7.70634 0.9528,-0.3095 7.9695,-2.91747 15.5925,-5.79549 20.1422,-7.60457 17.9197,-7.62953 18.7291,0.21026 0.5945,5.75846 0.4517,6.84486 -1.0117,7.69509 -4.3794,2.54447 -19.6052,14.39488 -24.4857,19.0575 -2.9922,2.85862 -5.8646,5.1975 -6.3831,5.1975 -0.5185,0 -1.6697,-2.59085 -2.5582,-5.75744 z m 99.2825,-15.7053 -12.4571,-5.48062 0.3958,-7.56581 c 0.2178,-4.16121 0.5749,-8.1227 0.7936,-8.80333 0.4958,-1.54311 11.2025,-1.63505 23.6992,-0.2035 9.3129,1.06683 25.2706,5.40528 25.2706,6.87038 0,0.47001 -0.5375,3.18278 -1.1943,6.02837 -1.1327,4.90724 -1.4515,5.28629 -6.1875,7.35668 -12.3944,5.41837 -17.1475,7.41546 -17.492,7.34951 -0.2042,-0.0391 -5.9769,-2.53734 -12.8283,-5.55168 z m 50.0771,1.43061 c -5.445,-2.24931 -10.0762,-4.22152 -10.2915,-4.38271 -0.3918,-0.2933 2.491,-11.17972 3.1296,-11.81827 0.9076,-0.90759 29.4216,12.15375 29.4326,13.4821 0,0.50688 -11.2843,6.95922 -12.0013,6.85978 -0.2032,-0.0282 -4.8244,-1.89159 -10.2694,-4.1409 z m -91.575,1.17526 c -5.2842,-1.27791 -17.0459,-5.71296 -18.1931,-6.86015 -0.5601,-0.56017 -1.1995,-3.86239 -1.4209,-7.33826 l -0.4024,-6.31977 3.3257,-1.06971 c 5.5111,-1.77265 16.4664,-3.21619 29.8082,-3.92771 l 12.6225,-0.67315 0,8.10335 c 0,11.95331 -0.2048,12.24953 -11.0386,15.96846 -5.0911,1.74758 -9.7019,3.12737 -10.2464,3.06617 -0.5445,-0.0612 -2.5493,-0.48834 -4.455,-0.94923 z M 128.41094,218.314 c -1.0628,-2.76968 -0.5796,-3.93402 0.8497,-2.04738 0.7632,1.00739 1.8628,1.53798 2.4435,1.17907 0.5807,-0.35891 1.0559,0.042 1.0559,0.89086 0,2.02195 -3.5717,2.00344 -4.3491,-0.0226 z m 95.4291,-22.94895 c 0,-0.54045 0.6682,-1.53723 1.485,-2.21507 0.8167,-0.67785 1.485,-1.57648 1.485,-1.99696 0,-0.93913 -5.6997,0.27881 -8.6207,1.84213 -3.7189,1.9903 -3.8755,1.16795 -0.3513,-1.84488 1.8716,-1.60009 3.1483,-3.16396 2.837,-3.47529 -0.3114,-0.31133 -3.0679,0.27855 -6.1256,1.31082 -3.0577,1.03228 -5.5472,1.61189 -5.5322,1.28802 0.015,-0.32386 1.562,-1.70259 3.4378,-3.06384 4.4087,-3.19944 4.3439,-3.95561 -0.2475,-2.88937 -5.4194,1.2585 -5.8544,1.12625 -3.6259,-1.10231 1.1065,-1.10643 3.6496,-2.27749 5.6516,-2.60236 3.1883,-0.51739 4.1219,-0.15522 7.5251,2.91943 3.0962,2.79723 5.0117,3.65083 9.4315,4.20306 3.0505,0.38113 5.8312,1.15397 6.1795,1.71744 0.9204,1.48928 -2.5612,3.69411 -5.8334,3.69411 -1.5486,0 -3.9137,0.71948 -5.2558,1.59886 -1.3421,0.87937 -2.4401,1.15667 -2.4401,0.61621 z m 136.5841,-9.14507 c -0.1057,-0.81675 -0.1128,-2.26463 -0.016,-3.2175 0.2605,-2.56087 -1.4848,-2.10549 -3.7943,0.99 l -2.0312,2.7225 -0.031,-3.28259 c -0.017,-1.80542 0.4479,-4.17801 1.0336,-5.27244 0.9659,-1.80483 0.8748,-1.8881 -0.9798,-0.89556 -1.1245,0.60186 -2.7289,2.41758 -3.5653,4.03493 -0.8364,1.61736 -1.7208,2.94066 -1.9655,2.94066 -0.8702,0 0.7615,-6.47432 2.2201,-8.80904 1.6022,-2.56445 1.404,-2.59359 -4.1994,-0.61726 -1.3976,0.4929 -1.0289,-0.20215 1.2531,-2.36268 3.3435,-3.1655 7.1619,-4.07695 7.1619,-1.70953 0,2.26714 3.704,6.22142 7.5269,8.03551 l 3.6207,1.71816 -2.5051,2.11992 c -1.3778,1.16595 -2.7371,2.78817 -3.0207,3.60492 -0.4582,1.31999 -0.5369,1.31999 -0.7077,0 z m -134.0322,-3.23379 c -5.1266,-2.91941 -5.3389,-4.13394 -0.9171,-5.24862 2.0129,-0.50743 3.845,-1.48815 4.0714,-2.17939 0.3267,-0.99759 -0.1169,-1.01597 -2.1512,-0.0891 -1.9402,0.88404 -3.8256,0.8954 -7.7614,0.0467 -2.8592,-0.6165 -7.4261,-1.39842 -10.1486,-1.73761 -8.0461,-1.00242 -11.2066,-2.79085 -13.375,-7.5685 -2.3609,-5.20165 -2.4632,-8.84624 -0.3723,-13.25264 1.7285,-3.64244 3.1249,-4.01309 8.402,-2.23015 4.3371,1.46533 4.3732,1.50706 2.8703,3.31803 -1.915,2.30735 -0.717,2.67354 3.2811,1.003 7.8852,-3.29464 17.7431,-0.45357 27.1465,7.82363 5.1021,4.49106 7.1924,8.65699 7.1924,14.33471 0,3.05562 -0.5752,4.37237 -2.6086,5.9718 -3.5678,2.80645 -10.5139,2.72115 -15.6295,-0.19193 z m 7.8964,-2.79247 c 1.0202,-1.65075 -1.2744,-3.54372 -2.6401,-2.178 -1.1424,1.14238 -0.4274,3.25426 1.1018,3.25426 0.4802,0 1.1724,-0.48432 1.5383,-1.07626 z m 5.6392,-9.23625 c 0.1361,-0.49911 -0.3094,-1.09311 -0.99,-1.31999 -0.6807,-0.22688 -1.2375,0.32999 -1.2375,1.2375 0,1.67641 1.7748,1.74215 2.2275,0.0825 z m -29.733,-3.72899 c -1.5123,-1.51224 -2.6281,-0.39639 -1.7894,1.78935 0.4953,1.29054 0.9246,1.41842 1.8053,0.53769 0.8807,-0.88073 0.8769,-1.43416 -0.016,-2.32704 z m 20.243,0.60995 c 0.8251,-2.15024 -1.2696,-4.17237 -2.769,-2.673 -1.2672,1.26724 -0.4822,4.22455 1.1215,4.22455 0.5786,0 1.32,-0.6982 1.6475,-1.55155 z m -10.0625,-1.43202 c 0,-2.12206 -2.8767,-1.81556 -3.2939,0.35097 -0.2548,1.32303 0.1484,1.72623 1.4715,1.47145 1.0023,-0.19303 1.8224,-1.01312 1.8224,-1.82242 z m -14.85,-5.99538 c 0,-0.76391 -0.7797,-1.53908 -1.7325,-1.72259 -1.7065,-0.32864 -2.412,1.77205 -1.0519,3.13216 1.0377,1.03772 2.7844,0.1535 2.7844,-1.40957 z m 158.2156,15.95822 c -1.7348,-1.05783 -3.6439,-2.83816 -4.2423,-3.9563 -0.9318,-1.74109 -0.7987,-2.03297 0.9268,-2.03297 3.1953,0 2.3396,-2.70929 -1.2275,-3.88654 -2.6589,-0.87751 -4.3069,-0.69581 -9.1575,1.00969 -9.4585,3.32561 -14.6793,1.74983 -20.3318,-6.13668 l -1.8481,-2.57851 4.9091,-3.18098 c 10.9377,-7.0874 21.3596,-9.82028 30.3685,-7.96335 4.852,1.0001 6.5233,1.96702 10.8326,6.26696 5.9398,5.92683 7.8201,10.96378 6.2354,16.70309 -1.9698,7.13395 -9.7464,9.85234 -16.4652,5.75559 z m 11.5694,-11.37584 c 0,-2.06686 -2.0539,-3.02007 -3.0656,-1.42277 -1.3421,2.11894 -1.0638,2.84934 1.0856,2.84934 1.089,0 1.98,-0.64196 1.98,-1.42657 z m -24.75,-4.57186 c 0,-0.51237 -0.6683,-0.93157 -1.485,-0.93157 -1.531,0 -1.9669,1.16816 -0.8519,2.28308 0.7909,0.79095 2.3369,-0.10314 2.3369,-1.35151 z m -11.88,-2.41657 c 0,-0.81675 -0.6683,-1.485 -1.485,-1.485 -0.8168,0 -1.485,0.66825 -1.485,1.485 0,0.81675 0.6682,1.485 1.485,1.485 0.8167,0 1.485,-0.66825 1.485,-1.485 z m 24.75,-1.485 c 0,-0.5445 -0.6683,-0.99 -1.485,-0.99 -0.8168,0 -1.485,0.4455 -1.485,0.99 0,0.5445 0.6682,0.99 1.485,0.99 0.8167,0 1.485,-0.4455 1.485,-0.99 z m -7.3717,-2.06626 c 1.0202,-1.65075 -1.2744,-3.54372 -2.6401,-2.178 -1.1424,1.14238 -0.4274,3.25426 1.1018,3.25426 0.4802,0 1.1724,-0.48432 1.5383,-1.07626 z m -239.1383,19.12041 c 0,-1.24003 2.3164,-3.71998 4.7431,-5.07805 3.5084,-1.96342 0.223,-2.07416 -4.8091,-0.16211 -2.8936,1.09947 -5.4504,1.80969 -5.6818,1.57828 -0.6154,-0.61541 5.0454,-5.4042 6.4318,-5.44099 0.6485,-0.0172 1.4761,-0.51189 1.8392,-1.0993 0.7937,-1.28426 -5.6269,-0.44996 -8.5415,1.10989 -1.3357,0.71486 -1.9017,0.69619 -1.9017,-0.0628 0,-0.59427 2.1161,-2.05141 4.7025,-3.2381 l 4.7025,-2.15758 -4.455,-0.5654 -4.455,-0.5654 2.8945,-1.22222 c 2.9345,-1.23915 8.4905,-0.688 8.4905,0.84224 0,2.17661 5.3529,6.91317 8.4747,7.49881 1.8729,0.35141 3.4053,1.00281 3.4053,1.44758 0,0.70727 -9.9223,4.91096 -11.5917,4.91096 -0.3451,0 -1.4421,0.73729 -2.4379,1.63844 -0.9957,0.90113 -1.8104,1.1557 -1.8104,0.56571 z m 15.2461,-4.02417 c 0.274,-0.44338 2.3165,-1.62607 4.5389,-2.62822 3.9697,-1.79009 6.6744,-1.22168 5.1712,1.08677 -0.8036,1.23425 -10.4685,2.76851 -9.7101,1.54145 z m -3.0407,-7.48513 c -1.7268,-0.78304 -3.6451,-2.36836 -4.263,-3.52292 -0.9368,-1.75038 -0.7287,-2.56832 1.2522,-4.92251 1.3066,-1.55283 3.8168,-6.32457 5.5782,-10.60388 2.4845,-6.03621 4.1961,-8.61037 7.6346,-11.48197 l 4.4321,-3.70143 4.6477,2.38371 c 2.5563,1.31105 7.0199,4.80641 9.9192,7.76748 l 5.2716,5.38377 -3.3661,1.98605 c -1.8514,1.09232 -5.343,4.58697 -7.7592,7.76587 -2.4163,3.17891 -5.7923,6.59699 -7.5024,7.59573 -4.2504,2.4824 -11.909,3.13496 -15.8449,1.3501 z m 12.3561,-10.24735 c -0.1835,-0.95288 -0.9897,-1.7325 -1.7915,-1.7325 -0.8019,0 -1.6081,0.77962 -1.7916,1.7325 -0.2341,1.21557 0.3005,1.7325 1.7916,1.7325 1.4911,0 2.0256,-0.51693 1.7915,-1.7325 z m -5.6488,-8.46074 c -1.2706,-1.27066 -2.5592,-0.28859 -1.6185,1.23352 0.3644,0.5896 1.1161,0.79171 1.6704,0.44912 0.6762,-0.4179 0.6591,-0.97164 -0.052,-1.68264 z m 8.8073,-4.71519 c 0,-0.51237 -0.6683,-0.93157 -1.485,-0.93157 -1.531,0 -1.9669,1.16816 -0.8519,2.28308 0.7909,0.79095 2.3369,-0.10314 2.3369,-1.35151 z m 106.0009,20.70351 c -2.4111,-0.44115 -4.7625,-1.18067 -5.2252,-1.64338 -0.4627,-0.46271 -0.2775,-4.98109 0.4116,-10.04085 l 1.2529,-9.19956 10.4074,0.64445 c 5.724,0.35445 12.2437,0.89568 14.488,1.20274 4.0794,0.55811 4.0809,0.55992 4.6939,5.6624 0.3373,2.80727 0.6171,7.16884 0.6218,9.69239 l 0.01,4.58826 -11.1375,-0.0522 c -6.1257,-0.0287 -13.1103,-0.41313 -15.5215,-0.85428 z m 31.1942,-3.07258 c -0.2949,-2.31413 -0.6563,-6.65775 -0.8031,-9.6525 l -0.267,-5.445 9.405,-0.75505 c 5.1727,-0.41526 11.1311,-0.63801 13.2409,-0.495 l 3.836,0.26005 2.8232,7.92 c 1.5529,4.356 2.6448,8.42525 2.4267,9.04279 -0.5712,1.61694 -11.6924,3.33221 -21.6048,3.33221 l -8.5207,0 -0.5362,-4.2075 z m -47.8404,-1.95923 c -3.3991,-1.60149 -10.0816,-3.58308 -14.85,-4.40354 -4.7684,-0.82047 -8.7484,-1.56655 -8.8444,-1.65796 -0.5063,-0.48154 5.9421,-14.50177 6.6698,-14.50177 0.4728,0 5.4418,0.88965 11.0422,1.977 5.6005,1.08735 11.1587,1.97835 12.3517,1.98 1.193,0.002 2.379,0.34262 2.6356,0.75771 0.5426,0.87797 -1.594,17.68821 -2.3296,18.32911 -0.2723,0.23718 -3.2762,-0.87907 -6.6753,-2.48055 z m 83.3766,0.96923 c -0.2511,-0.68063 -1.5535,-4.48608 -2.8941,-8.45655 l -2.4376,-7.21906 2.4947,-0.94844 c 1.372,-0.52166 3.2452,-0.9578 4.1626,-0.96922 0.9174,-0.0114 5.4319,-1.12518 10.0322,-2.475 4.6003,-1.34983 8.8672,-2.45423 9.4821,-2.45423 0.6148,0 3.1917,2.55953 5.7265,5.68786 l 4.6086,5.68787 -4.6856,1.64952 c -2.5772,0.90722 -8.6021,3.69369 -13.3887,6.19212 -8.8917,4.64111 -12.2914,5.49882 -13.1007,3.30513 z m -132.0378,-4.33287 c -7.8209,-2.03923 -14.3836,-5.9662 -22.2945,-13.34061 -3.8577,-3.59613 -8.5733,-7.32522 -10.479,-8.28689 -3.5556,-1.79417 -7.821,-6.13074 -7.8844,-8.01583 -0.019,-0.58229 -1.7716,-3.38537 -3.8933,-6.22909 -2.1216,-2.84371 -4.1629,-6.79769 -4.536,-8.78663 -0.3731,-1.98893 -1.7557,-5.74215 -3.0724,-8.340497 -1.4311,-2.82414 -2.3939,-6.440719 -2.3939,-8.991889 0,-2.3472 -0.6745,-5.2305 -1.4987,-6.407334 -1.4483,-2.067734 -1.376,-2.150066 2.1509,-2.447782 4.8723,-0.411276 5.6919,-2.783078 0.9619,-2.783078 -4.8282,0 -8.232,-1.754891 -9.3701,-4.830923 -0.5278,-1.426742 -2.4513,-6.3581 -4.2744,-10.958574 -1.823,-4.600474 -3.4503,-8.832724 -3.6162,-9.405 -0.1658,-0.572279 1.9503,1.383215 4.7025,4.345539 3.2345,3.481404 5.0041,4.794237 5.0041,3.7125 0,-0.920449 -2.7117,-4.385149 -6.0258,-7.699332 -6.488,-6.488028 -6.8723,-8.104995 -3.0483,-12.827437 l 1.841,-2.273594 4.1116,3.304102 c 3.3672,2.70602 4.1115,3.913097 4.1115,6.668495 0,1.850415 -0.4467,4.199068 -0.9927,5.219227 -1.4602,2.728295 0.8041,3.674837 2.6129,1.092323 2.5144,-3.58975 3.3298,-2.331147 3.3298,5.139674 0,4.300999 0.4809,7.707985 1.188,8.415 1.8728,1.872885 2.9696,1.390198 2.2184,-0.976394 -0.7855,-2.474994 -0.6954,-13.445613 0.1213,-14.767058 0.2987,-0.483371 1.8284,1.564461 3.3993,4.55074 5.4345,10.331141 10.4718,15.177822 13.0723,12.577399 0.66,-0.66 0.3549,-1.191578 -0.9154,-1.594735 -3.3848,-1.074296 -6.9281,-5.849914 -10.1654,-13.700663 -3.0972,-7.510879 -6.5626,-11.627511 -9.7946,-11.634988 -0.8794,-0.002 -3.0689,-0.8999 -4.8655,-1.99525 -3.7586,-2.291629 -3.4741,-4.38466 0.396,-2.913223 1.3775,0.523697 3.7326,0.952172 5.2337,0.952172 4.743,0 11.8653,3.028714 14.5081,6.169558 5.5468,6.591984 10.2815,18.908973 10.3771,26.995442 0.026,2.178 0.6835,5.07375 1.4617,6.435 0.9098,1.591666 1.4293,5.47834 1.4556,10.890004 0.095,19.561286 4.2819,29.844306 17.6195,43.271826 4.7547,4.78675 10.9749,10.03967 13.8227,11.67317 2.8478,1.6335 5.1707,3.19275 5.1619,3.465 -0.01,0.27225 -1.0023,1.67116 -2.2079,3.10868 -2.1781,2.59729 -2.2253,2.60494 -7.5333,1.22095 z m -15.5711,-20.70211 c 0.3364,-0.8767 -0.057,-1.76841 -0.9268,-2.1023 -1.9371,-0.74332 -2.821,0.15046 -2.074,2.09708 0.7515,1.95839 2.2502,1.96099 3.0008,0.005 z m -8.4787,-12.07866 c -0.497,-2.58066 -3.7737,-2.86847 -3.7737,-0.33145 0,1.41678 0.6358,2.05259 2.0526,2.05259 1.4167,0 1.9499,-0.53314 1.7211,-1.72114 z m -8.7237,-1.24886 c 0,-0.5445 -0.6683,-0.99 -1.485,-0.99 -0.8168,0 -1.485,0.4455 -1.485,0.99 0,0.5445 0.6682,0.99 1.485,0.99 0.8167,0 1.485,-0.4455 1.485,-0.99 z m -2.9923,-8.86843 c 0.8307,-1.5522 0.6611,-2.13984 -0.8512,-2.9492 -2.6019,-1.39249 -4.9332,1.17755 -3.0865,3.40263 1.6518,1.99036 2.6941,1.87034 3.9377,-0.45343 z m 2.9923,-10.436567 c 0,-1.62986 -2.7118,-2.70374 -3.5211,-1.39436 -0.3379,0.5468 -0.369,1.63358 -0.069,2.41508 0.6436,1.677017 3.5903,0.83926 3.5903,-1.02072 z m 0.495,-12.374999 c 0,-0.80184 -0.7797,-1.60803 -1.7325,-1.791538 -1.2156,-0.234095 -1.7325,0.300448 -1.7325,1.791538 0,1.49108 0.5169,2.02563 1.7325,1.79153 0.9528,-0.18351 1.7325,-0.9897 1.7325,-1.79153 z m -9.9,-12.870004 c 0,-0.801834 -0.7797,-1.608027 -1.7325,-1.791534 -1.2156,-0.234095 -1.7325,0.300445 -1.7325,1.791534 0,1.491088 0.5169,2.025629 1.7325,1.791534 0.9528,-0.183507 1.7325,-0.989697 1.7325,-1.791534 z m -23.76,-29.7 c 1.0661,-1.724973 -0.5142,-3.196595 -2.0573,-1.915898 -0.7623,0.632634 -1.1418,1.545268 -0.8434,2.028072 0.7222,1.168516 2.1431,1.113568 2.9007,-0.112174 z m 83.5619,103.4375 c -7.3082,-2.58169 -20.6969,-11.42158 -20.6969,-13.66515 0,-0.46129 2.2854,-3.23332 5.0787,-6.16004 l 5.0787,-5.32134 3.4248,1.43097 c 1.8836,0.78703 4.6236,2.43944 6.0889,3.67201 1.4653,1.23258 4.5063,3.07136 6.7578,4.08618 l 4.0937,1.84513 -1.3026,3.59987 c -0.7165,1.97993 -2.1267,5.43798 -3.1338,7.68457 l -1.8312,4.0847 -3.5581,-1.2569 z m 145.7715,-8.31933 c -2.8041,-3.22402 -5.091,-6.23114 -5.0818,-6.6825 0.01,-0.45137 4.6869,-3.42062 10.3951,-6.59833 l 10.3785,-5.77765 6.6824,5.22757 c 3.6753,2.87517 6.9051,5.40209 7.1774,5.61538 1.0029,0.78569 -4.71,4.53262 -14.0896,9.24099 -5.2989,2.66 -9.7985,4.83637 -9.999,4.83637 -0.2005,0 -2.6588,-2.63783 -5.463,-5.86183 z m 40.9987,-0.83434 c -3.7773,-0.94536 -6.7597,-2.16433 -6.6276,-2.70883 0.1322,-0.5445 2.6567,-1.85275 5.6101,-2.90721 l 5.3698,-1.9172 10.6628,2.62373 c 5.8645,1.44305 14.6723,2.94339 19.5728,3.33409 8.2484,0.6576 8.5792,0.7633 4.455,1.42354 -2.4503,0.39226 -10.692,0.97364 -18.315,1.29196 -11.2839,0.47119 -15.1366,0.25929 -20.7279,-1.14008 z m -127.2771,-0.96312 c -3.5393,-0.12886 -10.7787,-0.73584 -16.0875,-1.34887 -9.2118,-1.06369 -9.6525,-1.22281 -9.6525,-3.48473 0,-7.57998 6.9544,-42.053206 8.9298,-44.264986 0.4042,-0.45258 5.7035,-2.55814 11.7763,-4.679023 l 11.0414,-3.856149 10.2513,4.489512 c 15.4544,6.76816 13.9362,3.55904 13.9362,29.457416 0,12.24928 -0.2613,22.5326 -0.5806,22.85183 -0.6534,0.6532 -19.7888,1.19273 -29.6144,0.835 z m 34.5432,-0.69748 c -0.2402,-0.24023 -0.085,-5.2521 0.3451,-11.1375 0.4616,-6.31641 0.3619,-15.52613 -0.2434,-22.47798 -0.564,-6.477487 -0.905,-11.872876 -0.7577,-11.989756 0.1473,-0.11688 4.8994,-2.29223 10.5604,-4.83412 11.5951,-5.206467 10.4194,-5.238939 24.6783,0.6816 l 7.251,3.01073 3.7731,7.504399 c 4.0371,8.029497 9.2289,23.577127 8.3487,25.001387 -0.989,1.60012 -11.719,6.50812 -19.795,9.05435 -10.5265,3.31883 -32.6668,6.68059 -34.1605,5.18689 z m -75.1332,-5.07194 c -12.512,-2.68872 -27.3507,-12.11948 -32.7078,-20.78739 -2.1144,-3.42119 -2.1216,-3.54584 -0.32,-5.57979 3.1536,-3.56039 21.967,-19.471466 26.1321,-22.100765 l 3.9605,-2.500162 10.1301,3.110253 c 5.5715,1.710638 10.4902,3.440138 10.9305,3.843318 0.4402,0.40319 -0.4044,4.91698 -1.8769,10.030659 -1.4725,5.113667 -3.8393,15.052547 -5.2594,22.086407 -1.4201,7.03385 -3.0258,12.8994 -3.5681,13.03456 -0.5423,0.13516 -3.8818,-0.37653 -7.421,-1.13709 z m -48.4806,-6.81408 c -4.2755,-5.19683 -9.5215,-16.62447 -8.4372,-18.37898 0.7347,-1.18868 10.8722,-6.918227 12.2408,-6.918227 0.6143,0 1.117,0.49217 1.117,1.09372 0,1.914677 4.7754,10.685177 8.0085,14.708307 l 3.1209,3.88355 -5.3111,5.50221 c -2.9211,3.02622 -5.5366,5.49918 -5.8122,5.49548 -0.2756,-0.004 -2.4927,-2.42743 -4.9267,-5.38606 z m 204.335,0.2656 c -3.2282,-2.72735 -6.4705,-5.53392 -7.2051,-6.23682 -1.1026,-1.055 0.021,-1.72979 6.4384,-3.86701 4.2757,-1.42394 8.3201,-2.58898 8.9876,-2.58898 0.6675,0 4.6282,2.17829 8.8016,4.84066 l 7.5879,4.84067 -4.8449,2.17274 c -2.6647,1.19501 -6.8814,2.98831 -9.3705,3.98513 l -4.5255,1.81241 -5.8695,-4.9588 z m -21.7381,-6.07071 c -2.8963,-8.21154 -7.7622,-20.280017 -9.791,-24.283477 -1.4054,-2.773539 -2.5553,-5.194299 -2.5553,-5.379449 0,-0.18516 3.1004,-1.83654 6.8898,-3.66972 l 6.8898,-3.333076 7.2177,5.970006 c 3.9697,3.2835 10.0512,9.205089 13.5145,13.159086 l 6.2968,7.1891 -2.8318,1.31595 c -10.4971,4.878 -25.2606,10.0803 -25.6305,9.03158 z m -192.8504,-17.24651 c -0.5643,-0.926557 -1.0643,-8.544206 -0.8339,-12.705796 0.1319,-2.38341 0.9652,-3.4953 3.8805,-5.177824 2.0418,-1.178447 5.1778,-3.097275 6.9687,-4.264062 l 3.2563,-2.121432 -0.2863,9.070038 -0.2862,9.070039 -6.1179,3.44483 c -3.3649,1.89465 -6.3264,3.102547 -6.5812,2.684207 z m 18.7143,-4.473087 c -2.2996,-8.157829 -2.8232,-12.301239 -2.1347,-16.892647 0.628,-4.188248 0.7377,-4.290983 6.7939,-6.367479 3.3856,-1.160804 11.1679,-3.993785 17.294,-6.295515 6.1262,-2.30173 11.2986,-3.999769 11.4943,-3.773415 0.1958,0.226354 0.6142,3.312731 0.9298,6.858618 l 0.574,6.447065 -4.1483,2.357737 c -4.7432,2.695906 -20.5398,15.281836 -24.876,19.819976 -1.5992,1.67374 -3.2574,3.043157 -3.6848,3.043157 -0.4274,0 -1.4364,-2.338877 -2.2422,-5.197497 z M 280.76504,79.2831 c -5.9895,-2.678085 -11.2721,-5.01097 -11.7391,-5.184191 -0.467,-0.173223 -0.5256,-4.197095 -0.1304,-8.94194 l 0.7187,-8.626989 10.0304,0.0075 c 5.5167,0.0042 12.9261,0.462422 16.4654,1.018466 6.6407,1.043308 20.7649,4.782875 21.9629,5.814983 0.5967,0.51405 -1.534,11.789424 -2.3441,12.404723 -1.6521,1.254831 -18.822,7.808698 -21.1038,8.055498 -1.9509,0.21099 -6.7068,-1.349618 -13.86,-4.548027 z m 49.7919,1.170372 c -5.2845,-2.037582 -9.8496,-3.946127 -10.1447,-4.241206 -0.5651,-0.565158 2.2245,-9.752183 3.3439,-11.012302 1.3839,-1.557926 30.3408,11.391795 29.2867,13.097255 -0.7173,1.160679 -10.1609,5.960275 -11.6221,5.906855 -0.6907,-0.0252 -5.5794,-1.71302 -10.8638,-3.750602 z m -93.8469,0.681981 c -7.1902,-1.983689 -15.05,-5.354342 -15.8227,-6.785473 -0.4409,-0.81675 -0.9593,-4.158 -1.152,-7.425 l -0.3503,-5.94 8.415,-1.728372 c 9.7709,-2.006868 35.7481,-3.954957 36.9607,-2.771772 1.1604,1.132187 -0.3438,18.630143 -1.6947,19.714005 -0.6111,0.490304 -4.3675,2.05689 -8.3475,3.481299 -7.5397,2.698334 -12.152,3.071066 -18.0085,1.455313 z m -107.25,-32.195473 c -0.363,-0.363 -0.6465,-1.588125 -0.6299,-2.7225 0.027,-1.844132 0.1345,-1.883426 1.0162,-0.371118 0.5438,0.932917 1.6402,1.440351 2.4449,1.13158 0.9121,-0.350015 1.4588,0.03639 1.4588,1.031118 0,1.569648 -3.0003,2.220689 -4.29,0.93092 z"
     id="path2995"
     style="fill:#000000" />
</svg>
