<?xml version="1.0" encoding="UTF-8" standalone="no"?>
<!-- Created with Inkscape (http://www.inkscape.org/) -->

<svg
   xmlns:dc="http://purl.org/dc/elements/1.1/"
   xmlns:cc="http://creativecommons.org/ns#"
   xmlns:rdf="http://www.w3.org/1999/02/22-rdf-syntax-ns#"
   xmlns:svg="http://www.w3.org/2000/svg"
   xmlns="http://www.w3.org/2000/svg"
   xmlns:xlink="http://www.w3.org/1999/xlink"
   xmlns:sodipodi="http://sodipodi.sourceforge.net/DTD/sodipodi-0.dtd"
   xmlns:inkscape="http://www.inkscape.org/namespaces/inkscape"
   width="569"
   height="687.5"
   id="svg2"
   version="1.1"
   inkscape:version="0.48.5 r10040"
   sodipodi:docname="Šiauliai district.svg">
  <defs
     id="defs4">
    <clipPath
       clipPathUnits="userSpaceOnUse"
       id="clipPath5230">
      <use
         x="0"
         y="0"
         xlink:href="#path4695"
         id="use5232"
         width="1"
         height="1" />
    </clipPath>
  </defs>
  <sodipodi:namedview
     id="base"
     pagecolor="#f6f3f1"
     bordercolor="#666666"
     borderopacity="1.0"
     inkscape:pageopacity="0"
     inkscape:pageshadow="2"
     inkscape:zoom="0.70710678"
     inkscape:cx="414.75743"
     inkscape:cy="299.78094"
     inkscape:document-units="px"
     inkscape:current-layer="layer1"
     showgrid="false"
     showborder="true"
     inkscape:window-width="1920"
     inkscape:window-height="1017"
     inkscape:window-x="-8"
     inkscape:window-y="-8"
     inkscape:window-maximized="1"
     showguides="true"
     inkscape:guide-bbox="true"
     inkscape:snap-global="true"
     inkscape:showpageshadow="false"
     fit-margin-top="0"
     fit-margin-left="0"
     fit-margin-right="0"
     fit-margin-bottom="0"
     inkscape:object-nodes="false"
     inkscape:snap-smooth-nodes="false" />
  <metadata
     id="metadata7">
    <rdf:RDF>
      <cc:Work
         rdf:about="">
        <dc:format>image/svg+xml</dc:format>
        <dc:type
           rdf:resource="http://purl.org/dc/dcmitype/StillImage" />
        <dc:title></dc:title>
      </cc:Work>
    </rdf:RDF>
  </metadata>
  <g
     inkscape:label="Layer 1"
     inkscape:groupmode="layer"
     id="layer1"
     transform="translate(-47,-8.75)">
    <g
       id="g5427">
      <path
         sodipodi:nodetypes="cszscc"
         inkscape:connector-curvature="0"
         id="path2993"
         d="m 49.5,11.23718 c 0,0 0,341.25 0,419.07894 0,77.82896 78,263.42106 282,263.42106 204,0 282,-185.5921 282,-263.42106 0,-77.82894 0,-419.07894 0,-419.07894 z"
         style="color:#000000;fill:#0b4da2;fill-opacity:1;stroke:#000000;stroke-width:5;stroke-linecap:butt;stroke-linejoin:miter;stroke-miterlimit:4;stroke-opacity:1;stroke-dasharray:none;stroke-dashoffset:0;marker:none;visibility:visible;display:inline;overflow:visible;enable-background:accumulate" />
      <g
         id="g5381">
        <path
           style="color:#000000;fill:#d2ab67;stroke:#000000;stroke-width:2;stroke-linecap:butt;stroke-linejoin:miter;stroke-miterlimit:4;stroke-opacity:1;stroke-dasharray:none;stroke-dashoffset:0;marker:none;visibility:visible;display:inline;overflow:visible;enable-background:accumulate;fill-opacity:1"
           d="m 374.875,565 c 0,0 -25.875,-1.5 -40.5,6.75 0,0 13.5,6.375 31.875,4.125 0,0 -20.25,6.375 -28.875,22.875 0,0 21.75,-3.75 30.375,-8.625 0,0 -12.75,11.625 -16.875,25.5 0,0 21,-2.625 28.5,-12.375 0,0 -7.125,12.75 -6.75,24.375 0,0 19.875,-10.875 20.625,-25.125 0.75,-14.25 -18.375,-36.75 -18.375,-36.75 z M 145.25,575.25 c 0,0 15.25,5.875 30.25,7.375 0,0 -25.125,-0.375 -39.75,12.75 0,0 18,6.75 37.125,0.75 0,0 -17.25,6 -24.75,16.875 0,0 22.125,0.75 30.75,-5.625 0,0 -13.5,9.375 -15.75,21.375 0,0 20.625,-3 28.5,-14.25 7.875,-11.25 -2.1875,-40.4375 -2.1875,-40.4375 C 166.25,561.75 145.25,575.25 145.25,575.25 z M 110.48543,166.18552 c 0,0 18.03123,6.8943 22.27387,20.15255 4.24264,13.25825 -13.78858,44.54773 -13.78858,44.54773 0,0 -9.54595,2.65165 -26.516508,-1.06066 0,0 5.833631,-7.95496 21.743538,-9.01562 0,0 -12.1976,-2.12132 -25.455849,-14.84924 0,0 11.136932,-5.3033 26.516509,1.06066 -0.53033,0.53033 -13.25826,-11.66726 -20.682878,-21.2132 0,0 15.909898,-2.65165 25.455848,6.89429 0,0 -9.01562,-15.90991 -9.54595,-26.51651 z M 142.125,295.5 c 0,-0.75 -3,-10.5 -21.375,-11.625 l 10.875,19.5 c 0,0 -11.25,-6.375 -25.125,-6 l 17.625,22.875 c 0,0 -14.625,-7.125 -28.125,-3.75 0,0 18,13.5 29.625,15.375 0,0 -16.875,1.125 -26.25,9.75 0,0 24,6 34.875,1.125 10.875,-4.875 7.875,-47.25 7.875,-47.25 z"
           id="path5320"
           inkscape:connector-curvature="0"
           transform="translate(47,8.75)"
           sodipodi:nodetypes="ccccccccscccccccccscccsccccccccccccccccsc" />
        <g
           id="g5339">
          <path
             sodipodi:nodetypes="csssssssssssc"
             transform="translate(47,8.75)"
             inkscape:connector-curvature="0"
             id="path5322"
             d="m 294.68675,394.40424 c 0,0 -49.67425,-10.96016 -80.4334,31.46625 -30.75914,42.42641 -29.69848,76.36753 -24.39518,93.3381 5.3033,16.97056 25.63262,19.79899 38.36054,19.79899 12.72793,0 16.44024,3.71231 12.1976,10.07627 -4.24264,6.36396 -19.71321,14.72056 -42.5174,19.49353 -22.80419,4.77297 -28.01651,17.62957 -23.77386,30.3575 4.24264,12.72792 24.92551,23.86485 42.4264,17.50089 17.50089,-6.36396 14.05525,-15.12887 45.07806,-33.19113 31.66079,-18.43371 42.95674,-14.53858 41.89608,-30.97881 C 302.46493,535.8256 298.75,513.25 295,499 c -3.75,-14.25 5.25,-54 42.75,-67.5 37.5,-13.5 -43.06325,-37.09576 -43.06325,-37.09576 z M 161.5,204.25 c 0,0 -14.25,-30.75 -33,-21.75 -18.75,9 -20.25,41.25 -2.25,60.75 18,19.5 111.75,39 118.5,39.75 6.75,0.75 7.5,-69 7.5,-69 0,0 -19.5,-1.5 -44.25,2.25 -24.75,3.75 -36,0.75 -46.5,-12 z"
             style="color:#000000;fill:#e7e7e8;stroke:#000000;stroke-width:2;stroke-linecap:butt;stroke-linejoin:miter;stroke-miterlimit:4;stroke-opacity:1;stroke-dasharray:none;stroke-dashoffset:0;marker:none;visibility:visible;display:inline;overflow:visible;enable-background:accumulate;fill-opacity:1" />
          <path
             style="font-size:medium;font-style:normal;font-variant:normal;font-weight:normal;font-stretch:normal;text-indent:0;text-align:start;text-decoration:none;line-height:normal;letter-spacing:normal;word-spacing:normal;text-transform:none;direction:ltr;block-progression:tb;writing-mode:lr-tb;text-anchor:start;baseline-shift:baseline;color:#000000;fill:#000000;fill-opacity:1;stroke:none;stroke-width:2;marker:none;visibility:visible;display:inline;overflow:visible;enable-background:accumulate;font-family:Sans;-inkscape-font-specification:Sans"
             d="m 330.78125,531.46875 c -3.1405,-8.25503 -8.73799,-19.47109 -18.9375,-32.5 2.86337,0.39863 9.15788,1.50492 14.25,6.03125 l 1.59375,1.40625 0.0625,-2.125 c 0,0 0.19491,-5.30192 -0.46875,-11.84375 -0.56506,-5.5699 -1.80861,-11.94777 -4.34375,-16.9375 0.85239,0.34018 1.03758,0.36254 2.25,0.96875 2.55685,1.27843 5.41787,3.14243 6.71875,5.09375 l 1.5625,2.3125 0.28125,-2.78125 c 0,0 1.65917,-14.47528 -5.4375,-23.9375 -6.414,-8.552 0.35773,-13.91595 2.9375,-14.40625 -4.92023,-1.9903 -11.6485,6.14575 -4.5625,15.59375 4.9302,6.5736 5.2942,16.23762 5.1875,20.40625 -1.71787,-1.66031 -3.79887,-3.08694 -5.8125,-4.09375 -2.69315,-1.34657 -5,-2.09375 -5,-2.09375 l -2.84375,-0.96875 1.71875,2.46875 c 3.17388,4.58449 4.69491,12.16683 5.34375,18.5625 0.46133,4.54738 0.48415,7.72979 0.46875,9.625 -7.00473,-5.10732 -16.1875,-5.75 -16.1875,-5.75 l -2.28125,-0.15625 1.4375,1.78125 c 11.18126,13.79022 16.93791,25.48947 20.1875,34.03125 1.6248,4.27089 4.13679,13.76587 5.82813,16.0625 0.21477,-2.85962 -2.29668,-12.39589 -3.95313,-16.75 z"
             id="path5324"
             inkscape:connector-curvature="0"
             sodipodi:nodetypes="sccccscscccscscscccsccccscs" />
        </g>
        <path
           style="color:#000000;fill:#d71920;fill-opacity:1;stroke:#000000;stroke-width:2;stroke-linecap:butt;stroke-linejoin:miter;stroke-miterlimit:4;stroke-opacity:1;stroke-dasharray:none;stroke-dashoffset:0;marker:none;visibility:visible;display:inline;overflow:visible;enable-background:accumulate"
           d="m 190.125,107.5 c -4.21384,8.06348 4,28.13833 31.125,28.5 27.125,0.36167 31.875,-13.5 51,-13.125 l 9,0 c 0,0 -6.75,-11.25 -28.875,-8.25 -22.125,3 -27.3173,7.96947 -41.25,5.25 -9.8724,-1.92696 -15.22431,-5.19106 -21,-12.375 z"
           id="path5318"
           inkscape:connector-curvature="0"
           transform="translate(47,8.75)"
           sodipodi:nodetypes="csccssc" />
        <g
           id="g5307">
          <path
             sodipodi:nodetypes="cscscscscsssccccccczccccccscssscsssssccccscc"
             transform="translate(47,8.75)"
             inkscape:connector-curvature="0"
             id="path5305"
             d="m 441.25,190 c 0,0 15,-36.75 0.75,-69.75 -14.25,-33.000001 -34.5,-52.500001 -34.5,-52.500001 0,0 13.75887,-4.625288 11.63755,-19.47453 -2.12133,-14.849242 -20.15255,-10.606602 -25.98618,-0.53033 0,0 6.89429,-19.622213 -7.42462,-21.743534 -14.31891,-2.12132 -17.50089,15.909903 -17.50089,15.909903 0,0 -20.15255,-8.485281 -43.48707,-8.485281 -23.33452,0 -37.12311,19.091883 -37.12311,19.091883 0,0 -20.15254,0 -30.75914,0 -10.6066,0 -15.39023,1.863961 -16.75089,15.470562 -1.36066,13.606602 6.70204,24.686614 14.87589,29.323485 8.64061,4.901653 17.25457,3.465993 17.25457,3.465993 0,0 1.06066,6.36396 7.42462,9.54594 0,0 2.75977,-4.90359 3.13477,-10.1536 0,0 3.7045,4.45451 7.0795,7.07951 0,0 3.375,-2.31434 4.125,-9.439341 0,0 3.375,4.564341 6.375,6.439341 0,0 3,-3 3,-9.000001 0,0 9.85508,-0.971085 15.375,8.250001 5.51992,9.22109 -3.95771,15.98618 -14.625,16.5 0,0 0,-4.5 -4.125,-7.125 0,0 -3.96967,2.04917 -5.78033,6.92417 0,0 -2.35984,-4.34467 -5.84467,-6.17417 0,0 -4.67417,3 -6.54917,9 0,0 -5.78902,0.33862 -11.62265,0.33862 0,0 1.04682,18.66138 14.92182,21.28638 13.875,2.625 21,-15.375 46.125,-19.125 0,0 2.875,30.63235 -10.875,32.25 -13.75,1.61765 -33.28965,5.80532 -50.79054,23.83654 -17.50089,18.03123 -26.5165,47.72971 -27.57716,79.54952 -1.06066,31.8198 11.13693,131.16831 95.98974,170.41273 0,0 -3.18198,49.85103 14.84924,73.18555 18.03123,23.33453 60.45763,9.54595 71.06424,15.90991 10.6066,6.36396 5.3033,20.15254 -23.33453,28.63782 C 371.93817,557.39235 360.75,573 368.25,591 c 7.5,18 34.5,22.5 54,0.75 19.5,-21.75 70.5,-80.25 70.5,-80.25 0,0 -26.25,-30.75 -47.25,-45.75 0,0 18,-36.75 9,-75.75 6.52099,3.92366 7.79907,12.84969 16.5,10.875 0,0 -3,-22.125 -22.5,-37.875 -19.5,-15.75 -24,-114 -24,-114 z"
             style="color:#000000;fill:#e7e7e8;stroke:#000000;stroke-width:2;stroke-linecap:butt;stroke-linejoin:miter;stroke-miterlimit:4;stroke-opacity:1;stroke-dasharray:none;stroke-dashoffset:0;marker:none;visibility:visible;display:inline;overflow:visible;enable-background:accumulate;fill-opacity:1" />
        </g>
        <g
           id="g5355">
          <path
             transform="translate(47,8.75)"
             inkscape:connector-curvature="0"
             id="path5351"
             d="M 184.55487,68.428013 C 135.7645,55.700091 44.547727,51.45745 44.547727,51.45745 c -12.727922,47.729708 2.121321,99.70206 2.121321,99.70206 0,0 47.729707,-53.033013 107.126682,-50.91169 C 153.79573,100.24782 153,252.5 141,308 c -12,55.5 -43.5,103.5 -40.5,105 3,1.5 33,15 33,15 0,0 31.5,-46.5 39,-129 7.5,-82.5 12.05487,-230.571987 12.05487,-230.571987 z"
             style="color:#000000;fill:#d2ab67;stroke:#000000;stroke-width:2;stroke-linecap:butt;stroke-linejoin:miter;stroke-miterlimit:4;stroke-opacity:1;stroke-dasharray:none;stroke-dashoffset:0;marker:none;visibility:visible;display:inline;overflow:visible;enable-background:accumulate;fill-opacity:1" />
          <path
             transform="translate(47,8.75)"
             inkscape:connector-curvature="0"
             id="path5353"
             d="M 152.91184,143.73488 182.08,144.79554"
             style="color:#000000;fill:none;stroke:#000000;stroke-width:2;stroke-linecap:butt;stroke-linejoin:miter;stroke-miterlimit:4;stroke-opacity:1;stroke-dasharray:none;stroke-dashoffset:0;marker:none;visibility:visible;display:inline;overflow:visible;enable-background:accumulate" />
        </g>
        <path
           style="color:#000000;fill:#e7e7e8;stroke:#000000;stroke-width:2;stroke-linecap:butt;stroke-linejoin:miter;stroke-miterlimit:4;stroke-opacity:1;stroke-dasharray:none;stroke-dashoffset:0;marker:none;visibility:visible;display:inline;overflow:visible;enable-background:accumulate;fill-opacity:1"
           d="m 130.58468,345.92579 c -11.41733,-19.4629 -8.43198,-51.57716 11.19023,-53.16815 19.62221,-1.59099 27.57716,16.44023 47.72971,17.50089 20.15254,1.06066 55.15433,-21.2132 64.16994,-43.48707 9.01561,-22.27386 20.68287,-32.88046 33.94112,-35.00178 13.25826,-2.12132 22.8042,92.80776 22.8042,92.80776 0,0 -29.41988,28.92256 -93.91988,36.42256 -64.5,7.5 -74.49798,4.38869 -85.91532,-15.07421 z"
           id="path5349"
           inkscape:connector-curvature="0"
           transform="translate(47,8.75)"
           sodipodi:nodetypes="zsssscsz" />
        <g
           id="g5261"
           transform="matrix(1.0196845,0,0,1.0196845,-8.3370356,-3.7827552)">
          <path
             style="color:#000000;fill:#000000;stroke:none;stroke-width:1.96139109;marker:none;visibility:visible;display:inline;overflow:visible;enable-background:accumulate"
             d="m 327.45363,193.16497 c 0,40.45233 0.0236,89.79016 27.15325,135.30553 27.12964,45.51537 68.92748,65.03056 68.92748,65.03056 0,0 41.79785,-19.51519 68.92749,-65.03056 27.12962,-45.51537 27.15325,-94.8532 27.15325,-135.30553 z"
             id="path5303"
             inkscape:connector-curvature="0"
             sodipodi:nodetypes="czczcc" />
          <g
             clip-path="url(#clipPath5230)"
             id="g5197"
             inkscape:groupmode="maskhelper">
            <g
               id="g4761"
               transform="matrix(1.0117451,0,0,1.0117451,-4.2230276,1.2169371)">
              <g
                 transform="matrix(0.96296296,0,0,0.96296296,11.967593,7.5555558)"
                 id="g4750">
                <path
                   style="color:#000000;fill:#d2ab67;fill-opacity:1;stroke:none;stroke-width:2;marker:none;visibility:visible;display:inline;overflow:visible;enable-background:accumulate"
                   d="m 377.5,216.75 0,13.875 -13.875,0 0,12.75 13.875,0 0,13.875 12.75,0 0,-13.875 13.875,0 0,-12.75 -13.875,0 0,-13.875 -12.75,0 z"
                   id="rect4699"
                   inkscape:connector-curvature="0" />
              </g>
              <use
                 height="687.5"
                 width="569"
                 transform="translate(-39,-12.277778)"
                 id="use4753"
                 xlink:href="#g4750"
                 y="0"
                 x="0" />
              <use
                 x="0"
                 y="0"
                 xlink:href="#g4750"
                 id="use4755"
                 transform="translate(39,12.277778)"
                 width="569"
                 height="687.5" />
              <use
                 height="687.5"
                 width="569"
                 transform="translate(78,24.555556)"
                 id="use4757"
                 xlink:href="#g4750"
                 y="0"
                 x="0" />
              <use
                 x="0"
                 y="0"
                 xlink:href="#g4750"
                 id="use4759"
                 transform="translate(117,36.833334)"
                 width="569"
                 height="687.5" />
              <use
                 height="687.5"
                 width="569"
                 transform="translate(51.277778,-26.722222)"
                 id="use4769"
                 xlink:href="#g4750"
                 y="0"
                 x="0" />
              <use
                 x="0"
                 y="0"
                 xlink:href="#g4750"
                 id="use4771"
                 transform="translate(90.277778,-14.444444)"
                 width="569"
                 height="687.5" />
              <use
                 height="687.5"
                 width="569"
                 transform="translate(129.27778,-2.1666659)"
                 id="use4773"
                 xlink:href="#g4750"
                 y="0"
                 x="0" />
              <use
                 height="687.5"
                 width="569"
                 transform="translate(12.277778,-39)"
                 id="use4775"
                 xlink:href="#g4750"
                 y="0"
                 x="0" />
              <use
                 x="0"
                 y="0"
                 xlink:href="#g4750"
                 id="use4777"
                 transform="translate(-26.722222,-51.277778)"
                 width="569"
                 height="687.5" />
              <use
                 height="687.5"
                 width="569"
                 transform="translate(102.55556,-53.444444)"
                 id="use4779"
                 xlink:href="#g4750"
                 y="0"
                 x="0" />
              <use
                 x="0"
                 y="0"
                 xlink:href="#g4750"
                 id="use4781"
                 transform="translate(141.55556,-41.166666)"
                 width="569"
                 height="687.5" />
              <use
                 x="0"
                 y="0"
                 xlink:href="#g4750"
                 id="use4783"
                 transform="translate(26.722222,51.277778)"
                 width="569"
                 height="687.5" />
              <use
                 height="687.5"
                 width="569"
                 transform="translate(65.722222,63.555556)"
                 id="use4785"
                 xlink:href="#g4750"
                 y="0"
                 x="0" />
              <use
                 x="0"
                 y="0"
                 xlink:href="#g4750"
                 id="use4787"
                 transform="translate(104.72222,75.833334)"
                 width="569"
                 height="687.5" />
              <use
                 x="0"
                 y="0"
                 xlink:href="#g4750"
                 id="use4789"
                 transform="translate(-12.277778,39)"
                 width="569"
                 height="687.5" />
              <use
                 height="687.5"
                 width="569"
                 transform="translate(-51.277778,26.722222)"
                 id="use4791"
                 xlink:href="#g4750"
                 y="0"
                 x="0" />
              <use
                 height="687.5"
                 width="569"
                 transform="translate(14.444444,90.277778)"
                 id="use4793"
                 xlink:href="#g4750"
                 y="0"
                 x="0" />
              <use
                 x="0"
                 y="0"
                 xlink:href="#g4750"
                 id="use4795"
                 transform="translate(53.444444,102.55556)"
                 width="569"
                 height="687.5" />
              <use
                 height="687.5"
                 width="569"
                 transform="translate(92.444442,114.83333)"
                 id="use4797"
                 xlink:href="#g4750"
                 y="0"
                 x="0" />
              <use
                 height="687.5"
                 width="569"
                 transform="translate(-24.555556,78)"
                 id="use4799"
                 xlink:href="#g4750"
                 y="0"
                 x="0" />
              <use
                 x="0"
                 y="0"
                 xlink:href="#g4750"
                 id="use4801"
                 transform="translate(2.1666663,129.27778)"
                 width="569"
                 height="687.5" />
              <use
                 height="687.5"
                 width="569"
                 transform="translate(41.166666,141.55556)"
                 id="use4803"
                 xlink:href="#g4750"
                 y="0"
                 x="0" />
              <use
                 height="687.5"
                 width="569"
                 transform="translate(26.722222,51.277778)"
                 id="use5028"
                 xlink:href="#g4750"
                 y="0"
                 x="0" />
            </g>
          </g>
          <path
             sodipodi:nodetypes="czczcc"
             inkscape:connector-curvature="0"
             id="path4695"
             d="m 327.45363,193.16497 c 0,40.45233 0.0236,89.79016 27.15325,135.30553 27.12964,45.51537 68.92748,65.03056 68.92748,65.03056 0,0 41.79785,-19.51519 68.92749,-65.03056 27.12962,-45.51537 27.15325,-94.8532 27.15325,-135.30553 z"
             style="color:#000000;fill:none;stroke:#000000;stroke-width:1.96139109;stroke-linecap:butt;stroke-linejoin:miter;stroke-miterlimit:4;stroke-opacity:1;stroke-dasharray:none;stroke-dashoffset:0;marker:none;visibility:visible;display:inline;overflow:visible;enable-background:accumulate" />
        </g>
        <path
           style="color:#000000;fill:none;stroke:#000000;stroke-width:2;stroke-linecap:butt;stroke-linejoin:miter;stroke-miterlimit:4;stroke-opacity:1;stroke-dasharray:none;stroke-dashoffset:0;marker:none;visibility:visible;display:inline;overflow:visible;enable-background:accumulate"
           d="m 249.625,92.749999 c 0,0 0.375,-9.375 9.375,-19.5 9,-10.125 6.375,-21 6.375,-21 m 6.72853,48.616541 c 0,0 6.77779,-1.38741 15.7934,-3.773895 9.01561,-2.386486 16.02641,-1.794575 16.02641,-1.794575 m -22.49484,27.3341 c 0,0 14.71666,-0.59662 24.13002,-2.71795 m -3.88909,-58.557276 c 0,0 -2.38648,11.667262 9.01561,11.667262 11.4021,0 9.81111,-14.318912 2.12132,-15.909903"
           id="path5310"
           inkscape:connector-curvature="0"
           transform="translate(47,8.75)"
           sodipodi:nodetypes="csccsccc" />
        <path
           style="font-size:medium;font-style:normal;font-variant:normal;font-weight:normal;font-stretch:normal;text-indent:0;text-align:start;text-decoration:none;line-height:normal;letter-spacing:normal;word-spacing:normal;text-transform:none;direction:ltr;block-progression:tb;writing-mode:lr-tb;text-anchor:start;baseline-shift:baseline;color:#000000;fill:#000000;fill-opacity:1;stroke:none;stroke-width:2;marker:none;visibility:visible;display:inline;overflow:visible;enable-background:accumulate;font-family:Sans;-inkscape-font-specification:Sans"
           d="M 442.16291,55.087087 439.875,54.59375 c -1.41509,2.288628 -2.04394,5.486687 -1.84375,7.734375 1.52976,-2.002684 2.91548,-5.082403 4.13166,-7.241038 z M 358.0625,65.59375 c -10.96403,5.482014 -21.85938,5.3125 -21.85938,5.3125 0,0 4.03895,4.919636 22.73438,-3.5 11.22536,-5.055432 21.34103,-5.139191 22.73437,-5.875 -6.85494,-1.09615 -14.99298,-0.245693 -23.60937,4.0625 z m 54.84375,79.53125 c -11.99225,-6.59651 -20.0227,-16.46565 -34.8125,-12.09375 l 0.5625,1.9375 c 14.37249,-3.30022 19.88047,3.99604 35.5625,13.375 1.8446,-6.68161 -0.95131,-13.56015 -5,-17.53125 1.42407,0.3177 1.64222,0.24939 3.71875,0.90625 6.10576,2.2829 10.79581,4.52685 15.09375,8.65625 -0.5465,-13.69032 -5.76118,-23.2687 -12.75005,-29.9375 8.07975,1.03999 12.83284,1.24661 19.90625,0.78125 -9.78668,-10.22973 -15.089,-15.582359 -18.18748,-30.46875 -2.21743,13.49813 9.66708,24.93993 13.37503,28.65625 -9.976,0.30717 -20.82399,-1.4205 -20.82399,-1.4205 12.10347,10.40621 16.23515,23.56633 16.48024,28.01425 -3.76471,-2.91543 -8.44026,-4.91318 -12.46875,-6.1875 -4.66847,-1.47676 -8.75,-1.14063 -8.75,-1.14063 4.5921,4.47696 8.85851,9.97642 8.09375,16.45313 z M 509.0312,531.78125 C 512.7871,527.81754 515.57626,524.81362 516,521 c 0.19334,-1.74002 0.22853,-3.30941 -0.1875,-4.8125 -0.41603,-1.50309 -1.31602,-2.9051 -2.78125,-4.21875 -2.93046,-2.62731 -8.12957,-5.14558 -17.53125,-8.90625 -15.1479,-6.05916 -25.75566,-20.17728 -29.125,-25.09375 12.55714,4.05875 21.4375,2.625 21.4375,2.625 l 1.375,-0.25 L 488.5,479.125 c -6.84255,-11.81894 -20.92124,-23.20721 -26.25,-27.28125 3.60122,0.0781 8.02693,0.7321 12.15625,1.71875 5.25335,1.25523 9.53125,2.625 9.53125,2.625 l 1.625,0.53125 -0.34375,-1.65625 c -2.12896,-10.83833 -9.7544,-20.42776 -16.8125,-27.34375 -4.77711,-4.68092 -8.4996,-7.49687 -10.9375,-9.25 3.4527,0.10566 7.38132,0.72496 10.875,1.6875 4.53852,1.25041 8.03125,2.65625 8.03125,2.65625 l 1.65625,0.65625 -0.28125,-1.75 C 473.92002,396.11388 456.5,391.5 456.5,391.5 c 0,0 15.99131,10.25675 18.8125,28.84375 -1.13849,-0.42875 -2.83819,-1.09349 -6.46875,-2.09375 -4.64898,-1.28084 -10.2963,-2.47806 -14.71875,-1.875 l -2.65625,0.375 2.25,1.46875 c 0,0 6.3706,4.16599 13.28125,10.9375 6.53326,6.40172 13.32562,15.13752 15.75,24.65625 -1.2257,-0.38656 -3.53253,-1.18117 -7.875,-2.21875 -5.3404,-1.27602 -11.63657,-2.4537 -15.90625,-1.84375 l -2.4375,0.375 2,1.4375 c 0,0 18.85282,13.78493 27.34375,27.28125 -3.1417,0.28989 -11.03924,0.4387 -21.53125,-3.53125 l -2.71875,-1.03125 1.53125,2.5 c 0,0 12.40833,20.48208 31.59375,28.15625 9.34832,3.73933 14.46171,6.28356 16.96875,8.53125 1.25352,1.12385 1.84572,2.12809 2.15625,3.25 0.31053,1.12191 0.30666,2.39627 0.125,4.03125 -0.32626,2.93638 -2.69921,5.71107 -6.4375,9.65625 -7.98003,8.42226 -23.28277,28.25366 -22.51563,37.51562 5.11072,-13.68737 14.4167,-26.05053 23.98433,-36.14062 z m -124.5937,-92.25 1.25,2.75 c 1.54967,-13.56978 2.15437,-31.64159 10.8125,-42.15625 -8.50229,4.50227 -11.25629,24.50063 -12.0625,39.40625 z"
           id="path5312"
           inkscape:connector-curvature="0"
           sodipodi:nodetypes="ccccscscscccccccccccccscccsssscccccscccscscccccscccscscccccccssssccccccc" />
        <path
           sodipodi:type="arc"
           style="color:#000000;fill:#000000;stroke:none;stroke-width:2;marker:none;visibility:visible;display:inline;overflow:visible;enable-background:accumulate"
           id="path5316"
           sodipodi:cx="311"
           sodipodi:cy="64.125"
           sodipodi:rx="4.125"
           sodipodi:ry="4.125"
           d="m 315.125,64.125 a 4.125,4.125 0 1 1 -8.25,0 4.125,4.125 0 1 1 8.25,0 z"
           transform="translate(44.75,8.75)" />
      </g>
    </g>
  </g>
</svg>
