<?xml version="1.0" encoding="utf-8"?>
<!-- Generator: Adobe Illustrator 15.0.1, SVG Export Plug-In . SVG Version: 6.00 Build 0)  -->
<!DOCTYPE svg PUBLIC "-//W3C//DTD SVG 1.1//EN" "http://www.w3.org/Graphics/SVG/1.1/DTD/svg11.dtd">
<svg version="1.1" id="Layer_1" xmlns="http://www.w3.org/2000/svg" xmlns:xlink="http://www.w3.org/1999/xlink" x="0px" y="0px"
	 width="560px" height="672px" viewBox="0 0 560 672" enable-background="new 0 0 560 672" xml:space="preserve">
<path stroke="#000000" stroke-width="0.0938" d="M9.8,10.2c180.8,0.1,361.601,0.1,542.4,0c0.1,124.3,0,248.5,0,372.8
	c0,9.399,0.3,18.699-0.3,28.1c-2.4,42.2-15,83.8-36.4,120.4c-33.7,58.199-89.9,103-154.3,122.8c-44.8,13.899-93.2,15.8-139,5.6
	c-37.4-8.3-72.9-24.6-103.5-47.6c-45.2-33.7-79.5-81.8-96.4-135.7C13.8,450,9.8,422,9.7,394C9.8,266.1,9.7,138.2,9.8,10.2"/>
<path fill="#D1D2D4" stroke="#D1D2D4" stroke-width="0.0938" d="M281.8,19.6c87.101-0.2,174.3-0.1,261.4-0.1
	c0.1,124.8,0,249.7,0.1,374.5c0,42.699-10.3,85.3-30.3,123c-17.7,33.5-42.7,63.199-72.8,86.199c-45,34.7-101.601,54-158.4,54
	c-0.1-0.5-0.3-1.6-0.399-2.199c18.6-0.601,37.199-2.2,55.3-6.4c67.1-15,127.2-58,163.899-116c23.2-36.4,37.101-78.6,39.7-121.7
	c0.7-8.3,0.4-16.6,0.5-24.899c0-121.3-0.1-242.7,0-364c-78,0-155.899,0-233.8,0c-8.5-0.101-17.1,0.2-25.6-0.2
	C281.5,21.3,281.7,20.1,281.8,19.6z"/>
<path fill="#00A650" stroke="#00A650" stroke-width="0.0938" d="M280.988,54.804V18.7c0,0-177.188-0.101-262.688,0.199
	c0,125,0,250.101,0,375.101c0,17.399,1.5,34.699,4.9,51.8c8,41.3,26.3,80.5,52.7,113.3c19.2,23.9,42.4,44.5,68.6,60.4
	c36,22,77.3,35.1,119.3,37.8c5.729,0.286,17.188,0.326,17.188,0.326V129.8c-23.696-0.2-47.392,0.1-71.088-0.2
	c-12.6-0.2-26-3.1-35.3-12.2c-5.7-5.3-8.7-12.699-9.7-20.199c13.8-0.5,27.7,0,41.6-0.301c0-3,0.1-6,0.1-9c5.8-3.3,11.3-7.1,17.4-10
	c1.4-0.899,2.9,0.2,4.2,0.801c3.3,2,6.5,4.199,9.8,6.199c4.6-2.699,9.2-5.399,13.8-8c5.5,3.301,10.9,6.5,16.4,9.5
	c0.2-2.699,0.3-5.5,0.4-8.3c2-0.1,4.1-0.3,6.2-0.399c-3.1-3.7-6.3-8.4-4.7-13.5C271.199,59.005,276.391,56.505,280.988,54.804z
	 M280.9,578.895c-8.968-0.398-18.033-1.003-26.8-3.095c-20.1-4.3-38.8-14.2-54.6-27.3c-23-18.9-40.1-43.7-54.6-69.301
	c-3-5.6-7.1-10.5-9.2-16.5c7.1-0.699,14.2-0.399,21.3-0.399c16.7-0.101,33.4,0.1,50-0.101c3,0,6,0.5,8.9,1.2
	c-2.2,5.7-4.4,11.5-4.9,17.601c-1.5,16.1,4,32.899,15.1,44.699c-0.1-4.6-0.5-9.199-0.1-13.699c1-13.101,6.9-25.601,16.1-34.9
	c10.2-10.3,24.4-16.1,38.8-16.5V578.895z M266.7,143.9c0.1,99,0,198,0.1,297c-66.7,0.101-133.3,0.101-200,0
	c12.7-25.399,24.2-51.399,34.1-78c13.3-35.8,23.6-73,27.9-111c4.2-35.899,4.8-72.1,1.9-108.1C176,143.7,221.4,143.6,266.7,143.9z
	 M269.4,87.3c2.5,0,4.9,0,7.3-0.1c0,3.3,0,6.5,0.1,9.8c-2.5,0-4.9,0-7.4-0.101C269.5,93.7,269.5,90.5,269.4,87.3z M215.9,93.2
	c2.8-2,5.9-3.7,9.1-4.7c3.4,0.899,6.2,3,9.2,4.6c0,1.3,0,2.7,0,4.101c-6.3,0.1-12.6,0.199-18.9-0.101
	C215.5,95.8,215.7,94.5,215.9,93.2z M242.3,93.2c3.1-1.601,6-3.9,9.5-4.7c3.3,1,6,3.1,8.9,4.7c0.1,1.3,0.1,2.6,0.1,3.899
	c-6.2,0.3-12.4,0.3-18.6,0C242.2,95.8,242.2,94.5,242.3,93.2z M242.3,106.4c6.1,0.101,12.3,0.101,18.4,0c0,2.801,0,5.601,0.1,8.301
	c-6.2,0.1-12.4,0.1-18.6,0C242.3,112,242.3,109.2,242.3,106.4z M215.4,106.8c6.3-0.5,12.6-0.4,18.8-0.2c0,2.7,0,5.4,0,8.101
	c-6.3,0.1-12.5,0.1-18.8,0C215.5,112.1,215.5,109.4,215.4,106.8z M269.6,106.5c2.8,0,5.6,0,8.4,0.1c0,3.8,0,7.7,0,11.601
	c-2.8,0-5.6,0-8.4,0C269.5,114.3,269.5,110.4,269.6,106.5z M257.2,498.199c4.4-8.8,13.9-14.5,23.8-14.6c0,17.8,0.1,35.7-0.1,53.6
	c-6.7-0.6-13.601-2.699-18.4-7.699C254.1,521.699,251.8,508.3,257.2,498.199z"/>
<path fill="#D1D2D4" stroke="#D1D2D4" stroke-width="0.0938" d="M273.7,70.3c-2.6-5.3,2.5-12,8.3-11.5c5.4,0.2,9.7,6.5,7.3,11.6
	c-0.8,2.7-3.6,3.9-5.7,5.4c-0.5,1.6-0.3,3.4-0.5,5.1C285.9,81,288.7,81,291.5,81c0,0.8,0,2.3,0,3c-2.8,0-5.5,0-8.3,0
	c0.1,5.399,0.1,10.8,0,16.3c4.8-0.1,9.5,0,14.3-0.1c0.2-3.7,0.3-7.5,0.3-11.2c5-2.5,9.9-5,14.9-7.5c4.399,2.5,8.7,4.899,13.2,7.1
	c4.3-2.5,8.699-4.899,13.1-7.399c4.7,2.699,9.4,5.5,14.2,8.1c0,3.7,0.1,7.3,0,11c13.399,0,26.8-0.1,40.2,0
	c-1.9,7.9-6.5,15.2-13.5,19.6c-8.2,5.4-18.301,6.5-27.9,6.601c-44.7,0-89.3,0-134,0c-12.1,0-24.9-0.5-35.4-7
	c-7.1-4.2-12-11.3-14-19.2c13.8-0.1,27.5,0,41.2-0.1c-0.1-3.4-0.1-6.9-0.1-10.301c5.2-3,10.4-6,15.5-9c4.3,2.601,8.6,5.301,12.9,8
	c4.5-2.699,9.1-5.5,13.7-8.199c4.8,2.899,9.6,5.8,14.4,8.6c0,3.6,0.1,7.3,0,10.9c4.6,0,9.2,0.1,13.8,0c0-5.4,0-10.801,0-16.2
	c-2.7,0-5.5,0-8.2,0c0-0.7,0-2.2,0-3c2.7,0,5.4,0,8.2,0c0-1.7,0-3.4,0-5.101C277.5,74.6,274.6,73.2,273.7,70.3 M212.2,91.1
	c0.1,3.101,0.1,6.3,0,9.4c8.5,0,16.9,0,25.3,0c0-3.2,0-6.3,0-9.4c-4.2-2.2-8.2-4.6-12.4-6.8C220.8,86.6,216.5,88.8,212.2,91.1
	 M239,91c0,3.2,0,6.3,0,9.5c8.3,0,16.7,0,25,0c0-3.101,0-6.3,0-9.5c-4.1-2.101-8.1-4.4-12.2-6.601C247.5,86.5,243.2,88.7,239,91
	 M300,91c0,3.2,0,6.399,0,9.5c8.3,0,16.7,0,25,0c0-3.101,0-6.3,0-9.5c-4-2.2-8.1-4.4-12.1-6.601C308.5,86.5,304.3,88.8,300,91
	 M326.5,91.1c0,3.101,0,6.3,0,9.4c8.3,0,16.7,0,25,0c0-3,0.1-6.101,0-9.101c-3.8-2.8-8.1-5.1-12.4-6.899
	C334.8,86.6,330.7,88.9,326.5,91.1 M212.2,103.2c0.1,5,0.1,9.899,0,14.8c8.5,0,16.9,0,25.3,0c0-4.9,0-9.8,0-14.8
	C229.1,103.3,220.7,103.2,212.2,103.2 M239,103.2c0,5,0,9.899,0,14.8c8.3,0,16.7,0,25,0c0-4.9,0-9.8,0-14.8
	C255.7,103.3,247.3,103.3,239,103.2 M266.2,103.2c0,6.1,0.1,12.199,0,18.3c5,0,10,0,15,0c0.1-6.101,0-12.2,0-18.3
	C276.2,103.3,271.2,103.3,266.2,103.2 M283,103.2c0,6.1,0,12.199,0,18.3c5.1,0,10.2,0,15.2,0c0.1-6.101,0-12.2,0-18.3
	C293.2,103.3,288.1,103.3,283,103.2 M300,103.2c0,5,0,9.899,0,14.8c8.3,0,16.7,0,25,0c0-4.9,0-9.8,0-14.8
	C316.7,103.3,308.3,103.3,300,103.2 M326.5,103.2c0,5,0,9.899,0,14.8c8.3,0,16.7,0,25,0c0-4.9,0-9.8,0-14.8
	C343.2,103.3,334.8,103.3,326.5,103.2z M135.2,148c42.4,0,84.9,0,127.3,0c0,22.1,0,44.2,0,66.3c-7.1,3.8-15.3,5.7-23.3,4.6
	c-6-0.699-11.7-2.699-17.1-5.199c-9.5,4.3-20.3,6.8-30.7,4.699c-5.6-0.8-10.9-3.1-16.3-4.5c-7.4,3-15.1,6-23.2,5.2
	c-5.4-0.5-10.6-2.399-15.7-4.6C137,192.4,137.1,170.1,135.2,148z M297.5,148c42.4,0,84.9,0,127.3,0c-1.8,22.1-1.8,44.399-1.1,66.5
	c-7.101,3.2-14.9,5.7-22.7,4.399c-5.6-0.699-10.8-3-16-4.899c-5.8,1.399-11.3,3.899-17.2,4.6c-10.2,1.9-20.6-0.7-29.899-4.899
	c-8.5,4-18.101,6.699-27.601,5c-4.5-0.7-8.8-2.4-12.8-4.4C297.5,192.2,297.5,170.1,297.5,148z M135.9,219.1c7.8,3.4,16.5,5.5,25,3.8
	c4.9-0.699,9.5-2.6,14.2-4.199c5.7,1.1,11.1,3.6,16.9,4.199c10.2,1.7,20.6-0.5,30-4.399c12.6,5.899,27.7,6.899,40.5,0.8
	c0,21.9,0,43.8,0,65.8c-13.2,7.2-29.3,5.9-42.6-0.3c-5.8,1.5-11.3,4-17.3,4.7c-11.1,1.8-22.3-1.2-32.7-4.8
	c-5.2,1.699-10.2,3.899-15.6,4.699c-9,1.801-18.2-0.6-26.4-4.199C132.3,263.4,134.7,241.3,135.9,219.1z M297.5,219.3
	c12.8,6.1,27.9,5.1,40.5-0.8c9.7,4.1,20.5,6.2,30.9,4.2c5.5-0.601,10.6-2.9,16-4.101c8,3.101,16.5,5.8,25.1,4.601
	c4.9-0.601,9.6-2.301,14.1-4c1.2,22.1,3.7,44.199,8,66c-8.1,3.6-17,5.899-25.899,4.3c-5.601-0.8-10.8-3.101-16.101-4.8
	c-9.399,3.1-19.199,6-29.199,5.199c-7.2-0.399-14-3.199-20.801-5.1c-13.3,6.2-29.399,7.4-42.6,0.3
	C297.5,263.1,297.5,241.2,297.5,219.3z M168,289.9c2.4-1.199,4.8,0.5,7.2,1c12.3,4.101,25.9,4.601,38.3,0.4c2.7-0.6,5.5-2.7,8.2-1.2
	c12.9,5.4,28,5.7,40.8-0.1c0,22.1,0,44.199,0,66.3c-6.6,4.6-14.4,7.8-22.5,7.899c-9.6,0.101-18.8-3.5-26.8-8.699
	c-10.4,6.1-22.6,10.399-34.7,8c-7.8-1.301-15.3-4.301-22.3-7.9c-7.7,4.6-16.2,8.3-25.2,8.6c-8.3-0.1-16.1-3.5-23.1-7.899
	c7.6-21.8,14.4-44,19.2-66.7c6.9,2.9,14.4,4.9,21.9,4.7C155.6,294,161.9,292.3,168,289.9z M364,294.3c8.9,0.2,17.6-2.3,26-4.9
	c7.1,2.301,14.4,4.9,22,4.9c7.2,0.1,14.3-2,21-4.7c4.7,22.7,11.6,44.9,19.1,66.8c-7,4.2-14.8,7.7-23.1,7.8c-9-0.3-17.5-4-25.1-8.6
	c-9,4.6-18.7,8.2-28.9,8.6c-10,0-19.6-3.699-28.1-8.699c-8,5.1-17.301,8.8-26.9,8.699c-8.1-0.1-15.9-3.3-22.5-7.899
	c-0.1-22.101,0.1-44.2,0-66.3c10.6,4.7,22.8,5.6,34.1,2.399c3.2-0.699,6.101-2.399,9.301-2.899C348.3,292,356,294.3,364,294.3z
	 M106.3,360.5c7.5,4.5,15.9,8,24.7,8c9-0.2,17.5-3.601,25.3-7.9c10.1,4.7,21.3,8.6,32.7,7.7c8.5-0.7,16.6-3.7,24-7.7
	c9.9,5.7,21.6,9.3,33,7.3c5.9-0.8,11.3-3.399,16.5-6.2c0,25,0,50,0,75.101c-63-0.101-125.9,0-188.8-0.101
	C86,412,96.9,386.5,106.3,360.5z M323,368.4c8.5-0.5,16.6-3.5,24-7.8c9.7,5.2,20.8,8.9,32,7.6c8.6-0.899,16.9-3.899,24.7-7.6
	c7.8,4.3,16.3,7.7,25.3,7.9c8.8,0,17.2-3.5,24.7-8c9.5,26,20.399,51.5,32.6,76.199c-62.899,0.101-125.8,0-188.8,0.101
	c0-25.101,0-50.101,0-75.101C305.2,366.199,314,369.1,323,368.4z M264.8,467.8c12.2-4.3,26.101-3.8,37.9,1.5
	c13.1,5.7,23.6,17.1,28.2,30.6c4.1,11.601,3.8,24.7-1,36.101c-0.7,1.899-1.801,3.699-2,5.8c1.199,2,3.5,0.899,5.1,0.2
	c22.1-9.7,43-24.7,54.8-46.301c2.601,0,5.2,0.101,7.8,0.101C381.5,524.5,359.4,550.4,329.9,564c-21.801,10.199-46.801,12.8-70.4,8.6
	c-18.6-3.4-36.2-11.5-51.3-22.8c-18.1-13.5-32.9-30.9-45.4-49.5c15.1-0.101,30.2,0,45.2-0.101c3.3,14,11.2,26.7,22.1,36
	c1-0.3,2.1-0.6,3.1-0.899c-3-9.7-4.3-20.101-1.8-30C235.1,488.199,248.2,473.5,264.8,467.8 M274.3,480.1c-7.3,1.6-14,5.8-18.3,11.9
	c-6.3,8.399-7.7,20.1-3.8,29.8c4.7,12.5,18.5,20.899,31.8,19.3c11.1-1,21.2-8.5,25.4-18.7c5-11.6,2.1-26-7.2-34.6
	C294.9,480.8,284.1,478,274.3,480.1z M142.5,466.5c22.5-0.101,45,0.1,67.5-0.101c-1.5,4.2-2.5,8.5-3.1,12.8c-19,0.101-38,0-57,0.101
	C147.4,475,144.9,470.8,142.5,466.5z M380.6,465.8c11.601-0.2,23.2-0.101,34.7,0c-2.6,4.3-6.6,7.8-11.3,9.6
	c-3.9,0.101-8,0.5-11.8-0.2C387.8,473,382.2,471,380.6,465.8z M393.6,479.9c3-0.1,6-0.2,8.9-0.1c-0.4,1.2-0.9,2.399-1.3,3.7
	c-2.7,0-5.5,0-8.2,0C393.2,482.3,393.4,481.1,393.6,479.9z M152.4,483.6c18-0.2,36,0,54-0.1c0.1,1,0.2,3.1,0.2,4.199
	c-16.5,0.101-33.1,0-49.6,0.101C154.3,488.3,153.6,485.199,152.4,483.6z M391.2,487.8c2.7,0,5.399-0.101,8.1,0
	c-0.5,1.2-1,2.399-1.5,3.7c-2.6,0-5.3,0-7.899,0C390.3,490.199,390.8,489,391.2,487.8z M157.5,492c16.5,0,32.9-0.101,49.3,0.1
	c0.1,1.3,0.3,2.6,0.5,3.9c-15.8,0-31.5,0-47.3,0C159.2,494.699,158.4,493.3,157.5,492z"/>
</svg>
