<?xml version="1.0" encoding="UTF-8" standalone="no"?>
<!-- Created with Inkscape (http://www.inkscape.org/) -->
<svg
   xmlns:dc="http://purl.org/dc/elements/1.1/"
   xmlns:cc="http://web.resource.org/cc/"
   xmlns:rdf="http://www.w3.org/1999/02/22-rdf-syntax-ns#"
   xmlns:svg="http://www.w3.org/2000/svg"
   xmlns="http://www.w3.org/2000/svg"
   xmlns:sodipodi="http://sodipodi.sourceforge.net/DTD/sodipodi-0.dtd"
   xmlns:inkscape="http://www.inkscape.org/namespaces/inkscape"
   id="svg2"
   sodipodi:version="0.32"
   inkscape:version="0.45.1"
   width="482"
   height="587"
   version="1.0"
   sodipodi:docbase="F:\BLOG\WIKI\escudos"
   sodipodi:docname="Coat_of_arms_of_Širvintos_(Lithuania).png.svg"
   inkscape:output_extension="org.inkscape.output.svg.inkscape">
  <metadata
     id="metadata7">
    <rdf:RDF>
      <cc:Work
         rdf:about="">
        <dc:format>image/svg+xml</dc:format>
        <dc:type
           rdf:resource="http://purl.org/dc/dcmitype/StillImage" />
      </cc:Work>
    </rdf:RDF>
  </metadata>
  <defs
     id="defs5" />
  <sodipodi:namedview
     inkscape:window-height="573"
     inkscape:window-width="809"
     inkscape:pageshadow="2"
     inkscape:pageopacity="0.0"
     guidetolerance="10.0"
     gridtolerance="10.0"
     objecttolerance="10.0"
     borderopacity="1.0"
     bordercolor="#666666"
     pagecolor="#ffffff"
     id="base"
     inkscape:zoom="0.45413843"
     inkscape:cx="138.5084"
     inkscape:cy="325.27043"
     inkscape:window-x="88"
     inkscape:window-y="116"
     inkscape:current-layer="svg2"
     showguides="true"
     inkscape:guide-bbox="true" />
  <path
     style="fill:#0b4da2;fill-rule:evenodd;stroke:#000000;stroke-width:4;stroke-linecap:butt;stroke-linejoin:miter;stroke-opacity:1;stroke-miterlimit:4;stroke-dasharray:none;fill-opacity:1"
     d="M 8.2573942,8.9824073 L 475.07541,8.4319143 L 476.1764,381.66613 C 466.39745,658.16052 11.059534,640.63199 7.1564083,380.01465 L 8.2573942,8.9824073 z "
     id="path2161"
     sodipodi:nodetypes="ccccc" />
  <path
     style="fill:#ed1c24;fill-rule:evenodd;stroke:none;stroke-width:4;stroke-linecap:butt;stroke-linejoin:miter;stroke-miterlimit:4;stroke-dasharray:none;stroke-opacity:1;fill-opacity:1"
     d="M 8.25699,8.9819432 C 8.25699,8.9819432 126.61305,8.8423724 243.31755,8.7047491 C 246.51981,264.26657 242.53826,354.16652 243.31603,582.31188 C 126.48434,581.39782 9.1292595,511.77143 7.156,380.01419 L 8.25699,8.9819432 z "
     id="path4103"
     sodipodi:nodetypes="ccccc" />
  <path
     id="path4125"
     style="fill:#e7e7e8;fill-rule:evenodd;stroke:#000000;stroke-width:3;stroke-linecap:butt;stroke-linejoin:miter;stroke-miterlimit:4;stroke-opacity:1;fill-opacity:1"
     d="M 300.56915,492.31521 C 316.65158,460.13776 350.87503,444.15505 382.98186,428.00199 C 391.44461,423.08633 392.45308,418.86416 382.36458,414.07843 C 373.08521,409.71476 366.4133,403.99157 358.9214,396.52944 C 359.84931,393.33161 363.06414,395.93448 363.3322,392.98656 C 360.63594,388.47533 368.49226,381.89621 372.68372,380.01465 C 376.22066,373.45787 328.18997,364.62952 303.32161,376.1612 C 297.84213,377.76953 292.87286,376.10253 296.7157,365.15134 C 306.25758,352.12821 341.30926,355.48763 363.87584,355.24247 C 403.12584,360.36746 424.80601,337.90682 435.43992,319.46043 C 441.32325,306.86184 434.51215,306.11139 424.98055,307.90008 C 354.99622,341.13258 349.67869,283.56928 385.89555,260.55768 C 409.50767,241.78908 418.07874,229.28758 429.93499,215.41726 C 438.43257,201.9962 430.43236,187.80171 417.82415,198.35198 C 394.22827,214.40442 380.88475,202.94782 395.80443,178.53423 C 422.7814,144.50892 430.93689,124.49688 427.73302,99.813743 C 422.48108,86.523753 418.20569,92.764934 413.97069,99.813743 C 395.9461,123.53877 380.38087,103.09109 374.3352,83.298955 C 369.57278,70.54291 360.27914,67.657035 360.57288,85.500927 C 358.75638,113.9902 350.93937,113.85914 335.02219,104.60695 C 316.65511,93.669723 308.99781,83.311186 296.1652,72.289096 C 287.5772,63.523278 284.0676,66.006321 285.70584,76.142547 C 307.88315,162.28812 381.08575,350.92877 244.72272,357.21515 C 117.70187,350.79266 178.44823,173.82972 196.34371,84.570099 C 197.98195,74.433873 192.52606,64.165684 183.93806,72.931502 C 173.83026,87.456908 167.72998,104.43282 150.91993,116.53781 C 137.72755,127.34703 120.95763,123.58552 119.14113,95.096251 C 119.43487,77.252359 110.14123,78.581205 105.37881,91.33725 C 102.14322,109.84713 85.720704,132.6459 71.97143,105.51649 C 67.73643,98.467685 63.46104,92.226504 58.2091,105.51649 C 56.951516,130.19962 66.664036,149.04389 93.641006,183.0692 C 106.22515,208.26131 97.552712,218.16088 73.95683,202.10844 C 61.34862,191.55817 56.851725,206.53117 65.349305,219.95223 C 77.205555,233.82255 88.890684,247.10257 110.55652,265.48191 C 139.22214,287.94223 139.4132,328.76192 103.15536,325.79896 C 92.274319,324.90976 84.994603,322.11337 68.357459,308.54248 C 61.939917,304.8075 53.571788,307.50424 59.455118,320.10283 C 70.089028,338.54922 101.11137,360.6206 148.53578,361.72373 C 171.10236,361.96889 205.76478,359.77724 217.25295,375.91443 C 221.09579,386.86562 204.4488,392.03593 193.13046,396.26646 C 173.14435,404.62783 163.41072,407.74801 149.4748,415.33754 C 142.15076,418.7749 141.11482,422.48219 136.24005,435.18965 C 121.40937,457.56256 126.64603,461.9322 127.6764,468.66578 C 135.17637,482.55909 150.78444,485.16378 154.14589,474.11538 C 170.97266,480.80778 176.43678,472.34998 180.22613,461.65915 C 192.30585,456.71354 204.78122,455.32868 217.59483,456.98806 C 209.05528,474.91379 209.24691,482.29128 216.72186,486.36316 C 222.38903,488.43237 226.2461,492.40965 221.87666,500.97414 C 230.70502,494.31698 235.25473,484.80739 239.78249,475.28316 C 233.7605,491.62131 234.52363,507.68742 256.17853,518.9272 C 263.08621,508.21647 262.61319,500.91806 264.69496,491.63196 C 262.75065,507.99925 258.65338,515.04084 250.79571,528.38338 C 244.93545,538.55292 255.01037,541.19503 262.74867,533.07404 C 278.84389,512.43709 290.74888,505.58203 288.73355,469.19451 L 291.48601,494.24194 C 293.98111,501.30308 298.15827,498.40947 300.56915,492.31521 z "
     sodipodi:nodetypes="cccccscccccccccccccccccccccccccccccccccccccccccccccccccc" />
  <path
     style="fill:none;fill-rule:evenodd;stroke:#000000;stroke-width:3;stroke-linecap:butt;stroke-linejoin:miter;stroke-opacity:1;stroke-miterlimit:4;stroke-dasharray:none"
     d="M 311.01658,403.07593 C 324.89567,412.03004 342.45276,401.9812 359.28448,395.68004"
     id="path5101"
     sodipodi:nodetypes="cc" />
  <path
     style="fill:#000000;fill-rule:evenodd;stroke:#000000;stroke-width:1px;stroke-linecap:butt;stroke-linejoin:miter;stroke-opacity:1"
     d="M 312.96287,391.78747 C 324.67305,385.61503 339.11458,380.59752 352.27785,382.83455 C 345.81397,380.18004 330.53799,371.72445 312.96287,391.78747 z "
     id="path6072"
     sodipodi:nodetypes="ccc" />
  <path
     style="fill:none;fill-rule:evenodd;stroke:#000000;stroke-width:3;stroke-linecap:butt;stroke-linejoin:miter;stroke-opacity:1;stroke-miterlimit:4;stroke-dasharray:none"
     d="M 229.27255,453.09549 C 235.63042,450.87887 241.98828,451.16413 248.34615,453.09549 C 289.31851,465.13306 298.65509,445.53484 307.12401,425.06897"
     id="path7043"
     sodipodi:nodetypes="ccc" />
  <path
     style="fill:none;fill-rule:evenodd;stroke:#000000;stroke-width:3;stroke-linecap:butt;stroke-linejoin:miter;stroke-miterlimit:4;stroke-dasharray:none;stroke-opacity:1"
     d="M 154.34051,473.83064 C 157.95639,462.47626 164.54939,454.5051 175.94429,451.44834"
     id="path8014"
     sodipodi:nodetypes="cc" />
  <path
     style="fill:none;fill-rule:evenodd;stroke:#000000;stroke-width:3;stroke-linecap:butt;stroke-linejoin:miter;stroke-miterlimit:4;stroke-dasharray:none;stroke-opacity:1"
     d="M 146.26343,450.07875 C 133.90603,461.28087 146.63119,471.90296 153.07543,455.52835 C 155.18528,449.65636 155.00195,444.93097 155.11903,440.05537"
     id="path8016"
     sodipodi:nodetypes="ccc" />
  <path
     style="fill:none;fill-rule:evenodd;stroke:#000000;stroke-width:2;stroke-linecap:butt;stroke-linejoin:miter;stroke-miterlimit:4;stroke-dasharray:none;stroke-opacity:1"
     d="M 212.82902,402.86144 C 220.66232,385.08 233.17338,386.94513 246.11053,390.59983 L 246.39987,390.81432 C 240.60819,396.0198 237.55413,405.07183 225.18388,402.25673 C 222.33679,401.60882 217.2436,401.60533 212.82902,402.86144 z "
     id="path8018"
     sodipodi:nodetypes="cccsc" />
  <path
     sodipodi:type="arc"
     style="opacity:1;fill:#e4edf3;fill-opacity:1;fill-rule:nonzero;stroke:#000000;stroke-width:2;stroke-miterlimit:4;stroke-dasharray:none;stroke-dashoffset:0;stroke-opacity:1"
     id="path8989"
     sodipodi:cx="229.46718"
     sodipodi:cy="396.16663"
     sodipodi:rx="5.8388596"
     sodipodi:ry="5.5469165"
     d="M 235.30604 396.16663 A 5.8388596 5.5469165 0 1 1  223.62832,396.16663 A 5.8388596 5.5469165 0 1 1  235.30604 396.16663 z"
     transform="translate(0.1946286,-0.3892573)" />
  <path
     style="fill:none;fill-rule:evenodd;stroke:#000000;stroke-width:3;stroke-linecap:butt;stroke-linejoin:miter;stroke-miterlimit:4;stroke-dasharray:none;stroke-opacity:1"
     d="M 130.6748,350.46933 C 148.3471,346.45699 159.32609,338.04003 156.68252,313.22372 C 149.59487,208.85612 169.10753,167.26376 184.41514,102.56621"
     id="path8991"
     sodipodi:nodetypes="ccc" />
  <path
     style="fill:none;fill-rule:evenodd;stroke:#000000;stroke-width:3;stroke-linecap:butt;stroke-linejoin:miter;stroke-miterlimit:4;stroke-dasharray:none;stroke-opacity:1"
     d="M 358.26693,346.52523 C 340.59463,342.51289 329.61564,334.09593 332.25921,309.27962 C 339.34686,204.91202 319.8342,163.31966 304.52659,98.62211"
     id="path8993"
     sodipodi:nodetypes="ccc" />
  <path
     style="fill:#e7e7e8;fill-rule:evenodd;stroke:#000000;stroke-width:2;stroke-linecap:butt;stroke-linejoin:miter;stroke-opacity:1;stroke-miterlimit:4;stroke-dasharray:none;fill-opacity:1"
     d="M 228.49403,272.86936 L 234.33289,68.898541 L 244.45358,59.556365 L 253.4065,68.509283 L 262.74867,274.81565 L 228.49403,272.86936 z "
     id="path12885" />
  <path
     style="fill:#d2ab67;fill-rule:evenodd;stroke:#000000;stroke-width:2;stroke-linecap:butt;stroke-linejoin:miter;stroke-opacity:1;stroke-miterlimit:4;stroke-dasharray:none;fill-opacity:1"
     d="M 196.57493,265.86273 L 195.40716,282.6008 L 290.38594,282.6008 L 290.38594,265.47347 C 275.41404,277.54209 259.67939,275.88105 243.67507,269.36605 C 229.66475,274.95717 214.70849,276.76456 196.57493,265.86273 z "
     id="path8995"
     sodipodi:nodetypes="cccccc" />
  <path
     style="fill:#d2ab67;fill-rule:evenodd;stroke:#000000;stroke-width:2;stroke-linecap:butt;stroke-linejoin:miter;stroke-opacity:1;stroke-miterlimit:4;stroke-dasharray:none;fill-opacity:1"
     d="M 236.27918,333.20424 L 233.94363,282.99005 L 256.52056,282.99005 L 254.18501,334.76127 L 236.27918,333.20424 z "
     id="path9966"
     sodipodi:nodetypes="cccc" />
  <path
     transform="translate(-0.3892573,-3.5033157)"
     style="fill:#d2ab67;fill-opacity:1;fill-rule:nonzero;stroke:#000000;stroke-width:2;stroke-miterlimit:4;stroke-dashoffset:0;stroke-opacity:1"
     d="M 258.8561,340.40552 C 258.8561,346.31444 253.10132,351.11009 246.0106,351.11009 C 238.91989,351.11009 233.16511,346.31444 233.16511,340.40552 C 233.16511,337.1531 234.90862,334.23796 237.65876,332.27419 C 243.08845,328.61777 249.75712,329.07838 255.00451,332.76486 C 257.38111,334.70785 258.8561,337.41402 258.8561,340.40552 z "
     id="path9968"
     sodipodi:nodetypes="cssccc" />
  <path
     style="fill:none;fill-rule:evenodd;stroke:#000000;stroke-width:2;stroke-linecap:butt;stroke-linejoin:miter;stroke-opacity:1;stroke-miterlimit:4;stroke-dasharray:none"
     d="M 244.45358,271.70159 L 244.84284,59.945623"
     id="path12887"
     sodipodi:nodetypes="cc" />
  <path
     style="fill:#000000;fill-rule:evenodd;stroke:#000000;stroke-width:1px;stroke-linecap:butt;stroke-linejoin:miter;stroke-opacity:1;fill-opacity:1"
     d="M 239.19861,284.74171 C 239.19861,284.74171 234.3329,287.02859 235.11141,289.99668 C 235.88993,292.96477 242.31267,296.61406 242.31267,296.61406 C 242.31267,296.61406 235.59798,296.27346 235.50066,298.36572 C 235.40335,300.45798 241.92341,304.98309 241.92341,304.98309 C 241.92341,304.98309 236.03589,305.03175 236.08455,306.92938 C 236.13321,308.82701 242.11804,312.57361 242.11804,312.57361 C 242.11804,312.57361 235.59798,311.94107 235.88992,314.13064 C 236.18186,316.32021 243.28581,321.3319 243.28581,321.3319 L 236.27918,319.38561 L 234.13826,282.79542 L 239.19861,284.74171 z "
     id="path13858"
     sodipodi:nodetypes="cscscscscccc" />
  <path
     style="fill:#000000;fill-rule:evenodd;stroke:#000000;stroke-width:1px;stroke-linecap:butt;stroke-linejoin:miter;stroke-opacity:1;fill-opacity:1"
     d="M 244.45358,284.15782 C 244.45358,284.15782 253.4065,292.8188 254.57427,296.2248 C 255.74204,299.6308 249.12467,297.78183 249.12467,297.78183 C 249.12467,297.78183 254.62293,302.20963 254.57427,304.3992 C 254.52561,306.58877 248.93004,306.54012 248.93004,306.54012 C 248.93004,306.54012 254.67158,311.21121 254.57427,313.15749 C 254.47696,315.10377 248.54078,314.32526 248.54078,314.32526 C 248.54078,314.32526 253.69844,318.21783 253.60113,320.16412 C 253.50382,322.11041 248.15153,322.11041 248.15153,322.11041 L 253.60113,327.75464 L 255.15816,288.43965 C 251.15655,289.17948 247.99508,285.71857 244.45358,284.15782 z "
     id="path14829"
     sodipodi:nodetypes="cscscscscccc" />
  <path
     style="fill:none;fill-opacity:1;fill-rule:evenodd;stroke:#000000;stroke-width:4;stroke-linecap:butt;stroke-linejoin:miter;stroke-miterlimit:4;stroke-dasharray:none;stroke-opacity:1"
     d="M 8.25698,8.9819422 L 475.075,8.4314522 L 476.17599,381.66567 C 466.39704,658.16006 11.05912,640.63153 7.156,380.01419 L 8.25698,8.9819422 z "
     id="path17738"
     sodipodi:nodetypes="ccccc" />
</svg>
