<?xml version="1.0" encoding="UTF-8" standalone="no"?>
<!-- Created with Inkscape (http://www.inkscape.org/) -->

<svg
   xmlns:dc="http://purl.org/dc/elements/1.1/"
   xmlns:cc="http://creativecommons.org/ns#"
   xmlns:rdf="http://www.w3.org/1999/02/22-rdf-syntax-ns#"
   xmlns:svg="http://www.w3.org/2000/svg"
   xmlns="http://www.w3.org/2000/svg"
   xmlns:xlink="http://www.w3.org/1999/xlink"
   xmlns:sodipodi="http://sodipodi.sourceforge.net/DTD/sodipodi-0.dtd"
   xmlns:inkscape="http://www.inkscape.org/namespaces/inkscape"
   width="398.21875"
   height="478.84375"
   id="svg2"
   version="1.1"
   inkscape:version="0.48.5 r10040"
   sodipodi:docname="Skuodas.svg">
  <defs
     id="defs4" />
  <sodipodi:namedview
     id="base"
     pagecolor="#f6f3f1"
     bordercolor="#666666"
     borderopacity="1.0"
     inkscape:pageopacity="0"
     inkscape:pageshadow="2"
     inkscape:zoom="0.98994949"
     inkscape:cx="149.6381"
     inkscape:cy="268.56483"
     inkscape:document-units="px"
     inkscape:current-layer="layer1"
     showgrid="false"
     showborder="true"
     inkscape:window-width="1920"
     inkscape:window-height="1017"
     inkscape:window-x="-8"
     inkscape:window-y="-8"
     inkscape:window-maximized="1"
     inkscape:snap-global="true"
     fit-margin-top="0"
     fit-margin-left="0"
     fit-margin-right="0"
     fit-margin-bottom="0"
     inkscape:showpageshadow="false" />
  <metadata
     id="metadata7">
    <rdf:RDF>
      <cc:Work
         rdf:about="">
        <dc:format>image/svg+xml</dc:format>
        <dc:type
           rdf:resource="http://purl.org/dc/dcmitype/StillImage" />
        <dc:title></dc:title>
      </cc:Work>
    </rdf:RDF>
  </metadata>
  <g
     inkscape:label="Layer 1"
     inkscape:groupmode="layer"
     id="layer1"
     transform="translate(-110,-158.53125)">
    <g
       id="g4268">
      <path
         style="color:#000000;fill:#00418f;fill-opacity:1;stroke:#000000;stroke-width:5;stroke-linecap:butt;stroke-linejoin:miter;stroke-miterlimit:4;stroke-opacity:1;stroke-dasharray:none;stroke-dashoffset:0;marker:none;visibility:visible;display:inline;overflow:visible;enable-background:accumulate"
         d="m 505.71429,161.03635 c 0,0 0,165.2544 0,274.54011 0,109.28572 -84.64286,199.28572 -196.60715,199.28572 -111.96428,0 -196.60714,-90 -196.60714,-199.28572 0,-109.28571 0,-274.54011 0,-274.54011 z"
         id="path3763"
         inkscape:connector-curvature="0"
         sodipodi:nodetypes="cszscc" />
      <g
         id="g4223">
        <g
           id="g3932">
          <g
             id="g3961">
            <path
               sodipodi:nodetypes="ccccccccccccc"
               style="color:#000000;fill:#d7b369;fill-opacity:1;stroke:#000000;stroke-width:3;stroke-linecap:butt;stroke-linejoin:miter;stroke-miterlimit:4;stroke-opacity:1;stroke-dasharray:none;stroke-dashoffset:0;marker:none;visibility:visible;display:inline;overflow:visible;enable-background:accumulate"
               d="m 460.15608,550.04075 0,-9.10714 -13.92857,-15 0,-179.46429 26.25,-17.14285 -43.39286,-47.67857 -239.95493,0 -43.39285,47.67857 26.25,17.14285 0,179.46429 -13.92857,15 0,9.10714 z"
               id="path3938"
               inkscape:connector-curvature="0" />
            <path
               id="path3974"
               style="color:#000000;fill:none;stroke:#000000;stroke-width:1.99999988;stroke-linecap:butt;stroke-linejoin:miter;stroke-miterlimit:4;stroke-opacity:1;stroke-dasharray:none;stroke-dashoffset:0;marker:none;visibility:visible;display:inline;overflow:visible;enable-background:accumulate"
               d="m 446.22751,436.20146 -274.24064,0 m 274.24064,-17.94642 -274.24064,0 m 0,35.89285 274.24064,0 m 0,-53.83928 -274.24064,0 m 0,71.78571 274.24064,0 m 0,-89.73214 -274.24064,0 m 0,107.67857 274.24064,0 m 0,-125.625 -93.56016,0 m -87.12032,0 -93.56016,0 m 0,143.57143 274.24064,0 m 26.25,-178.66071 -326.74064,0 m 300.49064,17.14285 -274.24064,0 m 0,179.46429 274.24064,0"
               inkscape:connector-curvature="0"
               sodipodi:nodetypes="cccccccccccccccccccccccccc" />
            <use
               height="1052.3622"
               width="744.09448"
               transform="translate(20.076781,17.803939)"
               id="use3984"
               xlink:href="#g3979"
               y="0"
               x="0" />
            <g
               id="g3998"
               transform="translate(0.320221,0)">
              <g
                 id="g3979">
                <path
                   sodipodi:nodetypes="cccccccccc"
                   style="color:#000000;fill:none;stroke:#000000;stroke-width:2;stroke-linecap:butt;stroke-linejoin:miter;stroke-miterlimit:4;stroke-opacity:1;stroke-dasharray:none;stroke-dashoffset:0;marker:none;visibility:visible;display:inline;overflow:visible;enable-background:accumulate"
                   d="m 221.0931,346.51265 0,17.97619 m 0,17.97619 0,17.97619 m 0,17.97619 0,17.97619 m 0,17.97619 0,17.97619 m 0,17.97619 0,17.97619"
                   id="path3977"
                   inkscape:connector-curvature="0" />
              </g>
              <use
                 height="1052.3622"
                 width="744.09448"
                 transform="translate(-26.895312,17.803939)"
                 id="use3982"
                 xlink:href="#g3979"
                 y="0"
                 x="0" />
              <use
                 height="1052.3622"
                 width="744.09448"
                 transform="translate(42.426407,0)"
                 id="use3986"
                 xlink:href="#g3979"
                 y="0"
                 x="0" />
              <use
                 height="1052.3622"
                 width="744.09448"
                 transform="matrix(-1,0,0,1,617.57393,0)"
                 id="use3990"
                 xlink:href="#g3979"
                 y="0"
                 x="0" />
              <use
                 x="0"
                 y="0"
                 xlink:href="#g3979"
                 id="use3992"
                 transform="matrix(-1,0,0,1,644.46925,17.803939)"
                 width="744.09448"
                 height="1052.3622" />
              <use
                 height="1052.3622"
                 width="744.09448"
                 transform="matrix(-1,0,0,1,597.49715,17.803939)"
                 id="use3994"
                 xlink:href="#g3979"
                 y="0"
                 x="0" />
              <use
                 x="0"
                 y="0"
                 xlink:href="#g3979"
                 id="use3996"
                 transform="matrix(-1,0,0,1,575.14753,0)"
                 width="744.09448"
                 height="1052.3622" />
              <use
                 height="1052.3622"
                 width="744.09448"
                 transform="translate(87.693869,2.6171874e-6)"
                 id="use3988"
                 xlink:href="#g3979"
                 y="0"
                 x="0" />
            </g>
            <g
               id="g4179"
               transform="translate(0.83758894,0)">
              <g
                 transform="translate(-0.83757782,0)"
                 id="g4105">
                <path
                   style="color:#000000;fill:#d7b369;fill-opacity:1;stroke:#000000;stroke-width:3;stroke-linecap:butt;stroke-linejoin:miter;stroke-miterlimit:4;stroke-opacity:1;stroke-dasharray:none;stroke-dashoffset:0;marker:none;visibility:visible;display:inline;overflow:visible;enable-background:accumulate"
                   d="m 301.80351,208.96932 c -6.96427,6.42858 -17.32317,21.42858 -17.32317,41.25 0,19.82143 0,43.77084 0,43.77084 0,0 6.04134,9.80874 24.62685,9.80874 18.58551,0 24.62684,-9.80874 24.62684,-9.80874 0,0 0,-23.94941 0,-43.77084 0,-19.82142 -10.35889,-34.82142 -17.32317,-41.25 z"
                   id="path4039"
                   inkscape:connector-curvature="0"
                   sodipodi:nodetypes="csczcscc" />
                <path
                   inkscape:connector-curvature="0"
                   id="path4045"
                   style="color:#000000;fill:none;stroke:#000000;stroke-width:2;stroke-linecap:butt;stroke-linejoin:miter;stroke-miterlimit:4;stroke-opacity:1;stroke-dasharray:none;stroke-dashoffset:0;marker:none;visibility:visible;display:inline;overflow:visible;enable-background:accumulate"
                   d="m 284.48034,277.39417 c 0,0 6.04134,9.80874 24.62685,9.80874 18.58551,0 24.62684,-9.80874 24.62684,-9.80874 m -49.25369,-6.43972 c 0,0 6.04134,9.80874 24.62685,9.80874 18.58551,0 24.62684,-9.80874 24.62684,-9.80874" />
                <path
                   inkscape:connector-curvature="0"
                   id="path4049"
                   style="color:#000000;fill:none;stroke:#000000;stroke-width:2;stroke-linecap:butt;stroke-linejoin:miter;stroke-miterlimit:4;stroke-opacity:1;stroke-dasharray:none;stroke-dashoffset:0;marker:none;visibility:visible;display:inline;overflow:visible;enable-background:accumulate"
                   d="m 284.9375,243.125 c 1.60597,2.07104 8.24924,9.21875 24.15625,9.21875 15.90701,0 22.58153,-7.14771 24.1875,-9.21875 M 285.875,237.78125 c 2.67577,2.80331 9.52665,8.125 23.21875,8.125 13.64269,0 20.52234,-5.28253 23.21875,-8.09375" />
                <g
                   id="g4081"
                   transform="translate(0.2863,0)">
                  <path
                     style="color:#000000;fill:none;stroke:#000000;stroke-width:2;stroke-linecap:butt;stroke-linejoin:miter;stroke-miterlimit:4;stroke-opacity:1;stroke-dasharray:none;stroke-dashoffset:0;marker:none;visibility:visible;display:inline;overflow:visible;enable-background:accumulate"
                     d="m 311.66195,275.15733 c 0,0 0,-8.23047 0,-10.16626 0,-1.93579 -1.22218,-3.52998 -2.83886,-3.52998 -1.61669,0 -2.83887,1.59419 -2.83887,3.52998 0,1.93579 0,10.16626 0,10.16626 z"
                     id="path3783-1"
                     inkscape:connector-curvature="0"
                     sodipodi:nodetypes="cszscc" />
                  <path
                     sodipodi:nodetypes="cszscc"
                     inkscape:connector-curvature="0"
                     id="path4077"
                     d="m 298.30898,273.76404 c 0,0 0,-8.23047 0,-10.16626 0,-1.93579 -0.462,-3.71515 -2.27064,-4.03072 -1.80865,-0.31557 -2.27066,1.28291 -2.27066,3.21865 0,1.93579 0,8.46163 0,8.46163 z"
                     style="color:#000000;fill:none;stroke:#000000;stroke-width:2;stroke-linecap:butt;stroke-linejoin:miter;stroke-miterlimit:4;stroke-opacity:1;stroke-dasharray:none;stroke-dashoffset:0;marker:none;visibility:visible;display:inline;overflow:visible;enable-background:accumulate" />
                  <path
                     style="color:#000000;fill:none;stroke:#000000;stroke-width:2;stroke-linecap:butt;stroke-linejoin:miter;stroke-miterlimit:4;stroke-opacity:1;stroke-dasharray:none;stroke-dashoffset:0;marker:none;visibility:visible;display:inline;overflow:visible;enable-background:accumulate"
                     d="m 319.33717,273.76404 c 0,0 0,-8.23047 0,-10.16626 0,-1.93579 0.462,-3.71515 2.27064,-4.03072 1.80865,-0.31557 2.27066,1.28291 2.27066,3.21865 0,1.93579 0,8.46163 0,8.46163 z"
                     id="path4079"
                     inkscape:connector-curvature="0"
                     sodipodi:nodetypes="cszscc" />
                </g>
                <path
                   style="color:#000000;fill:#d7b369;fill-opacity:1;stroke:#000000;stroke-width:3;marker:none;visibility:visible;display:inline;overflow:visible;enable-background:accumulate"
                   d="m 304.29468,169.5 1.40625,7.84375 -7.84375,-1.40625 0,9.625 7.84375,-1.40625 -1.40625,7.84375 9.65625,0 -1.40625,-7.8125 7.8125,1.375 0,-9.625 -7.8125,1.375 1.40625,-7.8125 -9.65625,0 z"
                   id="rect4099"
                   inkscape:connector-curvature="0" />
                <path
                   sodipodi:type="arc"
                   style="color:#000000;fill:#d7b369;fill-opacity:1;stroke:#000000;stroke-width:3.2060957;stroke-linecap:square;stroke-linejoin:miter;stroke-miterlimit:4;stroke-opacity:1;stroke-dasharray:none;stroke-dashoffset:0;marker:none;visibility:visible;display:inline;overflow:visible;enable-background:accumulate"
                   id="path4086"
                   sodipodi:cx="308.75"
                   sodipodi:cy="200.57646"
                   sodipodi:rx="11.785714"
                   sodipodi:ry="11.785714"
                   d="m 320.53571,200.57646 c 0,6.50907 -5.27664,11.78572 -11.78571,11.78572 -6.50907,0 -11.78571,-5.27665 -11.78571,-11.78572 0,-6.50907 5.27664,-11.78571 11.78571,-11.78571 6.50907,0 11.78571,5.27664 11.78571,11.78571 z"
                   transform="matrix(0.93571756,0,0,0.93571756,20.204387,12.893543)" />
              </g>
              <g
                 style="fill:none"
                 transform="matrix(0.70985953,0,0,0.70985953,5.27549,88.144355)"
                 id="g4116">
                <path
                   sodipodi:nodetypes="csczcscc"
                   inkscape:connector-curvature="0"
                   id="path4118"
                   d="m 301.80351,208.96932 c -6.96427,6.42858 -17.32317,21.42858 -17.32317,41.25 0,19.82143 0,44.90285 0,44.90285 0,0 7.45007,8.67673 24.62685,8.67673 17.17678,0 24.62684,-8.67673 24.62684,-8.67673 0,0 0,-25.08142 0,-44.90285 0,-19.82142 -10.35889,-34.82142 -17.32317,-41.25 z"
                   style="color:#000000;fill:#d7b369;fill-opacity:1;stroke:#000000;stroke-width:4.22618818;stroke-linecap:butt;stroke-linejoin:miter;stroke-miterlimit:4;stroke-opacity:1;stroke-dasharray:none;stroke-dashoffset:0;marker:none;visibility:visible;display:inline;overflow:visible;enable-background:accumulate" />
                <path
                   inkscape:connector-curvature="0"
                   d="m 284.48034,273.12508 c 0,0 6.04134,9.80874 24.62685,9.80874 18.58551,0 24.62684,-9.80874 24.62684,-9.80874 m -49.25369,-6.43972 c 0,0 6.04134,9.80874 24.62685,9.80874 18.58551,0 24.62684,-9.80874 24.62684,-9.80874"
                   style="color:#000000;fill:none;stroke:#000000;stroke-width:2.81745887;stroke-linecap:butt;stroke-linejoin:miter;stroke-miterlimit:4;stroke-opacity:1;stroke-dasharray:none;stroke-dashoffset:0;marker:none;visibility:visible;display:inline;overflow:visible;enable-background:accumulate"
                   id="path4120" />
                <path
                   inkscape:connector-curvature="0"
                   d="m 285.69218,237.69282 c 1.55583,2.00638 7.99169,8.93093 23.40206,8.93093 15.41037,0 21.87651,-6.92455 23.43233,-8.93093 m -45.92616,-5.17691 c 2.59223,2.71579 9.22921,7.87133 22.49383,7.87133 13.21675,0 19.88161,-5.1176 22.49383,-7.84106"
                   style="color:#000000;fill:none;stroke:#000000;stroke-width:2.81745887;stroke-linecap:butt;stroke-linejoin:miter;stroke-miterlimit:4;stroke-opacity:1;stroke-dasharray:none;stroke-dashoffset:0;marker:none;visibility:visible;display:inline;overflow:visible;enable-background:accumulate"
                   id="path4122" />
                <path
                   inkscape:connector-curvature="0"
                   id="path4132"
                   d="m 302.81086,162.56271 1.83982,10.26216 -10.26216,-1.83983 0,12.59262 10.26216,-1.83983 -1.83982,10.26215 12.63349,0 -1.83983,-10.22127 10.22127,1.79895 0,-12.59262 -10.22127,1.79895 1.83983,-10.22128 -12.63349,0 z"
                   style="color:#000000;fill:#d7b369;fill-opacity:1;stroke:#000000;stroke-width:4.22618723;marker:none;visibility:visible;display:inline;overflow:visible;enable-background:accumulate" />
                <path
                   transform="matrix(1.0715524,0,0,1.0715524,-21.734619,-13.284454)"
                   d="m 320.53571,200.57646 c 0,6.50907 -5.27664,11.78572 -11.78571,11.78572 -6.50907,0 -11.78571,-5.27665 -11.78571,-11.78572 0,-6.50907 5.27664,-11.78571 11.78571,-11.78571 6.50907,0 11.78571,5.27664 11.78571,11.78571 z"
                   sodipodi:ry="11.785714"
                   sodipodi:rx="11.785714"
                   sodipodi:cy="200.57646"
                   sodipodi:cx="308.75"
                   id="path4134"
                   style="color:#000000;fill:#d7b369;fill-opacity:1;stroke:#000000;stroke-width:3.94398665;stroke-linecap:square;stroke-linejoin:miter;stroke-miterlimit:4;stroke-opacity:1;stroke-dasharray:none;stroke-dashoffset:0;marker:none;visibility:visible;display:inline;overflow:visible;enable-background:accumulate"
                   sodipodi:type="arc" />
                <g
                   transform="translate(-0.260245,0)"
                   id="g4173">
                  <path
                     style="color:#000000;fill:none;stroke:#000000;stroke-width:2.81745887;stroke-linecap:butt;stroke-linejoin:miter;stroke-miterlimit:4;stroke-opacity:1;stroke-dasharray:none;stroke-dashoffset:0;marker:none;visibility:visible;display:inline;overflow:visible;enable-background:accumulate"
                     d="m 302.39548,268.14445 c 0,0 0,-8.98515 0,-10.92094 0,-1.93579 -0.9545,-3.23521 -2.83664,-3.52646 -1.88214,-0.29125 -2.83667,1.22117 -2.83667,3.15691 0,1.93579 0,9.78231 0,9.78231 z"
                     id="path4128"
                     inkscape:connector-curvature="0"
                     sodipodi:nodetypes="cszscc" />
                  <path
                     sodipodi:nodetypes="cszscc"
                     inkscape:connector-curvature="0"
                     id="path4171"
                     d="m 316.34376,268.14445 c 0,0 0,-8.98515 0,-10.92094 0,-1.93579 0.9545,-3.23521 2.83664,-3.52646 1.88214,-0.29125 2.83667,1.22117 2.83667,3.15691 0,1.93579 0,9.78231 0,9.78231 z"
                     style="color:#000000;fill:none;stroke:#000000;stroke-width:2.81745887;stroke-linecap:butt;stroke-linejoin:miter;stroke-miterlimit:4;stroke-opacity:1;stroke-dasharray:none;stroke-dashoffset:0;marker:none;visibility:visible;display:inline;overflow:visible;enable-background:accumulate" />
                </g>
              </g>
              <use
                 height="1052.3622"
                 width="744.09448"
                 transform="translate(167.14286,0)"
                 id="use4177"
                 xlink:href="#g4116"
                 y="0"
                 x="0" />
            </g>
          </g>
          <path
             inkscape:connector-curvature="0"
             id="path3785"
             d="m 309.10714,353.40625 c -4.58931,0 -9.0321,0.4366 -13.40625,1.0625 l 0,8.59375 c -5.9886,0.96519 -11.72404,2.58273 -17.15625,4.75 l -4.25,-7.625 c -6.8818,2.78775 -13.28429,6.39939 -19.15625,10.65625 l 4.96875,7.3125 c -4.35745,3.26169 -8.37302,6.94433 -12,11 l -7.125,-5.5625 c -4.6853,5.19112 -8.80541,10.84915 -12.1875,16.96875 l 7.875,4.96875 c -2.98153,5.56749 -5.3715,11.51321 -7.09375,17.75 l -8.9375,-2.375 c -1.94572,7.26234 -3.07603,14.8138 -3.125,22.5625 l 8.875,2.125 c -0.007,0.46656 -0.0312,0.938 -0.0312,1.40625 l 0,15.5 -8.875,0 0,18.9375 8.875,0 0,18.1875 -8.875,0 0,18.9375 8.875,0 0,16.65625 -8.875,0 0,28.875 183.25,0 0,-28.875 -8.84375,0 0,-16.65625 8.84375,0 0,-18.9375 -8.84375,0 0,-18.1875 8.84375,0 0,-18.9375 -8.84375,0 0,-15.5 c 0,-0.46825 -0.0241,-0.93969 -0.0312,-1.40625 l 8.84375,-2.125 c -0.049,-7.74867 -1.14803,-15.30019 -3.09375,-22.5625 l -8.9375,2.375 c -1.72609,-6.25076 -4.13413,-12.20301 -7.125,-17.78125 l 7.90625,-4.96875 c -3.37955,-6.11075 -7.50817,-11.75301 -12.1875,-16.9375 l -7.125,5.5625 c -3.62698,-4.05567 -7.64255,-7.73831 -12,-11 l 4.96875,-7.3125 c -5.87356,-4.25874 -12.27211,-7.86756 -19.15625,-10.65625 l -4.25,7.625 c -5.4322,-2.16727 -11.16764,-3.78481 -17.15625,-4.75 l 0,-8.59375 c -4.37414,-0.6259 -8.84818,-1.0625 -13.4375,-1.0625 z"
             style="color:#000000;fill:#d7b369;fill-opacity:1;stroke:#000000;stroke-width:3;stroke-linecap:butt;stroke-linejoin:miter;stroke-miterlimit:4;stroke-opacity:1;stroke-dasharray:none;stroke-dashoffset:0;marker:none;visibility:visible;display:inline;overflow:visible;enable-background:accumulate" />
          <path
             sodipodi:nodetypes="cszscc"
             inkscape:connector-curvature="0"
             id="path3783"
             d="m 372.71172,549.08429 c 0,0 0,-57.40393 0,-95.36619 0,-37.96226 -27.38289,-69.2253 -63.60458,-69.2253 -36.22167,0 -63.60457,31.26304 -63.60457,69.2253 0,37.96226 0,95.36619 0,95.36619 z"
             style="color:#000000;fill:#00418f;fill-opacity:1;stroke:#000000;stroke-width:3;stroke-linecap:butt;stroke-linejoin:miter;stroke-miterlimit:4;stroke-opacity:1;stroke-dasharray:none;stroke-dashoffset:0;marker:none;visibility:visible;display:inline;overflow:visible;enable-background:accumulate" />
        </g>
        <g
           id="g3777">
          <path
             transform="matrix(1.1170652,0,0,1.1170652,-36.584651,-61.495812)"
             d="m 356.07144,470.39789 c 0,25.74041 -20.86673,46.60714 -46.60715,46.60714 -25.74041,0 -46.60714,-20.86673 -46.60714,-46.60714 0,-25.74042 20.86673,-46.60715 46.60714,-46.60715 25.74042,0 46.60715,20.86673 46.60715,46.60715 z"
             sodipodi:ry="46.607143"
             sodipodi:rx="46.607143"
             sodipodi:cy="470.39789"
             sodipodi:cx="309.46429"
             id="path3775"
             style="color:#000000;fill:#d7b369;fill-opacity:1;stroke:#000000;stroke-width:2.68560863;stroke-linecap:square;stroke-linejoin:miter;stroke-miterlimit:4;stroke-opacity:1;stroke-dasharray:none;stroke-dashoffset:0;marker:none;visibility:visible;display:inline;overflow:visible;enable-background:accumulate"
             sodipodi:type="arc" />
          <g
             id="g3771">
            <path
               style="color:#000000;fill:#000000;stroke:none;stroke-width:1;marker:none;visibility:visible;display:inline;overflow:visible;enable-background:accumulate"
               d="m 308.92857,418.07647 c 0,0 -16.33928,-0.26786 -23.30357,7.5 -6.96428,7.76785 -15.26786,30.26785 -15.26786,30.26785 0,0 -6.70733,3.74772 -5.94971,10.18744 0.75761,6.43973 3.59867,7.95495 3.59867,7.95495 l 1.13642,-0.56821 c 0,0 0.94702,1.13643 2.08344,1.70464 0,0 2.46225,-1.51523 3.40926,-3.40927 l 0.56821,5.3033 c 0,0 2.08344,-1.13642 2.84106,-3.59867 l 0.75761,5.3033 c 0,0 1.51523,-0.1894 2.46225,-0.94701 0,0 3.21986,11.55362 7.19734,17.23572 l 1.70463,-1.32582 c 0,0 0.94702,7.95495 7.95495,11.36422 0,0 1.51523,-1.01016 2.65165,-0.15784 1.13642,0.85232 3.21986,1.23112 3.21986,1.23112 0,0 1.70463,-0.75761 2.65165,-1.23112 0.94702,-0.47351 2.17814,-0.28411 2.17814,-0.28411 0,0 1.04172,0.75762 1.89404,1.42053 0,0 4.90839,-0.005 8.65839,-2.14745 3.75,-2.14286 8.03572,-9.50893 8.70536,-12.45536 0.66964,-2.94643 1.875,-4.82143 1.875,-4.82143 l 0.53571,2.54465 c 0,0 4.28572,-4.41965 4.55357,-8.03572 l 1.875,1.33929 1.20536,-1.875 0.53572,3.08035 c 0,0 5.08928,-1.60714 6.42857,-6.02678 0.13393,0.40178 1.33928,1.20536 1.60714,2.8125 0,0 5.35714,-1.07143 4.55357,-8.03572 -0.80357,-6.96428 -7.5456,-20.26465 -7.5456,-20.26465 0,0 -1.89403,-18.56156 -8.52316,-25.38009 -6.62912,-6.81853 -18.18274,-9.65958 -21.4026,-9.65958 -3.21987,0 -4.85007,0.97397 -4.85007,0.97397 z"
               id="path3765"
               inkscape:connector-curvature="0" />
            <path
               style="color:#000000;fill:#fedeb7;fill-opacity:1;stroke:none;stroke-width:1;marker:none;visibility:visible;display:inline;overflow:visible;enable-background:accumulate"
               d="m 328.86779,447.59648 c -8.14436,-5.3033 -18.75096,-15.15229 -18.75096,-15.15229 -7.03563,7.88233 -14.13709,7.82964 -21.0238,13.44766 l 0,5.87151 c 0,0 2.65165,-0.75762 6.43972,-2.65165 3.78808,-1.89404 10.60661,2.65165 10.60661,2.65165 l 0,7.00793 c 0,0 -2.46225,-0.12627 -4.54569,0.63135 -2.08344,0.75761 -7.19734,0.1894 -8.14435,-1.98874 0,0 2.27284,0.75761 5.6821,0.47351 3.40927,-0.28411 4.45099,-2.65165 4.45099,-2.65165 0,0 -4.54569,-2.55695 -8.90197,-2.46225 -4.35628,0.0947 -5.68211,1.32583 -5.68211,1.32583 0,0 0.10881,7.01284 2.11774,9.95927 2.00893,2.94643 1.875,5.08929 1.875,5.08929 l -1.74107,0.13392 c 0,0 1.47322,8.97322 2.67857,10.17858 1.20536,1.20535 6.42857,-1.74108 8.97322,-2.8125 2.54464,-1.07143 3.48214,-0.40179 5.49107,0.40178 2.00893,0.80357 4.01786,-0.26786 3.21428,-4.41964 -0.80357,-4.15179 -0.66964,-14.73214 0.66965,-19.95536 0,0 2.8125,-3.08036 7.36607,-2.41071 4.55357,0.66964 8.57143,3.88393 8.57143,3.88393 0,0 0.63736,-4.39748 0.6535,-6.55142 z m -14.716,9.09606 c 0,0 1.875,-2.67857 7.23214,-2.8125 5.35714,-0.13393 6.42857,2.8125 6.42857,2.8125 0,0 -0.66964,7.76786 -3.88393,12.1875 0,0 0.80357,3.88393 -0.9375,6.83036 -1.74107,2.94642 -2.27678,2.27678 -3.75,1.20535 -1.47321,-1.07143 -4.6875,-0.9375 -4.6875,-0.9375 0,0 -0.53571,-2.67857 -1.20535,-7.76785 -0.66965,-5.08929 0.9375,-8.83929 0.9375,-8.83929 0,0 1.74107,1.20536 5.75892,0.9375 4.01786,-0.26786 4.55358,-3.08036 4.55358,-3.08036 0,0 -3.34822,1.07143 -6.42858,1.47322 -3.08035,0.40178 -4.01785,-2.00893 -4.01785,-2.00893 z m -10.71429,27.32143 c 0,0 0.80357,-1.47322 4.55357,-1.07143 3.75,0.40178 7.63393,-0.13393 7.63393,-0.13393 0,0 0.53572,2.94643 -4.15178,2.67857 -4.6875,-0.26786 -8.03572,-1.47321 -8.03572,-1.47321 z"
               id="path3767"
               inkscape:connector-curvature="0"
               sodipodi:nodetypes="ccc" />
          </g>
        </g>
      </g>
    </g>
  </g>
</svg>
