<?xml version="1.0" encoding="utf-8"?>
<!-- Generator: Adobe Illustrator 15.0.1, SVG Export Plug-In . SVG Version: 6.00 Build 0)  -->
<!DOCTYPE svg PUBLIC "-//W3C//DTD SVG 1.1//EN" "http://www.w3.org/Graphics/SVG/1.1/DTD/svg11.dtd">
<svg version="1.1" id="Layer_1" xmlns="http://www.w3.org/2000/svg" xmlns:xlink="http://www.w3.org/1999/xlink" x="0px" y="0px"
	 width="488px" height="578px" viewBox="0 0 488 578" enable-background="new 0 0 488 578" xml:space="preserve">
<path stroke="#000000" stroke-width="0.0938" d="M7.6,7c157.9,0,315.9,0,473.8,0c0.199,110.3,0,220.7,0.1,331
	c-0.4,40.199-11.5,80.199-31.6,114.899c-17.4,30.101-41.4,56.3-69.9,76.2c-32.1,22.6-69.9,37-108.9,41.3
	c-38.3,4.4-77.6-0.8-113.399-15c-37-14.7-70.2-38.8-95.6-69.5C27.5,444.5,7.7,391,7.5,337C7.6,227,7.4,117,7.6,7"/>
<path fill="#ED1C24" stroke="#ED1C24" stroke-width="0.0938" d="M14.9,14.3c153.1,0,306.1,0,459.2,0
	c0.301,100.2,0.101,200.5,0.2,300.7c-0.2,12.6,0.4,25.3-0.7,37.899c-2.899,37.3-15.199,73.7-35.5,105.2
	c-18.8,29.4-44.399,54.6-74.199,72.8c-33,20.3-71.2,32-110,33.5c-40.101,1.8-80.601-7.399-116-26.2c-35.3-18.6-65.6-46.5-87-80.1
	C28.1,422.699,15.4,381,14.7,339c0-60,0-120,0-180C14.8,110.8,14.5,62.5,14.9,14.3 M228.1,88.1c-26,22.101-35.3,61.8-21.2,93
	c8.6,19.7,24.5,34.9,40.4,48.9c-9,10.899-19,20.899-26.4,32.899c-8.7,14.5-18.9,28-27.6,42.4c-2.7,3.8-1.6,8.399-0.4,12.6
	c-1.7,1.601-3.2,3.2-4.8,5c-4.8-14.5-6.7-29.699-7.1-44.899c0-8.3-0.3-16.7,2.3-24.7c1.4-4.9,4.2-9.2,6-14
	c2.4-6.1,4.6-13.1,1.9-19.5c-2.9-6.9-9.9-11.1-16.8-13.3c-11.1-3.7-22.9-3.8-34.5-3.4c-19.8,1.2-39.3,6-57.9,12.9
	c-16.7,6.5-32.9,14.7-46.4,26.6c-6.4,5.9-12.6,12.8-14.6,21.5c-1.4,5.8,0.2,12.3,4.4,16.5c3.6,3.4,7.8,6.2,11.9,9
	c5.6,3.3,10.1,7.9,14.5,12.5C64.7,315.3,76.2,329.8,85,346c11.6,19.3,24.2,38,38.4,55.6c8.2,9.4,17.6,17.9,27.7,25.3
	c21.2,15.601,46.4,25.4,72.3,29.5c27.7,4.3,56.4,3.4,83.4-4.6c35.7-10.5,67.101-32.8,91.3-60.7c6.301-7.9,11.601-16.6,16.601-25.4
	c9.7-17.3,18.1-35.399,24.8-54.1c6.8-18.899,12.3-38.399,13-58.5c-0.3-3.1,3.5-3.6,5.3-5.3c4-2.8,5.5-8.5,3.2-12.9
	c-3-5.8-9.5-8.8-15.6-10.199c-6.801-1.301-14.301-1.2-20.5,2.199c-3.7,1.9-6.7,5.801-6.4,10.101c-0.1,3.5,2.5,6.1,3.8,9.1
	c-0.3,4.2-1.8,8.2-3,12.2c-4.3,12.5-9.899,24.4-16.1,36c-5.4,10.2-12.7,19.3-19.5,28.6c-1.9-2.3-4.101-4.3-6.2-6.399
	c-0.7-4-1.3-8-3.5-11.5c-7.3-13.3-16-25.8-25.3-37.8c-13.7-16.301-29.9-30.5-47-43.301c9.3-12.1,19.5-23.5,27.899-36.3
	c9.5-15.6,14.2-34.1,13-52.399C340.9,120.3,333.2,106.6,323.4,95.6C310.7,81.4,292.1,72.4,273,72.5C256.8,72,240.4,77.6,228.1,88.1z
	 M247.7,120.7c10.6-11.601,29.5-14.4,43.1-6.601c8.601,5,13,14.601,15.2,23.9c1.8,7.2,0,14.6-2.7,21.3
	c-4.399,10.8-11.1,20.6-18.399,29.6c-3.7,4.301-7.301,8.801-11.7,12.5c-12.101-8.3-22.3-19.199-29.9-31.699
	C233.6,154.8,235.7,133.7,247.7,120.7z M245.5,291.5c9.1-13.8,19.9-26.4,30.7-39c11.2,6.899,20.6,16.2,30.1,25.2
	c13.2,12.699,23.8,27.699,34.601,42.499c2.699,4,5.8,7.7,8,12.101c1.3,4.1,0.699,8.8,3.399,12.399c2.101,3.101,6,4,9.3,5.2
	c-17.899,16.8-41.8,27.8-66.6,28.101c-13.3,0-26.8-1.101-39.8-4.101c-16.5-3.7-32.4-11.399-44.3-23.5c3.1-1.399,6.9-2.6,8.7-5.8
	c2.7-4.7,1.9-10.2,2.1-15.3C228.8,316.199,237.2,303.9,245.5,291.5z M199.3,327.199c1.8-0.199,3.2,1.2,4.7,1.801
	c2.3,1.399,5.1,1.699,7.3,3.199c0.6,2.5-0.6,4.9-1.4,7.2c-1.6-2.1-2.7-4.7-4.9-6.3c-2.2-1.3-4.9-1-7.3-1.4
	C197.8,330.1,197.9,328.199,199.3,327.199z M359.7,334.4c4.6-2.3,8.7-5.399,13.2-7.6c0.3,1.3,0.5,2.6,0.8,3.899
	c-2.2,0.601-4.8,0.801-6.601,2.4c-1.5,1.8-2,4.2-3.3,6.1C361.2,339.1,360.2,336.5,359.7,334.4z"/>
<path fill="#E7E7E8" stroke="#E7E7E8" stroke-width="0.0938" d="M232.7,90.7C248.2,78,270.1,74.2,289.2,79.6
	c16.1,4.4,29.7,15.7,38.5,29.601C334.1,119.3,338.8,131,338,143.1c-0.5,15.3-5.3,30.5-13.5,43.4c-8.1,11.7-17.3,22.7-26.2,33.7
	c-16.5,18-32.5,36.399-47.6,55.5c-10.1,13.8-19.5,28.1-28.4,42.6c-1.9,2.899-2.8,6.8-6.2,8.2c1.8-4.601,4.7-8.801,7.3-13.101
	c8.3-13.2,17.1-26.199,26.1-38.899c8.5-12.3,18.6-23.4,28.6-34.5c16.4-17.3,31.101-36.4,45.101-55.8
	c6.5-9.2,10.5-20.101,11.7-31.301c0.699-7.8,1.399-16-1-23.699c-4.301-14.2-13.5-26.7-25-36.101C297.8,84.1,283.5,78.7,269,79.4
	c-14.9,0.5-29.2,7.4-39.4,18.2c-14.4,15.101-22.1,36.2-21.3,57c0.8,17,8.8,32.7,19.5,45.601c7.4,9.199,16.5,16.8,25.4,24.399
	c-0.601,0.5-1.7,1.601-2.3,2.101c-15.5-13.4-30.8-28.2-39.3-47.101C197.6,149.7,207.2,111.3,232.7,90.7z M247.7,87.7
	C261,81,277.2,80.3,291,85.9c13.7,5.4,25,15.9,32.9,28.301c5.3,8.6,9.5,18.5,8.899,28.8c-0.1,13.8-3.6,27.8-11.7,39.2
	c-10.899,15.199-22.399,30-34.6,44.3C272.6,242,258,257,246.2,274.2c-9.7,13.8-19.2,27.699-28,42.1c-2,3.399-4,7-5.7,10.6
	c-6.2-0.399-10.9-4.8-14.1-9.7c14.6-23.699,28.9-47.699,46.7-69.1c7.301-9,14.801-17.899,22.601-26.399
	C281,207.6,294.3,193.2,304.6,176.6c6.5-10.7,12.2-22.8,11.4-35.7c-0.6-10.5-4.8-21.1-12.3-28.6c-11.101-10.9-28.2-15-43.101-10.6
	c-11.399,3.399-21.1,11.6-27.2,21.699C227.6,132.7,225,144.3,228,155c4.7,22.6,20.3,41.3,38.9,54.3c-3.9,4.3-7.801,8.6-11.801,12.9
	C238.2,209,222.2,192.9,214.7,172.3c-6.2-16.7-4.1-35.6,3-51.7C223.8,106.9,234,94.5,247.7,87.7z M257,106
	c17.7-8,41.2-0.9,50.7,16.3c5.5,9.7,7.2,21.7,3.899,32.4c-3.3,11.5-9.8,21.6-16.8,31.199c-9.1,12.4-19.5,23.7-30.1,34.801
	C253.2,233.6,242.1,246.9,231.6,260.6c-10,13.9-19.1,28.4-28.1,42.8c-2.4,3.601-4.3,7.5-7.1,10.7c0-2-0.4-4.2,0.8-5.9
	c8.5-13.999,18.4-27.1,26.9-41.1c6.4-10.6,14.6-19.899,22.8-29.1c9.3-10.7,19-21.101,28.5-31.601
	c11.699-11.899,22.699-24.899,30.1-40c3.7-7.899,6.7-16.6,5.9-25.399c-1.7-12.9-8.2-26.3-20.301-32.2c-14.6-7-33.6-4.4-45.3,6.9
	c-14.5,13.899-17.6,37.8-7.5,55c7.8,14.1,19.7,25.5,32.4,35.199c-1,0.9-2.101,0.9-3.101,0.301C250.9,194.4,236.7,177.7,231.6,157.6
	c-1.9-6.5-3-13.399-1.1-20.1C234,123.8,244,111.7,257,106z M134.4,208.3c13.8-1,28.3-1.4,41.4,3.9c5.8,2.3,11.8,7,11.9,13.8
	c-0.3,7.3-4.1,13.899-7.2,20.399c-5,7-12.1,12.2-19.2,16.9c-15.9,10.2-33.8,17.1-52.1,21.7c-15.4,3.8-31.3,6.1-47.1,5.399
	C55.9,290,49.7,289.2,43.8,287.2c-4.7-1.5-8.3-5-12.3-7.7s-6.8-7.5-6.2-12.4c1-7.2,5.8-13.1,10.7-18.1
	C47.9,237.4,62.7,229.3,77.9,222.9C95.9,215.4,114.9,210.3,134.4,208.3 M137.4,210.4c-25.8,2.101-50.8,10.5-73.7,22.4
	c-8.6,4.6-17,9.9-24.1,16.8c-4.7,4.7-9.1,10.601-9.4,17.5c-0.2,5.601,3.6,10.601,8.3,13.4c6.5,3.899,14.3,5.3,21.8,6
	c18.7,1.5,37.5-1.7,55.4-6.9c15.7-4.7,31-11.2,44.7-20.3c7.4-5,14.5-10.8,19.6-18.3c3.3-5,5.7-11.5,3.3-17.4
	c-2.4-5.7-8.4-8.899-14-10.8C159,209.7,148,209.6,137.4,210.4z M135.4,213.3c11.7-1,24-1.2,35.3,3c5,2,10.4,5.8,10.8,11.7
	c0.3,6.7-4.1,12.399-8.4,17.1c-10.9,11.2-24.8,18.9-39,25c-18.1,7.601-37.4,12.4-57,13.8c-11.6,0.5-23.7,0.4-34.5-4.399
	c-4.9-2.2-9.8-6.7-9.6-12.5c0.3-6.7,5.1-11.9,9.7-16.3c9.4-8.801,20.9-15,32.5-20.5C94.3,221.7,114.5,215.4,135.4,213.3z
	 M297.2,227.3c4.399,2.2,8.1,5.5,12,8.5c12.7,10.5,25.1,21.6,35.6,34.3c8.101,10.4,15.7,21.3,22.4,32.6c2,3.7,4.5,7.2,5.1,11.4
	c-13.6-21-26.899-42.8-45.7-59.7C316.9,245.5,307,236.9,296,229.6C296.3,229,296.9,227.9,297.2,227.3z M430.4,229.5
	c6.899-2,14.6-1.2,20.899,2.2c2.7,1.699,5.8,3.899,6.2,7.3c0.4,3.1-2.4,5.3-4.8,6.6c-6.4,3.101-14.101,2.7-20.7,0.2
	c-3.7-1.5-7.7-3.9-8.9-8C422.1,233.4,426.8,230.7,430.4,229.5 M434.4,234.4c-2.4,1.101-2.601,5.2,0.1,6.101c2.4,1,5,0.899,7.5,1.3
	c2.3,0.1,5.2,0.9,6.9-1.2c1.5-2.7-1.5-5-3.801-5.6C441.7,234,437.8,233.5,434.4,234.4z M282.5,244.3c3.8-4.2,7.6-8.6,11.5-12.7
	c14.3,9.8,27.4,21.4,39.7,33.7c7.6,8.2,14.1,17.4,20.6,26.5c6.101,8.8,12.101,17.8,17.101,27.3c-2.7,5.5-8.4,8.2-13.601,10.9
	c-4.3-10-10.7-18.9-17.3-27.5c-8.3-10.9-17.2-21.4-26.5-31.5C304.7,260.8,293.9,252.1,282.5,244.3z M278.7,248.1
	c0.6-0.3,1.6-1,2.2-1.3c12.5,8.2,24,18.1,33.899,29.3c11.7,13.101,23.101,26.7,32.9,41.3c2.6,4.2,5.6,8.3,7,13.2
	c-0.601-0.5-1.7-1.6-2.2-2.1c-10.2-15-20.8-29.7-32.5-43.5C307.4,271.5,294.1,258.5,278.7,248.1z M426.9,248.6
	c6.5,3.2,13.8,4.2,20.899,3.5c-0.5,11.3-2,22.601-5.3,33.5c-6.6-6.2-15.2-9.899-24-11.6C422,265.8,425,257.4,426.9,248.6z
	 M151.6,274.5c9.1-4.601,17.8-10.2,25.5-16.9c-1.5,13.7-0.9,27.7,0.7,41.4c1.1,8.899,3.1,17.8,6.1,26.199
	c0.8,2.101-1.3,3.801-2.2,5.5c-7.9,10.2-18.4,17.9-29.4,24.601c-13.8,8.1-28.9,14.7-44.9,16.5c-7.5-11-14.9-22.2-21.4-33.8
	c-9.5-16.301-22-30.601-35.2-44c14,2.2,28.4,1.399,42.4-0.8C113.5,289.9,133.3,283.7,151.6,274.5z M417,277.4
	c9.1,1.601,18.3,5.5,24.5,12.5c-6,20.601-14.1,40.601-23.7,59.8c-6-11.899-17.2-20.399-29.5-24.699c6.101-8.5,12.7-16.801,17.8-26
	C410,292,413.6,284.7,417,277.4z M374.2,323.8c0.8-1.2,1.6-2.5,2.5-3.7c1.3,1.5,2.899,3,3.3,5.1c1,2.5-1.6,4.301-2.7,6.2
	C376.9,328.6,376.1,325.9,374.2,323.8z M194.6,333.699c-4.6-3-4.4-10.1,0.3-12.8c0.9,1.101,1.8,2.2,2.6,3.3
	C194.7,326.6,194.2,330.199,194.6,333.699z M384,329.9c2-1.8,4.4-0.1,6.5,0.601c10.3,4.5,19.7,12.3,24.1,22.899
	c0.9,1.7-0.6,3.4-1.1,5c-2.7-3.7-4.3-8.2-7.2-11.7C400.6,339.1,392.7,333.5,384,329.9z M214.6,331.3c0.9-0.101,2.6-0.2,3.5-0.3
	c0.3,3.899,0.3,8.1-1.5,11.6c-2,3.1-5.8,4.1-9.3,4.1c0.3-0.8,0.8-2.399,1.1-3.199C213.8,342,214.9,336.1,214.6,331.3z M156.1,358.1
	c11.5-7.3,22.8-15.7,30.7-26.9c0.3,0.601,1,2,1.3,2.7c-4.6,8.8-12.4,15.2-20.1,21.2c-15.9,11.7-34.2,21.2-53.9,24.1
	c-2.1,0.5-2.8-2.1-4-3.3C126.5,373.4,142,366.699,156.1,358.1z M379,337.199c1.4-1.899,2.8-3.8,4.2-5.6
	c12.5,4.3,22.5,14.4,27.899,26.4c0.301,1,1.2,2.3,0.5,3.399c-4,7.4-8.6,14.5-13.199,21.5c-6.301-13.6-16.7-25.899-30.801-31.7
	c1.801-1.8,3.601-3.5,5.4-5.3c-2.6-2.5-5-6.1-2.8-9.7C373.2,335.699,376.1,336.3,379,337.199z M353,335.199c1.2,0,2.5,0,3.7,0
	c0.7,1.9,1.1,4.101,2.6,5.5c1.601,1.4,3.9,1.7,5.9,2.2c0.3,0.9,0.5,1.9,0.8,2.9c-3.4,0.399-7,0.2-9.6-2.101
	C353.7,341.699,353.7,338.1,353,335.199z M158.6,363.5c11.6-7.4,23.3-16,30.5-28.101c1.3,1.3,2.6,2.5,3.9,3.7c3.4-1.2,8-4.5,11-0.8
	c1.1,3.6-1.7,6.7-3.4,9.6c1.4,1.3,2.7,2.601,4,3.9c-6,11.7-15.9,20.7-26.1,28.7c-14.1,10.699-30.3,19.8-48.2,21.6
	c-6-6.7-11.3-13.9-16.5-21.2C129.7,378.4,144.9,372,158.6,363.5z M363.8,354.4c0.601-0.5,1.8-1.399,2.5-1.899
	c14.3,5.6,25.3,18.199,30.9,32.3c-0.5,0.399-1.5,1.399-2,1.8C388.7,372.9,377.7,360.9,363.8,354.4z M208,354.9
	c0.6,0.3,1.7,1,2.2,1.4c-2,5.7-5.9,10.5-9.9,15c-10.2,11-22.3,20.399-35.5,27.6c-8.7,4.7-18.1,8.3-27.9,9.8
	c-0.9-0.899-1.7-1.8-2.6-2.6c13.7-2.4,26.5-8.3,38-15.8C186.2,380.9,199.7,369.699,208,354.9z M203.3,370.3
	c3.3-3.8,6-8.101,8.3-12.601c17,15,39.4,21.9,61.6,24c14,1.4,28.3,2,42-1.3c16.6-3.7,31.899-11.899,45-22.7
	c14.6,5.9,25.899,18.7,32,33c-11.101,11.801-23,22.9-36.4,32.101c-17.899,12.399-38,21.7-59.2,26.7c-25.6,6.1-52.5,6-78.399,1.1
	c-29.6-5.7-57.9-19.5-79.6-40.5c12.3-2.4,23.9-7.5,34.4-14.1C184.2,388.9,194.6,380.3,203.3,370.3z"/>
</svg>
