<?xml version="1.0" encoding="UTF-8" standalone="no"?>
<!-- Created with Inkscape (http://www.inkscape.org/) -->

<svg
   xmlns:dc="http://purl.org/dc/elements/1.1/"
   xmlns:cc="http://creativecommons.org/ns#"
   xmlns:rdf="http://www.w3.org/1999/02/22-rdf-syntax-ns#"
   xmlns:svg="http://www.w3.org/2000/svg"
   xmlns="http://www.w3.org/2000/svg"
   xmlns:xlink="http://www.w3.org/1999/xlink"
   xmlns:sodipodi="http://sodipodi.sourceforge.net/DTD/sodipodi-0.dtd"
   xmlns:inkscape="http://www.inkscape.org/namespaces/inkscape"
   width="477.875"
   height="579.25"
   id="svg2"
   version="1.1"
   inkscape:version="0.48.5 r10040"
   sodipodi:docname="Telšiai city.svg">
  <defs
     id="defs4" />
  <sodipodi:namedview
     id="base"
     pagecolor="#f6f3f1"
     bordercolor="#666666"
     borderopacity="1.0"
     inkscape:pageopacity="0"
     inkscape:pageshadow="2"
     inkscape:zoom="0.7"
     inkscape:cx="209.57879"
     inkscape:cy="361.19421"
     inkscape:document-units="px"
     inkscape:current-layer="layer1"
     showgrid="false"
     showborder="true"
     inkscape:window-width="1920"
     inkscape:window-height="1017"
     inkscape:window-x="-8"
     inkscape:window-y="-8"
     inkscape:window-maximized="1"
     showguides="true"
     inkscape:guide-bbox="true"
     inkscape:object-nodes="true"
     inkscape:snap-global="false"
     fit-margin-top="0"
     fit-margin-left="0"
     fit-margin-right="0"
     fit-margin-bottom="0"
     inkscape:showpageshadow="false" />
  <metadata
     id="metadata7">
    <rdf:RDF>
      <cc:Work
         rdf:about="">
        <dc:format>image/svg+xml</dc:format>
        <dc:type
           rdf:resource="http://purl.org/dc/dcmitype/StillImage" />
        <dc:title />
      </cc:Work>
    </rdf:RDF>
  </metadata>
  <g
     inkscape:label="Layer 1"
     inkscape:groupmode="layer"
     id="layer1"
     transform="translate(-75.71875,-244.15625)">
    <g
       id="g3874"
       transform="translate(5.8928571,-7.5)" />
    <g
       id="g4327">
      <path
         sodipodi:nodetypes="sccszs"
         inkscape:connector-curvature="0"
         id="path4314"
         d="m 550.59911,578.991 c 0,-148.49244 0,-331.83512 0,-331.83512 l -471.870799,0 c 0,0 0,183.34268 0,331.83512 0,148.49242 109.096479,241.42644 235.935399,241.42644 126.83892,0 235.9354,-92.93402 235.9354,-241.42644 z"
         style="color:#000000;fill:#00418f;fill-opacity:1;stroke:none;stroke-width:6;marker:none;visibility:visible;display:inline;overflow:visible;enable-background:accumulate" />
      <g
         id="g3850">
        <path
           id="path3846"
           d="m 331.75,702.1875 0,117.65625 C 411.11535,814.55854 481.67447,772.5207 520.0625,703.28125 520.04521,703.00783 520,702.1875 520,702.1875 l -188.25,0 z"
           style="color:#000000;fill:#88470d;fill-opacity:1;stroke:#000000;stroke-width:2;stroke-linecap:butt;stroke-linejoin:miter;stroke-miterlimit:4;stroke-opacity:1;stroke-dasharray:none;stroke-dashoffset:0;marker:none;visibility:visible;display:inline;overflow:visible;enable-background:accumulate"
           inkscape:connector-curvature="0" />
        <path
           style="color:#000000;fill:none;stroke:#000000;stroke-width:2;stroke-linecap:butt;stroke-linejoin:miter;stroke-miterlimit:4;stroke-opacity:1;stroke-dasharray:none;stroke-dashoffset:0;marker:none;visibility:visible;display:inline;overflow:visible;enable-background:accumulate"
           d="m 331.74239,702.18361 22.00761,24.10714 149.46429,0 m -149.46429,0 0,68.57143"
           id="path3848"
           inkscape:connector-curvature="0"
           sodipodi:nodetypes="ccccc" />
        <path
           sodipodi:nodetypes="ccc"
           inkscape:connector-curvature="0"
           id="path3854"
           d="m 347.77909,708.25886 11.27421,12.34978 149.46429,0 7.67036,-12.34978 z"
           style="color:#000000;fill:#000000;stroke:none;stroke-width:2;marker:none;visibility:visible;display:inline;overflow:visible;enable-background:accumulate" />
      </g>
      <g
         id="g4106">
        <path
           id="path4309"
           d="m 281.0625,259.21875 c -33.10636,0 -59.9375,26.83114 -59.9375,59.9375 0,33.10636 26.83114,59.9375 59.9375,59.9375 33.10636,0 59.96875,-26.83114 59.96875,-59.9375 0,-33.10636 -26.86239,-59.9375 -59.96875,-59.9375 z m 0,5.3125 c 30.16013,0 54.625,24.46487 54.625,54.625 0,30.16013 -24.46487,54.59375 -54.625,54.59375 -30.16013,0 -54.59375,-24.43362 -54.59375,-54.59375 0,-30.16013 24.43362,-54.625 54.59375,-54.625 z"
           style="color:#000000;fill:#d7b369;fill-opacity:1;stroke:#000000;stroke-width:2.11124849;stroke-linecap:square;stroke-linejoin:miter;stroke-miterlimit:4;stroke-opacity:1;stroke-dasharray:none;stroke-dashoffset:0;marker:none;visibility:visible;display:inline;overflow:visible;enable-background:accumulate"
           inkscape:connector-curvature="0" />
        <g
           id="g4305">
          <path
             style="color:#000000;fill:#fdd5a4;fill-opacity:1;stroke:#000000;stroke-width:2;stroke-linecap:butt;stroke-linejoin:miter;stroke-miterlimit:4;stroke-opacity:1;stroke-dasharray:none;stroke-dashoffset:0;marker:none;visibility:visible;display:inline;overflow:visible;enable-background:accumulate"
             d="m 281.12559,366.84813 c 0,0 -2.31881,14.52928 -8.21167,21.22571 0,0 -3.27705,-1.4212 -4.63202,-2.42975 -3.01003,3.19903 -0.97886,6.05899 -4.97833,7.07523 l -0.97958,1.14967 c 0,0 0.56821,2.84106 -3.03046,3.03046 0,0 -1.13642,1.89404 -1.70463,4.16688 -0.56821,2.27284 -2.65165,3.59867 -5.3033,1.70463 -2.65165,-1.89404 -6.06092,-3.97747 -6.06092,-3.97747 0,0 -2.84105,4.35628 -3.21986,6.25031 -0.37881,1.89404 -9.47018,-3.59866 -9.47018,-3.59866 l -14.39467,-16.09931 5.1139,-8.33376 30.87278,-29.16815 23.48605,6.06091 5.74386,8.26704 z"
             id="path4254"
             inkscape:connector-curvature="0"
             sodipodi:nodetypes="ccccccsscsccccccc" />
          <path
             style="color:#000000;fill:none;stroke:#000000;stroke-width:1.5;stroke-linecap:butt;stroke-linejoin:miter;stroke-miterlimit:4;stroke-opacity:1;stroke-dasharray:none;stroke-dashoffset:0;marker:none;visibility:visible;display:inline;overflow:visible;enable-background:accumulate"
             d="m 234.01786,382.54075 c 0,0 3.9394,10.47893 13.04654,16.63964"
             id="path4256"
             inkscape:connector-curvature="0"
             sodipodi:nodetypes="cc" />
        </g>
        <path
           inkscape:connector-curvature="0"
           id="path4223"
           d="M 369.96875,353.96875 268,759.84375 l 11.625,2.9375 101.96875,-405.90625 -11.625,-2.90625 z"
           style="font-size:medium;font-style:normal;font-variant:normal;font-weight:normal;font-stretch:normal;text-indent:0;text-align:start;text-decoration:none;line-height:normal;letter-spacing:normal;word-spacing:normal;text-transform:none;direction:ltr;block-progression:tb;writing-mode:lr-tb;text-anchor:start;baseline-shift:baseline;color:#000000;fill:#d9dadc;fill-opacity:1;stroke:#000000;stroke-width:2;stroke-miterlimit:4;stroke-opacity:1;stroke-dasharray:none;marker:none;visibility:visible;display:inline;overflow:visible;enable-background:accumulate;font-family:Sans;-inkscape-font-specification:Sans" />
        <g
           id="g4128">
          <path
             style="color:#000000;fill:#fdd5a4;fill-opacity:1;stroke:#000000;stroke-width:2;stroke-linecap:butt;stroke-linejoin:miter;stroke-miterlimit:4;stroke-opacity:1;stroke-dasharray:none;stroke-dashoffset:0;marker:none;visibility:visible;display:inline;overflow:visible;enable-background:accumulate"
             d="m 317.5,517.09432 c 0,0 1.06625,4.72598 6.16071,5.62501 4.55357,0.80357 7.23215,-2.14286 7.23215,-2.14286 0,0 4.01785,3.48214 9.64285,3.75 5.625,0.26785 8.57143,-2.41072 6.16072,-6.42857 0,0 3.21428,-1.33929 2.41071,-6.16072 0,0 3.21429,-2.94643 1.33929,-7.23214 0,0 3.48214,-2.94643 1.07143,-7.5 0,0 3.21428,-1.875 4.01785,-6.69643 l -6.42857,-2.14286 c 0,0 -13.66071,-1.60714 -17.41071,-0.26785 -3.75,1.33928 -9.10714,6.16071 -9.10714,6.16071 z"
             id="path4124"
             inkscape:connector-curvature="0"
             sodipodi:nodetypes="cscsccccccscc" />
          <path
             style="color:#000000;fill:none;stroke:#000000;stroke-width:1.5;stroke-linecap:butt;stroke-linejoin:miter;stroke-miterlimit:4;stroke-opacity:1;stroke-dasharray:none;stroke-dashoffset:0;marker:none;visibility:visible;display:inline;overflow:visible;enable-background:accumulate"
             d="m 352.88964,495.47635 c -2.96397,2.20636 -5.99115,1.29413 -9.36154,0.91452 -3.47049,-0.39088 -6.47453,7.04274 -11.0281,10.25703 -4.55357,3.21428 -11.78571,2.41071 -13.125,1.07142 m 11.44996,12.22934 c 0,0 -1.13642,-2.84106 1.32582,-4.73509 0,0 -2.65165,-3.59867 0.56821,-6.25032 0,0 -0.11095,-1.78309 0.64667,-2.91952 m -1.56118,8.8465 c 0,0 5.48876,4.62415 15.33217,2.73011 m -14.22825,-8.8465 c 0,0 7.72911,3.26188 16.50109,2.46225 m -13.11481,-8.08888 c 0,0 6.84151,2.40677 14.03885,1.27035"
             id="path4126"
             inkscape:connector-curvature="0"
             sodipodi:nodetypes="cssccccccccccc" />
        </g>
        <g
           id="g4086">
          <path
             style="color:#000000;fill:#e30016;fill-opacity:1;stroke:none;stroke-width:2;marker:none;visibility:visible;display:inline;overflow:visible;enable-background:accumulate"
             d="m 272.67857,493.72576 50.35714,0 c 0,0 -8.38063,65.75812 -53.57752,88.41041 z"
             id="path4047"
             inkscape:connector-curvature="0"
             sodipodi:nodetypes="cccc" />
          <path
             inkscape:connector-curvature="0"
             style="color:#000000;fill:#d7b369;fill-opacity:1;stroke:#000000;stroke-width:1.5;stroke-linecap:butt;stroke-linejoin:miter;stroke-miterlimit:4;stroke-opacity:1;stroke-dasharray:none;stroke-dashoffset:0;marker:none;visibility:visible;display:inline;overflow:visible;enable-background:accumulate"
             d="m 317.6875,493.71875 c 0,0 -7.67731,55.2793 -47.90625,79.90625 l -0.3125,8.5 c 45.19689,-22.65229 53.5625,-88.40625 53.5625,-88.40625 l -5.34375,0 z"
             id="path4069" />
          <path
             sodipodi:nodetypes="cccc"
             inkscape:connector-curvature="0"
             id="path4072"
             d="m 272.67857,493.72576 50.35714,0 c 0,0 -8.38063,65.75812 -53.57752,88.41041 z"
             style="color:#000000;fill:none;stroke:#000000;stroke-width:2;stroke-linecap:butt;stroke-linejoin:miter;stroke-miterlimit:4;stroke-opacity:1;stroke-dasharray:none;stroke-dashoffset:0;marker:none;visibility:visible;display:inline;overflow:visible;enable-background:accumulate" />
        </g>
        <g
           id="g4155">
          <path
             style="color:#000000;fill:#e30016;fill-opacity:1;stroke:#000000;stroke-width:2;stroke-linecap:butt;stroke-linejoin:miter;stroke-miterlimit:4;stroke-opacity:1;stroke-dasharray:none;stroke-dashoffset:0;marker:none;visibility:visible;display:inline;overflow:visible;enable-background:accumulate"
             d="m 213.90625,590.3125 -78.8125,78.9375 -7.46875,31.59375 8.74559,5.3033 107.64267,1.00918 24.36174,-6.31248 -2.1875,-36.875 z"
             id="path4132"
             inkscape:connector-curvature="0"
             sodipodi:nodetypes="cccccccc" />
          <path
             style="color:#000000;fill:#d9dadc;fill-opacity:1;stroke:#000000;stroke-width:2;stroke-linecap:butt;stroke-linejoin:miter;stroke-miterlimit:4;stroke-opacity:1;stroke-dasharray:none;stroke-dashoffset:0;marker:none;visibility:visible;display:inline;overflow:visible;enable-background:accumulate"
             d="m 268.375,700.84375 -140.75,0 -5.40625,22.96875 34.875,40.90625 58.3125,14.40625 43.9375,-6.0625 12.125,-19.71875 z"
             id="path4137"
             inkscape:connector-curvature="0"
             sodipodi:nodetypes="cccccccc" />
          <path
             inkscape:connector-curvature="0"
             id="path4139"
             d="m 157.07872,700.07148 3.03046,-43.18402 m 59.85154,43.94164 0,-90.91373 m 30.30457,90.91373 -0.75761,-50.76017 m -81.29339,50.50754 -4.82143,56.25 M 209.46429,701.11218 210,751.46933 m 27.32143,-50.89286 1.07143,64.82143 M 255,701.11218 l 4.28571,53.57143 m -116.25,-54.10714 -5.89285,41.25"
             style="color:#000000;fill:none;stroke:#000000;stroke-width:1.5;stroke-linecap:butt;stroke-linejoin:miter;stroke-miterlimit:4;stroke-opacity:1;stroke-dasharray:none;stroke-dashoffset:0;marker:none;visibility:visible;display:inline;overflow:visible;enable-background:accumulate" />
          <path
             sodipodi:nodetypes="czczcczczcczczccczczccczczcc"
             inkscape:connector-curvature="0"
             id="path4141"
             d="m 213.53125,597.6875 c 0,0 -0.70833,23.39583 -1.0625,35.09375 -0.35417,11.69792 -0.3125,35.10935 -0.3125,35.10935 0,0 1.45833,-23.36982 1.8125,-35.06253 0.35417,-11.6927 1.0625,-35.07812 1.0625,-35.07812 m 26.375,45.4688 c 0,0 -0.71875,15.35417 -1.07813,23.03125 C 239.96875,673.92708 240,689.3281 240,689.3281 c 0,0 1.46875,-15.31773 1.82812,-23.00003 0.35938,-7.68229 1.07813,-23.04687 1.07813,-23.04687 M 153,700.46875 c 0,0 -1.60417,10.53125 -2.40625,15.79687 -0.80208,5.26563 -1.67188,15.90625 -1.67188,15.90625 0,0 2.34896,-10.42187 3.15625,-15.6875 0.8073,-5.26562 2.42188,-15.79687 2.42188,-15.79687 z m 108.21875,0.1562 c 0,0 0.70833,10.53125 1.0625,15.79687 0.35417,5.26563 1.8125,15.75003 1.8125,15.75003 0,0 0.0417,-10.5781 -0.3125,-15.84373 -0.35417,-5.26562 -1.0625,-15.79687 -1.0625,-15.79687 z m -35.375,-0.0313 c 0,0 0.1875,10.53125 0.28125,15.79688 0.0937,5.26562 1.03125,15.78127 1.03125,15.78127 0,0 0.5625,-10.54685 0.46875,-15.81248 -0.0937,-5.26562 -0.28125,-15.79687 -0.28125,-15.79687 z"
             style="font-size:medium;font-style:normal;font-variant:normal;font-weight:normal;font-stretch:normal;text-indent:0;text-align:start;text-decoration:none;line-height:normal;letter-spacing:normal;word-spacing:normal;text-transform:none;direction:ltr;block-progression:tb;writing-mode:lr-tb;text-anchor:start;baseline-shift:baseline;color:#000000;fill:#000000;fill-opacity:1;stroke:none;stroke-width:1.5;marker:none;visibility:visible;display:inline;overflow:visible;enable-background:accumulate;font-family:Sans;-inkscape-font-specification:Sans" />
        </g>
        <g
           id="g4091">
          <path
             style="color:#000000;fill:#e30016;fill-opacity:1;stroke:none;stroke-width:2;marker:none;visibility:visible;display:inline;overflow:visible;enable-background:accumulate"
             d="m 274.28571,477.00504 0,196.54994 c 0,0 -46.74885,-31.06219 -61.14352,-80.30713 -14.39468,-49.24494 61.14352,-116.24281 61.14352,-116.24281 z"
             id="path4045"
             inkscape:connector-curvature="0" />
          <path
             style="color:#000000;fill:#d7b369;fill-opacity:1;stroke:#000000;stroke-width:1.5;stroke-linecap:butt;stroke-linejoin:miter;stroke-miterlimit:4;stroke-opacity:1;stroke-dasharray:none;stroke-dashoffset:0;marker:none;visibility:visible;display:inline;overflow:visible;enable-background:accumulate"
             d="m 213.15625,593.25 c 14.39467,49.24494 61.125,80.3125 61.125,80.3125 l 0,-9.09375 c 0,0 -42.19987,-27.28028 -59.625,-83.34375 z"
             id="path4040"
             inkscape:connector-curvature="0"
             sodipodi:nodetypes="ccccc" />
          <path
             style="color:#000000;fill:none;stroke:#000000;stroke-width:1.5;stroke-linecap:butt;stroke-linejoin:miter;stroke-miterlimit:4;stroke-opacity:1;stroke-dasharray:none;stroke-dashoffset:0;marker:none;visibility:visible;display:inline;overflow:visible;enable-background:accumulate"
             d="m 274.28571,621.27959 c 0,0 -40.68793,-25.75889 -55.0826,-75.00383"
             id="path4043"
             inkscape:connector-curvature="0"
             sodipodi:nodetypes="cc" />
          <path
             inkscape:connector-curvature="0"
             id="path4033"
             d="m 274.28571,477.00504 0,196.54994 c 0,0 -46.74885,-31.06219 -61.14352,-80.30713 -14.39468,-49.24494 61.14352,-116.24281 61.14352,-116.24281 z"
             style="color:#000000;fill:none;stroke:#000000;stroke-width:2;stroke-linecap:butt;stroke-linejoin:miter;stroke-miterlimit:4;stroke-opacity:1;stroke-dasharray:none;stroke-dashoffset:0;marker:none;visibility:visible;display:inline;overflow:visible;enable-background:accumulate" />
        </g>
        <g
           id="g4215">
          <path
             sodipodi:nodetypes="cssscsscscsscssc"
             style="color:#000000;fill:#fdd5a4;fill-opacity:1;stroke:#000000;stroke-width:2;stroke-linecap:butt;stroke-linejoin:miter;stroke-miterlimit:4;stroke-opacity:1;stroke-dasharray:none;stroke-dashoffset:0;marker:none;visibility:visible;display:inline;overflow:visible;enable-background:accumulate"
             d="m 294.19643,417.45147 c 0,0 7.76786,-4.28572 11.25,-6.96429 3.48214,-2.67857 10.17857,-6.96428 12.58928,-8.03571 2.41072,-1.07143 8.77201,-5.72211 13.89608,-8.42798 5.01083,-2.64608 7.26464,-2.28631 9.13964,-0.14345 0,0 3.21428,-1.07143 3.75,1.875 0.53571,2.94643 -5.89286,6.42857 -9.10714,7.76786 -3.21429,1.33928 -7.5,6.69642 -7.5,6.69642 0,0 3.48214,0.80358 5.35714,3.75 1.875,2.94643 -2.94643,6.96429 -2.94643,6.96429 0,0 -1.07143,6.69643 -2.67857,8.30357 -1.60714,1.60714 -3.21429,0.53572 -6.69643,2.67857 -3.48214,2.14286 -5.08929,1.60715 -5.89286,-2.14285 0,0 -4.01785,3.75 -10.44643,7.76785 -6.42857,4.01786 -14.19642,5.35715 -16.875,2.14286 -2.67857,-3.21429 6.16072,-22.23214 6.16072,-22.23214 z"
             id="path4213"
             inkscape:connector-curvature="0" />
        </g>
        <g
           id="g4025">
          <path
             style="color:#000000;fill:#e30016;fill-opacity:1;stroke:none;stroke-width:2;marker:none;visibility:visible;display:inline;overflow:visible;enable-background:accumulate"
             d="m 213.64726,599.05623 c 45.8733,-76.45549 68.94291,-133.84521 80.30713,-181.57492 0,0 -20.41546,8.52813 -30.59403,16.56384 0,0 -7.15368,-9.17214 -9.83226,-11.88321 l 2.36476,-8.19262 c 0,0 -19.82143,-13.92857 -36.42857,-35.35714 0,0 -38.64698,34.57598 -67.43633,106.54935 -27.27412,68.1853 -26.67082,122.20065 -26.67082,122.20065 l -3.68501,1.22834 c 0,0 -3.71622,38.71545 -1.21143,75.69733 1.13641,0 57.18208,-25.22416 93.18656,-85.23162 z"
             id="path4023"
             inkscape:connector-curvature="0"
             sodipodi:nodetypes="scccccscccs" />
          <path
             sodipodi:nodetypes="sccscs"
             inkscape:connector-curvature="0"
             id="path4007"
             d="m 236.625,409.125 c 5.73809,4.30357 12.45877,9.72768 16.65625,14.1875 l 0.52173,-1.94321 c -4.37395,-4.64732 -10.58952,-9.50321 -16.36929,-13.83804 -2.88988,-2.16741 -9.96141,-7.25473 -12.48949,-7.80804 1.35584,2.16711 8.81175,7.25001 11.6808,9.40179 z"
             style="font-size:medium;font-style:normal;font-variant:normal;font-weight:normal;font-stretch:normal;text-indent:0;text-align:start;text-decoration:none;line-height:normal;letter-spacing:normal;word-spacing:normal;text-transform:none;direction:ltr;block-progression:tb;writing-mode:lr-tb;text-anchor:start;baseline-shift:baseline;color:#000000;fill:#000000;fill-opacity:1;stroke:none;stroke-width:2;marker:none;visibility:visible;display:inline;overflow:visible;enable-background:accumulate;font-family:Sans;-inkscape-font-specification:Sans" />
          <path
             sodipodi:nodetypes="czcc"
             inkscape:connector-curvature="0"
             id="path4011"
             d="m 124.98339,607.67316 c 37.37588,-9.94878 81.85514,-65.70149 100.85441,-109.07327 18.99929,-43.37177 38.12769,-64.893 38.12769,-64.893 0,0 -16.91192,8.11958 -27.09049,16.42315"
             style="color:#000000;fill:none;stroke:#000000;stroke-width:1.5;stroke-linecap:butt;stroke-linejoin:miter;stroke-miterlimit:4;stroke-opacity:1;stroke-dasharray:none;stroke-dashoffset:0;marker:none;visibility:visible;display:inline;overflow:visible;enable-background:accumulate" />
          <path
             sodipodi:nodetypes="cccsscsscccccc"
             inkscape:connector-curvature="0"
             id="path4013"
             d="m 230.84375,451.34375 c -7.80455,2.87642 -21.96214,9.47195 -36.01563,25.10937 17.45196,-16.9932 33.25967,-22.65432 39.26087,-24.47961 -14.88983,13.97729 -32.96966,33.98629 -40.65149,46.05774 -3.90063,6.12956 -7.27775,7.62367 -9.59375,7.75 -2.316,0.12633 -4.15625,-0.53125 -4.15625,-0.53125 0,0 1.3574,2.18903 4.25,2.03125 2.8926,-0.15778 6.72693,-2.09767 10.78125,-8.46875 7.86277,-12.35578 27.96956,-34.45905 43.0625,-48.3125 l 2,-1.875 -2.02459,-0.10041 c 0,0 -2.28656,1.77698 -5.41291,2.19416 0.0692,-1.23565 0.54941,-11.21368 -4.17188,-18.96875 3.32867,8.34483 2.68104,19.4368 2.67188,19.59375 z"
             style="font-size:medium;font-style:normal;font-variant:normal;font-weight:normal;font-stretch:normal;text-indent:0;text-align:start;text-decoration:none;line-height:normal;letter-spacing:normal;word-spacing:normal;text-transform:none;direction:ltr;block-progression:tb;writing-mode:lr-tb;text-anchor:start;baseline-shift:baseline;color:#000000;fill:#000000;fill-opacity:1;stroke:none;stroke-width:1.5;marker:none;visibility:visible;display:inline;overflow:visible;enable-background:accumulate;font-family:Sans;-inkscape-font-specification:Sans" />
          <path
             sodipodi:nodetypes="ccsccsc"
             inkscape:connector-curvature="0"
             id="path4019"
             d="m 293.96875,417.46875 c 0,0 -2.98773,1.24213 -7.21875,3.21875 -11.61406,46.49176 -32.66166,98.08194 -77.03125,172.03125 -29.56002,49.2667 -74.00821,76.84495 -89.625,85.15625 0.10503,2.13814 0.23044,4.27188 0.375,6.40625 1.13641,0 57.18302,-25.21129 93.1875,-85.21875 45.8733,-76.45549 68.94828,-133.86404 80.3125,-181.59375 z"
             style="color:#000000;fill:#d7b369;fill-opacity:1;stroke:#000000;stroke-width:1.5;stroke-linecap:butt;stroke-linejoin:miter;stroke-miterlimit:4;stroke-opacity:1;stroke-dasharray:none;stroke-dashoffset:0;marker:none;visibility:visible;display:inline;overflow:visible;enable-background:accumulate" />
          <path
             sodipodi:nodetypes="scccccscccs"
             inkscape:connector-curvature="0"
             id="path4005"
             d="m 213.64726,599.05623 c 45.8733,-76.45549 68.94291,-133.84521 80.30713,-181.57492 0,0 -20.41546,8.52813 -30.59403,16.56384 0,0 -7.15368,-9.17214 -9.83226,-11.88321 l 2.36476,-8.19262 c 0,0 -19.82143,-13.92857 -36.42857,-35.35714 0,0 -38.64698,34.57598 -67.43633,106.54935 -27.27412,68.1853 -26.67082,122.20065 -26.67082,122.20065 l -3.68501,1.22834 c 0,0 -3.71622,38.71545 -1.21143,75.69733 1.13641,0 57.18208,-25.22416 93.18656,-85.23162 z"
             style="color:#000000;fill:none;stroke:#000000;stroke-width:2;stroke-linecap:butt;stroke-linejoin:miter;stroke-miterlimit:4;stroke-opacity:1;stroke-dasharray:none;stroke-dashoffset:0;marker:none;visibility:visible;display:inline;overflow:visible;enable-background:accumulate" />
        </g>
        <path
           sodipodi:nodetypes="ccccccccccccccccccczc"
           inkscape:connector-curvature="0"
           id="path4218"
           d="m 342,394.625 c -0.16667,-0.46875 -0.33333,-0.9375 -0.5,-1.40625 -7.75866,2.84799 -16.55355,8.96904 -22.30411,12.62703 C 324.7404,404.92846 334.57837,397.39579 342,394.625 z m -13.40625,16.71875 c -0.0919,-0.53801 0.61974,-1.65296 -0.29683,-1.59649 -1.37867,-0.34174 -2.84464,-0.88854 -4.16706,-1.38873 0.82211,2.03993 2.652,2.75462 4.46389,2.98522 z m -0.42945,9.10729 c 1.44037,0.41989 0.72879,2.68977 1.58091,3.01771 1.14335,0.29303 1.38321,-0.39526 1.02751,-1.45637 -0.002,-2.61313 -1.03981,-3.27433 -2.7027,-3.82067 -0.85098,-0.3184 -2.27512,-0.80987 -3.11893,-1.33842 -0.14833,2.17615 1.69104,2.87074 3.21321,3.59775 z m -10.55287,5.66462 c -0.82712,1.13759 -2.76145,2.33465 -2.90941,3.48107 0.62641,0.85428 0.42302,1.66066 0.98684,0.54649 1.57062,-1.58266 4.34419,-3.75201 6.11712,-5.10519 1.15272,-0.45417 1.59963,1.10036 1.59963,1.10036 0,0 0.0872,-2.30062 -1.46811,-2.45815 -1.55534,-0.15753 -3.08281,1.38368 -4.32607,2.43542 z"
           style="font-size:medium;font-style:normal;font-variant:normal;font-weight:normal;font-stretch:normal;text-indent:0;text-align:start;text-decoration:none;line-height:normal;letter-spacing:normal;word-spacing:normal;text-transform:none;direction:ltr;block-progression:tb;writing-mode:lr-tb;text-anchor:start;baseline-shift:baseline;color:#000000;fill:#000000;fill-opacity:1;stroke:none;stroke-width:1.5;marker:none;visibility:visible;display:inline;overflow:visible;enable-background:accumulate;font-family:Sans;-inkscape-font-specification:Sans" />
        <g
           id="g4229">
          <path
             style="color:#000000;fill:#d7b369;fill-opacity:1;stroke:#000000;stroke-width:2;stroke-linecap:butt;stroke-linejoin:miter;stroke-miterlimit:4;stroke-opacity:1;stroke-dasharray:none;stroke-dashoffset:0;marker:none;visibility:visible;display:inline;overflow:visible;enable-background:accumulate"
             d="m 371.07143,348.16575 c 0,0 -4.63859,-4.04677 -2.36575,-19.95667 2.27284,-15.90991 -3.40927,-21.21321 -7.19734,-21.97082 0,0 6.06092,-8.33376 12.87945,-2.27284 0,0 3.40926,-12.87945 21.2132,-11.74303 17.80394,1.13642 23.86485,-2.65165 25.75889,-7.57614 0,0 6.06092,3.40926 1.13642,12.12183 0,0 10.98541,2.65165 11.74303,14.01586 0.75761,11.36422 1.51522,21.59202 9.84898,20.45559 0,0 -2.27284,9.47018 -12.12183,4.16688 0,0 0.75762,7.19734 -6.43972,10.6066 -7.19734,3.40927 -6.06092,13.25826 -6.06092,13.25826 0,0 -7.57614,0.3788 -8.33375,-10.2278 0,0 -17.27612,6.37473 -23.64295,-12.97135 0,0 6.43972,2.3188 10.87445,1.76404 l 1.02547,-7.35424 -7.46519,0.0919 0.64666,-9.11829 7.57615,1.45024 -0.046,-9.40519 9.82995,1.02547 -1.82904,8.91543 7.19734,-0.15691 -0.91452,9.20232 -7.41924,-1.62617 0,7.95495 c 0,0 14.39467,1.51523 16.66751,-12.12183 2.27285,-13.63706 -13.50063,-23.22415 -28.41054,-19.31917 -14.9099,3.90498 -14.62276,15.66752 -11.2723,26.1377 3.35046,10.47018 -1.98595,16.66751 -1.98595,16.66751 0,0 3.75593,2.24737 2.91951,5.03545 -0.83642,2.78807 -3.09545,2.91951 -10.11685,1.40428 -5.74833,-1.2405 -8.53074,-2.35833 -7.95495,-5.52521 0.5758,-3.16688 4.25979,-2.92866 4.25979,-2.92866 z"
             id="path4225"
             inkscape:connector-curvature="0"
             sodipodi:nodetypes="csccsccsccscccccccccccccccssscssscc" />
          <path
             style="color:#000000;fill:none;stroke:#000000;stroke-width:1.5;stroke-linecap:butt;stroke-linejoin:miter;stroke-miterlimit:4;stroke-opacity:1;stroke-dasharray:none;stroke-dashoffset:0;marker:none;visibility:visible;display:inline;overflow:visible;enable-background:accumulate"
             d="m 370.98214,348.07647 c 0,0 4.82143,4.55357 10.71429,2.14285"
             id="path4227"
             inkscape:connector-curvature="0" />
        </g>
        <g
           id="g4297">
          <path
             style="color:#000000;fill:#000000;stroke:none;stroke-width:1;marker:none;visibility:visible;display:inline;overflow:visible;enable-background:accumulate"
             d="m 212.23214,373.96932 c 0,0 3.48214,9.375 16.07143,10.17857 12.58929,0.80358 22.76786,-11.25 24.64286,-22.23214 1.875,-10.98214 19.01786,-8.83928 19.01786,-8.83928 l -24.375,-12.58929 z m 55.49107,12.94643 c 0,0 -2.00892,-2.41071 -3.08035,-2.54464 -1.07143,-0.13393 -2.14286,0 -2.14286,0 l 4.95536,-4.82143 c 0,0 -0.53572,1.74107 -0.13393,3.08036 0.40178,1.33928 2.27678,2.67857 2.27678,2.67857 z m -4.15178,5.49107 c 0,0 -2.00893,-0.40178 -3.34822,-1.33928 -1.33928,-0.9375 -0.53571,-3.21429 -0.53571,-3.21429 0,0 -4.6875,1.07143 -6.29464,3.34822 0,0 2.94643,-0.9375 4.6875,0.13393 1.74107,1.07142 3.21428,1.74107 3.34821,3.34821 0.13393,1.60714 2.14286,-2.27679 2.14286,-2.27679 z m -3.88393,3.61608 c -0.53571,0 -1.60714,0.40178 -3.75,-0.80358 0,0 1.60714,2.67858 1.74107,3.08036 0.13393,0.40179 2.00893,-2.27678 2.00893,-2.27678 z m 2.94643,-23.57143 c 0,0 3.34821,-1.47322 3.48214,-4.01786 0,0 -2.54464,-0.80357 -4.82143,-4.6875 0,0 3.08036,-0.66964 6.29465,0.66964 3.21428,1.33929 6.02678,0.66965 6.83035,-0.53571 0,0 -6.83035,-4.82143 -12.05357,-4.01786 0,0 4.15179,-2.00893 8.4375,-0.40178 4.28572,1.60714 10.88071,5.46809 10.88071,5.46809 l -2.00893,4.41964 c 0,0 -2.04142,-2.78952 -3.38071,-2.78952 -1.33928,0 -2.14285,2.27679 -6.5625,2.14286 0,0 -3.21428,5.75893 -7.09821,3.75 z"
             id="path4252"
             inkscape:connector-curvature="0"
             sodipodi:nodetypes="cssccccsccscccsccsscccsccccsccsccscc" />
          <g
             transform="translate(-4.6595622e-7,2.6171874e-6)"
             id="g4246">
            <path
               style="color:#000000;fill:#e30016;fill-opacity:1;stroke:none;stroke-width:2;marker:none;visibility:visible;display:inline;overflow:visible;enable-background:accumulate"
               d="m 202.40932,394.62661 -10.22779,-2.27285 c 0,0 -4.53029,-19.1085 13.63705,-28.41054 22.67261,-11.60883 32.95623,-25.38008 32.95623,-25.38008 l 3.03046,-5.68211 c 0,0 7.19733,-34.09265 21.59201,-46.97209 14.39467,-12.87945 28.03173,-15.15229 28.03173,-15.15229 l 0.75761,18.56155 24.62247,-8.33376 c 0,0 3.78807,29.92577 -8.71256,48.48733 -12.50064,18.56155 -24.43306,33.71384 -24.43306,33.71384 l -36.1761,-19.69798 c 0,0 -4.16687,14.01587 -21.2132,23.48605 -17.04633,9.47018 -25.00128,15.9099 -23.86485,27.65293 z"
               id="path4244"
               inkscape:connector-curvature="0"
               sodipodi:nodetypes="ccsccscccsccsc" />
            <path
               sodipodi:nodetypes="csc"
               inkscape:connector-curvature="0"
               id="path4242"
               d="m 249.12887,338.94195 c 0,0 7.48423,-25.35317 19.98487,-35.58096 12.50064,-10.2278 25.60986,-14.73541 25.60986,-14.73541"
               style="color:#000000;fill:none;stroke:#000000;stroke-width:1.5;stroke-linecap:butt;stroke-linejoin:miter;stroke-miterlimit:4;stroke-opacity:1;stroke-dasharray:none;stroke-dashoffset:0;marker:none;visibility:visible;display:inline;overflow:visible;enable-background:accumulate" />
            <path
               sodipodi:nodetypes="cccsccscccc"
               inkscape:connector-curvature="0"
               id="path4237"
               d="m 241.8125,332.875 -3.15625,5.84375 9,4.5625 c 0,0 -7.73873,9.67385 -24.40625,17.25 -15.77333,7.16969 -26.78593,13.68042 -27.28125,32.65625 l 6.4375,1.4375 c -1.13643,-11.74303 6.82867,-18.18607 23.875,-27.65625 C 243.32758,357.49857 247.5,343.5 247.5,343.5 l 36.15435,19.6875 c 0,0 1.82285,-2.15117 4.03315,-5.09375 z"
               style="color:#000000;fill:#d7b369;fill-opacity:1;stroke:#000000;stroke-width:1.5;stroke-linecap:butt;stroke-linejoin:miter;stroke-miterlimit:4;stroke-opacity:1;stroke-dasharray:none;stroke-dashoffset:0;marker:none;visibility:visible;display:inline;overflow:visible;enable-background:accumulate" />
            <path
               sodipodi:nodetypes="ccsccscccsccsc"
               inkscape:connector-curvature="0"
               id="path4235"
               d="m 202.40932,394.62661 -10.22779,-2.27285 c 0,0 -4.53029,-19.1085 13.63705,-28.41054 22.67261,-11.60883 32.95623,-25.38008 32.95623,-25.38008 l 3.03046,-5.68211 c 0,0 7.19733,-34.09265 21.59201,-46.97209 14.39467,-12.87945 28.03173,-15.15229 28.03173,-15.15229 l 0.75761,18.56155 24.62247,-8.33376 c 0,0 3.78807,29.92577 -8.71256,48.48733 -12.50064,18.56155 -24.43306,33.71384 -24.43306,33.71384 l -36.1761,-19.69798 c 0,0 -4.16687,14.01587 -21.2132,23.48605 -17.04633,9.47018 -25.00128,15.9099 -23.86485,27.65293 z"
               style="color:#000000;fill:none;stroke:#000000;stroke-width:2;stroke-linecap:butt;stroke-linejoin:miter;stroke-miterlimit:4;stroke-opacity:1;stroke-dasharray:none;stroke-dashoffset:0;marker:none;visibility:visible;display:inline;overflow:visible;enable-background:accumulate" />
          </g>
        </g>
      </g>
      <g
         transform="matrix(2,0,0,2,-254.62203,-500.93362)"
         id="g5040">
        <path
           sodipodi:nodetypes="ccccccccccscccccccccccccccccccccccccccccccccccccccccccccccccccccccccccc"
           inkscape:connector-curvature="0"
           style="color:#000000;fill:#007733;fill-opacity:1;stroke:#000000;stroke-width:1;stroke-linecap:butt;stroke-linejoin:miter;stroke-miterlimit:4;stroke-opacity:1;stroke-dasharray:none;stroke-dashoffset:0;marker:none;visibility:visible;display:inline;overflow:visible;enable-background:accumulate"
           d="m 235.375,623.59375 c -5.63452,3.34822 -10.6875,9.96875 -10.6875,9.96875 0,-1.47322 -0.125,-2.6875 -0.125,-2.6875 -1.33928,1.74107 -4.03125,3.625 -4.03125,3.625 0.53572,-1.20536 0.6875,-3.625 0.6875,-3.625 -2.8125,1.87499 -4.96875,2.15625 -4.96875,2.15625 0,-2.27678 2.9375,-6.6875 2.9375,-6.6875 -3.88393,0.80357 -6.6875,3.59375 -6.6875,3.59375 -0.80357,-2.00893 0.40625,-4.53125 0.40625,-4.53125 -4.28572,1.74107 -7.8125,5.75 -7.8125,5.75 21.23387,19.00452 49.4055,29.53125 79.5625,29.53125 23.81292,0 46.35661,-6.57428 65.25,-18.6875 -0.002,-0.10064 0.53125,-7.4375 0.53125,-7.4375 l -3.34375,2.40625 c 0,0 0.2634,-1.74999 -0.40625,-2.6875 -2.94643,3.75001 -7.09375,8.84375 -7.09375,8.84375 l -0.8125,-1.21875 -2.25,1.34375 -0.28125,-2.28125 -3.46875,3.90625 0.375,-4.3125 -8.15625,5.78125 2.53125,-6.84375 -4.9375,2.28125 3.21875,-6.5625 -4.4375,2.15625 -0.25,-1.625 -8.96875,7.375 -0.15625,-2.5625 -4.15625,3.5 0.8125,-3.5 -2.125,0.8125 0.65625,-2.9375 -2.6875,0.8125 0.6875,-2.8125 c -4.41964,1.20536 -9.375,4.53125 -9.375,4.53125 l 0.53125,-3.75 -3.34375,1.75 0,-13.34375 c -2.65165,0.94701 -3.96875,3.625 -3.96875,3.625 l -0.3125,-2.4375 C 284.70089,630.02678 282,635.9375 282,635.9375 l -0.65625,-3.34375 -2.6875,2.125 0.28125,-3.46875 -3.75,2.9375 2.9375,-8.4375 c -1.41251,0.93886 -2.39451,1.87364 -3.09375,2.8125 l -0.5625,-2.46875 -3.59375,2.84375 1.25,-4.71875 -5.21875,4.8125 -0.28125,-2.15625 c -2.02217,1.9386 -3.70268,4.58884 -4.875,5.375 0.1894,-2.36755 2.28125,-6.0625 2.28125,-6.0625 -3.48214,0.9375 -7.25,5.6875 -7.25,5.6875 0.0205,-1.95151 1.86877,-4.20616 1.21875,-6.15625 -2.39481,3.98551 -6.07606,6.32475 -9.125,9.59375 l 0.15625,-2.5625 -2.5625,2.4375 0.28125,-3.09375 c -1.74107,1.74108 -3.09375,3.21875 -3.09375,3.21875 -0.26786,-2.94643 1.0625,-6.03125 1.0625,-6.03125 -2.14285,0.80358 -5.34375,4.65625 -5.34375,4.65625 0.44786,-3.56556 3.67427,-6.33279 3.78125,-8.9375 -1.56118,1.11066 -3.46875,2.8125 -3.46875,2.8125 l -0.125,-2.28125 -3.5,3.34375 -0.40625,-1.46875 c -1.74107,1.07143 -4.84375,4.46875 -4.84375,4.46875 0.66611,-3.43441 2.92087,-4.52468 4.5625,-8.28125 z"
           id="path5035" />
        <path
           sodipodi:nodetypes="cccc"
           inkscape:connector-curvature="0"
           id="path5043"
           d="m 293.375,639.3125 -0.4375,-0.90625 c 0,0 -2.65436,1.82895 -4.88071,3.67949 2.69815,-0.99053 5.31821,-2.77324 5.31821,-2.77324 z"
           style="font-size:medium;font-style:normal;font-variant:normal;font-weight:normal;font-stretch:normal;text-indent:0;text-align:start;text-decoration:none;line-height:normal;letter-spacing:normal;word-spacing:normal;text-transform:none;direction:ltr;block-progression:tb;writing-mode:lr-tb;text-anchor:start;baseline-shift:baseline;color:#000000;fill:#000000;fill-opacity:1;stroke:none;stroke-width:1;marker:none;visibility:visible;display:inline;overflow:visible;enable-background:accumulate;font-family:Sans;-inkscape-font-specification:Sans" />
      </g>
      <g
         transform="translate(-0.53571429,0)"
         id="g3891">
        <use
           x="0"
           y="0"
           xlink:href="#g3863"
           id="use3986"
           transform="matrix(0.10708499,0.90098549,0.89038827,-0.22813494,-119.69074,81.509642)"
           width="744.09448"
           height="1052.3622" />
        <use
           height="1052.3622"
           width="744.09448"
           transform="matrix(0.35995287,0.83287213,0.78814352,-0.47293404,-188.16089,267.86306)"
           id="use3984"
           xlink:href="#g3863"
           y="0"
           x="0" />
        <use
           x="0"
           y="0"
           xlink:href="#g3863"
           id="use3982"
           transform="matrix(-0.05229999,0.90581829,0.91657635,-0.06873578,-38.617537,-10.36487)"
           width="744.09448"
           height="1052.3622" />
        <use
           height="1052.3622"
           width="744.09448"
           transform="matrix(-0.33644106,0.84264434,0.89117544,0.22504032,136.6872,-144.7402)"
           id="use3980"
           xlink:href="#g3863"
           y="0"
           x="0" />
        <use
           x="0"
           y="0"
           xlink:href="#g3863"
           id="use3978"
           transform="matrix(-0.0592261,0.90539182,0.91707523,-0.06172385,-24.052137,-1.877794)"
           width="744.09448"
           height="1052.3622" />
        <use
           height="1052.3622"
           width="744.09448"
           transform="matrix(0.26971246,0.86631245,0.8338021,-0.38679564,-144.97475,210.85396)"
           id="use3976"
           xlink:href="#g3863"
           y="0"
           x="0" />
        <use
           x="0"
           y="0"
           xlink:href="#g3863"
           id="use3970"
           transform="matrix(-0.53668346,0.85533159,0.77799094,0.30039405,331.0427,-175.25847)"
           width="744.09448"
           height="1052.3622" />
        <use
           x="0"
           y="0"
           xlink:href="#g3863"
           id="use3972"
           transform="matrix(-0.34390212,0.99243356,1.1024784,0.19949454,39.459727,-184.16389)"
           width="744.09448"
           height="1052.3622" />
        <use
           height="1052.3622"
           width="744.09448"
           transform="matrix(0.16992713,0.8912726,0.87222303,-0.28993758,-99.247979,158.60922)"
           id="use3968"
           xlink:href="#g3863"
           y="0"
           x="0" />
        <use
           x="0"
           y="0"
           xlink:href="#g3863"
           id="use3966"
           transform="matrix(-0.64719565,0.8450091,0.93514759,0.53676733,309.99998,-277.51287)"
           width="744.09448"
           height="1052.3622" />
        <use
           height="1052.3622"
           width="744.09448"
           transform="matrix(-0.66823694,0.60808295,0.7000553,0.58961079,474.05813,-213.52239)"
           id="use3964"
           xlink:href="#g3863"
           y="0"
           x="0" />
        <use
           x="0"
           y="0"
           xlink:href="#g3863"
           id="use3962"
           transform="matrix(-0.34862925,0.7772612,0.82715263,0.24603125,230.07292,-86.735764)"
           width="744.09448"
           height="1052.3622" />
        <use
           height="1052.3622"
           width="744.09448"
           transform="matrix(-0.7885338,0.45039625,0.55781744,0.73151455,621.58028,-196.89429)"
           id="use3960"
           xlink:href="#g3863"
           y="0"
           x="0" />
        <use
           x="0"
           y="0"
           xlink:href="#g3863"
           id="use3958"
           transform="matrix(-0.90940973,0.30901649,0.43203169,0.87181693,760.85936,-190.80867)"
           width="744.09448"
           height="1052.3622" />
        <use
           height="1052.3622"
           width="744.09448"
           transform="matrix(-0.7260426,0.628792,0.72858809,0.64488412,487.10541,-211.51391)"
           id="use3956"
           xlink:href="#g3863"
           y="0"
           x="0" />
        <use
           x="0"
           y="0"
           xlink:href="#g3863"
           id="use3954"
           transform="matrix(-0.83418172,0.57331254,0.68735399,0.76089826,572.06328,-236.19792)"
           width="744.09448"
           height="1052.3622" />
        <use
           height="1052.3622"
           width="744.09448"
           transform="matrix(-0.4278696,0.85990979,0.92075114,0.31453695,216.08257,-134.21376)"
           id="use3937"
           xlink:href="#g3863"
           y="0"
           x="0" />
        <use
           x="0"
           y="0"
           xlink:href="#g3863"
           id="use3935"
           transform="matrix(-0.03040746,0.84694804,0.8545314,-0.08283875,13.441857,83.683676)"
           width="744.09448"
           height="1052.3622" />
        <use
           height="1052.3622"
           width="744.09448"
           transform="matrix(0.23364727,0.81464996,0.78675302,-0.34366532,-93.348689,251.33397)"
           id="use3933"
           xlink:href="#g3863"
           y="0"
           x="0" />
        <use
           x="0"
           y="0"
           xlink:href="#g3863"
           id="use3931"
           transform="matrix(0.01898654,0.96028994,0.96173155,-0.14760956,-54.766631,70.605591)"
           width="744.09448"
           height="1052.3622" />
        <use
           height="1052.3622"
           width="744.09448"
           transform="matrix(0.30122216,0.76521085,0.68114182,-0.54640445,-61.504432,402.51075)"
           id="use3929"
           xlink:href="#g3863"
           y="0"
           x="0" />
        <use
           height="1052.3622"
           width="744.09448"
           transform="matrix(-0.00336205,0.96047173,0.96490568,-0.12519261,-45.214837,66.855792)"
           id="use3927"
           xlink:href="#g3863"
           y="0"
           x="0" />
        <use
           x="0"
           y="0"
           xlink:href="#g3863"
           id="use3925"
           transform="matrix(0.1730217,0.94476492,0.92552301,-0.30020547,-113.51535,181.65921)"
           width="744.09448"
           height="1052.3622" />
        <use
           x="0"
           y="0"
           xlink:href="#g3863"
           id="use3910"
           transform="matrix(-0.49784803,0.80372878,0.91685988,0.12524415,258.7053,9.3323136)"
           width="744.09448"
           height="1052.3622" />
        <use
           height="1052.3622"
           width="744.09448"
           transform="matrix(-0.23251334,0.99189087,1.0271292,0.10070341,58.30114,-61.183698)"
           id="use3908"
           xlink:href="#g3863"
           y="0"
           x="0" />
        <use
           x="0"
           y="0"
           xlink:href="#g3863"
           id="use3906"
           transform="matrix(-0.74595631,0.69387254,0.79660426,0.65616877,464.78367,-205.84733)"
           width="744.09448"
           height="1052.3622" />
        <use
           x="0"
           y="0"
           xlink:href="#g3863"
           id="use3904"
           transform="matrix(0.93022636,-0.20797723,0.20817398,0.93504338,-100.25864,113.97041)"
           width="744.09448"
           height="1052.3622" />
        <use
           height="1052.3622"
           width="744.09448"
           transform="matrix(0.94935213,-0.08547599,0.08504583,0.95415394,-26.041444,41.601546)"
           id="use3902"
           xlink:href="#g3863"
           y="0"
           x="0" />
        <use
           x="0"
           y="0"
           xlink:href="#g3863"
           id="use3900"
           transform="matrix(-0.76531634,0.64365433,0.64365433,0.76531634,567.77323,-225.38746)"
           width="744.09448"
           height="1052.3622" />
        <use
           height="1052.3622"
           width="744.09448"
           transform="matrix(0.97139264,0.23747914,-0.23747914,0.97139264,152.41612,-114.95312)"
           id="use3889"
           xlink:href="#g3863"
           y="0"
           x="0" />
        <use
           x="0"
           y="0"
           xlink:href="#g3863"
           id="use3866"
           transform="matrix(0.96862462,-0.24852835,0.24852835,0.96862462,-121.61046,157.44086)"
           width="744.09448"
           height="1052.3622" />
        <g
           id="g3863">
          <path
             sodipodi:nodetypes="ccc"
             inkscape:connector-curvature="0"
             id="path3861"
             d="m 507.34912,549.93756 c 0,0 7.88898,25.87361 28.03172,27.65292 -2.65165,-22.34963 -28.03172,-27.65292 -28.03172,-27.65292 z"
             style="color:#000000;fill:#007733;fill-opacity:1;stroke:#000000;stroke-width:2;stroke-linecap:butt;stroke-linejoin:miter;stroke-miterlimit:4;stroke-opacity:1;stroke-dasharray:none;stroke-dashoffset:0;marker:none;visibility:visible;display:inline;overflow:visible;enable-background:accumulate" />
        </g>
        <use
           height="1052.3622"
           width="744.09448"
           transform="matrix(0.95846979,0.4327342,-0.4327342,0.95846979,284.92118,-188.74641)"
           id="use3872"
           xlink:href="#g3863"
           y="0"
           x="0" />
        <use
           x="0"
           y="0"
           xlink:href="#g3863"
           id="use3939"
           transform="matrix(-0.80221201,0.29709358,0.40570985,0.76577057,718.54914,-93.271455)"
           width="744.09448"
           height="1052.3622" />
        <use
           x="0"
           y="0"
           xlink:href="#g3863"
           id="use3870"
           transform="matrix(0.85928379,0.04528667,-0.12575595,1.0134981,162.25385,-4.695396)"
           width="744.09448"
           height="1052.3622" />
        <use
           height="1052.3622"
           width="744.09448"
           transform="matrix(0.99880228,0.04892856,-0.04892856,0.99880228,43.789794,12.672469)"
           id="use3868"
           xlink:href="#g3863"
           y="0"
           x="0" />
        <path
           sodipodi:nodetypes="sccscsccccccccccccccccsccscsccccsccscssccscssccscsccccsccscs"
           inkscape:connector-curvature="0"
           id="path3999"
           d="m 487.03125,453.1875 c 2.44871,4.09689 4.25,7.5625 4.25,7.5625 l 1.34375,-0.6875 c 0,0 -1.83672,-3.51408 -4.3125,-7.65625 -2.47578,-4.14217 -5.55608,-8.8802 -8.85938,-10.92188 2.00001,2.88282 5.12942,7.60624 7.57813,11.70313 z m 39.03125,19.59375 1.46875,0.25 c 0,0 1.51754,-8.59614 5.32812,-17.53125 -5.28079,8.49001 -6.79687,17.28125 -6.79687,17.28125 z M 491.875,465.1875 492.78125,464 c -5.12929,-3.9456 -14.09375,-5.85938 -14.09375,-5.85938 0,0 8.46779,3.41634 13.1875,7.04688 z m 11.875,15.9375 1.40625,-0.5 c 0,0 -4.5374,-12.86579 -6.39063,-22.48438 C 499.18524,468.22 503.75,481.125 503.75,481.125 z m -19.875,7.5 1,-1.125 c -6.67314,-5.88806 -17.17188,-7.01563 -17.17188,-7.01563 0,0 9.96556,2.66447 16.17188,8.14063 z M 525,498.96875 c -1.292,4.25881 -1.96875,7.90625 -1.96875,7.90625 l 1.46875,0.28125 c 0,0 0.67255,-3.58035 1.9375,-7.75 1.26495,-4.16965 3.18603,-8.93603 4.90625,-11.71875 -3.20427,2.14177 -5.05175,7.02244 -6.34375,11.28125 z m -18.5,10.28125 0.4375,-1.4375 c -7.42236,-2.22672 -15.375,-6.5 -15.375,-6.5 0,0 7.20758,5.61852 14.9375,7.9375 z m 17.4375,18.96875 c 0.72384,3.61921 1.78125,6.34375 1.78125,6.34375 L 527.125,534 c 0,0 -1.02206,-2.57907 -1.71875,-6.0625 -0.69669,-3.48343 -1.05295,-7.82056 -0.51563,-11.45313 -2.11432,3.56477 -1.67696,8.11517 -0.95312,11.73438 z M 520,537.6875 c 2.56217,2.23607 4.34375,4.28125 4.34375,4.28125 L 525.46875,541 c 0,0 -1.82232,-2.12789 -4.46875,-4.4375 -2.64643,-2.30961 -6.10487,-4.84269 -9.73438,-4.9375 2.81022,1.42041 6.17221,3.82643 8.73438,6.0625 z m 3.25,27.5 c 3.60725,2.71715 7.7396,6.40155 9.71875,10 l 1.3125,-0.75 c -2.18773,-3.9777 -6.44022,-7.66195 -10.125,-10.4375 -3.68478,-2.77555 -7.21875,-3.96875 -7.21875,-3.96875 0,0 2.70525,2.4391 6.3125,5.15625 z m 22.90625,26.125 1.4375,-0.4375 c 0,0 -4.51853,-14.72085 -9.0625,-21.35938 3.03217,6.99854 7.625,21.79688 7.625,21.79688 z M 542.25,609.125 c 3.49196,3.20495 6.46875,5.3125 6.46875,5.3125 l 0.875,-1.21875 c 0,0 -2.92248,-2.04743 -6.34375,-5.1875 -3.42127,-3.14007 -7.33847,-7.36964 -10.01563,-11.25 1.48972,4.83221 5.52367,9.1388 9.01563,12.34375 z"
           style="font-size:medium;font-style:normal;font-variant:normal;font-weight:normal;font-stretch:normal;text-indent:0;text-align:start;text-decoration:none;line-height:normal;letter-spacing:normal;word-spacing:normal;text-transform:none;direction:ltr;block-progression:tb;writing-mode:lr-tb;text-anchor:start;baseline-shift:baseline;color:#000000;fill:#000000;fill-opacity:1;stroke:none;stroke-width:1.5;marker:none;visibility:visible;display:inline;overflow:visible;enable-background:accumulate;font-family:Sans;-inkscape-font-specification:Sans" />
      </g>
      <g
         id="g3833">
        <g
           id="g3829">
          <path
             sodipodi:nodetypes="cccssccscccc"
             inkscape:connector-curvature="0"
             id="path3825"
             d="m 448.48214,543.70147 -14.19643,5.35714 0,1.60714 c 0,0 -11.10714,5.60621 -14.19642,7.23215 -3.08929,1.62594 -5.13393,2.58928 -5.26786,3.92857 -0.13393,1.33928 2.00893,3.08036 1.875,5.08928 0.26786,1.74107 0.49657,20.77626 0.49657,20.77626 0,0 10.796,16.85693 13.06885,27.46353 2.27284,10.6066 2.08344,13.06884 2.08344,13.06884 l 24.62247,-14.39467 7.95495,-51.13897 z"
             style="color:#000000;fill:#fdd5a4;fill-opacity:1;stroke:#000000;stroke-width:2;stroke-linecap:butt;stroke-linejoin:miter;stroke-miterlimit:4;stroke-opacity:1;stroke-dasharray:none;stroke-dashoffset:0;marker:none;visibility:visible;display:inline;overflow:visible;enable-background:accumulate" />
          <path
             inkscape:connector-curvature="0"
             id="path3827"
             d="m 418.30357,567.94254 c 0,0 2.27679,0.53571 3.48215,-0.80357 0,0 -0.53572,3.48214 -2.27679,3.61607 -1.74107,0.13393 -1.20536,-2.8125 -1.20536,-2.8125 z m 12.72322,-7.23214 5.89285,6.16071 0.26786,-12.05357 c 0,0 4.41964,4.6875 5.49107,5.35714 1.07143,0.66964 3.61607,0.13393 3.61607,0.13393 l -10.71428,-11.25 -1.07143,1.60714 c 0,0 1.07143,3.61607 0.9375,6.16072 -0.13393,2.54464 -2.67857,4.01785 -4.41964,3.88393 z"
             style="color:#000000;fill:#000000;stroke:none;stroke-width:1;marker:none;visibility:visible;display:inline;overflow:visible;enable-background:accumulate" />
        </g>
        <g
           id="g3820"
           transform="translate(132.85714,0)">
          <path
             sodipodi:nodetypes="cccccccscccccssccscscscscsscsccc"
             inkscape:connector-curvature="0"
             id="path3812"
             d="m 344.375,616.6479 c 15,31.07143 16.12319,99.96483 16.12319,99.96483 l -96.59584,0 -17.42513,-19.69797 3.03046,-4.9245 15.58161,-22.93165 c 0,0 10.71428,8.30357 15,11.78571 0,0 0.60685,-16.88579 5.91015,-27.11359 5.3033,-10.22779 5.68211,-27.27411 5.3033,-34.09264 0,0 3.56201,-3.09031 6.24058,-4.42959 0.76635,1.80611 0.67097,3.9394 0.67097,3.9394 0,0 14.0474,-2.88144 23.30357,-8.57143 0,0 -5.89286,-8.30357 -8.30357,-16.33929 0,0 -9.64286,6.69643 -21.16072,8.03572 -11.51786,1.33928 -22.23214,-6.69643 -22.5,-11.25 -0.26786,-4.55358 4.55357,-8.03572 8.57143,-7.76786 0,0 -2.41071,-4.28572 1.33929,-8.30357 0,0 -1.875,-3.48215 0,-5.89286 1.875,-2.41071 4.01785,-2.41071 4.01785,-2.41071 0,0 2.41072,2.94642 4.01786,7.23214 1.60714,4.28571 -0.80357,9.91071 -0.80357,9.91071 0,0 7.23214,2.41072 13.66071,2.41072 6.42857,0 12.58929,-4.28572 12.58929,-4.28572 0,0 2.67857,-9.64285 5.08928,-16.60714 2.41072,-6.96429 1.875,-13.125 -2.94642,-24.375 0,0 9.05471,1.55383 17.41071,3.48214 10.44643,2.41072 19.01786,7.23215 21.42857,15.80357 2.41072,8.57143 -2.14286,17.14286 -2.14286,17.14286 0,0 2.94643,8.03572 2.14286,14.19643 -0.80357,6.16071 -6.16071,5.625 -6.16071,5.625 0,0 -1.07143,2.67857 -5.625,5.35714 0,0 0.71427,6.51787 2.23214,14.10715 z"
             style="color:#000000;fill:#d9dadc;fill-opacity:1;stroke:#000000;stroke-width:2;stroke-linecap:butt;stroke-linejoin:miter;stroke-miterlimit:4;stroke-opacity:1;stroke-dasharray:none;stroke-dashoffset:0;marker:none;visibility:visible;display:inline;overflow:visible;enable-background:accumulate" />
          <path
             sodipodi:nodetypes="csccccccccccsccccsssccccc"
             inkscape:connector-curvature="0"
             id="path3814"
             d="m 320.11358,608.24684 c 0,0 3.10333,5.14081 8.19262,1.12295 5.08928,-4.01786 7.9438,-6.91832 7.9438,-6.91832 0,0 4.05035,1.22833 6.72892,-0.64667 m -29.26342,-6.78918 c 0,0 -2.27284,-7.00794 -0.1894,-14.20527 m -33.87075,-6.13937 c 3.42001,3.43242 4.89752,6.48689 5.83901,11.25326 0,0 1.51523,-2.65165 2.08344,-5.11389 m 4.29315,38.954 c 0,0 2.61201,0.7737 7.10263,-0.56821 m -8.23905,17.80394 c 0,0 9.62261,-1.5129 24.35476,-8.47718 14.73214,-6.96429 25.44642,-11.25 29.19642,-11.78572 m -79.38853,57.60791 40.99568,42.03495 m 3.21428,-0.26786 c 0,0 -0.50554,-31.9506 2.14611,-48.61812 2.65165,-16.66751 8.14436,-23.10724 15.34169,-24.24366 7.19734,-1.13642 15.3417,7.19734 17.61454,23.48605 2.27284,16.28871 3.40926,49.62374 3.40926,49.62374 m -67.29375,-36.41145 0.24488,11.03137 m 46.03727,-47.72507 c 0,0 0.26786,-13.39286 -0.26785,-19.82143"
             style="color:#000000;fill:none;stroke:#000000;stroke-width:1.5;stroke-linecap:butt;stroke-linejoin:miter;stroke-miterlimit:4;stroke-opacity:1;stroke-dasharray:none;stroke-dashoffset:0;marker:none;visibility:visible;display:inline;overflow:visible;enable-background:accumulate" />
          <path
             sodipodi:nodetypes="cccccccccccccccccccccssccc"
             inkscape:connector-curvature="0"
             id="path3816"
             d="m 346.71875,597.375 1.97446,0.12119 c 0,0 2.28483,-7.43323 -2.88071,-12.98057 3.4059,5.70267 0.90625,12.85938 0.90625,12.85938 z m -11.0625,4.71875 1.40625,0.5625 c 0.91505,-3.42645 0.70026,-7.68494 -0.64063,-10.65625 -0.16843,3.51967 0.15746,6.82597 -0.76562,10.09375 z m -29.46875,30.74995 -2.8125,0.0937 c -2.62695,10.33691 -4.29841,17.53148 -8.70338,27.72059 2.56989,-1.82423 6.34581,-10.0893 10.01588,-26.90809 0.0576,1.22473 0.17343,9.12617 -0.5019,13.75952 3.36013,-6.28319 2.0019,-14.66577 2.0019,-14.66577 z m -7.28125,2.7813 -1.375,-0.625 c -6.08703,12.5376 -6.28125,21.20312 -6.28125,21.20312 0,0 5.32317,-15.39351 7.65625,-20.57812 z m 10.88071,44.10136 c -0.58218,-0.91369 -1.83953,-2.91595 -2.34946,-4.41386 -1.01985,-2.99582 -1.36451,-7.00956 0.6875,-12.15625 -3.57299,4.76403 -3.248,9.32618 -2.125,12.625 0.5615,1.64941 1.31432,3.02195 1.9375,4 0.31159,0.48902 1.17695,1.62173 1.38071,1.91386 z"
             style="font-size:medium;font-style:normal;font-variant:normal;font-weight:normal;font-stretch:normal;text-indent:0;text-align:start;text-decoration:none;line-height:normal;letter-spacing:normal;word-spacing:normal;text-transform:none;direction:ltr;block-progression:tb;writing-mode:lr-tb;text-anchor:start;baseline-shift:baseline;color:#000000;fill:#000000;fill-opacity:1;stroke:none;stroke-width:1.5;marker:none;visibility:visible;display:inline;overflow:visible;enable-background:accumulate;font-family:Sans;-inkscape-font-specification:Sans" />
        </g>
        <g
           id="g3035"
           transform="translate(132.85714,0)">
          <path
             sodipodi:nodetypes="ccsscscscscscccsscccc"
             inkscape:connector-curvature="0"
             id="path3033"
             d="m 248.59225,693.34432 -7.5,-10.98214 c 0,0 -5.66443,0.84754 -13.39284,-8.57144 -8.57144,-10.44642 -13.54168,-16.99938 -14.94324,-20.08282 -1.40157,-3.08344 0.30034,-5.58462 0.30034,-5.58462 0,0 -3.59866,-4.35628 -4.16688,-7.38674 -0.5682,-3.03046 1.51524,-5.3033 1.51524,-5.3033 0,0 -0.75762,-3.21986 0.94702,-5.1139 1.70462,-1.89404 4.35628,-0.75762 4.35628,-0.75762 0,0 0.35584,-2.32832 3.19688,-2.70712 2.84106,-0.37882 4.18986,1.0025 4.18986,1.0025 0,0 0.94702,-3.78808 4.7351,-1.70464 3.78806,2.08344 9.28076,9.849 9.28076,9.849 0,0 1.13642,-1.13644 3.59868,-0.94702 0,0 0.48974,-1.24738 2.952,-1.43678 0,0 2.47571,6.56018 6.54115,10.77303 4.05167,4.19859 8.83413,8.87799 9.63661,13.96039 1.13642,7.19734 9.09138,13.63706 9.09138,13.63706 l -3.03046,3.00748 -2.40676,-1.73714 z"
             style="color:#000000;fill:#fdd5a4;fill-opacity:1;stroke:#000000;stroke-width:2;stroke-linecap:butt;stroke-linejoin:miter;stroke-miterlimit:4;stroke-opacity:1;stroke-dasharray:none;stroke-dashoffset:0;marker:none;visibility:visible;display:inline;overflow:visible;enable-background:accumulate" />
          <path
             style="color:#000000;fill:none;stroke:#000000;stroke-width:1.5;stroke-linecap:butt;stroke-linejoin:miter;stroke-miterlimit:4;stroke-opacity:1;stroke-dasharray:none;stroke-dashoffset:0;marker:none;visibility:visible;display:inline;overflow:visible;enable-background:accumulate"
             d="m 240.89885,635.11758 c 0,0 0.002,3.8743 5.15591,10.34826 3.34532,4.2018 7.91293,8.2133 8.29175,14.27422 0.3788,6.06092 9.28076,13.35296 9.28076,13.35296 m -25.6362,-37.60584 c 0,0 -2.41072,1.875 -1.07143,7.63393 0,0 -11.25,-12.85714 -14.19643,-15.40179"
             id="path3038"
             inkscape:connector-curvature="0"
             sodipodi:nodetypes="csscccc" />
          <path
             style="font-size:medium;font-style:normal;font-variant:normal;font-weight:normal;font-stretch:normal;text-indent:0;text-align:start;text-decoration:none;line-height:normal;letter-spacing:normal;word-spacing:normal;text-transform:none;direction:ltr;block-progression:tb;writing-mode:lr-tb;text-anchor:start;baseline-shift:baseline;color:#000000;fill:#000000;fill-opacity:1;stroke:none;stroke-width:1.5;marker:none;visibility:visible;display:inline;overflow:visible;enable-background:accumulate;font-family:Sans;-inkscape-font-specification:Sans"
             d="m 216.34375,629.53125 -1.15625,0.9375 c 0,0 11.91047,14.05434 15.97321,18.81473 -2.36582,-6.8914 -14.81696,-19.75223 -14.81696,-19.75223 z m 2.09375,13.375 c -4.06015,-4.32748 -7.625,-8.3125 -7.625,-8.3125 l -1.09375,1 c 0,0 3.54898,3.9681 7.625,8.3125 3.57098,2.72565 6.8174,7.88943 11.26562,9.9375 -2.99619,-4.08287 -6.86388,-7.41568 -10.17187,-10.9375 z m 18.40625,-1.03125 -1.1875,0.875 c 0,0 3.7677,4.32566 6.5,8.40402 -0.0802,-4.89485 -5.3125,-9.27902 -5.3125,-9.27902 z m -23.0625,5.5625 -1.125,1 c 0,0 8.14553,8.96911 13.28125,12.23437 -3.97142,-4.23473 -12.15625,-13.23437 -12.15625,-13.23437 z"
             id="path3808"
             inkscape:connector-curvature="0"
             sodipodi:nodetypes="cccccccccccccccccc" />
        </g>
      </g>
      <path
         style="color:#000000;fill:none;stroke:#000000;stroke-width:6;stroke-linecap:butt;stroke-linejoin:miter;stroke-miterlimit:4;stroke-opacity:1;stroke-dasharray:none;stroke-dashoffset:0;marker:none;visibility:visible;display:inline;overflow:visible;enable-background:accumulate"
         d="m 550.59911,578.991 c 0,-148.49244 0,-331.83512 0,-331.83512 l -471.870799,0 c 0,0 0,183.34268 0,331.83512 0,148.49242 109.096479,241.42644 235.935399,241.42644 126.83892,0 235.9354,-92.93402 235.9354,-241.42644 z"
         id="path5008"
         inkscape:connector-curvature="0"
         sodipodi:nodetypes="sccszs" />
    </g>
  </g>
</svg>
