<?xml version="1.0" encoding="UTF-8" standalone="no"?>
<!-- Created with Inkscape (http://www.inkscape.org/) -->
<svg
   xmlns:dc="http://purl.org/dc/elements/1.1/"
   xmlns:cc="http://web.resource.org/cc/"
   xmlns:rdf="http://www.w3.org/1999/02/22-rdf-syntax-ns#"
   xmlns:svg="http://www.w3.org/2000/svg"
   xmlns="http://www.w3.org/2000/svg"
   xmlns:sodipodi="http://sodipodi.sourceforge.net/DTD/sodipodi-0.dtd"
   xmlns:inkscape="http://www.inkscape.org/namespaces/inkscape"
   id="svg2342"
   sodipodi:version="0.32"
   inkscape:version="0.45.1"
   width="469.9411"
   height="565.02631"
   version="1.0"
   sodipodi:docbase="/home/liftarn/Bilder"
   sodipodi:docname="Trakai_(Lithuania)_CoA.svg"
   inkscape:output_extension="org.inkscape.output.svg.inkscape">
  <metadata
     id="metadata2347">
    <rdf:RDF>
      <cc:Work
         rdf:about="">
        <dc:format>image/svg+xml</dc:format>
        <dc:type
           rdf:resource="http://purl.org/dc/dcmitype/StillImage" />
      </cc:Work>
    </rdf:RDF>
  </metadata>
  <defs
     id="defs2345" />
  <sodipodi:namedview
     inkscape:window-height="693"
     inkscape:window-width="1024"
     inkscape:pageshadow="2"
     inkscape:pageopacity="0.0"
     guidetolerance="10.0"
     gridtolerance="10.0"
     objecttolerance="10.0"
     borderopacity="1.0"
     bordercolor="#666666"
     pagecolor="#ffffff"
     id="base"
     inkscape:zoom="0.70415225"
     inkscape:cx="471.84921"
     inkscape:cy="326.60284"
     inkscape:window-x="0"
     inkscape:window-y="25"
     inkscape:current-layer="svg2342" />
  <path
     d="M 3.193327,3.193327 L 3.193327,352.27249 L 3.401519,352.27249 C 3.401519,467.94987 107.19104,561.83296 235.07463,561.83296 C 362.9582,561.83296 466.74776,467.94987 466.74776,352.27249 L 466.32807,352.27249 L 466.32807,3.193327 L 3.193327,3.193327 z "
     style="fill:#ed1c24;fill-opacity:1;stroke:#000000;stroke-width:6.3866539"
     id="CoA_Nr._11"
     inkscape:transform-center-x="448.83189"
     inkscape:transform-center-y="179.15734" />
  <g
     id="g2405"
     transform="translate(-504.21619,-15.717817)">
    <path
       id="path2382"
       d="M 726.78953,546.31922 C 721.3209,543.61229 712.85931,534.35006 709.8348,527.76021 C 708.52431,524.9049 706.89465,518.42865 706.18609,513.26021 C 704.99395,504.5645 704.86629,504.23059 704.33553,508.42015 C 703.56247,514.52243 699.91924,523.80496 696.87933,527.41769 C 693.97313,530.87151 688.69125,532.7154 683.03903,532.24931 C 677.62616,531.80296 677.52238,529.84726 682.60511,524.07297 C 686.9615,519.12385 688.78675,513.95037 687.84238,509.22851 L 687.27955,506.41434 L 683.40225,509.91724 C 680.889,512.18781 678.52632,513.42015 676.68636,513.42015 C 673.85692,513.42015 673.8503,513.40486 674.62963,508.67015 C 675.88758,501.02772 675.64323,490.11189 674.09937,484.98203 C 671.07989,474.94907 663.22637,467.09689 654.97334,465.85928 C 651.31321,465.31041 649.83891,465.63553 646.12901,467.80967 C 640.095,471.34584 638.05703,474.22778 636.542,481.36694 C 635.83548,484.69621 634.90716,487.42015 634.47905,487.42015 C 633.15094,487.42015 625.45639,478.1758 622.40996,472.92015 C 620.81593,470.17015 618.31674,464.32015 616.8562,459.92015 C 614.51194,452.85785 614.19209,450.27918 614.12739,437.92015 L 614.0541,423.92015 L 617.7924,416.44836 C 619.84847,412.33888 621.53071,407.90638 621.53071,406.59836 C 621.53071,403.52198 615.12676,396.97745 612.93824,397.81726 C 612.06794,398.15123 609.56797,398.71037 607.38275,399.0598 C 603.82089,399.62936 603.05361,399.35006 599.97017,396.36147 C 598.07847,394.52796 596.53071,392.51232 596.53071,391.88227 C 596.53071,391.25222 598.32974,390.19772 600.52855,389.53894 C 604.61861,388.31353 608.53071,385.02047 608.53071,382.80302 C 608.53071,380.04653 605.65881,378.52302 602.28605,379.49032 C 595.42515,381.458 584.53071,379.84415 584.53071,376.86012 C 584.53071,376.10972 587.00277,372.72527 590.02416,369.33912 C 596.77366,361.77482 597.98367,357.8769 597.13872,346.42015 C 596.61766,339.35499 596.04264,337.24493 593.73233,333.92015 C 588.12224,325.84663 574.98284,320.58363 568.63373,323.86688 C 564.60594,325.94973 564.57352,325.93124 565.22409,321.9222 C 566.29584,315.31778 563.57864,306.3677 554.93524,288.03213 C 550.29741,278.19372 545.62003,266.68659 544.54107,262.46073 C 540.46037,246.4782 539.73884,228.20339 542.68381,215.42015 C 543.254,212.94515 544.52399,207.07388 545.50603,202.37289 C 546.48806,197.6719 548.52958,191.3719 550.04274,188.37289 C 555.02567,178.49695 565.2025,164.01267 571.02427,158.51072 C 577.31186,152.56854 579.78903,147.2156 581.09316,136.75273 C 583.24203,119.51273 598.61684,101.60357 619.33178,92.210964 C 627.81098,88.36631 642.17205,84.709158 652.22445,83.834602 C 656.51789,83.461074 660.59321,82.709914 661.28071,82.165359 C 661.96821,81.620803 662.53071,79.241352 662.53071,76.877689 C 662.53071,72.917713 662.97265,72.186225 668.15662,67.565824 C 678.24394,58.575147 690.18773,54.004007 715.42282,49.476049 C 725.73937,47.624941 728.19411,47.532909 741.42282,48.501265 C 758.70246,49.766154 774.60545,52.342147 787.03071,55.888907 C 797.66395,58.924141 817.06833,68.370562 829.51931,76.573165 C 843.32857,85.670596 848.53071,93.251194 848.53071,104.27674 L 848.53071,110.19757 L 851.9903,110.84659 C 853.89308,111.20355 859.01474,113.27988 863.37178,115.46064 C 878.50184,123.03348 891.99669,141.64194 893.30988,156.7432 C 893.83204,162.74782 893.98908,163.03331 898.93887,166.97601 C 909.22413,175.16865 918.40387,189.47875 921.99656,202.92015 C 924.24582,211.33533 925.91282,247.30317 924.56882,258.42015 C 923.49618,267.29264 917.5263,286.54854 913.20345,295.07927 C 909.63105,302.12905 903.97102,309.02677 889.34289,324.15746 C 873.07324,340.98608 868.10317,347.72498 865.40155,356.61947 C 862.44641,366.34864 863.06063,377.71473 866.9525,385.31944 C 870.32886,391.91683 869.63817,394.25739 863.32071,397.62666 C 859.70462,399.55521 857.51538,399.91506 849.38431,399.91739 L 839.73791,399.92015 L 841.15124,402.65322 C 842.69617,405.64079 846.19916,407.78469 851.34828,408.89401 C 853.17294,409.28711 854.90992,410.24478 855.20823,411.02217 C 856.62646,414.718 847.90149,421.30738 843.45731,419.89685 C 839.49897,418.64053 837.53181,420.24325 837.51593,424.73754 C 837.47932,435.09742 833.93817,444.31445 823.35714,461.5906 C 813.24708,478.09777 809.41337,497.59524 814.38827,507.20445 C 815.60822,509.56081 816.35806,511.89048 816.0546,512.38149 C 814.91361,514.22765 808.09646,515.65514 802.95502,515.12449 C 795.45035,514.34994 791.06943,511.93396 787.44164,506.56919 L 784.29783,501.92015 L 784.94506,507.14263 C 785.49227,511.55804 785.19578,513.1476 783.02646,517.42853 C 781.61525,520.21342 778.81745,524.31076 776.80913,526.53374 C 773.21688,530.50993 765.06937,535.42015 762.06395,535.42015 C 759.83033,535.42015 760.14184,531.08205 762.53071,528.92015 C 765.58694,526.1543 765.32711,518.12564 762.07616,514.8747 C 756.94447,509.743 747.50919,512.67728 743.80839,520.55579 C 739.98901,528.68672 739.09711,533.02955 740.37242,537.28617 C 741.00948,539.41248 741.53071,542.78748 741.53071,544.78617 L 741.53071,548.42015 L 736.28071,548.41936 C 732.96275,548.41886 729.46992,547.646 726.78953,546.31922 z "
       style="fill:#000000" />
    <path
       id="path2380"
       d="M 684.03125,130.40625 C 676.31737,130.40625 669.8655,133.45566 657.0625,143.125 C 641.20339,155.10245 639.5854,159.86141 638.96875,196.28125 C 638.49393,224.32431 637.85297,227.49883 631.5625,233.375 C 628.64812,236.09746 628.53127,236.56731 627.9375,247.5625 C 627.32725,258.86279 627.35581,258.98616 631.4375,271.71875 C 633.69403,278.75788 635.53125,286.12398 635.53125,288.09375 C 635.53126,291.06971 636.9287,293.48766 643.875,302.3125 C 656.59149,318.468 662.51254,328.2149 665.9375,338.75 C 666.26529,339.75824 666.86904,340.43639 667.28125,340.25 C 667.69345,340.0636 670.28125,338.74676 673.03125,337.3125 C 675.78126,335.87825 679.65484,334.17882 681.65625,333.53125 C 685.10119,332.4166 685.48791,331.84316 688.53125,323.125 C 690.29937,318.05998 694.38618,307.93761 697.625,300.625 C 700.86381,293.31239 703.81055,286.1899 704.15625,284.8125 C 704.95037,281.64842 707.15576,282.01451 709.9375,285.75 C 712.03847,288.57133 712.0265,288.58431 710.03125,290 C 703.97718,294.29556 702.24953,297.46261 700.90625,306.90625 C 700.40202,310.45113 700.73397,311.36138 703.84375,314.90625 C 706.98362,318.48542 707.58694,318.77474 709.4375,317.65625 C 712.26113,315.94964 712.71,316.04388 717.15625,319.0625 C 719.29549,320.51485 722.24549,322.04576 723.71875,322.46875 C 727.37608,323.5188 733.80258,321.91053 738.53125,318.78125 C 741.70174,316.68311 743.19715,316.30789 746.25,316.8125 C 752.34027,317.81917 753.75551,317.61949 755.875,315.5 C 759.55112,311.82389 758.12238,301.28536 752.84375,293.15625 C 751.46812,291.03783 751.31965,289.99088 752.15625,288.65625 C 753.41714,286.64477 757.53125,285.71016 757.53125,287.4375 C 757.53126,288.07803 759.74923,293.83978 762.46875,300.25 C 765.18828,306.6602 767.69811,314.02154 768.03125,316.59375 C 769.13773,325.13695 774.8127,330.77128 787.53125,335.9375 C 791.10626,337.38964 794.82621,338.99374 795.78125,339.5 C 798.22818,340.79713 798.53125,340.69076 798.53125,338.46875 C 798.53126,335.0735 801.63061,327.16375 805.09375,321.75 C 806.92608,318.88555 813.13284,311.88784 818.875,306.21875 C 834.36446,290.92638 838.23468,281.41873 839.25,256.21875 L 839.8125,242.53125 L 836.65625,237.625 C 830.91804,228.68276 829.19253,219.50191 829.15625,198.1875 L 829.125,179.46875 L 826.78125,181 C 823.6038,183.08195 822.16069,181.92485 823.09375,178.0625 C 823.50986,176.34013 823.87064,170.63125 823.90625,165.40625 C 823.95976,157.55605 823.60425,155.23194 821.84375,151.90625 C 819.00794,146.54926 810.55822,138.76036 804.8125,136.21875 C 795.54774,132.1205 780.67496,135.7017 775.78125,143.1875 C 774.70997,144.82618 774.03125,147.78951 774.03125,150.875 C 774.03126,154.96042 773.69244,155.956 772.1875,156.25 C 769.67008,156.74181 764.69693,151.84789 762.4375,146.65625 C 760.44521,142.07847 760.47438,142.10573 758.0625,143.03125 C 755.2191,144.12236 753.53125,149.01109 753.53125,156.0625 C 753.53126,161.53315 753.9154,163.21147 755.625,165.03125 C 758.24937,167.82477 757.37159,169.43483 753.21875,169.40625 C 745.8193,169.35532 734.89922,161.1144 732.46875,153.75 C 731.82428,151.79726 731.50224,147.73758 731.75,144.75 C 732.1148,140.35124 731.9293,139.43445 730.78125,139.875 C 730.00151,140.17423 728.95061,140.40625 728.4375,140.40625 C 726.1083,140.40625 723.53492,147.05024 723.53125,153.0625 C 723.52576,162.11207 721.98945,162.76475 715.625,156.5 C 711.27984,152.22293 710.53125,150.92839 710.53125,147.6875 C 710.53126,145.59983 710.95715,142.44012 711.46875,140.65625 C 712.7811,136.08043 710.13732,136.28696 707.375,140.96875 C 706.22556,142.91692 704.95086,144.37942 704.53125,144.21875 C 704.11165,144.05809 702.21684,141.90623 700.34375,139.4375 C 695.06589,132.48132 691.34315,130.40625 684.03125,130.40625 z M 744.03125,192.5625 C 744.2703,192.32341 745.37447,194.22841 746.46875,196.78125 C 747.56304,199.3341 748.84214,201.40625 749.3125,201.40625 C 749.78288,201.40625 751.19763,200.23848 752.4375,198.8125 C 755.71271,195.04565 755.92646,196.3789 753.0625,202.53125 C 750.51851,207.99621 749.94335,211.9214 751.34375,214.125 C 751.76709,214.79112 754.33174,216.34554 757.0625,217.5625 C 765.42801,221.29059 771.48826,220.62934 789.53125,214.0625 C 798.05626,210.95978 805.93125,208.43649 807.03125,208.4375 C 809.57141,208.43984 814.54423,211.45398 820.65625,216.71875 C 824.29279,219.85119 825.15796,221.14394 824.34375,222.125 C 823.10199,223.62124 819.89802,223.8519 819.0625,222.5 C 818.74807,221.9913 814.63297,219.51448 809.90625,217 L 801.3125,212.4375 L 795.6875,214.8125 C 792.58365,216.12589 786.20625,218.94366 781.53125,221.0625 C 773.90122,224.52064 772.20543,224.90064 764.875,224.90625 C 757.88513,224.91161 756.22953,224.58867 753.53125,222.59375 C 749.74018,219.7909 747.68214,220.33926 746.875,224.375 C 746.01467,228.67679 743.96917,230.12429 742.53125,227.4375 C 741.66078,225.81106 741.74025,224.23486 742.875,220.625 C 745.17938,213.29427 745.40272,210.53952 744.46875,201.46875 C 743.98984,196.8175 743.79217,192.80159 744.03125,192.5625 z M 710.03125,196.71875 C 710.57484,196.81512 712.21767,197.96254 713.96875,199.5 C 715.96997,201.2571 717.74235,202.5232 717.90625,202.3125 C 718.07017,202.10182 718.95738,200.79738 719.875,199.4375 C 721.48834,197.0466 721.53125,197.27868 721.53125,206.625 C 721.53126,214.60418 721.88407,216.91482 723.59375,219.8125 C 725.91596,223.74835 725.88414,228.90625 723.53125,228.90625 C 722.70626,228.90625 721.13376,227.04418 720.03125,224.75 C 717.30111,219.06888 717.27298,219.03982 713.15625,221.46875 C 710.85025,222.82933 706.8781,223.88326 702.28125,224.3125 L 695.03125,224.96875 L 700.21875,226.75 C 706.01815,228.74041 706.51897,229.20681 710.03125,235.8125 C 714.17249,243.60109 712.82865,246.27792 707.96875,239.90625 C 706.49861,237.97881 702.97661,234.74772 700.15625,232.71875 C 697.33589,230.6898 693.1952,227.3751 690.9375,225.34375 C 687.746,222.47218 685.21046,221.2846 679.5625,220 C 675.56715,219.09127 670.29283,217.2725 667.84375,215.96875 C 662.29006,213.01228 658.50798,213.80951 653.78125,218.90625 C 650.2298,222.73569 648.4362,223.23283 646.53125,220.9375 C 644.69632,218.72653 645.9168,216.81814 651.25,213.46875 C 658.51464,208.90637 661.15813,208.75105 669.34375,212.34375 C 673.21437,214.04258 677.26452,215.40625 678.375,215.40625 C 679.48544,215.40625 684.14641,216.31011 688.71875,217.40625 C 698.82057,219.82799 704.19534,219.94751 709.53125,217.8125 C 716.4272,215.05328 717.40343,209.78118 712.46875,202 C 710.79061,199.35381 709.6296,196.99541 709.875,196.75 C 709.90567,196.71933 709.95359,196.70498 710.03125,196.71875 z M 779.4375,225.78125 C 780.58609,225.70953 779.81384,226.76522 776.625,228.96875 C 767.50735,235.26914 762.42775,239.62347 760.28125,242.9375 C 757.74609,246.85164 757.58791,246.91753 755.09375,245.09375 C 753.63427,244.02656 753.50111,243.35164 754.375,241.71875 C 756.28603,238.14792 762.38902,233.50043 770.65625,229.34375 C 775.2081,227.05513 778.28891,225.85297 779.4375,225.78125 z M 723.0625,230.40625 C 724.10292,230.40625 724.14222,231.19121 723.3125,234.15625 C 721.98002,238.91794 722.96828,264.08265 724.625,267.71875 C 725.48905,269.61515 725.51364,270.73612 724.75,271.65625 C 724.16191,272.36483 722.95023,276.0923 722.0625,279.9375 C 718.70967,294.46036 718.16565,295.72816 716.1875,293.75 C 714.81219,292.37471 715.61855,286.17816 717.875,280.625 C 720.0365,275.30549 720.1551,273.86579 719.71875,261 C 719.19263,245.48803 720.84959,230.40625 723.0625,230.40625 z M 742.53125,232.40625 C 743.08126,232.40625 743.54301,233.41875 743.5625,234.65625 C 743.58197,235.89375 744.24523,238.03125 745.03125,239.40625 C 745.99437,241.09104 746.46875,245.00406 746.46875,251.40625 C 746.46875,257.80844 745.99436,261.72146 745.03125,263.40625 C 742.99445,266.96928 743.19204,272.70281 745.65625,282.09375 C 746.8985,286.82796 747.53216,291.34601 747.15625,292.84375 C 746.42518,295.75652 745.03295,296.20982 744.125,293.84375 C 743.79115,292.97378 743.53125,291.00363 743.53125,289.46875 C 743.53126,287.93386 742.25985,282.43358 740.71875,277.25 C 737.97434,268.01895 737.96665,267.79558 739.84375,266.34375 C 742.48737,264.29906 743.71937,255.67991 742.53125,247.46875 C 741.28814,238.87762 741.28198,232.40625 742.53125,232.40625 z M 657.125,241.625 C 659.68297,241.68139 663.91157,242.65136 673.9375,245.3125 C 683.08414,247.74024 690.35532,247.95108 696.03125,245.90625 C 701.18457,244.04971 703.56807,244.04648 706.3125,245.96875 C 709.87905,248.46688 708.91822,249.48847 703.3125,249.1875 C 699.32565,248.97346 698.01965,249.25926 697.78125,250.40625 C 697.52971,251.61644 698.44974,251.84176 702.5,251.5625 C 709.07776,251.10896 710.36492,253.41546 705.625,257.125 C 703.815,258.54155 700.72088,263.05198 698.46875,267.53125 C 694.8407,274.74715 693.00093,276.56344 691.1875,274.75 C 689.46746,273.02998 691.02133,269.36682 696,263.40625 C 699.00927,259.80347 700.89227,256.81016 700.21875,256.65625 C 699.55044,256.50353 696.36645,257.29102 693.125,258.40625 C 686.14288,260.80846 684.39779,260.88294 679.0625,259.03125 C 676.8441,258.26133 672.10625,256.82036 668.53125,255.84375 C 661.87249,254.0247 659.53125,252.85766 659.53125,251.3125 C 659.53126,249.91087 665.95615,250.26885 669.875,251.90625 C 671.84951,252.73125 674.26984,253.39249 675.25,253.375 C 676.91878,253.34522 676.90952,253.26522 675.15625,251.9375 C 672.77403,250.13348 657.04856,244.40625 654.46875,244.40625 C 651.69945,244.40625 652.05959,242.5739 654.96875,241.84375 C 655.6017,241.68489 656.27234,241.6062 657.125,241.625 z M 769.59375,243.0625 L 774.28125,245.34375 C 780.75836,248.49056 787.39028,248.90608 798.53125,246.9375 C 803.75626,246.01426 809.54493,245.00612 811.40625,244.6875 C 813.99349,244.2446 814.69139,244.42583 814.34375,245.46875 C 814.09363,246.21904 810.32997,247.92518 805.96875,249.25 C 801.60752,250.57481 797.35625,251.99997 796.53125,252.40625 C 794.57231,253.37095 795.16676,254.9855 797.34375,254.625 C 798.27402,254.47095 800.81107,254.06658 803,253.71875 L 807,253.09375 L 805.40625,255.5 C 804.29624,257.18954 802.08314,258.35747 798,259.34375 C 792.8319,260.59211 791.15706,260.56029 783.34375,259.0625 C 778.49575,258.13315 773.85161,257.09604 773.03125,256.78125 C 769.82459,255.55074 770.23727,259.72034 774.03125,267.09375 C 778.41683,275.6169 777.74733,279.08757 773.125,271.78125 C 771.53815,269.27296 768.19954,264.73293 765.71875,261.6875 C 760.46522,255.23828 760.77237,253.43073 767.375,252.125 C 769.65654,251.67381 771.53125,250.87864 771.53125,250.34375 C 771.53126,248.42101 768.50279,248.26105 764.03125,249.96875 C 761.52657,250.92531 759.27568,251.49443 759,251.21875 C 757.73216,249.95088 760.07378,247.50668 764.625,245.375 L 769.59375,243.0625 z M 833,259.625 C 833.1306,259.618 833.25806,259.62543 833.40625,259.65625 C 835.60335,260.11322 835.24352,265.44853 832.5,272.78125 C 829.81328,279.96212 821.69782,288.89196 811.8125,295.5625 C 807.80705,298.26536 803.91209,301.46471 803.125,302.6875 C 802.33787,303.91028 799.79188,310.75625 797.46875,317.90625 C 795.14562,325.05626 792.61782,331.82137 791.875,332.90625 C 790.62173,334.73662 790.53125,334.60382 790.53125,331.375 C 790.53126,329.46126 791.66308,323.85238 793.03125,318.90625 C 794.39939,313.96012 795.52441,307.76875 795.53125,305.15625 L 795.53125,300.40625 L 791.5,300.40625 C 788.82395,300.40626 787.26033,299.9104 786.875,298.90625 C 785.71945,295.89495 788.3179,294.61496 795.3125,294.71875 C 803.88718,294.84597 810.76943,291.82135 818.9375,284.34375 C 825.16975,278.63832 830.02491,270.23573 831.1875,263.125 C 831.58637,260.68536 832.08583,259.67399 833,259.625 z M 635.90625,268.28125 C 637.01866,268.37934 638.78565,270.18759 640.3125,273.625 C 643.09887,279.89804 654.01607,289.69957 661.21875,292.40625 C 666.22732,294.2884 668.17784,294.49072 675.28125,293.90625 C 682.17468,293.33908 683.53125,293.4927 683.53125,294.71875 C 683.53126,296.9964 681.44177,298.12865 676.21875,298.6875 C 673.57907,298.96994 671.23441,299.39059 671,299.625 C 670.50199,300.12297 673.17987,322.84351 674.125,326.15625 C 675.18305,329.86487 672.73876,328.76708 670.59375,324.5625 C 669.51208,322.4423 668.35229,318.2798 668,315.3125 C 666.56821,303.25296 664.48067,300.24594 651.4375,291.3125 C 642.06946,284.8962 637.21176,279.42238 635.34375,273.1875 C 634.32736,269.7951 634.79384,268.18316 635.90625,268.28125 z M 730.8125,343.40625 C 728.06596,343.40626 717.53125,348.32017 717.53125,349.59375 C 717.53126,350.05452 719.30121,350.40625 721.46875,350.40625 C 723.6363,350.40626 725.69133,350.85625 726.03125,351.40625 C 726.84537,352.72351 732.22354,352.56621 736.28125,351.09375 C 738.06048,350.4481 739.60551,349.45625 739.71875,348.90625 C 740.02964,347.39626 733.56319,343.40625 730.8125,343.40625 z M 746.25,353.5 C 743.83065,353.51069 741.4641,354.47287 739.03125,356.40625 C 734.29469,360.17041 730.51699,360.26572 722.3125,356.8125 C 713.51908,353.11139 710.71463,353.79283 702.84375,361.59375 C 696.36927,368.01069 694.71227,370.66502 698.875,367.9375 C 701.02548,366.52846 701.60228,366.54986 705.625,368.375 C 711.05489,370.83857 710.78316,370.85182 723.28125,368.75 C 731.58945,367.35279 734.38207,367.22204 737.875,368.15625 C 742.95874,369.51593 753.93664,368.30051 758.6875,365.84375 C 761.47927,364.40005 761.86797,364.40991 763.625,366 C 765.1552,367.38481 765.53125,367.4367 765.53125,366.28125 C 765.53126,364.82454 757.65711,358.36503 752.0625,355.21875 C 750.03455,354.07827 748.13172,353.49168 746.25,353.5 z "
       style="fill:#fee4ca;fill-opacity:1" />
  </g>
</svg>
