<?xml version="1.0" encoding="UTF-8" standalone="no"?>
<!-- Created with Inkscape (http://www.inkscape.org/) -->

<svg
   xmlns:dc="http://purl.org/dc/elements/1.1/"
   xmlns:cc="http://creativecommons.org/ns#"
   xmlns:rdf="http://www.w3.org/1999/02/22-rdf-syntax-ns#"
   xmlns:svg="http://www.w3.org/2000/svg"
   xmlns="http://www.w3.org/2000/svg"
   xmlns:sodipodi="http://sodipodi.sourceforge.net/DTD/sodipodi-0.dtd"
   xmlns:inkscape="http://www.inkscape.org/namespaces/inkscape"
   width="564.6604"
   height="680.68719"
   id="svg2"
   version="1.1"
   inkscape:version="0.48.5 r10040"
   sodipodi:docname="trakai district.svg">
  <defs
     id="defs4">
    <style
       id="style4326"
       type="text/css" />
    <style
       id="style6"
       type="text/css" />
  </defs>
  <sodipodi:namedview
     id="base"
     pagecolor="#f6f3f1"
     bordercolor="#666666"
     borderopacity="1.0"
     inkscape:pageopacity="0"
     inkscape:pageshadow="2"
     inkscape:zoom="0.98994949"
     inkscape:cx="546.59013"
     inkscape:cy="491.21753"
     inkscape:document-units="px"
     inkscape:current-layer="g4935"
     showgrid="false"
     showborder="true"
     inkscape:window-width="1920"
     inkscape:window-height="1017"
     inkscape:window-x="-8"
     inkscape:window-y="-8"
     inkscape:window-maximized="1"
     inkscape:showpageshadow="false"
     fit-margin-top="0"
     fit-margin-left="0"
     fit-margin-right="0"
     fit-margin-bottom="0"
     inkscape:object-nodes="false">
    <inkscape:grid
       type="xygrid"
       id="grid3936"
       empspacing="5"
       visible="true"
       enabled="true"
       snapvisiblegridlinesonly="true"
       originx="-104.47885px"
       originy="-104.95118px" />
  </sodipodi:namedview>
  <metadata
     id="metadata7">
    <rdf:RDF>
      <cc:Work
         rdf:about="">
        <dc:format>image/svg+xml</dc:format>
        <dc:type
           rdf:resource="http://purl.org/dc/dcmitype/StillImage" />
        <dc:title />
      </cc:Work>
    </rdf:RDF>
  </metadata>
  <g
     inkscape:label="Layer 1"
     inkscape:groupmode="layer"
     id="layer1"
     transform="translate(-129.0959,-109.16144)">
    <g
       id="layer1-1"
       transform="translate(659.28573,-203.02327)">
      <g
         id="g4935">
        <path
           inkscape:connector-curvature="0"
           d="m 31.470592,315.18471 0,395.21914 -0.002,0 c 0,0.0461 0.002,0.0927 0.002,0.13886 0,153.84957 -125.48014,279.32921 -279.329212,279.32921 -153.84957,0 -279.32921,-125.47964 -279.32921,-279.32921 0,-0.0461 10e-4,-0.0927 10e-4,-0.13886 l -10e-4,0 -0.001,-395.21914 z"
           id="path3858"
           style="fill:#da2c27;fill-opacity:1;stroke:#000000;stroke-width:6;stroke-miterlimit:4;stroke-dasharray:none"
           sodipodi:nodetypes="cccssscccc" />
        <g
           id="g4686">
          <path
             inkscape:connector-curvature="0"
             id="path4682"
             d="m -445.00233,447.55971 -15.78125,2.65625 80.28125,478.90625 15.78125,-2.65625 -80.28125,-478.90625 z"
             style="font-size:medium;font-style:normal;font-variant:normal;font-weight:normal;font-stretch:normal;text-indent:0;text-align:start;text-decoration:none;line-height:normal;letter-spacing:normal;word-spacing:normal;text-transform:none;direction:ltr;block-progression:tb;writing-mode:lr-tb;text-anchor:start;baseline-shift:baseline;color:#000000;fill:#dcdddf;fill-opacity:1;stroke:#000000;stroke-width:2;stroke-miterlimit:4;stroke-opacity:1;stroke-dasharray:none;marker:none;visibility:visible;display:inline;overflow:visible;enable-background:accumulate;font-family:Sans;-inkscape-font-specification:Sans" />
          <g
             id="g4691">
            <path
               sodipodi:nodetypes="csccccsc"
               transform="translate(-531.18983,311.18471)"
               inkscape:connector-curvature="0"
               id="path4689"
               d="m 56.25,25.365769 c 0,0 -2.142857,19.285715 -3.750001,45 -1.479808,23.676933 0.40674,26.559222 11.770956,39.817471 l 3.030458,31.81981 22.414618,-4.23187 -7.26233,-33.27005 c 0,0 6.951471,-18.135361 -2.810844,-36.813933 C 70.486036,50.167138 56.25,25.365769 56.25,25.365769 z"
               style="color:#000000;fill:#ffd30d;fill-opacity:1;stroke:#000000;stroke-width:2;stroke-linecap:butt;stroke-linejoin:miter;stroke-miterlimit:4;stroke-opacity:1;stroke-dasharray:none;stroke-dashoffset:0;marker:none;visibility:visible;display:inline;overflow:visible;enable-background:accumulate" />
            <path
               style="font-size:medium;font-style:normal;font-variant:normal;font-weight:normal;font-stretch:normal;text-indent:0;text-align:start;text-decoration:none;line-height:normal;letter-spacing:normal;word-spacing:normal;text-transform:none;direction:ltr;block-progression:tb;writing-mode:lr-tb;text-anchor:start;baseline-shift:baseline;color:#000000;fill:#000000;fill-opacity:1;stroke:none;stroke-width:1.5;marker:none;visibility:visible;display:inline;overflow:visible;enable-background:accumulate;font-family:Sans;-inkscape-font-specification:Sans"
               d="m -458.06483,398.90346 c 5.39072,9.33309 8.25149,15.94344 9.40625,20.5625 l 1.46875,-0.34375 c -1.21306,-4.85222 -4.13276,-11.56809 -9.5625,-20.96875 -5.50967,-9.53903 -9.02705,-23.19242 -9.02705,-23.19242 0,0 2.03877,14.11579 7.71455,23.94242 z m -8.625,3.375 c -1.5605,10.46351 -0.5,22.0625 -0.5,22.0625 l 1.5,-0.125 c 0,0 -1.0218,-11.51474 0.5,-21.71875 1.56089,-10.46617 -1.65054,-26.38793 -1.65054,-26.38793 0,0 1.64137,16.1728 0.15054,26.16918 z"
               id="path4694"
               inkscape:connector-curvature="0"
               sodipodi:nodetypes="sccscssccscs" />
          </g>
        </g>
        <g
           id="g4700"
           transform="translate(0,-3.5930929)">
          <path
             style="fill:#ffd30d;fill-opacity:1;stroke:#000000;stroke-width:2.5;stroke-miterlimit:4;stroke-dasharray:none"
             d="m 353.65625,319.09375 0,143.96875 c 0,100.16718 88.25,149.6875 88.25,149.6875 0,0 88.21875,-49.52032 88.21875,-149.6875 l 0,-143.96875 -176.46875,0 z m 12.125,11.46875 152.25,0 0,131.6875 c 0,91.59498 -76.125,136.84375 -76.125,136.84375 0,0 -76.125,-45.24877 -76.125,-136.84375 l 0,-131.6875 z"
             transform="translate(-531.18983,314.7778)"
             id="path4703"
             inkscape:connector-curvature="0" />
          <path
             style="color:#000000;fill:#ffd30d;fill-opacity:1;stroke:#000000;stroke-width:2;stroke-linecap:round;stroke-linejoin:miter;stroke-miterlimit:4;stroke-opacity:1;stroke-dasharray:none;stroke-dashoffset:0;marker:none;visibility:visible;display:inline;overflow:visible;enable-background:accumulate"
             d="m -96.87733,671.93405 0,23.90625 -19.59375,0 0,138.53125 -9.71875,0 0,-148.5 -15.15625,0 0,163.65625 104.09375,0 0,-163.65625 -15.15625,0 0,148.5 -9.71875,0 0,-138.53125 -19.59375,0 0,-23.90625 z m -4.4375,39.0625 24.03125,0 0,123.375 -24.03125,0 z"
             id="rect4708"
             inkscape:connector-curvature="0"
             sodipodi:nodetypes="cccccccccccccccccccccc" />
        </g>
        <g
           id="g4645">
          <path
             sodipodi:nodetypes="ccscsccccsccccscccccsscscccccccccsccccsscccccccscscsccscscccccsccccscscscsccsscscccccscccccccczsczccsccccccsscsccscccscsccccccccccccccc"
             transform="translate(-531.18983,311.18471)"
             inkscape:connector-curvature="0"
             id="path4630"
             d="m 123.49115,253.2461 c -4.16688,6.81853 -2.27285,16.28871 -2.27285,16.28871 4.54569,-2.27285 14.77349,-3.03046 14.77349,-3.03046 0,0 3.48952,12.42857 17.80393,10.6066 14.94036,-1.90165 16.66752,-12.50064 16.66752,-12.50064 7.95495,0.37881 13.63706,-1.51523 13.63706,-1.51523 -0.37881,-7.19733 -0.70744,-9.87217 -0.70744,-9.87217 5.35714,-9.10714 25.71428,-28.92857 25.71428,-28.92857 0,0 0.30244,18.45422 8.03571,33.75 8.06378,15.94949 10.00001,31.25 10.00001,31.25 -7.5167,8.76949 -9.44715,20.73475 -9.44715,20.73475 -6.15776,7.3214 -7.6205,14.6428 -8.12343,21.9642 -7.4577,10.9502 -7.77466,16.54325 -9.17774,24.81488 -5.33099,6.63229 -6.17513,13.26459 -7.35883,19.89688 1.60715,3.48215 5.35715,9.375 5.35715,9.375 -9.69954,9.35736 -10.09196,26.77754 -18.48215,41.16072 -2.94642,-1.875 -6.42857,-1.07143 -6.42857,-1.07143 1.60715,4.28571 2.14286,13.125 2.14286,13.125 -2.94643,-0.26786 -16.33929,-1.60714 -17.94643,14.46428 -1.60714,16.07143 11.25,20.08929 11.25,20.08929 1.33929,6.42857 -0.53571,12.05357 -0.53571,12.05357 l 4.12132,-0.66847 c 13.63706,37.86466 28.25364,82.07985 28.25364,100.227 -12.87945,2.65165 -9.47018,12.12183 -9.47018,12.12183 0,0 -16.56156,17.41842 -34.85027,14.01587 -18.28871,-3.40255 -27.27411,7.19734 -27.27411,7.19734 0,0 10.9854,-1.51523 20.07678,2.65165 9.09137,4.16688 29.30458,6.45377 40.91118,1.89403 11.6066,-4.55973 20.83439,-5.6821 20.83439,-5.6821 7.57615,3.78807 10.6066,-1.51523 10.6066,-1.51523 0,0 10.98541,6.06091 15.5311,-1.89404 4.54569,-7.95495 -3.78807,-18.18275 -3.78807,-18.18275 -8.33376,-14.01586 -3.283,-46.71955 -5.55584,-74.75128 -2.27285,-28.03174 -16.5394,-43.71742 -16.5394,-43.71742 4.82143,-6.96429 0,-10.98214 2.14286,-16.33929 2.14285,-5.35714 1.39082,-11.66412 1.39082,-11.66412 8.71257,-6.06092 24.24366,-17.04633 33.71384,-26.1377 9.47018,-9.09137 20.07391,-15.41246 20.07391,-15.41246 7.23214,12.58928 10.17857,22.76786 10.17857,22.76786 -5.08929,1.07142 -7.76786,4.82142 -7.76786,4.82142 5.89286,3.75 7.5,7.23215 7.5,7.23215 0,0 -5.82738,4.67857 -3.75,17.14285 2.07739,12.46429 15.53572,14.46429 15.53572,14.46429 0.53571,5.08929 1.60714,9.375 1.60714,9.375 2.67857,0.53571 5.10985,-0.16077 5.10985,-0.16077 15.9099,35.60788 15.15228,100.25764 15.15228,100.25764 -13.63705,3.40927 -11.36421,13.25826 -11.36421,13.25826 0,0 -6.43972,10.22779 -27.27412,14.77348 -20.8344,4.54568 -21.59201,18.56155 -21.59201,18.56155 20.8344,-12.50064 24.51651,-0.55577 38.25953,-4.54569 13.74302,-3.9899 30.68338,-10.6066 30.68338,-10.6066 10.2278,3.03046 11.47173,-4.4843 11.47173,-4.4843 0,0 16.07143,3.75 17.14285,-8.57143 1.07143,-12.32143 -8.03571,-14.46428 -8.03571,-14.46428 -0.53571,-15.53572 6.42857,-48.39286 6.96429,-77.32143 0.53571,-28.92857 -16.93656,-43.27217 -16.93656,-43.27217 4.54569,-7.95496 -2.65165,-10.98541 -2.65165,-21.21321 0,-10.22779 -4.16688,-12.12183 -4.16688,-12.12183 -0.67901,-23.75781 7.30144,-26.50225 8.75509,-48.39279 10.71428,-6.96429 14.28571,-18.82025 14.28571,-18.82025 0.17594,-10.86725 -5.11416,-20.33129 -5.11416,-20.33129 0,0 -2.09575,-10.74205 -7.13299,-17.09795 -2.82938,-9.70017 -7.15234,-19.35473 -12.61093,-23.80358 -1.67052,-9.75214 -9.54693,-18.02626 -9.54693,-18.02626 3.78807,-3.40926 1.36593,-11.39467 4.92449,-19.69797 3.55856,-8.3033 20.45559,-40.53237 26.89531,-48.86613 6.43972,-8.33376 0.75762,-14.77348 0.75762,-14.77348 3.78807,-3.03046 7.95495,-6.81853 7.95495,-6.81853 l 3.40926,0 c 23.10724,3.40926 42.07052,14.93187 42.07052,14.93187 0,0 -5.35714,5.35714 -0.80357,12.05357 4.55357,6.69643 14.16517,1.4251 14.16517,1.4251 6.43973,17.80394 8.16167,44.36764 8.16167,44.36764 -4.97833,0.94701 -9.20184,2.86797 -9.20184,2.86797 6.69643,18.75 5.625,31.60715 5.625,31.60715 -7.5,1.60714 -16.33928,9.10714 -16.33928,9.10714 -1.07143,7.5 0,17.94643 0,17.94643 4.01785,7.5 8.03571,7.5 8.03571,7.5 2.45176,3.40006 8.10258,2.27697 9.10714,0.26785 7.76786,1.07143 8.03572,-3.75 8.03572,-3.75 0,0 4.01785,0.26786 5.89285,-2.94642 1.875,-3.21429 3.2852,-13.78119 3.2852,-13.78119 0,0 8.33375,0.75762 13.25825,-3.40926 4.92449,-4.16688 4.54568,-14.39468 6.43972,-23.10724 1.89404,-8.71257 16.28871,-18.56156 16.28871,-18.56156 -5.3033,-5.6821 -18.18275,-5.6821 -18.18275,-5.6821 -0.75761,-11.36422 -1.89403,-40.53237 -1.89403,-40.53237 3.03046,-1.13643 4.54568,-4.54569 4.54568,-4.54569 -1.89403,-1.51523 -6.81852,-7.19734 -6.81852,-7.19734 4.92449,-4.16688 7.19733,-15.53109 1.13642,-25.75889 -6.06092,-10.22779 -20.8344,-7.19733 -20.8344,-7.19733 -3.40926,-4.16688 -6.81853,-9.84899 -6.81853,-9.84899 -4.54569,1.89403 -6.06091,4.16688 -6.06091,4.16688 l -15.90991,-7.4652 c 0,0 2.75499,-4.83901 -0.80357,-7.79804 -3.55856,-2.95903 -9.42422,0.48976 -9.42422,0.48976 -7.95495,-16.66752 -30.68339,-16.09931 -30.68339,-16.09931 -1.89403,-3.03046 1.48101,-5.5336 -13.96664,-9.66747 -15.44766,-4.13388 -17.47435,-29.91788 -17.47435,-29.91788 0,0 4.16688,-1.13642 4.54568,-6.43972 0.37881,-5.303305 -2.27284,-6.439727 -2.27284,-6.439727 0,0 1.89404,-30.304576 -4.92449,-40.153564 -6.81853,-9.848987 -29.85968,-31.589485 -29.85968,-31.589485 -3.75,4.285714 -32.41071,30.267856 -32.41071,30.267856 l -7.91989,0.234882 c 0,0 -5.57116,30.50744 -9.35924,46.038536 0,0 1.51523,2.651652 5.68211,3.030462 0,0 -2.90419,14.77348 -13.88959,28.03173 -10.98541,13.25825 -20.8344,14.01586 -25.75889,15.9099 -4.9245,1.89404 -4.16688,7.19734 -4.16688,7.19734 0,0 -18.56156,5.3033 -24.62247,18.94036 -6.06092,13.63706 -1.13642,20.83439 -18.56156,26.5165 0.37881,1.13642 0.37881,6.06092 7.95496,7.19734 0,0 -11.36422,14.01587 -12.12183,14.39467 -0.75762,0.37881 -10.2278,-5.68211 -18.18275,3.78807 L 128.3525,213.09254 c 0,0 8.33377,-11.17482 15.72051,-17.42514 0,0 -1.13643,-5.68211 -14.39468,-2.27284 -13.25825,3.40926 -18.56155,-5.68211 -18.56155,-5.68211 0,0 1.51523,-11.74302 -4.92449,-18.18275 -6.439727,-6.43972 -10.606606,-7.57614 -10.606606,-7.57614 0,0 -13.637059,4.16688 -21.970818,0.75761 0,0 -1.894036,4.9245 1.136422,10.2278 0,0 -7.576144,6.43972 -9.47018,13.25825 0,0 -1.136422,6.06092 2.272843,11.74302 0,0 -1.136421,6.81853 4.545687,11.74303 0,0 2.808557,8.4447 11.89993,11.09635 -0.630099,-5.71909 -0.997555,-11.43818 -0.914522,-17.15727 0,0 3.409265,-3.40926 5.682108,-9.84898 0,0 -4.924493,-12.87945 -9.091372,-19.69798 l 6.439722,1.13642 c 0,0 1.848079,13.25825 9.045416,15.9099 l 9.04263,51.23367 3.40926,-3.40926 z"
             style="color:#000000;fill:#dcdddf;fill-opacity:1;stroke:#000000;stroke-width:2;stroke-linecap:butt;stroke-linejoin:miter;stroke-miterlimit:4;stroke-opacity:1;stroke-dasharray:none;stroke-dashoffset:0;marker:none;visibility:visible;display:inline;overflow:visible;enable-background:accumulate" />
          <path
             transform="translate(-533.46267,309.66948)"
             d="m 268.5743,48.690208 c 0,3.76577 -3.05276,6.81853 -6.81853,6.81853 -3.76577,0 -6.81853,-3.05276 -6.81853,-6.81853 0,-3.765769 3.05276,-6.818529 6.81853,-6.818529 3.76577,0 6.81853,3.05276 6.81853,6.818529 z"
             sodipodi:ry="6.8185296"
             sodipodi:rx="6.8185296"
             sodipodi:cy="48.690208"
             sodipodi:cx="261.75577"
             id="path4643"
             style="color:#000000;fill:#dcdddf;fill-opacity:1;stroke:#000000;stroke-width:2;stroke-linecap:square;stroke-linejoin:miter;stroke-miterlimit:4;stroke-opacity:1;stroke-dasharray:none;stroke-dashoffset:0;marker:none;visibility:visible;display:inline;overflow:visible;enable-background:accumulate"
             sodipodi:type="arc" />
          <path
             style="color:#000000;fill:none;stroke:#000000;stroke-width:2;stroke-linecap:butt;stroke-linejoin:miter;stroke-miterlimit:4;stroke-opacity:1;stroke-dasharray:none;stroke-dashoffset:0;marker:none;visibility:visible;display:inline;overflow:visible;enable-background:accumulate"
             d="m 251.52798,102.54397 c 0,0 7.76555,-21.592017 11.36422,-49.813153 m -3.33863,20.134952 c 0,0 7.76786,0 15,0 7.23214,0 15.53571,2.678571 16.875,21.428571 0,0 -4.55358,5.223214 -0.26785,12.05357 0,0 -3.87442,11.36095 -12.7137,19.66453 0,0 -3.86095,-0.41131 -9.48595,1.46369 -5.625,1.875 -10.29889,-3.59269 -11.2459,-6.81256 0,0 0.1894,-3.03045 0,-5.3033 0,0 -1.51523,-2.46224 -0.37881,-6.25031 0,0 -0.75761,-3.40927 0,-6.81854 0,0 -3.21987,0.18941 -4.73509,-2.841048 m 38.82774,6.944798 36.7443,0 m -36.17609,-12.278737 38.25953,0 m -18.05648,84.694047 c 0,0 16.86834,17.87314 42.21797,17.01382 25.34962,-0.8593 46.39041,-26.83031 46.39041,-26.83031 m -7.59437,8.24678 c 0,0 15,6.42857 18.75,8.30357 m -0.53571,40.44643 c 0,0 3.75,-2.41072 5.35714,-4.82143 0,0 10.53572,11.875 34.375,6.25 m -51.96428,-15 c 0,0 2.67857,-2.41071 9.375,-2.14286 0,0 1.60714,-2.67857 3.21428,-4.28571 0,0 -6.16071,-16.60714 5.625,-29.73215 m 3.66072,94.01786 c 0,0 12.09626,-2.71106 33.97189,-1.79654 m -12.27546,-0.25703 -1.60715,-39.64286 m -213.62385,60.779 c 0,0 67.42768,-0.37881 85.98923,-1.89404 m -95.45941,22.72844 c 0,0 66.29126,7.19733 104.92959,-4.54569 m -112.88454,26.1377 c 0,0 42.80522,12.87944 125.00638,-2.65165 m -136.7494,56.44227 c 0,0 4.54569,6.25031 15.15228,9.84899 0,0 2.25485,-21.43828 7.95495,-34.85027 6.43972,-15.15228 12.50064,-17.80394 20.07679,-17.42513 7.57615,0.37881 13.36467,11.13622 15.53109,25.00128 2.16642,13.86506 3.40927,29.16815 3.40927,29.16815 0,0 21.97081,3.40927 40.53237,-7.19733 18.56155,-10.60661 41.66879,-21.97082 46.59328,-23.10724 M 200.80357,356.70505 c 0,0 10.44643,8.03572 18.21429,9.64286 m 37.76785,1.33929 c 0,0 34.46429,-0.35715 53.75,-8.92858 19.28572,-8.57142 31.60715,-12.5 31.60715,-12.5 m -125.46514,30.85743 c 0,0 23.48605,10.6066 42.42641,5.68211 m 74.02087,3.81761 c 0,0 0.26786,-7.76786 0.26786,-13.125 m -55.80378,57.81003 c 0,0 4.41019,-1.22031 8.60162,-0.26786 6.19233,1.40713 8.24848,-4.36952 13.95088,-3.40926 -0.83337,2.05318 -1.02609,4.09703 0.75761,9.09137 1.89403,5.3033 6.95495,9.07732 10.6066,8.55566 3.65165,-0.52166 6.06091,-4.00997 6.06091,-8.17685 0,-4.16688 6.06092,-4.16688 7.95496,-2.27284 m -7.95496,1.89403 c 0,0 -6.81852,-30.68338 -2.65165,-54.54824 m -18.54623,101.55097 c 0,0 4.65664,-1.86154 8.0659,-5.2708 3.40927,-3.40927 8.52316,-3.59867 8.52316,-3.59867 0,0 -4.02931,-12.51826 2.66712,-14.39326 6.69643,-1.875 6.96428,3.75 8.03571,6.16072 1.07143,2.41071 6.42857,3.48214 8.57143,-0.80357 M 209.48038,227.86601 c 0,0 0,-17.61453 0.75762,-28.59994 m -38.63834,6.25032 c 0,0 28.03174,1.89403 41.28999,-7.95495 13.25825,-9.84899 16.28871,-23.48605 16.28871,-23.48605 m -21.88285,-20.94534 c 0,0 9.12216,-2.63117 11.78898,4.70259 2.66682,7.33376 6.49224,21.68795 31.08517,23.17223 26.05883,1.57276 78.20402,-0.0368 86.40054,-11.09636 9.68719,-13.07094 9.32266,-22.48917 23.25123,-23.29274 m -40.36069,38.5713 c 0,0 -2.76431,15.98227 3.12854,22.94656 5.89286,6.96428 14.30739,4.28571 18.05739,0.26785 3.75,-4.01785 5.89285,-5.08928 5.89285,-5.08928 m -93.37004,85.92058 c 0,0 -7.57614,-10.6066 -12.50064,-21.2132 -4.92449,-10.6066 -9.27729,-25.79799 -2.65165,-45.83567 7.57615,-22.91227 11.36422,-41.28999 11.36422,-41.28999 m -126.1428,72.47845 c 0,0 9.09137,-8.71257 15.9099,-12.12184 6.81853,-3.40926 6.92292,-8.38476 4.24435,-11.33119 -2.67857,-2.94643 -1.07143,-6.16071 0.26785,-7.5 m 14.73215,-2.94643 c 0,0 6.96428,3.48214 4.01785,9.64286 -2.94642,6.16071 -2.41071,8.57143 3.75,10.71428 6.16072,2.14286 15.26786,8.30358 17.14286,14.73215 m -6.96428,-9.375 33.48214,-39.91072 m -102.41072,33.57143 c 0,0 17.67858,-21.96428 21.42858,-26.78571 m -13.66072,16.875 17.41072,16.33928 M 73.839285,169.91934 c 0,0 1.607143,4.01786 7.232143,4.55357 m -8.839285,35.89286 c 0,0 5.625,-17.94643 13.928571,-21.69643 m -18.75,9.64286 c 0,0 5.625,-12.58929 15.803571,-16.60715 M 65,190.27648 c 0,0 7.232143,-12.58928 15.803571,-13.39285 M 300.80357,597.6872 c 0,0 1.33929,-2.94643 8.03571,-2.94643 6.69643,0 12.58929,16.33928 12.05358,20.35714 m 11.25,-4.01786 c 0,0 0.40178,-27.99107 -20.49108,-26.91964 m 29.59822,1.74107 c -0.53572,4.28572 1.07143,7.5 -1.07143,10.98215 -1.98532,3.22614 -9.10714,4.28571 -9.10714,4.28571 0,0 0.0693,-27.125 4.64285,-60.44643 4.57353,-33.32142 -8.12499,-56.51786 -9.99999,-63.75 -1.875,-7.23215 -3.11959,-13.42536 -3.11959,-13.42536 m -131.28791,134.4075 c 0,0 2.14286,-2.41071 7.5,-1.33928 5.35714,1.07143 12.62178,12.05357 12.35392,20.625 m 10.44643,-1.07143 c 0,0 -0.53572,-30.26786 -21.42857,-30.53572 m 33.21429,10.80358 c -1.60715,12.85714 -13.66072,7.76785 -13.66072,7.76785 0,0 0.98619,-5.73932 0.60738,-15.58831 -0.3788,-9.84899 -0.51809,-79.14383 -26.23238,-108.60812 m -22.41071,5.08929 c 0,0 11.51785,-2.67857 20.62499,0 0,0 2.14287,-3.48215 1.875,-11.78571 -0.2252,-6.98124 9.91072,-7.5 11.25001,-1.875 1.33928,5.625 5.625,6.42857 5.625,6.42857 m -31.33929,-50.35715 c 0,0 2.41666,0.4251 5.08929,4.28572 2.43243,3.51365 8.41191,-0.28558 13.39285,0.26786 0,0 -1.875,10.98214 0.26786,16.875 2.14286,5.89285 6.96429,4.01785 8.83929,1.07142 1.875,-2.94642 6.16071,-2.94642 7.5,0.26786 M 208.125,448.9372 c 0,0 25.26786,-46.25 50.98214,-61.78572 m 6.25,10.71429 c 0,0 1.07143,5.89285 4.01786,10.98214"
             id="path4649"
             inkscape:connector-curvature="0"
             transform="translate(-531.18983,311.18471)"
             sodipodi:nodetypes="cccscccsccccccccccsccccccccccccccccccccccszzcsccccsccccccscsssccccscssccccsccsssccssccssccssccssccccccccccccccccsccccscssccscccccscccssccscssccccc" />
          <path
             style="font-size:medium;font-style:normal;font-variant:normal;font-weight:normal;font-stretch:normal;text-indent:0;text-align:start;text-decoration:none;line-height:normal;letter-spacing:normal;word-spacing:normal;text-transform:none;direction:ltr;block-progression:tb;writing-mode:lr-tb;text-anchor:start;baseline-shift:baseline;color:#000000;fill:#000000;fill-opacity:1;stroke:none;stroke-width:1.5;marker:none;visibility:visible;display:inline;overflow:visible;enable-background:accumulate;font-family:Sans;-inkscape-font-specification:Sans"
             d="m -265.93983,410.46596 c -0.13385,0.66255 -0.49126,1.21399 -0.90625,1.53125 -0.41499,0.31726 -0.84493,0.43997 -1.34375,0.28125 -3.26824,-1.0399 -6.1875,0.4375 -6.1875,0.4375 l 0.65625,1.34375 c 0,0 2.43788,-1.2101 5.0625,-0.375 0.97439,0.31003 1.97861,0.0658 2.71875,-0.5 0.74014,-0.56584 1.26778,-1.41143 1.46875,-2.40625 0.40195,-1.98964 -0.56413,-4.5068 -3.95312,-5.4375 2.236,2.01573 2.75207,3.79991 2.48437,5.125 z m -4.625,8.6875 c -1.68078,-0.10278 -3,0.21875 -3,0.21875 l 0.3125,1.46875 c 0,0 4.5605,-0.9544 7.23438,1.15625 -0.83624,-2.20951 -2.8661,-2.74097 -4.54688,-2.84375 z m -1.34375,6.8125 c -0.96004,0.0564 -1.5625,0.25 -1.5625,0.25 l 0.5,1.40625 c 0,0 1.77751,-0.65785 4.48438,-0.3125 -1.14979,-1.3075 -2.46184,-1.40018 -3.42188,-1.34375 z m 19.84375,11.65625 -1.15625,-0.9375 c -5.19945,6.54748 -9.76562,17.125 -9.76562,17.125 0,0 5.89354,-9.85552 10.92187,-16.1875 z m 150.8125,57.46875 -0.59375,-1.375 c -9.60642,3.95558 -10.15625,16.48437 -10.15625,16.48437 0,0 2.14212,-11.56495 10.75,-15.10937 z m -334.61607,6.375 -0.46875,1.4375 c 0,0 5.29405,1.4163 9.33482,-1 -3.99495,0.79798 -8.86607,-0.4375 -8.86607,-0.4375 z m 354.08482,25.6875 -0.9375,-1.1875 c -7.14901,5.61708 -17.75,4.07812 -17.75,4.07812 0,0 10.83651,3.27802 18.6875,-2.89062 z m -314.40625,44.28125 c -0.41598,3.98652 0.34375,7.25 0.34375,7.25 l 1.46875,-0.34375 c 0,0 -0.73134,-3.03563 -0.34375,-6.75 0.38759,-3.71437 1.84628,-7.99421 5.76563,-11.29688 -5.1878,2.32234 -6.8184,7.15411 -7.23438,11.14063 z m 34.34375,4.2812 1.5,0.21875 c 0,0 1.71614,-11.12891 -6.65625,-15.625 6.62761,5.14677 5.15625,15.40625 5.15625,15.40625 z m 256.15625,38.71875 c -4.79899,0 -8.6875,0.75 -8.6875,0.75 l 0.28125,1.46875 c 0,0 3.76328,-0.71875 8.40625,-0.71875 4.64297,0 10.13174,0.78674 13.96875,2.9375 -3.39513,-3.7421 -9.16976,-4.4375 -13.96875,-4.4375 z m -0.40625,32.625 1.5,-0.21875 c -0.85727,-6.45365 -1.38055,-12.72779 -0.89062,-18.5 -2.02632,5.76999 -1.47293,12.21784 -0.60938,18.71875 z m -16.59375,3.34375 1.46875,-0.21875 c 0,0 -1.70428,-10.93877 -0.59375,-19.71875 -2.63947,8.89858 -0.875,19.9375 -0.875,19.9375 z m 8.125,-7.875 c 0.10077,4.26598 0.3125,7.8125 0.3125,7.8125 l 1.5,-0.0937 c 0,0 -0.21238,-3.54277 -0.3125,-7.78125 -0.10012,-4.23848 -0.10309,-9.18459 -0.45312,-11.9844 -1.15361,2.82519 -1.14765,7.78087 -1.04688,12.04685 z m -241.62495,107.28125 -5e-5,0 -0.0937,1.5 c 0,0 6.67242,0.47259 11.4375,7.03125 -3.80634,-7.90562 -11.34375,-8.53125 -11.34375,-8.53125 z m 110.9062,1.03125 c -4.70328,0.46527 -8.0625,3.03125 -8.0625,3.03125 l 0.90625,1.1875 c 0,0 7.68403,-5.95022 16.21875,-1.15625 -2.93794,-2.85446 -6.24053,-3.34166 -9.0625,-3.0625 z m 10.3125,32.78125 c -3.07484,1.19828 -5.78125,1.15625 -5.78125,1.15625 l -0.0312,1.5 c 0,0 2.97887,0.0613 6.34375,-1.25 3.36488,-1.31131 7.19544,-4.08004 8.06248,-9.73438 -2.16343,4.76287 -5.51894,7.12985 -8.59378,8.32813 z m -119.75,0.53125 c -4.10571,0.48877 -7.6875,-0.0312 -7.6875,-0.0312 l -0.21875,1.46875 c 0,0 3.76195,0.54694 8.09375,0.0312 4.3318,-0.51569 9.37195,-2.10736 11.01563,-6.9375 -2.64204,3.47344 -7.09742,4.97998 -11.20313,5.46875 z m 91.56858,-397.40118 c 0,0 -0.48126,2.56669 0.16041,5.77505 0,0 -0.48125,2.08544 0.32084,3.5292 0,0 1.7646,-2.88752 5.61463,-2.88752 3.85003,0 5.77654,-0.74912 5.77654,-0.74912 0,0 -3.20984,-6.95096 -11.87242,-5.66761 z"
             id="path4677"
             inkscape:connector-curvature="0"
             sodipodi:nodetypes="sssccscscsscccscccccccccccccccccccccsccscsccccsccscsccccccccsccscscccccscccssccscssccccscccscc" />
        </g>
      </g>
    </g>
  </g>
</svg>
