<?xml version="1.0" encoding="utf-8"?>
<!-- Generator: Adobe Illustrator 15.0.1, SVG Export Plug-In . SVG Version: 6.00 Build 0)  -->
<!DOCTYPE svg PUBLIC "-//W3C//DTD SVG 1.1//EN" "http://www.w3.org/Graphics/SVG/1.1/DTD/svg11.dtd">
<svg version="1.1" id="Layer_1" xmlns="http://www.w3.org/2000/svg" xmlns:xlink="http://www.w3.org/1999/xlink" x="0px" y="0px"
	 width="460px" height="554px" viewBox="0 0 460 554" enable-background="new 0 0 460 554" xml:space="preserve">
<path d="M4.82,5.68C119.88,5.41,234.939,5.64,350,5.56c35.391,0.08,70.79-0.16,106.18,0.12c0.24,105.44,0.011,210.88,0.11,316.32
	c0.15,33.39-7.04,66.8-21.271,97.02c-13.76,29.27-33.81,55.58-58.49,76.49c-26.399,22.51-58.039,38.91-91.729,47.27
	c-39.17,9.75-80.97,8.721-119.59-3.04c-34.1-10.33-65.59-29-91.25-53.7c-24.81-24-44.24-53.609-55.88-86.14
	C8.85,374.699,4.58,347.81,4.7,321C4.81,215.89,4.58,110.78,4.82,5.68"/>
<path fill="#0B4DA2" d="M450,291c-0.02-93.061,0.04-186.13-0.03-279.19c-33.659-0.26-67.319-0.04-100.979-0.109
	C236.34,11.77,123.68,11.55,11.03,11.81C10.97,116.54,10.99,221.27,11.02,326c0.42,40.449,12.37,80.72,34.18,114.8
	c20,31.66,48.28,57.939,81.14,75.85c35.46,19.37,76.4,28.57,116.74,26.101c33.449-1.811,66.4-11.671,95.47-28.28
	c29.761-16.98,55.511-40.931,74.5-69.45c18.66-27.76,30.72-59.88,35.07-93.04C450.88,331.77,449.78,311.329,450,291z"/>
<path d="M120.4,82.44c34.58-22.779,76.13-35.21,117.59-34.16c30.66-0.239,61.88,5.801,88.81,20.9c12.86,7.37,25.4,15.6,36.03,26
	c23.689,23.04,39.23,54.66,41.529,87.74c1.94,26.99-4.399,53.74-12.08,79.41c-4.869,16.109-11,31.79-16.119,47.81
	c-3.28,10.37-6.311,21.12-5.381,32.12c9.891-1.971,19.58-4.79,29.381-7.101c0.25,15.94,0.199,31.88,0.029,47.811
	c-24.479,0.04-48.959,0.08-73.439-0.021c-1.32-9.26-1.04-18.62-1.02-27.939c0.59-15.46,0.49-31.11,3.99-46.271
	c6.469-28.85,16.979-56.96,19.17-86.649c0.59-8.99,0.159-18.14-2.141-26.89c-2.08-8-6.8-14.9-11.13-21.811
	c-8.54-13.35-18.58-26.17-31.82-35.16c-14.079-9.689-30.95-14.67-47.84-16.38c-26.34-2.979-53.56-0.02-78.26,9.8
	c-22.28,8.94-43.14,24.431-53.52,46.61c-8.5,17.83-7.76,38.21-5.82,57.37c3.97,34.25,12.92,67.71,23.59,100.42
	c1.62,5.149,1.45,10.609,1.39,15.95c-0.14,10.319,0.12,20.649-0.15,30.97c-26.46,0.05-52.92,0.05-79.39,0
	c-0.12-14.84-0.3-29.69,0.1-44.521c10.71,1.561,21.11,4.771,31.92,5.66c-1.71-18.21-8.74-35.29-14.44-52.5
	c-10.18-30.359-21.32-61.229-21.8-93.62C58.82,152.54,82.5,107.53,120.4,82.44 M117.04,102.3c1.32,1.77,2.64,3.55,3.98,5.31
	c5.19-3.85,10.38-7.71,15.56-11.58c-1.19-1.829-2.39-3.659-3.6-5.479C127.33,93.99,122.08,98.02,117.04,102.3 M327.15,95.63
	c5.699,4.24,11.35,8.53,17.039,12.78c1.15-1.21,2.301-2.421,3.461-3.631c-5.48-4.829-11.48-9.01-17.17-13.579
	C329.35,92.66,328.24,94.14,327.15,95.63 M95.49,125.35c-4.27,4.47-6.86,10.21-9.74,15.61c2.71,1.069,5.41,2.189,8.08,3.39
	c3.04-5.46,6.19-10.87,9.27-16.3C100.64,127.02,98.25,125.31,95.49,125.35 M361.71,130.05c2.511,4.56,5.021,9.12,7.49,13.7
	c2.62-1.34,5.28-2.62,7.95-3.87c-2.601-4.67-5.4-9.24-8.36-13.69C366.45,127.52,364.09,128.8,361.71,130.05 M378.21,172.91
	c0.99,6.05,1.66,12.149,1.97,18.279c2.9-0.12,5.801-0.2,8.711-0.26c-0.311-6.34-0.861-12.67-1.73-18.96
	C384.18,172.36,381.2,172.69,378.21,172.91 M75.21,172.63c-0.77,6.21-1.27,12.46-1.41,18.72c3.03-0.05,6.05-0.07,9.08-0.05
	c0.6-6.16,1.26-12.311,1.96-18.46C81.63,172.86,78.42,172.78,75.21,172.63 M378.5,220.94c-1,6.36-2.37,12.641-3.66,18.94
	c3,0.41,6.01,0.84,9,1.359c1.2-6.399,2.27-12.819,3.141-19.26C384.15,221.68,381.32,221.34,378.5,220.94 M75.92,222.1
	c0.67,5.93,1.77,11.811,3.17,17.61c2.97-0.23,5.94-0.4,8.92-0.561c-0.99-5.81-2.29-11.56-3.81-17.26
	C81.44,221.97,78.68,222.03,75.92,222.1z"/>
<path d="M230.48,284.3c0.991,0.03,1.98,0.06,2.97,0.1c2.68,31.29,5.329,62.59,8.021,93.89c11.229-8.619,21.76-18.1,32.659-27.13
	c3.44-2.59,6.31-6.79,10.92-7.17c-0.229,1.851-0.771,3.681-1.87,5.221c-10.359,14.93-20.729,29.869-30.72,45.06
	c16.11,2.62,32.31,4.56,48.45,6.98c0.1,0.71,0.3,2.13,0.4,2.84c-16.141,3.47-32.44,6.09-48.61,9.38
	c3.86,6.6,8.659,12.56,13.021,18.819c7.18,9.851,14.1,19.881,21.359,29.66c1.05,1.66,2.68,3.36,2.34,5.49
	c-1.67,0.43-3.17-0.35-4.37-1.46c-14.37-12.38-28.7-24.81-43.229-37.02c-2.62,30.29-4.66,60.63-7.08,90.93
	c-0.73,0.04-2.19,0.12-2.92,0.17c-3.21-30.11-5.82-60.29-9.041-90.4c-14.21,12.73-27.78,26.17-41.63,39.29
	c-0.61-0.33-1.84-0.989-2.45-1.319c2.42-4.78,5.12-9.41,8.02-13.931c8.02-13.5,16.25-26.88,24.16-40.449
	c-16.01-2.29-31.98-4.811-47.98-7.23c0.01-0.76,0.01-2.27,0.01-3.03c16.43-2.739,32.91-5.14,49.3-8.1
	c-7.57-12.65-15.84-24.87-23.66-37.37c-2.44-4.09-5.78-7.74-7.26-12.32c0.21-0.35,0.63-1.06,0.84-1.41
	c4.54,1.811,7.63,5.761,11.25,8.86c9.5,8.43,18.87,16.99,28.4,25.37C224.7,346.78,227.43,315.53,230.48,284.3"/>
<path id="_x23_d2ab67ff" fill="#D2AB67" d="M172.52,61.03c16.34-5.449,33.43-8.529,50.61-9.569c21.46-0.811,43.21,0.17,64.101,5.529
	c-1.08,5.04-2.521,10.261-6.181,14.08c-7.64,8.431-19.021,12.091-29.88,14.17c-21.33,3.82-44.48,3.021-63.89-7.479
	C180.5,74.23,174.56,68.61,172.52,61.03z M290.27,57.8c21.16,5.31,40.53,16.1,58.01,28.95c27.551,20.979,47.011,52.7,52.011,87.08
	c2.319,14.8,1.66,29.899-0.771,44.64c-4.25,28.66-14.35,55.94-23.81,83.189c-4.64,14.301-9.979,29.24-7.479,44.5
	c9.72-2.02,19.25-4.88,28.93-7.1c0.199,13.64,0.119,27.28,0.05,40.92c-22.72,0.04-45.44,0.01-68.17,0.021
	c-0.09-8.641-0.511-17.271-0.22-25.91c9.97-2.66,19.939-5.32,29.89-8.08c-0.7-11.271,3.271-22.07,6.681-32.62
	c9.659-26.89,18.92-54.12,23.549-82.4c3.99-24.359,5.15-49.72-1.1-73.8C380.779,131.17,362.471,109.63,341,94
	c-16.16-11.82-34.32-20.78-53.391-26.82C288.561,64.07,289.45,60.95,290.27,57.8z M115.65,89.64
	c16.42-12.03,34.79-21.42,54.13-27.74c0.72,2.271,1.45,4.54,2.19,6.801c-18.2,5.449-35.22,14.479-50.43,25.819
	c-19.2,14.351-35.56,33.38-43.88,56.101c-7.18,19.68-8.05,41.06-6.04,61.739c1.05,10.15,2.17,20.341,4.73,30.25
	c4.61,20.62,11.19,40.73,18.45,60.55c5.17,14.771,11.69,29.67,11.49,45.61c11.29,2.37,22.46,5.29,33.76,7.67
	c0.38,7.84,0.23,15.69,0.16,23.54c-24.47,0.03-48.95,0.03-73.42,0c-0.09-12.67-0.13-25.34,0.03-38.02
	c10.59,2.399,21.29,4.31,32.02,6c0.03-15.181-5.32-29.61-9.92-43.851c-10.61-32.09-23.38-64.069-26.02-98.08
	C59.48,161.63,80.23,116.47,115.65,89.64z M273.189,81.14c5.23-2.41,8.73-7.06,12.98-10.72c2.04,0.17,4,0.83,5.95,1.45
	c12.5,4.39,24.53,10.13,35.79,17.119c-2.01,2.631-3.66,5.511-5.32,8.37c25.311,14.66,43.881,40.04,50.73,68.42
	c6.459,25.011,4.51,51.511-2.471,76.181c4.07,0.859,8.141,1.68,12.221,2.49c-3.12,16.09-8.12,31.75-13.32,47.27
	c-5.689,17.109-13.21,33.939-14.641,52.12c-8.709,2.37-17.42,4.729-26.139,7.029c0.059-7.97,0.439-15.939,1.079-23.89
	c0.94-12.44,4.2-24.54,7.41-36.55c5.49-20.47,11.59-40.92,13.92-62.05c1.229-12.09,1.351-24.61-2.39-36.311
	c-2.23-7.149-6.44-13.43-10.33-19.75c-8.939-14.229-19.76-27.699-33.85-37.119c-15.101-10.24-33.211-15.11-51.23-16.69
	c-31.36-2.87-64.04,2-91.84,17.3c-17.55,9.68-32.99,24.28-41.09,42.851c-4.67,10.439-6.47,21.939-6.57,33.319
	c-0.1,17.33,2.17,34.59,5.45,51.59c4.82,24.841,11.48,49.311,19.5,73.3c1.75,5.301,1.26,10.94,1.12,16.431
	c-10.28-2.221-20.55-4.53-30.73-7.2c-0.39-11.6-4.22-22.67-7.94-33.54c-8.31-22.91-16.86-45.87-21.78-69.79
	c4.13-0.2,8.26-0.24,12.38-0.24c-1.47-8.29-3.94-16.38-4.87-24.76c-3.17-24.21-0.61-49.53,9.67-71.84
	c6.25-13.51,15.16-25.87,26.39-35.68c5.56-4.641,11.62-8.641,17.56-12.78c-1.62-2.83-3.44-5.56-4.72-8.57
	c2.95-2.899,6.83-4.489,10.41-6.43c8.75-4.62,17.95-8.35,27.41-11.22c11.82,12.5,29.41,17.27,46.03,18.819
	C237.971,90.87,256.9,89.49,273.189,81.14z M97.61,121.96c4.91-6.471,10.7-12.19,16.72-17.62c1.44,1.89,2.92,3.75,4.4,5.6
	c-4.89,4.98-9.49,10.23-13.79,15.74C102.51,124.41,100.07,123.18,97.61,121.96z M350.529,105.89
	c6.271,5.23,11.881,11.21,16.771,17.75c-2.409,1.21-4.75,2.61-7.31,3.47c-5.04-4.81-8.78-10.83-13.74-15.739
	C347.689,109.55,349.109,107.73,350.529,105.89z M370.15,146.76c2.979-1.42,5.939-2.87,8.89-4.35c4.09,8.409,6.8,17.42,8.21,26.659
	c-3.29,0.2-6.58,0.42-9.859,0.65C375.71,161.85,373.221,154.18,370.15,146.76z M83.91,143.72c2.96,1.17,5.93,2.35,8.92,3.47
	c-2.87,7.34-5.35,14.84-7.04,22.54c-3.29-0.1-6.59-0.17-9.88-0.18C77.26,160.6,79.99,151.89,83.91,143.72z M380.279,194.25
	c3-0.08,6-0.19,9-0.29c-0.149,8.38-0.739,16.75-1.649,25.09c-2.819-0.45-5.649-0.86-8.479-1.24
	C379.88,209.98,380.42,202.12,380.279,194.25z M73.72,194.6c3.09,0.01,6.17,0,9.25-0.01c-0.13,8.149,0.3,16.31,1.19,24.42
	c-2.96-0.03-5.92-0.05-8.88-0.06C74.47,210.86,73.76,202.74,73.72,194.6z"/>
<path fill="#E7E7E7" d="M231.66,301.92c2.92,27.479,4.66,55.08,7.38,82.58c12.38-9.511,23.67-20.381,36.181-29.73
	c-9.011,14.26-19.08,27.81-28.261,41.95c14.42,2.229,28.95,3.77,43.31,6.359c-14.359,3.011-28.83,5.48-43.229,8.32
	c10.479,15.03,21.5,29.69,31.81,44.84c-13.52-10.85-26.279-22.63-39.68-33.63c-2.13,26.17-4.02,52.36-6.05,78.53
	c-3.05-26.05-5.08-52.22-7.96-78.29c-12.54,11.56-24.61,23.62-37.23,35.09c9.05-15.79,18.73-31.22,27.94-46.91
	c-13.75-2.35-27.63-3.96-41.35-6.5c14.17-3.06,28.62-4.71,42.9-7.24c-8.49-14.369-18.18-28-26.6-42.409
	c11.47,9.37,22.06,19.76,33.33,29.37C226.82,356.829,229.45,329.39,231.66,301.92z"/>
</svg>
