<?xml version="1.0" encoding="UTF-8" standalone="no"?>
<!-- Created with Inkscape (http://www.inkscape.org/) -->

<svg
   xmlns:dc="http://purl.org/dc/elements/1.1/"
   xmlns:cc="http://creativecommons.org/ns#"
   xmlns:rdf="http://www.w3.org/1999/02/22-rdf-syntax-ns#"
   xmlns:svg="http://www.w3.org/2000/svg"
   xmlns="http://www.w3.org/2000/svg"
   xmlns:xlink="http://www.w3.org/1999/xlink"
   xmlns:sodipodi="http://sodipodi.sourceforge.net/DTD/sodipodi-0.dtd"
   xmlns:inkscape="http://www.inkscape.org/namespaces/inkscape"
   width="396.9375"
   height="478.34375"
   id="svg2"
   version="1.1"
   inkscape:version="0.48.5 r10040"
   sodipodi:docname="Varėna.svg">
  <defs
     id="defs4" />
  <sodipodi:namedview
     id="base"
     pagecolor="#f6f3f1"
     bordercolor="#666666"
     borderopacity="1.0"
     inkscape:pageopacity="0"
     inkscape:pageshadow="2"
     inkscape:zoom="1"
     inkscape:cx="29.624334"
     inkscape:cy="216.99974"
     inkscape:document-units="px"
     inkscape:current-layer="layer1"
     showgrid="false"
     showborder="true"
     inkscape:window-width="1920"
     inkscape:window-height="1017"
     inkscape:window-x="-8"
     inkscape:window-y="-8"
     inkscape:window-maximized="1"
     inkscape:showpageshadow="false"
     fit-margin-top="0"
     fit-margin-left="0"
     fit-margin-right="0"
     fit-margin-bottom="0" />
  <metadata
     id="metadata7">
    <rdf:RDF>
      <cc:Work
         rdf:about="">
        <dc:format>image/svg+xml</dc:format>
        <dc:type
           rdf:resource="http://purl.org/dc/dcmitype/StillImage" />
      </cc:Work>
    </rdf:RDF>
  </metadata>
  <g
     inkscape:label="Layer 1"
     inkscape:groupmode="layer"
     id="layer1"
     transform="translate(-161.59375,-270)">
    <g
       id="g4020">
      <path
         sodipodi:nodetypes="cszscc"
         inkscape:connector-curvature="0"
         id="path3761"
         d="m 163.83756,272.26053 c 0,0 0,163.20091 0,282.90399 0,95.45942 81.82235,190.91883 196.22213,190.91883 114.39978,0 196.22214,-95.45941 196.22214,-190.91883 0,-119.70308 0,-282.90399 0,-282.90399 z"
         style="color:#000000;fill:#00418f;stroke:#000000;stroke-width:4.50000000000000000;stroke-linecap:butt;stroke-linejoin:miter;stroke-miterlimit:4;stroke-opacity:1;stroke-dasharray:none;stroke-dashoffset:0;marker:none;visibility:visible;display:inline;overflow:visible;enable-background:accumulate;fill-opacity:1" />
      <g
         transform="translate(-0.66664143,0)"
         id="g3816">
        <g
           id="g3790">
          <path
             transform="translate(161.60449,269.78505)"
             d="M 61.871842,225.84109 88.661099,210.25431 73.07432,237.04356 88.661098,263.83282 61.871841,248.24604 35.082584,263.83282 50.669363,237.04356 35.082585,210.25431 z"
             inkscape:randomized="0"
             inkscape:rounded="0"
             inkscape:flatsided="false"
             sodipodi:arg2="-0.78539814"
             sodipodi:arg1="-1.5707963"
             sodipodi:r2="37.885731"
             sodipodi:r1="11.202478"
             sodipodi:cy="237.04356"
             sodipodi:cx="61.871841"
             sodipodi:sides="4"
             id="path3788"
             style="color:#000000;fill:#d7b369;fill-opacity:1;stroke:#000000;stroke-width:2;stroke-linecap:round;stroke-linejoin:miter;stroke-miterlimit:4;stroke-opacity:1;stroke-dasharray:none;stroke-dashoffset:0;marker:none;visibility:visible;display:inline;overflow:visible;enable-background:accumulate"
             sodipodi:type="star" />
          <path
             sodipodi:type="arc"
             style="color:#000000;fill:#d9dadc;fill-opacity:1;stroke:#000000;stroke-width:1.34845114;stroke-linecap:square;stroke-linejoin:miter;stroke-miterlimit:4;stroke-opacity:1;stroke-dasharray:none;stroke-dashoffset:0;marker:none;visibility:visible;display:inline;overflow:visible;enable-background:accumulate"
             id="path3767"
             sodipodi:cx="62.125"
             sodipodi:cy="237.09375"
             sodipodi:rx="6.75"
             sodipodi:ry="6.75"
             d="m 68.875,237.09375 c 0,3.72792 -3.022078,6.75 -6.75,6.75 -3.727922,0 -6.75,-3.02208 -6.75,-6.75 0,-3.72792 3.022078,-6.75 6.75,-6.75 3.727922,0 6.75,3.02208 6.75,6.75 z"
             transform="matrix(1.4831831,0,0,1.4831831,117.14726,155.17517)" />
          <path
             transform="matrix(1.4831831,0,0,1.4831831,145.51992,155.17517)"
             d="m 68.875,237.09375 c 0,3.72792 -3.022078,6.75 -6.75,6.75 -3.727922,0 -6.75,-3.02208 -6.75,-6.75 0,-3.72792 3.022078,-6.75 6.75,-6.75 3.727922,0 6.75,3.02208 6.75,6.75 z"
             sodipodi:ry="6.75"
             sodipodi:rx="6.75"
             sodipodi:cy="237.09375"
             sodipodi:cx="62.125"
             id="path3769"
             style="color:#000000;fill:#d9dadc;fill-opacity:1;stroke:#000000;stroke-width:1.34845114;stroke-linecap:square;stroke-linejoin:miter;stroke-miterlimit:4;stroke-opacity:1;stroke-dasharray:none;stroke-dashoffset:0;marker:none;visibility:visible;display:inline;overflow:visible;enable-background:accumulate"
             sodipodi:type="arc" />
          <path
             transform="matrix(0,1.4831831,-1.4831831,0,575.12978,400.49953)"
             d="m 68.875,237.09375 c 0,3.72792 -3.022078,6.75 -6.75,6.75 -3.727922,0 -6.75,-3.02208 -6.75,-6.75 0,-3.72792 3.022078,-6.75 6.75,-6.75 3.727922,0 6.75,3.02208 6.75,6.75 z"
             sodipodi:ry="6.75"
             sodipodi:rx="6.75"
             sodipodi:cy="237.09375"
             sodipodi:cx="62.125"
             id="path3771"
             style="color:#000000;fill:#d9dadc;fill-opacity:1;stroke:#000000;stroke-width:1.34845114;stroke-linecap:square;stroke-linejoin:miter;stroke-miterlimit:4;stroke-opacity:1;stroke-dasharray:none;stroke-dashoffset:0;marker:none;visibility:visible;display:inline;overflow:visible;enable-background:accumulate"
             sodipodi:type="arc" />
          <path
             sodipodi:type="arc"
             style="color:#000000;fill:#d9dadc;fill-opacity:1;stroke:#000000;stroke-width:1.34845114;stroke-linecap:square;stroke-linejoin:miter;stroke-miterlimit:4;stroke-opacity:1;stroke-dasharray:none;stroke-dashoffset:0;marker:none;visibility:visible;display:inline;overflow:visible;enable-background:accumulate"
             id="path3773"
             sodipodi:cx="62.125"
             sodipodi:cy="237.09375"
             sodipodi:rx="6.75"
             sodipodi:ry="6.75"
             d="m 68.875,237.09375 c 0,3.72792 -3.022078,6.75 -6.75,6.75 -3.727922,0 -6.75,-3.02208 -6.75,-6.75 0,-3.72792 3.022078,-6.75 6.75,-6.75 3.727922,0 6.75,3.02208 6.75,6.75 z"
             transform="matrix(0,1.4831831,-1.4831831,0,575.12978,428.87219)" />
          <path
             transform="matrix(1.1296297,0,0,1.1296297,153.29809,239.00047)"
             d="m 68.875,237.09375 c 0,3.72792 -3.022078,6.75 -6.75,6.75 -3.727922,0 -6.75,-3.02208 -6.75,-6.75 0,-3.72792 3.022078,-6.75 6.75,-6.75 3.727922,0 6.75,3.02208 6.75,6.75 z"
             sodipodi:ry="6.75"
             sodipodi:rx="6.75"
             sodipodi:cy="237.09375"
             sodipodi:cx="62.125"
             id="path3765"
             style="color:#000000;fill:#d7b369;fill-opacity:1;stroke:#000000;stroke-width:1.7704916;stroke-linecap:square;stroke-linejoin:miter;stroke-miterlimit:4;stroke-opacity:1;stroke-dasharray:none;stroke-dashoffset:0;marker:none;visibility:visible;display:inline;overflow:visible;enable-background:accumulate"
             sodipodi:type="arc" />
        </g>
        <use
           x="0"
           y="0"
           xlink:href="#g3790"
           id="use3800"
           transform="translate(274.50001,0)"
           width="396.9375"
           height="478.34375" />
        <use
           height="478.34375"
           width="396.9375"
           transform="translate(137.25,58.5)"
           id="use3802"
           xlink:href="#g3790"
           y="0"
           x="0" />
        <use
           x="0"
           y="0"
           xlink:href="#g3790"
           id="use3804"
           transform="translate(21.75,111)"
           width="396.9375"
           height="478.34375" />
        <use
           height="478.34375"
           width="396.9375"
           transform="translate(252.75,111)"
           id="use3806"
           xlink:href="#g3790"
           y="0"
           x="0" />
        <use
           x="0"
           y="0"
           xlink:href="#g3790"
           id="use3808"
           transform="translate(137.25,175.5)"
           width="396.9375"
           height="478.34375" />
      </g>
      <g
         transform="translate(0.049745,0)"
         id="g3983">
        <g
           id="g3851"
           transform="translate(-0.236215,0)">
          <path
             sodipodi:nodetypes="ccsscssccssssccssccssscsscccssszccsszczcccssssccsscsscscssc"
             inkscape:connector-curvature="0"
             id="path3832"
             d="m 157.3265,27.738678 1.06542,-3.976201 c 0,0 -2.97748,0 -9.01561,0 -6.03814,0 -7.95495,5.92202 -4.50781,10.429825 3.44715,4.507806 3.44715,6.629126 3.44715,6.629126 0,0 -8.75045,0.265165 -7.68979,11.402097 1.06066,11.136932 14.05375,20.682874 26.25134,20.682874 12.19759,0 13.25825,0 13.25825,0 l 2.38649,-4.507806 c 0,0 -3.44715,0 -10.34144,0 -6.89429,0 -11.66726,-3.447146 -13.52342,-7.954951 -1.85615,-4.507806 -6.62912,-22.008699 -7.95495,-27.046835 -1.32582,-5.038136 0.53033,-5.658129 2.65165,-5.658129 2.12132,0 3.97272,0 3.97272,0 z m 8.986,-3.894929 c 0,0 16.875,0 20.625,0 3.75,0 3.9375,3.9375 3.9375,6.1875 0,2.25 4.875,14.4375 4.875,14.4375 l -6,0.9375 c 0,0 -4.125,-9.9375 -4.6875,-11.625 -0.5625,-1.6875 0.1875,-3.75 -0.75,-4.6875 -0.9375,-0.9375 -2.0625,0 -6.75,0 -3,0 -8.8125,0 -8.8125,0 0,0 -1.87932,5.4375 -4.3125,5.4375 -2.73378,0 -2.89796,-3.667848 -1.5,-5.625 1.2117,-1.696376 3.375,-5.0625 3.375,-5.0625 z m -43.01075,181.203231 0,-5.03814 c 0,0 -5.30331,-0.53033 -6.62913,-5.03813 -1.32583,-4.50781 2.38648,-11.13693 5.3033,-18.03123 2.91682,-6.89429 16.15826,-39.05056 29.16816,-47.99487 12.72792,-8.75045 18.82671,-7.95495 24.39518,-7.95495 5.56847,0 9.54594,0 9.54594,0 l -2.65165,-4.50781 c 0,0 -2.65165,0 -13.25825,0 -10.6066,0 -27.57717,4.24264 -38.7141,14.84925 -11.13693,10.6066 -17.78725,23.18135 -19.62221,32.88046 -1.83497,9.69912 5.83363,12.72792 5.83363,12.72792 0,0 -3.7317,4.83077 -7.42462,9.28078 -3.69293,4.45002 -0.7955,15.9099 14.05375,18.82672 z m 39.63575,32.23427 -2.8125,-4.5 c 0,0 -6.75,0 -9.375,-4.6875 -2.625,-4.6875 -3.05307,-12.9705 -0.66659,-27.55458 2.38649,-14.58407 9.01562,-47.46454 13.78859,-58.07114 4.77297,-10.6066 10.9405,-13.56178 17.128,-13.56178 6.1875,0 12.375,0 12.375,0 l -5.8125,-4.3125 c 0,0 -6.375,0 -12.1875,0 -5.8125,0 -16.0795,3.21967 -23.6705,15.5625 -6.9407,11.28547 -9.31087,19.63589 -9.31087,19.63589 0,0 8.75044,-1.59099 9.28077,6.0988 0.53033,7.68979 -2.38648,11.66726 -6.89429,11.13693 -4.5078,-0.53033 -6.09879,-3.44714 -6.09879,-3.44714 0,0 -3.18198,9.01561 -3.44715,19.09188 -0.26516,10.07627 3.18198,14.84924 9.54594,15.64474 0,0 -0.10125,2.85615 -2.65165,6.89428 -2.5504,4.03814 -3.44714,13.25826 1.32583,17.5009 4.77297,4.24264 12.44992,4.56872 19.48321,4.56872 z"
             style="color:#000000;fill:#d7b369;fill-opacity:1;stroke:#000000;stroke-width:2;stroke-linecap:butt;stroke-linejoin:miter;stroke-miterlimit:4;stroke-opacity:1;stroke-dasharray:none;stroke-dashoffset:0;marker:none;visibility:visible;display:inline;overflow:visible;enable-background:accumulate"
             transform="translate(161.59375,270)" />
          <use
             height="478.34375"
             width="396.9375"
             transform="matrix(-1,0,0,1,720.49233,0)"
             id="use3834"
             xlink:href="#path3832"
             y="0"
             x="0" />
        </g>
        <g
           transform="translate(0.196635,0)"
           id="g3947">
          <path
             style="color:#000000;fill:#d7b369;fill-opacity:1;stroke:#000000;stroke-width:2;stroke-linecap:butt;stroke-linejoin:miter;stroke-miterlimit:4;stroke-opacity:1;stroke-dasharray:none;stroke-dashoffset:0;marker:none;visibility:visible;display:inline;overflow:visible;enable-background:accumulate"
             d="m 380.40614,489.59549 c 9.25905,-27.26929 8.392,-45.83799 7.59651,-59.89173 -0.7955,-14.05375 -7.95495,-24.39519 -15.11441,-26.51651 -7.15945,-2.12132 -11.4021,-3.71231 -11.4021,-3.71231 8.48529,-1.59099 15.37958,-14.05375 16.44024,-19.88738 1.06066,-5.83363 2.68278,-24.93131 1.55778,-32.43131 -1.125,-7.5 -6.1875,-11.25 -6.1875,-11.25 3.9375,0.5625 7.29599,-1.65449 9,-5.0625 1.70401,-3.40801 2.625,-10.875 -1.5,-13.6875 -4.125,-2.8125 -7.49999,0.375 -7.49999,0.375 0,0 -5.0625,-3 -13.48336,-3 -8.42085,0 -13.48335,3 -13.48335,3 0,0 -3.37499,-3.1875 -7.49999,-0.375 -4.125,2.8125 -3.20401,10.27949 -1.5,13.6875 1.70401,3.40801 5.0625,5.625 9,5.0625 0,0 -5.0625,3.75 -6.1875,11.25 -1.125,7.5 0.49712,26.59768 1.55778,32.43131 1.06066,5.83363 7.95495,18.29639 16.44024,19.88738 0,0 -4.24265,1.59099 -11.4021,3.71231 -7.15946,2.12132 -14.31891,12.46276 -15.11441,26.51651 -0.79549,14.05374 -1.66254,32.62244 7.59651,59.89173 9.25905,27.26929 15.88834,29.82244 20.59282,29.82244 4.70449,0 11.33378,-2.55315 20.59283,-29.82244 z"
             id="path3916"
             inkscape:connector-curvature="0"
             sodipodi:nodetypes="zsscssczsczcszcsscsszzz" />
          <path
             sodipodi:nodetypes="czc"
             inkscape:connector-curvature="0"
             id="path3859"
             d="m 345.32604,336.56916 c 0,0 5.54182,-3.10041 14.48727,-3.10041 8.94546,0 14.48728,3.10041 14.48728,3.10041"
             style="color:#000000;fill:none;stroke:#000000;stroke-width:2;stroke-linecap:butt;stroke-linejoin:miter;stroke-miterlimit:4;stroke-opacity:1;stroke-dasharray:none;stroke-dashoffset:0;marker:none;visibility:visible;display:inline;overflow:visible;enable-background:accumulate" />
          <path
             d="m 373.44259,335.75 c 0,0 -4.79861,-0.59375 -4.3125,-4.96875 0.48611,-4.375 3.9375,-3.5625 5.625,-5.4375 1.6875,-1.875 1.59375,-6.84375 -2.8125,-8.4375 m 16.0917,119.60341 c 0,0 -13.52342,-2.91682 -28.22098,-2.91682 -14.69755,0 -28.22097,2.91682 -28.22097,2.91682 m 50.07799,48.79037 c 0,0 -13.52342,-1.85616 -21.85701,-1.85616 -8.3336,0 -21.85702,1.85616 -21.85702,1.85616 M 346.18404,335.75 c 0,0 4.79861,-0.59375 4.3125,-4.96875 -0.48611,-4.375 -3.9375,-3.5625 -5.625,-5.4375 -1.6875,-1.875 -1.59375,-6.84375 2.8125,-8.4375 M 333.44849,419.5391 c 0,0 11.66727,-2.65165 26.36482,-2.65165 14.69756,0 26.36483,2.65165 26.36483,2.65165 m -54.5858,33.67596 c 0,0 13.25825,-2.65165 28.22097,-2.65165 14.96273,0 28.22098,2.65165 28.22098,2.65165 m -54.32063,16.97056 c 0,0 9.54594,-3.44715 26.09965,-3.44715 16.55372,0 26.09966,3.44715 26.09966,3.44715 m -41.59271,30.75914 c 0,0 10.34144,-0.7955 15.49305,-0.7955 5.15162,0 15.49306,0.7955 15.49306,0.7955"
             style="color:#000000;fill:none;stroke:#000000;stroke-width:1.5;stroke-linecap:butt;stroke-linejoin:miter;stroke-miterlimit:4;stroke-opacity:1;stroke-dasharray:none;stroke-dashoffset:0;marker:none;visibility:visible;display:inline;overflow:visible;enable-background:accumulate"
             id="path3869"
             inkscape:connector-curvature="0" />
          <path
             sodipodi:nodetypes="cccc"
             style="color:#000000;fill:#000000;stroke:none;stroke-width:2;marker:none;visibility:visible;display:inline;overflow:visible;enable-background:accumulate"
             d="m 362.13651,519.46212 c 0,0 -0.66291,3.71231 -2.3232,4.77297 -1.66028,-1.06066 -2.32319,-4.77297 -2.32319,-4.77297 z"
             id="path3871"
             inkscape:connector-curvature="0" />
        </g>
        <g
           id="g3845">
          <g
             id="g3838">
            <path
               style="color:#000000;fill:#d7b369;fill-opacity:1;stroke:#000000;stroke-width:2;stroke-linecap:butt;stroke-linejoin:miter;stroke-miterlimit:4;stroke-opacity:1;stroke-dasharray:none;stroke-dashoffset:0;marker:none;visibility:visible;display:inline;overflow:visible;enable-background:accumulate"
               d="m 94.359835,96.749079 c 0,0 -3.938555,0.110562 -9.507021,2.762212 C 79.284348,102.16294 73.776542,101.92583 63.374445,93.942825 52.972349,85.959821 46.669048,79.093583 41.630912,70.077971 c 0,0 7.61455,-10.341436 30.228815,-10.341436 22.614265,0 48.390273,5.607214 66.015273,10.857214 17.625,5.25 37,12.0625 37,12.0625 0,0 3.45267,-2.65717 7.01517,-0.59467 3.5625,2.0625 3.48483,9.40717 -3.64017,9.03217 l 0,3.75 c 0,0 2.60529,-0.06962 4.02459,2.236675 1.41929,2.30629 0.17193,5.288826 -1.58243,6.184796 -1.75435,0.89597 -4.12966,0.76603 -6.56716,-1.29647 -1.88363,1.25575 -0.39252,5.96544 -10.16461,9.12141 -9.81504,3.16984 -15.58408,4.42085 -20.94804,4.24265 -5.11521,-0.16994 -9.01561,-0.7955 -11.93243,-0.26517 -5.3033,2.38648 -13.25825,5.3033 -20.68287,3.44715 -7.42462,-1.85616 -16.705401,-7.15946 -20.152547,-9.28078 -3.447145,-2.12132 -4.318301,-4.30339 -1.59099,-6.89429 2.856155,-2.713298 5.706322,-5.590641 5.706322,-5.590641 z"
               id="path3836"
               inkscape:connector-curvature="0"
               transform="translate(161.59375,270)"
               sodipodi:nodetypes="cssczscscczzcsscsssc" />
            <path
               sodipodi:nodetypes="csssccssscccccsscccccccsccczccssccsccsccc"
               transform="translate(161.59375,270)"
               inkscape:connector-curvature="0"
               id="path3843"
               d="m 48.613591,80.242631 c 0,0 18.296388,-8.485281 37.653436,-7.159456 19.357053,1.325826 46.482973,4.385574 62.607973,9.260574 16.125,4.875 21.0074,4.43962 22.86356,3.511542 1.85616,-0.928077 2.33157,-2.651651 5.24839,-4.110058 M 53.3125,62.968749 c 0,0 2.25,4.125 7.5,4.5 5.25,0.375 8.0625,-1.6875 16.875,-1.5 8.8125,0.1875 12.75,1.6875 16.5,1.3125 3.75,-0.375 6.1875,-2.8125 6.9375,-4.5 0,0 -5.665584,22.853072 11.30498,32.664178 M 69.738406,66.542438 c 0,0 -2.99448,11.027096 11.854762,19.247213 m -19.965043,7.159456 c 0,0 10.496767,-8.110281 32.505465,-7.845116 22.0087,0.265165 52.76784,1.856155 63.10928,4.24264 10.34144,2.386486 16.13213,1.372118 18.38213,-0.877882 0,0 0.9375,2.34375 3.75,2.34375 m -64.4375,-25.65625 c 0,0 -0.75,8.0625 8.8125,12 m 6.75,1.125 c 0,0 -0.1875,5.8125 3,8.4375 m -38.4375,9.75 c 0,0 9.75,-1.125 21.1875,-1.125 11.4375,0 51.4205,-0.06629 59.108,0.871209 0,0 0.88837,-1.189375 3.54002,-1.189375 M 95.4375,112.46875 c 0,0 1.86645,-6.67549 9.5625,-10.96875 7.69605,-4.293261 14.05214,-6.229733 20.71071,-6.140626 M 109.5,117.90625 c 0,0 6.37712,-9.90968 20.69604,-13.88715 14.31891,-3.97748 32.56583,-2.91833 37.60924,-3.0494 4.58962,-0.11928 5.31657,-0.51895 6.89429,1.19324 M 103.75,102.40625 c 0,0 3.75,5.25 9.75,2.4375 6,-2.8125 10.3125,-5.625001 14.25,-0.1875 m 3.1875,10.3125 c 0,0 8.625,-5.4375 18,-8.0625 9.375,-2.625 17.25,-3.375 21.5625,0.375 m -23.25,-5.8125 c 0,0 0,3 1.5,5.25"
               style="color:#000000;fill:none;stroke:#000000;stroke-width:1.5;stroke-linecap:butt;stroke-linejoin:miter;stroke-miterlimit:4;stroke-opacity:1;stroke-dasharray:none;stroke-dashoffset:0;marker:none;visibility:visible;display:inline;overflow:visible;enable-background:accumulate" />
          </g>
          <use
             height="478.34375"
             width="396.9375"
             transform="matrix(-1,0,0,1,720.0199,0)"
             id="use3841"
             xlink:href="#g3838"
             y="0"
             x="0" />
        </g>
      </g>
    </g>
  </g>
</svg>
